<svg width="118" height="111" fill="none" xmlns="http://www.w3.org/2000/svg">
  <path d="M48.61 24.644c0 13.176-23.856 62.72-23.856 62.72S.897 37.82.897 24.645C.897 11.47 11.578.787 24.754.787S48.61 11.468 48.61 24.644Z" fill="url(#a)" />
  <path d="M33.22 24.644a8.465 8.465 0 1 1-16.931 0 8.465 8.465 0 0 1 16.93 0Z" fill="#fff" />
  <path d="M117.103 15.844c0 8.315-15.392 39.583-15.392 39.583S86.32 24.16 86.32 15.844C86.32 7.528 93.21.787 101.71.787c8.501 0 15.392 6.741 15.392 15.057Z" fill="url(#b)" />
  <path d="M107.173 15.844c0 2.95-2.445 5.342-5.462 5.342-3.016 0-5.461-2.392-5.461-5.342 0-2.95 2.445-5.343 5.461-5.343 3.017 0 5.462 2.392 5.462 5.343Z" fill="#fff" />
  <path stroke="#726F6F" stroke-width=".77" stroke-dasharray="1.54 1.54" d="m25.376 88.933 76.188-31.553" />
  <path d="m17.067 110.136 2.787-16.79h6.723c1.235 0 2.235.183 3 .549.771.366 1.31.874 1.616 1.525.306.645.388 1.388.246 2.23a4.166 4.166 0 0 1-.697 1.722c-.344.492-.77.896-1.28 1.213a5.226 5.226 0 0 1-1.655.672l-.033.164a3.336 3.336 0 0 1 1.713.541c.509.328.889.793 1.14 1.394.252.601.309 1.315.172 2.14a5.106 5.106 0 0 1-1.057 2.386c-.558.694-1.301 1.243-2.23 1.648-.924.404-2.015.606-3.272.606h-7.173Zm4.041-2.902h2.895c.983 0 1.735-.191 2.254-.574.52-.382.831-.888.935-1.517.071-.464.024-.874-.14-1.229-.158-.356-.428-.634-.811-.837-.377-.202-.855-.303-1.435-.303h-2.968l-.73 4.46Zm1.14-6.862h2.632c.48 0 .926-.085 1.336-.254a2.678 2.678 0 0 0 1.025-.738c.273-.323.446-.703.517-1.14.098-.612-.039-1.101-.41-1.467-.366-.372-.94-.558-1.722-.558h-2.69l-.688 4.157ZM98.928 68.814h-1.902l4.292-8.395h2.288l1.5 8.395h-1.902l-1.021-6.477h-.065l-3.19 6.477Zm.435-3.3h4.493l-.238 1.386h-4.493l.238-1.386Z" fill="#000" />
  <defs>
    <linearGradient id="a" x1="24.754" y1=".787" x2="24.754" y2="87.365" gradientUnits="userSpaceOnUse">
      <stop stop-color="#D90000" />
      <stop offset="1" stop-color="#730000" />
    </linearGradient>
    <linearGradient id="b" x1="101.711" y1=".787" x2="101.711" y2="55.427" gradientUnits="userSpaceOnUse">
      <stop stop-color="#0E4686" />
      <stop offset="1" stop-color="#031120" />
    </linearGradient>
  </defs>
</svg>