<svg width="254" height="87" viewBox="0 0 254 87" fill="none" xmlns="http://www.w3.org/2000/svg">
  <g clip-path="url(#clip0_20_165)" filter="url(#filter0_d_20_165)">
    <path d="M232.074 72.2037H8.92593C3.92741 72.2037 0 68.2763 0 63.2778V9.72222C0 4.7237 3.92741 0.796295 8.92593 0.796295H232.074C237.073 0.796295 241 4.7237 241 9.72222V63.2778C241 68.2763 237.073 72.2037 232.074 72.2037Z" fill="black" />
    <path d="M232.074 2.22444C236.18 2.22444 239.572 5.6163 239.572 9.72222V63.2778C239.572 67.3837 236.18 70.7756 232.074 70.7756H8.92593C4.82 70.7756 1.42815 67.3837 1.42815 63.2778V9.72222C1.42815 5.6163 4.82 2.22444 8.92593 2.22444H232.074ZM232.074 0.796295H8.92593C3.92741 0.796295 0 4.90222 0 9.72222V63.2778C0 68.2763 3.92741 72.2037 8.92593 72.2037H232.074C237.073 72.2037 241 68.2763 241 63.2778V9.72222C241 4.90222 237.073 0.796295 232.074 0.796295Z" fill="#A6A6A6" />
    <path d="M84.6177 19.0052C84.6177 20.4333 84.2607 21.683 83.3681 22.5756C82.297 23.6467 81.0474 24.1822 79.4407 24.1822C77.834 24.1822 76.5844 23.6467 75.5133 22.5756C74.4422 21.5044 73.9066 20.2548 73.9066 18.6481C73.9066 17.0415 74.4422 15.7919 75.5133 14.7207C76.5844 13.6496 77.834 13.1141 79.4407 13.1141C80.1548 13.1141 80.8688 13.2926 81.5829 13.6496C82.297 14.0067 82.8325 14.3637 83.1896 14.8993L82.297 15.7919C81.5829 14.8993 80.6903 14.5422 79.4407 14.5422C78.3696 14.5422 77.2985 14.8993 76.5844 15.7919C75.6918 16.5059 75.3348 17.577 75.3348 18.8267C75.3348 20.0763 75.6918 21.1474 76.5844 21.8615C77.477 22.5756 78.3696 23.1111 79.4407 23.1111C80.6903 23.1111 81.5829 22.7541 82.4755 21.8615C83.0111 21.3259 83.3681 20.6119 83.3681 19.7193H79.4407V18.2911H84.6177V19.0052ZM92.8296 14.5422H88.0096V17.9341H92.4725V19.1837H88.0096V22.5756H92.8296V24.0037H86.5814V13.2926H92.8296V14.5422ZM98.7207 24.0037H97.2925V14.5422H94.2577V13.2926H101.756V14.5422H98.7207V24.0037ZM106.933 24.0037V13.2926H108.361V24.0037H106.933ZM114.43 24.0037H113.002V14.5422H109.967V13.2926H117.287V14.5422H114.252V24.0037H114.43ZM131.39 22.5756C130.318 23.6467 129.069 24.1822 127.462 24.1822C125.856 24.1822 124.606 23.6467 123.535 22.5756C122.464 21.5044 121.928 20.2548 121.928 18.6481C121.928 17.0415 122.464 15.7919 123.535 14.7207C124.606 13.6496 125.856 13.1141 127.462 13.1141C129.069 13.1141 130.318 13.6496 131.39 14.7207C132.461 15.7919 132.996 17.0415 132.996 18.6481C132.996 20.2548 132.461 21.5044 131.39 22.5756ZM124.606 21.683C125.32 22.397 126.391 22.9326 127.462 22.9326C128.533 22.9326 129.604 22.5756 130.318 21.683C131.033 20.9689 131.568 19.8978 131.568 18.6481C131.568 17.3985 131.211 16.3274 130.318 15.6133C129.604 14.8993 128.533 14.3637 127.462 14.3637C126.391 14.3637 125.32 14.7207 124.606 15.6133C123.892 16.3274 123.356 17.3985 123.356 18.6481C123.356 19.8978 123.713 20.9689 124.606 21.683ZM134.96 24.0037V13.2926H136.567L141.744 21.683V13.2926H143.172V24.0037H141.744L136.21 15.2563V24.0037H134.96Z" fill="white" stroke="white" stroke-width="1.18519" stroke-miterlimit="10" />
    <path d="M121.571 39.7133C117.287 39.7133 113.895 42.9267 113.895 47.3896C113.895 51.6741 117.287 55.0659 121.571 55.0659C125.856 55.0659 129.247 51.8526 129.247 47.3896C129.247 42.7482 125.856 39.7133 121.571 39.7133ZM121.571 51.8526C119.25 51.8526 117.287 49.8889 117.287 47.2111C117.287 44.5333 119.25 42.5696 121.571 42.5696C123.892 42.5696 125.856 44.3548 125.856 47.2111C125.856 49.8889 123.892 51.8526 121.571 51.8526ZM104.969 39.7133C100.684 39.7133 97.2926 42.9267 97.2926 47.3896C97.2926 51.6741 100.684 55.0659 104.969 55.0659C109.253 55.0659 112.645 51.8526 112.645 47.3896C112.645 42.7482 109.253 39.7133 104.969 39.7133ZM104.969 51.8526C102.648 51.8526 100.684 49.8889 100.684 47.2111C100.684 44.5333 102.648 42.5696 104.969 42.5696C107.29 42.5696 109.253 44.3548 109.253 47.2111C109.253 49.8889 107.29 51.8526 104.969 51.8526ZM85.1533 42.0341V45.2474H92.8296C92.6511 47.0326 91.937 48.4607 91.0444 49.3533C89.9733 50.4244 88.1881 51.6741 85.1533 51.6741C80.3333 51.6741 76.7629 47.9252 76.7629 43.1052C76.7629 38.2852 80.5118 34.5363 85.1533 34.5363C87.6526 34.5363 89.6163 35.6074 91.0444 36.857L93.3652 34.5363C91.4015 32.7511 88.9022 31.323 85.3318 31.323C78.9052 31.323 73.3711 36.6785 73.3711 43.1052C73.3711 49.5319 78.9052 54.8874 85.3318 54.8874C88.9022 54.8874 91.4015 53.8163 93.5437 51.4956C95.6859 49.3533 96.4 46.3185 96.4 43.9978C96.4 43.2837 96.4 42.5696 96.2215 42.0341H85.1533ZM166.201 44.5333C165.487 42.7482 163.701 39.7133 159.774 39.7133C155.847 39.7133 152.633 42.7482 152.633 47.3896C152.633 51.6741 155.847 55.0659 160.131 55.0659C163.523 55.0659 165.665 52.9237 166.379 51.6741L163.88 49.8889C162.987 51.1385 161.916 52.0311 160.131 52.0311C158.346 52.0311 157.275 51.317 156.382 49.7104L166.558 45.4259L166.201 44.5333ZM155.847 47.0326C155.847 44.1763 158.167 42.5696 159.774 42.5696C161.024 42.5696 162.273 43.2837 162.63 44.1763L155.847 47.0326ZM147.456 54.3519H150.848V32.037H147.456V54.3519ZM142.101 41.32C141.208 40.4274 139.78 39.5348 137.995 39.5348C134.246 39.5348 130.676 42.9267 130.676 47.2111C130.676 51.4956 134.067 54.7089 137.995 54.7089C139.78 54.7089 141.208 53.8163 141.922 52.9237H142.101V53.9948C142.101 56.8511 140.494 58.4578 137.995 58.4578C136.031 58.4578 134.603 57.0296 134.246 55.78L131.39 57.0296C132.282 58.9933 134.424 61.4926 138.173 61.4926C142.101 61.4926 145.314 59.1719 145.314 53.6378V40.0704H142.101V41.32ZM138.173 51.8526C135.853 51.8526 133.889 49.8889 133.889 47.2111C133.889 44.5333 135.853 42.5696 138.173 42.5696C140.494 42.5696 142.279 44.5333 142.279 47.2111C142.279 49.8889 140.494 51.8526 138.173 51.8526ZM181.732 32.037H173.699V54.3519H177.09V45.9615H181.732C185.481 45.9615 189.051 43.2837 189.051 38.9993C189.051 34.7148 185.481 32.037 181.732 32.037ZM181.91 42.7482H177.09V35.0719H181.91C184.41 35.0719 185.838 37.2141 185.838 38.8207C185.659 40.7844 184.231 42.7482 181.91 42.7482ZM202.44 39.5348C199.941 39.5348 197.441 40.6059 196.549 42.9267L199.584 44.1763C200.298 42.9267 201.369 42.5696 202.618 42.5696C204.404 42.5696 206.01 43.6407 206.189 45.4259V45.6044C205.653 45.2474 204.225 44.7119 202.797 44.7119C199.584 44.7119 196.37 46.497 196.37 49.7104C196.37 52.7452 199.048 54.7089 201.904 54.7089C204.225 54.7089 205.296 53.6378 206.189 52.5667H206.367V54.3519H209.581V45.783C209.224 41.8556 206.189 39.5348 202.44 39.5348ZM202.083 51.8526C201.012 51.8526 199.405 51.317 199.405 49.8889C199.405 48.1037 201.369 47.5682 202.976 47.5682C204.404 47.5682 205.118 47.9252 206.01 48.2822C205.653 50.4244 203.868 51.8526 202.083 51.8526ZM220.827 40.0704L217.078 49.7104H216.9L212.973 40.0704H209.402L215.293 53.6378L211.901 61.1356H215.293L224.398 40.0704H220.827ZM190.836 54.3519H194.228V32.037H190.836V54.3519Z" fill="white" />
    <path d="M18.5659 14.1852C18.0303 14.7207 17.8518 15.6133 17.8518 16.6844V56.137C17.8518 57.2082 18.2088 58.1007 18.7444 58.6363L18.9229 58.8148L41.0592 36.6785V36.3215L18.5659 14.1852Z" fill="url(#paint0_linear_20_165)" />
    <path d="M48.2 44.1763L40.8807 36.857V36.3215L48.2 29.0022L48.3785 29.1807L57.1259 34.1793C59.6252 35.6074 59.6252 37.9282 57.1259 39.3563L48.2 44.1763Z" fill="url(#paint1_linear_20_165)" />
    <path d="M48.3785 43.9978L40.8807 36.5L18.5659 58.8148C19.4585 59.7074 20.7081 59.7074 22.3148 58.9933L48.3785 43.9978Z" fill="url(#paint2_linear_20_165)" />
    <path d="M48.3785 29.0022L22.3148 14.1852C20.7081 13.2926 19.4585 13.4711 18.5659 14.3637L40.8807 36.5L48.3785 29.0022Z" fill="url(#paint3_linear_20_165)" />
    <path opacity="0.2" d="M48.2 43.8193L22.3148 58.4578C20.8867 59.3504 19.637 59.1718 18.7444 58.4578L18.5659 58.6363L18.7444 58.8148C19.637 59.5289 20.8867 59.7074 22.3148 58.8148L48.2 43.8193Z" fill="black" />
    <path opacity="0.12" d="M18.5659 58.4578C18.0303 57.9222 17.8518 57.0296 17.8518 55.9585V56.137C17.8518 57.2081 18.2088 58.1007 18.7444 58.6363V58.4578H18.5659ZM57.1259 38.8207L48.2 43.8193L48.3785 43.9978L57.1259 38.9993C58.3755 38.2852 58.9111 37.3926 58.9111 36.5C58.9111 37.3926 58.197 38.1067 57.1259 38.8207Z" fill="black" />
    <path opacity="0.25" d="M22.3148 14.3637L57.1259 34.1793C58.197 34.8933 58.9111 35.6074 58.9111 36.5C58.9111 35.6074 58.3755 34.7148 57.1259 34.0007L22.3148 14.1852C19.8155 12.757 17.8518 13.8282 17.8518 16.6844V16.863C17.8518 14.1852 19.8155 12.9356 22.3148 14.3637Z" fill="white" />
  </g>
  <defs>
    <filter id="filter0_d_20_165" x="0" y="0" width="254" height="87" filterUnits="userSpaceOnUse" color-interpolation-filters="sRGB">
      <feFlood flood-opacity="0" result="BackgroundImageFix" />
      <feColorMatrix in="SourceAlpha" type="matrix" values="0 0 0 0 0 0 0 0 0 0 0 0 0 0 0 0 0 0 127 0" result="hardAlpha" />
      <feOffset dx="9" dy="10" />
      <feGaussianBlur stdDeviation="2" />
      <feComposite in2="hardAlpha" operator="out" />
      <feColorMatrix type="matrix" values="0 0 0 0 0 0 0 0 0 0 0 0 0 0 0 0 0 0 0.25 0" />
      <feBlend mode="normal" in2="BackgroundImageFix" result="effect1_dropShadow_20_165" />
      <feBlend mode="normal" in="SourceGraphic" in2="effect1_dropShadow_20_165" result="shape" />
    </filter>
    <linearGradient id="paint0_linear_20_165" x1="38.917" y1="16.3453" x2="8.95623" y2="46.3042" gradientUnits="userSpaceOnUse">
      <stop stop-color="#00A0FF" />
      <stop offset="0.007" stop-color="#00A1FF" />
      <stop offset="0.26" stop-color="#00BEFF" />
      <stop offset="0.512" stop-color="#00D2FF" />
      <stop offset="0.76" stop-color="#00DFFF" />
      <stop offset="1" stop-color="#00E3FF" />
    </linearGradient>
    <linearGradient id="paint1_linear_20_165" x1="60.4" y1="36.5018" x2="17.2038" y2="36.5018" gradientUnits="userSpaceOnUse">
      <stop stop-color="#FFE000" />
      <stop offset="0.409" stop-color="#FFBD00" />
      <stop offset="0.775" stop-color="#FFA500" />
      <stop offset="1" stop-color="#FF9C00" />
    </linearGradient>
    <linearGradient id="paint2_linear_20_165" x1="44.3208" y1="40.5988" x2="3.69354" y2="81.226" gradientUnits="userSpaceOnUse">
      <stop stop-color="#FF3A44" />
      <stop offset="1" stop-color="#C31162" />
    </linearGradient>
    <linearGradient id="paint3_linear_20_165" x1="13.0265" y1="1.11049" x2="31.1693" y2="19.2533" gradientUnits="userSpaceOnUse">
      <stop stop-color="#32A071" />
      <stop offset="0.069" stop-color="#2DA771" />
      <stop offset="0.476" stop-color="#15CF74" />
      <stop offset="0.801" stop-color="#06E775" />
      <stop offset="1" stop-color="#00F076" />
    </linearGradient>
    <clipPath id="clip0_20_165">
      <rect width="241" height="73" fill="white" />
    </clipPath>
  </defs>
</svg>