<svg width="256" height="87" viewBox="0 0 256 87" fill="none" xmlns="http://www.w3.org/2000/svg">
<g clip-path="url(#clip0_20_178)" filter="url(#filter0_d_20_178)">
<path d="M239.465 63.7817C239.465 64.6807 239.288 65.5708 238.943 66.4013C238.599 67.2317 238.094 67.9862 237.458 68.6215C236.822 69.2568 236.067 69.7606 235.236 70.104C234.405 70.4473 233.514 70.6236 232.615 70.6227H8.44894C6.63207 70.6245 4.88882 69.9049 3.60259 68.622C2.31636 67.3392 1.59246 65.5981 1.59009 63.7817V9.22724C1.59245 7.41002 2.31607 5.66802 3.60205 4.38372C4.88802 3.09942 6.63124 2.37781 8.44894 2.37734H232.613C233.513 2.37734 234.404 2.55453 235.235 2.89879C236.066 3.24306 236.821 3.74764 237.458 4.38374C238.094 5.01983 238.598 5.77497 238.942 6.60603C239.286 7.43709 239.463 8.32778 239.463 9.22724L239.465 63.7817Z" fill="white"/>
<path d="M232.615 72.2141H8.44895C6.21077 72.2136 4.06418 71.3255 2.48021 69.7447C0.896236 68.1638 0.00425865 66.0193 0 63.7817L0 9.22901C0.00331107 6.99032 0.8947 4.84434 2.47862 3.26184C4.06254 1.67934 6.20966 0.789548 8.44895 0.787659L232.613 0.787659C234.852 0.790491 236.999 1.68058 238.583 3.26288C240.166 4.84517 241.058 6.99061 241.062 9.22901V63.7817C241.066 68.4328 237.269 72.2141 232.615 72.2141Z" fill="#A6A6A6"/>
<path d="M239.465 63.7817C239.465 64.6807 239.288 65.5708 238.943 66.4013C238.599 67.2317 238.094 67.9862 237.458 68.6215C236.822 69.2568 236.067 69.7606 235.236 70.104C234.405 70.4473 233.514 70.6236 232.615 70.6227H8.44894C6.63207 70.6245 4.88882 69.9049 3.60259 68.622C2.31636 67.3392 1.59246 65.5981 1.59009 63.7817V9.22724C1.59245 7.41002 2.31607 5.66802 3.60205 4.38372C4.88802 3.09942 6.63124 2.37781 8.44894 2.37734H232.613C233.513 2.37734 234.404 2.55453 235.235 2.89879C236.066 3.24306 236.821 3.74764 237.458 4.38374C238.094 5.01983 238.598 5.77497 238.942 6.60603C239.286 7.43709 239.463 8.32778 239.463 9.22724L239.465 63.7817Z" fill="black"/>
<path d="M53.8275 36.1249C53.7757 30.3681 58.5424 27.5674 58.7604 27.4371C56.0608 23.5022 51.8765 22.9645 50.4061 22.9217C46.8918 22.5519 43.4829 25.024 41.6927 25.024C39.8668 25.024 37.11 22.9574 34.1389 23.0181C30.3155 23.0771 26.7387 25.2901 24.7769 28.7267C20.7285 35.7337 23.7479 46.0309 27.6266 51.6948C29.5669 54.4705 31.8341 57.5659 34.8017 57.4569C37.705 57.339 38.7895 55.6083 42.293 55.6083C45.7644 55.6083 46.7828 57.4569 49.8094 57.3873C52.9252 57.339 54.8869 54.6009 56.7593 51.802C59.0015 48.6244 59.902 45.4915 59.9377 45.3307C59.8663 45.3057 53.8882 43.023 53.8275 36.1249ZM48.1103 19.1958C49.6718 17.2435 50.7402 14.5875 50.4436 11.8922C48.1835 11.9922 45.3571 13.4551 43.7295 15.3645C42.2895 17.047 41.0031 19.8048 41.3354 22.3983C43.8742 22.5877 46.4809 21.1177 48.1103 19.1958Z" fill="white"/>
<path d="M232.615 0.787666H112.545L159.574 72.2141H232.615C234.854 72.2122 237 71.3229 238.584 69.7412C240.168 68.1595 241.06 66.0144 241.064 63.7763V9.22902C241.06 6.99047 240.169 4.84476 238.585 3.26237C237.001 1.67997 234.854 0.790027 232.615 0.787666Z" fill="url(#paint0_linear_20_178)"/>
<path d="M95.8793 57.0586H91.8218L89.5993 50.0765H81.8739L79.7567 57.0586H75.8065L83.4622 33.2885H88.1896L95.8793 57.0586ZM88.9293 47.1473L86.9193 40.9404C86.7067 40.3063 86.3065 38.8131 85.7205 36.4625H85.649C85.4132 37.4734 85.0362 38.9667 84.5199 40.9404L82.5439 47.1473H88.9293ZM115.529 48.2779C115.529 51.1929 114.737 53.497 113.152 55.1885C111.734 56.6942 109.97 57.4462 107.868 57.4462C105.597 57.4462 103.964 56.6371 102.972 55.0153V64.0085H99.1631V45.5522C99.1631 43.7214 99.1148 41.8442 99.0219 39.9187H102.372L102.584 42.6354H102.656C103.926 40.5885 105.854 39.565 108.441 39.565C110.463 39.565 112.152 40.3634 113.503 41.962C114.851 43.5642 115.529 45.6683 115.529 48.2779ZM111.648 48.4172C111.648 46.7489 111.273 45.3736 110.519 44.2894C109.695 43.1623 108.589 42.5979 107.203 42.5979C106.263 42.5979 105.409 42.9123 104.646 43.5321C103.882 44.1572 103.381 44.9735 103.147 45.9845C103.043 46.3625 102.983 46.7516 102.97 47.1437V50.0033C102.97 51.2483 103.353 52.3003 104.117 53.1612C104.882 54.0186 105.875 54.449 107.097 54.449C108.532 54.449 109.649 53.8935 110.447 52.7915C111.248 51.6859 111.648 50.2284 111.648 48.4172ZM135.248 48.2779C135.248 51.1929 134.456 53.497 132.871 55.1885C131.451 56.6942 129.689 57.4462 127.585 57.4462C125.314 57.4462 123.681 56.6371 122.689 55.0153V64.0085H118.88V45.5522C118.88 43.7214 118.832 41.8442 118.739 39.9187H122.089L122.302 42.6354H122.373C123.642 40.5885 125.569 39.565 128.158 39.565C130.179 39.565 131.867 40.3634 133.222 41.962C134.569 43.5642 135.248 45.6683 135.248 48.2779ZM131.365 48.4172C131.365 46.7489 130.988 45.3736 130.234 44.2894C129.411 43.1623 128.308 42.5979 126.922 42.5979C125.982 42.5979 125.128 42.9123 124.362 43.5321C123.597 44.1572 123.098 44.9735 122.864 45.9845C122.748 46.456 122.686 46.84 122.686 47.1437V50.0033C122.686 51.2483 123.07 52.3003 123.831 53.1612C124.596 54.0168 125.589 54.449 126.815 54.449C128.251 54.449 129.368 53.8935 130.165 52.7915C130.965 51.6859 131.365 50.2284 131.365 48.4172ZM157.295 50.3909C157.295 52.4146 156.587 54.0597 155.181 55.3296C153.634 56.7157 151.474 57.4105 148.704 57.4105C146.146 57.4105 144.095 56.9175 142.548 55.9298L143.429 52.7558C145.099 53.7453 146.934 54.2383 148.931 54.2383C150.368 54.2383 151.484 53.9132 152.281 53.2684C153.08 52.6218 153.484 51.7573 153.484 50.6785C153.484 49.7122 153.15 48.903 152.494 48.2439C151.835 47.5866 150.745 46.974 149.214 46.4114C145.051 44.8592 142.968 42.589 142.968 39.6025C142.968 37.6521 143.704 36.0552 145.172 34.8067C146.641 33.56 148.588 32.9366 151.011 32.9366C153.175 32.9366 154.977 33.3135 156.408 34.0655L155.453 37.1698C154.105 36.4411 152.585 36.0767 150.884 36.0767C149.541 36.0767 148.486 36.4071 147.733 37.0644C147.098 37.6521 146.777 38.3683 146.777 39.2185C146.777 40.1563 147.143 40.935 147.872 41.5459C148.504 42.1085 149.658 42.7212 151.327 43.3785C153.375 44.2037 154.879 45.1646 155.842 46.2685C156.812 47.3723 157.295 48.7494 157.295 50.3909ZM169.921 42.7765H165.722V51.0982C165.722 53.2148 166.462 54.2704 167.945 54.2704C168.625 54.2704 169.19 54.2133 169.637 54.0936L169.742 56.9854C168.992 57.2658 168.004 57.4069 166.78 57.4069C165.275 57.4069 164.1 56.9479 163.251 56.0298C162.406 55.1117 161.981 53.5738 161.981 51.409V42.7694H159.48V39.9115H161.981V36.7733L165.722 35.6444V39.9115H169.921V42.7765ZM188.827 48.3475C188.827 50.9821 188.073 53.1451 186.568 54.8366C184.994 56.5781 182.9 57.4462 180.29 57.4462C177.771 57.4462 175.768 56.6121 174.275 54.9456C172.781 53.2755 172.034 51.1715 172.034 48.6333C172.034 45.9773 172.806 43.8018 174.344 42.1103C175.886 40.417 177.962 39.5704 180.572 39.5704C183.088 39.5704 185.109 40.4063 186.638 42.0746C188.1 43.6928 188.827 45.7826 188.827 48.3475ZM184.878 48.4351C184.878 46.865 184.539 45.5183 183.858 44.3912C183.059 43.0302 181.916 42.3496 180.435 42.3496C178.909 42.3496 177.739 43.0302 176.942 44.3912C176.26 45.5183 175.92 46.8883 175.92 48.5065C175.92 50.0783 176.26 51.4287 176.942 52.5521C177.766 53.9132 178.914 54.5937 180.403 54.5937C181.859 54.5937 183 53.8989 183.826 52.5182C184.526 51.3644 184.878 50.0087 184.878 48.4351ZM201.213 43.2677C200.817 43.1962 200.415 43.161 200.013 43.1623C198.673 43.1623 197.637 43.666 196.908 44.6806C196.275 45.5736 195.957 46.7025 195.957 48.0653V57.0586H192.148V45.3164C192.151 43.5172 192.114 41.7181 192.037 39.9205H195.355L195.494 43.1999H195.6C196.004 42.0728 196.636 41.1636 197.504 40.4831C198.299 39.8885 199.265 39.5664 200.258 39.565C200.609 39.565 200.927 39.59 201.21 39.6347L201.213 43.2677ZM218.249 47.6777C218.258 48.2566 218.212 48.8351 218.109 49.4049H206.682C206.725 51.0982 207.279 52.395 208.34 53.288C209.303 54.0847 210.548 54.4848 212.078 54.4848C213.77 54.4848 215.313 54.2168 216.702 53.6756L217.298 56.3174C215.676 57.0247 213.761 57.3765 211.551 57.3765C208.892 57.3765 206.805 56.5942 205.287 55.0331C203.772 53.4702 203.012 51.3697 203.012 48.7387C203.012 46.1559 203.718 44.0036 205.131 42.2871C206.611 40.4545 208.61 39.5382 211.126 39.5382C213.596 39.5382 215.467 40.4545 216.737 42.2871C217.743 43.7393 218.249 45.5397 218.249 47.6777ZM214.617 46.69C214.643 45.5594 214.393 44.5859 213.877 43.7625C213.218 42.7015 212.203 42.1728 210.843 42.1728C209.598 42.1728 208.583 42.689 207.811 43.725C207.177 44.5484 206.8 45.5379 206.684 46.6864L214.617 46.69Z" fill="white"/>
<path d="M80.7751 24.8847C79.7157 24.8847 78.7991 24.8329 78.0363 24.7453V13.2532C79.1032 13.0884 80.1815 13.0072 81.2611 13.0103C85.6294 13.0103 87.6412 15.1591 87.6412 18.6617C87.6412 22.702 85.2649 24.8847 80.7751 24.8847ZM81.4148 14.4839C80.8252 14.4839 80.3231 14.5196 79.9068 14.6053V23.3414C80.132 23.3771 80.5643 23.3932 81.1718 23.3932C84.034 23.3932 85.6634 21.7642 85.6634 18.7135C85.6634 15.9932 84.1894 14.4839 81.4148 14.4839ZM93.9104 24.9722C91.4484 24.9722 89.853 23.1342 89.853 20.639C89.853 18.0383 91.4824 16.1843 94.0498 16.1843C96.476 16.1843 98.1072 17.9347 98.1072 20.5014C98.1072 23.1342 96.426 24.9722 93.9104 24.9722ZM93.9819 17.5525C92.6294 17.5525 91.7629 18.8171 91.7629 20.5854C91.7629 22.3197 92.6473 23.5843 93.964 23.5843C95.2808 23.5843 96.1651 22.2322 96.1651 20.5497C96.1651 18.835 95.2986 17.5525 93.9819 17.5525ZM112.147 16.3576L109.511 24.7811H107.794L106.703 21.123C106.431 20.2282 106.205 19.3203 106.026 18.4027H105.99C105.852 19.3208 105.591 20.2407 105.314 21.123L104.153 24.7811H102.418L99.9385 16.3576H101.863L102.817 20.3621C103.042 21.3159 103.231 22.2161 103.388 23.0663H103.424C103.562 22.3572 103.787 21.4713 104.117 20.38L105.314 16.3593H106.84L107.985 20.2942C108.262 21.248 108.487 22.184 108.663 23.0681H108.713C108.834 22.2018 109.025 21.282 109.284 20.2942L110.308 16.3593L112.147 16.3576ZM121.848 24.7811H119.976V19.9442C119.976 18.4545 119.404 17.7079 118.276 17.7079C117.167 17.7079 116.404 18.6617 116.404 19.7709V24.7811H114.532V18.7653C114.532 18.0205 114.514 17.2221 114.462 16.3558H116.109L116.197 17.6561H116.249C116.752 16.7559 117.774 16.1843 118.92 16.1843C120.688 16.1843 121.85 17.5364 121.85 19.737L121.848 24.7811ZM127.011 24.7811H125.137V12.4923H127.011V24.7811ZM133.838 24.9722C131.378 24.9722 129.78 23.1342 129.78 20.639C129.78 18.0383 131.41 16.1843 133.975 16.1843C136.404 16.1843 138.033 17.9347 138.033 20.5014C138.035 23.1342 136.352 24.9722 133.838 24.9722ZM133.908 17.5525C132.555 17.5525 131.689 18.8171 131.689 20.5854C131.689 22.3197 132.575 23.5843 133.888 23.5843C135.206 23.5843 136.089 22.2322 136.089 20.5497C136.091 18.835 135.226 17.5525 133.908 17.5525ZM145.415 24.7811L145.279 23.8112H145.229C144.658 24.5917 143.823 24.9722 142.766 24.9722C141.256 24.9722 140.184 23.9148 140.184 22.493C140.184 20.4139 141.987 19.3386 145.108 19.3386V19.1833C145.108 18.0741 144.52 17.5186 143.359 17.5186C142.528 17.5186 141.799 17.7275 141.158 18.1437L140.777 16.9131C141.556 16.4272 142.528 16.1843 143.67 16.1843C145.871 16.1843 146.982 17.3453 146.982 19.6691V22.7716C146.982 23.6218 147.02 24.2809 147.104 24.7828L145.415 24.7811ZM145.158 20.5854C143.078 20.5854 142.035 21.0891 142.035 22.284C142.035 23.1682 142.573 23.6004 143.32 23.6004C144.272 23.6004 145.158 22.8734 145.158 21.8857V20.5854ZM156.074 24.7811L155.987 23.4289H155.935C155.397 24.4506 154.493 24.9722 153.23 24.9722C151.199 24.9722 149.694 23.186 149.694 20.6729C149.694 18.0383 151.254 16.1825 153.384 16.1825C154.511 16.1825 155.31 16.563 155.76 17.3274H155.797V12.4923H157.672V22.5109C157.672 23.3253 157.691 24.088 157.741 24.7811H156.074ZM155.797 19.8245C155.797 18.6456 155.017 17.64 153.825 17.64C152.437 17.64 151.588 18.8707 151.588 20.6032C151.588 22.3019 152.469 23.4647 153.787 23.4647C154.965 23.4647 155.797 22.4412 155.797 21.2284V19.8245ZM169.554 24.9722C167.094 24.9722 165.499 23.1342 165.499 20.639C165.499 18.0383 167.128 16.1843 169.694 16.1843C172.122 16.1843 173.751 17.9347 173.751 20.5014C173.753 23.1342 172.072 24.9722 169.554 24.9722ZM169.624 17.5525C168.273 17.5525 167.407 18.8171 167.407 20.5854C167.407 22.3197 168.291 23.5843 169.606 23.5843C170.925 23.5843 171.807 22.2322 171.807 20.5497C171.811 18.835 170.944 17.5525 169.624 17.5525ZM183.821 24.7811H181.946V19.9442C181.946 18.4545 181.375 17.7079 180.247 17.7079C179.138 17.7079 178.377 18.6617 178.377 19.7709V24.7811H176.503V18.7653C176.503 18.0205 176.485 17.2221 176.433 16.3558H178.08L178.168 17.6561H178.219C178.722 16.7559 179.745 16.1825 180.889 16.1825C182.657 16.1825 183.821 17.5346 183.821 19.7352V24.7811ZM196.418 17.7615H194.358V21.8518C194.358 22.8931 194.719 23.4129 195.448 23.4129C195.778 23.4129 196.055 23.3771 196.279 23.3253L196.331 24.7471C195.968 24.8864 195.482 24.9561 194.878 24.9561C193.402 24.9561 192.52 24.1416 192.52 22.0089V17.7615H191.29V16.3576H192.52V14.8143L194.358 14.2588V16.3558H196.418V17.7615ZM206.33 24.7811H204.46V19.9799C204.46 18.4724 203.89 17.7097 202.761 17.7097C201.79 17.7097 200.886 18.3688 200.886 19.703V24.7811H199.016V12.4923H200.886V17.5525H200.924C201.514 16.6344 202.368 16.1825 203.457 16.1825C205.24 16.1825 206.33 17.5686 206.33 19.7709V24.7811ZM216.485 21.0194H210.867C210.902 22.6145 211.958 23.5147 213.521 23.5147C214.352 23.5147 215.117 23.3754 215.792 23.1164L216.083 24.4167C215.287 24.7632 214.349 24.9365 213.257 24.9365C210.622 24.9365 209.062 23.2718 209.062 20.6908C209.062 18.108 210.659 16.1664 213.046 16.1664C215.199 16.1664 216.55 17.7615 216.55 20.171C216.562 20.4553 216.54 20.7401 216.485 21.0194ZM214.768 19.6852C214.768 18.3848 214.113 17.4668 212.916 17.4668C211.84 17.4668 210.99 18.4027 210.868 19.6852H214.768Z" fill="white"/>
</g>
<defs>
<filter id="filter0_d_20_178" x="0" y="0" width="256" height="87" filterUnits="userSpaceOnUse" color-interpolation-filters="sRGB">
<feFlood flood-opacity="0" result="BackgroundImageFix"/>
<feColorMatrix in="SourceAlpha" type="matrix" values="0 0 0 0 0 0 0 0 0 0 0 0 0 0 0 0 0 0 127 0" result="hardAlpha"/>
<feOffset dx="10" dy="10"/>
<feGaussianBlur stdDeviation="2"/>
<feComposite in2="hardAlpha" operator="out"/>
<feColorMatrix type="matrix" values="0 0 0 0 0 0 0 0 0 0 0 0 0 0 0 0 0 0 0.25 0"/>
<feBlend mode="normal" in2="BackgroundImageFix" result="effect1_dropShadow_20_178"/>
<feBlend mode="normal" in="SourceGraphic" in2="effect1_dropShadow_20_178" result="shape"/>
</filter>
<linearGradient id="paint0_linear_20_178" x1="176.802" y1="72.4037" x2="176.802" y2="-185.195" gradientUnits="userSpaceOnUse">
<stop stop-color="#1A1A1A" stop-opacity="0.1"/>
<stop offset="0.123" stop-color="#212121" stop-opacity="0.151"/>
<stop offset="0.308" stop-color="#353535" stop-opacity="0.227"/>
<stop offset="0.532" stop-color="#575757" stop-opacity="0.318"/>
<stop offset="0.783" stop-color="#858585" stop-opacity="0.421"/>
<stop offset="1" stop-color="#B3B3B3" stop-opacity="0.51"/>
</linearGradient>
<clipPath id="clip0_20_178">
<rect width="242" height="73" fill="white"/>
</clipPath>
</defs>
</svg>
