<svg width="122" height="94" fill="none" xmlns="http://www.w3.org/2000/svg">
  <g clip-path="url(#a)">
    <path d="M115.184 93.205H15.209c-3.718 0-6.745-3.024-6.745-6.74V19.132c0-3.716 3.027-6.74 6.745-6.74h99.975c3.718 0 6.744 3.024 6.744 6.74v67.333c0 3.716-3.026 6.74-6.744 6.74Z" fill="#A7B8C6" />
    <path d="M115.645 9.652c0-3.716-3.026-6.74-6.744-6.74H8.926c-3.718 0-6.745 3.024-6.745 6.74v44.32h113.464V9.652Z" fill="#E7E2D3" />
    <path d="M8.926 83.712H108.9c3.718 0 6.744-3.024 6.744-6.74v-34.04H2.168v34.04c0 3.716 3.026 6.74 6.758 6.74Z" fill="#4C4B4C" />
    <path d="M108.901 85.557H8.926c-4.736 0-8.59-3.852-8.59-8.585V9.652c0-4.733 3.854-8.584 8.59-8.584H108.9c4.736 0 8.59 3.851 8.59 8.584v67.32c-.014 4.733-3.854 8.585-8.59 8.585ZM8.926 4.743a4.918 4.918 0 0 0-4.913 4.91v67.32a4.918 4.918 0 0 0 4.913 4.908H108.9c2.7 0 4.912-2.197 4.912-4.909V9.652a4.918 4.918 0 0 0-4.912-4.909H8.926Z" fill="#3E3A39" />
    <path d="M33.448 40.07a25.427 25.427 0 0 0 7.457 17.99 25.459 25.459 0 0 0 18.002 7.452 25.472 25.472 0 0 0 18.001-7.451 25.441 25.441 0 0 0 7.457-17.99 25.433 25.433 0 0 0-7.457-17.99 25.467 25.467 0 0 0-36.003 0 25.433 25.433 0 0 0-7.457 17.99Z" fill="#E7E2D3" />
    <path d="M58.906 66.543c-14.602 0-26.476-11.866-26.476-26.459 0-14.592 11.874-26.458 26.476-26.458 14.602 0 26.477 11.866 26.477 26.458 0 14.58-11.875 26.459-26.477 26.459Zm0-50.883c-13.475 0-24.44 10.958-24.44 24.424 0 13.467 10.965 24.411 24.44 24.411 13.476 0 24.441-10.958 24.441-24.424 0-13.467-10.965-24.411-24.44-24.411Z" fill="#595757" />
    <path d="M37.33 40.071a21.556 21.556 0 0 0 6.319 15.247 21.585 21.585 0 0 0 30.515 0 21.556 21.556 0 0 0 0-30.494 21.585 21.585 0 0 0-30.515 0 21.556 21.556 0 0 0-6.32 15.247Z" fill="#666765" />
    <path d="M45.634 40.071c0 3.518 1.399 6.891 3.888 9.379a13.276 13.276 0 0 0 18.77 0 13.259 13.259 0 0 0 0-18.757 13.277 13.277 0 0 0-18.77 0 13.259 13.259 0 0 0-3.888 9.378Z" fill="#95D4EB" />
    <path d="M58.906 54.148c-7.762 0-14.086-6.32-14.086-14.077s6.324-14.077 14.086-14.077c7.763 0 14.087 6.32 14.087 14.077s-6.324 14.077-14.087 14.077Zm0-26.513c-6.866 0-12.444 5.588-12.444 12.436 0 6.849 5.591 12.436 12.444 12.436 6.867 0 12.445-5.587 12.445-12.436 0-6.848-5.578-12.436-12.445-12.436Z" fill="#595757" />
    <path d="M61.186 34.647a3.62 3.62 0 0 0 3.624 3.62 3.625 3.625 0 0 0 3.623-3.62 3.62 3.62 0 0 0-3.623-3.621 3.625 3.625 0 0 0-3.624 3.62Z" fill="#fff" />
    <path d="M39.351 72.768h38.147c1.547 0 2.945.719 3.854 1.83a3.263 3.263 0 0 0 2.104-3.037 3.265 3.265 0 0 0-3.257-3.255H37.058a3.265 3.265 0 0 0-3.257 3.255c0 1.275.746 2.373 1.805 2.916.922-1.044 2.252-1.709 3.745-1.709Z" fill="#1A1A1A" />
    <path d="M82.451 77.677a4.783 4.783 0 0 0-1.099-3.065 3.23 3.23 0 0 1-1.153.217H37.058a3.21 3.21 0 0 1-1.439-.339 4.867 4.867 0 0 0-1.208 3.2l-1.913 8.585c0 2.699 2.402 4.91 5.347 4.91h41.187c2.944 0 5.346-2.211 5.346-4.91l-1.927-8.598Z" fill="#E7E2D3" />
    <path d="M80.199 74.816c.407 0 .787-.082 1.153-.217a4.965 4.965 0 0 0-3.854-1.831H39.351a4.932 4.932 0 0 0-3.732 1.709 3.21 3.21 0 0 0 1.439.339h43.14ZM94.706 33.779a4.474 4.474 0 0 0 4.478 4.475 4.473 4.473 0 0 0 3.167-7.64 4.48 4.48 0 0 0-7.645 3.164Z" fill="#717071" />
    <path d="M99.184 38.647a4.89 4.89 0 0 1-4.885-4.882 4.89 4.89 0 0 1 4.885-4.882 4.889 4.889 0 0 1 4.885 4.882 4.88 4.88 0 0 1-4.885 4.882Zm0-8.937a4.073 4.073 0 0 0-4.071 4.069 4.073 4.073 0 0 0 4.071 4.068 4.064 4.064 0 0 0 4.071-4.069 4.073 4.073 0 0 0-4.071-4.068Z" fill="#595757" />
    <path d="M100.242 32.793c.126.181.278.342.447.473.169.131.351.23.537.291.185.061.37.083.544.065a.998.998 0 0 0 .47-.171c.136-.095.245-.224.323-.381.077-.157.12-.338.127-.533a1.81 1.81 0 0 0-.088-.604 2.197 2.197 0 0 0-.737-1.056 1.796 1.796 0 0 0-.537-.291 1.31 1.31 0 0 0-.545-.065.994.994 0 0 0-.469.17.992.992 0 0 0-.323.382c-.077.157-.12.338-.127.533-.007.195.023.4.088.604.065.204.163.402.29.583Z" fill="#B4B4B5" />
    <path d="M10.69 33.779a4.487 4.487 0 0 0 4.492 4.489 4.494 4.494 0 0 0 4.492-4.49 4.487 4.487 0 0 0-4.492-4.488 4.493 4.493 0 0 0-4.492 4.489Z" fill="red" />
    <path d="M15.182 38.878a5.118 5.118 0 0 1-5.116-5.113 5.118 5.118 0 0 1 5.116-5.113 5.118 5.118 0 0 1 5.116 5.113 5.118 5.118 0 0 1-5.116 5.113Zm0-8.992a3.88 3.88 0 1 0 0 7.758 3.88 3.88 0 1 0 0-7.758Z" fill="#fff" />
    <path d="M20.502 23.309H9.861a.486.486 0 0 1-.488-.488v-6.47c0-.27.217-.487.488-.487h10.64c.27 0 .488.216.488.488v6.469a.486.486 0 0 1-.488.488Z" fill="#4C4B4C" />
    <path d="M103.269 23.309h-7.111a.408.408 0 0 1-.407-.407v-7.106c0-.23.19-.407.407-.407h7.111c.231 0 .407.19.407.407v7.106a.408.408 0 0 1-.407.407Z" fill="#656767" />
    <path d="M102.441 23.716h-5.455c-.91 0-1.642-.733-1.642-1.641v-5.452c0-.909.732-1.64 1.642-1.64h5.455c.909 0 1.642.731 1.642 1.64v5.452c.014.908-.733 1.64-1.642 1.64Zm-5.455-7.92a.822.822 0 0 0-.828.827v5.452c0 .46.366.827.828.827h5.455a.823.823 0 0 0 .828-.827v-5.452a.823.823 0 0 0-.828-.827h-5.455Z" fill="#3E3A39" />
  </g>
  <defs>
    <clipPath id="a">
      <path fill="#fff" transform="translate(.336 .962)" d="M0 0h121.593v92.349H0z" />
    </clipPath>
  </defs>
</svg>