<svg width="194" height="101" fill="none" xmlns="http://www.w3.org/2000/svg">
  <path fill="#282828" d="M.803 87.063h192.394v13.083H.803z" />
  <g clip-path="url(#a)">
    <path d="M180.7 48.247c0 3.17-2.594 5.766-5.765 5.766h-15.856c-3.171 0-5.766-2.595-5.766-5.766v-3.748c0-3.171 2.595-5.766 5.766-5.766h15.856c3.171 0 5.765 2.595 5.765 5.766v3.748Z" fill="#fff" />
    <path d="M187.908 74.48c0 2.307-2.018 4.325-4.325 4.325H14.36c-2.306 0-4.324-2.018-4.324-4.324V45.652c0-2.306 2.018-4.324 4.324-4.324H180.7c2.307 0 4.325 2.018 4.325 4.324l2.883 28.829Z" fill="#fff" />
    <path d="M10.036 74.48c0 2.307 2.018 4.325 4.324 4.325h169.223c2.307 0 4.325-2.018 4.325-4.324l-1.442-12.685H10.036v12.685Z" fill="#0E4686" />
    <path d="M10.036 74.48c0 2.307 2.018 4.325 4.324 4.325h169.223c2.307 0 4.325-2.018 4.325-4.324l-1.442-12.685H10.036v12.685Z" fill="#000" fill-opacity=".2" />
    <path d="M189.349 80.246c0 1.73-1.441 2.883-2.883 2.883H10.612c-1.73 0-2.883-1.441-2.883-2.883v-1.73c0-1.73 1.442-2.882 2.883-2.882h175.854c1.73 0 2.883 1.441 2.883 2.883v1.73Z" fill="#231D4D" />
    <path d="M25.891 77.94a18.086 18.086 0 0 1 18.162-18.162A18.086 18.086 0 0 1 62.215 77.94" fill="#000" />
    <path d="M63.08 77.94h-1.441c0-9.513-7.784-17.585-17.586-17.585-9.513 0-17.585 7.783-17.585 17.585h-1.442c0-10.378 8.36-19.027 19.027-19.027 10.667 0 19.027 8.649 19.027 19.027Z" fill="#231D4D" />
    <path d="M44.053 95.237c9.076 0 16.433-7.356 16.433-16.432 0-9.075-7.357-16.432-16.433-16.432-9.075 0-16.432 7.357-16.432 16.432s7.357 16.432 16.432 16.432Z" fill="#203547" />
    <path d="M55.585 66.986c6.342 6.342 6.342 16.72 0 23.35-6.343 6.343-16.72 6.343-23.352 0" fill="#122130" />
    <path d="M44.053 89.183c5.732 0 10.379-4.646 10.379-10.378s-4.647-10.378-10.379-10.378c-5.731 0-10.378 4.646-10.378 10.378s4.647 10.378 10.378 10.378Z" fill="#6E7577" />
    <path d="M51.26 71.31c4.036 4.036 4.036 10.666 0 14.702s-10.666 4.036-14.702 0" fill="#4C5456" />
    <path d="M44.053 87.742a8.937 8.937 0 1 0 0-17.874 8.937 8.937 0 0 0 0 17.874Z" fill="#CED8DD" />
    <path d="M50.395 72.175c3.46 3.46 3.46 9.225 0 12.684-3.459 3.46-9.225 3.46-12.684 0" fill="#B2BBC1" />
    <path opacity=".2" d="M48.378 78.805c0 2.306-2.018 4.901-4.325 4.901-2.306 0-4.324-2.594-4.324-4.9 0-2.307 2.018-4.325 4.324-4.325 2.307 0 4.325 2.018 4.325 4.324Z" fill="#888F91" />
    <path d="M44.053 83.13a4.324 4.324 0 1 0 0-8.65 4.324 4.324 0 0 0 0 8.65Z" fill="#E7EFF2" />
    <path d="M44.053 74.481c2.306 0 4.325 2.018 4.325 4.324s-2.019 4.324-4.325 4.324" fill="#DAE6EA" />
    <path d="M44.053 69.58H42.9c.288 1.441.577 2.306 1.153 2.306.577 0 1.153-.865 1.153-2.306h-1.153Z" fill="#666E70" />
    <path d="M44.053 71.886c.577 0 1.153-.865 1.153-2.306h-1.153" fill="#535A5B" />
    <path d="M42.9 87.742h2.306c-.288-1.153-.576-2.306-1.153-2.306-.576 0-1.153.865-1.153 2.306Z" fill="#666E70" />
    <path d="M45.206 87.742c-.288-1.153-.576-2.306-1.153-2.306l1.153 2.306Z" fill="#535A5B" />
    <path d="M36.846 73.328c1.153.864 2.018 1.153 2.306.864.289-.288 0-1.44-.576-2.306-.577 0-1.153.577-1.73 1.442Z" fill="#666E70" />
    <path d="M39.44 73.904c.289-.288 0-1.441-.576-2.306l.577 2.306Z" fill="#535A5B" />
    <path d="M51.26 84.282c-1.153-.864-2.018-1.153-2.306-.576-.288.288 0 1.441.577 2.306l.864-.865.865-.865Z" fill="#666E70" />
    <path d="m50.395 85.147.865-.865c-1.153-.864-2.018-1.153-2.306-.576" fill="#535A5B" />
    <path d="M35.116 79.958c1.154-.288 2.307-.576 2.307-1.153 0-.577-.865-1.153-2.307-1.153v2.306Z" fill="#666E70" />
    <path d="M37.423 78.805c0-.577-.865-1.153-2.307-1.153v1.153" fill="#535A5B" />
    <path d="M50.684 78.805c0 .577.865 1.153 2.306 1.153v-2.306c-1.153 0-2.306.576-2.306 1.153Z" fill="#666E70" />
    <path d="M52.99 77.364c-1.153.288-2.306.576-2.306 1.153l2.306-1.153Z" fill="#535A5B" />
    <path d="m36.846 84.282 1.73 1.73c.865-1.153 1.153-2.018.576-2.306-.288-.577-1.153-.288-2.306.576Z" fill="#666E70" />
    <path d="M38.576 86.013c.865-1.154 1.153-2.019.576-2.307l-.576 2.306Z" fill="#535A5B" />
    <path d="M49.53 71.598c-.864 1.153-1.152 2.018-.864 2.306.288.289 1.441 0 2.306-.576-.288-.865-.865-1.442-1.441-1.73Z" fill="#666E70" />
    <path d="M49.53 71.598c-.864 1.153-1.152 2.018-.864 2.306l.865-2.306Z" fill="#535A5B" />
    <path d="M133.71 77.94a18.086 18.086 0 0 1 18.162-18.162 18.086 18.086 0 0 1 18.162 18.162" fill="#000" />
    <path d="M170.899 77.94h-1.442c0-9.513-7.783-17.585-17.585-17.585-9.514 0-17.586 7.783-17.586 17.585h-1.153c0-10.378 8.361-19.027 19.027-19.027 10.667 0 18.739 8.649 18.739 19.027Z" fill="#231D4D" />
    <path d="M151.872 95.237c9.075 0 16.432-7.356 16.432-16.432 0-9.075-7.357-16.432-16.432-16.432S135.44 69.73 135.44 78.805s7.357 16.432 16.432 16.432Z" fill="#203547" />
    <path d="M163.692 66.986c6.342 6.342 6.342 16.72 0 23.35-6.343 6.343-16.721 6.343-23.351 0" fill="#122130" />
    <path d="M151.872 89.183c5.732 0 10.378-4.646 10.378-10.378s-4.646-10.378-10.378-10.378-10.378 4.646-10.378 10.378 4.646 10.378 10.378 10.378Z" fill="#6E7577" />
    <path d="M159.367 71.31c4.036 4.036 4.036 10.666 0 14.702s-10.666 4.036-14.702 0" fill="#4C5456" />
    <path d="M151.872 87.742a8.937 8.937 0 1 0 0-17.874 8.937 8.937 0 1 0 0 17.874Z" fill="#CED8DD" />
    <path d="M158.502 72.175c3.46 3.46 3.46 9.225 0 12.684-3.459 3.46-9.225 3.46-12.684 0" fill="#B2BBC1" />
    <path opacity=".2" d="M156.196 78.805c0 2.306-2.018 4.901-4.324 4.901s-4.324-2.594-4.324-4.9c0-2.307 2.018-4.325 4.324-4.325s4.324 2.018 4.324 4.324Z" fill="#888F91" />
    <path d="M151.872 83.13a4.324 4.324 0 1 0 0-8.649 4.324 4.324 0 0 0 0 8.648Z" fill="#E7EFF2" />
    <path d="M151.872 74.481c2.306 0 4.324 2.018 4.324 4.324s-2.018 4.324-4.324 4.324" fill="#DAE6EA" />
    <path d="M151.872 69.58h-1.153c.288 1.441.576 2.306 1.153 2.306.576 0 1.153-.865 1.153-2.306h-1.153Z" fill="#666E70" />
    <path d="M151.872 71.886c.577 0 1.153-.865 1.153-2.306h-1.153" fill="#535A5B" />
    <path d="M150.719 87.742h2.306c-.288-1.153-.577-2.306-1.153-2.306-.288 0-.865.865-1.153 2.306Z" fill="#666E70" />
    <path d="M153.313 87.742c-.288-1.153-.576-2.306-1.153-2.306l1.153 2.306Z" fill="#535A5B" />
    <path d="M144.953 73.328c1.153.864 2.018 1.153 2.306.864.289-.288 0-1.44-.865-2.306-.576 0-1.153.577-1.441 1.442Z" fill="#666E70" />
    <path d="M147.259 73.904c.289-.288 0-1.441-.864-2.306l.864 2.306Z" fill="#535A5B" />
    <path d="M159.079 84.282c-1.153-.864-2.018-1.153-2.306-.576-.289.288 0 1.441.576 2.306l.865-.865c.577-.288.577-.576.865-.865Z" fill="#666E70" />
    <path d="m158.502 85.147.865-.865c-1.153-.864-2.018-1.153-2.306-.576" fill="#535A5B" />
    <path d="M142.935 79.958c1.441-.288 2.306-.576 2.306-1.153 0-.577-.865-1.153-2.306-1.153v2.306Z" fill="#666E70" />
    <path d="M145.241 78.805c0-.577-.865-1.153-2.306-1.153v1.153" fill="#535A5B" />
    <path d="M158.791 78.805c0 .577.865 1.153 2.306 1.153v-2.306c-1.441 0-2.306.576-2.306 1.153Z" fill="#666E70" />
    <path d="M160.809 77.364c-1.153.288-2.307.576-2.307 1.153l2.307-1.153Z" fill="#535A5B" />
    <path d="m144.953 84.282 1.73 1.73c.865-1.153 1.153-2.018.865-2.306-.577-.577-1.73-.288-2.595.576Z" fill="#666E70" />
    <path d="M146.683 86.013c.865-1.154 1.153-2.019.865-2.307l-.865 2.306Z" fill="#535A5B" />
    <path d="M157.349 71.598c-.865 1.153-1.153 2.018-.865 2.306.289.289 1.442 0 2.307-.576 0-.865-.577-1.442-1.442-1.73Z" fill="#666E70" />
    <path d="M157.349 71.598c-.865 1.153-1.153 2.018-.865 2.306l.865-2.306Z" fill="#535A5B" />
    <path d="M169.746 46.229c0 3.171-2.595 5.766-5.766 5.766H19.26c-3.17 0-5.765-2.595-5.765-5.766V6.157c0-3.171 2.595-5.766 5.766-5.766h127.133c3.172 0 5.766 2.595 5.766 5.766l17.586 40.072Z" fill="#fff" />
    <path d="M14.648 68.427c0 1.73-1.441 1.441-2.883 1.441-1.73 0-2.883-1.441-2.883-2.883v-13.26c0-1.73 1.442-2.884 2.883-2.884 1.73 0 2.883 1.442 2.883 2.883v14.703Z" fill="#DB0940" />
    <path d="M11.765 50.841c1.73 0 2.883 1.442 2.883 2.883v14.703c0 1.73-1.441 1.441-2.883 1.441" fill="#BC043D" />
    <path d="M166.574 38.445 153.025 7.6h-42.378c-1.73 0-3.171 1.441-3.171 3.17v24.505c0 1.73 1.441 3.171 3.171 3.171h55.063c0 .289.576 0 .864 0ZM99.404 7.599H44.918c-1.73 0-3.171 1.441-3.171 3.17v24.505c0 1.442.865 2.595 2.018 2.883.288 0 .577.288.865.288H99.692c.289 0 .577 0 .865-.288 1.153-.577 2.018-1.73 2.018-2.883V10.77c0-1.73-1.441-3.171-3.171-3.171ZM13.207 38.733h20.756c.288 0 .577 0 .865-.288 1.153-.576 2.018-1.73 2.018-2.883V11.058c0-1.73-1.441-3.171-3.171-3.171H13.207v30.846Z" fill="#51859B" />
    <path d="m126.503 7.599-19.315 19.315v8.36c0 1.442 1.153 2.595 2.306 3.171L140.341 7.6h-13.838ZM121.602 7.599h-8.649l-5.765 5.765v8.649l14.414-14.414ZM152.737 38.733h12.973c.288 0 .576 0 .865-.288l-4.036-9.513-9.802 9.802ZM154.466 11.058l-1.441-3.46h-2.018l-31.135 31.136h6.919l27.675-27.676Z" fill="#81B6C9" />
    <path d="M154.178 40.751c.288.865-.288 1.73-1.153 2.018-.865.289-1.73-.288-2.018-1.153l-10.09-38.63c-.288-.865.288-1.73 1.153-2.018.865-.288 1.73.288 2.018 1.153l10.09 38.63Z" fill="#fff" />
    <path d="M116.125 45.94c0 1.154-.865 2.018-2.018 2.018h-4.613c-1.153 0-2.018-.864-2.018-2.018 0-1.153.865-2.018 2.018-2.018h4.613c1.153 0 2.018.865 2.018 2.018Z" fill="#0E4686" />
    <path d="M116.125 45.94c0 1.154-.865 2.018-2.018 2.018h-4.613c-1.153 0-2.018-.864-2.018-2.018 0-1.153.865-2.018 2.018-2.018h4.613c1.153 0 2.018.865 2.018 2.018Z" fill="#000" fill-opacity=".2" />
    <path d="M75.476 45.94c0 1.154-.864 2.018-2.018 2.018h-4.612c-1.153 0-2.018-.864-2.018-2.018 0-1.153.865-2.018 2.018-2.018h4.612c1.154 0 2.018.865 2.018 2.018Z" fill="#0E4686" />
    <path d="M75.476 45.94c0 1.154-.864 2.018-2.018 2.018h-4.612c-1.153 0-2.018-.864-2.018-2.018 0-1.153.865-2.018 2.018-2.018h4.612c1.154 0 2.018.865 2.018 2.018Z" fill="#000" fill-opacity=".2" />
    <path d="M27.62 44.5c0 .287-.287.576-.576.576h-4.036c-.288 0-.576-.289-.576-.577s.288-.577.576-.577h4.036c.289 0 .577.289.577.577Z" fill="#0E4686" />
    <path d="M27.62 44.5c0 .287-.287.576-.576.576h-4.036c-.288 0-.576-.289-.576-.577s.288-.577.576-.577h4.036c.289 0 .577.289.577.577Z" fill="#000" fill-opacity=".2" />
    <path d="M27.62 47.67c0 .288-.287.577-.576.577h-4.036c-.288 0-.576-.289-.576-.577s.288-.577.576-.577h4.036c.289 0 .577.289.577.577Z" fill="#0E4686" />
    <path d="M27.62 47.67c0 .288-.287.577-.576.577h-4.036c-.288 0-.576-.289-.576-.577s.288-.577.576-.577h4.036c.289 0 .577.289.577.577Z" fill="#000" fill-opacity=".2" />
    <path d="M27.62 50.842c0 .288-.287.576-.576.576h-4.036c-.288 0-.576-.288-.576-.576 0-.289.288-.577.576-.577h4.036c.289 0 .577.288.577.577Z" fill="#0E4686" />
    <path d="M27.62 50.842c0 .288-.287.576-.576.576h-4.036c-.288 0-.576-.288-.576-.576 0-.289.288-.577.576-.577h4.036c.289 0 .577.288.577.577Z" fill="#000" fill-opacity=".2" />
    <path d="M186.754 65.544c0 1.441-1.153 2.594-2.306 2.594a2.584 2.584 0 0 1-2.594-2.594V53.436c0-1.441 1.153-2.306 2.594-2.306 1.442 0 2.306 1.153 2.306 2.306v12.108Z" fill="#FFA300" />
    <path d="M184.16 67.85a2.584 2.584 0 0 1-2.595-2.594v-11.82c0-1.441 1.153-2.306 2.595-2.306" fill="#FF7300" />
    <path d="m21.855 38.733 14.991-14.99v-8.36l-23.063 23.35h8.072ZM28.774 7.599H13.207v15.567L28.774 7.6ZM33.963 38.733c.288 0 .577 0 .865-.288 1.153-.577 2.018-1.73 2.018-2.883v-6.919l-10.09 10.09h7.207ZM52.99 7.599h-8.36l-3.171 3.17v8.361L52.99 7.6ZM57.89 7.599 41.46 24.03v11.531c0 .577.288 1.154.576 1.442L71.44 7.599H57.89ZM81.819 38.733h17.873c.289 0 .577 0 .865-.288 1.153-.576 2.018-1.73 2.018-2.883V17.977L81.819 38.733ZM87.873 7.599h-6.631L50.395 38.734h6.631L87.873 7.599Z" fill="#81B6C9" />
  </g>
  <defs>
    <clipPath id="a">
      <path fill="#fff" transform="translate(7.73 .1)" d="M0 0h181.62v95.427H0z" />
    </clipPath>
  </defs>
</svg>