<svg width="537" height="139" viewBox="0 0 537 139" fill="none" xmlns="http://www.w3.org/2000/svg">
  <path d="M1.89 23L5.37 0.8H13.98C15.46 0.8 16.61 1 17.43 1.4C18.27 1.78 18.85 2.31 19.17 2.99C19.51 3.67 19.68 4.46 19.68 5.36C19.68 5.62 19.67 5.88 19.65 6.14C19.63 6.38 19.6 6.64 19.56 6.92C19.4 8.04 18.96 9.01 18.24 9.83C17.52 10.65 16.6 11.19 15.48 11.45C16.14 11.61 16.71 11.87 17.19 12.23C17.69 12.59 18.07 13.07 18.33 13.67C18.61 14.25 18.75 14.98 18.75 15.86C18.75 16.06 18.74 16.3 18.72 16.58C18.7 16.86 18.65 17.24 18.57 17.72C18.23 19.62 17.39 20.98 16.05 21.8C14.73 22.6 12.91 23 10.59 23H1.89ZM6.96 19.01H11.16C11.88 19.01 12.46 18.91 12.9 18.71C13.36 18.51 13.71 18.21 13.95 17.81C14.21 17.39 14.39 16.87 14.49 16.25C14.53 16.09 14.55 15.94 14.55 15.8C14.55 15.66 14.55 15.53 14.55 15.41C14.55 14.73 14.33 14.22 13.89 13.88C13.47 13.52 12.84 13.34 12 13.34H7.86L6.96 19.01ZM8.37 9.92H12.51C13.33 9.92 13.94 9.71 14.34 9.29C14.74 8.87 15.01 8.34 15.15 7.7C15.19 7.46 15.22 7.25 15.24 7.07C15.28 6.89 15.3 6.72 15.3 6.56C15.3 5.92 15.11 5.47 14.73 5.21C14.35 4.93 13.79 4.79 13.05 4.79H9.21L8.37 9.92ZM26.933 23.18C26.133 23.18 25.403 22.99 24.743 22.61C24.083 22.23 23.553 21.63 23.153 20.81C22.753 19.99 22.553 18.93 22.553 17.63C22.553 17.05 22.593 16.45 22.673 15.83C22.753 15.21 22.833 14.69 22.913 14.27C23.173 12.57 23.643 11.17 24.323 10.07C25.003 8.95 25.923 8.11 27.083 7.55C28.263 6.99 29.713 6.71 31.433 6.71C32.333 6.71 33.213 6.79 34.073 6.95C34.933 7.11 35.723 7.33 36.443 7.61C37.163 7.89 37.753 8.22 38.213 8.6L35.933 23H32.003L31.763 21.38C31.483 21.62 31.083 21.88 30.563 22.16C30.043 22.44 29.463 22.68 28.823 22.88C28.203 23.08 27.573 23.18 26.933 23.18ZM29.093 19.61C29.753 19.61 30.333 19.49 30.833 19.25C31.353 18.99 31.803 18.74 32.183 18.5L33.413 10.76C33.253 10.66 32.973 10.56 32.573 10.46C32.193 10.34 31.733 10.28 31.193 10.28C30.393 10.28 29.723 10.45 29.183 10.79C28.663 11.13 28.243 11.62 27.923 12.26C27.623 12.9 27.403 13.68 27.263 14.6C27.183 15.06 27.123 15.49 27.083 15.89C27.043 16.27 27.023 16.58 27.023 16.82C27.023 17.64 27.193 18.31 27.533 18.83C27.873 19.35 28.393 19.61 29.093 19.61ZM43.9516 4.52C43.7716 4.52 43.6316 4.47 43.5316 4.37C43.4316 4.25 43.4016 4.1 43.4416 3.92L43.8916 0.979999C43.9716 0.559999 44.2116 0.349998 44.6116 0.349998H48.0316C48.2316 0.349998 48.3616 0.409999 48.4216 0.53C48.5016 0.649999 48.5316 0.799999 48.5116 0.979999L48.0616 3.92C47.9816 4.32 47.7516 4.52 47.3716 4.52H43.9516ZM40.5016 23L43.0216 6.89H47.4916L44.9416 23H40.5016ZM59.7588 23L55.9188 16.4L50.3688 6.89H54.9288L59.1888 14.18L64.3188 23H59.7588ZM48.0888 23L55.8588 13.76L57.0588 17.78L52.6488 23H48.0888ZM58.9188 16.49L57.3288 12.86L61.8288 6.89H66.5988L58.9188 16.49ZM73.6005 23.18C72.0405 23.18 70.7905 22.95 69.8505 22.49C68.9305 22.01 68.2605 21.32 67.8405 20.42C67.4205 19.52 67.2105 18.44 67.2105 17.18C67.2105 16.62 67.2405 16.09 67.3005 15.59C67.3605 15.07 67.4305 14.57 67.5105 14.09C67.7905 12.33 68.2805 10.91 68.9805 9.83C69.7005 8.75 70.6405 7.96 71.8005 7.46C72.9805 6.94 74.3605 6.68 75.9405 6.68C76.7205 6.68 77.4805 6.75 78.2205 6.89C78.9605 7.03 79.6105 7.28 80.1705 7.64C80.7505 7.98 81.2105 8.47 81.5505 9.11C81.8905 9.73 82.0605 10.52 82.0605 11.48C82.0605 12.6 81.8805 13.52 81.5205 14.24C81.1605 14.96 80.6505 15.52 79.9905 15.92C79.3505 16.3 78.6105 16.57 77.7705 16.73C76.9305 16.87 76.0405 16.94 75.1005 16.94C74.3605 16.94 73.6905 16.91 73.0905 16.85C72.4905 16.77 72.0105 16.69 71.6505 16.61C71.6305 16.77 71.6105 16.95 71.5905 17.15C71.5905 17.33 71.5905 17.51 71.5905 17.69C71.5905 18.45 71.8805 19.01 72.4605 19.37C73.0405 19.73 74.0005 19.91 75.3405 19.91H80.5306L80.1105 22.52C79.3105 22.68 78.3405 22.83 77.2005 22.97C76.0605 23.11 74.8605 23.18 73.6005 23.18ZM73.9605 14.45C74.8805 14.45 75.6305 14.37 76.2105 14.21C76.8105 14.03 77.2405 13.76 77.5005 13.4C77.7805 13.02 77.9205 12.54 77.9205 11.96C77.9205 11.32 77.7305 10.85 77.3505 10.55C76.9705 10.23 76.4005 10.07 75.6405 10.07C74.8805 10.07 74.2505 10.23 73.7505 10.55C73.2705 10.87 72.8805 11.34 72.5805 11.96C72.3005 12.58 72.0905 13.35 71.9505 14.27C72.2305 14.31 72.5405 14.35 72.8805 14.39C73.2405 14.43 73.6005 14.45 73.9605 14.45ZM93.0989 23L95.6189 6.89H99.3089L99.8189 8.54C100.519 8.02 101.329 7.58 102.249 7.22C103.189 6.86 104.229 6.68 105.369 6.68C106.269 6.68 107.019 6.84 107.619 7.16C108.219 7.48 108.669 7.91 108.969 8.45C109.289 8.99 109.449 9.61 109.449 10.31C109.449 10.65 109.429 11.04 109.389 11.48C109.369 11.92 109.269 12.64 109.089 13.64L107.619 23H103.179L104.619 13.79C104.679 13.37 104.719 13.06 104.739 12.86C104.779 12.66 104.799 12.5 104.799 12.38C104.799 11.86 104.649 11.45 104.349 11.15C104.049 10.83 103.549 10.67 102.849 10.67C102.169 10.67 101.539 10.8 100.959 11.06C100.379 11.3 99.8189 11.62 99.2789 12.02L97.5389 23H93.0989ZM119.104 23.18C117.724 23.18 116.564 22.97 115.624 22.55C114.684 22.13 113.974 21.51 113.494 20.69C113.014 19.87 112.774 18.83 112.774 17.57C112.774 16.99 112.794 16.46 112.834 15.98C112.874 15.48 112.934 14.99 113.014 14.51C113.274 12.91 113.624 11.6 114.064 10.58C114.524 9.56 115.094 8.77 115.774 8.21C116.474 7.65 117.304 7.26 118.264 7.04C119.244 6.82 120.384 6.71 121.684 6.71C123.384 6.71 124.694 6.93 125.614 7.37C126.534 7.79 127.164 8.43 127.504 9.29C127.844 10.15 128.014 11.25 128.014 12.59C128.014 13.07 127.984 13.59 127.924 14.15C127.884 14.69 127.824 15.25 127.744 15.83C127.444 17.77 126.944 19.28 126.244 20.36C125.544 21.44 124.614 22.18 123.454 22.58C122.294 22.98 120.844 23.18 119.104 23.18ZM119.584 19.61C120.164 19.61 120.654 19.55 121.054 19.43C121.474 19.29 121.814 19.07 122.074 18.77C122.354 18.45 122.584 18 122.764 17.42C122.964 16.82 123.144 16.07 123.304 15.17C123.384 14.61 123.444 14.11 123.484 13.67C123.544 13.21 123.574 12.78 123.574 12.38C123.574 11.58 123.384 11.02 123.004 10.7C122.624 10.36 121.994 10.19 121.114 10.19C120.514 10.19 120.014 10.26 119.614 10.4C119.214 10.54 118.874 10.79 118.594 11.15C118.314 11.51 118.074 12.02 117.874 12.68C117.694 13.34 117.524 14.17 117.364 15.17C117.304 15.59 117.254 15.98 117.214 16.34C117.194 16.7 117.184 17.04 117.184 17.36C117.184 17.96 117.274 18.42 117.454 18.74C117.654 19.06 117.924 19.29 118.264 19.43C118.624 19.55 119.064 19.61 119.584 19.61ZM137.081 23.18C136.421 23.18 135.791 23.16 135.191 23.12C134.591 23.1 134.011 23.06 133.451 23C132.891 22.94 132.371 22.86 131.891 22.76C131.431 22.66 131.021 22.56 130.661 22.46L131.081 19.85H138.101C138.621 19.85 139.041 19.75 139.361 19.55C139.701 19.35 139.911 19.06 139.991 18.68L140.081 18.02C140.101 17.92 140.111 17.85 140.111 17.81C140.111 17.75 140.111 17.7 140.111 17.66C140.111 17.06 139.691 16.76 138.851 16.76H136.451C135.571 16.76 134.781 16.65 134.081 16.43C133.381 16.19 132.831 15.83 132.431 15.35C132.051 14.87 131.861 14.25 131.861 13.49C131.861 13.29 131.871 13.08 131.891 12.86C131.911 12.62 131.941 12.38 131.981 12.14L132.161 11C132.321 10.16 132.621 9.42 133.061 8.78C133.521 8.14 134.201 7.64 135.101 7.28C136.021 6.9 137.251 6.71 138.791 6.71C139.431 6.71 140.121 6.75 140.861 6.83C141.621 6.89 142.361 6.98 143.081 7.1C143.801 7.2 144.421 7.32 144.941 7.46L144.491 10.07H137.921C137.341 10.07 136.911 10.17 136.631 10.37C136.371 10.55 136.201 10.86 136.121 11.3L136.031 11.75C135.991 11.89 135.961 12.01 135.941 12.11C135.941 12.21 135.941 12.3 135.941 12.38C135.941 12.64 136.041 12.84 136.241 12.98C136.441 13.12 136.801 13.19 137.321 13.19H140.021C141.301 13.19 142.321 13.48 143.081 14.06C143.861 14.62 144.251 15.4 144.251 16.4C144.251 16.6 144.241 16.81 144.221 17.03C144.221 17.25 144.201 17.47 144.161 17.69L143.951 19.1C143.711 20.6 142.991 21.66 141.791 22.28C140.591 22.88 139.021 23.18 137.081 23.18ZM153.782 23.18C153.122 23.18 152.492 23.16 151.892 23.12C151.292 23.1 150.712 23.06 150.152 23C149.592 22.94 149.072 22.86 148.592 22.76C148.132 22.66 147.722 22.56 147.362 22.46L147.782 19.85H154.802C155.322 19.85 155.742 19.75 156.062 19.55C156.402 19.35 156.612 19.06 156.692 18.68L156.782 18.02C156.802 17.92 156.812 17.85 156.812 17.81C156.812 17.75 156.812 17.7 156.812 17.66C156.812 17.06 156.392 16.76 155.552 16.76H153.152C152.272 16.76 151.482 16.65 150.782 16.43C150.082 16.19 149.532 15.83 149.132 15.35C148.752 14.87 148.562 14.25 148.562 13.49C148.562 13.29 148.572 13.08 148.592 12.86C148.612 12.62 148.642 12.38 148.682 12.14L148.862 11C149.022 10.16 149.322 9.42 149.762 8.78C150.222 8.14 150.902 7.64 151.802 7.28C152.722 6.9 153.952 6.71 155.492 6.71C156.132 6.71 156.822 6.75 157.562 6.83C158.322 6.89 159.062 6.98 159.782 7.1C160.502 7.2 161.122 7.32 161.642 7.46L161.192 10.07H154.622C154.042 10.07 153.612 10.17 153.332 10.37C153.072 10.55 152.902 10.86 152.822 11.3L152.732 11.75C152.692 11.89 152.662 12.01 152.642 12.11C152.642 12.21 152.642 12.3 152.642 12.38C152.642 12.64 152.742 12.84 152.942 12.98C153.142 13.12 153.502 13.19 154.022 13.19H156.722C158.002 13.19 159.022 13.48 159.782 14.06C160.562 14.62 160.952 15.4 160.952 16.4C160.952 16.6 160.942 16.81 160.922 17.03C160.922 17.25 160.902 17.47 160.862 17.69L160.652 19.1C160.412 20.6 159.692 21.66 158.492 22.28C157.292 22.88 155.722 23.18 153.782 23.18ZM171.084 23.18C169.704 23.18 168.544 22.97 167.604 22.55C166.664 22.13 165.954 21.51 165.474 20.69C164.994 19.87 164.754 18.83 164.754 17.57C164.754 16.99 164.774 16.46 164.814 15.98C164.854 15.48 164.914 14.99 164.994 14.51C165.254 12.91 165.604 11.6 166.044 10.58C166.504 9.56 167.074 8.77 167.754 8.21C168.454 7.65 169.284 7.26 170.244 7.04C171.224 6.82 172.364 6.71 173.664 6.71C175.364 6.71 176.674 6.93 177.594 7.37C178.514 7.79 179.144 8.43 179.484 9.29C179.824 10.15 179.994 11.25 179.994 12.59C179.994 13.07 179.964 13.59 179.904 14.15C179.864 14.69 179.804 15.25 179.724 15.83C179.424 17.77 178.924 19.28 178.224 20.36C177.524 21.44 176.594 22.18 175.434 22.58C174.274 22.98 172.824 23.18 171.084 23.18ZM171.564 19.61C172.144 19.61 172.634 19.55 173.034 19.43C173.454 19.29 173.794 19.07 174.054 18.77C174.334 18.45 174.564 18 174.744 17.42C174.944 16.82 175.124 16.07 175.284 15.17C175.364 14.61 175.424 14.11 175.464 13.67C175.524 13.21 175.554 12.78 175.554 12.38C175.554 11.58 175.364 11.02 174.984 10.7C174.604 10.36 173.974 10.19 173.094 10.19C172.494 10.19 171.994 10.26 171.594 10.4C171.194 10.54 170.854 10.79 170.574 11.15C170.294 11.51 170.054 12.02 169.854 12.68C169.674 13.34 169.504 14.17 169.344 15.17C169.284 15.59 169.234 15.98 169.194 16.34C169.174 16.7 169.164 17.04 169.164 17.36C169.164 17.96 169.254 18.42 169.434 18.74C169.634 19.06 169.904 19.29 170.244 19.43C170.604 19.55 171.044 19.61 171.564 19.61ZM190.503 23L201.063 0.8H206.643L210.063 23H205.443L204.813 18.35H197.223L195.063 23H190.503ZM198.903 14.36H204.363L203.223 4.64L198.903 14.36ZM212.532 30.11L216.102 7.52C217.462 7.28 218.782 7.09 220.062 6.95C221.342 6.79 222.722 6.71 224.202 6.71C226.122 6.71 227.482 7.19 228.282 8.15C229.102 9.11 229.512 10.55 229.512 12.47C229.512 12.97 229.482 13.49 229.422 14.03C229.382 14.57 229.312 15.12 229.212 15.68C228.952 17.38 228.472 18.78 227.772 19.88C227.092 20.98 226.232 21.81 225.192 22.37C224.172 22.91 223.012 23.18 221.712 23.18C221.032 23.18 220.382 23.13 219.762 23.03C219.142 22.93 218.612 22.77 218.172 22.55L216.972 30.11H212.532ZM221.202 19.4C221.922 19.4 222.532 19.25 223.032 18.95C223.532 18.63 223.932 18.13 224.232 17.45C224.552 16.77 224.802 15.9 224.982 14.84C225.022 14.56 225.052 14.29 225.072 14.03C225.112 13.75 225.132 13.48 225.132 13.22C225.132 12.22 224.962 11.48 224.622 11C224.282 10.52 223.732 10.28 222.972 10.28L220.092 10.31L218.712 18.98C218.992 19.08 219.252 19.16 219.492 19.22C219.732 19.28 219.992 19.33 220.272 19.37C220.552 19.39 220.862 19.4 221.202 19.4ZM231.05 30.11L234.62 7.52C235.98 7.28 237.3 7.09 238.58 6.95C239.86 6.79 241.24 6.71 242.72 6.71C244.64 6.71 246 7.19 246.8 8.15C247.62 9.11 248.03 10.55 248.03 12.47C248.03 12.97 248 13.49 247.94 14.03C247.9 14.57 247.83 15.12 247.73 15.68C247.47 17.38 246.99 18.78 246.29 19.88C245.61 20.98 244.75 21.81 243.71 22.37C242.69 22.91 241.53 23.18 240.23 23.18C239.55 23.18 238.9 23.13 238.28 23.03C237.66 22.93 237.13 22.77 236.69 22.55L235.49 30.11H231.05ZM239.72 19.4C240.44 19.4 241.05 19.25 241.55 18.95C242.05 18.63 242.45 18.13 242.75 17.45C243.07 16.77 243.32 15.9 243.5 14.84C243.54 14.56 243.57 14.29 243.59 14.03C243.63 13.75 243.65 13.48 243.65 13.22C243.65 12.22 243.48 11.48 243.14 11C242.8 10.52 242.25 10.28 241.49 10.28L238.61 10.31L237.23 18.98C237.51 19.08 237.77 19.16 238.01 19.22C238.25 19.28 238.51 19.33 238.79 19.37C239.07 19.39 239.38 19.4 239.72 19.4ZM260.041 23.03C259.681 23.03 259.501 22.87 259.501 22.55C259.501 22.53 259.501 22.51 259.501 22.49C259.501 22.47 259.501 22.45 259.501 22.43L260.011 19.37C260.071 18.95 260.311 18.74 260.731 18.74H263.311C263.671 18.74 263.851 18.89 263.851 19.19C263.851 19.21 263.851 19.24 263.851 19.28C263.851 19.3 263.851 19.33 263.851 19.37L263.341 22.43C263.321 22.67 263.241 22.83 263.101 22.91C262.961 22.99 262.801 23.03 262.621 23.03H260.041ZM261.931 11.15C261.571 11.15 261.391 10.99 261.391 10.67C261.391 10.65 261.391 10.63 261.391 10.61C261.391 10.59 261.391 10.57 261.391 10.55L261.901 7.49C261.961 7.07 262.201 6.86 262.621 6.86H265.201C265.561 6.86 265.741 7.01 265.741 7.31C265.741 7.33 265.741 7.36 265.741 7.4C265.741 7.42 265.741 7.45 265.741 7.49L265.231 10.55C265.211 10.79 265.131 10.95 264.991 11.03C264.851 11.11 264.691 11.15 264.511 11.15H261.931Z" fill="white" />
  <g clip-path="url(#clip0_20_190)" filter="url(#filter0_d_20_190)">
    <path d="M232.074 124.204H8.92593C3.92741 124.204 0 120.276 0 115.278V61.7222C0 56.7237 3.92741 52.7963 8.92593 52.7963H232.074C237.073 52.7963 241 56.7237 241 61.7222V115.278C241 120.276 237.073 124.204 232.074 124.204Z" fill="black" />
    <path d="M232.074 54.2244C236.18 54.2244 239.572 57.6163 239.572 61.7222V115.278C239.572 119.384 236.18 122.776 232.074 122.776H8.92593C4.82 122.776 1.42815 119.384 1.42815 115.278V61.7222C1.42815 57.6163 4.82 54.2244 8.92593 54.2244H232.074ZM232.074 52.7963H8.92593C3.92741 52.7963 0 56.9022 0 61.7222V115.278C0 120.276 3.92741 124.204 8.92593 124.204H232.074C237.073 124.204 241 120.276 241 115.278V61.7222C241 56.9022 237.073 52.7963 232.074 52.7963Z" fill="#A6A6A6" />
    <path d="M84.6177 71.0052C84.6177 72.4333 84.2607 73.683 83.3681 74.5756C82.297 75.6467 81.0474 76.1822 79.4407 76.1822C77.834 76.1822 76.5844 75.6467 75.5133 74.5756C74.4422 73.5044 73.9066 72.2548 73.9066 70.6481C73.9066 69.0415 74.4422 67.7919 75.5133 66.7207C76.5844 65.6496 77.834 65.1141 79.4407 65.1141C80.1548 65.1141 80.8688 65.2926 81.5829 65.6496C82.297 66.0067 82.8325 66.3637 83.1896 66.8993L82.297 67.7919C81.5829 66.8993 80.6903 66.5422 79.4407 66.5422C78.3696 66.5422 77.2985 66.8993 76.5844 67.7919C75.6918 68.5059 75.3348 69.577 75.3348 70.8267C75.3348 72.0763 75.6918 73.1474 76.5844 73.8615C77.477 74.5756 78.3696 75.1111 79.4407 75.1111C80.6903 75.1111 81.5829 74.7541 82.4755 73.8615C83.0111 73.3259 83.3681 72.6119 83.3681 71.7193H79.4407V70.2911H84.6177V71.0052ZM92.8296 66.5422H88.0096V69.9341H92.4725V71.1837H88.0096V74.5756H92.8296V76.0037H86.5814V65.2926H92.8296V66.5422ZM98.7207 76.0037H97.2925V66.5422H94.2577V65.2926H101.756V66.5422H98.7207V76.0037ZM106.933 76.0037V65.2926H108.361V76.0037H106.933ZM114.43 76.0037H113.002V66.5422H109.967V65.2926H117.287V66.5422H114.252V76.0037H114.43ZM131.39 74.5756C130.318 75.6467 129.069 76.1822 127.462 76.1822C125.856 76.1822 124.606 75.6467 123.535 74.5756C122.464 73.5044 121.928 72.2548 121.928 70.6481C121.928 69.0415 122.464 67.7919 123.535 66.7207C124.606 65.6496 125.856 65.1141 127.462 65.1141C129.069 65.1141 130.318 65.6496 131.39 66.7207C132.461 67.7919 132.996 69.0415 132.996 70.6481C132.996 72.2548 132.461 73.5044 131.39 74.5756ZM124.606 73.683C125.32 74.397 126.391 74.9326 127.462 74.9326C128.533 74.9326 129.604 74.5756 130.318 73.683C131.033 72.9689 131.568 71.8978 131.568 70.6481C131.568 69.3985 131.211 68.3274 130.318 67.6133C129.604 66.8993 128.533 66.3637 127.462 66.3637C126.391 66.3637 125.32 66.7207 124.606 67.6133C123.892 68.3274 123.356 69.3985 123.356 70.6481C123.356 71.8978 123.713 72.9689 124.606 73.683ZM134.96 76.0037V65.2926H136.567L141.744 73.683V65.2926H143.172V76.0037H141.744L136.21 67.2563V76.0037H134.96Z" fill="white" stroke="white" stroke-width="1.18519" stroke-miterlimit="10" />
    <path d="M121.571 91.7133C117.287 91.7133 113.895 94.9267 113.895 99.3896C113.895 103.674 117.287 107.066 121.571 107.066C125.856 107.066 129.247 103.853 129.247 99.3896C129.247 94.7482 125.856 91.7133 121.571 91.7133ZM121.571 103.853C119.25 103.853 117.287 101.889 117.287 99.2111C117.287 96.5333 119.25 94.5696 121.571 94.5696C123.892 94.5696 125.856 96.3548 125.856 99.2111C125.856 101.889 123.892 103.853 121.571 103.853ZM104.969 91.7133C100.684 91.7133 97.2926 94.9267 97.2926 99.3896C97.2926 103.674 100.684 107.066 104.969 107.066C109.253 107.066 112.645 103.853 112.645 99.3896C112.645 94.7482 109.253 91.7133 104.969 91.7133ZM104.969 103.853C102.648 103.853 100.684 101.889 100.684 99.2111C100.684 96.5333 102.648 94.5696 104.969 94.5696C107.29 94.5696 109.253 96.3548 109.253 99.2111C109.253 101.889 107.29 103.853 104.969 103.853ZM85.1533 94.0341V97.2474H92.8296C92.6511 99.0326 91.937 100.461 91.0444 101.353C89.9733 102.424 88.1881 103.674 85.1533 103.674C80.3333 103.674 76.7629 99.9252 76.7629 95.1052C76.7629 90.2852 80.5118 86.5363 85.1533 86.5363C87.6526 86.5363 89.6163 87.6074 91.0444 88.857L93.3652 86.5363C91.4015 84.7511 88.9022 83.323 85.3318 83.323C78.9052 83.323 73.3711 88.6785 73.3711 95.1052C73.3711 101.532 78.9052 106.887 85.3318 106.887C88.9022 106.887 91.4015 105.816 93.5437 103.496C95.6859 101.353 96.4 98.3185 96.4 95.9978C96.4 95.2837 96.4 94.5696 96.2215 94.0341H85.1533ZM166.201 96.5333C165.487 94.7482 163.701 91.7133 159.774 91.7133C155.847 91.7133 152.633 94.7482 152.633 99.3896C152.633 103.674 155.847 107.066 160.131 107.066C163.523 107.066 165.665 104.924 166.379 103.674L163.88 101.889C162.987 103.139 161.916 104.031 160.131 104.031C158.346 104.031 157.275 103.317 156.382 101.71L166.558 97.4259L166.201 96.5333ZM155.847 99.0326C155.847 96.1763 158.167 94.5696 159.774 94.5696C161.024 94.5696 162.273 95.2837 162.63 96.1763L155.847 99.0326ZM147.456 106.352H150.848V84.037H147.456V106.352ZM142.101 93.32C141.208 92.4274 139.78 91.5348 137.995 91.5348C134.246 91.5348 130.676 94.9267 130.676 99.2111C130.676 103.496 134.067 106.709 137.995 106.709C139.78 106.709 141.208 105.816 141.922 104.924H142.101V105.995C142.101 108.851 140.494 110.458 137.995 110.458C136.031 110.458 134.603 109.03 134.246 107.78L131.39 109.03C132.282 110.993 134.424 113.493 138.173 113.493C142.101 113.493 145.314 111.172 145.314 105.638V92.0704H142.101V93.32ZM138.173 103.853C135.853 103.853 133.889 101.889 133.889 99.2111C133.889 96.5333 135.853 94.5696 138.173 94.5696C140.494 94.5696 142.279 96.5333 142.279 99.2111C142.279 101.889 140.494 103.853 138.173 103.853ZM181.732 84.037H173.699V106.352H177.09V97.9615H181.732C185.481 97.9615 189.051 95.2837 189.051 90.9993C189.051 86.7148 185.481 84.037 181.732 84.037ZM181.91 94.7482H177.09V87.0719H181.91C184.41 87.0719 185.838 89.2141 185.838 90.8207C185.659 92.7844 184.231 94.7482 181.91 94.7482ZM202.44 91.5348C199.941 91.5348 197.441 92.6059 196.549 94.9267L199.584 96.1763C200.298 94.9267 201.369 94.5696 202.618 94.5696C204.404 94.5696 206.01 95.6407 206.189 97.4259V97.6044C205.653 97.2474 204.225 96.7119 202.797 96.7119C199.584 96.7119 196.37 98.497 196.37 101.71C196.37 104.745 199.048 106.709 201.904 106.709C204.225 106.709 205.296 105.638 206.189 104.567H206.367V106.352H209.581V97.783C209.224 93.8556 206.189 91.5348 202.44 91.5348ZM202.083 103.853C201.012 103.853 199.405 103.317 199.405 101.889C199.405 100.104 201.369 99.5682 202.976 99.5682C204.404 99.5682 205.118 99.9252 206.01 100.282C205.653 102.424 203.868 103.853 202.083 103.853ZM220.827 92.0704L217.078 101.71H216.9L212.973 92.0704H209.402L215.293 105.638L211.901 113.136H215.293L224.398 92.0704H220.827ZM190.836 106.352H194.228V84.037H190.836V106.352Z" fill="white" />
    <path d="M18.5659 66.1852C18.0303 66.7207 17.8518 67.6133 17.8518 68.6844V108.137C17.8518 109.208 18.2088 110.101 18.7444 110.636L18.9229 110.815L41.0592 88.6785V88.3215L18.5659 66.1852Z" fill="url(#paint0_linear_20_190)" />
    <path d="M48.2 96.1763L40.8807 88.857V88.3215L48.2 81.0022L48.3785 81.1807L57.1259 86.1793C59.6252 87.6074 59.6252 89.9282 57.1259 91.3563L48.2 96.1763Z" fill="url(#paint1_linear_20_190)" />
    <path d="M48.3785 95.9978L40.8807 88.5L18.5659 110.815C19.4585 111.707 20.7081 111.707 22.3148 110.993L48.3785 95.9978Z" fill="url(#paint2_linear_20_190)" />
    <path d="M48.3785 81.0022L22.3148 66.1852C20.7081 65.2926 19.4585 65.4711 18.5659 66.3637L40.8807 88.5L48.3785 81.0022Z" fill="url(#paint3_linear_20_190)" />
    <path opacity="0.2" d="M48.2 95.8193L22.3148 110.458C20.8867 111.35 19.637 111.172 18.7444 110.458L18.5659 110.636L18.7444 110.815C19.637 111.529 20.8867 111.707 22.3148 110.815L48.2 95.8193Z" fill="black" />
    <path opacity="0.12" d="M18.5659 110.458C18.0303 109.922 17.8518 109.03 17.8518 107.959V108.137C17.8518 109.208 18.2088 110.101 18.7444 110.636V110.458H18.5659ZM57.1259 90.8207L48.2 95.8193L48.3785 95.9978L57.1259 90.9993C58.3755 90.2852 58.9111 89.3926 58.9111 88.5C58.9111 89.3926 58.197 90.1067 57.1259 90.8207Z" fill="black" />
    <path opacity="0.25" d="M22.3148 66.3637L57.1259 86.1793C58.197 86.8933 58.9111 87.6074 58.9111 88.5C58.9111 87.6074 58.3755 86.7148 57.1259 86.0007L22.3148 66.1852C19.8155 64.757 17.8518 65.8282 17.8518 68.6844V68.863C17.8518 66.1852 19.8155 64.9356 22.3148 66.3637Z" fill="white" />
  </g>
  <g clip-path="url(#clip1_20_190)" filter="url(#filter1_d_20_190)">
    <path d="M520.465 115.782C520.465 116.681 520.288 117.571 519.943 118.401C519.599 119.232 519.094 119.986 518.458 120.622C517.822 121.257 517.067 121.761 516.236 122.104C515.405 122.447 514.514 122.624 513.615 122.623H289.449C287.632 122.625 285.889 121.905 284.603 120.622C283.316 119.339 282.592 117.598 282.59 115.782V61.2272C282.592 59.41 283.316 57.668 284.602 56.3837C285.888 55.0994 287.631 54.3778 289.449 54.3773H513.613C514.513 54.3773 515.404 54.5545 516.235 54.8988C517.066 55.2431 517.821 55.7476 518.458 56.3837C519.094 57.0198 519.598 57.775 519.942 58.606C520.286 59.4371 520.463 60.3278 520.463 61.2272L520.465 115.782Z" fill="white" />
    <path d="M513.615 124.214H289.449C287.211 124.214 285.064 123.326 283.48 121.745C281.896 120.164 281.004 118.019 281 115.782V61.229C281.003 58.9903 281.895 56.8443 283.479 55.2618C285.063 53.6793 287.21 52.7895 289.449 52.7877H513.613C515.852 52.7905 517.999 53.6806 519.583 55.2629C521.166 56.8452 522.058 58.9906 522.062 61.229V115.782C522.066 120.433 518.269 124.214 513.615 124.214Z" fill="#A6A6A6" />
    <path d="M520.465 115.782C520.465 116.681 520.288 117.571 519.943 118.401C519.599 119.232 519.094 119.986 518.458 120.622C517.822 121.257 517.067 121.761 516.236 122.104C515.405 122.447 514.514 122.624 513.615 122.623H289.449C287.632 122.625 285.889 121.905 284.603 120.622C283.316 119.339 282.592 117.598 282.59 115.782V61.2272C282.592 59.41 283.316 57.668 284.602 56.3837C285.888 55.0994 287.631 54.3778 289.449 54.3773H513.613C514.513 54.3773 515.404 54.5545 516.235 54.8988C517.066 55.2431 517.821 55.7476 518.458 56.3837C519.094 57.0198 519.598 57.775 519.942 58.606C520.286 59.4371 520.463 60.3278 520.463 61.2272L520.465 115.782Z" fill="black" />
    <path d="M334.827 88.1249C334.776 82.3681 339.542 79.5674 339.76 79.4371C337.061 75.5022 332.876 74.9645 331.406 74.9217C327.892 74.5519 324.483 77.024 322.693 77.024C320.867 77.024 318.11 74.9574 315.139 75.0181C311.315 75.0771 307.739 77.2901 305.777 80.7267C301.728 87.7337 304.748 98.0309 308.627 103.695C310.567 106.47 312.834 109.566 315.802 109.457C318.705 109.339 319.789 107.608 323.293 107.608C326.764 107.608 327.783 109.457 330.809 109.387C333.925 109.339 335.887 106.601 337.759 103.802C340.002 100.624 340.902 97.4915 340.938 97.3307C340.866 97.3057 334.888 95.023 334.827 88.1249ZM329.11 71.1958C330.672 69.2435 331.74 66.5875 331.444 63.8922C329.184 63.9922 326.357 65.4551 324.729 67.3645C323.289 69.047 322.003 71.8048 322.335 74.3983C324.874 74.5877 327.481 73.1177 329.11 71.1958Z" fill="white" />
    <path d="M513.615 52.7877H393.545L440.574 124.214H513.615C515.854 124.212 518 123.323 519.584 121.741C521.168 120.159 522.06 118.014 522.064 115.776V61.229C522.06 58.9905 521.169 56.8448 519.585 55.2624C518.001 53.68 515.854 52.79 513.615 52.7877Z" fill="url(#paint4_linear_20_190)" />
    <path d="M376.879 109.059H372.822L370.599 102.077H362.874L360.757 109.059H356.807L364.462 85.2885H369.19L376.879 109.059ZM369.929 99.1473L367.919 92.9404C367.707 92.3063 367.307 90.8131 366.721 88.4625H366.649C366.413 89.4734 366.036 90.9667 365.52 92.9404L363.544 99.1473H369.929ZM396.529 100.278C396.529 103.193 395.737 105.497 394.152 107.189C392.734 108.694 390.97 109.446 388.868 109.446C386.597 109.446 384.964 108.637 383.972 107.015V116.009H380.163V97.5522C380.163 95.7214 380.115 93.8442 380.022 91.9187H383.372L383.584 94.6354H383.656C384.926 92.5885 386.854 91.565 389.441 91.565C391.463 91.565 393.152 92.3634 394.503 93.962C395.851 95.5642 396.529 97.6683 396.529 100.278ZM392.648 100.417C392.648 98.7489 392.273 97.3736 391.519 96.2894C390.695 95.1623 389.589 94.5979 388.203 94.5979C387.263 94.5979 386.409 94.9123 385.646 95.5321C384.882 96.1572 384.381 96.9735 384.147 97.9845C384.043 98.3625 383.983 98.7516 383.97 99.1437V102.003C383.97 103.248 384.353 104.3 385.117 105.161C385.882 106.019 386.875 106.449 388.097 106.449C389.532 106.449 390.649 105.894 391.447 104.791C392.248 103.686 392.648 102.228 392.648 100.417ZM416.248 100.278C416.248 103.193 415.456 105.497 413.871 107.189C412.451 108.694 410.689 109.446 408.585 109.446C406.314 109.446 404.681 108.637 403.689 107.015V116.009H399.88V97.5522C399.88 95.7214 399.832 93.8442 399.739 91.9187H403.089L403.302 94.6354H403.373C404.642 92.5885 406.569 91.565 409.158 91.565C411.179 91.565 412.867 92.3634 414.222 93.962C415.569 95.5642 416.248 97.6683 416.248 100.278ZM412.365 100.417C412.365 98.7489 411.988 97.3736 411.234 96.2894C410.411 95.1623 409.308 94.5979 407.922 94.5979C406.982 94.5979 406.128 94.9123 405.362 95.5321C404.597 96.1572 404.098 96.9735 403.864 97.9845C403.748 98.456 403.686 98.84 403.686 99.1437V102.003C403.686 103.248 404.07 104.3 404.831 105.161C405.596 106.017 406.589 106.449 407.815 106.449C409.251 106.449 410.368 105.894 411.165 104.791C411.965 103.686 412.365 102.228 412.365 100.417ZM438.295 102.391C438.295 104.415 437.587 106.06 436.181 107.33C434.634 108.716 432.474 109.41 429.704 109.41C427.146 109.41 425.095 108.918 423.548 107.93L424.429 104.756C426.099 105.745 427.934 106.238 429.931 106.238C431.368 106.238 432.484 105.913 433.281 105.268C434.08 104.622 434.484 103.757 434.484 102.678C434.484 101.712 434.15 100.903 433.494 100.244C432.835 99.5866 431.745 98.974 430.214 98.4114C426.051 96.8592 423.968 94.589 423.968 91.6025C423.968 89.6521 424.704 88.0552 426.172 86.8067C427.641 85.56 429.588 84.9366 432.011 84.9366C434.175 84.9366 435.977 85.3135 437.408 86.0655L436.453 89.1698C435.105 88.4411 433.585 88.0767 431.884 88.0767C430.541 88.0767 429.486 88.4071 428.733 89.0644C428.098 89.6521 427.777 90.3683 427.777 91.2185C427.777 92.1563 428.143 92.935 428.872 93.5459C429.504 94.1085 430.658 94.7212 432.327 95.3785C434.375 96.2037 435.879 97.1646 436.842 98.2685C437.812 99.3723 438.295 100.749 438.295 102.391ZM450.921 94.7765H446.722V103.098C446.722 105.215 447.462 106.27 448.945 106.27C449.625 106.27 450.19 106.213 450.637 106.094L450.742 108.985C449.992 109.266 449.004 109.407 447.78 109.407C446.275 109.407 445.1 108.948 444.251 108.03C443.406 107.112 442.981 105.574 442.981 103.409V94.7694H440.48V91.9115H442.981V88.7733L446.722 87.6444V91.9115H450.921V94.7765ZM469.827 100.348C469.827 102.982 469.073 105.145 467.568 106.837C465.994 108.578 463.9 109.446 461.29 109.446C458.771 109.446 456.768 108.612 455.275 106.946C453.781 105.276 453.034 103.171 453.034 100.633C453.034 97.9773 453.806 95.8018 455.344 94.1103C456.886 92.417 458.962 91.5704 461.572 91.5704C464.088 91.5704 466.109 92.4063 467.638 94.0746C469.1 95.6928 469.827 97.7826 469.827 100.348ZM465.878 100.435C465.878 98.865 465.539 97.5183 464.858 96.3912C464.059 95.0302 462.916 94.3496 461.435 94.3496C459.909 94.3496 458.739 95.0302 457.942 96.3912C457.26 97.5183 456.92 98.8883 456.92 100.507C456.92 102.078 457.26 103.429 457.942 104.552C458.766 105.913 459.914 106.594 461.403 106.594C462.859 106.594 464 105.899 464.826 104.518C465.526 103.364 465.878 102.009 465.878 100.435ZM482.213 95.2677C481.817 95.1962 481.415 95.161 481.013 95.1623C479.673 95.1623 478.637 95.666 477.908 96.6806C477.275 97.5736 476.957 98.7025 476.957 100.065V109.059H473.148V97.3164C473.151 95.5172 473.114 93.7181 473.037 91.9205H476.355L476.494 95.1999H476.6C477.004 94.0728 477.636 93.1636 478.504 92.4831C479.299 91.8885 480.265 91.5664 481.258 91.565C481.609 91.565 481.927 91.59 482.21 91.6347L482.213 95.2677ZM499.249 99.6777C499.258 100.257 499.212 100.835 499.109 101.405H487.682C487.725 103.098 488.279 104.395 489.34 105.288C490.303 106.085 491.548 106.485 493.078 106.485C494.77 106.485 496.313 106.217 497.702 105.676L498.298 108.317C496.676 109.025 494.761 109.377 492.551 109.377C489.892 109.377 487.805 108.594 486.287 107.033C484.772 105.47 484.012 103.37 484.012 100.739C484.012 98.1559 484.718 96.0036 486.131 94.2871C487.611 92.4545 489.61 91.5382 492.126 91.5382C494.596 91.5382 496.467 92.4545 497.737 94.2871C498.743 95.7393 499.249 97.5397 499.249 99.6777ZM495.617 98.69C495.643 97.5594 495.393 96.5859 494.877 95.7625C494.218 94.7015 493.203 94.1728 491.843 94.1728C490.598 94.1728 489.583 94.689 488.811 95.725C488.177 96.5484 487.8 97.5379 487.684 98.6864L495.617 98.69Z" fill="white" />
    <path d="M361.775 76.8847C360.716 76.8847 359.799 76.8329 359.036 76.7453V65.2532C360.103 65.0884 361.181 65.0072 362.261 65.0103C366.629 65.0103 368.641 67.1591 368.641 70.6617C368.641 74.702 366.265 76.8847 361.775 76.8847ZM362.415 66.4839C361.825 66.4839 361.323 66.5196 360.907 66.6053V75.3414C361.132 75.3771 361.564 75.3932 362.172 75.3932C365.034 75.3932 366.663 73.7642 366.663 70.7135C366.663 67.9932 365.189 66.4839 362.415 66.4839ZM374.91 76.9722C372.448 76.9722 370.853 75.1342 370.853 72.639C370.853 70.0383 372.482 68.1843 375.05 68.1843C377.476 68.1843 379.107 69.9347 379.107 72.5014C379.107 75.1342 377.426 76.9722 374.91 76.9722ZM374.982 69.5525C373.629 69.5525 372.763 70.8171 372.763 72.5854C372.763 74.3197 373.647 75.5843 374.964 75.5843C376.281 75.5843 377.165 74.2322 377.165 72.5497C377.165 70.835 376.299 69.5525 374.982 69.5525ZM393.147 68.3576L390.511 76.7811H388.794L387.703 73.123C387.431 72.2282 387.205 71.3203 387.026 70.4027H386.99C386.852 71.3208 386.591 72.2407 386.314 73.123L385.153 76.7811H383.418L380.938 68.3576H382.863L383.817 72.3621C384.042 73.3159 384.231 74.2161 384.388 75.0663H384.424C384.562 74.3572 384.787 73.4713 385.117 72.38L386.314 68.3593H387.84L388.985 72.2942C389.262 73.248 389.487 74.184 389.663 75.0681H389.713C389.834 74.2018 390.025 73.282 390.284 72.2942L391.308 68.3593L393.147 68.3576ZM402.848 76.7811H400.976V71.9442C400.976 70.4545 400.404 69.7079 399.276 69.7079C398.167 69.7079 397.404 70.6617 397.404 71.7709V76.7811H395.532V70.7653C395.532 70.0205 395.514 69.2221 395.462 68.3558H397.109L397.197 69.6561H397.249C397.752 68.7559 398.774 68.1843 399.92 68.1843C401.688 68.1843 402.85 69.5364 402.85 71.737L402.848 76.7811ZM408.011 76.7811H406.137V64.4923H408.011V76.7811ZM414.838 76.9722C412.378 76.9722 410.78 75.1342 410.78 72.639C410.78 70.0383 412.41 68.1843 414.975 68.1843C417.404 68.1843 419.033 69.9347 419.033 72.5014C419.035 75.1342 417.352 76.9722 414.838 76.9722ZM414.908 69.5525C413.555 69.5525 412.689 70.8171 412.689 72.5854C412.689 74.3197 413.575 75.5843 414.888 75.5843C416.206 75.5843 417.089 74.2322 417.089 72.5497C417.091 70.835 416.226 69.5525 414.908 69.5525ZM426.415 76.7811L426.279 75.8112H426.229C425.658 76.5917 424.823 76.9722 423.766 76.9722C422.256 76.9722 421.184 75.9148 421.184 74.493C421.184 72.4139 422.987 71.3386 426.108 71.3386V71.1833C426.108 70.0741 425.52 69.5186 424.359 69.5186C423.528 69.5186 422.799 69.7275 422.158 70.1437L421.777 68.9131C422.556 68.4272 423.528 68.1843 424.67 68.1843C426.871 68.1843 427.982 69.3453 427.982 71.6691V74.7716C427.982 75.6218 428.02 76.2809 428.104 76.7828L426.415 76.7811ZM426.158 72.5854C424.078 72.5854 423.035 73.0891 423.035 74.284C423.035 75.1682 423.573 75.6004 424.32 75.6004C425.272 75.6004 426.158 74.8734 426.158 73.8857V72.5854ZM437.074 76.7811L436.987 75.4289H436.935C436.397 76.4506 435.493 76.9722 434.23 76.9722C432.199 76.9722 430.694 75.186 430.694 72.6729C430.694 70.0383 432.254 68.1825 434.384 68.1825C435.511 68.1825 436.31 68.563 436.76 69.3274H436.797V64.4923H438.672V74.5109C438.672 75.3253 438.691 76.088 438.741 76.7811H437.074ZM436.797 71.8245C436.797 70.6456 436.017 69.64 434.825 69.64C433.437 69.64 432.588 70.8707 432.588 72.6032C432.588 74.3019 433.469 75.4647 434.787 75.4647C435.965 75.4647 436.797 74.4412 436.797 73.2284V71.8245ZM450.554 76.9722C448.094 76.9722 446.499 75.1342 446.499 72.639C446.499 70.0383 448.128 68.1843 450.694 68.1843C453.122 68.1843 454.751 69.9347 454.751 72.5014C454.753 75.1342 453.072 76.9722 450.554 76.9722ZM450.624 69.5525C449.273 69.5525 448.407 70.8171 448.407 72.5854C448.407 74.3197 449.291 75.5843 450.606 75.5843C451.925 75.5843 452.807 74.2322 452.807 72.5497C452.811 70.835 451.944 69.5525 450.624 69.5525ZM464.821 76.7811H462.946V71.9442C462.946 70.4545 462.375 69.7079 461.247 69.7079C460.138 69.7079 459.377 70.6617 459.377 71.7709V76.7811H457.503V70.7653C457.503 70.0205 457.485 69.2221 457.433 68.3558H459.08L459.168 69.6561H459.219C459.722 68.7559 460.745 68.1825 461.889 68.1825C463.657 68.1825 464.821 69.5346 464.821 71.7352V76.7811ZM477.418 69.7615H475.358V73.8518C475.358 74.8931 475.719 75.4129 476.448 75.4129C476.778 75.4129 477.055 75.3771 477.279 75.3253L477.331 76.7471C476.968 76.8864 476.482 76.9561 475.878 76.9561C474.402 76.9561 473.52 76.1416 473.52 74.0089V69.7615H472.29V68.3576H473.52V66.8143L475.358 66.2588V68.3558H477.418V69.7615ZM487.33 76.7811H485.46V71.9799C485.46 70.4724 484.89 69.7097 483.761 69.7097C482.79 69.7097 481.886 70.3688 481.886 71.703V76.7811H480.016V64.4923H481.886V69.5525H481.924C482.514 68.6344 483.368 68.1825 484.457 68.1825C486.24 68.1825 487.33 69.5686 487.33 71.7709V76.7811ZM497.485 73.0194H491.867C491.902 74.6145 492.958 75.5147 494.521 75.5147C495.352 75.5147 496.117 75.3754 496.792 75.1164L497.083 76.4167C496.287 76.7632 495.349 76.9365 494.257 76.9365C491.622 76.9365 490.062 75.2718 490.062 72.6908C490.062 70.108 491.659 68.1664 494.046 68.1664C496.199 68.1664 497.55 69.7615 497.55 72.171C497.562 72.4553 497.54 72.7401 497.485 73.0194ZM495.768 71.6852C495.768 70.3848 495.113 69.4668 493.916 69.4668C492.84 69.4668 491.99 70.4027 491.868 71.6852H495.768Z" fill="white" />
  </g>
  <defs>
    <filter id="filter0_d_20_190" x="0" y="52" width="254" height="87" filterUnits="userSpaceOnUse" color-interpolation-filters="sRGB">
      <feFlood flood-opacity="0" result="BackgroundImageFix" />
      <feColorMatrix in="SourceAlpha" type="matrix" values="0 0 0 0 0 0 0 0 0 0 0 0 0 0 0 0 0 0 127 0" result="hardAlpha" />
      <feOffset dx="9" dy="10" />
      <feGaussianBlur stdDeviation="2" />
      <feComposite in2="hardAlpha" operator="out" />
      <feColorMatrix type="matrix" values="0 0 0 0 0 0 0 0 0 0 0 0 0 0 0 0 0 0 0.25 0" />
      <feBlend mode="normal" in2="BackgroundImageFix" result="effect1_dropShadow_20_190" />
      <feBlend mode="normal" in="SourceGraphic" in2="effect1_dropShadow_20_190" result="shape" />
    </filter>
    <filter id="filter1_d_20_190" x="281" y="52" width="256" height="87" filterUnits="userSpaceOnUse" color-interpolation-filters="sRGB">
      <feFlood flood-opacity="0" result="BackgroundImageFix" />
      <feColorMatrix in="SourceAlpha" type="matrix" values="0 0 0 0 0 0 0 0 0 0 0 0 0 0 0 0 0 0 127 0" result="hardAlpha" />
      <feOffset dx="10" dy="10" />
      <feGaussianBlur stdDeviation="2" />
      <feComposite in2="hardAlpha" operator="out" />
      <feColorMatrix type="matrix" values="0 0 0 0 0 0 0 0 0 0 0 0 0 0 0 0 0 0 0.25 0" />
      <feBlend mode="normal" in2="BackgroundImageFix" result="effect1_dropShadow_20_190" />
      <feBlend mode="normal" in="SourceGraphic" in2="effect1_dropShadow_20_190" result="shape" />
    </filter>
    <linearGradient id="paint0_linear_20_190" x1="38.917" y1="68.3453" x2="8.95623" y2="98.3042" gradientUnits="userSpaceOnUse">
      <stop stop-color="#00A0FF" />
      <stop offset="0.007" stop-color="#00A1FF" />
      <stop offset="0.26" stop-color="#00BEFF" />
      <stop offset="0.512" stop-color="#00D2FF" />
      <stop offset="0.76" stop-color="#00DFFF" />
      <stop offset="1" stop-color="#00E3FF" />
    </linearGradient>
    <linearGradient id="paint1_linear_20_190" x1="60.4" y1="88.5018" x2="17.2038" y2="88.5018" gradientUnits="userSpaceOnUse">
      <stop stop-color="#FFE000" />
      <stop offset="0.409" stop-color="#FFBD00" />
      <stop offset="0.775" stop-color="#FFA500" />
      <stop offset="1" stop-color="#FF9C00" />
    </linearGradient>
    <linearGradient id="paint2_linear_20_190" x1="44.3208" y1="92.5988" x2="3.69354" y2="133.226" gradientUnits="userSpaceOnUse">
      <stop stop-color="#FF3A44" />
      <stop offset="1" stop-color="#C31162" />
    </linearGradient>
    <linearGradient id="paint3_linear_20_190" x1="13.0265" y1="53.1105" x2="31.1693" y2="71.2533" gradientUnits="userSpaceOnUse">
      <stop stop-color="#32A071" />
      <stop offset="0.069" stop-color="#2DA771" />
      <stop offset="0.476" stop-color="#15CF74" />
      <stop offset="0.801" stop-color="#06E775" />
      <stop offset="1" stop-color="#00F076" />
    </linearGradient>
    <linearGradient id="paint4_linear_20_190" x1="457.802" y1="124.404" x2="457.802" y2="-133.195" gradientUnits="userSpaceOnUse">
      <stop stop-color="#1A1A1A" stop-opacity="0.1" />
      <stop offset="0.123" stop-color="#212121" stop-opacity="0.151" />
      <stop offset="0.308" stop-color="#353535" stop-opacity="0.227" />
      <stop offset="0.532" stop-color="#575757" stop-opacity="0.318" />
      <stop offset="0.783" stop-color="#858585" stop-opacity="0.421" />
      <stop offset="1" stop-color="#B3B3B3" stop-opacity="0.51" />
    </linearGradient>
    <clipPath id="clip0_20_190">
      <rect width="241" height="73" fill="white" transform="translate(0 52)" />
    </clipPath>
    <clipPath id="clip1_20_190">
      <rect width="242" height="73" fill="white" transform="translate(281 52)" />
    </clipPath>
  </defs>
</svg>