<svg width="169" height="133" fill="none" xmlns="http://www.w3.org/2000/svg">
  <g clip-path="url(#a)">
    <rect x="-.004" y=".009" width="168.537" height="132.367" rx="19.239" fill="url(#b)" />
    <path stroke="#000" stroke-opacity=".8" stroke-width=".77" d="M17.045 53.382-7.581 78.008M28.589 65.695 12.428 81.856M56.293 68.773l-36.939 36.94M102.468 83.395l-28.474 28.474M154.799 53.382l-29.244 29.244" />
    <path d="M57.343 58.525c-1.2-2.73-2.585-5.463-4.771-7.491-3.267-3.03-7.843-4.08-12.168-5.146a224.32 224.32 0 0 1-27.677-8.76c-1.75-.681-3.445 1.092-2.7 2.816.829 1.917 1.782 3.77 3.006 5.459 2.194 3.025 5.409 5.508 9.118 5.97-1.356.137-2.789.302-3.754 1.393-.49.553-.697 1.327-.45 2.023.411 1.156 1.736 1.396 2.875 1.521l6.755.74c-1.698.446-2.777 2.386-2.45 4.111.326 1.725 1.875 3.087 3.602 3.403 1.523.278 3.12-.187 4.379-1.097-.876.927-.92 2.579-.133 3.64.915 1.232 2.618 1.686 4.134 1.446 1.517-.24 2.876-1.066 4.1-1.99.722 1.548 2.327 2.646 4.032 2.757 1.705.11 3.44-.771 4.355-2.214.776 2.621 4.304 3.969 6.63 2.533l4.518 7.136 1.227-4.96a89.118 89.118 0 0 0-4.628-13.29ZM111.917 56.616c1.443-2.61 3.07-5.206 5.431-7.027 3.529-2.72 8.181-3.35 12.586-4.02a224.4 224.4 0 0 0 28.358-6.21c1.804-.52 3.331 1.399 2.433 3.048-.999 1.835-2.117 3.594-3.489 5.163-2.46 2.814-5.887 4.995-9.622 5.118 1.337.26 2.749.554 3.611 1.728.437.596.574 1.385.264 2.056-.514 1.113-1.855 1.233-3.001 1.253l-6.794.124c1.65.599 2.549 2.629 2.067 4.317-.482 1.688-2.148 2.903-3.897 3.061-1.541.14-3.09-.469-4.261-1.49.788 1.003.682 2.652-.198 3.637-1.024 1.144-2.761 1.442-4.249 1.065-1.488-.377-2.767-1.323-3.903-2.355-.859 1.477-2.557 2.424-4.265 2.38-1.708-.045-3.354-1.08-4.135-2.6-1.012 2.54-4.647 3.562-6.833 1.92l-5.147 6.697-.772-5.05a89.179 89.179 0 0 1 5.816-12.815Z" fill="#fff" opacity=".8" />
    <path d="M108.476 73.242c2.375-14.245-7.248-27.717-21.493-30.09-14.245-2.375-27.717 7.248-30.09 21.493-2.375 14.244 7.248 27.716 21.493 30.09 14.244 2.374 27.716-7.248 30.09-21.493Z" fill="#407BFF" />
    <path opacity=".3" d="M108.476 73.242c2.374-14.245-7.248-27.717-21.493-30.09-14.245-2.375-27.717 7.248-30.09 21.492-2.375 14.245 7.248 27.717 21.493 30.091 14.244 2.374 27.716-7.248 30.09-21.493Z" fill="#000" />
    <path d="M109.823 67.51c2.374-14.244-7.249-27.716-21.494-30.09-14.244-2.374-27.716 7.249-30.09 21.493-2.374 14.245 7.248 27.717 21.493 30.091 14.245 2.374 27.717-7.249 30.091-21.493Z" fill="#407BFF" />
    <path d="M101.01 80.194c9.378-9.378 9.378-24.583 0-33.96-9.378-9.379-24.583-9.379-33.96 0-9.379 9.377-9.379 24.582 0 33.96 9.377 9.378 24.582 9.378 33.96 0Z" fill="#407BFF" />
    <path opacity=".7" d="M101.01 80.194c9.378-9.378 9.378-24.583 0-33.96-9.378-9.379-24.583-9.379-33.96 0-9.379 9.377-9.379 24.582 0 33.96 9.377 9.378 24.582 9.378 33.96 0Z" fill="#fff" />
    <path opacity=".4" d="M92.785 40.845 61.178 70.608s2.177 5.505 4.157 7.676L99.303 44.68s-2.901-2.593-6.518-3.835ZM102.401 47.918 67.023 80.166s.553.884 3.106 2.532l34.925-31.158s-.407-1.258-2.653-3.622Z" fill="#fff" />
    <path d="M83.434 41.809v2.867h-.532v-2.42h-.606v-.447h1.138ZM86.08 44.225v.45h-2.113v-.356l1.139-1.08c.128-.124.215-.231.26-.322a.608.608 0 0 0 .067-.273.369.369 0 0 0-.135-.307c-.09-.071-.222-.106-.398-.106-.292 0-.515.1-.671.298l-.373-.286c.112-.15.263-.267.453-.35a1.57 1.57 0 0 1 .637-.125c.31 0 .56.073.745.22a.727.727 0 0 1 .278.603c0 .155-.032.301-.098.438-.065.137-.191.292-.376.467l-.766.729h1.351ZM84.254 82.739c.15.072.267.175.352.31a.845.845 0 0 1 .127.462.866.866 0 0 1-.14.49.918.918 0 0 1-.377.325 1.206 1.206 0 0 1-.532.115c-.393 0-.698-.123-.915-.369-.218-.246-.326-.598-.326-1.057 0-.322.059-.597.176-.825a1.22 1.22 0 0 1 .493-.52c.212-.119.457-.178.736-.178.147 0 .285.015.415.046.13.032.243.078.338.138l-.197.401a.979.979 0 0 0-.545-.139c-.275 0-.491.085-.647.254-.155.17-.233.414-.233.733v.005a.796.796 0 0 1 .324-.224c.13-.05.278-.076.442-.076.19 0 .359.036.509.109Zm-.193 1.15a.443.443 0 0 0 .156-.354.442.442 0 0 0-.156-.356.628.628 0 0 0-.418-.131.622.622 0 0 0-.42.139.444.444 0 0 0-.161.352c0 .14.052.255.157.346.106.092.251.138.437.138a.604.604 0 0 0 .405-.134ZM94.154 45.28v2.867h-.532v-2.42h-.606v-.447h1.138ZM94.387 79.92a.78.78 0 0 1 .291.64.887.887 0 0 1-.126.467.882.882 0 0 1-.381.332c-.17.082-.379.123-.627.123-.204 0-.403-.03-.594-.088a1.458 1.458 0 0 1-.483-.244l.225-.414c.107.087.235.156.383.207.15.05.303.076.461.076.189 0 .337-.04.444-.117a.374.374 0 0 0 .162-.322.372.372 0 0 0-.174-.334c-.116-.075-.315-.112-.596-.112h-.692l.147-1.56h1.683v.446h-1.233l-.06.663h.273c.405 0 .703.08.897.236ZM73.787 45.28v2.867h-.533v-2.42h-.606v-.447h1.139ZM75.347 45.28v2.867h-.532v-2.42h-.606v-.447h1.138ZM73.787 78.574v2.867h-.533v-2.42h-.606v-.447h1.139ZM75.347 78.574v2.867h-.532v-2.42h-.606v-.447h1.138ZM101.383 53.934v.451H99.27v-.356l1.138-1.081a1.26 1.26 0 0 0 .26-.322.612.612 0 0 0 .068-.272.368.368 0 0 0-.135-.307c-.091-.072-.223-.107-.398-.107-.292 0-.516.1-.671.299l-.373-.287c.112-.15.262-.267.452-.35a1.57 1.57 0 0 1 .637-.125c.311 0 .56.074.746.221a.729.729 0 0 1 .278.602c0 .156-.033.302-.098.439-.066.136-.191.292-.377.466l-.766.73h1.352ZM101.95 73.54h-.508v.651h-.516v-.65h-1.572v-.37l1.413-1.846h.569l-1.331 1.765h.938v-.578h.499v.578h.508v.45ZM67.34 51.518v2.867h-.533v-2.42h-.606v-.447h1.138ZM68.49 54.252a1.173 1.173 0 0 1-.426-.508 1.86 1.86 0 0 1-.155-.792c0-.306.052-.57.155-.793.104-.222.246-.392.426-.508.18-.116.386-.174.615-.174.229 0 .434.058.616.174.181.116.324.286.428.508.104.223.156.487.156.793 0 .305-.052.57-.156.792a1.167 1.167 0 0 1-.428.508 1.12 1.12 0 0 1-.616.174c-.23 0-.435-.058-.615-.174Zm1.1-.543c.118-.169.178-.422.178-.757 0-.337-.06-.589-.178-.758a.562.562 0 0 0-.485-.254.558.558 0 0 0-.482.254c-.119.169-.178.421-.178.758 0 .335.06.588.178.757.119.17.28.254.482.254a.563.563 0 0 0 .485-.254ZM68.553 72.915c.081.116.121.252.121.408a.75.75 0 0 1-.145.458.912.912 0 0 1-.411.301c-.178.07-.384.105-.619.105s-.44-.035-.616-.105a.898.898 0 0 1-.408-.3.758.758 0 0 1-.143-.46c0-.155.04-.29.119-.407a.812.812 0 0 1 .34-.276.681.681 0 0 1-.265-.248.674.674 0 0 1-.092-.354c0-.161.044-.302.133-.422a.85.85 0 0 1 .375-.278 1.47 1.47 0 0 1 .557-.099c.213 0 .4.033.56.099a.866.866 0 0 1 .377.278c.09.12.136.26.136.422a.655.655 0 0 1-.365.602c.15.068.266.16.347.276Zm-.587.731a.395.395 0 0 0 .172-.34.391.391 0 0 0-.172-.336c-.115-.082-.27-.123-.467-.123-.196 0-.35.041-.463.123a.393.393 0 0 0-.168.336c0 .145.056.258.168.34.112.082.267.123.463.123.197 0 .352-.041.467-.123Zm-.862-1.884a.35.35 0 0 0-.145.3c0 .122.048.22.145.292a.646.646 0 0 0 .395.108c.17 0 .303-.036.401-.108a.344.344 0 0 0 .148-.293.346.346 0 0 0-.15-.299.676.676 0 0 0-.4-.106.656.656 0 0 0-.394.106ZM103.886 62.939a.775.775 0 0 1 .209.553.852.852 0 0 1-.127.454.873.873 0 0 1-.383.326 1.46 1.46 0 0 1-.625.121c-.204 0-.402-.03-.591-.088a1.504 1.504 0 0 1-.486-.244l.23-.414c.103.087.23.157.378.207.149.05.303.076.461.076.189 0 .337-.04.444-.117a.37.37 0 0 0 .162-.318.367.367 0 0 0-.153-.313c-.102-.075-.259-.113-.469-.113h-.262v-.364l.651-.774h-1.302v-.446h1.954v.356l-.697.827c.265.033.467.123.606.27ZM65.382 61.813c.217.245.326.598.326 1.056 0 .322-.06.598-.177.825a1.219 1.219 0 0 1-.493.52 1.477 1.477 0 0 1-.735.18c-.148 0-.287-.017-.416-.048a1.12 1.12 0 0 1-.338-.137l.196-.402c.142.093.324.14.545.14.276 0 .491-.086.647-.255.156-.169.234-.413.234-.733v-.004a.795.795 0 0 1-.324.223 1.22 1.22 0 0 1-.442.076c-.189 0-.358-.036-.508-.109a.834.834 0 0 1-.352-.309.846.846 0 0 1-.127-.463c0-.185.046-.349.14-.489a.923.923 0 0 1 .376-.325c.159-.077.336-.115.532-.115.394 0 .699.123.916.369Zm-.455.884a.444.444 0 0 0 .162-.352.438.438 0 0 0-.158-.345c-.105-.092-.25-.138-.436-.138a.602.602 0 0 0-.405.133.444.444 0 0 0-.156.355c0 .15.052.269.156.356a.628.628 0 0 0 .418.131.622.622 0 0 0 .42-.14ZM83.52 63.267l.529-15.58h.738l.878 15.58H83.52Z" fill="#263238" />
    <path d="m83.657 64.313-7.276-7.252.494-.55 8.216 6.206-1.434 1.596Z" fill="#263238" />
    <path d="m79.715 66.601 16.994-9.658-16.635 10.175-.359-.517Z" fill="#407BFF" />
    <path d="M86.847 63.267a2.254 2.254 0 1 1-4.509 0 2.254 2.254 0 0 1 4.509 0Z" fill="#407BFF" />
    <path opacity=".3" d="M86.847 63.267a2.254 2.254 0 1 1-4.509 0 2.254 2.254 0 0 1 4.509 0Z" fill="#000" />
    <path d="M66.168 86.047s-4.22 8.095-2.795 8.212c1.423.118 6.363-5.624 6.363-5.624s-.53-2.84-3.568-2.588ZM101.727 85.262s4.22 8.094 2.796 8.212c-1.424.118-6.363-5.625-6.363-5.625s.529-2.84 3.567-2.587ZM55.847 49.597C56 49.411 73.81 33.29 73.81 33.29s-6.82-5.904-14.812 2.037c-7.99 7.94-3.151 14.27-3.151 14.27Z" fill="#407BFF" />
    <path d="M73.81 33.29c.717.782-2.915 4.922-7.84 9.435-4.925 4.512-9.498 7.536-10.215 6.755-.717-.783 2.694-5.075 7.619-9.588 4.925-4.513 9.72-7.384 10.436-6.602Z" fill="#407BFF" />
    <path opacity=".3" d="M73.81 33.29c.717.782-2.915 4.922-7.84 9.435-4.925 4.512-9.498 7.536-10.215 6.755-.717-.783 2.694-5.075 7.619-9.588 4.925-4.513 9.72-7.384 10.436-6.602Z" fill="#000" />
    <path d="m62.325 35.784-2.654 2.432 6.213 6.78 2.654-2.432-6.213-6.78Z" fill="#407BFF" />
    <path d="M59.755 38.212a2.568 2.568 0 1 0 0-5.137 2.568 2.568 0 0 0 0 5.137Z" fill="#407BFF" />
    <path opacity=".4" d="m58.988 35.564-1.453 1.367c-.205.254-3.78 5.324-.8 10.1 1.127-1.535 2.464-3.04 3.93-4.53-1.545-1.245-3.315-3.548-1.677-6.937Z" fill="#fff" />
    <path opacity=".2" d="m62.205 40.985 2.668-2.418.596.651-2.528 2.57-.736-.803Z" fill="#000" />
    <path opacity=".3" d="m57.535 36.931 3.629-3.435-.292-.163-3.501 3.266.164.333Z" fill="#000" />
    <path d="M93.325 33.079c.206.125 18.719 15.434 18.719 15.434s4.862-7.598-4.144-14.365c-9.007-6.768-14.575-1.07-14.575-1.07Z" fill="#407BFF" />
    <path d="M112.044 48.513c-.672.822-5.29-2.178-10.464-6.404-5.173-4.225-8.823-8.316-8.152-9.138.671-.822 5.41 1.937 10.583 6.163 5.174 4.225 8.704 8.557 8.033 9.38Z" fill="#407BFF" />
    <path opacity=".3" d="M112.044 48.513c-.672.822-5.29-2.178-10.464-6.404-5.173-4.225-8.823-8.316-8.152-9.138.671-.822 5.41 1.937 10.583 6.163 5.174 4.225 8.704 8.557 8.033 9.38Z" fill="#000" />
    <path d="m107.927 37.497-2.788-2.277-5.817 7.123 2.788 2.277 5.817-7.123Z" fill="#407BFF" />
    <path d="M108.064 37.483a2.568 2.568 0 1 1-.738-5.082 2.568 2.568 0 0 1 .738 5.082Z" fill="#407BFF" />
    <path opacity=".4" d="m107.663 34.171-1.561-1.241c-.28-.167-5.812-2.976-10.11.658 1.68.896 3.363 2.002 5.047 3.24 1.011-1.709 3.036-3.79 6.624-2.657Z" fill="#fff" />
    <path opacity=".2" d="m102.761 38.134 2.776 2.292-.558.684-2.906-2.133.688-.843Z" fill="#000" />
    <path opacity=".3" d="m106.101 32.93 3.922 3.097.119-.312-3.735-2.996-.306.21ZM65.59 44.676s1.975-1.753 2.739-2.34l-.25-.271-2.71 2.368.221.243ZM99.527 42.117s2.04 1.675 2.739 2.338l.23-.288-2.765-2.307-.204.257ZM26.439 49.965s15.501 2.1 18.76 4.387c3.26 2.288 9.898 11.254 9.898 11.254S46.953 57.006 43.693 55c-3.259-2.007-17.254-5.035-17.254-5.035Z" fill="#000" />
    <path opacity=".3" d="M32.778 54.24s-1.424 4.46 2.106 4.337c3.531-.124 4.956-1.673 4.956-1.673s-.991 4.088 1.672 4.026c2.664-.062 4.522-1.734 4.522-1.734s-3.84 3.276-5.698 2.506c-1.858-.771-1.072-3.435-1.072-3.435s-4.35 2.114-6.147.633c-1.797-1.481-1.446-2.16-.339-4.66ZM141.622 49.123s-15.501 2.1-18.761 4.387c-3.259 2.288-9.898 11.253-9.898 11.253s8.145-8.599 11.404-10.605c3.259-2.007 17.255-5.035 17.255-5.035Z" fill="#000" />
    <path opacity=".3" d="M135.283 53.398s1.424 4.46-2.106 4.336c-3.531-.123-4.956-1.672-4.956-1.672s.991 4.088-1.672 4.026c-2.664-.062-4.522-1.734-4.522-1.734s3.84 3.276 5.698 2.505c1.859-.77 1.072-3.434 1.072-3.434s4.351 2.114 6.147.633c1.797-1.482 1.446-2.16.339-4.66Z" fill="#000" />
    <path d="M74.904 37.453a26.963 26.963 0 0 1 15.49-.915M91.086 36.718l.78.22" stroke="#407BFF" stroke-width=".577" stroke-miterlimit="10" stroke-linecap="round" stroke-linejoin="round" />
  </g>
  <defs>
    <linearGradient id="b" x1="84.264" y1=".009" x2="84.264" y2="132.376" gradientUnits="userSpaceOnUse">
      <stop stop-color="#9EEDF8" />
      <stop offset="1" stop-color="#DFF4FB" />
    </linearGradient>
    <clipPath id="a">
      <rect x="-.004" y=".009" width="168.537" height="132.367" rx="19.239" fill="#fff" />
    </clipPath>
  </defs>
</svg>