<svg width="78" height="113" viewBox="0 0 78 113" fill="none" xmlns="http://www.w3.org/2000/svg">
  <g style="mix-blend-mode:luminosity">
    <path d="M0 0H45.2238V73.9348H0V0Z" fill="#525066" />
    <path d="M3.8986 3.11305H41.3252V63.0392H3.8986V3.11305Z" fill="#A5DFEC" />
    <path d="M14.8147 66.9305H30.4091V71.6H14.8147V66.9305Z" fill="#A5DFEC" />
    <path d="M28.3257 39.372C31.0697 38.6785 33.8593 40.3361 34.5546 43.0768L40.7616 67.5438C40.4142 66.1744 40.6553 64.7922 41.3274 63.6664C41.4449 63.4696 41.5743 63.2814 41.718 63.1033C42.3918 62.2529 43.3405 61.611 44.4747 61.3243C47.2186 60.6308 50.0087 62.2903 50.7039 65.0309L51.5725 68.4545C51.2246 67.0832 51.4662 65.7029 52.1383 64.5771C52.8104 63.4513 53.9136 62.5818 55.2855 62.235C58.0313 61.5411 60.8195 63.201 61.5148 65.9416L62.1082 68.2729C61.5088 65.9101 62.8707 63.4442 65.2285 62.8094C66.4399 62.4819 67.6644 62.6892 68.6612 63.2805C69.6355 63.8601 70.3913 64.8134 70.6924 66.0003L76.2 87.7102C76.4895 88.8514 76.6976 90.0092 76.8206 91.177C76.9454 92.3442 76.9851 93.5213 76.9424 94.696C76.8816 96.3667 76.9393 98.0367 77.1169 99.6958C77.294 101.353 77.5887 102.998 78 104.62L44.8418 113L43.5503 107.909C43.3414 107.086 42.9049 106.363 42.3114 105.804C41.7175 105.243 40.9671 104.847 40.1318 104.685C39.3271 104.529 38.2437 104.187 37.2243 103.829C35.3247 103.163 33.6456 101.984 32.3694 100.43L23.7947 89.9793C22.3252 88.1921 22.0408 85.7129 23.0666 83.6408L24.4035 80.9383C25.1795 79.3705 25.2482 77.5462 24.5943 75.9278C24.5159 75.7339 24.4508 75.5385 24.4012 75.3432C23.8041 72.9896 25.22 70.5294 27.6494 69.9154C27.9841 69.8308 28.3194 69.7713 28.6525 69.7338C29.364 69.6531 30.0689 69.677 30.7507 69.7941L24.6104 45.5901C24.2625 44.2188 24.5041 42.8385 25.178 41.7122C25.8506 40.5882 26.9538 39.7188 28.3257 39.372Z" fill="#FCD09F" />
    <path d="M28.6525 69.7338C29.364 69.6531 30.0689 69.677 30.7507 69.7941L35.4662 88.3818C34.9247 88.5186 34.3807 88.423 33.936 88.1584C33.493 87.8934 33.1498 87.4614 33.0127 86.9209L28.6525 69.7338Z" fill="#E2B991" />
  </g>
</svg>