<svg width="147" height="147" fill="none" xmlns="http://www.w3.org/2000/svg">
  <g filter="url(#a)">
    <path d="M42.888 97.91V47.889h3.23v50.023h-3.23Zm10.103-34.507c-.21-1.85-1.076-3.283-2.6-4.299-1.522-1.029-3.44-1.544-5.75-1.544-1.654 0-3.085.261-4.293.782-1.208.508-2.147 1.212-2.816 2.11-.657.886-.985 1.896-.985 3.03 0 .95.223 1.77.67 2.461a5.99 5.99 0 0 0 1.792 1.74c.748.455 1.549.84 2.402 1.152.854.3 1.674.547 2.462.743l3.939 1.016c1.287.312 2.606.736 3.958 1.27a15.9 15.9 0 0 1 3.762 2.11 10.131 10.131 0 0 1 2.796 3.244c.722 1.29 1.083 2.833 1.083 4.63 0 2.267-.59 4.28-1.772 6.038-1.169 1.76-2.869 3.147-5.1 4.163-2.22 1.016-4.904 1.524-8.055 1.524-3.02 0-5.633-.476-7.839-1.427-2.205-.95-3.932-2.299-5.18-4.044-1.246-1.76-1.936-3.843-2.067-6.253h6.105c.118 1.446.591 2.65 1.418 3.615.84.95 1.91 1.66 3.21 2.13 1.313.455 2.75.683 4.313.683 1.72 0 3.25-.267 4.589-.8 1.352-.548 2.416-1.303 3.19-2.267.775-.977 1.162-2.117 1.162-3.42 0-1.185-.341-2.156-1.024-2.911-.67-.756-1.582-1.381-2.737-1.876-1.143-.495-2.436-.932-3.88-1.31l-4.766-1.29c-3.23-.872-5.79-2.155-7.68-3.848-1.878-1.694-2.817-3.934-2.817-6.722 0-2.306.63-4.319 1.89-6.038 1.261-1.72 2.968-3.055 5.121-4.006 2.153-.964 4.582-1.446 7.287-1.446 2.73 0 5.14.476 7.228 1.427 2.1.95 3.755 2.26 4.962 3.927 1.208 1.655 1.838 3.556 1.891 5.706h-5.869Z" fill="#21B839" />
    <path d="M40.964 97.91v1.925H48.042V95.27c1.93-.258 3.7-.742 5.295-1.472 2.503-1.14 4.505-2.743 5.902-4.844 1.408-2.097 2.096-4.487 2.096-7.106 0-2.054-.413-3.933-1.324-5.565a12.057 12.057 0 0 0-3.32-3.845 17.826 17.826 0 0 0-4.214-2.365 32.147 32.147 0 0 0-4.198-1.347l-.237-.06V60.04c.47.18.893.4 1.273.657l.009.007c1.043.695 1.608 1.617 1.756 2.915l.194 1.707h9.557l-.048-1.971c-.061-2.52-.808-4.804-2.258-6.79-1.426-1.968-3.357-3.477-5.723-4.548-1.472-.67-3.062-1.123-4.76-1.37V45.963H40.964v4.777a18.054 18.054 0 0 0-4.253 1.29c-2.427 1.073-4.412 2.609-5.89 4.627-1.523 2.076-2.264 4.495-2.264 7.175 0 3.27 1.126 6.052 3.452 8.15l.005.005c2.174 1.947 5.03 3.346 8.461 4.273h.001l.488.132v9.45a9.488 9.488 0 0 1-.19-.063c-1.014-.368-1.797-.9-2.402-1.58-.52-.612-.862-1.413-.951-2.508l-.145-1.767h-9.91l.111 2.028c.149 2.728.938 5.172 2.42 7.261l.004.006c1.474 2.064 3.495 3.62 5.983 4.693 1.55.668 3.247 1.117 5.08 1.36v2.638Zm7.078-12.116v-7.358c.283.108.555.219.817.332l.007.003c.957.41 1.614.886 2.055 1.384l.006.007.007.006c.311.345.527.83.527 1.622 0 .887-.252 1.6-.742 2.22-.533.662-1.306 1.236-2.404 1.681-.09.036-.18.07-.273.103ZM39.076 61.6c.412-.552 1.014-1.04 1.888-1.428v6.387a11.325 11.325 0 0 1-.937-.51 4.064 4.064 0 0 1-1.201-1.16c-.212-.332-.355-.775-.355-1.408 0-.732.202-1.337.605-1.881Z" stroke="#0A480D" stroke-width="3.848" />
  </g>
  <g filter="url(#b)">
    <path d="M99.837 97.91V47.889h3.23v50.023h-3.23Zm10.103-34.507c-.21-1.85-1.077-3.283-2.6-4.299-1.523-1.029-3.44-1.544-5.75-1.544-1.655 0-3.086.261-4.294.782-1.208.508-2.146 1.212-2.816 2.11-.656.886-.985 1.896-.985 3.03 0 .95.224 1.77.67 2.461.46.69 1.057 1.27 1.792 1.74.749.455 1.55.84 2.403 1.152.853.3 1.674.547 2.462.743l3.938 1.016c1.287.312 2.606.736 3.959 1.27a15.894 15.894 0 0 1 3.761 2.11 10.127 10.127 0 0 1 2.797 3.244c.722 1.29 1.083 2.833 1.083 4.63 0 2.267-.591 4.28-1.772 6.038-1.169 1.76-2.869 3.147-5.101 4.163-2.219 1.016-4.904 1.524-8.055 1.524-3.02 0-5.632-.476-7.838-1.427-2.206-.95-3.932-2.299-5.18-4.044-1.247-1.76-1.936-3.843-2.067-6.253h6.105c.118 1.446.59 2.65 1.418 3.615.84.95 1.91 1.66 3.21 2.13 1.313.455 2.75.683 4.313.683 1.72 0 3.249-.267 4.588-.8 1.353-.548 2.416-1.303 3.191-2.267.774-.977 1.162-2.117 1.162-3.42 0-1.185-.342-2.156-1.024-2.911-.67-.756-1.582-1.381-2.738-1.876-1.142-.495-2.435-.932-3.88-1.31l-4.765-1.29c-3.23-.872-5.79-2.155-7.681-3.848-1.877-1.694-2.816-3.934-2.816-6.722 0-2.306.63-4.319 1.89-6.038 1.26-1.72 2.968-3.055 5.12-4.006 2.154-.964 4.583-1.446 7.287-1.446 2.731 0 5.141.476 7.228 1.427 2.101.95 3.755 2.26 4.963 3.927 1.208 1.655 1.838 3.556 1.891 5.706h-5.869Z" fill="#21B839" />
    <path d="M97.913 97.91v1.925H104.99V95.27c1.929-.258 3.7-.742 5.295-1.472 2.503-1.14 4.504-2.743 5.901-4.844 1.408-2.097 2.097-4.487 2.097-7.106 0-2.054-.413-3.933-1.325-5.565a12.06 12.06 0 0 0-3.319-3.845 17.821 17.821 0 0 0-4.215-2.365 32.149 32.149 0 0 0-4.197-1.347l-.237-.06V60.04c.47.18.893.4 1.272.657l.009.007c1.043.695 1.609 1.617 1.756 2.915l.194 1.707h9.558l-.048-1.971c-.062-2.52-.809-4.804-2.258-6.79-1.426-1.968-3.357-3.477-5.723-4.548-1.472-.67-3.063-1.123-4.76-1.37V45.963H97.913v4.777a18.056 18.056 0 0 0-4.254 1.29c-2.427 1.073-4.412 2.609-5.89 4.627-1.523 2.076-2.263 4.495-2.263 7.175 0 3.27 1.125 6.052 3.451 8.15l.005.005c2.174 1.947 5.031 3.346 8.462 4.273l.489.132v9.45a9.488 9.488 0 0 1-.191-.063c-1.013-.368-1.797-.9-2.401-1.58-.521-.612-.862-1.413-.952-2.508l-.144-1.767h-9.91l.11 2.028c.15 2.728.938 5.172 2.42 7.261l.004.006c1.475 2.064 3.495 3.62 5.983 4.693 1.55.668 3.248 1.117 5.08 1.36v2.638Zm7.078-12.116v-7.358c.282.108.554.219.816.332l.007.003c.957.41 1.615.886 2.056 1.384l.006.007.006.006c.312.345.528.83.528 1.622 0 .887-.252 1.6-.742 2.22-.534.662-1.306 1.236-2.404 1.681a8.78 8.78 0 0 1-.273.103ZM96.024 61.6c.412-.552 1.015-1.04 1.889-1.428v6.387a11.325 11.325 0 0 1-.937-.51 4.063 4.063 0 0 1-1.202-1.16c-.211-.332-.355-.775-.355-1.408 0-.732.203-1.337.605-1.881Z" stroke="#0A480D" stroke-width="3.848" />
  </g>
  <g filter="url(#c)">
    <path d="M71.102 114.771V30.817h5.378v83.954h-5.378Zm16.823-57.915c-.35-3.104-1.793-5.51-4.329-7.215-2.536-1.727-5.728-2.59-9.576-2.59-2.754 0-5.138.437-7.149 1.311-2.011.853-3.574 2.034-4.69 3.542-1.093 1.487-1.64 3.181-1.64 5.083 0 1.596.373 2.974 1.116 4.132a10.009 10.009 0 0 0 2.984 2.92 22.55 22.55 0 0 0 4.001 1.934c1.421.503 2.788.918 4.1 1.246l6.558 1.706a50.02 50.02 0 0 1 6.592 2.131 26.424 26.424 0 0 1 6.264 3.542 16.968 16.968 0 0 1 4.656 5.444c1.203 2.164 1.804 4.755 1.804 7.772 0 3.804-.984 7.182-2.951 10.134-1.946 2.951-4.777 5.279-8.494 6.985-3.695 1.705-8.166 2.558-13.413 2.558-5.028 0-9.38-.798-13.052-2.394-3.673-1.596-6.548-3.859-8.625-6.789-2.077-2.951-3.225-6.45-3.444-10.494h10.167c.197 2.427.983 4.45 2.36 6.067 1.4 1.596 3.182 2.787 5.346 3.575 2.187.765 4.58 1.147 7.182 1.147 2.864 0 5.411-.448 7.642-1.344 2.251-.918 4.022-2.186 5.312-3.804 1.29-1.64 1.935-3.553 1.935-5.74 0-1.989-.568-3.618-1.705-4.886-1.115-1.268-2.635-2.317-4.559-3.148-1.902-.83-4.055-1.563-6.46-2.197l-7.936-2.165c-5.379-1.464-9.642-3.618-12.79-6.46-3.127-2.842-4.69-6.603-4.69-11.281 0-3.87 1.05-7.248 3.148-10.134 2.1-2.886 4.941-5.127 8.527-6.723 3.585-1.618 7.63-2.426 12.134-2.426 4.547 0 8.56.797 12.035 2.393 3.499 1.596 6.253 3.794 8.265 6.592 2.011 2.777 3.06 5.969 3.148 9.576h-9.773Z" fill="#21B839" />
    <path d="M69.178 114.771v1.924H78.404V109.181c3.548-.373 6.746-1.197 9.571-2.501 3.99-1.83 7.12-4.375 9.293-7.67 2.192-3.29 3.272-7.043 3.272-11.196 0-3.27-.652-6.195-2.042-8.7a18.891 18.891 0 0 0-5.177-6.047 28.348 28.348 0 0 0-6.718-3.798 51.955 51.955 0 0 0-6.832-2.21l-1.367-.355v-17.25c1.576.38 2.939.98 4.11 1.778l.009.006c2.055 1.382 3.202 3.276 3.49 5.834l.193 1.708H99.669l-.048-1.97c-.096-3.974-1.26-7.547-3.51-10.655-2.229-3.1-5.26-5.498-9.025-7.216-2.642-1.213-5.541-1.987-8.682-2.342V28.893H69.178V36.721c-2.79.4-5.41 1.145-7.849 2.245-3.86 1.719-6.98 4.162-9.296 7.346-2.358 3.243-3.516 7.026-3.516 11.266 0 5.155 1.746 9.456 5.32 12.704l.005.005c3.43 3.098 7.992 5.368 13.573 6.889l1.763.48v18.558a17.523 17.523 0 0 1-2.02-.57c-1.877-.685-3.373-1.696-4.537-3.02-1.073-1.266-1.731-2.886-1.9-4.965l-.143-1.769H46.607l.11 2.028c.235 4.36 1.481 8.216 3.79 11.497l.004.006c2.303 3.248 5.471 5.721 9.428 7.44 2.767 1.202 5.852 1.97 9.239 2.324v5.586Zm0-50.652a20.59 20.59 0 0 1-3.513-1.71 8.082 8.082 0 0 1-2.396-2.339c-.51-.8-.803-1.8-.803-3.083 0-1.504.423-2.796 1.264-3.941.879-1.188 2.146-2.172 3.892-2.912l.008-.004.008-.003c.482-.21.995-.392 1.54-.547v14.54Zm9.226 32.05V80.246c1.125.375 2.172.775 3.143 1.2l.008.002c1.724.745 2.988 1.644 3.876 2.653l.006.007.006.007c.768.856 1.214 2.001 1.214 3.602 0 1.774-.512 3.262-1.519 4.544-1.05 1.316-2.53 2.4-4.527 3.216a15.41 15.41 0 0 1-2.207.694Z" stroke="#0A480D" stroke-width="3.848" />
  </g>
  <path d="M139.447 73.284c0 36.552-29.631 66.183-66.183 66.183-19.035 0-36.185-8.027-48.268-20.901C13.88 106.722 7.08 90.805 7.08 73.284c0-36.552 29.632-66.183 66.184-66.183 17.866 0 34.066 7.07 45.979 18.58 12.466 12.042 20.204 28.913 20.204 47.603Z" stroke="red" stroke-width="13.852" />
  <defs>
    <filter id="a" x="25.335" y="44.04" width="47.929" height="66.183" filterUnits="userSpaceOnUse" color-interpolation-filters="sRGB">
      <feFlood flood-opacity="0" result="BackgroundImageFix" />
      <feColorMatrix in="SourceAlpha" values="0 0 0 0 0 0 0 0 0 0 0 0 0 0 0 0 0 0 127 0" result="hardAlpha" />
      <feOffset dx="6.926" dy="5.387" />
      <feGaussianBlur stdDeviation="1.539" />
      <feComposite in2="hardAlpha" operator="out" />
      <feColorMatrix values="0 0 0 0 0 0 0 0 0 0 0 0 0 0 0 0 0 0 0.25 0" />
      <feBlend in2="BackgroundImageFix" result="effect1_dropShadow_49_3282" />
      <feBlend in="SourceGraphic" in2="effect1_dropShadow_49_3282" result="shape" />
    </filter>
    <filter id="b" x="82.283" y="44.04" width="47.929" height="66.183" filterUnits="userSpaceOnUse" color-interpolation-filters="sRGB">
      <feFlood flood-opacity="0" result="BackgroundImageFix" />
      <feColorMatrix in="SourceAlpha" values="0 0 0 0 0 0 0 0 0 0 0 0 0 0 0 0 0 0 127 0" result="hardAlpha" />
      <feOffset dx="6.926" dy="5.387" />
      <feGaussianBlur stdDeviation="1.539" />
      <feComposite in2="hardAlpha" operator="out" />
      <feColorMatrix values="0 0 0 0 0 0 0 0 0 0 0 0 0 0 0 0 0 0 0.25 0" />
      <feBlend in2="BackgroundImageFix" result="effect1_dropShadow_49_3282" />
      <feBlend in="SourceGraphic" in2="effect1_dropShadow_49_3282" result="shape" />
    </filter>
    <filter id="c" x="44.576" y="26.97" width="67.892" height="100.115" filterUnits="userSpaceOnUse" color-interpolation-filters="sRGB">
      <feFlood flood-opacity="0" result="BackgroundImageFix" />
      <feColorMatrix in="SourceAlpha" values="0 0 0 0 0 0 0 0 0 0 0 0 0 0 0 0 0 0 127 0" result="hardAlpha" />
      <feOffset dx="6.926" dy="5.387" />
      <feGaussianBlur stdDeviation="1.539" />
      <feComposite in2="hardAlpha" operator="out" />
      <feColorMatrix values="0 0 0 0 0 0 0 0 0 0 0 0 0 0 0 0 0 0 0.25 0" />
      <feBlend in2="BackgroundImageFix" result="effect1_dropShadow_49_3282" />
      <feBlend in="SourceGraphic" in2="effect1_dropShadow_49_3282" result="shape" />
    </filter>
  </defs>
</svg>