<svg width="133" height="72" fill="none" xmlns="http://www.w3.org/2000/svg">
  <path d="M90.837 22.146a3.705 3.705 0 0 0-3.699 3.697v3.873a3.706 3.706 0 0 0 3.698 3.697 3.706 3.706 0 0 0 3.699-3.697v-3.873c-.022-2.046-1.673-3.697-3.698-3.697ZM90.837 38.188a3.705 3.705 0 0 0-3.699 3.697v3.873a3.706 3.706 0 0 0 3.698 3.697 3.706 3.706 0 0 0 3.699-3.697v-3.873c-.022-2.046-1.673-3.697-3.698-3.697ZM77.167 32.84H19.032a3.706 3.706 0 0 0-3.698 3.698 3.691 3.691 0 0 0 3.698 3.697h58.135a3.706 3.706 0 0 0 3.698-3.697 3.705 3.705 0 0 0-3.698-3.697ZM77.167 49.256H19.032a3.706 3.706 0 0 0-3.698 3.697 3.706 3.706 0 0 0 3.698 3.697h58.135a3.706 3.706 0 0 0 3.698-3.697 3.706 3.706 0 0 0-3.698-3.697ZM19.407 26.57h2.773V16.425h3.5v-2.399h-9.95v2.4h3.677V26.57ZM30.479 14.027h-2.774v12.542h2.774V14.027ZM49.673 23.07l1.3-1.474 3.697 4.973h3.324c-.55-.748-4.622-6.447-4.974-7.02l4.974-5.544h-3.5l-4.798 5.17v-5.17h-2.774v12.542h2.774V23.07h-.023ZM68.868 24.17h-6.45v-2.596h5.702v-2.398h-5.702V16.6h6.274v-2.574h-9.047V26.57h9.223v-2.4ZM74.04 26.57h2.752V16.425h3.523v-2.399h-9.972v2.4h3.698V26.57ZM39.526 26.745c2.025 0 3.874-.748 5.173-2.398l-1.65-2.024c-.925 1.1-2.026 1.65-3.325 1.65-2.4 0-3.874-1.848-3.874-3.873 0-2.024 1.475-3.873 3.874-3.873 1.299 0 2.4.55 3.324 1.65l1.65-2.024c-1.298-1.298-3.147-2.024-5.172-2.024-4.425 0-6.648 3.323-6.648 6.447 0 3.125 2.223 6.47 6.648 6.47Z" fill="#194F82" />
  <path d="M129.204.362H3.734A3.705 3.705 0 0 0 .036 4.058v63.287a3.706 3.706 0 0 0 3.698 3.697h125.47a3.705 3.705 0 0 0 3.698-3.697V4.058a3.705 3.705 0 0 0-3.698-3.696Zm-3.676 24.535h-16.62a3.705 3.705 0 0 0-3.698 3.697 3.706 3.706 0 0 0 3.698 3.697h16.62v7.02h-5.548a3.706 3.706 0 0 0-3.698 3.697 3.706 3.706 0 0 0 3.698 3.697h5.548v17.163H93.786c.374-.55.55-1.298.55-2.024V57.97a3.706 3.706 0 0 0-3.698-3.697 3.706 3.706 0 0 0-3.698 3.697v3.873c0 .748.176 1.474.55 2.024H7.41V7.755h80.279c-.374.55-.55 1.299-.55 2.025v3.873a3.706 3.706 0 0 0 3.698 3.697 3.706 3.706 0 0 0 3.698-3.697V9.78c0-.748-.176-1.474-.55-2.024h31.741v17.163h-.198v-.022Z" fill="#194F82" />
</svg>