<svg width="118" height="111" fill="none" xmlns="http://www.w3.org/2000/svg">
  <path d="M49 25c0 13-24 62-24 62S1 38 1 25a24 24 0 0 1 48 0Z" fill="url(#a)" />
  <path d="M33 25a8 8 0 1 1-17 0 8 8 0 0 1 17 0Z" fill="#fff" />
  <path d="M117 16c0 8-15 39-15 39S86 24 86 16s7-15 16-15c8 0 15 7 15 15Z" fill="url(#b)" />
  <path d="M107 16c0 3-2 5-5 5s-6-2-6-5 3-5 6-5 5 2 5 5Z" fill="#fff" />
  <path stroke="#726F6F" stroke-width=".8" stroke-dasharray="1.54 1.54" d="m25 89 77-32" />
  <path d="m17 110 3-17h7l3 1 1 1v3a4 4 0 0 1 0 1l-2 2a5 5 0 0 1-1 0 3 3 0 0 1 1 1l2 1v2a5 5 0 0 1-1 3l-2 2H17Zm4-3h5l1-2v-1l-1-1h-4l-1 4Zm1-7h4a3 3 0 0 0 1-1l1-1-1-1-1-1h-3l-1 4Zm77-31h-2l4-9h3l1 9h-2l-1-7-3 7Zm0-3h5v1h-5v-1Z" fill="#000" />
  <defs>
    <linearGradient id="a" x1="24.8" y1=".8" x2="24.8" y2="87.4" gradientUnits="userSpaceOnUse">
      <stop stop-color="#D90000" />
      <stop offset="1" stop-color="#730000" />
    </linearGradient>
    <linearGradient id="b" x1="101.7" y1=".8" x2="101.7" y2="55.4" gradientUnits="userSpaceOnUse">
      <stop stop-color="#0E4686" />
      <stop offset="1" stop-color="#031120" />
    </linearGradient>
  </defs>
</svg>