<svg width="254" height="87" fill="none" xmlns="http://www.w3.org/2000/svg">
  <g clip-path="url(#a)" filter="url(#b)">
    <path d="M232 72H9c-5 0-9-4-9-9V10c0-5 4-9 9-9h223c5 0 9 4 9 9v53c0 5-4 9-9 9Z" fill="#000" />
    <path d="M232 2c4 0 8 4 8 8v53c0 4-4 8-8 8H9c-4 0-8-4-8-8V10c0-4 4-8 8-8h223Zm0-1H9c-5 0-9 4-9 9v53c0 5 4 9 9 9h223c5 0 9-4 9-9V10c0-5-4-9-9-9Z" fill="#A6A6A6" />
    <path d="m85 19-2 4-4 1-3-1c-2-1-2-3-2-4 0-2 0-3 2-4a5 5 0 0 1 6-1l1 1-1 1-3-1-2 1-2 3 2 3 2 1 3-1 1-2h-4v-2h6v1Zm8-4h-5v3h4v1h-4v4h5v1h-6V13h6v2Zm6 9h-2v-9h-3v-2h8v2h-3v9Zm8 0V13h1v11h-1Zm7 0h-1v-9h-3v-2h7v2h-3v9Zm17-1-4 1-3-1c-2-1-2-3-2-4 0-2 0-3 2-4l3-2 4 2 2 4-2 4Zm-6-1 2 1 3-1 2-3c0-2-1-3-2-3 0-1-1-2-3-2l-2 2c-1 0-2 1-2 3l2 3Zm10 2V13h2l5 9v-9h1v11h-1l-6-9v9h-1Z" fill="#fff" stroke="#fff" stroke-width="1.2" stroke-miterlimit="10" />
    <path d="M122 40c-5 0-8 3-8 7 0 5 3 8 8 8 4 0 7-3 7-8 0-4-3-7-7-7Zm0 12c-3 0-5-2-5-5 0-2 2-4 5-4 2 0 4 1 4 4s-2 5-4 5Zm-17-12c-4 0-8 3-8 7 0 5 4 8 8 8s8-3 8-8c0-4-4-7-8-7Zm0 12c-2 0-4-2-4-5 0-2 2-4 4-4s4 1 4 4-2 5-4 5ZM85 42v3h8l-2 4c-1 1-3 3-6 3-5 0-8-4-8-9a8 8 0 0 1 14-6l2-2c-2-2-4-4-8-4-6 0-12 6-12 12 0 7 6 12 12 12 4 0 6-1 9-4 2-2 2-5 2-7v-2H85Zm81 3c-1-2-2-5-6-5s-7 3-7 7c0 5 3 8 7 8s6-2 6-3l-2-2-4 2-4-2 11-5h-1Zm-10 2c0-3 2-4 4-4l3 1-7 3Zm-9 7h4V32h-4v22Zm-5-13-4-1c-4 0-7 3-7 7s3 8 7 8l4-2v1c0 3-2 4-4 4l-4-2-3 1c1 2 3 4 7 4s7-2 7-7V40h-3v1Zm-4 11c-2 0-4-2-4-5 0-2 2-4 4-4s4 2 4 4c0 3-2 5-4 5Zm44-20h-8v22h3v-8h5c3 0 7-3 7-7s-4-7-7-7Zm0 11h-5v-8h5c2 0 4 2 4 4s-2 4-4 4Zm20-3c-2 0-5 1-5 3l3 1 3-1 3 2v1l-3-1c-3 0-7 1-7 5 0 3 3 5 6 5l4-2v1h4v-8c-1-4-4-6-8-6Zm0 12-3-2c0-2 2-2 4-2h3c0 2-2 4-4 4Zm19-12-4 10-4-10h-4l6 14-3 7h3l9-21h-3Zm-30 14h3V32h-3v22Z" fill="#fff" />
    <path d="m19 14-1 3v39l1 3 22-22v-1L19 14Z" fill="url(#c)" />
    <path d="m48 44-7-7v-1l7-7 9 5c3 2 3 4 0 5l-9 5Z" fill="url(#d)" />
    <path d="m48 44-7-7-22 22h3l26-15Z" fill="url(#e)" />
    <path d="M48 29 22 14h-3l22 23 7-8Z" fill="url(#f)" />
    <path opacity=".2" d="M48 44 22 58h-3v1h3l26-15Z" fill="#000" />
    <path opacity=".1" d="m19 58-1-2 1 3v-1Zm38-19-9 5 9-5 2-2-2 2Z" fill="#000" />
    <path opacity=".3" d="m22 14 35 20 2 3-2-3-35-20c-2-1-4 0-4 3 0-3 2-4 4-3Z" fill="#fff" />
  </g>
  <defs>
    <linearGradient id="c" x1="38.9" y1="16.3" x2="9" y2="46.3" gradientUnits="userSpaceOnUse">
      <stop stop-color="#00A0FF" />
      <stop offset="0" stop-color="#00A1FF" />
      <stop offset=".3" stop-color="#00BEFF" />
      <stop offset=".5" stop-color="#00D2FF" />
      <stop offset=".8" stop-color="#00DFFF" />
      <stop offset="1" stop-color="#00E3FF" />
    </linearGradient>
    <linearGradient id="d" x1="60.4" y1="36.5" x2="17.2" y2="36.5" gradientUnits="userSpaceOnUse">
      <stop stop-color="#FFE000" />
      <stop offset=".4" stop-color="#FFBD00" />
      <stop offset=".8" stop-color="orange" />
      <stop offset="1" stop-color="#FF9C00" />
    </linearGradient>
    <linearGradient id="e" x1="44.3" y1="40.6" x2="3.7" y2="81.2" gradientUnits="userSpaceOnUse">
      <stop stop-color="#FF3A44" />
      <stop offset="1" stop-color="#C31162" />
    </linearGradient>
    <linearGradient id="f" x1="13" y1="1.1" x2="31.2" y2="19.3" gradientUnits="userSpaceOnUse">
      <stop stop-color="#32A071" />
      <stop offset=".1" stop-color="#2DA771" />
      <stop offset=".5" stop-color="#15CF74" />
      <stop offset=".8" stop-color="#06E775" />
      <stop offset="1" stop-color="#00F076" />
    </linearGradient>
    <clipPath id="a">
      <path fill="#fff" d="M0 0h241v73H0z" />
    </clipPath>
    <filter id="b" x="0" y="0" width="254" height="87" filterUnits="userSpaceOnUse" color-interpolation-filters="sRGB">
      <feFlood flood-opacity="0" result="BackgroundImageFix" />
      <feColorMatrix in="SourceAlpha" values="0 0 0 0 0 0 0 0 0 0 0 0 0 0 0 0 0 0 127 0" result="hardAlpha" />
      <feOffset dx="9" dy="10" />
      <feGaussianBlur stdDeviation="2" />
      <feComposite in2="hardAlpha" operator="out" />
      <feColorMatrix values="0 0 0 0 0 0 0 0 0 0 0 0 0 0 0 0 0 0 0.25 0" />
      <feBlend in2="BackgroundImageFix" result="effect1_dropShadow_20_165" />
      <feBlend in="SourceGraphic" in2="effect1_dropShadow_20_165" result="shape" />
    </filter>
  </defs>
</svg>