<svg width="256" height="87" fill="none" xmlns="http://www.w3.org/2000/svg">
  <g clip-path="url(#a)" filter="url(#b)">
    <path d="M239 64a7 7 0 0 1-6 7H8a7 7 0 0 1-6-7V9a7 7 0 0 1 6-7h225a7 7 0 0 1 6 7v55Z" fill="#fff" />
    <path d="M233 72H8a8 8 0 0 1-8-8V9a8 8 0 0 1 8-8h225a8 8 0 0 1 8 8v55c0 4-4 8-8 8Z" fill="#A6A6A6" />
    <path d="M239 64a7 7 0 0 1-6 7H8a7 7 0 0 1-6-7V9a7 7 0 0 1 6-7h225a7 7 0 0 1 6 7v55Z" fill="#000" />
    <path d="M54 36c0-6 5-8 5-9-3-3-7-4-9-4l-8 2-8-2c-4 0-7 2-9 6-4 7-1 17 3 23 2 2 4 6 7 5l7-1 8 1c3 0 5-2 7-5l3-7s-6-2-6-9Zm-6-17c2-2 3-4 2-7-2 0-5 1-6 3-2 2-3 5-3 7 3 1 5-1 7-3Z" fill="#fff" />
    <path d="M233 1H113l47 71h73a8 8 0 0 0 8-8V9a8 8 0 0 0-8-8Z" fill="url(#c)" />
    <path d="M96 57h-4l-2-7h-8l-2 7h-4l7-24h5l8 24Zm-7-10-2-6-1-5-1 5-2 6h6Zm27 1c0 3-1 5-3 7-1 2-3 2-5 2s-4 0-5-2v9h-4V40h3l1 3c1-2 3-3 5-3s4 0 6 2l2 6Zm-4 0-1-4-4-1-2 1-2 2v4l1 3 3 1 3-1 2-5Zm23 0-2 7c-2 2-3 2-5 2-3 0-4 0-5-2v9h-4V40h3v3l6-3c2 0 4 0 5 2 2 2 2 4 2 6Zm-4 0-1-4-3-1-3 1-1 2v4l1 3 3 1 3-1 1-5Zm26 2c0 2 0 4-2 5-1 2-4 2-6 2l-6-1v-3l6 1 3-1 1-2-1-3-3-2c-4-1-6-3-6-6l2-5 6-2 5 1-1 3-4-1-3 1-1 2 1 3 3 1 5 3 1 4Zm13-7h-4v8c0 2 0 3 2 3h2v3h-3l-4-1-1-5v-8h-3v-3h3v-3l4-1v4h4v3Zm19 5-2 7c-2 2-4 2-7 2-2 0-4 0-6-2l-2-6 2-7c2-2 4-2 7-2 2 0 4 0 6 2l2 6Zm-4 0-1-4-4-2-3 2-1 5 1 4 3 2 4-2 1-5Zm16-5h-1l-3 2-1 3v9h-4V40h3v3h1l2-3h3v3Zm17 5v1h-11l1 4 4 1h5v2l-5 1c-3 0-5 0-7-2l-2-6 2-7c2-2 4-2 6-2 3 0 4 0 6 2l1 6Zm-3-1-1-3-3-2-3 2-1 3h8ZM81 25h-3V13h3c5 0 7 2 7 6s-3 6-7 6Zm0-11-1 1v8h1c3 0 5-1 5-4s-2-5-5-5Zm13 11c-3 0-4-2-4-4 0-3 1-5 4-5 2 0 4 2 4 5 0 2-2 4-4 4Zm0-7c-1 0-2 1-2 3l2 3 2-3c0-2-1-3-2-3Zm18-2-2 9h-2l-1-4-1-3-1 3-1 4h-2l-2-9h2l1 4v3l1-3 1-4h2l1 4 1 3v-3l1-4h2Zm10 9h-2v-5c0-2-1-2-2-2l-2 2v5h-1v-6l-1-3h2v2l3-2c2 0 3 2 3 4v5Zm5 0h-2V12h2v13Zm7 0c-3 0-4-2-4-4 0-3 1-5 4-5 2 0 4 2 4 5 0 2-2 4-4 4Zm0-7c-1 0-2 1-2 3l2 3 2-3c0-2-1-3-2-3Zm11 7v-1l-2 1c-2 0-3-1-3-3s2-3 5-3l-2-1h-2v-1l3-1c2 0 3 1 3 4v5h-2Zm0-4-3 1 1 2 2-2v-1Zm11 4v-2l-3 2c-2 0-3-2-3-4 0-3 1-5 3-5l3 1v-5h2v13h-2Zm0-5-2-2c-2 0-2 1-2 3 0 1 0 2 2 2l2-2v-1Zm14 5c-3 0-5-2-5-4 0-3 2-5 5-5 2 0 4 2 4 5 0 2-2 4-4 4Zm0-7c-2 0-3 1-3 3 0 1 1 3 3 3l2-3c0-2-1-3-2-3Zm14 7h-2v-5c0-2-1-2-2-2l-2 2v5h-1v-6l-1-3h2v2l3-2c2 0 3 2 3 4v5Zm12-7h-2v4l1 1h1v2h-1c-2 0-2-1-2-3v-4h-2v-2h2v-1l1-1v2h2v2Zm10 7h-2v-5l-1-2c-1 0-2 0-2 2v5h-2V12h2v6l2-2c2 0 3 2 3 4v5Zm10-4h-5c0 2 1 3 3 3l2-1v1l-3 1c-2 0-4-2-4-4 0-3 2-5 4-5s4 2 4 4l-1 1Zm-1-1c0-2-1-3-2-3s-2 1-2 3h4Z" fill="#fff" />
  </g>
  <defs>
    <linearGradient id="c" x1="176.8" y1="72.4" x2="176.8" y2="-185.2" gradientUnits="userSpaceOnUse">
      <stop stop-color="#1A1A1A" stop-opacity=".1" />
      <stop offset=".1" stop-color="#212121" stop-opacity=".2" />
      <stop offset=".3" stop-color="#353535" stop-opacity=".2" />
      <stop offset=".5" stop-color="#575757" stop-opacity=".3" />
      <stop offset=".8" stop-color="#858585" stop-opacity=".4" />
      <stop offset="1" stop-color="#B3B3B3" stop-opacity=".5" />
    </linearGradient>
    <clipPath id="a">
      <path fill="#fff" d="M0 0h242v73H0z" />
    </clipPath>
    <filter id="b" x="0" y="0" width="256" height="87" filterUnits="userSpaceOnUse" color-interpolation-filters="sRGB">
      <feFlood flood-opacity="0" result="BackgroundImageFix" />
      <feColorMatrix in="SourceAlpha" values="0 0 0 0 0 0 0 0 0 0 0 0 0 0 0 0 0 0 127 0" result="hardAlpha" />
      <feOffset dx="10" dy="10" />
      <feGaussianBlur stdDeviation="2" />
      <feComposite in2="hardAlpha" operator="out" />
      <feColorMatrix values="0 0 0 0 0 0 0 0 0 0 0 0 0 0 0 0 0 0 0.25 0" />
      <feBlend in2="BackgroundImageFix" result="effect1_dropShadow_20_178" />
      <feBlend in="SourceGraphic" in2="effect1_dropShadow_20_178" result="shape" />
    </filter>
  </defs>
</svg>