<svg width="151" height="118" fill="none" xmlns="http://www.w3.org/2000/svg">
  <path d="M117 59v4a59 59 0 0 1-17 38 58 58 0 0 1-37 17h-8a58 58 0 0 1-37-17A59 59 0 0 1 1 63v-8a59 59 0 0 1 17-37A58 58 0 0 1 55 1h8a58 58 0 0 1 37 17 59 59 0 0 1 17 37v4Z" fill="#D90000" />
  <path d="M63 109v9h-8v-9l1-3a4 4 0 0 1 6 0 4 4 0 0 1 1 3Zm54-50v4h-8a4 4 0 0 1-3-1 4 4 0 0 1 0-6 4 4 0 0 1 3-1h8v4Z" fill="#0D47A1" />
  <path d="m13 59-1 3a4 4 0 0 1-3 1H1v-8h8l3 1a4 4 0 0 1 1 3Z" fill="#304046" />
  <path d="M63 1v8a4 4 0 0 1-1 3 4 4 0 0 1-3 1l-3-1a4 4 0 0 1-1-3V1h8Zm-4 62a4 4 0 0 1-2 0 4 4 0 0 1-2-2 4 4 0 0 1 1-4l25-30a4 4 0 0 1 2-1 4 4 0 0 1 4 1 4 4 0 0 1 1 3 4 4 0 0 1-1 3L62 62a4 4 0 0 1-3 1Z" fill="#0D47A1" />
  <path d="M59 63H38l-3-1a4 4 0 0 1 0-6 4 4 0 0 1 3-1h21l3 1a4 4 0 0 1 0 6 4 4 0 0 1-3 1Z" fill="#0D47A1" />
  <path d="M55 1a58 58 0 0 0-37 17A59 59 0 0 0 1 55v8a59 59 0 0 0 17 38 58 58 0 0 0 37 17h4V1h-4Z" fill="#F72D2D" />
  <path d="M55 109v9h4v-13l-3 1a4 4 0 0 0-1 3ZM13 59l-1 3a4 4 0 0 1-3 1H1v-8h8l3 1a4 4 0 0 1 1 3ZM55 1v8a4 4 0 0 0 1 3 4 4 0 0 0 3 1V1h-4Zm1 56a4 4 0 0 0-1 4 4 4 0 0 0 2 2 4 4 0 0 0 2 0V53l-3 4Z" fill="#1565C0" />
  <path d="m38 55-3 1a4 4 0 0 0 0 6 4 4 0 0 0 3 1h21v-8H38Z" fill="#1565C0" />
  <path d="M151 71c-1-13-9-24-21-27v21a11 11 0 0 1 8 11 11 11 0 0 1-13 11 18 18 0 0 1-1 3 17 17 0 0 1-8 7l-5 2a4 4 0 0 1-4 2h-5a4 4 0 0 1-3-4c0-2 1-3 3-3h5l3 1c3 0 6-1 8-3 2-1 3-4 4-6a11 11 0 0 1-6-10c0-5 3-9 8-11V42a30 30 0 0 0-3 0c-17 0-30 14-30 30l-7 15a3 3 0 0 0-1 3 3 3 0 0 0 2 2l5 1 3 14c1 4 3 5 6 5l8-2v8h32v-12c0-4 1-9 5-13 6-7 7-16 7-22Z" fill="#0E4686" />
  <path d="M151 71c-1-13-9-24-21-27v21a11 11 0 0 1 8 11 11 11 0 0 1-13 11 18 18 0 0 1-1 3 17 17 0 0 1-8 7l-5 2a4 4 0 0 1-4 2h-5a4 4 0 0 1-3-4c0-2 1-3 3-3h5l3 1c3 0 6-1 8-3 2-1 3-4 4-6a11 11 0 0 1-6-10c0-5 3-9 8-11V42a30 30 0 0 0-3 0c-17 0-30 14-30 30l-7 15a3 3 0 0 0-1 3 3 3 0 0 0 2 2l5 1 3 14c1 4 3 5 6 5l8-2v8h32v-12c0-4 1-9 5-13 6-7 7-16 7-22Z" fill="#000" fill-opacity=".2" />
</svg>