<svg width="151" height="118" fill="none" xmlns="http://www.w3.org/2000/svg">
  <path d="M117.053 59.275v4.178a58.628 58.628 0 0 1-16.9 37.319 58.039 58.039 0 0 1-37.12 16.991h-8.311a58.038 58.038 0 0 1-37.12-16.991 58.628 58.628 0 0 1-16.9-37.32v-8.355a58.627 58.627 0 0 1 16.9-37.318A58.038 58.038 0 0 1 54.723.787h8.311a58.039 58.039 0 0 1 37.12 16.992 58.626 58.626 0 0 1 16.9 37.319v4.177Z" fill="#D90000" />
  <path d="M63.033 109.407v8.356h-8.311v-8.356c0-1.107.438-2.17 1.218-2.954a4.145 4.145 0 0 1 5.877 0 4.192 4.192 0 0 1 1.216 2.954ZM117.053 59.275v4.178h-8.311a4.144 4.144 0 0 1-2.938-1.224 4.19 4.19 0 0 1 0-5.908 4.144 4.144 0 0 1 2.938-1.224h8.311v4.178Z" fill="#0D47A1" />
  <path d="M13.169 59.275c0 1.108-.438 2.17-1.217 2.954a4.145 4.145 0 0 1-2.939 1.224H.703v-8.356h8.31c1.102 0 2.16.44 2.939 1.224a4.189 4.189 0 0 1 1.217 2.954Z" fill="#304046" />
  <path d="M63.033.787v8.356a4.19 4.19 0 0 1-1.217 2.954 4.144 4.144 0 0 1-2.938 1.224c-1.102 0-2.16-.44-2.938-1.224a4.19 4.19 0 0 1-1.218-2.954V.787h8.311ZM58.878 63.453a4.14 4.14 0 0 1-2.241-.66 4.17 4.17 0 0 1-1.534-1.77 4.196 4.196 0 0 1 .617-4.463l24.932-29.244a4.16 4.16 0 0 1 2.835-1.45 4.136 4.136 0 0 1 3.024.99 4.179 4.179 0 0 1 1.442 2.85 4.198 4.198 0 0 1-.985 3.041L62.036 61.991a4.14 4.14 0 0 1-3.158 1.462Z" fill="#0D47A1" />
  <path d="M58.878 63.453H38.1c-1.102 0-2.16-.44-2.938-1.224a4.19 4.19 0 0 1 0-5.908 4.145 4.145 0 0 1 2.938-1.224h20.777c1.102 0 2.159.44 2.938 1.224a4.19 4.19 0 0 1 0 5.908 4.145 4.145 0 0 1-2.938 1.224Z" fill="#0D47A1" />
  <path d="M54.722.787a58.038 58.038 0 0 0-37.12 16.992 58.627 58.627 0 0 0-16.9 37.319v8.355a58.628 58.628 0 0 0 16.9 37.319 58.038 58.038 0 0 0 37.12 16.991h4.156V.787h-4.156Z" fill="#F72D2D" />
  <path d="M54.722 109.407v8.356h4.156V105.23c-1.102 0-2.16.44-2.938 1.223a4.192 4.192 0 0 0-1.218 2.954ZM13.169 59.275c0 1.108-.438 2.17-1.217 2.954a4.145 4.145 0 0 1-2.939 1.224H.703v-8.356h8.31c1.102 0 2.16.44 2.939 1.224a4.189 4.189 0 0 1 1.217 2.954ZM54.722.787v8.356a4.19 4.19 0 0 0 1.218 2.954 4.144 4.144 0 0 0 2.938 1.224V.787h-4.156ZM55.72 56.56a4.196 4.196 0 0 0-.616 4.463 4.17 4.17 0 0 0 1.533 1.77 4.14 4.14 0 0 0 2.24.66V52.842L55.72 56.56Z" fill="#1565C0" />
  <path d="M38.101 55.097c-1.102 0-2.16.44-2.938 1.224a4.19 4.19 0 0 0 0 5.908 4.145 4.145 0 0 0 2.938 1.224h20.777v-8.356H38.1Z" fill="#1565C0" />
  <path d="M150.674 71.094c-.482-12.947-9.131-23.793-20.92-27.48v21.442A11.278 11.278 0 0 1 138.256 76c0 6.238-5.03 11.295-11.235 11.295-.529 0-1.046-.05-1.555-.12a18.462 18.462 0 0 1-1.157 2.696 16.782 16.782 0 0 1-7.929 7.462c-1.681.768-3.624 1.305-5.791 1.601a3.582 3.582 0 0 1-3.251 2.098h-4.863a3.6 3.6 0 0 1-3.59-3.608c0-1.997 1.607-3.612 3.59-3.612h4.863c1.197 0 2.249.594 2.901 1.499 3.184-.453 5.545-1.556 7.335-2.947 2.267-1.768 3.645-4.07 4.414-6.276A11.292 11.292 0 0 1 115.787 76c0-5.068 3.321-9.357 7.894-10.787V42.394a30.054 30.054 0 0 0-2.792-.133c-16.465 0-29.812 13.417-29.816 29.97-2.221 4.3-7.55 15.221-7.55 15.221a3.045 3.045 0 0 0-.04 2.624 3.024 3.024 0 0 0 2.009 1.674l4.872 1.226s2.481 11.266 3.048 13.881c.857 3.959 2.13 4.816 5.855 4.816 3.728 0 8.134-1.212 8.134-1.212v7.101h31.944v-11.24c0-4.069 1.115-9.174 4.26-12.99 6.326-7.676 7.556-15.887 7.069-22.238Z" fill="#0E4686" />
  <path d="M150.674 71.094c-.482-12.947-9.131-23.793-20.92-27.48v21.442A11.278 11.278 0 0 1 138.256 76c0 6.238-5.03 11.295-11.235 11.295-.529 0-1.046-.05-1.555-.12a18.462 18.462 0 0 1-1.157 2.696 16.782 16.782 0 0 1-7.929 7.462c-1.681.768-3.624 1.305-5.791 1.601a3.582 3.582 0 0 1-3.251 2.098h-4.863a3.6 3.6 0 0 1-3.59-3.608c0-1.997 1.607-3.612 3.59-3.612h4.863c1.197 0 2.249.594 2.901 1.499 3.184-.453 5.545-1.556 7.335-2.947 2.267-1.768 3.645-4.07 4.414-6.276A11.292 11.292 0 0 1 115.787 76c0-5.068 3.321-9.357 7.894-10.787V42.394a30.054 30.054 0 0 0-2.792-.133c-16.465 0-29.812 13.417-29.816 29.97-2.221 4.3-7.55 15.221-7.55 15.221a3.045 3.045 0 0 0-.04 2.624 3.024 3.024 0 0 0 2.009 1.674l4.872 1.226s2.481 11.266 3.048 13.881c.857 3.959 2.13 4.816 5.855 4.816 3.728 0 8.134-1.212 8.134-1.212v7.101h31.944v-11.24c0-4.069 1.115-9.174 4.26-12.99 6.326-7.676 7.556-15.887 7.069-22.238Z" fill="#000" fill-opacity=".2" />
</svg>