<svg width="730" height="730" fill="none" xmlns="http://www.w3.org/2000/svg">
  <g clip-path="url(#a)">
    <mask id="c" style="mask-type:luminance" maskUnits="userSpaceOnUse" x="0" y="-8" width="730" height="745">
      <path fill="url(#b)" d="M1-8h729v745H1z" />
    </mask>
    <g mask="url(#c)">
      <path d="m677 287-12 7v-29l-6-4-12 7v6l-13 7v-30l-12-7-12 7v3l-12 7v-38l-12-7-12 7v-20l-12-7-18 11v7l-12 7v6l-12-7v-25l-12-6-12 6v11l-12-7-12 7v14l-12 7v-36l-6-3-6 3v14l-6-3-12 7v-11l-6-3-12 7v17l-6-3v-7l-12-7-12 7v-7l-18-11-13 7v-14l-12-7-12 7v20l-6 3v-14l-12-7-12 7v21l-18-10v-14l-12-7-12 7v21l-6-4-12 7v9l-12 7v-13l-12-7-18 10v-11l-12-7-18 10v23l-18-11-24 14v-11l-12-7-12 7v21l-12 7v12l-19 10v-7l-12-7-17 10v176h652V295l-14-8Z" fill="#EBEBEB" />
      <path d="M114 367c-139 80-139 210 0 290s364 80 502 0c139-80 139-210 0-290a555 555 0 0 0-502 0Z" fill="#FAFAFA" />
      <path d="M591 434c27 0 50-13 50-30 0-16-23-29-50-29-28 0-51 13-51 29 0 17 23 30 51 30Z" fill="#EBEBEB" />
      <path d="M67 317h4l6 5c3 2 5 3 8 3 2 0 5-2 6-4v-1l2-1 2 1c3 2 6 1 9 1s6-1 6-4c0-2-1-3-3-4-1-1-2-3-1-5l2-1c3-1 7 1 10-1 2-2 2-5 1-7s-3-4-6-4c-2-1-5-1-5-3-1-2 0-4 2-5l5-3v-6c-1-2-3-3-5-3l-3-1c-1-1-2-2-1-3l1-1c1-1 0-2-1-3l-3-1c-2-1-3-2-3-4 1-3 4-3 5-5s-1-6-3-8l-6-2c-2-1-4-3-4-5-1-3 1-5 3-6 1-2 2-5 1-7s-4-2-6-2c-3-1-5-3-6-6l-1-3c-2-4-8-6-12-6l-4 3-1 3c0 2 1 4-1 5-3 3-7 0-7 4l1 6c1 3 2 3 1 6s-2 3-5 3-5-1-6 1c-3 3-1 6 1 8 3 3 1 4 1 8l-1 3c-3 2-5 1-4 5s0 3-3 4-5 4-7 6-4 2-4 5c-1 4 5 3 7 4 4 1 3 7 0 9-4 2-8 3-9 7 0 4 2 5 5 6 2 1 2 1 2 4 0 5 2 7 7 6h5c2 0 2 1 2 2 0 5 5 4 7 2 3-2 6-5 9-5Z" fill="#0E4686" />
      <path d="M67 317h4l6 5c3 2 5 3 8 3 2 0 5-2 6-4v-1l2-1 2 1c3 2 6 1 9 1s6-1 6-4c0-2-1-3-3-4-1-1-2-3-1-5l2-1c3-1 7 1 10-1 2-2 2-5 1-7s-3-4-6-4c-2-1-5-1-5-3-1-2 0-4 2-5l5-3v-6c-1-2-3-3-5-3l-3-1c-1-1-2-2-1-3l1-1c1-1 0-2-1-3l-3-1c-2-1-3-2-3-4 1-3 4-3 5-5s-1-6-3-8l-6-2c-2-1-4-3-4-5-1-3 1-5 3-6 1-2 2-5 1-7s-4-2-6-2c-3-1-5-3-6-6l-1-3c-2-4-8-6-12-6l-4 3-1 3c0 2 1 4-1 5-3 3-7 0-7 4l1 6c1 3 2 3 1 6s-2 3-5 3-5-1-6 1c-3 3-1 6 1 8 3 3 1 4 1 8l-1 3c-3 2-5 1-4 5s0 3-3 4-5 4-7 6-4 2-4 5c-1 4 5 3 7 4 4 1 3 7 0 9-4 2-8 3-9 7 0 4 2 5 5 6 2 1 2 1 2 4 0 5 2 7 7 6h5c2 0 2 1 2 2 0 5 5 4 7 2 3-2 6-5 9-5Z" fill="#000" fill-opacity=".2" />
      <path opacity=".3" d="M67 317h4l6 5c3 2 5 3 8 3 2 0 5-2 6-4v-1l2-1 2 1c3 2 6 1 9 1s6-1 6-4c0-2-1-3-3-4-1-1-2-3-1-5l2-1c3-1 7 1 10-1 2-2 2-5 1-7s-3-4-6-4c-2-1-5-1-5-3-1-2 0-4 2-5l5-3v-6c-1-2-3-3-5-3l-3-1c-1-1-2-2-1-3l1-1c1-1 0-2-1-3l-3-1c-2-1-3-2-3-4 1-3 4-3 5-5s-1-6-3-8l-6-2c-2-1-4-3-4-5-1-3 1-5 3-6 1-2 2-5 1-7s-4-2-6-2c-3-1-5-3-6-6l-1-3c-2-4-8-6-12-6l-4 3-1 3c0 2 1 4-1 5-3 3-7 0-7 4l1 6c1 3 2 3 1 6s-2 3-5 3-5-1-6 1c-3 3-1 6 1 8 3 3 1 4 1 8l-1 3c-3 2-5 1-4 5s0 3-3 4-5 4-7 6-4 2-4 5c-1 4 5 3 7 4 4 1 3 7 0 9-4 2-8 3-9 7 0 4 2 5 5 6 2 1 2 1 2 4 0 5 2 7 7 6h5c2 0 2 1 2 2 0 5 5 4 7 2 3-2 6-5 9-5Z" fill="#fff" />
      <g opacity=".5">
        <path d="M108 307h8l-5-1c-3 0-7 1-9 4l2 5c-6 2-12-6-18-4 0 3 0 7-3 8l-4-2-3-5c-3-3-9-4-12-1-2 1-4 2-5 1-2-1-1-4-3-5l-4-1-1-1c0-3-1-7 1-9 2-3 5-4 5-7 0-2-3-3-6-3-2-1-5-2-5-4s3-4 4-6v-3l4-2c2-2 0-6 1-8l2-6c1-3-2-7-6-8l-4-2 3 4c3 3 1 4 1 8l-1 3c-3 2-5 1-4 5s0 3-3 4-5 4-7 6-4 2-4 5c-1 4 5 3 7 4 4 1 3 7 0 9-4 2-8 3-9 7 0 4 2 5 5 6 2 1 2 1 2 4 0 5 2 7 7 6h5c2 0 2 1 2 2 0 5 5 4 7 2 3-3 6-5 9-5h4l6 5c3 2 5 3 8 3 2 0 5-2 6-4v-1l2-1 2 1c3 2 6 1 9 1s6-2 6-4-1-3-3-4c-1-1-2-3-1-5l2-1Z" fill="#0E4686" />
        <path d="M108 307h8l-5-1c-3 0-7 1-9 4l2 5c-6 2-12-6-18-4 0 3 0 7-3 8l-4-2-3-5c-3-3-9-4-12-1-2 1-4 2-5 1-2-1-1-4-3-5l-4-1-1-1c0-3-1-7 1-9 2-3 5-4 5-7 0-2-3-3-6-3-2-1-5-2-5-4s3-4 4-6v-3l4-2c2-2 0-6 1-8l2-6c1-3-2-7-6-8l-4-2 3 4c3 3 1 4 1 8l-1 3c-3 2-5 1-4 5s0 3-3 4-5 4-7 6-4 2-4 5c-1 4 5 3 7 4 4 1 3 7 0 9-4 2-8 3-9 7 0 4 2 5 5 6 2 1 2 1 2 4 0 5 2 7 7 6h5c2 0 2 1 2 2 0 5 5 4 7 2 3-3 6-5 9-5h4l6 5c3 2 5 3 8 3 2 0 5-2 6-4v-1l2-1 2 1c3 2 6 1 9 1s6-2 6-4-1-3-3-4c-1-1-2-3-1-5l2-1Z" fill="#000" fill-opacity=".2" />
      </g>
      <path d="m59 272 14 29v-13l2-57 2 57v9l16-28-16 34v88l-1 1h-2l-1-1v-83l-14-36Z" fill="#37474F" />
      <path d="M65 398c4 0 8-1 9-5v-11l-2-4c-2 0-3 1-3 2l-1 3c0-1-1-3-3-3l-3 3 2 4-3 1-1 3 4 3c-1-1-2 0-2 1l1 2 2 1Z" fill="#455A64" />
      <path d="m72 400 10-6 2-2 2-3-1-1h-1l-2 2 1-4-1-1h-1l-3 4v-5c0-1-2-2-2 0l-1 2v3l-2-3-2-1-1 2 2 4-4-1h-1l1 1 2 3h-4l1 1 2 2h-2v1l1 1 4 1Z" fill="#0E4686" />
      <path d="m72 400 10-6 2-2 2-3-1-1h-1l-2 2 1-4-1-1h-1l-3 4v-5c0-1-2-2-2 0l-1 2v3l-2-3-2-1-1 2 2 4-4-1h-1l1 1 2 3h-4l1 1 2 2h-2v1l1 1 4 1Z" fill="#000" fill-opacity=".2" />
      <path d="m40 447 1-1V160c0-5 4-11 8-14l24-13 4-1c1 1 2 2 2 5v27a2 2 0 0 0 3 0v-27c0-4-1-6-3-7-2-2-5-1-8 0l-23 14c-5 3-10 10-10 16v286l2 1Z" fill="#000" />
      <path d="M76 158c3-2 7-2 11 0l2 3v2l-2 3c-4 2-8 2-11 0-2 0-3-2-3-3v-2l3-3Z" fill="#455A64" />
      <path d="M76 160c-3 2-3 5 0 6 3 2 7 2 11 0 3-1 3-4 0-6-4-2-8-2-11 0Z" fill="#37474F" />
      <path d="M74 182h15v-18l-3-3c-3-2-7-2-10 0-2 1-2 2-2 3v18Z" fill="#0E4686" />
      <path d="M74 182h15v-18l-3-3c-3-2-7-2-10 0-2 1-2 2-2 3v18Z" fill="#000" fill-opacity=".2" />
      <path opacity=".7" d="M74 182h15v-18l-3-3c-3-2-7-2-10 0-2 1-2 2-2 3v18Z" fill="#fff" />
      <path d="M86 185c3-2 3-5 0-6-3-2-7-2-10 0-3 1-3 4 0 6h10Z" fill="#0E4686" />
      <path d="M86 185c3-2 3-5 0-6-3-2-7-2-10 0-3 1-3 4 0 6h10Z" fill="#000" fill-opacity=".2" />
      <path opacity=".5" d="M86 185c3-2 3-5 0-6-3-2-7-2-10 0-3 1-3 4 0 6h10Z" fill="#fff" />
      <path opacity=".2" d="M77 167a5 5 0 1 1 9 0 5 5 0 0 1-9 0Z" fill="#fff" />
      <path opacity=".2" d="M74 172a9 9 0 0 0 15 0v-8l-3-3c-3-2-7-2-10 0-2 1-2 2-2 3v8Z" fill="#fff" />
      <path opacity=".4" d="M79 167a2 2 0 1 1 4 0 2 2 0 0 1-4 0Z" fill="#fff" />
      <path d="M76 178c3-2 7-2 11 0l2 3v2l-2 3c-4 2-8 2-11 0-2 0-3-2-3-3v-2l3-3Z" fill="#455A64" />
      <path d="M76 180c-3 2-3 5 0 6 3 2 7 2 11 0 3-1 3-4 0-6-4-2-8-2-11 0Z" fill="#37474F" />
      <path d="M400 33c2 2 4 1 6 1 3 0 6-1 8 1l2 3c2 2 7 0 9 4l1 2 3-1 7 1c2 0 4 1 5 3l2 2h2l6-2c3 0 5 1 6 3v1l1-1c2-1 4-2 6-1l2 1 1 2c1 2 3 1 5 1h6l2 1 4 1c1-1 14 0 14 1l-4 1h-7l-1 2-5-1c-2 0-4-2-6-1l-3 1h-6l-4-1-2 1-2 1-10-2c-4-1-7-1-10 2-2 2-6 2-9 1l-2-1-8 1-4 2c-4 1-9-5-14-3-2 0-3 2-5 3h-6l-8-3-6 1c-2 0-5-1-5-3-3 2-7 3-11 1l-3-1-5 2c-3 1-7-2-11-2l-7 1-7-1 8-3 10-1 4 1 3-1c3-2 7-2 10 0 1-3 3-5 5-6h8c0-2 2-5 5-6 2-1 5 1 6-3 0-2 1-4 4-6l4-2 4 1 1 2h1ZM274 80h7c2 1 4 1 5 3l4 4 6 1h6c2 1 4 2 4 4l3-1h3l4-1c4-1 8 1 11 2 4 1 7 2 11 1-3 2-7 4-10 3-4 0-8-2-12-1-2 1-3 4-6 3l-3-1c-2-1-4 2-7 2s-5-2-7-3c-5-2-10 4-15 3-2-1-4-3-7-3l-6 1c-4 2-6-1-9-1s-5 3-8 4c-4 1-7-3-10-3h-8c-3 1-6 0-8-2l15-3h2l3-2c2-2 6-2 8-1 0-3 4-7 8-7h2l2-3c2-2 7-3 9-1l3 2Z" fill="#F0F0F0" />
      <path d="M119 64a22 22 0 1 0-31-31 22 22 0 0 0 31 31Z" fill="#FFBDA7" />
      <path d="m574 372 2-34 13 9c-1 13-4 23-5 30l-8 7-7 6h-7c3-3 7-6 9-10 3-3 3-4 3-8Z" fill="#FFA8A7" />
      <path d="M556 394s-1 2 1 3c1 1 4 2 9 1 4-1 7-2 8-4l6-5 5-2v-3l-29 10Z" fill="#263238" />
      <path d="m584 376 1 1-1 3 1 5-5 3-6 5c-2 2-6 4-9 4-5 1-8 0-9-2s0-3 5-6l5-3c3-3 6-6 7-9v-1l1-1 3 1 2 1v2h1l1-1 3-1v-1Z" fill="#37474F" />
      <path d="M560 390c6 0 9 3 9 6l-4 1c-5 1-8 0-9-2-1-1-1-3 4-5Z" fill="#FAFAFA" />
      <path d="M569 389h1v-1c-1-1-4-2-6-1h-1 1l5 2ZM572 387c-1-1-3-3-6-2l6 2ZM574 385h1c-1-2-4-3-6-2h-1 1l5 2ZM577 383v-1c-1-1-4-2-7-1h1l6 2Z" fill="#F0F0F0" />
      <path d="m607 358 15-2 1 28v16c-1 5-7 5-7 2l-3-17c0-5-3-14-5-24l-1-3Z" fill="#FFA8A7" />
      <path d="m613 405 2 6c1 2 3 3 5 2 2 0 5-2 5-4v-7l-12 3Z" fill="#263238" />
      <path d="M623 383v8l2 10c1 4 0 6-1 8s-6 5-9 1c-2-3-2-6-1-10l-1-10v-6 2l1 2v-3h1l4-1 3 1v1l1 1v-4Z" fill="#37474F" />
      <path d="M625 403c1 3 0 4-1 6-1 3-7 5-9 1l-2-5c2-3 10-4 12-2Z" fill="#FAFAFA" />
      <path d="M616 400h7v-1c-4-1-7 1-7 1h-1 1ZM623 397v-1c-4-1-8 1-8 1h1s3-2 7 0ZM623 394v-1c-4-1-8 1-8 1s4-2 7 0h1Z" fill="#F0F0F0" />
      <path d="m622 391 1-1c-4-1-8 1-8 1s4-2 7 0Z" fill="#EBEBEB" />
      <path d="M612 259c4 6 10 15 10 30l-1 40c1 2 3 4 3 16v33s-8 3-13 1l-8-44-4-30-6 23-1 15-7 32s-7 2-12-2l2-49 3-47 4-16 30-2Z" fill="#37474F" />
      <path d="m587 327-1 22a1255 1255 0 0 1 6-63c-2 11-6 36-5 41ZM619 331l-1-1v-39c0-13-3-23-9-32h-1c4 6 7 16 8 22-2 0-7-3-8-8l-4-11h-1l4 12c2 3 3 6 8 8h2v9a599 599 0 0 1 1 39v2c1 2 2 8 2 21l1 29h1l-1-29c0-13-1-19-2-22Z" fill="#455A64" />
      <path d="M624 378c-3 1-10 2-13 1v3l7 1c4 0 6-2 6-2v-3ZM586 371c-2 1-10 0-13-2v4s2 2 6 2h6l1-4Z" fill="#455A64" />
      <path d="m599 305-2-19s-11-2-14-6c0 0 4 7 11 8l3 15-4 24 6-22Z" fill="#263238" />
      <path d="M589 224c-4 0-7 1-11 7l-9 15-17-4-2 9 20 7c3 1 4 1 8-3l9-11 2-20Z" fill="#0E4686" />
      <path d="M589 224c-4 0-7 1-11 7l-9 15-17-4-2 9 20 7c3 1 4 1 8-3l9-11 2-20Z" fill="#000" fill-opacity=".2" />
      <path opacity=".2" d="M589 224c-4 0-7 1-11 7l-9 15-17-4-2 9 20 7c3 1 4 1 8-3l9-11 2-20Z" fill="#000" />
      <path d="M539 235v-1h1l10 2 2 1 9 18v1l-1 1h-1l-10-1-2-2a144227 144227 0 0 1-8-19Z" fill="#455A64" />
      <path d="m550 237 2 1 8 18v1l1-1v-1l-9-18-1-1-1 1Z" fill="#263238" />
      <path d="m560 256-8-18-3-2-10-1v1l8 18 2 2 10 1 1-1Z" fill="#37474F" />
      <path d="m552 242-2-3v-1h-2l2 4h2Z" fill="#455A64" />
      <path d="M550 239h-1l1 1v-1ZM551 241l-1-1v1l1 1v-1Z" fill="#263238" />
      <path d="m541 245-1-2c0-1 1-2 3-2h2l-1 2-2 1 3-1h3v2h1c2 0 2 0 1 1l-1 1h2l-3 2c-2 1-2 2-2 3h-2l-1-2-1-1v-1l-1-2v-1Z" fill="#FFA8A7" />
      <path d="M548 245h-3l-2 2 2-1 1-1h2ZM549 247h-3l-2 2 3-1 2-1Z" fill="#F28F8F" />
      <path d="M595 224s14 0 18 2c2 1 3 4 2 14l-1 14 2 9c-9 7-34 5-38 0l2-14s-3-4-3-7c1-4 1-6 5-11l7-7h6Z" fill="#0E4686" />
      <path d="M595 224s14 0 18 2c2 1 3 4 2 14l-1 14 2 9c-9 7-34 5-38 0l2-14s-3-4-3-7c1-4 1-6 5-11l7-7h6Z" fill="#000" fill-opacity=".2" />
      <path d="M584 205c-7-9 2-16 13-16 8 0 15 7 15 14 1 10 0 12-5 16-6 5-22 6-26-3 3-1 4-5 3-11Z" fill="#37474F" />
      <path d="M605 223v-8s2 1 4-1 2-5 1-7c-1-1-4-1-6 2-2 0-2-3-1-6 0 0-4-2-3-6h-13c-2 1-3 4-3 12 0 7 2 9 4 10l6 1-1 3-1 1h-1s-4 4 3 5c10 1 15-4 15-4h-2c-2 0-2-1-2-2Z" fill="#FFA8A7" />
      <path d="m596 212-4 2 3 1 1-3Z" fill="#B16668" />
      <path d="m596 213-2 2h1l1-2ZM593 204l-1 7-3-1c0-2 2-4 4-6Z" fill="#F28F8F" />
      <path d="m586 204 2-1-2-1v2ZM598 204l-2-1 1-1 1 2ZM589 206l-1 1-2-1 1-1 2 1ZM597 206l-1 1-1-1 1-1 1 1Z" fill="#263238" />
      <path d="m594 220 7-2 2-3s0 3-2 4c-2 2-8 3-8 3l1-2Z" fill="#F28F8F" />
      <path d="M586 194c-1 3 0 7 4 9v-5s4 9 14 6l-2-9c-4-3-11-5-16-1Z" fill="#37474F" />
      <path d="m604 273 2-1h2l3-1 1-1c1 0 2 0 3-2l1-3c3 0 7 3 7 6l-1 2c-2 1-2 2-2 3l-4 5-6-3-1-2v-1h-2l-2-1-1-1Z" fill="#FFA8A7" />
      <path d="m616 281-6-3-1-2 2 2c2 2 4 2 5 2l3-2-3 3Z" fill="#F28F8F" />
      <path d="M611 225c5 1 7 2 9 4l5 9 8 14c2 3 1 4-2 10l-9 13c-2 0-7-4-8-6l7-12-8-13-4-8c-1-3 0-9 2-11Z" fill="#0E4686" />
      <path d="M611 225c5 1 7 2 9 4l5 9 8 14c2 3 1 4-2 10l-9 13c-2 0-7-4-8-6l7-12-8-13-4-8c-1-3 0-9 2-11Z" fill="#000" fill-opacity=".2" />
      <path opacity=".2" d="M611 225c5 1 7 2 9 4l5 9 8 14c2 3 1 4-2 10l-9 13c-2 0-7-4-8-6l7-12-8-13-4-8c-1-3 0-9 2-11Z" fill="#000" />
      <path opacity=".1" d="M313 323 122 433c-5 3-5 8 0 10l363 210c7 4 19 4 26 0l187-108c5-3 5-8 0-11L333 323c-6-3-14-3-20 0Z" fill="#000" />
      <path d="m335 278 366 212c9 5 9 11 9 17 0 5-2 13-9 17L510 634c-7 4-18 4-25 0L120 423c-7-4-9-11-9-16 0-6 2-15 9-19l191-110c6-4 15-5 24 0Z" fill="#37474F" />
      <path d="M326 286 131 399l367 212v26c-5 0-9-1-13-3L120 423c-7-4-9-11-9-16 0-6 2-15 9-19l191-110c4-2 9-4 15-3v11Z" fill="#263238" />
      <path d="M313 280 122 390c-5 3-5 8 0 10l363 210c7 4 19 4 26 0l187-108c5-3 5-8 0-11L333 280c-6-3-14-3-20 0Z" fill="#455A64" />
      <path d="m346 293 330 191c6 3 6 8 0 11L496 600c-6 3-14 3-20 0L143 407c-4-2-5-6-2-9l1-1 1-1 178-102 1-1c6-3 17-3 24 0Z" fill="#FAFAFA" />
      <path d="m213 344 25-14h5c2 1 2 2 0 3l-25 14h-5v-3ZM250 322h6v4h-6c-2-1-2-3 0-4Z" fill="#263238" />
      <path d="M228 467c3 1 5 5 5 8l-1 3-3 2-4-1-30-17c-2-1-5-5-5-8l2-3 3-2 4 1 29 17Z" fill="#455A64" />
      <path d="m225 469-30-17c-2-2-5-1-5 2s3 7 5 8l30 17c3 2 5 1 5-2s-2-7-5-8Z" fill="#37474F" />
      <path d="M176 437c3 1 5 5 5 8l-1 3-4 2-3-1-30-17c-3-2-5-5-5-8l1-3 4-2 3 1 30 17Z" fill="#455A64" />
      <path d="m173 439-30-18c-3-1-5 0-5 3s2 6 5 8l30 17c3 2 5 1 5-2s-2-7-5-8Z" fill="#37474F" />
      <path d="M279 392c-2-1-8-1-12 2-4 2-5 5-3 7 3 1 8 1 12-2 5-2 6-5 3-7Zm102-32-22 28 67-1 22-29-67 2Zm-78 4-18 23 4 3 60-1 21-27-67 2Zm153-1-18 24 40-11-22-13Zm30 17-55 16-63 80c22-6 39-7 56-4l68-88-6-4Zm-200 18c-3 4-6 5-13 7l21 39 88-2 37-47-133 3Zm3 55-22 19 48 28c12-8 25-14 37-18l23-31-86 2Zm61-151-41 53 129-2-88-51Zm149 86-67 85 5 1 106-61-44-25Zm-238 19-3-1-59 27 61 35 22-19-21-42Zm155 73c-27-5-61 4-95 23l33 19 71-41-9-1Zm-73-182c-5-3-16-3-22 1l-1 1-100 57 80-1 44-58h-1Zm-138 68-51 29a14 14 0 0 0-2 2c-3 3-3 7 0 9l39 22 64-29c1-2 3-5 8-8 4-2 8-4 13-4l18-23-89 2Z" fill="#0E4686" />
      <path d="M279 392c-2-1-8-1-12 2-4 2-5 5-3 7 3 1 8 1 12-2 5-2 6-5 3-7Zm102-32-22 28 67-1 22-29-67 2Zm-78 4-18 23 4 3 60-1 21-27-67 2Zm153-1-18 24 40-11-22-13Zm30 17-55 16-63 80c22-6 39-7 56-4l68-88-6-4Zm-200 18c-3 4-6 5-13 7l21 39 88-2 37-47-133 3Zm3 55-22 19 48 28c12-8 25-14 37-18l23-31-86 2Zm61-151-41 53 129-2-88-51Zm149 86-67 85 5 1 106-61-44-25Zm-238 19-3-1-59 27 61 35 22-19-21-42Zm155 73c-27-5-61 4-95 23l33 19 71-41-9-1Zm-73-182c-5-3-16-3-22 1l-1 1-100 57 80-1 44-58h-1Zm-138 68-51 29a14 14 0 0 0-2 2c-3 3-3 7 0 9l39 22 64-29c1-2 3-5 8-8 4-2 8-4 13-4l18-23-89 2Z" fill="#000" fill-opacity=".2" />
      <path opacity=".6" d="M279 392c-2-1-8-1-12 2-4 2-5 5-3 7 3 1 8 1 12-2 5-2 6-5 3-7Zm102-32-22 28 67-1 22-29-67 2Zm-78 4-18 23 4 3 60-1 21-27-67 2Zm153-1-18 24 40-11-22-13Zm30 17-55 16-63 80c22-6 39-7 56-4l68-88-6-4Zm-200 18c-3 4-6 5-13 7l21 39 88-2 37-47-133 3Zm3 55-22 19 48 28c12-8 25-14 37-18l23-31-86 2Zm61-151-41 53 129-2-88-51Zm149 86-67 85 5 1 106-61-44-25Zm-238 19-3-1-59 27 61 35 22-19-21-42Zm155 73c-27-5-61 4-95 23l33 19 71-41-9-1Zm-73-182c-5-3-16-3-22 1l-1 1-100 57 80-1 44-58h-1Zm-138 68-51 29a14 14 0 0 0-2 2c-3 3-3 7 0 9l39 22 64-29c1-2 3-5 8-8 4-2 8-4 13-4l18-23-89 2Z" fill="#fff" />
      <path d="m445 554-3-1-1-2 1-2h6l2 2-2 2-3 1Zm0-5-2 1-1 1 1 2h5l1-2-1-1-3-1ZM468 541l-4-1-1-2 1-2h7l1 2-1 2-3 1Zm0-5-3 1-1 1 1 2h5l1-2-1-1-2-1ZM451 550v-1l13-7c0-1 0 0 0 0l-13 8Z" fill="#455A64" />
      <path d="M439 555h-1l-1-1-1-1-1-1-2-2-1-4-1-1 1-1 13-8 6-1h5l3-1 4-2c4-2 7-1 10 1l1 2-1 2v-1l1-1-2-1c-2-2-5-3-9-1a356 356 0 0 0-7 3h-5l-5 1-14 8 1 1 1 4 1 1 1 1 1 2h1l1 1 3-1v1h-3Z" fill="#455A64" />
      <path d="m448 541-4-2h2c4-3 7-2 9-2l-7 4ZM439 547l7-4-4-2-4 2c-2 1-1 3 1 4ZM421 540l-3-1-2-2 2-2h6l1 2-1 2-3 1Zm0-5-3 1-1 1 1 1h5l1-1-1-1-2-1ZM449 524l-4-1-1-2 1-2h7l1 2-1 2-3 1Zm0-5-3 1-1 1 1 1h5l1-1-1-1-2-1ZM427 535h-1l19-11v1l-18 10Z" fill="#455A64" />
      <path d="M415 541h-2l-2-1-1-2-3-6h-1v-2l16-8c2-2 3-2 8-3a47 47 0 0 1 5 0l4-2 5-2h10l2 3-2 2v-1l1-1-2-2h-9l-5 2a18 18 0 0 1-6 2h-3c-5 0-6 1-8 2l-15 9v1l4 5v1l1 1 1 1h5l-1 1h-2Z" fill="#455A64" />
      <path d="m426 526-4-2 3-1c4-3 7-2 9-2l-8 5ZM414 529l4 2-4 2c-1-1-2-3 0-4ZM424 527l-5 3-4-2 6-3 3 2Z" fill="#455A64" />
      <path d="M397 525h-3l-1-2 1-2h6l2 2-2 2h-3Zm0-4h-2l-1 2 1 1h5l1-1-1-2h-3Z" fill="#0E4686" />
      <path d="M397 525h-3l-1-2 1-2h6l2 2-2 2h-3Zm0-4h-2l-1 2 1 1h5l1-1-1-2h-3Z" fill="#000" fill-opacity=".2" />
      <path d="m425 509-3-1-1-2 1-2h6l2 2-2 2-3 1Zm0-4h-3l-1 1 1 2h6l1-2-1-1h-3Z" fill="#0E4686" />
      <path d="m425 509-3-1-1-2 1-2h6l2 2-2 2-3 1Zm0-4h-3l-1 1 1 2h6l1-2-1-1h-3Z" fill="#000" fill-opacity=".2" />
      <path d="M403 521v-1l18-10h1l-19 11Z" fill="#0E4686" />
      <path d="M403 521v-1l18-10h1l-19 11Z" fill="#000" fill-opacity=".2" />
      <path d="m402 512-4-2 2-1c4-2 9-3 10-2l-8 5Z" fill="#0E4686" />
      <path d="m402 512-4-2 2-1c4-2 9-3 10-2l-8 5Z" fill="#000" fill-opacity=".2" />
      <path d="m392 517 7-4-3-2-4 2c-2 1-2 3 0 4Z" fill="#0E4686" />
      <path d="m392 517 7-4-3-2-4 2c-2 1-2 3 0 4Z" fill="#000" fill-opacity=".2" />
      <path d="M390 526h-3l-2-2v-1l-2-1-1-2 1-1 2-2 2-3 3-3 6-3c3-2 6-3 10-3l4-1 7-2 4-2c3-1 8-1 11 1l1 2-1 1-1 1v-1l1-1h1l-1-1-1-1h-10l-4 2-7 2h-4l-9 3-6 4-3 2-2 3-2 3h-1l1 1 1 1 1 2 1 1h6v1h-3Z" fill="#0E4686" />
      <path d="M390 526h-3l-2-2v-1l-2-1-1-2 1-1 2-2 2-3 3-3 6-3c3-2 6-3 10-3l4-1 7-2 4-2c3-1 8-1 11 1l1 2-1 1-1 1v-1l1-1h1l-1-1-1-1h-10l-4 2-7 2h-4l-9 3-6 4-3 2-2 3-2 3h-1l1 1 1 1 1 2 1 1h6v1h-3Z" fill="#000" fill-opacity=".2" />
      <path d="m431 488 2 1 1-1v1l2 1h-2l-1 1-1-1h-2l1-1v-1Z" fill="#0E4686" />
      <path d="m431 488 2 1 1-1v1l2 1h-2l-1 1-1-1h-2l1-1v-1Z" fill="#000" fill-opacity=".2" />
      <path d="M437 485h2l1-1v2h2l-2 1-1 1-1-1h-2l1-1v-1Z" fill="#0E4686" />
      <path d="M437 485h2l1-1v2h2l-2 1-1 1-1-1h-2l1-1v-1Z" fill="#000" fill-opacity=".2" />
      <path d="m443 481 2 1 1-1v1l2 1h-2l-1 1-1-1h-2l1-1v-1Z" fill="#0E4686" />
      <path d="m443 481 2 1 1-1v1l2 1h-2l-1 1-1-1h-2l1-1v-1Z" fill="#000" fill-opacity=".2" />
      <path d="M449 478h3v1h2l-2 1-1 1-1-1h-2l1-1v-1Z" fill="#0E4686" />
      <path d="M449 478h3v1h2l-2 1-1 1-1-1h-2l1-1v-1Z" fill="#000" fill-opacity=".2" />
      <path d="M455 475h2l1-1v1l2 1h-2l-1 1h-3l1-1v-1Z" fill="#0E4686" />
      <path d="M455 475h2l1-1v1l2 1h-2l-1 1h-3l1-1v-1Z" fill="#000" fill-opacity=".2" />
      <path d="M439 495a1 1 0 0 1 0-2l30-18a1 1 0 1 1 2 2l-31 18h-1Z" fill="#455A64" />
      <path d="m445 499-1-1v-1l44-25 1 1-1 1-43 24v1Z" fill="#E0E0E0" />
      <path d="m455 502 2 1 2-1v1l2 1h-2l-1 1-1-1h-2 1l-1-2Z" fill="#0E4686" />
      <path d="m455 502 2 1 2-1v1l2 1h-2l-1 1-1-1h-2 1l-1-2Z" fill="#000" fill-opacity=".2" />
      <path d="M461 499h4v1l2 1h-2l-1 1-1-1h-2l1-1-1-1Z" fill="#0E4686" />
      <path d="M461 499h4v1l2 1h-2l-1 1-1-1h-2l1-1-1-1Z" fill="#000" fill-opacity=".2" />
      <path d="M467 496h2l2-1v1l2 1h-2l-1 2-1-1h-2l1-1-1-1Z" fill="#0E4686" />
      <path d="M467 496h2l2-1v1l2 1h-2l-1 2-1-1h-2l1-1-1-1Z" fill="#000" fill-opacity=".2" />
      <path d="m473 492 2 1 2-1v1l1 1h-1l-1 1-1-1h-2l1-1-1-1Z" fill="#0E4686" />
      <path d="m473 492 2 1 2-1v1l1 1h-1l-1 1-1-1h-2l1-1-1-1Z" fill="#000" fill-opacity=".2" />
      <path d="M479 489h2l2-1v2h1l-2 1v1l-1-1h-2l1-1-1-1Z" fill="#E0E0E0" />
      <path d="M464 509a1 1 0 0 1-1-2l31-17a1 1 0 1 1 1 2l-31 17Z" fill="#455A64" />
      <path d="M469 513v-2l43-25 1 1v1l-43 25h-1Z" fill="#E0E0E0" />
      <path d="M480 517h2l2-1v1l1 1-2 1v1l-1-1h-2l1-1-1-1Z" fill="#0E4686" />
      <path d="M480 517h2l2-1v1l1 1-2 1v1l-1-1h-2l1-1-1-1Z" fill="#000" fill-opacity=".2" />
      <path d="m486 513 2 1 2-1v1l1 1h-2v1l-2-1h-2l2-1-1-1Z" fill="#0E4686" />
      <path d="m486 513 2 1 2-1v1l1 1h-2v1l-2-1h-2l2-1-1-1Z" fill="#000" fill-opacity=".2" />
      <path d="M492 510h2l2-1-1 2h2l-2 1v1l-2-1h-2l2-1-1-1Z" fill="#0E4686" />
      <path d="M492 510h2l2-1-1 2h2l-2 1v1l-2-1h-2l2-1-1-1Z" fill="#000" fill-opacity=".2" />
      <path d="m498 506 2 1 1-1v1l2 1h-2v1l-2-1h-2l2-1-1-1ZM504 503h3v1h2l-2 1-1 1-1-1h-2l2-1-1-1Z" fill="#E0E0E0" />
      <path d="M488 524a1 1 0 0 1 0-2l31-18a1 1 0 1 1 1 2l-31 18h-1Z" fill="#455A64" />
      <path d="M494 527h-1l1-1 43-25h1v1l-44 25Z" fill="#E0E0E0" />
      <path d="M521 443a6 6 0 0 1 2 0h1l-1 1h-1a3 3 0 0 0-1 0l-1 1h2a81 81 0 0 0 4-1 3 3 0 0 1 1 1h1v1l-1 1h1v1h-2a6 6 0 0 1-2 0h-2v-1h2a3 3 0 0 0 1 0l1-1v-1h-1l-1 1a40 40 0 0 1-3 0 3 3 0 0 1-2 0v-3h2Z" fill="#0E4686" />
      <path d="M521 443a6 6 0 0 1 2 0h1l-1 1h-1a3 3 0 0 0-1 0l-1 1h2a81 81 0 0 0 4-1 3 3 0 0 1 1 1h1v1l-1 1h1v1h-2a6 6 0 0 1-2 0h-2v-1h2a3 3 0 0 0 1 0l1-1v-1h-1l-1 1a40 40 0 0 1-3 0 3 3 0 0 1-2 0v-3h2Z" fill="#000" fill-opacity=".2" />
      <path d="M525 443v-3h2l6 3v1h-1l-5-3v2h-2Z" fill="#0E4686" />
      <path d="M525 443v-3h2l6 3v1h-1l-5-3v2h-2Z" fill="#000" fill-opacity=".2" />
      <path d="M538 441h-1l-1-1-3 2h-1v-1l-1-4h1l4 2 1-1 1 1h-1l1 1v1Zm-3-1-2-2v2h2Z" fill="#0E4686" />
      <path d="M538 441h-1l-1-1-3 2h-1v-1l-1-4h1l4 2 1-1 1 1h-1l1 1v1Zm-3-1-2-2v2h2Z" fill="#000" fill-opacity=".2" />
      <path d="M540 438h2v1h-3v-1h1Z" fill="#0E4686" />
      <path d="M540 438h2v1h-3v-1h1Z" fill="#000" fill-opacity=".2" />
      <path d="m537 434 3-2h2l-3 2 1 1 1-1a6 6 0 0 1 1-1 5 5 0 0 1 2 0l2 1 1 1-1 1h-1a6 6 0 0 1-2 1h-2l1-1a2 2 0 0 0 1 0h1l1-1-1-1h-1a3 3 0 0 0-1 1h-1l-1 1-3-2Z" fill="#0E4686" />
      <path d="m537 434 3-2h2l-3 2 1 1 1-1a6 6 0 0 1 1-1 5 5 0 0 1 2 0l2 1 1 1-1 1h-1a6 6 0 0 1-2 1h-2l1-1a2 2 0 0 0 1 0h1l1-1-1-1h-1a3 3 0 0 0-1 1h-1l-1 1-3-2Z" fill="#000" fill-opacity=".2" />
      <path d="M550 429v1a61 61 0 0 1 2 1v1l-1 1a5 5 0 0 1-2 1h-2l-1-1a20 20 0 0 1-2-2h-1l1-1v-1a5 5 0 0 1 3-1l1 1h2Zm-3 3 2 1 1-1h1l-1-1a18 18 0 0 0-2-1h-2l-1 1h1a16 16 0 0 0 1 1Z" fill="#0E4686" />
      <path d="M550 429v1a61 61 0 0 1 2 1v1l-1 1a5 5 0 0 1-2 1h-2l-1-1a20 20 0 0 1-2-2h-1l1-1v-1a5 5 0 0 1 3-1l1 1h2Zm-3 3 2 1 1-1h1l-1-1a18 18 0 0 0-2-1h-2l-1 1h1a16 16 0 0 0 1 1Z" fill="#000" fill-opacity=".2" />
      <path d="M545 457a5 5 0 0 1 3 0h1v1h-3a3 3 0 0 0-1 1v1h1l1-1a92 92 0 0 0 3-1 3 3 0 0 1 2 1l1 1-1 1v1h-2a6 6 0 0 1-2 0h-2 1v-1a1 1 0 0 1 1 0h1a3 3 0 0 0 1 0l1-1-1-1-1 1a40 40 0 0 1-4 1 3 3 0 0 1-1-1h-1v-1l1-1h-1v-1h2ZM550 457h-1l1-2v-1h1l6 4h-1l-5-2v1h-1ZM560 452a9 9 0 0 1 1 0 8 8 0 0 1 1 1l1 1-1 1-1 1a5 5 0 0 1-2 0h-1a7 7 0 0 1-2-1 18 18 0 0 1-2-1v-2h1l1-1a5 5 0 0 1 3 0l1 1Zm-2 3h2l1-1-1-1a16 16 0 0 0-1-1h-3l-1 1 1 1a18 18 0 0 0 2 1ZM565 452l1 1h-2l1-1ZM565 446h1l1 2a5 5 0 0 1 1 0h2l1 1v1l-1 1a6 6 0 0 1-3 1h-1l-1-1h2l1-1h1v-1h-2l-1 1-1-1v-2l-3 2-1-1 4-2ZM574 443l1 1h1l1 1v2h-1l-2 1a5 5 0 0 1-2 0l-1-1a21 21 0 0 1-3-1v-2l1-1h1a5 5 0 0 1 3 0h1Zm-2 4h3v-1l-1-1a20 20 0 0 0-1-1h-3v2a17 17 0 0 0 2 1ZM569 472a5 5 0 0 1 3 0v1h-2a3 3 0 0 0-1 0v1h2a72 72 0 0 0 3-1 3 3 0 0 1 2 1v1l-1 1h1v1h-2a6 6 0 0 1-2 0h-2v-1h2a3 3 0 0 0 2 0v-1h1l-1-1h-1l-1 1a42 42 0 0 1-3 0 3 3 0 0 1-1 0l-1-1a1 1 0 0 1 0-1h1l-1-1h2ZM579 469h1l1 1h1v2l-1 1a5 5 0 0 1-3 0h-2a19 19 0 0 1-3-2v-1l1-1 2-1a5 5 0 0 1 2 0l1 1Zm-2 3h3v-1a17 17 0 0 0-2-1l-1-1-2 1 1 1a19 19 0 0 0 1 1ZM582 470v-2h-2l-1-1 1-1v-1a5 5 0 0 1 4 0h1v1h2l1 1v2h-1a6 6 0 0 1-2 1h-3Zm-1-3h1a3 3 0 0 0 1 0l1-1h-2a3 3 0 0 0-1 0v1Zm3 2h1a3 3 0 0 0 1 0v-1h1l-1-1h-1a3 3 0 0 0-1 1h-1v1h1ZM590 466h2l-1 1h-1l-1-1h1ZM590 460h2l2 5h1-2l-3-4-3 2-1-1 4-2ZM599 458h1v1h1l1 1-1 1h-1a5 5 0 0 1-2 1h-1a7 7 0 0 1-2-1 18 18 0 0 1-2-1v-2h1l1-1a5 5 0 0 1 3 0l1 1Zm-2 3h2l1-1-1-1a16 16 0 0 0-1-1h-3l-1 1 1 1a18 18 0 0 0 2 1Z" fill="#455A64" />
      <path opacity=".1" d="m482 561 31 18h3l122-70v-2l-32-18h-2l-122 71v1Z" fill="#000" />
      <path d="m638 504-122 70h-3l-31-18-1-2v-6l1-2 122-71h3l31 18 1 3v5l-1 3Z" fill="#0E4686" />
      <path d="m638 504-122 70h-3l-31-18-1-2v-6l1-2 122-71h3l31 18 1 3v5l-1 3Z" fill="#000" fill-opacity=".2" />
      <path d="m482 547 31 18h3l122-70v-2l-31-18h-3l-122 71v1Z" fill="#0E4686" />
      <path d="m482 547 31 18h3l122-70v-2l-31-18h-3l-122 71v1Z" fill="#000" fill-opacity=".2" />
      <path opacity=".2" d="m482 546-1 2v6l1 2 31 18h2v-8l-2-1-31-18v-1Z" fill="#000" />
      <path opacity=".4" d="M638 494v1l-122 70-1 1v8h1l122-70 1-3v-5l-1-2Z" fill="#fff" />
      <path d="m513 545-1-1v-2l2-2a9 9 0 0 1 8 0l1 1h1l1 1 1 1 1 1-1 1-1 2a9 9 0 0 1-7 1 9 9 0 0 1-3-1v-1h-1l-1-1Zm7-4a5 5 0 0 0-4 0l-2 2 1 1a31 31 0 0 0 3 2 5 5 0 0 0 5 0l1-2-1-1a28 28 0 0 0-3-2ZM525 534l3-1 4 1 1 1v2l6 1-1 1h-2l-5-1-2 1 3 2 1 1h-1l-1 1h-1l-9-6h-1 1l4-3Zm2 4 2-1 1-1v-1h-4l-2 2 3 1ZM535 528a9 9 0 0 1 4-1l2 1h2l2 2 2 1v2l-2 2-4 2-10-6 4-3Zm6 1a5 5 0 0 0-2 0 5 5 0 0 0-3 1l-2 1 7 4 2-1 1-1v-2h-1l-2-2ZM557 526h2v1l-7 4h-1l-10-6 7-4h2v1l-5 3 2 1 5-3h1l1 1-5 3 3 2 5-3ZM555 517l3-1 4 1 1 1v1l6 1v1l-1 1h-1l-6-1-2 1 4 2v1h-2l-10-5v-1l4-2Zm2 4 2-1 1-1v-1l-2-1-1 1-3 1 3 2ZM568 509l4-1 4 1 1 1v2l5 1h1l-2 1h-1l-5-1-2 1 3 2v1h-2l-10-5v-1l4-2Zm3 4 2-1 1-1-1-1-1-1-2 1-2 1 3 2ZM585 512h-1l-9-6h-1l1-1h2l9 5 1 1h-1l-1 1ZM583 501a9 9 0 0 1 4-2l2 1h2l3 2 1 1 1 1-1 1-2 2-3 2h-1l-10-6 4-2Zm6 1a5 5 0 0 0-2-1 5 5 0 0 0-2 1l-2 1 6 4 2-1 1-1 1-1h-1v-1l-3-1ZM605 498h2v1l-7 4h-1l-9-6h-1 1l6-4h1l1 1-5 3 3 1 4-2 1-1v1h1v1l-5 2 3 2 5-3Z" fill="#fff" />
      <path d="M168 231v-7a88 88 0 0 1 39-71c10-6 19-6 26-3l-14-8a20 20 0 0 0-13-3 22 22 0 0 0-4 1 28 28 0 0 0-6 2 65 65 0 0 0-5 2 90 90 0 0 0-39 71v6c0 27 36 56 36 56l14 9v-1c-11-10-34-34-34-54Zm43-57a16 16 0 0 1 0 3v1a44 44 0 0 1-21 35l-1 1h-1c1 10 9 13 19 7 11-6 20-21 20-34 0-11-7-16-16-13Z" fill="#0E4686" />
      <path d="M168 231v-7a88 88 0 0 1 39-71c10-6 19-6 26-3l-14-8a20 20 0 0 0-13-3 22 22 0 0 0-4 1 28 28 0 0 0-6 2 65 65 0 0 0-5 2 90 90 0 0 0-39 71v6c0 27 36 56 36 56l14 9v-1c-11-10-34-34-34-54Zm43-57a16 16 0 0 1 0 3v1a44 44 0 0 1-21 35l-1 1h-1c1 10 9 13 19 7 11-6 20-21 20-34 0-11-7-16-16-13Z" fill="#000" fill-opacity=".2" />
      <path opacity=".2" d="M168 231v-7a88 88 0 0 1 39-71c10-6 19-6 26-3l-14-8a20 20 0 0 0-13-3 22 22 0 0 0-4 1 28 28 0 0 0-6 2 65 65 0 0 0-5 2 90 90 0 0 0-39 71v6c0 27 36 56 36 56l14 9v-1c-11-10-34-34-34-54Z" fill="#000" />
      <path opacity=".5" d="M211 174v4a44 44 0 0 1-21 35l-1 1h-1c1 10 9 13 19 7 11-6 20-21 20-34 0-11-7-16-16-13Z" fill="#000" />
      <path d="M247 179c0-27-18-39-40-26a90 90 0 0 0-39 71v7c0 20 23 44 34 54 2 3 7 2 8-1 9-19 37-77 37-99v-6Zm-40 42c-11 7-20 2-20-11s9-28 20-34 20-1 20 11c0 13-9 28-20 34Z" fill="#0E4686" />
      <path d="M247 179c0-27-18-39-40-26a90 90 0 0 0-39 71v7c0 20 23 44 34 54 2 3 7 2 8-1 9-19 37-77 37-99v-6Zm-40 42c-11 7-20 2-20-11s9-28 20-34 20-1 20 11c0 13-9 28-20 34Z" fill="#000" fill-opacity=".2" />
      <path d="m233 150-14-8a20 20 0 0 0-13-3 22 22 0 0 0-4 1 28 28 0 0 0-6 2 68 68 0 0 0-5 2c-14 8-27 26-34 44l16 10c6-19 19-36 34-45 10-6 19-6 26-3Z" fill="#0E4686" />
      <path d="m233 150-14-8a20 20 0 0 0-13-3 22 22 0 0 0-4 1 28 28 0 0 0-6 2 68 68 0 0 0-5 2c-14 8-27 26-34 44l16 10c6-19 19-36 34-45 10-6 19-6 26-3Z" fill="#000" fill-opacity=".2" />
      <path opacity=".3" d="m233 150-14-8a20 20 0 0 0-13-3 22 22 0 0 0-4 1 28 28 0 0 0-6 2 68 68 0 0 0-5 2c-14 8-27 26-34 44l16 10c6-19 19-36 34-45 10-6 19-6 26-3Z" fill="#fff" />
      <path d="m207 153-2 2-3 1-4 4-4 4-2 2-2 2a98 98 0 0 0-20 40l-1 6-1 5v12l-1-6v-6l1-6 1-5a94 94 0 0 1 21-41c5-5 10-10 17-14Z" fill="#0E4686" />
      <path d="m207 153-2 2-3 1-4 4-4 4-2 2-2 2a98 98 0 0 0-20 40l-1 6-1 5v12l-1-6v-6l1-6 1-5a94 94 0 0 1 21-41c5-5 10-10 17-14Z" fill="#000" fill-opacity=".2" />
      <path d="m207 153-2 2-3 1-4 4-4 4-2 2-2 2a98 98 0 0 0-20 40l-1 6-1 5v12l-1-6v-6l1-6 1-5a94 94 0 0 1 21-41c5-5 10-10 17-14Z" fill="#fff" opacity=".5" />
      <path d="m30 573 172 99c47 27 106 27 153 0l132-77-125-72-52 30a64 64 0 0 1-64 0l-91-52a88 88 0 0 0-79-1l-46 27c-22 12-22 33 0 46Z" fill="#E0E0E0" />
      <path d="m349 598-21 12-13 7 7 6 15-8 21-12-9-5ZM420 557l-26 15 9 5 26-15-9-5ZM222 606l-9 6 7 3c11 6 22 11 35 13l4-6c-11-3-21-6-30-12l-7-4ZM114 544l-34-20-9 6 35 19 8-5ZM134 565l34 20 9-5-35-20-8 5Z" fill="#FAFAFA" />
      <path opacity=".1" d="m99 504-65 38c-9 5-9 14 0 19l123 71c46 27 136-36 99-57l-123-71c-10-5-24-5-34 0Z" fill="#000" />
      <path d="M95 468c3-1 16-6 31 3l20 12s11 11 24 18l43 21-2 1c-7 3-25 20-37 15-15-5-79-70-79-70Z" fill="#0E4686" />
      <path d="M95 468c3-1 16-6 31 3l20 12s11 11 24 18l43 21-2 1c-7 3-25 20-37 15-15-5-79-70-79-70Z" fill="#000" fill-opacity=".2" />
      <path opacity=".2" d="M202 517s-30-13-34-16l-9-6c-2-2-1 3 6 7 10 6 37 15 37 15Z" fill="#fff" />
      <path d="M157 486v5c-1 3 0 5 1 7l5 5c15 9 50 19 50 19l-2 1-41-5-18-12-1-19 3-2 3 1Z" fill="#37474F" />
      <path d="M151 487v1l2 3h2l2-1v-4l-3-1-3 2Z" fill="#0E4686" />
      <path d="M151 487v1l2 3h2l2-1v-4l-3-1-3 2Z" fill="#000" fill-opacity=".2" />
      <path opacity=".3" d="M151 487v1l2 3h2l2-1v-4l-3-1-3 2Z" fill="#000" />
      <path d="M88 474c3-7 9-7 18-6 1 0 24 5 37 10 10 4 13 7 13 7 2 1-1 3-3 2v4c0 7 2 8 5 12l8 5c4 2 4 0 15 4 5 2 28 11 31 11l-62 39-20 14-89-71 47-31Z" fill="#0E4686" />
      <path d="M88 474c3-7 9-7 18-6 1 0 24 5 37 10 10 4 13 7 13 7 2 1-1 3-3 2v4c0 7 2 8 5 12l8 5c4 2 4 0 15 4 5 2 28 11 31 11l-62 39-20 14-89-71 47-31Z" fill="#000" fill-opacity=".2" />
      <path d="m153 487-7-5-60 32 10 6v37l57-34v-36Z" fill="#0E4686" />
      <path d="m153 487-7-5-60 32 10 6v37l57-34v-36Z" fill="#000" fill-opacity=".2" />
      <path opacity=".3" d="m153 487-7-5-61 30-15 2 3 12 23 31 57-34v-36Z" fill="#000" />
      <path opacity=".2" d="m136 476 7 3c-1 1-32-7-38-8-5-2-10-2-3-4 7-1 11-1 15 1l12 5-20-5c-1 0-3 0 2 2l25 6Z" fill="#fff" />
      <path opacity=".3" d="m169 543-2-35c5 3 4 0 14 4a509 509 0 0 0 30 11l-36 23-6-3Z" fill="#000" />
      <path d="m31 539 25-14-14-8-13 8 2 14Z" fill="#0E4686" />
      <path d="m31 539 25-14-14-8-13 8 2 14Z" fill="#000" fill-opacity=".2" />
      <path opacity=".5" d="m31 539 25-14-14-8-13 8 2 14Z" fill="#000" />
      <path d="m42 535-4-6 8-5c3-2 7-2 10 1 9 4 15 17 15 27 0 5-1 9-4 11h-1l-8 5-4-7c-7-6-12-16-12-26Z" fill="#37474F" />
      <path d="m42 535-4-6 8-5c3-2 7-2 10 1 9 4 15 17 15 27 0 5-1 9-4 11h-1l-8 5-4-7c-7-6-12-16-12-26Z" fill="#263238" />
      <path d="M33 540c0 9 5 19 12 25l3 2c8 5 15 0 15-10 0-8-4-17-9-23h-1l-5-4c-8-5-15-1-15 10Z" fill="#37474F" />
      <path d="M48 536c-5-3-10 0-10 7s5 15 10 18 9 0 9-7-4-15-9-18Z" fill="#455A64" />
      <path d="M44 546c0 4 2 7 4 8h3l1-4c0-3-2-7-5-8h-1c-2 0-3 2-2 4Z" fill="#FAFAFA" />
      <path d="M44 546c1 3 3 7 5 8h2l1-4c0-3-2-7-5-8h-1l-2 4Z" fill="#E0E0E0" />
      <path d="M33 540c0 9 5 19 12 25-4-5-8-12-10-19-1-6-1-14 4-16 6-2 12 2 14 4l-5-4c-8-5-15-1-15 10Z" fill="#455A64" />
      <path d="M29 505c3-7 16-14 21-12l12 7 22 13-12 1c-2 1-2 2-1 3l1 3c2 12 21 17 25 22l4 3 19 10 9 5v35l-62-35v-3c-1-12-9-25-18-30-10-5-18 0-18 12l-1-1c-6-3-4-26-1-33Z" fill="#0E4686" />
      <path d="M29 505c3-7 16-14 21-12l12 7 22 13-12 1c-2 1-2 2-1 3l1 3c2 12 21 17 25 22l4 3 19 10 9 5v35l-62-35v-3c-1-12-9-25-18-30-10-5-18 0-18 12l-1-1c-6-3-4-26-1-33Z" fill="#000" fill-opacity=".2" />
      <path d="M63 514c4 0 4 2 5 5s3 6 1 5l-9-8c-3-3 1-2 3-2Z" fill="#000" />
      <path d="M45 493h5l12 7 8 5 43-25-22-10c-6-3-45 19-46 23Z" fill="#0E4686" />
      <path d="M45 493h5l12 7 8 5 43-25-22-10c-6-3-45 19-46 23Z" fill="#000" fill-opacity=".2" />
      <path opacity=".2" d="m128 562-33-19-1 3 34 16Z" fill="#fff" />
      <path d="M100 551v-1l-2-3-2-1h-3v1l1 1 6 3Z" fill="#37474F" />
      <path opacity=".2" d="m76 533 13 7-2 3s-34-20-42-27c-9-8-13-14-7-18 2-1 4-3 6-2l1 1c2 8 8 13 13 19l18 17Z" fill="#fff" />
      <path opacity=".1" d="M139 480s-40-12-43-10 35 19 35 19l8-9ZM124 586c2 1 2-2 3-8v-17 23c0 7-1 7-3 6l-33-21 33 17ZM93 542s-2 2-2 7v19l-2-20c0-4 2-7 2-7l2 1ZM56 531l2-6 7-2-6 3-3 5ZM37 525s-6-3-7-6c-2-2-2-10-2-10s-1 9 1 11c1 2 8 5 8 5Z" fill="#000" />
      <path d="m52 507 18-13a797 797 0 0 1 40-22l3-1c5-1 14-3 23-2 7 0 43 18 47 22l6 7s-5-4-8-3c-2 1-16 13-25 18l-31 14c-4 2-1 6-1 6l-5-6-21-12-7-2-17 1-19-5h-3v-2Z" fill="#0E4686" />
      <path d="m52 507 18-13a797 797 0 0 1 40-22l3-1c5-1 14-3 23-2 7 0 43 18 47 22l6 7s-5-4-8-3c-2 1-16 13-25 18l-31 14c-4 2-1 6-1 6l-5-6-21-12-7-2-17 1-19-5h-3v-2Z" fill="#000" fill-opacity=".2" />
      <path opacity=".1" d="m121 528-16-10c-10-6-12-7-22-7H60l-1-1h1l18-5 12-7 34-20c10-7 11-9 16-8a194 194 0 0 1 43 21v2l-1 2h-1c-2 1-13 11-23 17l-2 1-29 13-6 2Z" fill="#fff" />
      <path opacity=".1" d="m59 509 9-1 10-3 12-7 34-20c10-7 11-9 16-8l-4-1c-10-1-22 2-26 3l-5 2a275 275 0 0 0-35 20l-18 13v2h7Z" fill="#000" />
      <path d="M64 507c9-2 16-5 21-8l33-20c8-4 10-7 6-7l-9 1-12 5-33 19c-21 13-14 11-6 10Z" fill="#37474F" />
      <path d="M71 521c1 4 1 6 4 8l21 14 3 1 23 14s17 8 16 5l-13-29c-2-4-3-6-7-9l-19-11h-1c-3-2-6-3-11-3l-17 2c-2 1-1 3 1 8Zm25 17v-21l1-1h1l19 11c2 1 4 4 5 7l12 27-22-11-14-8c-2-1-2-2-2-4Zm-5-24c2 0 3 1 3 4v18c0 1-1 3-2 2l-16-11c-3-2-4-10-5-12 0-2 17-2 20-1Z" fill="#263238" />
      <path d="m98 542 14 8 22 11-12-27c-1-3-3-6-5-7l-19-11h-1l-1 1v21c0 2 0 3 2 4ZM71 515c1 2 2 10 5 12l16 11c1 1 2-1 2-2v-18c0-3-1-4-3-4-3-1-20-1-20 1Z" fill="#263238" />
      <path opacity=".3" d="m98 542 14 8 22 11-12-27c-1-3-3-6-5-7l-19-11h-1l-1 1v21c0 2 0 3 2 4ZM71 515c1 2 2 10 5 12l16 11c1 1 2-1 2-2v-18c0-3-1-4-3-4-3-1-20-1-20 1Z" fill="#000" />
      <path d="m141 562 34-23c18-10 36-16 36-16 0 2-3 5-7 8l-10 8-20 12c-16 8-31 15-34 12l1-1Z" fill="#455A64" />
      <path d="m140 563 36-23 35-17c-2 1-18 6-36 16l-35 24Z" fill="#37474F" />
      <path d="M208 516v3l5 5 2-3v-3c0-2-1-8-4-10l-2 1-1 2v5Z" fill="#0E4686" />
      <path d="M208 516v3l5 5 2-3v-3c0-2-1-8-4-10l-2 1-1 2v5Z" fill="#000" fill-opacity=".2" />
      <path opacity=".3" d="M208 516v3l5 5 2-3v-3c0-2-1-8-4-10l-2 1-1 2v5Z" fill="#000" />
      <path d="m208 519 5 5 2-3v-3c0-2-1-8-4-10l-2 1v1c3 1 3 5 3 8 0 2-2 2-4 1Z" fill="#0E4686" />
      <path d="m208 519 5 5 2-3v-3c0-2-1-8-4-10l-2 1v1c3 1 3 5 3 8 0 2-2 2-4 1Z" fill="#000" fill-opacity=".2" />
      <path opacity=".3" d="m208 519 5 5 2-3v-3c0-2-1-8-4-10l-2 1v1c3 1 3 5 3 8 0 2-2 2-4 1Z" fill="#000" />
      <path d="M208 511c1-1 3-1 5 1l2 9v-3c0-2-1-8-4-10-2 0-3 1-3 3Z" fill="#37474F" />
      <path d="m129 595 24-14-13-8-11 6v16Z" fill="#0E4686" />
      <path d="m129 595 24-14-13-8-11 6v16Z" fill="#000" fill-opacity=".2" />
      <path opacity=".5" d="m129 595 24-14-13-8-11 6v16Z" fill="#000" />
      <path d="m139 592-3-7 8-5c3-2 6-2 10 1 8 4 15 17 15 27 0 5-2 9-5 11l-9 5-3-7c-7-6-13-16-13-25Z" fill="#37474F" />
      <path d="m139 592-3-7 8-5c3-2 6-2 10 1 8 4 15 17 15 27 0 5-2 9-5 11l-9 5-3-7c-7-6-13-16-13-25Z" fill="#263238" />
      <path d="M131 596c0 9 4 19 11 25l3 2c9 5 15 0 15-10 0-8-4-17-9-23l-6-4c-8-5-14-1-14 10Z" fill="#37474F" />
      <path d="M145 592c-5-3-9 0-9 7s4 15 9 18c6 3 10 0 10-7s-4-15-10-18Z" fill="#455A64" />
      <path d="M141 602c0 4 3 8 5 9l3-1 1-4c-1-3-3-7-5-8h-2l-2 4Z" fill="#FAFAFA" />
      <path d="M142 602c0 3 2 7 5 8h2l1-4c-1-3-3-7-5-8h-2l-1 4Z" fill="#E0E0E0" />
      <path d="M131 596c0 9 4 19 11 25-4-5-8-12-9-18-2-6-1-15 4-17s12 2 14 4l-6-4c-8-5-14-1-14 10Z" fill="#455A64" />
      <path d="M129 560s2 0 1-1l10 4c4 1 18-4 34-12l20-12a134 134 0 0 0 17-14v-4c31 22 47 31 44 55l-1 6c-1 5-4 15-11 20l-17 10c-10 6-23 9-35 9-14-1-27-6-27-9l-1-4-4-11a37 37 0 0 0-12-14c-9-5-17-1-18 10v2-35Z" fill="#0E4686" />
      <path d="M129 560s2 0 1-1l10 4c4 1 18-4 34-12l20-12a134 134 0 0 0 17-14v-4c31 22 47 31 44 55l-1 6c-1 5-4 15-11 20l-17 10c-10 6-23 9-35 9-14-1-27-6-27-9l-1-4-4-11a37 37 0 0 0-12-14c-9-5-17-1-18 10v2-35Z" fill="#000" fill-opacity=".2" />
      <path d="M212 614a76 76 0 0 0 34-19c2-3 4-7 2-6l-10 8c-10 6-20 13-35 13h-3c-4 2 6 6 12 4ZM180 607l7 2 6 2 6 4c2 1 0 2-7 2-6 0-9-2-10-4-2-2-4-6-2-6ZM255 578l-1 4-2 8h-1c-2 0-1-2 0-4l4-8Z" fill="#455A64" />
      <path opacity=".8" d="M237 570c-8 6-17 11-28 16-1 0-2 2-1 3l5 5h5c9-3 16-7 21-12 1-1 3-3 3-5l-1-7h-4Z" fill="#fff" />
      <path d="m215 593 3-1c8-3 15-7 20-11l2-4-1-6h-1a157 157 0 0 1-29 17l5 5h1Z" fill="#0E4686" />
      <path d="m215 593 3-1c8-3 15-7 20-11l2-4-1-6h-1a157 157 0 0 1-29 17l5 5h1Z" fill="#000" fill-opacity=".2" />
      <path opacity=".3" d="m215 593 3-1c8-3 15-7 20-11l2-4-1-6h-1a157 157 0 0 1-29 17l5 5h1Z" fill="#000" />
      <path d="M229 588h1l-4-10-1 1s3 4 4 9Z" fill="#0E4686" />
      <path d="M229 588h1l-4-10-1 1s3 4 4 9Z" fill="#000" fill-opacity=".2" />
      <path opacity=".8" d="M229 588h1l-4-10-1 1s3 4 4 9Z" fill="#fff" />
      <path d="M209 589a143 143 0 0 0 31-18 247 247 0 0 1-32 18h1Z" fill="#0E4686" />
      <path d="M209 589a143 143 0 0 0 31-18 247 247 0 0 1-32 18h1Z" fill="#000" fill-opacity=".2" />
      <path d="M209 590a139 139 0 0 0 31-18 218 218 0 0 1-31 17v1Z" fill="#0E4686" />
      <path d="M209 590a139 139 0 0 0 31-18 218 218 0 0 1-31 17v1Z" fill="#000" fill-opacity=".2" />
      <path d="M210 590a133 133 0 0 0 30-17 190 190 0 0 1-30 17Z" fill="#0E4686" />
      <path d="M210 590a133 133 0 0 0 30-17 190 190 0 0 1-30 17Z" fill="#000" fill-opacity=".2" />
      <path d="M211 591c2 0 11-4 17-8l12-8v-1a167 167 0 0 1-29 17Z" fill="#0E4686" />
      <path d="M211 591c2 0 11-4 17-8l12-8v-1a167 167 0 0 1-29 17Z" fill="#000" fill-opacity=".2" />
      <path d="M212 592a120 120 0 0 0 28-16 145 145 0 0 1-28 16Z" fill="#0E4686" />
      <path d="M212 592a120 120 0 0 0 28-16 145 145 0 0 1-28 16Z" fill="#000" fill-opacity=".2" />
      <path d="m213 593 17-8 10-8a125 125 0 0 1-27 16Z" fill="#0E4686" />
      <path d="m213 593 17-8 10-8a125 125 0 0 1-27 16Z" fill="#000" fill-opacity=".2" />
      <path d="M214 594a110 110 0 0 0 27-16h-1l-10 7-16 8v1Z" fill="#0E4686" />
      <path d="M214 594a110 110 0 0 0 27-16h-1l-10 7-16 8v1Z" fill="#000" fill-opacity=".2" />
      <g opacity=".8" fill="#fff">
        <path d="M209 589a143 143 0 0 0 31-18 247 247 0 0 1-32 18h1Z" />
        <path d="M209 590a139 139 0 0 0 31-18 218 218 0 0 1-31 17v1Z" />
        <path d="M210 590a133 133 0 0 0 30-17 190 190 0 0 1-30 17Z" />
        <path d="M211 591c2 0 11-4 17-8l12-8v-1a167 167 0 0 1-29 17Z" />
        <path d="M212 592a120 120 0 0 0 28-16 145 145 0 0 1-28 16Z" />
        <path d="m213 593 17-8 10-8a125 125 0 0 1-27 16Z" />
        <path d="M214 594a110 110 0 0 0 27-16h-1l-10 7-16 8v1Z" />
      </g>
      <path opacity=".2" d="M215 528c1-1 22 14 24 17 3 3 2 3-1 7-2 6 1 10-1 10l-11-17c-7-9-14-17-11-17Z" fill="#fff" />
      <path opacity=".8" d="M182 594c-1-1-2-3-1-5l5-2c5-2 10-1 15 1l3 3 1 3c-1 5-9 6-14 5a17 17 0 0 1-9-5Z" fill="#fff" />
      <path d="M189 589c-2 0-6 0-6 2 1 3 4 5 7 5 2 1 4-3 3-5s-3-3-4-2ZM197 593c-1 0-3 1-3 3l3 1c2-1 2-4 0-4ZM200 590l1 1-1 2-3-2c-1-1 2-1 2-1h1Z" fill="#fff" />
      <path opacity=".8" d="m248 570-1 1-2-1-2-3c-2-4-7-14 0-16 2 0 5 2 6 4 2 2 3 5 3 9-1 2-1 5-4 6Z" fill="#fff" />
      <path d="M246 553h-4c-3 2 3 6 4 7 3 1 4-1 3-3l-3-4ZM249 563l-1 1v4c3-1 2-4 1-5ZM243 562l2 2c2 1 0-5-2-3v1Z" fill="#fff" />
      <path opacity=".1" d="M179 594s-10 0-17 8c6-4 11-7 17-8ZM209 530s15 13 27 35l-27-35ZM205 582s-23-12-58-16l58 16ZM255 573c-2 5-8 13-18 19-10 5-22 13-36 14-14 0-24-10-24-10s7 11 24 12c16 0 27-7 37-13 10-7 16-15 17-22Z" fill="#000" />
      <path opacity=".2" d="M165 598c-3-8-9-15-15-17 6 1 14 7 17 16l-2 1ZM167 599l1 11-2-10 1-1ZM180 586c-4 2-4 5-7 2-3-2-24-17-30-19-5-3 0-3 13 1l36 11c1 1-4 1-12 5Z" fill="#fff" />
      <path d="m121 527 16 37c4 5 39-12 59-27 10-7 17-14 16-16-9-11-18-21-29-30a82 82 0 0 1-12 11c-13 10-30 18-50 25Zm4 4c0-1 0-3 2-3a190 190 0 0 0 54-32h4c10 8 18 17 25 26-1 1-2 4-15 13a167 167 0 0 1-56 27l-14-31Z" fill="#37474F" />
      <path d="M139 562h1a167 167 0 0 0 70-40c-7-9-15-18-25-26a3 3 0 0 0-4 0l-8 7c-12 9-27 17-46 25-2 0-2 2-2 3l14 31Z" fill="#263238" />
      <path opacity=".2" d="m195 535-10 7-21-32a136 136 0 0 0 14-11c10 10 20 25 24 31l-7 5ZM157 513l4-2c4 5 12 16 21 32l-4 3-21-33Z" fill="#fff" />
      <path opacity=".3" d="M160 554c-9 5-20 8-21 6l-10-22c-2-6-2-7-1-8l21-11c12-5 24-16 24-16-12 9-27 17-46 25-2 0-2 2-2 3l14 31h1a403 403 0 0 1 20-8Z" fill="#fff" />
      <path d="M121 561c1 5 7 6 11 6l5-1c2-1 1-3 0-4-1-2-8-6-13-6-2 0-4 1-3 5Z" fill="#0E4686" />
      <path d="M121 561c1 5 7 6 11 6l5-1c2-1 1-3 0-4-1-2-8-6-13-6-2 0-4 1-3 5Z" fill="#000" fill-opacity=".2" />
      <path opacity=".3" d="M121 561c1 5 7 6 11 6l5-1c2-1 1-3 0-4-1-2-8-6-13-6-2 0-4 1-3 5Z" fill="#000" />
      <path d="M121 561c1 5 7 6 11 6l5-1c2-1 1-3 0-4 1 1-4 2-8 1s-7-5-5-7c-2 0-4 1-3 5Z" fill="#0E4686" />
      <path d="M121 561c1 5 7 6 11 6l5-1c2-1 1-3 0-4 1 1-4 2-8 1s-7-5-5-7c-2 0-4 1-3 5Z" fill="#000" fill-opacity=".2" />
      <path opacity=".3" d="M121 561c1 5 7 6 11 6l5-1c2-1 1-3 0-4 1 1-4 2-8 1s-7-5-5-7c-2 0-4 1-3 5Z" fill="#000" />
      <path d="M121 561c1 5 7 6 11 6-4 0-8-3-9-6-1-2 0-5 1-5-2 0-4 1-3 5Z" fill="#37474F" />
    </g>
  </g>
  <defs>
    <linearGradient id="b" x1="729.5" y1="364.4" x2=".5" y2="364.4" gradientUnits="userSpaceOnUse">
      <stop offset=".3" stop-color="#fff" />
      <stop offset="1" />
    </linearGradient>
    <clipPath id="a">
      <path fill="#fff" transform="translate(1)" d="M0 0h729v729H0z" />
    </clipPath>
  </defs>
</svg>