<svg width="586" height="611" fill="none" xmlns="http://www.w3.org/2000/svg">
  <g clip-path="url(#a)">
    <mask id="b" fill="#fff">
      <path d="M30 228h-2v-3l-1-1v-1l-1-2-1-1-5-1h-7v-1l2-2 1-1 1-1-1-1v-1l-1-1-2-2v-1h-1l-1-1-1-2-2-2-1-3-1-2-2-1v-1h1v-1l-2-1v-1l-2-2 1-1v-2h3v-2l-1-1 17 7 23 5 11 3 25 14 28 11 3 2h-1l-1 1-2 1-3 3-2 1h-2l-2 1-2 1-1 2v1l-1 1-1-1h-4l-1 1-2 4-4 1-2 1h-1v-2h-1l-4-1H62l-4 1-2 1-2-1-1-1-2 1v-18h1v-3l-1-1 1-1 1-1h-1l-3 3-2 1-2 2-2 1v1l-2 1H30Z" />
    </mask>
    <path d="M30 228h-2v-3l-1-1v-1l-1-2-1-1-5-1h-7v-1l2-2 1-1 1-1-1-1v-1l-1-1-2-2v-1h-1l-1-1-1-2-2-2-1-3-1-2-2-1v-1h1v-1l-2-1v-1l-2-2 1-1v-2h3v-2l-1-1 17 7 23 5 11 3 25 14 28 11 3 2h-1l-1 1-2 1-3 3-2 1h-2l-2 1-2 1-1 2v1l-1 1-1-1h-4l-1 1-2 4-4 1-2 1h-1v-2h-1l-4-1H62l-4 1-2 1-2-1-1-1-2 1v-18h1v-3l-1-1 1-1 1-1h-1l-3 3-2 1-2 2-2 1v1l-2 1H30Z" fill="#fff" />
    <path d="M30 228h-2v-3l-1-1v-1l-1-2-1-1-5-1h-7v-1l2-2 1-1 1-1-1-1v-1l-1-1-2-2v-1h-1l-1-1-1-2-2-2-1-3-1-2-2-1v-1h1v-1l-2-1v-1l-2-2 1-1v-2h3v-2l-1-1 17 7 23 5 11 3 25 14 28 11 3 2h-1l-1 1-2 1-3 3-2 1h-2l-2 1-2 1-1 2v1l-1 1-1-1h-4l-1 1-2 4-4 1-2 1h-1v-2h-1l-4-1H62l-4 1-2 1-2-1-1-1-2 1v-18h1v-3l-1-1 1-1 1-1h-1l-3 3-2 1-2 2-2 1v1l-2 1H30Z" stroke="#0E4686" stroke-width="2" mask="url(#b)" />
    <path d="M30 228h-2v-3l-1-1v-1l-1-2-1-1-5-1h-7v-1l2-2 1-1 1-1-1-1v-1l-1-1-2-2v-1h-1l-1-1-1-2-2-2-1-3-1-2-2-1v-1h1v-1l-2-1v-1l-2-2 1-1v-2h3v-2l-1-1 17 7 23 5 11 3 25 14 28 11 3 2h-1l-1 1-2 1-3 3-2 1h-2l-2 1-2 1-1 2v1l-1 1-1-1h-4l-1 1-2 4-4 1-2 1h-1v-2h-1l-4-1H62l-4 1-2 1-2-1-1-1-2 1v-18h1v-3l-1-1 1-1 1-1h-1l-3 3-2 1-2 2-2 1v1l-2 1H30Z" stroke="#000" stroke-opacity=".2" stroke-width="2" mask="url(#b)" />
    <path d="m562 233-1 1-4-2v-1h-2l-1-2-1-2-6-3-3-1-6-3h-1l-1-1h-1v-1l1-1v-1l2-1 3-3v-1l1 1 1 1h1v-1l3 2 1 2h1l1 1 2 1h1l2-1 3 1 1-1 2-1h1l2-1 2-2 1-1 2-1 2 1 3-1h1l2 1h2l-2 4-4 5-4 3-3 5-3 2-1 2Z" fill="#fff" />
    <path d="m562 233-1 1-4-2v-1h-2l-1-2-1-2-6-3-3-1-6-3h-1l-1-1h-1v-1l1-1v-1l2-1 3-3v-1l1 1 1 1h1v-1l3 2 1 2h1l1 1 2 1h1l2-1 3 1 1-1 2-1h1l2-1 2-2 1-1 2-1 2 1 3-1h1l2 1h2l-2 4-4 5-4 3-3 5-3 2-1 2Z" stroke="#0E4686" />
    <path d="m562 233-1 1-4-2v-1h-2l-1-2-1-2-6-3-3-1-6-3h-1l-1-1h-1v-1l1-1v-1l2-1 3-3v-1l1 1 1 1h1v-1l3 2 1 2h1l1 1 2 1h1l2-1 3 1 1-1 2-1h1l2-1 2-2 1-1 2-1 2 1 3-1h1l2 1h2l-2 4-4 5-4 3-3 5-3 2-1 2Z" stroke="#000" stroke-opacity=".2" />
    <mask id="c" fill="#fff">
      <path d="m159 46 1 1h3v1l1 1h3l2 1v4l-1 1 2 4 2 4v3l1 1-1 1v2l1 1-1 3-1 1 1 5v2l2 1v1l1 4-1 2-2-1v1l5 5 2 1 2 2 1 2 1-1 3 1-1-2 1-2v-3l1-3 1-1 1-1 2-1v-1h2l3 1 1 2 1 3h2l1-1 2-1 2-1-1-2v-1l1-3v-1l1-3 3-3h17l1 4-1 2v2l1 1h1l1 1h-1v2l2 2v1l1-1 2 2v2l1 1 4 3 4 3h1l1 2h2l2 1 2 1h2l1 1v1l1 1 3 1 1 2 2 1v-1h2v1l2 2-29 61-1 1-1 2h-1v2l1 2 1 1 2 1 1 2v2l-1 1v3l-1 2-1 1v2l1 2-2 4-1 5-1 1h-46 1l-1-1h-1l-2 1v2h-1l-3-1-1-3h-1l-1-1-1-3-2-1-2-1-1-2-2-1h-10l-2 2-1 1v1l-3 1-1 1v1h1v2l-1 1-2 1v3h-6l-1 1h-3l-1 1-1 1v1l-2 3h-1l-1-2-2 1-1 1h-3l-1 1v1h-1l-3-2h-7v2l-1 1-2 1-3 2-28-11-25-14-11-3-23-5-17-7v-4l2-1 4-3 2-1h1l1-1v-1l-2-5 1-1 1-2 1-1 1-1v-1l1-2-1-1 1-2v-2l1-1 3-2 3-1 1-1v-1h1l1-1h2l3-3h4l4-1 1-1h5l1-2 1-1 1-1 2 1h2l1-1h2v2l1 1h4v-1l1-5 7-35 1-3-1-5-1-1-2-3 1-2-1-1v-1h-2l-3-2-1-3V70h3l2-1 4-1 2 2h2v-4l-1-2h-1l-1-1-1 1-3-1h-3v-9h1l1-1h5l18 1v-1h-1l-1-1 1-2h2v2l1 1h3l2-2v-1l1-1 3-2 1 1 1 2 2 2v1l1 2v7l3-1 8 7h3l2-1 2-1 2-1 2-1 1 1v2l-1 1 1 1h1l1-1v-1l1-1 1-1 1 1v-1h1v-3h2l3-2 1 1v-1l2-1 1-1 2-1h2l2-1 1-1v-4l1-1h2l2-1 2-1h1l2-1v-1Z" />
    </mask>
    <path d="m159 46 1 1h3v1l1 1h3l2 1v4l-1 1 2 4 2 4v3l1 1-1 1v2l1 1-1 3-1 1 1 5v2l2 1v1l1 4-1 2-2-1v1l5 5 2 1 2 2 1 2 1-1 3 1-1-2 1-2v-3l1-3 1-1 1-1 2-1v-1h2l3 1 1 2 1 3h2l1-1 2-1 2-1-1-2v-1l1-3v-1l1-3 3-3h17l1 4-1 2v2l1 1h1l1 1h-1v2l2 2v1l1-1 2 2v2l1 1 4 3 4 3h1l1 2h2l2 1 2 1h2l1 1v1l1 1 3 1 1 2 2 1v-1h2v1l2 2-29 61-1 1-1 2h-1v2l1 2 1 1 2 1 1 2v2l-1 1v3l-1 2-1 1v2l1 2-2 4-1 5-1 1h-46 1l-1-1h-1l-2 1v2h-1l-3-1-1-3h-1l-1-1-1-3-2-1-2-1-1-2-2-1h-10l-2 2-1 1v1l-3 1-1 1v1h1v2l-1 1-2 1v3h-6l-1 1h-3l-1 1-1 1v1l-2 3h-1l-1-2-2 1-1 1h-3l-1 1v1h-1l-3-2h-7v2l-1 1-2 1-3 2-28-11-25-14-11-3-23-5-17-7v-4l2-1 4-3 2-1h1l1-1v-1l-2-5 1-1 1-2 1-1 1-1v-1l1-2-1-1 1-2v-2l1-1 3-2 3-1 1-1v-1h1l1-1h2l3-3h4l4-1 1-1h5l1-2 1-1 1-1 2 1h2l1-1h2v2l1 1h4v-1l1-5 7-35 1-3-1-5-1-1-2-3 1-2-1-1v-1h-2l-3-2-1-3V70h3l2-1 4-1 2 2h2v-4l-1-2h-1l-1-1-1 1-3-1h-3v-9h1l1-1h5l18 1v-1h-1l-1-1 1-2h2v2l1 1h3l2-2v-1l1-1 3-2 1 1 1 2 2 2v1l1 2v7l3-1 8 7h3l2-1 2-1 2-1 2-1 1 1v2l-1 1 1 1h1l1-1v-1l1-1 1-1 1 1v-1h1v-3h2l3-2 1 1v-1l2-1 1-1 2-1h2l2-1 1-1v-4l1-1h2l2-1 2-1h1l2-1v-1Z" fill="#fff" />
    <path d="m159 46 1 1h3v1l1 1h3l2 1v4l-1 1 2 4 2 4v3l1 1-1 1v2l1 1-1 3-1 1 1 5v2l2 1v1l1 4-1 2-2-1v1l5 5 2 1 2 2 1 2 1-1 3 1-1-2 1-2v-3l1-3 1-1 1-1 2-1v-1h2l3 1 1 2 1 3h2l1-1 2-1 2-1-1-2v-1l1-3v-1l1-3 3-3h17l1 4-1 2v2l1 1h1l1 1h-1v2l2 2v1l1-1 2 2v2l1 1 4 3 4 3h1l1 2h2l2 1 2 1h2l1 1v1l1 1 3 1 1 2 2 1v-1h2v1l2 2-29 61-1 1-1 2h-1v2l1 2 1 1 2 1 1 2v2l-1 1v3l-1 2-1 1v2l1 2-2 4-1 5-1 1h-46 1l-1-1h-1l-2 1v2h-1l-3-1-1-3h-1l-1-1-1-3-2-1-2-1-1-2-2-1h-10l-2 2-1 1v1l-3 1-1 1v1h1v2l-1 1-2 1v3h-6l-1 1h-3l-1 1-1 1v1l-2 3h-1l-1-2-2 1-1 1h-3l-1 1v1h-1l-3-2h-7v2l-1 1-2 1-3 2-28-11-25-14-11-3-23-5-17-7v-4l2-1 4-3 2-1h1l1-1v-1l-2-5 1-1 1-2 1-1 1-1v-1l1-2-1-1 1-2v-2l1-1 3-2 3-1 1-1v-1h1l1-1h2l3-3h4l4-1 1-1h5l1-2 1-1 1-1 2 1h2l1-1h2v2l1 1h4v-1l1-5 7-35 1-3-1-5-1-1-2-3 1-2-1-1v-1h-2l-3-2-1-3V70h3l2-1 4-1 2 2h2v-4l-1-2h-1l-1-1-1 1-3-1h-3v-9h1l1-1h5l18 1v-1h-1l-1-1 1-2h2v2l1 1h3l2-2v-1l1-1 3-2 1 1 1 2 2 2v1l1 2v7l3-1 8 7h3l2-1 2-1 2-1 2-1 1 1v2l-1 1 1 1h1l1-1v-1l1-1 1-1 1 1v-1h1v-3h2l3-2 1 1v-1l2-1 1-1 2-1h2l2-1 1-1v-4l1-1h2l2-1 2-1h1l2-1v-1Z" stroke="#0E4686" stroke-width="2" mask="url(#c)" />
    <path d="m159 46 1 1h3v1l1 1h3l2 1v4l-1 1 2 4 2 4v3l1 1-1 1v2l1 1-1 3-1 1 1 5v2l2 1v1l1 4-1 2-2-1v1l5 5 2 1 2 2 1 2 1-1 3 1-1-2 1-2v-3l1-3 1-1 1-1 2-1v-1h2l3 1 1 2 1 3h2l1-1 2-1 2-1-1-2v-1l1-3v-1l1-3 3-3h17l1 4-1 2v2l1 1h1l1 1h-1v2l2 2v1l1-1 2 2v2l1 1 4 3 4 3h1l1 2h2l2 1 2 1h2l1 1v1l1 1 3 1 1 2 2 1v-1h2v1l2 2-29 61-1 1-1 2h-1v2l1 2 1 1 2 1 1 2v2l-1 1v3l-1 2-1 1v2l1 2-2 4-1 5-1 1h-46 1l-1-1h-1l-2 1v2h-1l-3-1-1-3h-1l-1-1-1-3-2-1-2-1-1-2-2-1h-10l-2 2-1 1v1l-3 1-1 1v1h1v2l-1 1-2 1v3h-6l-1 1h-3l-1 1-1 1v1l-2 3h-1l-1-2-2 1-1 1h-3l-1 1v1h-1l-3-2h-7v2l-1 1-2 1-3 2-28-11-25-14-11-3-23-5-17-7v-4l2-1 4-3 2-1h1l1-1v-1l-2-5 1-1 1-2 1-1 1-1v-1l1-2-1-1 1-2v-2l1-1 3-2 3-1 1-1v-1h1l1-1h2l3-3h4l4-1 1-1h5l1-2 1-1 1-1 2 1h2l1-1h2v2l1 1h4v-1l1-5 7-35 1-3-1-5-1-1-2-3 1-2-1-1v-1h-2l-3-2-1-3V70h3l2-1 4-1 2 2h2v-4l-1-2h-1l-1-1-1 1-3-1h-3v-9h1l1-1h5l18 1v-1h-1l-1-1 1-2h2v2l1 1h3l2-2v-1l1-1 3-2 1 1 1 2 2 2v1l1 2v7l3-1 8 7h3l2-1 2-1 2-1 2-1 1 1v2l-1 1 1 1h1l1-1v-1l1-1 1-1 1 1v-1h1v-3h2l3-2 1 1v-1l2-1 1-1 2-1h2l2-1 1-1v-4l1-1h2l2-1 2-1h1l2-1v-1Z" stroke="#000" stroke-opacity=".2" stroke-width="2" mask="url(#c)" />
    <mask id="d" fill="#fff">
      <path d="M330 96h-5l-2-1v-2l-2-1v-4h-1l-1-1v-2l-2-3h-2l-1-3v-2l-1-2-1-2v-5l-2-1-2-2-1-3h1l-1-2-3-2h-1l-2 1v-1l-1-1h-1l-1-1-1-1-1-1-1-1h-7v-1l-1-1 1-4v-4h-1 2v1h-1l1 1h2v1h1l2 1 3 1 3-2v-1l2-1h1v1l3 1h1l2-1v-1l1 2h3v1h2v-1l2-1 2-1 1-2 1-1v-1l2-6 1-2 1-1 4-6v-1l1-1 2-1v-2l2-1 1-1h1v1l1 1-2-4v-2l4 2 1 2 1 1v2l1 1v-1 1l1 7v4l3 6 2 8 4 5h4l2 1 2 1v6h-1l-2 1h3v1l-5 4-1 2-2 1-2 4-3 3v1h-3l-2 3h-1l-1 1-1 1-1 3-1 1-1 1-3 3v4l-2 2h-1Zm23-45h-1l-1-2v-1l2-1v1l1 2-1 1Zm2 17-1-1 2-1h2v-1 2l-1 1h-2Zm3-3h-1l1-1 1-1 1 1h-1l-1 1Zm-7-17v-2h1l1 1-2 1Z" />
    </mask>
    <path d="M330 96h-5l-2-1v-2l-2-1v-4h-1l-1-1v-2l-2-3h-2l-1-3v-2l-1-2-1-2v-5l-2-1-2-2-1-3h1l-1-2-3-2h-1l-2 1v-1l-1-1h-1l-1-1-1-1-1-1-1-1h-7v-1l-1-1 1-4v-4h-1 2v1h-1l1 1h2v1h1l2 1 3 1 3-2v-1l2-1h1v1l3 1h1l2-1v-1l1 2h3v1h2v-1l2-1 2-1 1-2 1-1v-1l2-6 1-2 1-1 4-6v-1l1-1 2-1v-2l2-1 1-1h1v1l1 1-2-4v-2l4 2 1 2 1 1v2l1 1v-1 1l1 7v4l3 6 2 8 4 5h4l2 1 2 1v6h-1l-2 1h3v1l-5 4-1 2-2 1-2 4-3 3v1h-3l-2 3h-1l-1 1-1 1-1 3-1 1-1 1-3 3v4l-2 2h-1Zm23-45h-1l-1-2v-1l2-1v1l1 2-1 1Zm2 17-1-1 2-1h2v-1 2l-1 1h-2Zm3-3h-1l1-1 1-1 1 1h-1l-1 1Zm-7-17v-2h1l1 1-2 1Z" fill="#fff" />
    <path d="M330 96h-5l-2-1v-2l-2-1v-4h-1l-1-1v-2l-2-3h-2l-1-3v-2l-1-2-1-2v-5l-2-1-2-2-1-3h1l-1-2-3-2h-1l-2 1v-1l-1-1h-1l-1-1-1-1-1-1-1-1h-7v-1l-1-1 1-4v-4h-1 2v1h-1l1 1h2v1h1l2 1 3 1 3-2v-1l2-1h1v1l3 1h1l2-1v-1l1 2h3v1h2v-1l2-1 2-1 1-2 1-1v-1l2-6 1-2 1-1 4-6v-1l1-1 2-1v-2l2-1 1-1h1v1l1 1-2-4v-2l4 2 1 2 1 1v2l1 1v-1 1l1 7v4l3 6 2 8 4 5h4l2 1 2 1v6h-1l-2 1h3v1l-5 4-1 2-2 1-2 4-3 3v1h-3l-2 3h-1l-1 1-1 1-1 3-1 1-1 1-3 3v4l-2 2h-1Zm23-45h-1l-1-2v-1l2-1v1l1 2-1 1Zm2 17-1-1 2-1h2v-1 2l-1 1h-2Zm3-3h-1l1-1 1-1 1 1h-1l-1 1Zm-7-17v-2h1l1 1-2 1Z" stroke="#0E4686" stroke-width="2" mask="url(#d)" />
    <path d="M330 96h-5l-2-1v-2l-2-1v-4h-1l-1-1v-2l-2-3h-2l-1-3v-2l-1-2-1-2v-5l-2-1-2-2-1-3h1l-1-2-3-2h-1l-2 1v-1l-1-1h-1l-1-1-1-1-1-1-1-1h-7v-1l-1-1 1-4v-4h-1 2v1h-1l1 1h2v1h1l2 1 3 1 3-2v-1l2-1h1v1l3 1h1l2-1v-1l1 2h3v1h2v-1l2-1 2-1 1-2 1-1v-1l2-6 1-2 1-1 4-6v-1l1-1 2-1v-2l2-1 1-1h1v1l1 1-2-4v-2l4 2 1 2 1 1v2l1 1v-1 1l1 7v4l3 6 2 8 4 5h4l2 1 2 1v6h-1l-2 1h3v1l-5 4-1 2-2 1-2 4-3 3v1h-3l-2 3h-1l-1 1-1 1-1 3-1 1-1 1-3 3v4l-2 2h-1Zm23-45h-1l-1-2v-1l2-1v1l1 2-1 1Zm2 17-1-1 2-1h2v-1 2l-1 1h-2Zm3-3h-1l1-1 1-1 1 1h-1l-1 1Zm-7-17v-2h1l1 1-2 1Z" stroke="#000" stroke-opacity=".2" stroke-width="2" mask="url(#d)" />
    <mask id="e" fill="#fff">
      <path d="m505 350-1-1 1-1v-1l-1-1-4-3v-3h-1v1-5l1-3 1-1 2 1 1-1-1-1 1-3 4-4 2-3-1-1v-1h-2l-3-3h-4l-2-1-3-1h-1l-2 1h-4l-1-4-6-5v-1l-4 2-2-2v1l-1-1-3-1-2-1h-1l-4-4h-1l-2-1h-2l-2 1-1 1-5-1h-1v-3l1-2-1-1h-4l-1-1h-2l-3 2-5 3v1l-3 1-2 1-1 1-2 1-1 1h-1l-2 2-1 1h-3v1l-2 1v-1l1-3v-2l1-2v-6l-3-3-1-3-1-3v-2l1-3 2-1v-2l-1-1h-1l1-2 1-1v-1l-2-2v-1l1-2v-2h-2l-1-1v-4l2-2h1l1-1v-1h-1l-1-1-1 1v-2l2-1h1v-1l-2-1-3-1-2-1v-2l1-1 2-3v-1h1l1-1-1-1v-1l3-2 3-2 1-1v-1h3l1 1 1 1 1 2 1 3 4 1h4l1-2h1l1-1 1-1h6l3-2 3-5v-2l1-2v-1l-2-5v-1l3-1h3v1h3l1-1 1 1 2 1v1h4l1-1h2v-1l2-1 2-1h1l1-1h2l1 1 2-2v-2l2-1v1l1-1 2-2v-1h4l3 1v3l1 2 2 1v2l-1 2h3l1-1 3-1v-3l1-1h2l2-1 1-1v-2h3v-2l2-1 2-1h2l1 2 1 1h3l2 1 2 1 1 1v1l1-2v-1h1v3h1l2 1v1l1 3v1l1 1 1-1 1 1v4l1 2 2 2 1 1v3l-1 2v1l1 2-1 1-3 1h-3v2l1 2h1v2l2 1v2h-1v1h1l2 1v1h1l1 1 3-1h1l-4 9-4 5-1 2-4 5-3 2h-1l1-2v-3h-2v-1l-1-1v1l-1 2v1h-1l-1-2h1v-1l-1 1 1 2h1v2l-1 1v2l-2 1v2h-1l-1 3 1-1 1 1h-1v1h1v1l-1 2 1 3-1 1h-1v1h1l1-1v-3h1v2l-1 3-1 5-1 1 1 3v3l1 4v6l1 3-2 7-1 6v1l-1 3-1 3v2l1 5v1l-2 3-1 1h-1l-3 4v2l-8-5Zm21-75v-1l1-1v-2h1l1 1v1l-3 2Zm-3 7v-1h-1v-2h2v1l-1 2Z" />
    </mask>
    <path d="m505 350-1-1 1-1v-1l-1-1-4-3v-3h-1v1-5l1-3 1-1 2 1 1-1-1-1 1-3 4-4 2-3-1-1v-1h-2l-3-3h-4l-2-1-3-1h-1l-2 1h-4l-1-4-6-5v-1l-4 2-2-2v1l-1-1-3-1-2-1h-1l-4-4h-1l-2-1h-2l-2 1-1 1-5-1h-1v-3l1-2-1-1h-4l-1-1h-2l-3 2-5 3v1l-3 1-2 1-1 1-2 1-1 1h-1l-2 2-1 1h-3v1l-2 1v-1l1-3v-2l1-2v-6l-3-3-1-3-1-3v-2l1-3 2-1v-2l-1-1h-1l1-2 1-1v-1l-2-2v-1l1-2v-2h-2l-1-1v-4l2-2h1l1-1v-1h-1l-1-1-1 1v-2l2-1h1v-1l-2-1-3-1-2-1v-2l1-1 2-3v-1h1l1-1-1-1v-1l3-2 3-2 1-1v-1h3l1 1 1 1 1 2 1 3 4 1h4l1-2h1l1-1 1-1h6l3-2 3-5v-2l1-2v-1l-2-5v-1l3-1h3v1h3l1-1 1 1 2 1v1h4l1-1h2v-1l2-1 2-1h1l1-1h2l1 1 2-2v-2l2-1v1l1-1 2-2v-1h4l3 1v3l1 2 2 1v2l-1 2h3l1-1 3-1v-3l1-1h2l2-1 1-1v-2h3v-2l2-1 2-1h2l1 2 1 1h3l2 1 2 1 1 1v1l1-2v-1h1v3h1l2 1v1l1 3v1l1 1 1-1 1 1v4l1 2 2 2 1 1v3l-1 2v1l1 2-1 1-3 1h-3v2l1 2h1v2l2 1v2h-1v1h1l2 1v1h1l1 1 3-1h1l-4 9-4 5-1 2-4 5-3 2h-1l1-2v-3h-2v-1l-1-1v1l-1 2v1h-1l-1-2h1v-1l-1 1 1 2h1v2l-1 1v2l-2 1v2h-1l-1 3 1-1 1 1h-1v1h1v1l-1 2 1 3-1 1h-1v1h1l1-1v-3h1v2l-1 3-1 5-1 1 1 3v3l1 4v6l1 3-2 7-1 6v1l-1 3-1 3v2l1 5v1l-2 3-1 1h-1l-3 4v2l-8-5Zm21-75v-1l1-1v-2h1l1 1v1l-3 2Zm-3 7v-1h-1v-2h2v1l-1 2Z" fill="#fff" />
    <path d="m505 350-1-1 1-1v-1l-1-1-4-3v-3h-1v1-5l1-3 1-1 2 1 1-1-1-1 1-3 4-4 2-3-1-1v-1h-2l-3-3h-4l-2-1-3-1h-1l-2 1h-4l-1-4-6-5v-1l-4 2-2-2v1l-1-1-3-1-2-1h-1l-4-4h-1l-2-1h-2l-2 1-1 1-5-1h-1v-3l1-2-1-1h-4l-1-1h-2l-3 2-5 3v1l-3 1-2 1-1 1-2 1-1 1h-1l-2 2-1 1h-3v1l-2 1v-1l1-3v-2l1-2v-6l-3-3-1-3-1-3v-2l1-3 2-1v-2l-1-1h-1l1-2 1-1v-1l-2-2v-1l1-2v-2h-2l-1-1v-4l2-2h1l1-1v-1h-1l-1-1-1 1v-2l2-1h1v-1l-2-1-3-1-2-1v-2l1-1 2-3v-1h1l1-1-1-1v-1l3-2 3-2 1-1v-1h3l1 1 1 1 1 2 1 3 4 1h4l1-2h1l1-1 1-1h6l3-2 3-5v-2l1-2v-1l-2-5v-1l3-1h3v1h3l1-1 1 1 2 1v1h4l1-1h2v-1l2-1 2-1h1l1-1h2l1 1 2-2v-2l2-1v1l1-1 2-2v-1h4l3 1v3l1 2 2 1v2l-1 2h3l1-1 3-1v-3l1-1h2l2-1 1-1v-2h3v-2l2-1 2-1h2l1 2 1 1h3l2 1 2 1 1 1v1l1-2v-1h1v3h1l2 1v1l1 3v1l1 1 1-1 1 1v4l1 2 2 2 1 1v3l-1 2v1l1 2-1 1-3 1h-3v2l1 2h1v2l2 1v2h-1v1h1l2 1v1h1l1 1 3-1h1l-4 9-4 5-1 2-4 5-3 2h-1l1-2v-3h-2v-1l-1-1v1l-1 2v1h-1l-1-2h1v-1l-1 1 1 2h1v2l-1 1v2l-2 1v2h-1l-1 3 1-1 1 1h-1v1h1v1l-1 2 1 3-1 1h-1v1h1l1-1v-3h1v2l-1 3-1 5-1 1 1 3v3l1 4v6l1 3-2 7-1 6v1l-1 3-1 3v2l1 5v1l-2 3-1 1h-1l-3 4v2l-8-5Zm21-75v-1l1-1v-2h1l1 1v1l-3 2Zm-3 7v-1h-1v-2h2v1l-1 2Z" stroke="#0E4686" stroke-width="2" mask="url(#e)" />
    <path d="m505 350-1-1 1-1v-1l-1-1-4-3v-3h-1v1-5l1-3 1-1 2 1 1-1-1-1 1-3 4-4 2-3-1-1v-1h-2l-3-3h-4l-2-1-3-1h-1l-2 1h-4l-1-4-6-5v-1l-4 2-2-2v1l-1-1-3-1-2-1h-1l-4-4h-1l-2-1h-2l-2 1-1 1-5-1h-1v-3l1-2-1-1h-4l-1-1h-2l-3 2-5 3v1l-3 1-2 1-1 1-2 1-1 1h-1l-2 2-1 1h-3v1l-2 1v-1l1-3v-2l1-2v-6l-3-3-1-3-1-3v-2l1-3 2-1v-2l-1-1h-1l1-2 1-1v-1l-2-2v-1l1-2v-2h-2l-1-1v-4l2-2h1l1-1v-1h-1l-1-1-1 1v-2l2-1h1v-1l-2-1-3-1-2-1v-2l1-1 2-3v-1h1l1-1-1-1v-1l3-2 3-2 1-1v-1h3l1 1 1 1 1 2 1 3 4 1h4l1-2h1l1-1 1-1h6l3-2 3-5v-2l1-2v-1l-2-5v-1l3-1h3v1h3l1-1 1 1 2 1v1h4l1-1h2v-1l2-1 2-1h1l1-1h2l1 1 2-2v-2l2-1v1l1-1 2-2v-1h4l3 1v3l1 2 2 1v2l-1 2h3l1-1 3-1v-3l1-1h2l2-1 1-1v-2h3v-2l2-1 2-1h2l1 2 1 1h3l2 1 2 1 1 1v1l1-2v-1h1v3h1l2 1v1l1 3v1l1 1 1-1 1 1v4l1 2 2 2 1 1v3l-1 2v1l1 2-1 1-3 1h-3v2l1 2h1v2l2 1v2h-1v1h1l2 1v1h1l1 1 3-1h1l-4 9-4 5-1 2-4 5-3 2h-1l1-2v-3h-2v-1l-1-1v1l-1 2v1h-1l-1-2h1v-1l-1 1 1 2h1v2l-1 1v2l-2 1v2h-1l-1 3 1-1 1 1h-1v1h1v1l-1 2 1 3-1 1h-1v1h1l1-1v-3h1v2l-1 3-1 5-1 1 1 3v3l1 4v6l1 3-2 7-1 6v1l-1 3-1 3v2l1 5v1l-2 3-1 1h-1l-3 4v2l-8-5Zm21-75v-1l1-1v-2h1l1 1v1l-3 2Zm-3 7v-1h-1v-2h2v1l-1 2Z" stroke="#000" stroke-opacity=".2" stroke-width="2" mask="url(#e)" />
    <mask id="f" fill="#fff">
      <path d="m549 151-5 1-2 2-4 6v2h-1l-1 2-1 3-1 1-1 1h-2l-1 1-1 2-1 2h2l-1 1-1 3v3h-1l-1 1v1h1v2l2 1 1 2-2 3-1 1-1 1h-1l-2 3h-2v-2h-1l-1-1-1-1-1-1-1-1-3-1-3-1h-1l-2 1h-7v-2h-1v-1l1-3 1-2v-2h-3l-1-1-1-3-1-5-1-2h1l-1-8v-1h-1v-1l1-1-1-3v-4l-1-3 1-2-1-2-1-1-3-7-2-4v-3l2-2 1-1v-3l7-1h3l2-1 7 1 2 1 2 2 3 2h2l4 3h2l2 3 3 2h2l2 3 2 1 2 3 4 3 2 2 1 1 1 1h1l3 1 1 2Z" />
    </mask>
    <path d="m549 151-5 1-2 2-4 6v2h-1l-1 2-1 3-1 1-1 1h-2l-1 1-1 2-1 2h2l-1 1-1 3v3h-1l-1 1v1h1v2l2 1 1 2-2 3-1 1-1 1h-1l-2 3h-2v-2h-1l-1-1-1-1-1-1-1-1-3-1-3-1h-1l-2 1h-7v-2h-1v-1l1-3 1-2v-2h-3l-1-1-1-3-1-5-1-2h1l-1-8v-1h-1v-1l1-1-1-3v-4l-1-3 1-2-1-2-1-1-3-7-2-4v-3l2-2 1-1v-3l7-1h3l2-1 7 1 2 1 2 2 3 2h2l4 3h2l2 3 3 2h2l2 3 2 1 2 3 4 3 2 2 1 1 1 1h1l3 1 1 2Z" fill="#fff" />
    <path d="m549 151-5 1-2 2-4 6v2h-1l-1 2-1 3-1 1-1 1h-2l-1 1-1 2-1 2h2l-1 1-1 3v3h-1l-1 1v1h1v2l2 1 1 2-2 3-1 1-1 1h-1l-2 3h-2v-2h-1l-1-1-1-1-1-1-1-1-3-1-3-1h-1l-2 1h-7v-2h-1v-1l1-3 1-2v-2h-3l-1-1-1-3-1-5-1-2h1l-1-8v-1h-1v-1l1-1-1-3v-4l-1-3 1-2-1-2-1-1-3-7-2-4v-3l2-2 1-1v-3l7-1h3l2-1 7 1 2 1 2 2 3 2h2l4 3h2l2 3 3 2h2l2 3 2 1 2 3 4 3 2 2 1 1 1 1h1l3 1 1 2Z" stroke="#0E4686" stroke-width="2" mask="url(#f)" />
    <path d="m549 151-5 1-2 2-4 6v2h-1l-1 2-1 3-1 1-1 1h-2l-1 1-1 2-1 2h2l-1 1-1 3v3h-1l-1 1v1h1v2l2 1 1 2-2 3-1 1-1 1h-1l-2 3h-2v-2h-1l-1-1-1-1-1-1-1-1-3-1-3-1h-1l-2 1h-7v-2h-1v-1l1-3 1-2v-2h-3l-1-1-1-3-1-5-1-2h1l-1-8v-1h-1v-1l1-1-1-3v-4l-1-3 1-2-1-2-1-1-3-7-2-4v-3l2-2 1-1v-3l7-1h3l2-1 7 1 2 1 2 2 3 2h2l4 3h2l2 3 3 2h2l2 3 2 1 2 3 4 3 2 2 1 1 1 1h1l3 1 1 2Z" stroke="#000" stroke-opacity=".2" stroke-width="2" mask="url(#f)" />
    <path d="M386 315v-3h11l1 1v3l-1 3h1-13v-2l1-2Z" fill="#fff" />
    <path d="M386 315v-3h11l1 1v3l-1 3h1-13v-2l1-2Z" stroke="#0E4686" />
    <path d="M386 315v-3h11l1 1v3l-1 3h1-13v-2l1-2Z" stroke="#000" stroke-opacity=".2" />
    <path d="m497 351-1-1h2l1-1h2l2 1h1v1h1l7 4-1 3v6l1 6-1 3-1 2-2 2h-1l-2 4-1 3v1h-2v-1 3h1l-2 4-3 3h-2v1l-1 1v2l-2 2v1l-1-1h-3l-4-1-2-1-1-4-2-1v-2l1-1-1-3h1l1-2h6l1-3 1-2 1-2v-2l1-1 2-2v-5l-1-3-1-1v-1h-1l-1 1v-1h4v-3h-1v-4h-1l-1-1 1-2 2-1 1 1h2v-2Z" fill="#fff" />
    <path d="m497 351-1-1h2l1-1h2l2 1h1v1h1l7 4-1 3v6l1 6-1 3-1 2-2 2h-1l-2 4-1 3v1h-2v-1 3h1l-2 4-3 3h-2v1l-1 1v2l-2 2v1l-1-1h-3l-4-1-2-1-1-4-2-1v-2l1-1-1-3h1l1-2h6l1-3 1-2 1-2v-2l1-1 2-2v-5l-1-3-1-1v-1h-1l-1 1v-1h4v-3h-1v-4h-1l-1-1 1-2 2-1 1 1h2v-2Z" stroke="#0E4686" />
    <path d="m497 351-1-1h2l1-1h2l2 1h1v1h1l7 4-1 3v6l1 6-1 3-1 2-2 2h-1l-2 4-1 3v1h-2v-1 3h1l-2 4-3 3h-2v1l-1 1v2l-2 2v1l-1-1h-3l-4-1-2-1-1-4-2-1v-2l1-1-1-3h1l1-2h6l1-3 1-2 1-2v-2l1-1 2-2v-5l-1-3-1-1v-1h-1l-1 1v-1h4v-3h-1v-4h-1l-1-1 1-2 2-1 1 1h2v-2Z" stroke="#000" stroke-opacity=".2" />
    <mask id="g" fill="#fff">
      <path d="m399 320-1-1v-3l1-1v-2l-2-2h-12v4l-1 1 1 4h14l-1 1 1 2-1 1-1 1-1 2 1 1h1l1 1 2 4v1l-2 3-3 3-1 2 1 1 1-1 2 1v3l-1 2 1 3-3 2h-1l-1 1v1l-5 3-1-1-4-2v1h-2l-2-1-4 1-1-1-4 2-3 3-2-1-1-1-3 2-4-1-2 1-2 1-2 2-1 2v1l-1 1v1l-1-1-1 1-2 2-1 2 1 1h-1v-1l-3-2h-3l-2-2h-3l-3-2h-1l-3-2-2-1h-1l-2-2h-7v-1l1-1v-1l1-1v-1l-2-1-1 1h-1v-6l-1-2v-3l-1-2-1-1 1-3 2-4 1-3 2-1 2-2 1-2 1-2v-1l1-1 1-1v-1l2-1 1-3h3l2-1h1l1-4 1-1 1-4v-1l2-1 2-1 1-1 1 1 1-1 1-1 1-3 1-3v-4l2-3v-5l1-1 1-2 2-3v-5l1-1v-1l1-1v-1l1-2 1-2h1v2l-1 2-1 2h2l2 1 4 1 3 1 4 2 1-1 1-5 2-3 1-1 1 2 1 1 1 4v3h2v-1l1-1h7v2l3 1 3 1h1v-3h1l1 2h2l3-2 4-1h1l3-1 2-2 5-1 2 2v1l-1 1-1 2h1l1 1v1l-2 1-1 4v2l1 3 1 3 3 3v4l1 1-1 1-1 2-1 1-3-1-1-1-2-2-1 2v4h-1l-3-1h-1l-1 3h1v2l-1 1v2h1v1l1 4h-1l-3 1-2 2h-1Z" />
    </mask>
    <path d="m399 320-1-1v-3l1-1v-2l-2-2h-12v4l-1 1 1 4h14l-1 1 1 2-1 1-1 1-1 2 1 1h1l1 1 2 4v1l-2 3-3 3-1 2 1 1 1-1 2 1v3l-1 2 1 3-3 2h-1l-1 1v1l-5 3-1-1-4-2v1h-2l-2-1-4 1-1-1-4 2-3 3-2-1-1-1-3 2-4-1-2 1-2 1-2 2-1 2v1l-1 1v1l-1-1-1 1-2 2-1 2 1 1h-1v-1l-3-2h-3l-2-2h-3l-3-2h-1l-3-2-2-1h-1l-2-2h-7v-1l1-1v-1l1-1v-1l-2-1-1 1h-1v-6l-1-2v-3l-1-2-1-1 1-3 2-4 1-3 2-1 2-2 1-2 1-2v-1l1-1 1-1v-1l2-1 1-3h3l2-1h1l1-4 1-1 1-4v-1l2-1 2-1 1-1 1 1 1-1 1-1 1-3 1-3v-4l2-3v-5l1-1 1-2 2-3v-5l1-1v-1l1-1v-1l1-2 1-2h1v2l-1 2-1 2h2l2 1 4 1 3 1 4 2 1-1 1-5 2-3 1-1 1 2 1 1 1 4v3h2v-1l1-1h7v2l3 1 3 1h1v-3h1l1 2h2l3-2 4-1h1l3-1 2-2 5-1 2 2v1l-1 1-1 2h1l1 1v1l-2 1-1 4v2l1 3 1 3 3 3v4l1 1-1 1-1 2-1 1-3-1-1-1-2-2-1 2v4h-1l-3-1h-1l-1 3h1v2l-1 1v2h1v1l1 4h-1l-3 1-2 2h-1Z" fill="#fff" />
    <path d="M398 319h-1 1Zm0-3h-1 1Zm1-1 1 1v-1h-1Zm0-2h1l-1-1v1Zm-2-2h1l-1-1v1Zm-12 0v-1l-1 1h1Zm0 4h1-1Zm-1 1h-1v1l1-1Zm1 4h-1v1h1v-1Zm13 1h-1 1Zm1 2h1v-1l-1 1Zm-1 1 1 1v-1h-1Zm-1 1h-1 1Zm-1 2v-1l-1 1h1Zm1 1h-1l1 1v-1Zm1 0 1-1h-1v1Zm1 1h1v-1l-1 1Zm2 4h1-1Zm0 1 1 1v-1h-1Zm-2 3h1-1Zm-3 3-1-1 1 1Zm-1 2-1-1v1h1Zm1 1v1h1l-1-1Zm1-1 1-1h-1v1Zm2 1 1-1h-1v1Zm0 0h1-1Zm0 1h1-1Zm0 1 1 1v-1h-1Zm0 1-1-1v1h1Zm-1 2-1-1v1h1Zm1 3 1 1v-1h-1Zm-3 2v1h1l-1-1Zm-1 0v-1h-1l1 1Zm-1 1v-1h-1v1h1Zm0 1v1h1v-1h-1Zm-5 3h-1l1 1 1-1h-1Zm-1-1 1-1-1 1Zm-4-2 1-1h-1v1Zm0 1v1-1Zm-1 0v1-1Zm-1 0-1 1h1v-1Zm-2-1v-1 1Zm-4 1v1h1l-1-1Zm-1-1v-1h-1l1 1Zm-4 2-1-1v1h1Zm-3 3v1h1l-1-1Zm0 0-1 1h1v-1Zm-2-1 1-1h-1v1Zm-1-1v-1h-1l1 1Zm-3 2v1-1Zm-4-1v-1 1Zm-2 1v1-1Zm-2 1-1-1 1 1Zm-2 2v-1h-1l1 1Zm-1 2h-1 1Zm0 1 1 1v-1h-1Zm-1 1 1 1-1-1Zm0 1v1-1Zm-1-1v-1 1Zm-1 1v-1 1Zm0 0-1-1v1h1Zm-2 2h-1 1Zm-1 2h-1l1 1v-1Zm1 1h1v-1l-1 1Zm0 0 1 1v-1h-1Zm0 0-1 1h1v-1Zm-1 0h-1v1l1-1Zm0-1Zm-3-2 1-1h-1v1Zm-3 0h-1l1 1v-1Zm-2-2 1-1-1 1Zm-1 0v-1 1Zm-2 0v1-1Zm-3-2-1 1h1v-1Zm-1 0 1-1-1 1Zm-3-2v1-1Zm0 0v-1 1Zm-2-1 1-1-1 1Zm-1 0v1-1Zm-2-2v-1 1Zm-3 0v1-1Zm-4 0v1-1Zm0-1h-1v1l1-1Zm1-1h-1 1Zm0-1h-1 1Zm1-1h1v-1l-1 1Zm0-1h1v-1l-1 1Zm-2-1 1-1h-1v1Zm-1 1v1h1l-1-1Zm-1 0v1-1Zm0-1-1 1 1-1Zm0-1h-1v1l1-1Zm0-2h1-1Zm0-2h1-1Zm-1-2h-1v1l1-1Zm0-3h1v-1l-1 1Zm-1-2h-1 1Zm-1-1h-1 1Zm1-3-1-1v1h1Zm2-4 1 1v-1h-1Zm1-3h-1 1Zm0 0v-1 1Zm2-1 1 1-1-1Zm2-2 1 1-1-1Zm1-2 1 1v-1h-1Zm1-2h-1 1Zm0-1h-1 1Zm1-1 1 1-1-1Zm1-1 1 1v-1h-1Zm0-1v-1h-1v1h1Zm2-1v1l1-1h-1Zm1-3v-1l-1 1h1Zm3 0v1-1Zm2-1 1 1-1-1Zm1 0v1l1-1h-1Zm1-4v-1 1Zm1-1 1 1v-1h-1Zm1-4h-1 1Zm0-1h-1 1Zm2-1-1-1 1 1Zm2-1-1-1 1 1Zm1-1v-1h-1l1 1Zm1 1-1 1h1v-1Zm1-1v1h1l-1-1Zm1-1 1 1v-1h-1Zm1-3h-1 1Zm1-3 1 1v-1h-1Zm0 0h1v-1l-1 1Zm0-1-1-1v1h1Zm0-3-1-1v1h1Zm2-3h1-1Zm0-5-1-1v1h1Zm1-1v1h1l-1-1Zm1-2-1-1 1 1Zm2-3h1-1Zm0-1h1-1Zm0-3h-1 1Zm0-1h-1 1Zm1-1 1 1-1-1Zm0-1 1 1v-1h-1Zm0 0v-1l-1 1h1Zm1-1v1h1v-1h-1Zm0-1-1-1 1 1Zm1-2h-1 1Zm1-2h-1 1Zm1 0h1v-2l-2 1 1 1Zm0 2h1-1Zm-1 2-1-1 1 1Zm-1 2h-1v1h1v-1Zm2 0 1-1-1 1Zm2 1v1-1Zm4 1 1-1h-1v1Zm3 1v1-1Zm4 2v1-1Zm1-1v1h1l-1-1Zm1-5-1-1 1 1Zm2-3h-1 1Zm1-1h1l-1-1-1 1h1Zm1 2 1-1-1 1Zm1 1h1-1Zm1 4h1-1Zm0 3v1-1Zm2 0v1-1Zm0-1 1 1-1-1Zm1-1h-1 1Zm0 0v-1h-1l1 1Zm3 0v1-1Zm4 0 1-1h-1v1Zm0 0 1 1v-1h-1Zm0 2-1-1v2l1-1Zm3 1-1 1h1v-1Zm3 1v1-1Zm1 0v1l1-1h-1Zm0-3v-1h-1v1h1Zm1 0v-1 1Zm1 2-1 1h1v-1Zm0 0v2l1-1-1-1Zm2 0h1-1Zm3-2-1-1 1 1Zm4-1v-1 1Zm1 0v1h1l-1-1Zm3-1Zm2-2-1-1 1 1Zm5-1v-1h-1l1 1Zm2 2h1-1Zm0 1h1-1Zm-1 1-1-1 1 1Zm-1 2h-1 1Zm1 0-1 1 1-1Zm1 1h1v-1l-1 1Zm0 1 1 1v-1h-1Zm0 0v1h1l-1-1Zm-2 1h-1 1Zm-1 4h-1 1Zm0 2h-1 1Zm1 3h-1 1Zm1 3-1 1h1v-1Zm3 3h1v-1l-1 1Zm0 0 1 1v-1h-1Zm0 2-1-1 1 1Zm0 0h-1v1l1-1Zm0 2h1v-1l-1 1Zm1 1h1-1Zm-1 1h1-1Zm-1 2h1-1Zm-1 1v1l1-1h-1Zm-3-1-1 1h1v-1Zm-1-1 1-1h-1v1Zm-2-2v-1h-1v1h1Zm-1 2-1-1h-1l1 1h1Zm0 3 1 1v-1h-1Zm0 1v1-1Zm-1 0v1-1Zm-3-1 1-1h-1v1Zm-1 0v-1 1Zm0 0-1-1v1h1Zm-1 3h-1v1h1v-1Zm1 0h1v-1h-1v1Zm0 1 1 1h1l-1-1h-1Zm0 1 1 1-1-1Zm-1 1v-1l-1 1h1Zm0 2h-1 1Zm1 0-1 1 1-1Zm0 1 1-1-1 1Zm1 4h1-1Zm-1 0 1 1-1-1Zm-3 1v-1 1Zm-2 2v1-1h1-1Zm-1-1v-1l-2 1 1 1 1-1Zm0 0v-3h-2v3h2Zm0-2 1-1-2-1-1 1 2 1Zm1-2v-2h-2v2h2Zm-1-3-1-1-2 1 2 2 1-2Zm-2-2h-12v2h12v-2Zm-13 1v4h2v-4h-2Zm0 3-1 2 2 1 1-2-2-1Zm-1 3 1 3 2-1-1-3-2 1Zm2 4h14v-2h-14v2Zm13-2-1 2h2l1-1-2-1Zm-1 2 1 2 2-1-1-1h-2Zm1 1-1 2h2v-1l-1-1Zm-1 1-1 2 2 1 1-1-2-2Zm-1 2v1l1 1 1-1-2-1Zm0 2v1l2-1-1-1-1 1Zm1 2h1v-2l-1 2Zm1 0 1 1 1-2-1-1-1 2Zm1 0 1 5 2-1-2-4h-1Zm1 4v1h2v-1h-2Zm0 0-2 3 2 1 2-2-2-2Zm-2 3-3 3 1 1 4-3-2-1Zm-3 3-1 2 2 1 1-2-2-1Zm0 3 1 1 1-1-1-1-1 1Zm2 2 1-1-1-2-1 1 1 2Zm0-1 1 1 1-2-1-1-1 2Zm1 0v1l2-1v-1l-2 1Zm0 0v1h2v-1h-2Zm0 1v1h2v-1h-2Zm0 0v1l1 1h1l-2-2Zm0 2-1 1 2 1v-2h-1Zm-1 2 1 3h2l-1-4-2 1Zm2 2-3 2 1 2 3-2-1-2Zm-3 2h-1v2h1v-2Zm-2 0v1l1 2 1-1-2-2Zm-1 2v1h2v-1h-2Zm0 0-4 3 1 1 4-2-1-2Zm-3 3-1-1-1 2 2-1Zm-1-1-4-2-1 2 4 2 1-2Zm-5-2-1 1 1 1h1l-1-2Zm0 1h-1v2h1v-2Zm-1 0h-1v2h1v-2Zm-1 0-2-1v2l1 1 1-2Zm-2-1-4 1 1 2 3-1v-2Zm-3 1-2-1-1 2h2l1-1Zm-3-1-4 2 1 2 4-2-1-2Zm-4 3-3 2 2 2 2-3-1-1Zm-2 2v2-2Zm0 0-1-1-1 1 1 2 1-2Zm-2-1-1-1v2l1 1v-2Zm-2-1-3 2 1 2 3-2-1-2Zm-2 2-4-1v2l4 1v-2Zm-4-1-3 1 1 2 3-1-1-2Zm-2 1-3 1 1 2 2-1v-2Zm-3 1-1 2 1 1 2-2-2-1Zm-2 2-1 3 2 1 1-3-2-1Zm-1 3v1h2v-1h-2Zm0 1v1l1 1 1-1-2-1Zm0 0-1 1 1 2 1-1-1-2Zm0 1-1-1v2l1 1v-2Zm-1-1-1 1 1 2v-3Zm-1 1h-1l1 2 1-1-1-1Zm-1 1-2 2 2 1 1-2-1-1Zm-2 2-1 2h2l1-1-2-1Zm0 3 2-1-1-1-1 2Zm0 0h2-2Zm0-1 1 2h1l-2-2Zm1 0h-1l-1 2h1l1-2Zm0 0h-1l-1 1 2-1Zm-1 0-2-3-2 2 3 2 1-1Zm-3-3h-3v2h3v-2Zm-2 0-2-2-1 2 1 1 2-1Zm-2-2h-2l-1 2h2l1-2Zm-2 0h-2v2h2v-2Zm-1 0-4-2v2l3 2 1-2Zm-3-1-1-1-1 1v1l2-1Zm-1-1-3-2-1 2 3 1 1-1Zm-3-2h-1l-1 1 1 1 1-2Zm-1 0-1-1-1 2h1l1-1Zm-1-1h-1l-1 2h1l1-2Zm-1 0-3-2-1 2 3 2 1-2Zm-3-2h-3v2h3v-2Zm-3 0h-3l-1 2h4v-2Zm-3 0-2 1h1l1-1Zm0 1 1-1-2-1-1 1 2 1Zm1-1v-1l-2-1v1l2 1Zm0-1 1-2-1-1-2 2 2 1Zm1-3h-2v1l2-1Zm0-1-2-1-1 2 2 1 1-2Zm-3 0h-1l1 2 1-1-1-1Zm-1 0-1 2h1v-2Zm0 0-2 1h1l1-1Zm0 0v-1l-2 1v1l2-1Zm0 0v-3h-2v2l2 1Zm0-3v-2h-2v2h2Zm0-2-1-2-2 1 1 2 2-1Zm-1-2v-3h-2v3h2Zm0-4-2-2-1 1 1 2 2-1Zm-1-1-1-1h-2l1 1h2Zm-1-1 1-3h-2l-1 3h2Zm1-3 2-3-2-1-2 3 2 1Zm2-4 1-2-2-1-1 3h2Zm0-2 1-1-1-1-1 1 1 1Zm1 0 2-1-1-2-2 1 1 2Zm2-1 2-2-2-2-1 2 1 2Zm2-2 1-2-2-1-1 2 2 1Zm1-3 1-1-2-1-1 2h2Zm0-1 1-1-2-1v1l1 1Zm1-1 1-1-1-1-2 1 2 1Zm1-1 1-1-2-1-1 1 2 1Zm1-2v-1h-2v1h2Zm0-1h1l-1-2-1 1 1 1Zm2-1 1-2-2-1-1 2 2 1Zm0-2h3v-2h-3v2Zm3 0 3-1-1-2-3 1 1 2Zm3-1-1-2 1 2Zm0-1 2-4h-1l-2 4h1Zm2-3 1-1-2-2v1l1 2Zm1-2 1-4h-2l-1 4h2Zm1-3v-1l-2-1v1l2 1Zm0-1 2-2-2-1-2 2 2 1Zm1-2 2-1-1-1-2 1 1 1Zm2 0 1-1-1-2-1 1 1 2Zm0-1 1 1 1-2-1-1-1 2Zm2 1 1-1-1-2-1 1 1 2Zm2-1 1-1-1-2-2 2 2 1Zm1-2 1-3h-2l-1 3h2Zm1-2 1-3-2-1-1 3 2 1Zm1-4h-2 2Zm0-1v-1l-2 1v1l2-1Zm0 0v-3h-2v2l2 1Zm0-3 2-3h-2l-2 2 2 1Zm2-3v-5h-2v5h2Zm-1-4 1-1-1-2-1 1 1 2Zm2-1 1-3-2-1-1 3 2 1Zm1-3 2-3-2-1-2 3 2 1Zm2-3v-1l-2-1v1l2 1Zm0-1v-3h-2v3h2Zm0-2v-1l-2-1v1l2 1Zm0-1 1-1-1-1-1 1 1 1Zm1-1v-1l-2-1v1l2 1Zm0-2h-2v1l2-1Zm0 0-1-1 1 1Zm1-1v-1l-2-1v2h2Zm0-1v-1l-1-1-1 1 2 1Zm0-1 2-2-2-1-1 2 1 1Zm2-2-1-2v1l1 1Zm-1-1v2h2v-2h-2Zm0 1-1 2 1 1 2-2-2-1Zm-1 2-1 3h2l1-2-2-1Zm0 4h2l1-2h-3v2Zm2 0 2 1 1-2-2-1-1 2Zm2 1 4 1v-2l-3-1-1 2Zm4 0 3 2 1-2-3-1-1 1Zm3 2 4 1v-1l-3-2-1 2Zm4 1h1l-1-2v2Zm2 0 1-6-2-1-1 6 2 1Zm1-6 1-2-1-1-2 2 2 1Zm1-2 1-1-1-1-1 1 1 1Zm0-1 1 1 2-1-1-1-2 1Zm1 1 1 2 2-1-1-2-2 1Zm1 2 1 3h2l-1-4-2 1Zm1 3 1 3h1v-3h-2Zm1 4h2v-2h-1l-1 2Zm2 0 1-1-1-1h-1l1 2Zm1-1 1-1-2-1-1 1 2 1Zm0-1h1l-2-2v1l1 1Zm0 0h3v-2h-3v2Zm3 0h4v-2h-4v2Zm3-1v1l2-1v-1l-2 1Zm0 0v1l2 1v-1l-2-1Zm0 3 3 1 1-2-3-1-1 2Zm4 1 3 1v-2l-3-1v2Zm3 1h1l-1-2v2Zm2-1v-3h-2v3h2Zm-1-2h1v-2h-1v2Zm0-1 1 3 2-1-2-3-1 1Zm2 3 1-1v-1l-1 2Zm1 0 2-1-1-1-2 1 1 1Zm2-1 2-2-1-1-2 2 1 1Zm2-1 4-1v-2l-5 1 1 2Zm4-1h1v-2h-1v2Zm2 0 2-2-1-1-2 1 1 2Zm2-2 2-1-1-2-2 2 1 1Zm2-1 5-1-1-2-5 1 1 2Zm4-1 3 2 1-1-3-3-1 2Zm2 1v1h2v-1h-2Zm1 0-2 1 1 1 2-1-1-1Zm-2 1-1 3h2l1-2-2-1Zm-1 3 1 1 1-1h-2Zm1 1 2 1 1-2-2-1-1 2Zm1 0v1h2v-1h-2Zm0 1 2 1-2-1Zm0 0-1 1 1 1 1-1-1-1Zm-2 1-1 4h2l1-3-2-1Zm-1 4v2h2v-2h-2Zm0 2 1 3h2l-1-4-2 1Zm1 3 1 4 2-1-1-4-2 1Zm2 4 3 2 1-1-3-3-1 2Zm2 2h2-2Zm1 0-1 1 2 1v-1l-1-1Zm-1 1v1h2l-2-1Zm0 2v1l2-1v-1l-2 1Zm0 1 1 1h1v-1h-2Zm1 1h-1l2 1v-1h-1Zm-1 0-1 2 2 1 1-2-2-1Zm-1 2-1 1 2 1 1-1-2-1Zm0 1-3-1v2l3 1v-2Zm-2 0-1-2-2 1 1 2 2-1Zm-2-2-2-2-1 2 2 1 1-1Zm-3-1-1 1 1 1 1-1-1-1Zm-1 2v3h2v-4l-2 1Zm0 2v1l1 1h1l-2-2Zm0 1v2h1l-1-2Zm1 0-3-1-1 2 3 1 1-2Zm-4-1h-1l1 2h1l-1-2Zm-1 0h-1l2 2-1-2Zm-1 1-1 3 2 1 1-4h-2Zm0 4h1v-2h-1v2Zm0 0 1 1 1-1v-1l-2 1Zm1 0-1 1 2 1v-1l-1-1Zm-1 1 1 2 1-1-2-1Zm-1 1v2h2v-2h-2Zm0 2 1 1 2-1-1-1-2 1Zm1 1 1 1 1-2h-1l-1 1Zm0 0 1 4h2l-1-5-2 1Zm1 3 1 2 1-1-2-1Zm0 0-3 1v2l4-1-1-2Zm-3 1-3 2 2 1 2-1-1-2Zm-2 2h-1v2h1v-2Z" fill="#0E4686" mask="url(#g)" />
    <path d="M398 319h-1 1Zm0-3h-1 1Zm1-1 1 1v-1h-1Zm0-2h1l-1-1v1Zm-2-2h1l-1-1v1Zm-12 0v-1l-1 1h1Zm0 4h1-1Zm-1 1h-1v1l1-1Zm1 4h-1v1h1v-1Zm13 1h-1 1Zm1 2h1v-1l-1 1Zm-1 1 1 1v-1h-1Zm-1 1h-1 1Zm-1 2v-1l-1 1h1Zm1 1h-1l1 1v-1Zm1 0 1-1h-1v1Zm1 1h1v-1l-1 1Zm2 4h1-1Zm0 1 1 1v-1h-1Zm-2 3h1-1Zm-3 3-1-1 1 1Zm-1 2-1-1v1h1Zm1 1v1h1l-1-1Zm1-1 1-1h-1v1Zm2 1 1-1h-1v1Zm0 0h1-1Zm0 1h1-1Zm0 1 1 1v-1h-1Zm0 1-1-1v1h1Zm-1 2-1-1v1h1Zm1 3 1 1v-1h-1Zm-3 2v1h1l-1-1Zm-1 0v-1h-1l1 1Zm-1 1v-1h-1v1h1Zm0 1v1h1v-1h-1Zm-5 3h-1l1 1 1-1h-1Zm-1-1 1-1-1 1Zm-4-2 1-1h-1v1Zm0 1v1-1Zm-1 0v1-1Zm-1 0-1 1h1v-1Zm-2-1v-1 1Zm-4 1v1h1l-1-1Zm-1-1v-1h-1l1 1Zm-4 2-1-1v1h1Zm-3 3v1h1l-1-1Zm0 0-1 1h1v-1Zm-2-1 1-1h-1v1Zm-1-1v-1h-1l1 1Zm-3 2v1-1Zm-4-1v-1 1Zm-2 1v1-1Zm-2 1-1-1 1 1Zm-2 2v-1h-1l1 1Zm-1 2h-1 1Zm0 1 1 1v-1h-1Zm-1 1 1 1-1-1Zm0 1v1-1Zm-1-1v-1 1Zm-1 1v-1 1Zm0 0-1-1v1h1Zm-2 2h-1 1Zm-1 2h-1l1 1v-1Zm1 1h1v-1l-1 1Zm0 0 1 1v-1h-1Zm0 0-1 1h1v-1Zm-1 0h-1v1l1-1Zm0-1Zm-3-2 1-1h-1v1Zm-3 0h-1l1 1v-1Zm-2-2 1-1-1 1Zm-1 0v-1 1Zm-2 0v1-1Zm-3-2-1 1h1v-1Zm-1 0 1-1-1 1Zm-3-2v1-1Zm0 0v-1 1Zm-2-1 1-1-1 1Zm-1 0v1-1Zm-2-2v-1 1Zm-3 0v1-1Zm-4 0v1-1Zm0-1h-1v1l1-1Zm1-1h-1 1Zm0-1h-1 1Zm1-1h1v-1l-1 1Zm0-1h1v-1l-1 1Zm-2-1 1-1h-1v1Zm-1 1v1h1l-1-1Zm-1 0v1-1Zm0-1-1 1 1-1Zm0-1h-1v1l1-1Zm0-2h1-1Zm0-2h1-1Zm-1-2h-1v1l1-1Zm0-3h1v-1l-1 1Zm-1-2h-1 1Zm-1-1h-1 1Zm1-3-1-1v1h1Zm2-4 1 1v-1h-1Zm1-3h-1 1Zm0 0v-1 1Zm2-1 1 1-1-1Zm2-2 1 1-1-1Zm1-2 1 1v-1h-1Zm1-2h-1 1Zm0-1h-1 1Zm1-1 1 1-1-1Zm1-1 1 1v-1h-1Zm0-1v-1h-1v1h1Zm2-1v1l1-1h-1Zm1-3v-1l-1 1h1Zm3 0v1-1Zm2-1 1 1-1-1Zm1 0v1l1-1h-1Zm1-4v-1 1Zm1-1 1 1v-1h-1Zm1-4h-1 1Zm0-1h-1 1Zm2-1-1-1 1 1Zm2-1-1-1 1 1Zm1-1v-1h-1l1 1Zm1 1-1 1h1v-1Zm1-1v1h1l-1-1Zm1-1 1 1v-1h-1Zm1-3h-1 1Zm1-3 1 1v-1h-1Zm0 0h1v-1l-1 1Zm0-1-1-1v1h1Zm0-3-1-1v1h1Zm2-3h1-1Zm0-5-1-1v1h1Zm1-1v1h1l-1-1Zm1-2-1-1 1 1Zm2-3h1-1Zm0-1h1-1Zm0-3h-1 1Zm0-1h-1 1Zm1-1 1 1-1-1Zm0-1 1 1v-1h-1Zm0 0v-1l-1 1h1Zm1-1v1h1v-1h-1Zm0-1-1-1 1 1Zm1-2h-1 1Zm1-2h-1 1Zm1 0h1v-2l-2 1 1 1Zm0 2h1-1Zm-1 2-1-1 1 1Zm-1 2h-1v1h1v-1Zm2 0 1-1-1 1Zm2 1v1-1Zm4 1 1-1h-1v1Zm3 1v1-1Zm4 2v1-1Zm1-1v1h1l-1-1Zm1-5-1-1 1 1Zm2-3h-1 1Zm1-1h1l-1-1-1 1h1Zm1 2 1-1-1 1Zm1 1h1-1Zm1 4h1-1Zm0 3v1-1Zm2 0v1-1Zm0-1 1 1-1-1Zm1-1h-1 1Zm0 0v-1h-1l1 1Zm3 0v1-1Zm4 0 1-1h-1v1Zm0 0 1 1v-1h-1Zm0 2-1-1v2l1-1Zm3 1-1 1h1v-1Zm3 1v1-1Zm1 0v1l1-1h-1Zm0-3v-1h-1v1h1Zm1 0v-1 1Zm1 2-1 1h1v-1Zm0 0v2l1-1-1-1Zm2 0h1-1Zm3-2-1-1 1 1Zm4-1v-1 1Zm1 0v1h1l-1-1Zm3-1Zm2-2-1-1 1 1Zm5-1v-1h-1l1 1Zm2 2h1-1Zm0 1h1-1Zm-1 1-1-1 1 1Zm-1 2h-1 1Zm1 0-1 1 1-1Zm1 1h1v-1l-1 1Zm0 1 1 1v-1h-1Zm0 0v1h1l-1-1Zm-2 1h-1 1Zm-1 4h-1 1Zm0 2h-1 1Zm1 3h-1 1Zm1 3-1 1h1v-1Zm3 3h1v-1l-1 1Zm0 0 1 1v-1h-1Zm0 2-1-1 1 1Zm0 0h-1v1l1-1Zm0 2h1v-1l-1 1Zm1 1h1-1Zm-1 1h1-1Zm-1 2h1-1Zm-1 1v1l1-1h-1Zm-3-1-1 1h1v-1Zm-1-1 1-1h-1v1Zm-2-2v-1h-1v1h1Zm-1 2-1-1h-1l1 1h1Zm0 3 1 1v-1h-1Zm0 1v1-1Zm-1 0v1-1Zm-3-1 1-1h-1v1Zm-1 0v-1 1Zm0 0-1-1v1h1Zm-1 3h-1v1h1v-1Zm1 0h1v-1h-1v1Zm0 1 1 1h1l-1-1h-1Zm0 1 1 1-1-1Zm-1 1v-1l-1 1h1Zm0 2h-1 1Zm1 0-1 1 1-1Zm0 1 1-1-1 1Zm1 4h1-1Zm-1 0 1 1-1-1Zm-3 1v-1 1Zm-2 2v1-1h1-1Zm-1-1v-1l-2 1 1 1 1-1Zm0 0v-3h-2v3h2Zm0-2 1-1-2-1-1 1 2 1Zm1-2v-2h-2v2h2Zm-1-3-1-1-2 1 2 2 1-2Zm-2-2h-12v2h12v-2Zm-13 1v4h2v-4h-2Zm0 3-1 2 2 1 1-2-2-1Zm-1 3 1 3 2-1-1-3-2 1Zm2 4h14v-2h-14v2Zm13-2-1 2h2l1-1-2-1Zm-1 2 1 2 2-1-1-1h-2Zm1 1-1 2h2v-1l-1-1Zm-1 1-1 2 2 1 1-1-2-2Zm-1 2v1l1 1 1-1-2-1Zm0 2v1l2-1-1-1-1 1Zm1 2h1v-2l-1 2Zm1 0 1 1 1-2-1-1-1 2Zm1 0 1 5 2-1-2-4h-1Zm1 4v1h2v-1h-2Zm0 0-2 3 2 1 2-2-2-2Zm-2 3-3 3 1 1 4-3-2-1Zm-3 3-1 2 2 1 1-2-2-1Zm0 3 1 1 1-1-1-1-1 1Zm2 2 1-1-1-2-1 1 1 2Zm0-1 1 1 1-2-1-1-1 2Zm1 0v1l2-1v-1l-2 1Zm0 0v1h2v-1h-2Zm0 1v1h2v-1h-2Zm0 0v1l1 1h1l-2-2Zm0 2-1 1 2 1v-2h-1Zm-1 2 1 3h2l-1-4-2 1Zm2 2-3 2 1 2 3-2-1-2Zm-3 2h-1v2h1v-2Zm-2 0v1l1 2 1-1-2-2Zm-1 2v1h2v-1h-2Zm0 0-4 3 1 1 4-2-1-2Zm-3 3-1-1-1 2 2-1Zm-1-1-4-2-1 2 4 2 1-2Zm-5-2-1 1 1 1h1l-1-2Zm0 1h-1v2h1v-2Zm-1 0h-1v2h1v-2Zm-1 0-2-1v2l1 1 1-2Zm-2-1-4 1 1 2 3-1v-2Zm-3 1-2-1-1 2h2l1-1Zm-3-1-4 2 1 2 4-2-1-2Zm-4 3-3 2 2 2 2-3-1-1Zm-2 2v2-2Zm0 0-1-1-1 1 1 2 1-2Zm-2-1-1-1v2l1 1v-2Zm-2-1-3 2 1 2 3-2-1-2Zm-2 2-4-1v2l4 1v-2Zm-4-1-3 1 1 2 3-1-1-2Zm-2 1-3 1 1 2 2-1v-2Zm-3 1-1 2 1 1 2-2-2-1Zm-2 2-1 3 2 1 1-3-2-1Zm-1 3v1h2v-1h-2Zm0 1v1l1 1 1-1-2-1Zm0 0-1 1 1 2 1-1-1-2Zm0 1-1-1v2l1 1v-2Zm-1-1-1 1 1 2v-3Zm-1 1h-1l1 2 1-1-1-1Zm-1 1-2 2 2 1 1-2-1-1Zm-2 2-1 2h2l1-1-2-1Zm0 3 2-1-1-1-1 2Zm0 0h2-2Zm0-1 1 2h1l-2-2Zm1 0h-1l-1 2h1l1-2Zm0 0h-1l-1 1 2-1Zm-1 0-2-3-2 2 3 2 1-1Zm-3-3h-3v2h3v-2Zm-2 0-2-2-1 2 1 1 2-1Zm-2-2h-2l-1 2h2l1-2Zm-2 0h-2v2h2v-2Zm-1 0-4-2v2l3 2 1-2Zm-3-1-1-1-1 1v1l2-1Zm-1-1-3-2-1 2 3 1 1-1Zm-3-2h-1l-1 1 1 1 1-2Zm-1 0-1-1-1 2h1l1-1Zm-1-1h-1l-1 2h1l1-2Zm-1 0-3-2-1 2 3 2 1-2Zm-3-2h-3v2h3v-2Zm-3 0h-3l-1 2h4v-2Zm-3 0-2 1h1l1-1Zm0 1 1-1-2-1-1 1 2 1Zm1-1v-1l-2-1v1l2 1Zm0-1 1-2-1-1-2 2 2 1Zm1-3h-2v1l2-1Zm0-1-2-1-1 2 2 1 1-2Zm-3 0h-1l1 2 1-1-1-1Zm-1 0-1 2h1v-2Zm0 0-2 1h1l1-1Zm0 0v-1l-2 1v1l2-1Zm0 0v-3h-2v2l2 1Zm0-3v-2h-2v2h2Zm0-2-1-2-2 1 1 2 2-1Zm-1-2v-3h-2v3h2Zm0-4-2-2-1 1 1 2 2-1Zm-1-1-1-1h-2l1 1h2Zm-1-1 1-3h-2l-1 3h2Zm1-3 2-3-2-1-2 3 2 1Zm2-4 1-2-2-1-1 3h2Zm0-2 1-1-1-1-1 1 1 1Zm1 0 2-1-1-2-2 1 1 2Zm2-1 2-2-2-2-1 2 1 2Zm2-2 1-2-2-1-1 2 2 1Zm1-3 1-1-2-1-1 2h2Zm0-1 1-1-2-1v1l1 1Zm1-1 1-1-1-1-2 1 2 1Zm1-1 1-1-2-1-1 1 2 1Zm1-2v-1h-2v1h2Zm0-1h1l-1-2-1 1 1 1Zm2-1 1-2-2-1-1 2 2 1Zm0-2h3v-2h-3v2Zm3 0 3-1-1-2-3 1 1 2Zm3-1-1-2 1 2Zm0-1 2-4h-1l-2 4h1Zm2-3 1-1-2-2v1l1 2Zm1-2 1-4h-2l-1 4h2Zm1-3v-1l-2-1v1l2 1Zm0-1 2-2-2-1-2 2 2 1Zm1-2 2-1-1-1-2 1 1 1Zm2 0 1-1-1-2-1 1 1 2Zm0-1 1 1 1-2-1-1-1 2Zm2 1 1-1-1-2-1 1 1 2Zm2-1 1-1-1-2-2 2 2 1Zm1-2 1-3h-2l-1 3h2Zm1-2 1-3-2-1-1 3 2 1Zm1-4h-2 2Zm0-1v-1l-2 1v1l2-1Zm0 0v-3h-2v2l2 1Zm0-3 2-3h-2l-2 2 2 1Zm2-3v-5h-2v5h2Zm-1-4 1-1-1-2-1 1 1 2Zm2-1 1-3-2-1-1 3 2 1Zm1-3 2-3-2-1-2 3 2 1Zm2-3v-1l-2-1v1l2 1Zm0-1v-3h-2v3h2Zm0-2v-1l-2-1v1l2 1Zm0-1 1-1-1-1-1 1 1 1Zm1-1v-1l-2-1v1l2 1Zm0-2h-2v1l2-1Zm0 0-1-1 1 1Zm1-1v-1l-2-1v2h2Zm0-1v-1l-1-1-1 1 2 1Zm0-1 2-2-2-1-1 2 1 1Zm2-2-1-2v1l1 1Zm-1-1v2h2v-2h-2Zm0 1-1 2 1 1 2-2-2-1Zm-1 2-1 3h2l1-2-2-1Zm0 4h2l1-2h-3v2Zm2 0 2 1 1-2-2-1-1 2Zm2 1 4 1v-2l-3-1-1 2Zm4 0 3 2 1-2-3-1-1 1Zm3 2 4 1v-1l-3-2-1 2Zm4 1h1l-1-2v2Zm2 0 1-6-2-1-1 6 2 1Zm1-6 1-2-1-1-2 2 2 1Zm1-2 1-1-1-1-1 1 1 1Zm0-1 1 1 2-1-1-1-2 1Zm1 1 1 2 2-1-1-2-2 1Zm1 2 1 3h2l-1-4-2 1Zm1 3 1 3h1v-3h-2Zm1 4h2v-2h-1l-1 2Zm2 0 1-1-1-1h-1l1 2Zm1-1 1-1-2-1-1 1 2 1Zm0-1h1l-2-2v1l1 1Zm0 0h3v-2h-3v2Zm3 0h4v-2h-4v2Zm3-1v1l2-1v-1l-2 1Zm0 0v1l2 1v-1l-2-1Zm0 3 3 1 1-2-3-1-1 2Zm4 1 3 1v-2l-3-1v2Zm3 1h1l-1-2v2Zm2-1v-3h-2v3h2Zm-1-2h1v-2h-1v2Zm0-1 1 3 2-1-2-3-1 1Zm2 3 1-1v-1l-1 2Zm1 0 2-1-1-1-2 1 1 1Zm2-1 2-2-1-1-2 2 1 1Zm2-1 4-1v-2l-5 1 1 2Zm4-1h1v-2h-1v2Zm2 0 2-2-1-1-2 1 1 2Zm2-2 2-1-1-2-2 2 1 1Zm2-1 5-1-1-2-5 1 1 2Zm4-1 3 2 1-1-3-3-1 2Zm2 1v1h2v-1h-2Zm1 0-2 1 1 1 2-1-1-1Zm-2 1-1 3h2l1-2-2-1Zm-1 3 1 1 1-1h-2Zm1 1 2 1 1-2-2-1-1 2Zm1 0v1h2v-1h-2Zm0 1 2 1-2-1Zm0 0-1 1 1 1 1-1-1-1Zm-2 1-1 4h2l1-3-2-1Zm-1 4v2h2v-2h-2Zm0 2 1 3h2l-1-4-2 1Zm1 3 1 4 2-1-1-4-2 1Zm2 4 3 2 1-1-3-3-1 2Zm2 2h2-2Zm1 0-1 1 2 1v-1l-1-1Zm-1 1v1h2l-2-1Zm0 2v1l2-1v-1l-2 1Zm0 1 1 1h1v-1h-2Zm1 1h-1l2 1v-1h-1Zm-1 0-1 2 2 1 1-2-2-1Zm-1 2-1 1 2 1 1-1-2-1Zm0 1-3-1v2l3 1v-2Zm-2 0-1-2-2 1 1 2 2-1Zm-2-2-2-2-1 2 2 1 1-1Zm-3-1-1 1 1 1 1-1-1-1Zm-1 2v3h2v-4l-2 1Zm0 2v1l1 1h1l-2-2Zm0 1v2h1l-1-2Zm1 0-3-1-1 2 3 1 1-2Zm-4-1h-1l1 2h1l-1-2Zm-1 0h-1l2 2-1-2Zm-1 1-1 3 2 1 1-4h-2Zm0 4h1v-2h-1v2Zm0 0 1 1 1-1v-1l-2 1Zm1 0-1 1 2 1v-1l-1-1Zm-1 1 1 2 1-1-2-1Zm-1 1v2h2v-2h-2Zm0 2 1 1 2-1-1-1-2 1Zm1 1 1 1 1-2h-1l-1 1Zm0 0 1 4h2l-1-5-2 1Zm1 3 1 2 1-1-2-1Zm0 0-3 1v2l4-1-1-2Zm-3 1-3 2 2 1 2-1-1-2Zm-2 2h-1v2h1v-2Z" fill="#000" fill-opacity=".2" mask="url(#g)" />
    <mask id="h" fill="#fff">
      <path d="m439 124-2 2-1 1v1l2-2 1-1 2-1 1-1 1-7h2l1-1h1l1 1-1 1-1 2-3 1v1h1v-1h1v2l4-5h1l2-1 4 1v-3h3l1 1 3 1h1l2 1h1l1 1 2 2h4v1h4l1-1h-1 2v2l1 1-1 1-2 2-3 4h-4l-3 4v1l-1 2-2 2-1 2-1 1v2h2v3l-1 3 1 2 1 3v3h-1l-4 4v5l1 2 2 2 1 1v5l-1 1-1 1-2 1-1-1h-1l-2 1h-1l-3-1-1-1-1 1h-3l-1 1-2 1v2l-2 2h-2l-3 3h-2l-2 2h-1l-2 1h-3l-2 2-1 3v3l-1 2-1 3h-1v2l-1 2-2 2-1 2 1 2 1 3 1 3-1 1v6l-1 3v3l-1-1-1-1h-1l-1-1-1 1-1-1-1-1-1-3-2-2v-1l1-2v-1l-4-1v-3l-1-1-1-1h-2v-1l3-3-1-1 1-3 1-1v-1h5l-1-2 1-3v-2l-2-1-4 1-2 2-2-3-1-1-3-4h-1v-4h-2l-2-1v-1h2l2-2v-5l2-6-1-1v-5l-1-1v-4l-1-1-3-1h-1l-1-1v-1h-4l-3-1h-2l-3 2h-1l14-11h2l2-1 1-2v-1l2-1 1-3h1l2-2v-1l1-2 1-5 2-1 1-2 1-1 1-1v-3l-1-1 4-3v-4l2-2 1-3v-2h-1l-1-1h2v-1l1-4v-3h2v-1l1-1 1 1v2h1l1-1 1 2h1v-1h2l1 1-1 2v1l1-2 1-1 1 1-1 1v4h1l1-1-1-1v-1l2-1h3l1-1v1l-1 2 2-1v2l2 2h2l1 3-2 3-1 1h1l1-2h1l1 1 1 1-1 2h-1l-1 1-1 1v1l-1 2v4h1Zm0 0 1-2-1-1 1-2h1v4h-1l-1 1Zm-6-24v-2h2v1l-2 1Zm4 4h-1v-1l1-1h1v2-1l-1 1Zm-14-5 1-3v3h-1Z" />
    </mask>
    <path d="m439 124-2 2-1 1v1l2-2 1-1 2-1 1-1 1-7h2l1-1h1l1 1-1 1-1 2-3 1v1h1v-1h1v2l4-5h1l2-1 4 1v-3h3l1 1 3 1h1l2 1h1l1 1 2 2h4v1h4l1-1h-1 2v2l1 1-1 1-2 2-3 4h-4l-3 4v1l-1 2-2 2-1 2-1 1v2h2v3l-1 3 1 2 1 3v3h-1l-4 4v5l1 2 2 2 1 1v5l-1 1-1 1-2 1-1-1h-1l-2 1h-1l-3-1-1-1-1 1h-3l-1 1-2 1v2l-2 2h-2l-3 3h-2l-2 2h-1l-2 1h-3l-2 2-1 3v3l-1 2-1 3h-1v2l-1 2-2 2-1 2 1 2 1 3 1 3-1 1v6l-1 3v3l-1-1-1-1h-1l-1-1-1 1-1-1-1-1-1-3-2-2v-1l1-2v-1l-4-1v-3l-1-1-1-1h-2v-1l3-3-1-1 1-3 1-1v-1h5l-1-2 1-3v-2l-2-1-4 1-2 2-2-3-1-1-3-4h-1v-4h-2l-2-1v-1h2l2-2v-5l2-6-1-1v-5l-1-1v-4l-1-1-3-1h-1l-1-1v-1h-4l-3-1h-2l-3 2h-1l14-11h2l2-1 1-2v-1l2-1 1-3h1l2-2v-1l1-2 1-5 2-1 1-2 1-1 1-1v-3l-1-1 4-3v-4l2-2 1-3v-2h-1l-1-1h2v-1l1-4v-3h2v-1l1-1 1 1v2h1l1-1 1 2h1v-1h2l1 1-1 2v1l1-2 1-1 1 1-1 1v4h1l1-1-1-1v-1l2-1h3l1-1v1l-1 2 2-1v2l2 2h2l1 3-2 3-1 1h1l1-2h1l1 1 1 1-1 2h-1l-1 1-1 1v1l-1 2v4h1Zm0 0 1-2-1-1 1-2h1v4h-1l-1 1Zm-6-24v-2h2v1l-2 1Zm4 4h-1v-1l1-1h1v2-1l-1 1Zm-14-5 1-3v3h-1Z" fill="#fff" />
    <path d="m439 124-2 2-1 1v1l2-2 1-1 2-1 1-1 1-7h2l1-1h1l1 1-1 1-1 2-3 1v1h1v-1h1v2l4-5h1l2-1 4 1v-3h3l1 1 3 1h1l2 1h1l1 1 2 2h4v1h4l1-1h-1 2v2l1 1-1 1-2 2-3 4h-4l-3 4v1l-1 2-2 2-1 2-1 1v2h2v3l-1 3 1 2 1 3v3h-1l-4 4v5l1 2 2 2 1 1v5l-1 1-1 1-2 1-1-1h-1l-2 1h-1l-3-1-1-1-1 1h-3l-1 1-2 1v2l-2 2h-2l-3 3h-2l-2 2h-1l-2 1h-3l-2 2-1 3v3l-1 2-1 3h-1v2l-1 2-2 2-1 2 1 2 1 3 1 3-1 1v6l-1 3v3l-1-1-1-1h-1l-1-1-1 1-1-1-1-1-1-3-2-2v-1l1-2v-1l-4-1v-3l-1-1-1-1h-2v-1l3-3-1-1 1-3 1-1v-1h5l-1-2 1-3v-2l-2-1-4 1-2 2-2-3-1-1-3-4h-1v-4h-2l-2-1v-1h2l2-2v-5l2-6-1-1v-5l-1-1v-4l-1-1-3-1h-1l-1-1v-1h-4l-3-1h-2l-3 2h-1l14-11h2l2-1 1-2v-1l2-1 1-3h1l2-2v-1l1-2 1-5 2-1 1-2 1-1 1-1v-3l-1-1 4-3v-4l2-2 1-3v-2h-1l-1-1h2v-1l1-4v-3h2v-1l1-1 1 1v2h1l1-1 1 2h1v-1h2l1 1-1 2v1l1-2 1-1 1 1-1 1v4h1l1-1-1-1v-1l2-1h3l1-1v1l-1 2 2-1v2l2 2h2l1 3-2 3-1 1h1l1-2h1l1 1 1 1-1 2h-1l-1 1-1 1v1l-1 2v4h1Zm0 0 1-2-1-1 1-2h1v4h-1l-1 1Zm-6-24v-2h2v1l-2 1Zm4 4h-1v-1l1-1h1v2-1l-1 1Zm-14-5 1-3v3h-1Z" stroke="#0E4686" stroke-width="2" mask="url(#h)" />
    <path d="m439 124-2 2-1 1v1l2-2 1-1 2-1 1-1 1-7h2l1-1h1l1 1-1 1-1 2-3 1v1h1v-1h1v2l4-5h1l2-1 4 1v-3h3l1 1 3 1h1l2 1h1l1 1 2 2h4v1h4l1-1h-1 2v2l1 1-1 1-2 2-3 4h-4l-3 4v1l-1 2-2 2-1 2-1 1v2h2v3l-1 3 1 2 1 3v3h-1l-4 4v5l1 2 2 2 1 1v5l-1 1-1 1-2 1-1-1h-1l-2 1h-1l-3-1-1-1-1 1h-3l-1 1-2 1v2l-2 2h-2l-3 3h-2l-2 2h-1l-2 1h-3l-2 2-1 3v3l-1 2-1 3h-1v2l-1 2-2 2-1 2 1 2 1 3 1 3-1 1v6l-1 3v3l-1-1-1-1h-1l-1-1-1 1-1-1-1-1-1-3-2-2v-1l1-2v-1l-4-1v-3l-1-1-1-1h-2v-1l3-3-1-1 1-3 1-1v-1h5l-1-2 1-3v-2l-2-1-4 1-2 2-2-3-1-1-3-4h-1v-4h-2l-2-1v-1h2l2-2v-5l2-6-1-1v-5l-1-1v-4l-1-1-3-1h-1l-1-1v-1h-4l-3-1h-2l-3 2h-1l14-11h2l2-1 1-2v-1l2-1 1-3h1l2-2v-1l1-2 1-5 2-1 1-2 1-1 1-1v-3l-1-1 4-3v-4l2-2 1-3v-2h-1l-1-1h2v-1l1-4v-3h2v-1l1-1 1 1v2h1l1-1 1 2h1v-1h2l1 1-1 2v1l1-2 1-1 1 1-1 1v4h1l1-1-1-1v-1l2-1h3l1-1v1l-1 2 2-1v2l2 2h2l1 3-2 3-1 1h1l1-2h1l1 1 1 1-1 2h-1l-1 1-1 1v1l-1 2v4h1Zm0 0 1-2-1-1 1-2h1v4h-1l-1 1Zm-6-24v-2h2v1l-2 1Zm4 4h-1v-1l1-1h1v2-1l-1 1Zm-14-5 1-3v3h-1Z" stroke="#000" stroke-opacity=".2" stroke-width="2" mask="url(#h)" />
    <mask id="i" fill="#fff">
      <path d="m505 350-1-1-3-1h-1l-1 1h-1l-2 1-1-1 1 3h-2l-2 1-1 2 1 1 1 1v1l-1 2h1l1 1v2h-5l1 1h1l1 1 2 3v2l-1 3-1 2-1 1h-1v2l-1 2-1 1-1 3v1h-5l-2 2 1 3-1 1v3l-3 2h-1v1l-2 6-2 4h2v1l-3 1-9 5h-1v-1h-4l-1 1h-5l-4 2h-1l-2 1h-3l-2 1-3 1v1h-4l-2 1-1 2h-6v-1h-1v4l-1 1h-8l-2-3 1-1v-2h-2l-2-1v-10l2-2 1-2v-2h-1l-3-1h-1l-1 1h-2v-3l-2-2v-3h-1v-2l2-2v-1l-1-1-2-1v-3l1-1v-1l-4-3h-1l-1 1-1-1h-2l-1 1v1l-3 1-1-1-1-1-1 1-8 1-1 1v3h-1v-4h-1l-1 1v1h-2l-1-2v-2l-2-1-2-1h-9l-2-1-2-1h-2l-1 2h-2l-2 1-1 2v-3l-1-3 1-4h2l-1-1 1-2 2-2 1-1 1 1v-1l1-1v-1l1-2 2-2 2-1 2-1 4 1 3-2 1 1 2 1 3-3 4-2 1 1 4-1 2 1h2v-1l4 2 1 1 5-3v-1l1-1h1l3-2-1-3 1-2v-3l-2-1-1 1-1-1 1-2 3-3 2-3v-1l-2-4-1-1h-1l-1-1 1-2 1-1 1-1-1-2 1-1h1l2-2 3-1h1l-1-4v-1h-1v-2l1-1v-2h-1l1-3h1l3 1h1v-4l1-2 2 2 1 1 3 1 1-1v2l-1 3h2v-1h3l1-1 2-2h1l1-1 2-1 1-1 2-1 3-1v-2l5-2 3-2h2l1 1h4l1 1-1 2v3h1l5 1 1-1 2-1h2l2 1h1l4 4h1l2 1 3 1 1 1v-1l2 1 4-1 6 6 1 4h4l2-1h1l3 1 2 1h4l3 3h2v1l1 1-2 3-4 4-1 3 1 1-1 1-2-1-1 1-1 3v5-1h1v3l4 3 1 1v1l-1 1 1 1Z" />
    </mask>
    <path d="m505 350-1-1-3-1h-1l-1 1h-1l-2 1-1-1 1 3h-2l-2 1-1 2 1 1 1 1v1l-1 2h1l1 1v2h-5l1 1h1l1 1 2 3v2l-1 3-1 2-1 1h-1v2l-1 2-1 1-1 3v1h-5l-2 2 1 3-1 1v3l-3 2h-1v1l-2 6-2 4h2v1l-3 1-9 5h-1v-1h-4l-1 1h-5l-4 2h-1l-2 1h-3l-2 1-3 1v1h-4l-2 1-1 2h-6v-1h-1v4l-1 1h-8l-2-3 1-1v-2h-2l-2-1v-10l2-2 1-2v-2h-1l-3-1h-1l-1 1h-2v-3l-2-2v-3h-1v-2l2-2v-1l-1-1-2-1v-3l1-1v-1l-4-3h-1l-1 1-1-1h-2l-1 1v1l-3 1-1-1-1-1-1 1-8 1-1 1v3h-1v-4h-1l-1 1v1h-2l-1-2v-2l-2-1-2-1h-9l-2-1-2-1h-2l-1 2h-2l-2 1-1 2v-3l-1-3 1-4h2l-1-1 1-2 2-2 1-1 1 1v-1l1-1v-1l1-2 2-2 2-1 2-1 4 1 3-2 1 1 2 1 3-3 4-2 1 1 4-1 2 1h2v-1l4 2 1 1 5-3v-1l1-1h1l3-2-1-3 1-2v-3l-2-1-1 1-1-1 1-2 3-3 2-3v-1l-2-4-1-1h-1l-1-1 1-2 1-1 1-1-1-2 1-1h1l2-2 3-1h1l-1-4v-1h-1v-2l1-1v-2h-1l1-3h1l3 1h1v-4l1-2 2 2 1 1 3 1 1-1v2l-1 3h2v-1h3l1-1 2-2h1l1-1 2-1 1-1 2-1 3-1v-2l5-2 3-2h2l1 1h4l1 1-1 2v3h1l5 1 1-1 2-1h2l2 1h1l4 4h1l2 1 3 1 1 1v-1l2 1 4-1 6 6 1 4h4l2-1h1l3 1 2 1h4l3 3h2v1l1 1-2 3-4 4-1 3 1 1-1 1-2-1-1 1-1 3v5-1h1v3l4 3 1 1v1l-1 1 1 1Z" fill="#fff" />
    <path d="m505 350-1-1-3-1h-1l-1 1h-1l-2 1-1-1 1 3h-2l-2 1-1 2 1 1 1 1v1l-1 2h1l1 1v2h-5l1 1h1l1 1 2 3v2l-1 3-1 2-1 1h-1v2l-1 2-1 1-1 3v1h-5l-2 2 1 3-1 1v3l-3 2h-1v1l-2 6-2 4h2v1l-3 1-9 5h-1v-1h-4l-1 1h-5l-4 2h-1l-2 1h-3l-2 1-3 1v1h-4l-2 1-1 2h-6v-1h-1v4l-1 1h-8l-2-3 1-1v-2h-2l-2-1v-10l2-2 1-2v-2h-1l-3-1h-1l-1 1h-2v-3l-2-2v-3h-1v-2l2-2v-1l-1-1-2-1v-3l1-1v-1l-4-3h-1l-1 1-1-1h-2l-1 1v1l-3 1-1-1-1-1-1 1-8 1-1 1v3h-1v-4h-1l-1 1v1h-2l-1-2v-2l-2-1-2-1h-9l-2-1-2-1h-2l-1 2h-2l-2 1-1 2v-3l-1-3 1-4h2l-1-1 1-2 2-2 1-1 1 1v-1l1-1v-1l1-2 2-2 2-1 2-1 4 1 3-2 1 1 2 1 3-3 4-2 1 1 4-1 2 1h2v-1l4 2 1 1 5-3v-1l1-1h1l3-2-1-3 1-2v-3l-2-1-1 1-1-1 1-2 3-3 2-3v-1l-2-4-1-1h-1l-1-1 1-2 1-1 1-1-1-2 1-1h1l2-2 3-1h1l-1-4v-1h-1v-2l1-1v-2h-1l1-3h1l3 1h1v-4l1-2 2 2 1 1 3 1 1-1v2l-1 3h2v-1h3l1-1 2-2h1l1-1 2-1 1-1 2-1 3-1v-2l5-2 3-2h2l1 1h4l1 1-1 2v3h1l5 1 1-1 2-1h2l2 1h1l4 4h1l2 1 3 1 1 1v-1l2 1 4-1 6 6 1 4h4l2-1h1l3 1 2 1h4l3 3h2v1l1 1-2 3-4 4-1 3 1 1-1 1-2-1-1 1-1 3v5-1h1v3l4 3 1 1v1l-1 1 1 1Z" stroke="#0E4686" stroke-width="2" mask="url(#i)" />
    <path d="m505 350-1-1-3-1h-1l-1 1h-1l-2 1-1-1 1 3h-2l-2 1-1 2 1 1 1 1v1l-1 2h1l1 1v2h-5l1 1h1l1 1 2 3v2l-1 3-1 2-1 1h-1v2l-1 2-1 1-1 3v1h-5l-2 2 1 3-1 1v3l-3 2h-1v1l-2 6-2 4h2v1l-3 1-9 5h-1v-1h-4l-1 1h-5l-4 2h-1l-2 1h-3l-2 1-3 1v1h-4l-2 1-1 2h-6v-1h-1v4l-1 1h-8l-2-3 1-1v-2h-2l-2-1v-10l2-2 1-2v-2h-1l-3-1h-1l-1 1h-2v-3l-2-2v-3h-1v-2l2-2v-1l-1-1-2-1v-3l1-1v-1l-4-3h-1l-1 1-1-1h-2l-1 1v1l-3 1-1-1-1-1-1 1-8 1-1 1v3h-1v-4h-1l-1 1v1h-2l-1-2v-2l-2-1-2-1h-9l-2-1-2-1h-2l-1 2h-2l-2 1-1 2v-3l-1-3 1-4h2l-1-1 1-2 2-2 1-1 1 1v-1l1-1v-1l1-2 2-2 2-1 2-1 4 1 3-2 1 1 2 1 3-3 4-2 1 1 4-1 2 1h2v-1l4 2 1 1 5-3v-1l1-1h1l3-2-1-3 1-2v-3l-2-1-1 1-1-1 1-2 3-3 2-3v-1l-2-4-1-1h-1l-1-1 1-2 1-1 1-1-1-2 1-1h1l2-2 3-1h1l-1-4v-1h-1v-2l1-1v-2h-1l1-3h1l3 1h1v-4l1-2 2 2 1 1 3 1 1-1v2l-1 3h2v-1h3l1-1 2-2h1l1-1 2-1 1-1 2-1 3-1v-2l5-2 3-2h2l1 1h4l1 1-1 2v3h1l5 1 1-1 2-1h2l2 1h1l4 4h1l2 1 3 1 1 1v-1l2 1 4-1 6 6 1 4h4l2-1h1l3 1 2 1h4l3 3h2v1l1 1-2 3-4 4-1 3 1 1-1 1-2-1-1 1-1 3v5-1h1v3l4 3 1 1v1l-1 1 1 1Z" stroke="#000" stroke-opacity=".2" stroke-width="2" mask="url(#i)" />
    <mask id="j" fill="#fff">
      <path d="m344 383-1 2-2 1h-1l-1 1-2 3h-1l-1 1-1 1v3l-2 4h-1v3l-1 2-2 3v2l-1 1-1 1-1 1-2 3-2 1-7 5-1 1-1 1v1l-6 3h-1l-1 3v1l-1 3-1 1-1 1h-2l-1 8v1l-3 1-2-2-3-2-4 2-1 1h-1l-3 1-2-1-1-1-1-4-1-1v-3l1-1-1-1v-3l-1-2-1-2v-1l1-1v-2l-2-1v-3l-2-1-2-1-1 1-2-1-2-1-1-2h-1l-2 3h-6l-2-1-3 1-4-1v-1h-5v-10l1-1 1-1v-6l-1-2v-3h-1v1l-1-4-1-1-1-2v-2l4-2 1-1-4-4 5-11h1l-1-2 3-10v-1l-2-5v-2l1 1 2 1 6-1 2-2 1-3 1-1 1-2h6l1-1 2-1 2 1v1l3 1h3v1l1 1 3 2 1 1h6l1-1v-1l2-1h2l2 1v2h1l2-1h1l5-6h2l-1 7h-2l-2 3v1h1l2 1 5 1v-1h3l2 1 1-1v6h1l1-1 2 1v1l-1 1v1l-1 1v1h7l2 2h1l2 1 3 2h1l3 2h3l2 2h3l3 2v1h-1l-1 4 1 3v3Z" />
    </mask>
    <path d="m344 383-1 2-2 1h-1l-1 1-2 3h-1l-1 1-1 1v3l-2 4h-1v3l-1 2-2 3v2l-1 1-1 1-1 1-2 3-2 1-7 5-1 1-1 1v1l-6 3h-1l-1 3v1l-1 3-1 1-1 1h-2l-1 8v1l-3 1-2-2-3-2-4 2-1 1h-1l-3 1-2-1-1-1-1-4-1-1v-3l1-1-1-1v-3l-1-2-1-2v-1l1-1v-2l-2-1v-3l-2-1-2-1-1 1-2-1-2-1-1-2h-1l-2 3h-6l-2-1-3 1-4-1v-1h-5v-10l1-1 1-1v-6l-1-2v-3h-1v1l-1-4-1-1-1-2v-2l4-2 1-1-4-4 5-11h1l-1-2 3-10v-1l-2-5v-2l1 1 2 1 6-1 2-2 1-3 1-1 1-2h6l1-1 2-1 2 1v1l3 1h3v1l1 1 3 2 1 1h6l1-1v-1l2-1h2l2 1v2h1l2-1h1l5-6h2l-1 7h-2l-2 3v1h1l2 1 5 1v-1h3l2 1 1-1v6h1l1-1 2 1v1l-1 1v1l-1 1v1h7l2 2h1l2 1 3 2h1l3 2h3l2 2h3l3 2v1h-1l-1 4 1 3v3Z" fill="#fff" />
    <path d="m344 383-1 2-2 1h-1l-1 1-2 3h-1l-1 1-1 1v3l-2 4h-1v3l-1 2-2 3v2l-1 1-1 1-1 1-2 3-2 1-7 5-1 1-1 1v1l-6 3h-1l-1 3v1l-1 3-1 1-1 1h-2l-1 8v1l-3 1-2-2-3-2-4 2-1 1h-1l-3 1-2-1-1-1-1-4-1-1v-3l1-1-1-1v-3l-1-2-1-2v-1l1-1v-2l-2-1v-3l-2-1-2-1-1 1-2-1-2-1-1-2h-1l-2 3h-6l-2-1-3 1-4-1v-1h-5v-10l1-1 1-1v-6l-1-2v-3h-1v1l-1-4-1-1-1-2v-2l4-2 1-1-4-4 5-11h1l-1-2 3-10v-1l-2-5v-2l1 1 2 1 6-1 2-2 1-3 1-1 1-2h6l1-1 2-1 2 1v1l3 1h3v1l1 1 3 2 1 1h6l1-1v-1l2-1h2l2 1v2h1l2-1h1l5-6h2l-1 7h-2l-2 3v1h1l2 1 5 1v-1h3l2 1 1-1v6h1l1-1 2 1v1l-1 1v1l-1 1v1h7l2 2h1l2 1 3 2h1l3 2h3l2 2h3l3 2v1h-1l-1 4 1 3v3Z" stroke="#0E4686" stroke-width="2" mask="url(#j)" />
    <path d="m344 383-1 2-2 1h-1l-1 1-2 3h-1l-1 1-1 1v3l-2 4h-1v3l-1 2-2 3v2l-1 1-1 1-1 1-2 3-2 1-7 5-1 1-1 1v1l-6 3h-1l-1 3v1l-1 3-1 1-1 1h-2l-1 8v1l-3 1-2-2-3-2-4 2-1 1h-1l-3 1-2-1-1-1-1-4-1-1v-3l1-1-1-1v-3l-1-2-1-2v-1l1-1v-2l-2-1v-3l-2-1-2-1-1 1-2-1-2-1-1-2h-1l-2 3h-6l-2-1-3 1-4-1v-1h-5v-10l1-1 1-1v-6l-1-2v-3h-1v1l-1-4-1-1-1-2v-2l4-2 1-1-4-4 5-11h1l-1-2 3-10v-1l-2-5v-2l1 1 2 1 6-1 2-2 1-3 1-1 1-2h6l1-1 2-1 2 1v1l3 1h3v1l1 1 3 2 1 1h6l1-1v-1l2-1h2l2 1v2h1l2-1h1l5-6h2l-1 7h-2l-2 3v1h1l2 1 5 1v-1h3l2 1 1-1v6h1l1-1 2 1v1l-1 1v1l-1 1v1h7l2 2h1l2 1 3 2h1l3 2h3l2 2h3l3 2v1h-1l-1 4 1 3v3Z" stroke="#000" stroke-opacity=".2" stroke-width="2" mask="url(#j)" />
    <mask id="k" fill="#fff">
      <path d="m198 284 2-2 4-2v-3l2-3v-1l2-1 1-1 1-2 1-2 1-2v-2l-1-1v-2l-1-3h-1l-1-1v-4l1-1 2-2v-1l-2-3h-1l-1-1-3 1-1-2h-16l1-9-2-2v-3l1-3v-6l-1-1v-1h-1l2-5v-3l-2-1h46l1-1 1-5 2-4-1-2v-2l1-1 1-2v-3l1-1 1 1 3 4v2l1 3 2 2v4l1 2v2l2 2 3 2 3 2v2l1 1 1-1 2 1v2h1l1-1 3 2 33 2 60 3-1 1v2l-1 1-1 3v2l-2 5-1 2v3l-1 6v1l1 1v1l-1 1 1 2v11l1 3 1 1v1l-1 1v5l-2 3-1 2-1 1v5l-2 3v4l-1 3-1 3-1 1-1 1-1-1-1 1-2 1-2 1v1l-1 4-1 1-1 4h-1l-2 1h-3l-1 3-2 1v1l-1 1-1 1v1l-1 2-1 2-2 2-2 1-1 3-2 4-1 3 1 1 1 2v3l1 2-1 1-2-1h-3v1l-5-1-2-1h-1v-1l2-3h2l1-7h-2l-5 6h-1l-2 1h-1v-2l-2-1h-2l-2 1v1l-1 1h-6l-1-1-3-2-1-1v-1h-3l-3-1v-1l-2-1-2 1-1 1h-6l-1 2-1 1-1 3-2 2-6 1-2-1-1-1-1-1v-1l-2-2h-3v-1l-2-1-2-1v-1l-1-1v-2l-1-2v-4l1-1 1-1v-4l-1 1-26-1-1-12-5-6h5l-1-7-2-5-1-2 1-1v-1l1-1-2-3-3-1h-1Z" />
    </mask>
    <path d="m198 284 2-2 4-2v-3l2-3v-1l2-1 1-1 1-2 1-2 1-2v-2l-1-1v-2l-1-3h-1l-1-1v-4l1-1 2-2v-1l-2-3h-1l-1-1-3 1-1-2h-16l1-9-2-2v-3l1-3v-6l-1-1v-1h-1l2-5v-3l-2-1h46l1-1 1-5 2-4-1-2v-2l1-1 1-2v-3l1-1 1 1 3 4v2l1 3 2 2v4l1 2v2l2 2 3 2 3 2v2l1 1 1-1 2 1v2h1l1-1 3 2 33 2 60 3-1 1v2l-1 1-1 3v2l-2 5-1 2v3l-1 6v1l1 1v1l-1 1 1 2v11l1 3 1 1v1l-1 1v5l-2 3-1 2-1 1v5l-2 3v4l-1 3-1 3-1 1-1 1-1-1-1 1-2 1-2 1v1l-1 4-1 1-1 4h-1l-2 1h-3l-1 3-2 1v1l-1 1-1 1v1l-1 2-1 2-2 2-2 1-1 3-2 4-1 3 1 1 1 2v3l1 2-1 1-2-1h-3v1l-5-1-2-1h-1v-1l2-3h2l1-7h-2l-5 6h-1l-2 1h-1v-2l-2-1h-2l-2 1v1l-1 1h-6l-1-1-3-2-1-1v-1h-3l-3-1v-1l-2-1-2 1-1 1h-6l-1 2-1 1-1 3-2 2-6 1-2-1-1-1-1-1v-1l-2-2h-3v-1l-2-1-2-1v-1l-1-1v-2l-1-2v-4l1-1 1-1v-4l-1 1-26-1-1-12-5-6h5l-1-7-2-5-1-2 1-1v-1l1-1-2-3-3-1h-1Z" fill="#fff" />
    <path d="m198 284 2-2 4-2v-3l2-3v-1l2-1 1-1 1-2 1-2 1-2v-2l-1-1v-2l-1-3h-1l-1-1v-4l1-1 2-2v-1l-2-3h-1l-1-1-3 1-1-2h-16l1-9-2-2v-3l1-3v-6l-1-1v-1h-1l2-5v-3l-2-1h46l1-1 1-5 2-4-1-2v-2l1-1 1-2v-3l1-1 1 1 3 4v2l1 3 2 2v4l1 2v2l2 2 3 2 3 2v2l1 1 1-1 2 1v2h1l1-1 3 2 33 2 60 3-1 1v2l-1 1-1 3v2l-2 5-1 2v3l-1 6v1l1 1v1l-1 1 1 2v11l1 3 1 1v1l-1 1v5l-2 3-1 2-1 1v5l-2 3v4l-1 3-1 3-1 1-1 1-1-1-1 1-2 1-2 1v1l-1 4-1 1-1 4h-1l-2 1h-3l-1 3-2 1v1l-1 1-1 1v1l-1 2-1 2-2 2-2 1-1 3-2 4-1 3 1 1 1 2v3l1 2-1 1-2-1h-3v1l-5-1-2-1h-1v-1l2-3h2l1-7h-2l-5 6h-1l-2 1h-1v-2l-2-1h-2l-2 1v1l-1 1h-6l-1-1-3-2-1-1v-1h-3l-3-1v-1l-2-1-2 1-1 1h-6l-1 2-1 1-1 3-2 2-6 1-2-1-1-1-1-1v-1l-2-2h-3v-1l-2-1-2-1v-1l-1-1v-2l-1-2v-4l1-1 1-1v-4l-1 1-26-1-1-12-5-6h5l-1-7-2-5-1-2 1-1v-1l1-1-2-3-3-1h-1Z" stroke="#0E4686" stroke-width="2" mask="url(#k)" />
    <path d="m198 284 2-2 4-2v-3l2-3v-1l2-1 1-1 1-2 1-2 1-2v-2l-1-1v-2l-1-3h-1l-1-1v-4l1-1 2-2v-1l-2-3h-1l-1-1-3 1-1-2h-16l1-9-2-2v-3l1-3v-6l-1-1v-1h-1l2-5v-3l-2-1h46l1-1 1-5 2-4-1-2v-2l1-1 1-2v-3l1-1 1 1 3 4v2l1 3 2 2v4l1 2v2l2 2 3 2 3 2v2l1 1 1-1 2 1v2h1l1-1 3 2 33 2 60 3-1 1v2l-1 1-1 3v2l-2 5-1 2v3l-1 6v1l1 1v1l-1 1 1 2v11l1 3 1 1v1l-1 1v5l-2 3-1 2-1 1v5l-2 3v4l-1 3-1 3-1 1-1 1-1-1-1 1-2 1-2 1v1l-1 4-1 1-1 4h-1l-2 1h-3l-1 3-2 1v1l-1 1-1 1v1l-1 2-1 2-2 2-2 1-1 3-2 4-1 3 1 1 1 2v3l1 2-1 1-2-1h-3v1l-5-1-2-1h-1v-1l2-3h2l1-7h-2l-5 6h-1l-2 1h-1v-2l-2-1h-2l-2 1v1l-1 1h-6l-1-1-3-2-1-1v-1h-3l-3-1v-1l-2-1-2 1-1 1h-6l-1 2-1 1-1 3-2 2-6 1-2-1-1-1-1-1v-1l-2-2h-3v-1l-2-1-2-1v-1l-1-1v-2l-1-2v-4l1-1 1-1v-4l-1 1-26-1-1-12-5-6h5l-1-7-2-5-1-2 1-1v-1l1-1-2-3-3-1h-1Z" stroke="#000" stroke-opacity=".2" stroke-width="2" mask="url(#k)" />
    <mask id="l" fill="#fff">
      <path d="m355 225-60-3-33-2-3-2-1 1h-1v-2l-2-1-1 1-1-1v-2l-3-2-3-2-2-2v-2l-1-2v-4l-2-2-1-3v-2l-3-4-1-1v-2l-1-2-2-1-1-1-1-2v-2h1l1-2 1-1 29-61-2-2v-1h-2v1l-2-1-1-2-3-1-1-1v-1l-1-1h-2l-2-1-2-1h-2l-1-2h-1l-4-3-5-3v-3l-2-2-1 1v-1l-2-2v-3h-1l-1-1v-2l1-2-1-4-1-16h1v1l1 1 2-1v-1h3v-2l2-1 1-1 2 1h2l1-2 3-1h3l1-2 1-1 1-1h2l2-1v1l1 1h4l2-1 1 1 1-1 2 1 5 1h1l1-1v-2l-2-3h-2l1-2 1-1v-1h2l2 2 12-3 1 2h2v10h7l2 1v1l1 1 1 1h1l1 1v1l2-1h1l3 2 1 2h-1l1 3 2 2 2 1v5l1 2 1 2v2l1 3h2l2 3v2l1 1h1v4l2 1v2l2 1h5v3l-1 1h-2l-1-1h-1l-3 1v1l-2 1h-2v1l6-1h1v2h1v-1h4l1-1 3-2 1-1h2l3-2 1-1 2-1 1-1v-1h2l1 3-1 3v1l1 2 1 1 1 2-2 2h-1l-2-1h-2l-2-1-1-1v-1l-3 4v2l1 3v1h1l-1-1-1-2 1-1 2-4 2 1v1l3 2v2l-1 1v2l1 1 1 1h1l-1-1-1-1v-4l1-1h1l1 1v1l1 1-1-2-1-2 2-2h2l2 1v1h1l2-1 4-1 2 1h3l1-1 1-1h1l2-1v1l-2 4v2l-1 1v5l1-1v-1l1-3 2-3 1-2h1l2-1 1-1 1-2 1-2h2l2 2 1 1v-3h4l-1-1-4 1v-3h1l1 1 1-3v-2l1-2 3-2v-1l1 2 3-2v-1l1 1-1 1h1l1-1h1v-1 1l1 1 1 1h1l-1-1-1-1v-1h3l1 1 1 1h1l2-1v3h1l1-2v2l3-1v1l1 2h-1 3l3-1v2l-1 2 2-1v-1l1 2h-1v3l-1 4v1h-1v1h1v2l-1 3-2 2v4l-4 3 1 1v3l-1 1-1 1-1 2-2 1-1 5-1 2v1l-2 2h-1l-1 3-2 1v1l-1 2-2 1h-2l-14 11h1l2 1h3l1 2h1l1 1v2h-2v2l1 1-1 2v1h-2v3h-1l-2 2-1 1 1 1-1 1-2 1-3 1-3 2 1 2v3l-2 2-1 1v2l1 1 1 1 1 1v4l-2 5h-1l-2 3v1l-1 2-1 1h-1l-1 1-1 2-1 1-1 1-1 2-1 4-2 3Zm20-124-4 2h-5l-1 1-2 1-1-2v3h-1l-3-2-1 1-4 1h-3l-1-1v-2l-1-1-1-2-1-1 1-3h2l1-1h-2l-1-1v-5l1-1v1h2-1l-1-3v-1l1-2 1-1 1-1h6l7 2 3-1h1l1-1h4l3 1 6 1h1v2h-1v2l-1 2-1 3-1 1v2l-2 2-1 4h-1Zm-45 0v-1l1-2-1-1 1-1h2l1-1v-3l1-2 1-1 2-2h3v2l-1 2v3l-2 1-1 2h-1l-4 4h-2Zm27-22h-4v-3h3l2-1 5-1 1 1v1l-3 1-1 3h-1l-2-1Zm5 0 2-1h2l1 1h1v1l-1 1h-6v-1l1-1Zm-16 4h-1l-2-1v-1l1-1h2l2-1h1l1 1-2 2h-1l-1 1Zm9-9h-1v-2l1-2 2-1 1 1v1l-2 2-1 1Zm-13 19h-1l1-1 1-3 2-1 1-1v2l-1 1-2 2-1 1Zm10-16-1-1v-1l1-4 1-1v3l1 2-1 1-1 1Zm-14 9v-1l1-1 1-2 1-1h1v2l-2 2-2 1Zm13-6v-1h-1l-1-2 1-1 2 1v2l-1 1Zm-5 29h-1v-1l-1 1-1-1-1-1v-1h1l3 1v2Zm-20-6v-2l2-1 1 1 1 1h-1l-3 1Zm12-6v-1l2-2v-2h1v1l-1 3-1 1h-1Zm6-9 1-3h2v1l-3 2Zm30 18-1-1v-1l1-1 1-1v1l-1 2v1Zm-32-19h-1l1-2 1-2 1 1-1 1-1 2Zm2 5h1-1l-1 1v1l-2 1v-1h1l1-2h1Zm-21 10-1-1 4-2v1l-1 1-2 1Zm60-5h-1l-1-1 1-1h2v2h-1Zm-35-18-3 1 1-1 1-1h1v1Zm-5 8v-1l2-1-1 2h-1Zm2 5-1-1 1-1h1v1l-1 1Zm26 15v-1l1-1h1v1h-1l-1 1Zm-25-23h-1l2-2v2h-1Zm64 10v-1l1-1 1 2h-2Z" />
    </mask>
    <path d="m355 225-60-3-33-2-3-2-1 1h-1v-2l-2-1-1 1-1-1v-2l-3-2-3-2-2-2v-2l-1-2v-4l-2-2-1-3v-2l-3-4-1-1v-2l-1-2-2-1-1-1-1-2v-2h1l1-2 1-1 29-61-2-2v-1h-2v1l-2-1-1-2-3-1-1-1v-1l-1-1h-2l-2-1-2-1h-2l-1-2h-1l-4-3-5-3v-3l-2-2-1 1v-1l-2-2v-3h-1l-1-1v-2l1-2-1-4-1-16h1v1l1 1 2-1v-1h3v-2l2-1 1-1 2 1h2l1-2 3-1h3l1-2 1-1 1-1h2l2-1v1l1 1h4l2-1 1 1 1-1 2 1 5 1h1l1-1v-2l-2-3h-2l1-2 1-1v-1h2l2 2 12-3 1 2h2v10h7l2 1v1l1 1 1 1h1l1 1v1l2-1h1l3 2 1 2h-1l1 3 2 2 2 1v5l1 2 1 2v2l1 3h2l2 3v2l1 1h1v4l2 1v2l2 1h5v3l-1 1h-2l-1-1h-1l-3 1v1l-2 1h-2v1l6-1h1v2h1v-1h4l1-1 3-2 1-1h2l3-2 1-1 2-1 1-1v-1h2l1 3-1 3v1l1 2 1 1 1 2-2 2h-1l-2-1h-2l-2-1-1-1v-1l-3 4v2l1 3v1h1l-1-1-1-2 1-1 2-4 2 1v1l3 2v2l-1 1v2l1 1 1 1h1l-1-1-1-1v-4l1-1h1l1 1v1l1 1-1-2-1-2 2-2h2l2 1v1h1l2-1 4-1 2 1h3l1-1 1-1h1l2-1v1l-2 4v2l-1 1v5l1-1v-1l1-3 2-3 1-2h1l2-1 1-1 1-2 1-2h2l2 2 1 1v-3h4l-1-1-4 1v-3h1l1 1 1-3v-2l1-2 3-2v-1l1 2 3-2v-1l1 1-1 1h1l1-1h1v-1 1l1 1 1 1h1l-1-1-1-1v-1h3l1 1 1 1h1l2-1v3h1l1-2v2l3-1v1l1 2h-1 3l3-1v2l-1 2 2-1v-1l1 2h-1v3l-1 4v1h-1v1h1v2l-1 3-2 2v4l-4 3 1 1v3l-1 1-1 1-1 2-2 1-1 5-1 2v1l-2 2h-1l-1 3-2 1v1l-1 2-2 1h-2l-14 11h1l2 1h3l1 2h1l1 1v2h-2v2l1 1-1 2v1h-2v3h-1l-2 2-1 1 1 1-1 1-2 1-3 1-3 2 1 2v3l-2 2-1 1v2l1 1 1 1 1 1v4l-2 5h-1l-2 3v1l-1 2-1 1h-1l-1 1-1 2-1 1-1 1-1 2-1 4-2 3Zm20-124-4 2h-5l-1 1-2 1-1-2v3h-1l-3-2-1 1-4 1h-3l-1-1v-2l-1-1-1-2-1-1 1-3h2l1-1h-2l-1-1v-5l1-1v1h2-1l-1-3v-1l1-2 1-1 1-1h6l7 2 3-1h1l1-1h4l3 1 6 1h1v2h-1v2l-1 2-1 3-1 1v2l-2 2-1 4h-1Zm-45 0v-1l1-2-1-1 1-1h2l1-1v-3l1-2 1-1 2-2h3v2l-1 2v3l-2 1-1 2h-1l-4 4h-2Zm27-22h-4v-3h3l2-1 5-1 1 1v1l-3 1-1 3h-1l-2-1Zm5 0 2-1h2l1 1h1v1l-1 1h-6v-1l1-1Zm-16 4h-1l-2-1v-1l1-1h2l2-1h1l1 1-2 2h-1l-1 1Zm9-9h-1v-2l1-2 2-1 1 1v1l-2 2-1 1Zm-13 19h-1l1-1 1-3 2-1 1-1v2l-1 1-2 2-1 1Zm10-16-1-1v-1l1-4 1-1v3l1 2-1 1-1 1Zm-14 9v-1l1-1 1-2 1-1h1v2l-2 2-2 1Zm13-6v-1h-1l-1-2 1-1 2 1v2l-1 1Zm-5 29h-1v-1l-1 1-1-1-1-1v-1h1l3 1v2Zm-20-6v-2l2-1 1 1 1 1h-1l-3 1Zm12-6v-1l2-2v-2h1v1l-1 3-1 1h-1Zm6-9 1-3h2v1l-3 2Zm30 18-1-1v-1l1-1 1-1v1l-1 2v1Zm-32-19h-1l1-2 1-2 1 1-1 1-1 2Zm2 5h1-1l-1 1v1l-2 1v-1h1l1-2h1Zm-21 10-1-1 4-2v1l-1 1-2 1Zm60-5h-1l-1-1 1-1h2v2h-1Zm-35-18-3 1 1-1 1-1h1v1Zm-5 8v-1l2-1-1 2h-1Zm2 5-1-1 1-1h1v1l-1 1Zm26 15v-1l1-1h1v1h-1l-1 1Zm-25-23h-1l2-2v2h-1Zm64 10v-1l1-1 1 2h-2Z" fill="#fff" />
    <path d="m355 225-60-3-33-2-3-2-1 1h-1v-2l-2-1-1 1-1-1v-2l-3-2-3-2-2-2v-2l-1-2v-4l-2-2-1-3v-2l-3-4-1-1v-2l-1-2-2-1-1-1-1-2v-2h1l1-2 1-1 29-61-2-2v-1h-2v1l-2-1-1-2-3-1-1-1v-1l-1-1h-2l-2-1-2-1h-2l-1-2h-1l-4-3-5-3v-3l-2-2-1 1v-1l-2-2v-3h-1l-1-1v-2l1-2-1-4-1-16h1v1l1 1 2-1v-1h3v-2l2-1 1-1 2 1h2l1-2 3-1h3l1-2 1-1 1-1h2l2-1v1l1 1h4l2-1 1 1 1-1 2 1 5 1h1l1-1v-2l-2-3h-2l1-2 1-1v-1h2l2 2 12-3 1 2h2v10h7l2 1v1l1 1 1 1h1l1 1v1l2-1h1l3 2 1 2h-1l1 3 2 2 2 1v5l1 2 1 2v2l1 3h2l2 3v2l1 1h1v4l2 1v2l2 1h5v3l-1 1h-2l-1-1h-1l-3 1v1l-2 1h-2v1l6-1h1v2h1v-1h4l1-1 3-2 1-1h2l3-2 1-1 2-1 1-1v-1h2l1 3-1 3v1l1 2 1 1 1 2-2 2h-1l-2-1h-2l-2-1-1-1v-1l-3 4v2l1 3v1h1l-1-1-1-2 1-1 2-4 2 1v1l3 2v2l-1 1v2l1 1 1 1h1l-1-1-1-1v-4l1-1h1l1 1v1l1 1-1-2-1-2 2-2h2l2 1v1h1l2-1 4-1 2 1h3l1-1 1-1h1l2-1v1l-2 4v2l-1 1v5l1-1v-1l1-3 2-3 1-2h1l2-1 1-1 1-2 1-2h2l2 2 1 1v-3h4l-1-1-4 1v-3h1l1 1 1-3v-2l1-2 3-2v-1l1 2 3-2v-1l1 1-1 1h1l1-1h1v-1 1l1 1 1 1h1l-1-1-1-1v-1h3l1 1 1 1h1l2-1v3h1l1-2v2l3-1v1l1 2h-1 3l3-1v2l-1 2 2-1v-1l1 2h-1v3l-1 4v1h-1v1h1v2l-1 3-2 2v4l-4 3 1 1v3l-1 1-1 1-1 2-2 1-1 5-1 2v1l-2 2h-1l-1 3-2 1v1l-1 2-2 1h-2l-14 11h1l2 1h3l1 2h1l1 1v2h-2v2l1 1-1 2v1h-2v3h-1l-2 2-1 1 1 1-1 1-2 1-3 1-3 2 1 2v3l-2 2-1 1v2l1 1 1 1 1 1v4l-2 5h-1l-2 3v1l-1 2-1 1h-1l-1 1-1 2-1 1-1 1-1 2-1 4-2 3Zm20-124-4 2h-5l-1 1-2 1-1-2v3h-1l-3-2-1 1-4 1h-3l-1-1v-2l-1-1-1-2-1-1 1-3h2l1-1h-2l-1-1v-5l1-1v1h2-1l-1-3v-1l1-2 1-1 1-1h6l7 2 3-1h1l1-1h4l3 1 6 1h1v2h-1v2l-1 2-1 3-1 1v2l-2 2-1 4h-1Zm-45 0v-1l1-2-1-1 1-1h2l1-1v-3l1-2 1-1 2-2h3v2l-1 2v3l-2 1-1 2h-1l-4 4h-2Zm27-22h-4v-3h3l2-1 5-1 1 1v1l-3 1-1 3h-1l-2-1Zm5 0 2-1h2l1 1h1v1l-1 1h-6v-1l1-1Zm-16 4h-1l-2-1v-1l1-1h2l2-1h1l1 1-2 2h-1l-1 1Zm9-9h-1v-2l1-2 2-1 1 1v1l-2 2-1 1Zm-13 19h-1l1-1 1-3 2-1 1-1v2l-1 1-2 2-1 1Zm10-16-1-1v-1l1-4 1-1v3l1 2-1 1-1 1Zm-14 9v-1l1-1 1-2 1-1h1v2l-2 2-2 1Zm13-6v-1h-1l-1-2 1-1 2 1v2l-1 1Zm-5 29h-1v-1l-1 1-1-1-1-1v-1h1l3 1v2Zm-20-6v-2l2-1 1 1 1 1h-1l-3 1Zm12-6v-1l2-2v-2h1v1l-1 3-1 1h-1Zm6-9 1-3h2v1l-3 2Zm30 18-1-1v-1l1-1 1-1v1l-1 2v1Zm-32-19h-1l1-2 1-2 1 1-1 1-1 2Zm2 5h1-1l-1 1v1l-2 1v-1h1l1-2h1Zm-21 10-1-1 4-2v1l-1 1-2 1Zm60-5h-1l-1-1 1-1h2v2h-1Zm-35-18-3 1 1-1 1-1h1v1Zm-5 8v-1l2-1-1 2h-1Zm2 5-1-1 1-1h1v1l-1 1Zm26 15v-1l1-1h1v1h-1l-1 1Zm-25-23h-1l2-2v2h-1Zm64 10v-1l1-1 1 2h-2Z" stroke="#0E4686" stroke-width="2" mask="url(#l)" />
    <path d="m355 225-60-3-33-2-3-2-1 1h-1v-2l-2-1-1 1-1-1v-2l-3-2-3-2-2-2v-2l-1-2v-4l-2-2-1-3v-2l-3-4-1-1v-2l-1-2-2-1-1-1-1-2v-2h1l1-2 1-1 29-61-2-2v-1h-2v1l-2-1-1-2-3-1-1-1v-1l-1-1h-2l-2-1-2-1h-2l-1-2h-1l-4-3-5-3v-3l-2-2-1 1v-1l-2-2v-3h-1l-1-1v-2l1-2-1-4-1-16h1v1l1 1 2-1v-1h3v-2l2-1 1-1 2 1h2l1-2 3-1h3l1-2 1-1 1-1h2l2-1v1l1 1h4l2-1 1 1 1-1 2 1 5 1h1l1-1v-2l-2-3h-2l1-2 1-1v-1h2l2 2 12-3 1 2h2v10h7l2 1v1l1 1 1 1h1l1 1v1l2-1h1l3 2 1 2h-1l1 3 2 2 2 1v5l1 2 1 2v2l1 3h2l2 3v2l1 1h1v4l2 1v2l2 1h5v3l-1 1h-2l-1-1h-1l-3 1v1l-2 1h-2v1l6-1h1v2h1v-1h4l1-1 3-2 1-1h2l3-2 1-1 2-1 1-1v-1h2l1 3-1 3v1l1 2 1 1 1 2-2 2h-1l-2-1h-2l-2-1-1-1v-1l-3 4v2l1 3v1h1l-1-1-1-2 1-1 2-4 2 1v1l3 2v2l-1 1v2l1 1 1 1h1l-1-1-1-1v-4l1-1h1l1 1v1l1 1-1-2-1-2 2-2h2l2 1v1h1l2-1 4-1 2 1h3l1-1 1-1h1l2-1v1l-2 4v2l-1 1v5l1-1v-1l1-3 2-3 1-2h1l2-1 1-1 1-2 1-2h2l2 2 1 1v-3h4l-1-1-4 1v-3h1l1 1 1-3v-2l1-2 3-2v-1l1 2 3-2v-1l1 1-1 1h1l1-1h1v-1 1l1 1 1 1h1l-1-1-1-1v-1h3l1 1 1 1h1l2-1v3h1l1-2v2l3-1v1l1 2h-1 3l3-1v2l-1 2 2-1v-1l1 2h-1v3l-1 4v1h-1v1h1v2l-1 3-2 2v4l-4 3 1 1v3l-1 1-1 1-1 2-2 1-1 5-1 2v1l-2 2h-1l-1 3-2 1v1l-1 2-2 1h-2l-14 11h1l2 1h3l1 2h1l1 1v2h-2v2l1 1-1 2v1h-2v3h-1l-2 2-1 1 1 1-1 1-2 1-3 1-3 2 1 2v3l-2 2-1 1v2l1 1 1 1 1 1v4l-2 5h-1l-2 3v1l-1 2-1 1h-1l-1 1-1 2-1 1-1 1-1 2-1 4-2 3Zm20-124-4 2h-5l-1 1-2 1-1-2v3h-1l-3-2-1 1-4 1h-3l-1-1v-2l-1-1-1-2-1-1 1-3h2l1-1h-2l-1-1v-5l1-1v1h2-1l-1-3v-1l1-2 1-1 1-1h6l7 2 3-1h1l1-1h4l3 1 6 1h1v2h-1v2l-1 2-1 3-1 1v2l-2 2-1 4h-1Zm-45 0v-1l1-2-1-1 1-1h2l1-1v-3l1-2 1-1 2-2h3v2l-1 2v3l-2 1-1 2h-1l-4 4h-2Zm27-22h-4v-3h3l2-1 5-1 1 1v1l-3 1-1 3h-1l-2-1Zm5 0 2-1h2l1 1h1v1l-1 1h-6v-1l1-1Zm-16 4h-1l-2-1v-1l1-1h2l2-1h1l1 1-2 2h-1l-1 1Zm9-9h-1v-2l1-2 2-1 1 1v1l-2 2-1 1Zm-13 19h-1l1-1 1-3 2-1 1-1v2l-1 1-2 2-1 1Zm10-16-1-1v-1l1-4 1-1v3l1 2-1 1-1 1Zm-14 9v-1l1-1 1-2 1-1h1v2l-2 2-2 1Zm13-6v-1h-1l-1-2 1-1 2 1v2l-1 1Zm-5 29h-1v-1l-1 1-1-1-1-1v-1h1l3 1v2Zm-20-6v-2l2-1 1 1 1 1h-1l-3 1Zm12-6v-1l2-2v-2h1v1l-1 3-1 1h-1Zm6-9 1-3h2v1l-3 2Zm30 18-1-1v-1l1-1 1-1v1l-1 2v1Zm-32-19h-1l1-2 1-2 1 1-1 1-1 2Zm2 5h1-1l-1 1v1l-2 1v-1h1l1-2h1Zm-21 10-1-1 4-2v1l-1 1-2 1Zm60-5h-1l-1-1 1-1h2v2h-1Zm-35-18-3 1 1-1 1-1h1v1Zm-5 8v-1l2-1-1 2h-1Zm2 5-1-1 1-1h1v1l-1 1Zm26 15v-1l1-1h1v1h-1l-1 1Zm-25-23h-1l2-2v2h-1Zm64 10v-1l1-1 1 2h-2Z" stroke="#000" stroke-opacity=".2" stroke-width="2" mask="url(#l)" />
    <mask id="m" fill="#fff">
      <path d="m584 191-3-2h-3l-2 1-2 1v2l-2 1h-3v1h-6l-2 1v1h-3l-1 1 1 1-1 1-1 1h-2l-1 1-2-1-1-1v-2l-1-1v1h-2v-1l3-2v-1l-1-1v-2l3-1v-1l-3-2h-2l-2 2-1 1-1 1h-1l-3 2-1 1-2 1-2 1-1-1-1-2-1 1h-2l-2-2 1-1 2-3-1-2-2-1v-2h-1v-1l1-1h1v-3l1-3 1-1v-1l2 2h1l3 1 1-1 3-2 1-1v-1l3-2h1l4-1 1 1v1l-3 3-1 1v2h-1v2l3 1 1 1 3-1h3l1 1v2l1 1 2-1v-1l1-1-1-1v-1l1-1h1l-1-1-1-1 1-1 1-1 2-1v2h1l3 1h8l2 1h6v2l1 4v3-1l1-1v8h-1Z" />
    </mask>
    <path d="m584 191-3-2h-3l-2 1-2 1v2l-2 1h-3v1h-6l-2 1v1h-3l-1 1 1 1-1 1-1 1h-2l-1 1-2-1-1-1v-2l-1-1v1h-2v-1l3-2v-1l-1-1v-2l3-1v-1l-3-2h-2l-2 2-1 1-1 1h-1l-3 2-1 1-2 1-2 1-1-1-1-2-1 1h-2l-2-2 1-1 2-3-1-2-2-1v-2h-1v-1l1-1h1v-3l1-3 1-1v-1l2 2h1l3 1 1-1 3-2 1-1v-1l3-2h1l4-1 1 1v1l-3 3-1 1v2h-1v2l3 1 1 1 3-1h3l1 1v2l1 1 2-1v-1l1-1-1-1v-1l1-1h1l-1-1-1-1 1-1 1-1 2-1v2h1l3 1h8l2 1h6v2l1 4v3-1l1-1v8h-1Z" fill="#fff" />
    <path d="m584 191-3-2h-3l-2 1-2 1v2l-2 1h-3v1h-6l-2 1v1h-3l-1 1 1 1-1 1-1 1h-2l-1 1-2-1-1-1v-2l-1-1v1h-2v-1l3-2v-1l-1-1v-2l3-1v-1l-3-2h-2l-2 2-1 1-1 1h-1l-3 2-1 1-2 1-2 1-1-1-1-2-1 1h-2l-2-2 1-1 2-3-1-2-2-1v-2h-1v-1l1-1h1v-3l1-3 1-1v-1l2 2h1l3 1 1-1 3-2 1-1v-1l3-2h1l4-1 1 1v1l-3 3-1 1v2h-1v2l3 1 1 1 3-1h3l1 1v2l1 1 2-1v-1l1-1-1-1v-1l1-1h1l-1-1-1-1 1-1 1-1 2-1v2h1l3 1h8l2 1h6v2l1 4v3-1l1-1v8h-1Z" stroke="#0E4686" stroke-width="2" mask="url(#m)" />
    <path d="m584 191-3-2h-3l-2 1-2 1v2l-2 1h-3v1h-6l-2 1v1h-3l-1 1 1 1-1 1-1 1h-2l-1 1-2-1-1-1v-2l-1-1v1h-2v-1l3-2v-1l-1-1v-2l3-1v-1l-3-2h-2l-2 2-1 1-1 1h-1l-3 2-1 1-2 1-2 1-1-1-1-2-1 1h-2l-2-2 1-1 2-3-1-2-2-1v-2h-1v-1l1-1h1v-3l1-3 1-1v-1l2 2h1l3 1 1-1 3-2 1-1v-1l3-2h1l4-1 1 1v1l-3 3-1 1v2h-1v2l3 1 1 1 3-1h3l1 1v2l1 1 2-1v-1l1-1-1-1v-1l1-1h1l-1-1-1-1 1-1 1-1 2-1v2h1l3 1h8l2 1h6v2l1 4v3-1l1-1v8h-1Z" stroke="#000" stroke-opacity=".2" stroke-width="2" mask="url(#m)" />
    <mask id="n" fill="#fff">
      <path d="m534 218-1-3v-1l-2-1h-1v-3h-1v1l-1 1v1-1l-1-1-1-1-3-1-3-1h-1l-1-2h-2l-2 1-2 1v2h-3v2l-1 1-2 1h-2l-1 1v3l-3 1-1 1h-3l1-2v-2l-2-1-1-2v-3l-3-1h-3l-1-1 3-1 2-1v-1l2-1 1-1 4-3 1-2v-2l-1-1-1-1v-2l-1-1v-2h10l2-1h1l3 1 3 1 1 1 1 1 1 1 1 1h1v2h2l2-3h1l1-1 2 2h2l1-1 1 2 1 1 2-1 2-1 1-1 3-2h1l1-1 1-1 2-2h2l3 2v1l-3 1v2l1 1v1l-3 2v1h2v-1l1 1v2l1 1 2 1 1-1h2l1-1 1-1-1-1 1-1h3v-1l2-1h6v-1h3l2-1v-2l2-1 2-1h3l3 2h1v1l-1 2v1l1 1v1l-2 6-3 9v-1h-3l-2-1h-1l-3 2-2-1h-2l-1 1v1l-2 2-2 1h-1l-2 1h-8l-2-1-2-2-2-2h-3l-1-1h-1v1l-2 3-2 1-1 1-1 1Z" />
    </mask>
    <path d="m534 218-1-3v-1l-2-1h-1v-3h-1v1l-1 1v1-1l-1-1-1-1-3-1-3-1h-1l-1-2h-2l-2 1-2 1v2h-3v2l-1 1-2 1h-2l-1 1v3l-3 1-1 1h-3l1-2v-2l-2-1-1-2v-3l-3-1h-3l-1-1 3-1 2-1v-1l2-1 1-1 4-3 1-2v-2l-1-1-1-1v-2l-1-1v-2h10l2-1h1l3 1 3 1 1 1 1 1 1 1 1 1h1v2h2l2-3h1l1-1 2 2h2l1-1 1 2 1 1 2-1 2-1 1-1 3-2h1l1-1 1-1 2-2h2l3 2v1l-3 1v2l1 1v1l-3 2v1h2v-1l1 1v2l1 1 2 1 1-1h2l1-1 1-1-1-1 1-1h3v-1l2-1h6v-1h3l2-1v-2l2-1 2-1h3l3 2h1v1l-1 2v1l1 1v1l-2 6-3 9v-1h-3l-2-1h-1l-3 2-2-1h-2l-1 1v1l-2 2-2 1h-1l-2 1h-8l-2-1-2-2-2-2h-3l-1-1h-1v1l-2 3-2 1-1 1-1 1Z" fill="#fff" />
    <path d="m534 218-1-3v-1l-2-1h-1v-3h-1v1l-1 1v1-1l-1-1-1-1-3-1-3-1h-1l-1-2h-2l-2 1-2 1v2h-3v2l-1 1-2 1h-2l-1 1v3l-3 1-1 1h-3l1-2v-2l-2-1-1-2v-3l-3-1h-3l-1-1 3-1 2-1v-1l2-1 1-1 4-3 1-2v-2l-1-1-1-1v-2l-1-1v-2h10l2-1h1l3 1 3 1 1 1 1 1 1 1 1 1h1v2h2l2-3h1l1-1 2 2h2l1-1 1 2 1 1 2-1 2-1 1-1 3-2h1l1-1 1-1 2-2h2l3 2v1l-3 1v2l1 1v1l-3 2v1h2v-1l1 1v2l1 1 2 1 1-1h2l1-1 1-1-1-1 1-1h3v-1l2-1h6v-1h3l2-1v-2l2-1 2-1h3l3 2h1v1l-1 2v1l1 1v1l-2 6-3 9v-1h-3l-2-1h-1l-3 2-2-1h-2l-1 1v1l-2 2-2 1h-1l-2 1h-8l-2-1-2-2-2-2h-3l-1-1h-1v1l-2 3-2 1-1 1-1 1Z" stroke="#0E4686" stroke-width="2" mask="url(#n)" />
    <path d="m534 218-1-3v-1l-2-1h-1v-3h-1v1l-1 1v1-1l-1-1-1-1-3-1-3-1h-1l-1-2h-2l-2 1-2 1v2h-3v2l-1 1-2 1h-2l-1 1v3l-3 1-1 1h-3l1-2v-2l-2-1-1-2v-3l-3-1h-3l-1-1 3-1 2-1v-1l2-1 1-1 4-3 1-2v-2l-1-1-1-1v-2l-1-1v-2h10l2-1h1l3 1 3 1 1 1 1 1 1 1 1 1h1v2h2l2-3h1l1-1 2 2h2l1-1 1 2 1 1 2-1 2-1 1-1 3-2h1l1-1 1-1 2-2h2l3 2v1l-3 1v2l1 1v1l-3 2v1h2v-1l1 1v2l1 1 2 1 1-1h2l1-1 1-1-1-1 1-1h3v-1l2-1h6v-1h3l2-1v-2l2-1 2-1h3l3 2h1v1l-1 2v1l1 1v1l-2 6-3 9v-1h-3l-2-1h-1l-3 2-2-1h-2l-1 1v1l-2 2-2 1h-1l-2 1h-8l-2-1-2-2-2-2h-3l-1-1h-1v1l-2 3-2 1-1 1-1 1Z" stroke="#000" stroke-opacity=".2" stroke-width="2" mask="url(#n)" />
    <mask id="o" fill="#fff">
      <path d="M484 122h4l1 1v2l-1 1-2 2v3l2 4 3 7 1 1 1 2-1 2 1 3v4l1 3-1 1v1h1v1l1 8h-1l1 2 1 5 1 3 1 1h3v2l-1 2-1 3v1h1v2h-3v2l1 1v2l1 1 1 1v2l-1 2-4 3-1 1-2 1v1l-2 1-3 1v2l-2 2h-1l-2 1v2l-2 2-1-1h-2l-1 1-3 1-2 1v1h-2l-1 1h-4v-1l-2-1-1-1-1 1h-3v-1h-3l-3 1v1l2 5v3l-1 1v1l-3 5-3 2h-6l-1 1-1 1h-1l-1 2h-4l-4-1-1-3-1-2-1-1-1-1h-5v-3l1-3 1-6v-1l-1-3-1-3v-4l2-2 1-2v-2h1l1-3 1-2v-3l1-3 2-2h3l2-1h1l2-2h2l3-3h2l2-2 1-1v-1l1-1 1-1h3l1-1 1 1 3 1h1l2-1h1l1 1 2-1 1-1 1-1v-5l-1-1-2-2-1-2v-5l4-4h1v-3l-1-3-1-2 1-3v-3h-2v-2l1-1 1-2 2-2 1-2v-1l3-4h4l4-4 1-2 1-1-1-1v-2h1l1 1h1v1h1Z" />
    </mask>
    <path d="M484 122h4l1 1v2l-1 1-2 2v3l2 4 3 7 1 1 1 2-1 2 1 3v4l1 3-1 1v1h1v1l1 8h-1l1 2 1 5 1 3 1 1h3v2l-1 2-1 3v1h1v2h-3v2l1 1v2l1 1 1 1v2l-1 2-4 3-1 1-2 1v1l-2 1-3 1v2l-2 2h-1l-2 1v2l-2 2-1-1h-2l-1 1-3 1-2 1v1h-2l-1 1h-4v-1l-2-1-1-1-1 1h-3v-1h-3l-3 1v1l2 5v3l-1 1v1l-3 5-3 2h-6l-1 1-1 1h-1l-1 2h-4l-4-1-1-3-1-2-1-1-1-1h-5v-3l1-3 1-6v-1l-1-3-1-3v-4l2-2 1-2v-2h1l1-3 1-2v-3l1-3 2-2h3l2-1h1l2-2h2l3-3h2l2-2 1-1v-1l1-1 1-1h3l1-1 1 1 3 1h1l2-1h1l1 1 2-1 1-1 1-1v-5l-1-1-2-2-1-2v-5l4-4h1v-3l-1-3-1-2 1-3v-3h-2v-2l1-1 1-2 2-2 1-2v-1l3-4h4l4-4 1-2 1-1-1-1v-2h1l1 1h1v1h1Z" fill="#fff" />
    <path d="M484 122h4l1 1v2l-1 1-2 2v3l2 4 3 7 1 1 1 2-1 2 1 3v4l1 3-1 1v1h1v1l1 8h-1l1 2 1 5 1 3 1 1h3v2l-1 2-1 3v1h1v2h-3v2l1 1v2l1 1 1 1v2l-1 2-4 3-1 1-2 1v1l-2 1-3 1v2l-2 2h-1l-2 1v2l-2 2-1-1h-2l-1 1-3 1-2 1v1h-2l-1 1h-4v-1l-2-1-1-1-1 1h-3v-1h-3l-3 1v1l2 5v3l-1 1v1l-3 5-3 2h-6l-1 1-1 1h-1l-1 2h-4l-4-1-1-3-1-2-1-1-1-1h-5v-3l1-3 1-6v-1l-1-3-1-3v-4l2-2 1-2v-2h1l1-3 1-2v-3l1-3 2-2h3l2-1h1l2-2h2l3-3h2l2-2 1-1v-1l1-1 1-1h3l1-1 1 1 3 1h1l2-1h1l1 1 2-1 1-1 1-1v-5l-1-1-2-2-1-2v-5l4-4h1v-3l-1-3-1-2 1-3v-3h-2v-2l1-1 1-2 2-2 1-2v-1l3-4h4l4-4 1-2 1-1-1-1v-2h1l1 1h1v1h1Z" stroke="#0E4686" stroke-width="2" mask="url(#o)" />
    <path d="M484 122h4l1 1v2l-1 1-2 2v3l2 4 3 7 1 1 1 2-1 2 1 3v4l1 3-1 1v1h1v1l1 8h-1l1 2 1 5 1 3 1 1h3v2l-1 2-1 3v1h1v2h-3v2l1 1v2l1 1 1 1v2l-1 2-4 3-1 1-2 1v1l-2 1-3 1v2l-2 2h-1l-2 1v2l-2 2-1-1h-2l-1 1-3 1-2 1v1h-2l-1 1h-4v-1l-2-1-1-1-1 1h-3v-1h-3l-3 1v1l2 5v3l-1 1v1l-3 5-3 2h-6l-1 1-1 1h-1l-1 2h-4l-4-1-1-3-1-2-1-1-1-1h-5v-3l1-3 1-6v-1l-1-3-1-3v-4l2-2 1-2v-2h1l1-3 1-2v-3l1-3 2-2h3l2-1h1l2-2h2l3-3h2l2-2 1-1v-1l1-1 1-1h3l1-1 1 1 3 1h1l2-1h1l1 1 2-1 1-1 1-1v-5l-1-1-2-2-1-2v-5l4-4h1v-3l-1-3-1-2 1-3v-3h-2v-2l1-1 1-2 2-2 1-2v-1l3-4h4l4-4 1-2 1-1-1-1v-2h1l1 1h1v1h1Z" stroke="#000" stroke-opacity=".2" stroke-width="2" mask="url(#o)" />
    <mask id="p" fill="#fff">
      <path d="M380 478h-10l-1 2-3 2h-1l-2-1-3-2-1-1-3 1h-3l-1-1h-2l-1 1-1 1v1l-2 1h-3l-2 1-1 1-1 1 1 3-1 1h-1v1l-2-2h-7l-2-2-1-1h-4l-5-2-2 1h-3l-2-1v-1h-6v-1l-2-4v-2l-1-3-4-2-1 1h-3l-1 1-1-1h-1v-4l1-1 2-2-1-1v-1l1-4 1-3v-2l1-2v-1l-1-1v-1l1-1v-1l3-1v-1l1-8h2l1-1 1-1 1-3v-1l1-3h1l6-3 3-2 3 1h7l1-1h1v-1l2 1h1l2 1 3 1h5l2 1 3 1 1 1 1 1h12l1 1 3 3 1 1v6l1 2v2l1 3 1 1h1l1 1v2l1 1v1l-1 2v2h1l1 1 2-1h7l1 1v1h-1v4l1 1 1-1 1-3 2 1v2l1 3h1v2l-1 1-1 1v-2l1-1h-1l-1 1h-1l-1-1v3h-3l-1-1-1 1 1 1h3l2 1-1 1-1 2-2 1-2 1h3v2Z" />
    </mask>
    <path d="M380 478h-10l-1 2-3 2h-1l-2-1-3-2-1-1-3 1h-3l-1-1h-2l-1 1-1 1v1l-2 1h-3l-2 1-1 1-1 1 1 3-1 1h-1v1l-2-2h-7l-2-2-1-1h-4l-5-2-2 1h-3l-2-1v-1h-6v-1l-2-4v-2l-1-3-4-2-1 1h-3l-1 1-1-1h-1v-4l1-1 2-2-1-1v-1l1-4 1-3v-2l1-2v-1l-1-1v-1l1-1v-1l3-1v-1l1-8h2l1-1 1-1 1-3v-1l1-3h1l6-3 3-2 3 1h7l1-1h1v-1l2 1h1l2 1 3 1h5l2 1 3 1 1 1 1 1h12l1 1 3 3 1 1v6l1 2v2l1 3 1 1h1l1 1v2l1 1v1l-1 2v2h1l1 1 2-1h7l1 1v1h-1v4l1 1 1-1 1-3 2 1v2l1 3h1v2l-1 1-1 1v-2l1-1h-1l-1 1h-1l-1-1v3h-3l-1-1-1 1 1 1h3l2 1-1 1-1 2-2 1-2 1h3v2Z" fill="#fff" />
    <path d="M380 478h-10l-1 2-3 2h-1l-2-1-3-2-1-1-3 1h-3l-1-1h-2l-1 1-1 1v1l-2 1h-3l-2 1-1 1-1 1 1 3-1 1h-1v1l-2-2h-7l-2-2-1-1h-4l-5-2-2 1h-3l-2-1v-1h-6v-1l-2-4v-2l-1-3-4-2-1 1h-3l-1 1-1-1h-1v-4l1-1 2-2-1-1v-1l1-4 1-3v-2l1-2v-1l-1-1v-1l1-1v-1l3-1v-1l1-8h2l1-1 1-1 1-3v-1l1-3h1l6-3 3-2 3 1h7l1-1h1v-1l2 1h1l2 1 3 1h5l2 1 3 1 1 1 1 1h12l1 1 3 3 1 1v6l1 2v2l1 3 1 1h1l1 1v2l1 1v1l-1 2v2h1l1 1 2-1h7l1 1v1h-1v4l1 1 1-1 1-3 2 1v2l1 3h1v2l-1 1-1 1v-2l1-1h-1l-1 1h-1l-1-1v3h-3l-1-1-1 1 1 1h3l2 1-1 1-1 2-2 1-2 1h3v2Z" stroke="#0E4686" stroke-width="2" mask="url(#p)" />
    <path d="M380 478h-10l-1 2-3 2h-1l-2-1-3-2-1-1-3 1h-3l-1-1h-2l-1 1-1 1v1l-2 1h-3l-2 1-1 1-1 1 1 3-1 1h-1v1l-2-2h-7l-2-2-1-1h-4l-5-2-2 1h-3l-2-1v-1h-6v-1l-2-4v-2l-1-3-4-2-1 1h-3l-1 1-1-1h-1v-4l1-1 2-2-1-1v-1l1-4 1-3v-2l1-2v-1l-1-1v-1l1-1v-1l3-1v-1l1-8h2l1-1 1-1 1-3v-1l1-3h1l6-3 3-2 3 1h7l1-1h1v-1l2 1h1l2 1 3 1h5l2 1 3 1 1 1 1 1h12l1 1 3 3 1 1v6l1 2v2l1 3 1 1h1l1 1v2l1 1v1l-1 2v2h1l1 1 2-1h7l1 1v1h-1v4l1 1 1-1 1-3 2 1v2l1 3h1v2l-1 1-1 1v-2l1-1h-1l-1 1h-1l-1-1v3h-3l-1-1-1 1 1 1h3l2 1-1 1-1 2-2 1-2 1h3v2Z" stroke="#000" stroke-opacity=".2" stroke-width="2" mask="url(#p)" />
    <mask id="q" fill="#fff">
      <path d="M448 431v-1h3l3-1-3-1-1-1-3 1-1 2h-2l-1-2h-1l-1 1-3 1v1l-1 2h3l1 1-2 1h-2l-2-2v-1l1-3 1-1 2-1h4l1-1 2-2-1-1h-6l-2-2v-1h-1v-1l3-1 2-1h3l2-1h1l4-2h5l2-1h3v1h1l9-5 3-1v-1h-2l2-4 2-6v-1h1l3-2h2v5l3 1 4 1h3l1 1v1l-1 1v2l1 7-3 2-6 2-3 2-3 3v4l-1 2h-8l-5 1-2-1h-1v-1l1-1 1-1v-1h-1l-3 1v1l2 1v1l-1 1h-3l-8 1-1 1Zm-5 2v-1l2-2 1 1 1 1h-3l-1 1Z" />
    </mask>
    <path d="M448 431v-1h3l3-1-3-1-1-1-3 1-1 2h-2l-1-2h-1l-1 1-3 1v1l-1 2h3l1 1-2 1h-2l-2-2v-1l1-3 1-1 2-1h4l1-1 2-2-1-1h-6l-2-2v-1h-1v-1l3-1 2-1h3l2-1h1l4-2h5l2-1h3v1h1l9-5 3-1v-1h-2l2-4 2-6v-1h1l3-2h2v5l3 1 4 1h3l1 1v1l-1 1v2l1 7-3 2-6 2-3 2-3 3v4l-1 2h-8l-5 1-2-1h-1v-1l1-1 1-1v-1h-1l-3 1v1l2 1v1l-1 1h-3l-8 1-1 1Zm-5 2v-1l2-2 1 1 1 1h-3l-1 1Z" fill="#fff" />
    <path d="M448 431v-1h3l3-1-3-1-1-1-3 1-1 2h-2l-1-2h-1l-1 1-3 1v1l-1 2h3l1 1-2 1h-2l-2-2v-1l1-3 1-1 2-1h4l1-1 2-2-1-1h-6l-2-2v-1h-1v-1l3-1 2-1h3l2-1h1l4-2h5l2-1h3v1h1l9-5 3-1v-1h-2l2-4 2-6v-1h1l3-2h2v5l3 1 4 1h3l1 1v1l-1 1v2l1 7-3 2-6 2-3 2-3 3v4l-1 2h-8l-5 1-2-1h-1v-1l1-1 1-1v-1h-1l-3 1v1l2 1v1l-1 1h-3l-8 1-1 1Zm-5 2v-1l2-2 1 1 1 1h-3l-1 1Z" stroke="#0E4686" stroke-width="2" mask="url(#q)" />
    <path d="M448 431v-1h3l3-1-3-1-1-1-3 1-1 2h-2l-1-2h-1l-1 1-3 1v1l-1 2h3l1 1-2 1h-2l-2-2v-1l1-3 1-1 2-1h4l1-1 2-2-1-1h-6l-2-2v-1h-1v-1l3-1 2-1h3l2-1h1l4-2h5l2-1h3v1h1l9-5 3-1v-1h-2l2-4 2-6v-1h1l3-2h2v5l3 1 4 1h3l1 1v1l-1 1v2l1 7-3 2-6 2-3 2-3 3v4l-1 2h-8l-5 1-2-1h-1v-1l1-1 1-1v-1h-1l-3 1v1l2 1v1l-1 1h-3l-8 1-1 1Zm-5 2v-1l2-2 1 1 1 1h-3l-1 1Z" stroke="#000" stroke-opacity=".2" stroke-width="2" mask="url(#q)" />
    <path d="M560 176v1h-1v4h-1l-1 1h-1l1-1v-1l-1-1h-4l-3 1v-2h-4v-1l1-1h1v-3l3-3v-2h-2l-3 1h-1l-3 1-1 1v2l-4 1-1 1h-2l-1-1-2-1h-1v1-2l1-2h1v-1l1 1h1l1-1v-1l1-1 2-2v-3h1l1-1 3-7 2-1 5-2v1h1v1h4l1 1 1 1h10l2-1 4 1h1l2 1 1 1v1l2 4 1 2 1 5v2h1v1l1 2v1h-5l-2-1h-11v-2h-3l-2 1v3h1Z" fill="#fff" />
    <path d="M560 176v1h-1v4h-1l-1 1h-1l1-1v-1l-1-1h-4l-3 1v-2h-4v-1l1-1h1v-3l3-3v-2h-2l-3 1h-1l-3 1-1 1v2l-4 1-1 1h-2l-1-1-2-1h-1v1-2l1-2h1v-1l1 1h1l1-1v-1l1-1 2-2v-3h1l1-1 3-7 2-1 5-2v1h1v1h4l1 1 1 1h10l2-1 4 1h1l2 1 1 1v1l2 4 1 2 1 5v2h1v1l1 2v1h-5l-2-1h-11v-2h-3l-2 1v3h1Z" stroke="#0E4686" />
    <path d="M560 176v1h-1v4h-1l-1 1h-1l1-1v-1l-1-1h-4l-3 1v-2h-4v-1l1-1h1v-3l3-3v-2h-2l-3 1h-1l-3 1-1 1v2l-4 1-1 1h-2l-1-1-2-1h-1v1-2l1-2h1v-1l1 1h1l1-1v-1l1-1 2-2v-3h1l1-1 3-7 2-1 5-2v1h1v1h4l1 1 1 1h10l2-1 4 1h1l2 1 1 1v1l2 4 1 2 1 5v2h1v1l1 2v1h-5l-2-1h-11v-2h-3l-2 1v3h1Z" stroke="#000" stroke-opacity=".2" />
    <mask id="r" fill="#fff">
      <path d="m180 279-2-2v-2h-4l-4-1v-1h-2l-2-1-1-1-1-2v-1h-1l-2 1h-1l-1-1-1-1-3-2h-3l-1 1h-2l-2-1h-3l-2-1v-2l-1-1-2-1-1-1v-1h-3l-1-4-1-1v2l-1-1v-3l-2-1-1-3v-2l1-2v-2l-1-2-1-2v-2l1-1v-1l1-1 1-1-1-2v-4l-1-2h-1l-1 1-1 1-2-1h-5l-5 2h-2l-1 1-3-2 3-2 2-1 1-1v-2h7l3 2h1v-1l1-1h3l1-1 2-1 1 2h1l2-3v-1l1-1 1-1h3l1-1h6v-3l2-1 1-1v-2h-1v-1l1-1 3-1v-1l1-1 2-2h10l2 1 1 2 2 1 2 1 1 3 1 1h1l1 3 3 1h1v-2l2-1h1l1 1h-1l2 1v3l-2 5h1v1l1 1v6l-1 3v3l2 2-1 9h16l1 2 3-1 1 1h1l2 3v1l-2 2-1 1v4l1 1h1l1 3v2l1 1v2l-1 2-1 2-1 2-1 1-2 1v1l-2 3v3l-4 2-2 2v-1l-3-1-1-1-7 1-1-1h-4v-1l-2-1Z" />
    </mask>
    <path d="m180 279-2-2v-2h-4l-4-1v-1h-2l-2-1-1-1-1-2v-1h-1l-2 1h-1l-1-1-1-1-3-2h-3l-1 1h-2l-2-1h-3l-2-1v-2l-1-1-2-1-1-1v-1h-3l-1-4-1-1v2l-1-1v-3l-2-1-1-3v-2l1-2v-2l-1-2-1-2v-2l1-1v-1l1-1 1-1-1-2v-4l-1-2h-1l-1 1-1 1-2-1h-5l-5 2h-2l-1 1-3-2 3-2 2-1 1-1v-2h7l3 2h1v-1l1-1h3l1-1 2-1 1 2h1l2-3v-1l1-1 1-1h3l1-1h6v-3l2-1 1-1v-2h-1v-1l1-1 3-1v-1l1-1 2-2h10l2 1 1 2 2 1 2 1 1 3 1 1h1l1 3 3 1h1v-2l2-1h1l1 1h-1l2 1v3l-2 5h1v1l1 1v6l-1 3v3l2 2-1 9h16l1 2 3-1 1 1h1l2 3v1l-2 2-1 1v4l1 1h1l1 3v2l1 1v2l-1 2-1 2-1 2-1 1-2 1v1l-2 3v3l-4 2-2 2v-1l-3-1-1-1-7 1-1-1h-4v-1l-2-1Z" fill="#fff" />
    <path d="m180 279-2-2v-2h-4l-4-1v-1h-2l-2-1-1-1-1-2v-1h-1l-2 1h-1l-1-1-1-1-3-2h-3l-1 1h-2l-2-1h-3l-2-1v-2l-1-1-2-1-1-1v-1h-3l-1-4-1-1v2l-1-1v-3l-2-1-1-3v-2l1-2v-2l-1-2-1-2v-2l1-1v-1l1-1 1-1-1-2v-4l-1-2h-1l-1 1-1 1-2-1h-5l-5 2h-2l-1 1-3-2 3-2 2-1 1-1v-2h7l3 2h1v-1l1-1h3l1-1 2-1 1 2h1l2-3v-1l1-1 1-1h3l1-1h6v-3l2-1 1-1v-2h-1v-1l1-1 3-1v-1l1-1 2-2h10l2 1 1 2 2 1 2 1 1 3 1 1h1l1 3 3 1h1v-2l2-1h1l1 1h-1l2 1v3l-2 5h1v1l1 1v6l-1 3v3l2 2-1 9h16l1 2 3-1 1 1h1l2 3v1l-2 2-1 1v4l1 1h1l1 3v2l1 1v2l-1 2-1 2-1 2-1 1-2 1v1l-2 3v3l-4 2-2 2v-1l-3-1-1-1-7 1-1-1h-4v-1l-2-1Z" stroke="#0E4686" stroke-width="2" mask="url(#r)" />
    <path d="m180 279-2-2v-2h-4l-4-1v-1h-2l-2-1-1-1-1-2v-1h-1l-2 1h-1l-1-1-1-1-3-2h-3l-1 1h-2l-2-1h-3l-2-1v-2l-1-1-2-1-1-1v-1h-3l-1-4-1-1v2l-1-1v-3l-2-1-1-3v-2l1-2v-2l-1-2-1-2v-2l1-1v-1l1-1 1-1-1-2v-4l-1-2h-1l-1 1-1 1-2-1h-5l-5 2h-2l-1 1-3-2 3-2 2-1 1-1v-2h7l3 2h1v-1l1-1h3l1-1 2-1 1 2h1l2-3v-1l1-1 1-1h3l1-1h6v-3l2-1 1-1v-2h-1v-1l1-1 3-1v-1l1-1 2-2h10l2 1 1 2 2 1 2 1 1 3 1 1h1l1 3 3 1h1v-2l2-1h1l1 1h-1l2 1v3l-2 5h1v1l1 1v6l-1 3v3l2 2-1 9h16l1 2 3-1 1 1h1l2 3v1l-2 2-1 1v4l1 1h1l1 3v2l1 1v2l-1 2-1 2-1 2-1 1-2 1v1l-2 3v3l-4 2-2 2v-1l-3-1-1-1-7 1-1-1h-4v-1l-2-1Z" stroke="#000" stroke-opacity=".2" stroke-width="2" mask="url(#r)" />
    <mask id="s" fill="#fff">
      <path d="m225 60 1 16h-17l-3 3-1 3v1l-1 3v1l1 2-2 1-2 1-1 1h-2l-1-3-1-2-3-1h-2v1l-2 1-1 1-1 1-1 3v3l-1 2 1 2-3-1-1 1-1-2-2-2-2-1-5-5v-1l2 1 1-2-1-4v-1l-2-1v-2l-1-5 1-1 1-3-1-1v-2l1-1-1-1v-3l-2-4-2-4 1-1v-4l-2-1h-3l-1-1v-1h-3l-1-1 1-3h-7l-4-1 1-2v-1l-1-2-1-3-1-2-1-4 1-1v-1l-2-2-2-1-2-3-1-1-1-1-1-1v-1h2l1 2h7l1 1v2l1 1 1-1 1-1 3 1h1l1 1h1l1-2h1l1 1 4 5h3l1-1v-1l-1-3v-1l1-1h2l1-1 1-1h1l4 1h1l1-1 1 1 1-1 1-1h3l1-1v-1l3-2h5l1-1V9h1l2-1 1-1 1-1-1-4h-1 6l1-1h2v2h1l1 2-1 4-1 2h-1v1h3l3 1 1 1v3l2 3v1l-2 3-1 1-1 2v2l-1 3-1 2v5l1 2v3l2 1 1 1-1 5v1h2l-1 1h1l2 1 1 2 3 3 4 1Z" />
    </mask>
    <path d="m225 60 1 16h-17l-3 3-1 3v1l-1 3v1l1 2-2 1-2 1-1 1h-2l-1-3-1-2-3-1h-2v1l-2 1-1 1-1 1-1 3v3l-1 2 1 2-3-1-1 1-1-2-2-2-2-1-5-5v-1l2 1 1-2-1-4v-1l-2-1v-2l-1-5 1-1 1-3-1-1v-2l1-1-1-1v-3l-2-4-2-4 1-1v-4l-2-1h-3l-1-1v-1h-3l-1-1 1-3h-7l-4-1 1-2v-1l-1-2-1-3-1-2-1-4 1-1v-1l-2-2-2-1-2-3-1-1-1-1-1-1v-1h2l1 2h7l1 1v2l1 1 1-1 1-1 3 1h1l1 1h1l1-2h1l1 1 4 5h3l1-1v-1l-1-3v-1l1-1h2l1-1 1-1h1l4 1h1l1-1 1 1 1-1 1-1h3l1-1v-1l3-2h5l1-1V9h1l2-1 1-1 1-1-1-4h-1 6l1-1h2v2h1l1 2-1 4-1 2h-1v1h3l3 1 1 1v3l2 3v1l-2 3-1 1-1 2v2l-1 3-1 2v5l1 2v3l2 1 1 1-1 5v1h2l-1 1h1l2 1 1 2 3 3 4 1Z" fill="#fff" />
    <path d="m225 60 1 16h-17l-3 3-1 3v1l-1 3v1l1 2-2 1-2 1-1 1h-2l-1-3-1-2-3-1h-2v1l-2 1-1 1-1 1-1 3v3l-1 2 1 2-3-1-1 1-1-2-2-2-2-1-5-5v-1l2 1 1-2-1-4v-1l-2-1v-2l-1-5 1-1 1-3-1-1v-2l1-1-1-1v-3l-2-4-2-4 1-1v-4l-2-1h-3l-1-1v-1h-3l-1-1 1-3h-7l-4-1 1-2v-1l-1-2-1-3-1-2-1-4 1-1v-1l-2-2-2-1-2-3-1-1-1-1-1-1v-1h2l1 2h7l1 1v2l1 1 1-1 1-1 3 1h1l1 1h1l1-2h1l1 1 4 5h3l1-1v-1l-1-3v-1l1-1h2l1-1 1-1h1l4 1h1l1-1 1 1 1-1 1-1h3l1-1v-1l3-2h5l1-1V9h1l2-1 1-1 1-1-1-4h-1 6l1-1h2v2h1l1 2-1 4-1 2h-1v1h3l3 1 1 1v3l2 3v1l-2 3-1 1-1 2v2l-1 3-1 2v5l1 2v3l2 1 1 1-1 5v1h2l-1 1h1l2 1 1 2 3 3 4 1Z" stroke="#0E4686" stroke-width="2" mask="url(#s)" />
    <path d="m225 60 1 16h-17l-3 3-1 3v1l-1 3v1l1 2-2 1-2 1-1 1h-2l-1-3-1-2-3-1h-2v1l-2 1-1 1-1 1-1 3v3l-1 2 1 2-3-1-1 1-1-2-2-2-2-1-5-5v-1l2 1 1-2-1-4v-1l-2-1v-2l-1-5 1-1 1-3-1-1v-2l1-1-1-1v-3l-2-4-2-4 1-1v-4l-2-1h-3l-1-1v-1h-3l-1-1 1-3h-7l-4-1 1-2v-1l-1-2-1-3-1-2-1-4 1-1v-1l-2-2-2-1-2-3-1-1-1-1-1-1v-1h2l1 2h7l1 1v2l1 1 1-1 1-1 3 1h1l1 1h1l1-2h1l1 1 4 5h3l1-1v-1l-1-3v-1l1-1h2l1-1 1-1h1l4 1h1l1-1 1 1 1-1 1-1h3l1-1v-1l3-2h5l1-1V9h1l2-1 1-1 1-1-1-4h-1 6l1-1h2v2h1l1 2-1 4-1 2h-1v1h3l3 1 1 1v3l2 3v1l-2 3-1 1-1 2v2l-1 3-1 2v5l1 2v3l2 1 1 1-1 5v1h2l-1 1h1l2 1 1 2 3 3 4 1Z" stroke="#000" stroke-opacity=".2" stroke-width="2" mask="url(#s)" />
    <mask id="t" fill="#fff">
      <path d="m308 610-2-1v-9l1-1 2-3 1-1 2-3-1-1-1-1h-2l-2-2-2-2v-3l-1-2-2-2h-1l-2-1h-1l-2-2-2-1-1-1v-2l-2-2h-3l-1-1-2-1h-1l-2-1-2-4-1-1-3-2-1 1-2 3h-3v-5l-3-4-3-2-2-2-1-2-3-2h-4l-1 1v1l-1 1h-5v-2h-1 1l1-1 2-2v-2l1-1 1-1h2l1-1 5-6v-1l1-2v-1h1l2-1 2-4v-1l2-1 1-1 1-1v-2l2-2h2l1 1v-2h-1v-1l1-1h1l2-1 1-1v-1l1-1 2-1 3-1 1-1 1-1 1-3v1h2l2-1 3-1h1l2-3h1l1-1 2-1 4 1 3-1v-1h2v1h2l2 1h2l2 1h9l2 2 1 2h2l2-1 5 4 1 1h1l1 1 3 4 2 2v1l2 3h2l6 1h5l1 2-2 2h-1l-1 2v5h-2l-1 2v1l2 1v-2l1-1 2 1v1l2 1-1 1-4 7-4 11-6 10-5 6-7 6-5 4-3 4v-4l-1-2 1-1 1 1h2l2-1 1-1 3-3 1-1h1l1-1 1-1v-5h3v1-4h1l2-2 1-1 1-3-1-2h2l1-3h-1v-2h-1v2h-2l-2 1v1h-2v-3l-1 1-1-1-1-1v-3l-1 3v2l2 2-1 1-1 2 1 3v1l-1-1v-2h-1v2l-1 3-1 2h1l-1 1-2 1v1l-4 2h-1v4l-1 2-2 1-1 2 1 1v1h-1v2h1l1 1v1l-2 1-2 4-2 7-2 4-1 3-8 7-2 1Z" />
    </mask>
    <path d="m308 610-2-1v-9l1-1 2-3 1-1 2-3-1-1-1-1h-2l-2-2-2-2v-3l-1-2-2-2h-1l-2-1h-1l-2-2-2-1-1-1v-2l-2-2h-3l-1-1-2-1h-1l-2-1-2-4-1-1-3-2-1 1-2 3h-3v-5l-3-4-3-2-2-2-1-2-3-2h-4l-1 1v1l-1 1h-5v-2h-1 1l1-1 2-2v-2l1-1 1-1h2l1-1 5-6v-1l1-2v-1h1l2-1 2-4v-1l2-1 1-1 1-1v-2l2-2h2l1 1v-2h-1v-1l1-1h1l2-1 1-1v-1l1-1 2-1 3-1 1-1 1-1 1-3v1h2l2-1 3-1h1l2-3h1l1-1 2-1 4 1 3-1v-1h2v1h2l2 1h2l2 1h9l2 2 1 2h2l2-1 5 4 1 1h1l1 1 3 4 2 2v1l2 3h2l6 1h5l1 2-2 2h-1l-1 2v5h-2l-1 2v1l2 1v-2l1-1 2 1v1l2 1-1 1-4 7-4 11-6 10-5 6-7 6-5 4-3 4v-4l-1-2 1-1 1 1h2l2-1 1-1 3-3 1-1h1l1-1 1-1v-5h3v1-4h1l2-2 1-1 1-3-1-2h2l1-3h-1v-2h-1v2h-2l-2 1v1h-2v-3l-1 1-1-1-1-1v-3l-1 3v2l2 2-1 1-1 2 1 3v1l-1-1v-2h-1v2l-1 3-1 2h1l-1 1-2 1v1l-4 2h-1v4l-1 2-2 1-1 2 1 1v1h-1v2h1l1 1v1l-2 1-2 4-2 7-2 4-1 3-8 7-2 1Z" fill="#fff" />
    <path d="m308 610-2-1v-9l1-1 2-3 1-1 2-3-1-1-1-1h-2l-2-2-2-2v-3l-1-2-2-2h-1l-2-1h-1l-2-2-2-1-1-1v-2l-2-2h-3l-1-1-2-1h-1l-2-1-2-4-1-1-3-2-1 1-2 3h-3v-5l-3-4-3-2-2-2-1-2-3-2h-4l-1 1v1l-1 1h-5v-2h-1 1l1-1 2-2v-2l1-1 1-1h2l1-1 5-6v-1l1-2v-1h1l2-1 2-4v-1l2-1 1-1 1-1v-2l2-2h2l1 1v-2h-1v-1l1-1h1l2-1 1-1v-1l1-1 2-1 3-1 1-1 1-1 1-3v1h2l2-1 3-1h1l2-3h1l1-1 2-1 4 1 3-1v-1h2v1h2l2 1h2l2 1h9l2 2 1 2h2l2-1 5 4 1 1h1l1 1 3 4 2 2v1l2 3h2l6 1h5l1 2-2 2h-1l-1 2v5h-2l-1 2v1l2 1v-2l1-1 2 1v1l2 1-1 1-4 7-4 11-6 10-5 6-7 6-5 4-3 4v-4l-1-2 1-1 1 1h2l2-1 1-1 3-3 1-1h1l1-1 1-1v-5h3v1-4h1l2-2 1-1 1-3-1-2h2l1-3h-1v-2h-1v2h-2l-2 1v1h-2v-3l-1 1-1-1-1-1v-3l-1 3v2l2 2-1 1-1 2 1 3v1l-1-1v-2h-1v2l-1 3-1 2h1l-1 1-2 1v1l-4 2h-1v4l-1 2-2 1-1 2 1 1v1h-1v2h1l1 1v1l-2 1-2 4-2 7-2 4-1 3-8 7-2 1Z" stroke="#0E4686" stroke-width="2" mask="url(#t)" />
    <path d="m308 610-2-1v-9l1-1 2-3 1-1 2-3-1-1-1-1h-2l-2-2-2-2v-3l-1-2-2-2h-1l-2-1h-1l-2-2-2-1-1-1v-2l-2-2h-3l-1-1-2-1h-1l-2-1-2-4-1-1-3-2-1 1-2 3h-3v-5l-3-4-3-2-2-2-1-2-3-2h-4l-1 1v1l-1 1h-5v-2h-1 1l1-1 2-2v-2l1-1 1-1h2l1-1 5-6v-1l1-2v-1h1l2-1 2-4v-1l2-1 1-1 1-1v-2l2-2h2l1 1v-2h-1v-1l1-1h1l2-1 1-1v-1l1-1 2-1 3-1 1-1 1-1 1-3v1h2l2-1 3-1h1l2-3h1l1-1 2-1 4 1 3-1v-1h2v1h2l2 1h2l2 1h9l2 2 1 2h2l2-1 5 4 1 1h1l1 1 3 4 2 2v1l2 3h2l6 1h5l1 2-2 2h-1l-1 2v5h-2l-1 2v1l2 1v-2l1-1 2 1v1l2 1-1 1-4 7-4 11-6 10-5 6-7 6-5 4-3 4v-4l-1-2 1-1 1 1h2l2-1 1-1 3-3 1-1h1l1-1 1-1v-5h3v1-4h1l2-2 1-1 1-3-1-2h2l1-3h-1v-2h-1v2h-2l-2 1v1h-2v-3l-1 1-1-1-1-1v-3l-1 3v2l2 2-1 1-1 2 1 3v1l-1-1v-2h-1v2l-1 3-1 2h1l-1 1-2 1v1l-4 2h-1v4l-1 2-2 1-1 2 1 1v1h-1v2h1l1 1v1l-2 1-2 4-2 7-2 4-1 3-8 7-2 1Z" stroke="#000" stroke-opacity=".2" stroke-width="2" mask="url(#t)" />
    <mask id="u" fill="#fff">
      <path d="m363 534-2-1v-1l-2-1-1 1v2l-2-1v-1l1-2h2v-5l1-2h1l2-2-1-2h-5l-6-1h-2l-2-3v-1l-2-2-2-4-2-1h-1l-1-1-5-4-2 1h-2l-1-2-2-2h-9l-2-1h-2l-2-1h-3l1-1h-2v1l-3 1-4-1 2-2v-11l1-2h6v1l2 1h3l2-1 5 2h4l1 1 2 2h7l2 2v-1h1l1-1-1-3 1-1 1-1 2-1h3l2-1v-1l1-1 1-1h2l1 1h3l3-1h1l3 3 1 1h2l3-2 1-2h10l-1 1 1 1v1l-2 1-1-1v-2 4l2 1v1l-1 2v3l1 1v6h2v1h-2v9l1 2-1 2v4l-2 4h-1v-2h-1l1 2 1 1-1 2h-2l-4 3-2 3-4 4-1 2Zm17-26v-2l1-2v-2l1-1 1 1-1 2v1l-1 1v1l-1 1Zm0-23-2-2 2-2h1v1l-1 1v2Z" />
    </mask>
    <path d="m363 534-2-1v-1l-2-1-1 1v2l-2-1v-1l1-2h2v-5l1-2h1l2-2-1-2h-5l-6-1h-2l-2-3v-1l-2-2-2-4-2-1h-1l-1-1-5-4-2 1h-2l-1-2-2-2h-9l-2-1h-2l-2-1h-3l1-1h-2v1l-3 1-4-1 2-2v-11l1-2h6v1l2 1h3l2-1 5 2h4l1 1 2 2h7l2 2v-1h1l1-1-1-3 1-1 1-1 2-1h3l2-1v-1l1-1 1-1h2l1 1h3l3-1h1l3 3 1 1h2l3-2 1-2h10l-1 1 1 1v1l-2 1-1-1v-2 4l2 1v1l-1 2v3l1 1v6h2v1h-2v9l1 2-1 2v4l-2 4h-1v-2h-1l1 2 1 1-1 2h-2l-4 3-2 3-4 4-1 2Zm17-26v-2l1-2v-2l1-1 1 1-1 2v1l-1 1v1l-1 1Zm0-23-2-2 2-2h1v1l-1 1v2Z" fill="#fff" />
    <path d="m363 534-2-1v-1l-2-1-1 1v2l-2-1v-1l1-2h2v-5l1-2h1l2-2-1-2h-5l-6-1h-2l-2-3v-1l-2-2-2-4-2-1h-1l-1-1-5-4-2 1h-2l-1-2-2-2h-9l-2-1h-2l-2-1h-3l1-1h-2v1l-3 1-4-1 2-2v-11l1-2h6v1l2 1h3l2-1 5 2h4l1 1 2 2h7l2 2v-1h1l1-1-1-3 1-1 1-1 2-1h3l2-1v-1l1-1 1-1h2l1 1h3l3-1h1l3 3 1 1h2l3-2 1-2h10l-1 1 1 1v1l-2 1-1-1v-2 4l2 1v1l-1 2v3l1 1v6h2v1h-2v9l1 2-1 2v4l-2 4h-1v-2h-1l1 2 1 1-1 2h-2l-4 3-2 3-4 4-1 2Zm17-26v-2l1-2v-2l1-1 1 1-1 2v1l-1 1v1l-1 1Zm0-23-2-2 2-2h1v1l-1 1v2Z" stroke="#0E4686" stroke-width="2" mask="url(#u)" />
    <path d="m363 534-2-1v-1l-2-1-1 1v2l-2-1v-1l1-2h2v-5l1-2h1l2-2-1-2h-5l-6-1h-2l-2-3v-1l-2-2-2-4-2-1h-1l-1-1-5-4-2 1h-2l-1-2-2-2h-9l-2-1h-2l-2-1h-3l1-1h-2v1l-3 1-4-1 2-2v-11l1-2h6v1l2 1h3l2-1 5 2h4l1 1 2 2h7l2 2v-1h1l1-1-1-3 1-1 1-1 2-1h3l2-1v-1l1-1 1-1h2l1 1h3l3-1h1l3 3 1 1h2l3-2 1-2h10l-1 1 1 1v1l-2 1-1-1v-2 4l2 1v1l-1 2v3l1 1v6h2v1h-2v9l1 2-1 2v4l-2 4h-1v-2h-1l1 2 1 1-1 2h-2l-4 3-2 3-4 4-1 2Zm17-26v-2l1-2v-2l1-1 1 1-1 2v1l-1 1v1l-1 1Zm0-23-2-2 2-2h1v1l-1 1v2Z" stroke="#000" stroke-opacity=".2" stroke-width="2" mask="url(#u)" />
    <path d="m560 234 1 1-2 1-5 2-1 1-1 2v-1l-1-1v-1 1h-2 1v2h1v1l-1 2v-1h-2v1l1 1v1l-1 1 1-1h-1l-1-1v1l-1 1v3h-1l-3 1h-1v-1h-1v-1h-2v-3l-1-2-1-1-1-1-1-1v-1l1-1h1l1 1h1l2-1 1-1v-10h-1l-1-2-2-2v-2l1-1 5 3 4 1 5 3 1 2 2 2h2l3 2Zm-12 14-1 1v-1h1Z" fill="#fff" />
    <path d="m560 234 1 1-2 1-5 2-1 1-1 2v-1l-1-1v-1 1h-2 1v2h1v1l-1 2v-1h-2v1l1 1v1l-1 1 1-1h-1l-1-1v1l-1 1v3h-1l-3 1h-1v-1h-1v-1h-2v-3l-1-2-1-1-1-1-1-1v-1l1-1h1l1 1h1l2-1 1-1v-10h-1l-1-2-2-2v-2l1-1 5 3 4 1 5 3 1 2 2 2h2l3 2Zm-12 14-1 1v-1h1Z" stroke="#0E4686" />
    <path d="m560 234 1 1-2 1-5 2-1 1-1 2v-1l-1-1v-1 1h-2 1v2h1v1l-1 2v-1h-2v1l1 1v1l-1 1 1-1h-1l-1-1v1l-1 1v3h-1l-3 1h-1v-1h-1v-1h-2v-3l-1-2-1-1-1-1-1-1v-1l1-1h1l1 1h1l2-1 1-1v-10h-1l-1-2-2-2v-2l1-1 5 3 4 1 5 3 1 2 2 2h2l3 2Zm-12 14-1 1v-1h1Z" stroke="#000" stroke-opacity=".2" />
    <mask id="v" fill="#fff">
      <path d="M387 467v-2h-1l-1-3v-2l-2-1-1 3-1 1-1-1v-3l1-1v-1l-1-1h-7l-2 1-1-1h-1v-2l1-2v-1l-1-1v-2l-1-1h-1l-1-1-1-3v-2l-1-2v-6l-1-1-3-3-1-1h-12l-1-1-1-1-3-1h-2v-1h-5l-3-1-2-1h-1l-2-1v1h-1l-1 1h-7l-3-1-3 2v-1l1-1 1-1 7-5 2-1 2-3 1-1 1-1 1-1v-2l2-3 1-2v-3h1l2-4v-3l1-1 1-1h1l2-3 1-1h1l2-1 1-2 1-2 2-1h2l1-2h2l2 1 2 1h9l2 1 2 1v2l1 2h2v-1l1-1h1v4h1v-3l1-1 8-1 1-1 1 1 1 1 3-1v-1l1-1h2l1 1 1-1h1l4 3v1l-1 1v2l1 1 1 1 1 1v1l-2 2v2l1 1v2l2 2v3h2l1-1h1l3 1 1 1v1l-1 2-2 2v10l2 1h2v2l-1 1 2 3h9v-5h1v1h6l2-2 1-1h5v1l2 2h6l1 1-2 2-1 1h-3l-3 1-1 1-1 3v1l2 1v1h-2l-2 1-1 1-3 2h-2v3l-1 1-1-1h-1l-3-1h-1l-1 1-2 1-2 2-1 1v-2l-1-1-1 1v2l-8 4-1 2-3 2-3 2-2 1-4 3-2 2h-1l1 1 1-1v1l-1 1-1 1-1 2Zm42-22-1-1h-2l1-1 1-2h1l1 1v2l-1 1Z" />
    </mask>
    <path d="M387 467v-2h-1l-1-3v-2l-2-1-1 3-1 1-1-1v-3l1-1v-1l-1-1h-7l-2 1-1-1h-1v-2l1-2v-1l-1-1v-2l-1-1h-1l-1-1-1-3v-2l-1-2v-6l-1-1-3-3-1-1h-12l-1-1-1-1-3-1h-2v-1h-5l-3-1-2-1h-1l-2-1v1h-1l-1 1h-7l-3-1-3 2v-1l1-1 1-1 7-5 2-1 2-3 1-1 1-1 1-1v-2l2-3 1-2v-3h1l2-4v-3l1-1 1-1h1l2-3 1-1h1l2-1 1-2 1-2 2-1h2l1-2h2l2 1 2 1h9l2 1 2 1v2l1 2h2v-1l1-1h1v4h1v-3l1-1 8-1 1-1 1 1 1 1 3-1v-1l1-1h2l1 1 1-1h1l4 3v1l-1 1v2l1 1 1 1 1 1v1l-2 2v2l1 1v2l2 2v3h2l1-1h1l3 1 1 1v1l-1 2-2 2v10l2 1h2v2l-1 1 2 3h9v-5h1v1h6l2-2 1-1h5v1l2 2h6l1 1-2 2-1 1h-3l-3 1-1 1-1 3v1l2 1v1h-2l-2 1-1 1-3 2h-2v3l-1 1-1-1h-1l-3-1h-1l-1 1-2 1-2 2-1 1v-2l-1-1-1 1v2l-8 4-1 2-3 2-3 2-2 1-4 3-2 2h-1l1 1 1-1v1l-1 1-1 1-1 2Zm42-22-1-1h-2l1-1 1-2h1l1 1v2l-1 1Z" fill="#fff" />
    <path d="M387 467v-2h-1l-1-3v-2l-2-1-1 3-1 1-1-1v-3l1-1v-1l-1-1h-7l-2 1-1-1h-1v-2l1-2v-1l-1-1v-2l-1-1h-1l-1-1-1-3v-2l-1-2v-6l-1-1-3-3-1-1h-12l-1-1-1-1-3-1h-2v-1h-5l-3-1-2-1h-1l-2-1v1h-1l-1 1h-7l-3-1-3 2v-1l1-1 1-1 7-5 2-1 2-3 1-1 1-1 1-1v-2l2-3 1-2v-3h1l2-4v-3l1-1 1-1h1l2-3 1-1h1l2-1 1-2 1-2 2-1h2l1-2h2l2 1 2 1h9l2 1 2 1v2l1 2h2v-1l1-1h1v4h1v-3l1-1 8-1 1-1 1 1 1 1 3-1v-1l1-1h2l1 1 1-1h1l4 3v1l-1 1v2l1 1 1 1 1 1v1l-2 2v2l1 1v2l2 2v3h2l1-1h1l3 1 1 1v1l-1 2-2 2v10l2 1h2v2l-1 1 2 3h9v-5h1v1h6l2-2 1-1h5v1l2 2h6l1 1-2 2-1 1h-3l-3 1-1 1-1 3v1l2 1v1h-2l-2 1-1 1-3 2h-2v3l-1 1-1-1h-1l-3-1h-1l-1 1-2 1-2 2-1 1v-2l-1-1-1 1v2l-8 4-1 2-3 2-3 2-2 1-4 3-2 2h-1l1 1 1-1v1l-1 1-1 1-1 2Zm42-22-1-1h-2l1-1 1-2h1l1 1v2l-1 1Z" stroke="#0E4686" stroke-width="2" mask="url(#v)" />
    <path d="M387 467v-2h-1l-1-3v-2l-2-1-1 3-1 1-1-1v-3l1-1v-1l-1-1h-7l-2 1-1-1h-1v-2l1-2v-1l-1-1v-2l-1-1h-1l-1-1-1-3v-2l-1-2v-6l-1-1-3-3-1-1h-12l-1-1-1-1-3-1h-2v-1h-5l-3-1-2-1h-1l-2-1v1h-1l-1 1h-7l-3-1-3 2v-1l1-1 1-1 7-5 2-1 2-3 1-1 1-1 1-1v-2l2-3 1-2v-3h1l2-4v-3l1-1 1-1h1l2-3 1-1h1l2-1 1-2 1-2 2-1h2l1-2h2l2 1 2 1h9l2 1 2 1v2l1 2h2v-1l1-1h1v4h1v-3l1-1 8-1 1-1 1 1 1 1 3-1v-1l1-1h2l1 1 1-1h1l4 3v1l-1 1v2l1 1 1 1 1 1v1l-2 2v2l1 1v2l2 2v3h2l1-1h1l3 1 1 1v1l-1 2-2 2v10l2 1h2v2l-1 1 2 3h9v-5h1v1h6l2-2 1-1h5v1l2 2h6l1 1-2 2-1 1h-3l-3 1-1 1-1 3v1l2 1v1h-2l-2 1-1 1-3 2h-2v3l-1 1-1-1h-1l-3-1h-1l-1 1-2 1-2 2-1 1v-2l-1-1-1 1v2l-8 4-1 2-3 2-3 2-2 1-4 3-2 2h-1l1 1 1-1v1l-1 1-1 1-1 2Zm42-22-1-1h-2l1-1 1-2h1l1 1v2l-1 1Z" stroke="#000" stroke-opacity=".2" stroke-width="2" mask="url(#v)" />
    <mask id="w" fill="#fff">
      <path d="m415 270-5 1-2 2-3 1h-1l-4 1-3 2h-2l-1-2h-1v3h-1l-3-1-3-1v-2h-7l-1 1v1h-2v-3l-1-4-1-1-1-2-1 1-2 3-1 5-1 1-4-2-3-1-4-1-2-1h-2l1-2 1-2v-2h-1l-1 2-1 2v1l-1 1-1-1-1-3v-11l-1-2 1-1v-1l-1-1v-1l1-6v-3l1-2 2-5v-2l1-3 1-1v-2l1-1 2-3 1-4 1-2 1-1 1-1 1-2 1-1h1l1-1 1-2v-1l2-3h1l2-5v-4l-1-1-1-1-1-1v-2l1-1 2-2v-3l-1-2 3-2 3-1 2-1 1-1v-2l2-2h1v-3h2v-1l1-2-1-1v-2h2v-2l-1-1h-1l-1-2h-3l-2-1 3-2h2l3 1h4l1 1v1h1l3 1 1 1 1 4v6l1 1-2 6v5l-2 2h-2v1l2 1h2v4h1l3 4 1 1 2 3 2-2 4-1 2 2v1l-1 3 1 2h-5v1l-1 1-1 3 1 1-3 3v1h2l1 1 1 1v3l4 1v1l-1 2v1l2 2 1 3 1 2h1l1-1 1 1h1l1 1 1 1h3-1v1l-1 1-3 2-3 2v1l1 1-1 1h-1v1l-2 3-1 1v2l2 1 3 1 2 1v1h-1l-2 1v2l1-1 1 1h1v1h-1l-1 1-2 1v5l1 1h2v2l-1 2v1Z" />
    </mask>
    <path d="m415 270-5 1-2 2-3 1h-1l-4 1-3 2h-2l-1-2h-1v3h-1l-3-1-3-1v-2h-7l-1 1v1h-2v-3l-1-4-1-1-1-2-1 1-2 3-1 5-1 1-4-2-3-1-4-1-2-1h-2l1-2 1-2v-2h-1l-1 2-1 2v1l-1 1-1-1-1-3v-11l-1-2 1-1v-1l-1-1v-1l1-6v-3l1-2 2-5v-2l1-3 1-1v-2l1-1 2-3 1-4 1-2 1-1 1-1 1-2 1-1h1l1-1 1-2v-1l2-3h1l2-5v-4l-1-1-1-1-1-1v-2l1-1 2-2v-3l-1-2 3-2 3-1 2-1 1-1v-2l2-2h1v-3h2v-1l1-2-1-1v-2h2v-2l-1-1h-1l-1-2h-3l-2-1 3-2h2l3 1h4l1 1v1h1l3 1 1 1 1 4v6l1 1-2 6v5l-2 2h-2v1l2 1h2v4h1l3 4 1 1 2 3 2-2 4-1 2 2v1l-1 3 1 2h-5v1l-1 1-1 3 1 1-3 3v1h2l1 1 1 1v3l4 1v1l-1 2v1l2 2 1 3 1 2h1l1-1 1 1h1l1 1 1 1h3-1v1l-1 1-3 2-3 2v1l1 1-1 1h-1v1l-2 3-1 1v2l2 1 3 1 2 1v1h-1l-2 1v2l1-1 1 1h1v1h-1l-1 1-2 1v5l1 1h2v2l-1 2v1Z" fill="#fff" />
    <path d="m415 270-5 1-2 2-3 1h-1l-4 1-3 2h-2l-1-2h-1v3h-1l-3-1-3-1v-2h-7l-1 1v1h-2v-3l-1-4-1-1-1-2-1 1-2 3-1 5-1 1-4-2-3-1-4-1-2-1h-2l1-2 1-2v-2h-1l-1 2-1 2v1l-1 1-1-1-1-3v-11l-1-2 1-1v-1l-1-1v-1l1-6v-3l1-2 2-5v-2l1-3 1-1v-2l1-1 2-3 1-4 1-2 1-1 1-1 1-2 1-1h1l1-1 1-2v-1l2-3h1l2-5v-4l-1-1-1-1-1-1v-2l1-1 2-2v-3l-1-2 3-2 3-1 2-1 1-1v-2l2-2h1v-3h2v-1l1-2-1-1v-2h2v-2l-1-1h-1l-1-2h-3l-2-1 3-2h2l3 1h4l1 1v1h1l3 1 1 1 1 4v6l1 1-2 6v5l-2 2h-2v1l2 1h2v4h1l3 4 1 1 2 3 2-2 4-1 2 2v1l-1 3 1 2h-5v1l-1 1-1 3 1 1-3 3v1h2l1 1 1 1v3l4 1v1l-1 2v1l2 2 1 3 1 2h1l1-1 1 1h1l1 1 1 1h3-1v1l-1 1-3 2-3 2v1l1 1-1 1h-1v1l-2 3-1 1v2l2 1 3 1 2 1v1h-1l-2 1v2l1-1 1 1h1v1h-1l-1 1-2 1v5l1 1h2v2l-1 2v1Z" stroke="#0E4686" stroke-width="2" mask="url(#w)" />
    <path d="m415 270-5 1-2 2-3 1h-1l-4 1-3 2h-2l-1-2h-1v3h-1l-3-1-3-1v-2h-7l-1 1v1h-2v-3l-1-4-1-1-1-2-1 1-2 3-1 5-1 1-4-2-3-1-4-1-2-1h-2l1-2 1-2v-2h-1l-1 2-1 2v1l-1 1-1-1-1-3v-11l-1-2 1-1v-1l-1-1v-1l1-6v-3l1-2 2-5v-2l1-3 1-1v-2l1-1 2-3 1-4 1-2 1-1 1-1 1-2 1-1h1l1-1 1-2v-1l2-3h1l2-5v-4l-1-1-1-1-1-1v-2l1-1 2-2v-3l-1-2 3-2 3-1 2-1 1-1v-2l2-2h1v-3h2v-1l1-2-1-1v-2h2v-2l-1-1h-1l-1-2h-3l-2-1 3-2h2l3 1h4l1 1v1h1l3 1 1 1 1 4v6l1 1-2 6v5l-2 2h-2v1l2 1h2v4h1l3 4 1 1 2 3 2-2 4-1 2 2v1l-1 3 1 2h-5v1l-1 1-1 3 1 1-3 3v1h2l1 1 1 1v3l4 1v1l-1 2v1l2 2 1 3 1 2h1l1-1 1 1h1l1 1 1 1h3-1v1l-1 1-3 2-3 2v1l1 1-1 1h-1v1l-2 3-1 1v2l2 1 3 1 2 1v1h-1l-2 1v2l1-1 1 1h1v1h-1l-1 1-2 1v5l1 1h2v2l-1 2v1Z" stroke="#000" stroke-opacity=".2" stroke-width="2" mask="url(#w)" />
  </g>
  <defs>
    <clipPath id="a">
      <path fill="#fff" transform="translate(1 1)" d="M0 0h585v610H0z" />
    </clipPath>
  </defs>
</svg>