<svg width="122" height="94" fill="none" xmlns="http://www.w3.org/2000/svg">
  <g clip-path="url(#a)">
    <path d="M115 93H15c-4 0-7-3-7-7V19c0-4 3-7 7-7h100c4 0 7 3 7 7v67c0 4-3 7-7 7Z" fill="#A7B8C6" />
    <path d="M116 10c0-4-3-7-7-7H9c-4 0-7 3-7 7v44h114V10Z" fill="#E7E2D3" />
    <path d="M9 84h100c4 0 7-3 7-7V43H2v34c0 4 3 7 7 7Z" fill="#4C4B4C" />
    <path d="M109 86H9c-5 0-9-4-9-9V10c0-5 4-9 9-9h100c5 0 8 4 8 9v67c0 5-3 9-8 9ZM9 5a5 5 0 0 0-5 5v67a5 5 0 0 0 5 5h100c3 0 5-2 5-5V10a5 5 0 0 0-5-5H9Z" fill="#3E3A39" />
    <path d="M33 40a25 25 0 0 0 8 18 25 25 0 0 0 18 8 25 25 0 0 0 18-8 25 25 0 0 0 7-18 25 25 0 0 0-7-18 25 25 0 0 0-36 0 25 25 0 0 0-8 18Z" fill="#E7E2D3" />
    <path d="M59 67a26 26 0 1 1 0-53 26 26 0 0 1 0 53Zm0-51a24 24 0 1 0 0 49 24 24 0 0 0 0-49Z" fill="#595757" />
    <path d="M37 40a22 22 0 0 0 7 15 22 22 0 0 0 30 0 22 22 0 0 0 0-30 22 22 0 0 0-30 0 22 22 0 0 0-7 15Z" fill="#666765" />
    <path d="M46 40c0 4 1 7 4 9a13 13 0 0 0 18 0 13 13 0 0 0 0-18 13 13 0 0 0-18 0 13 13 0 0 0-4 9Z" fill="#95D4EB" />
    <path d="M59 54a14 14 0 1 1 0-28 14 14 0 0 1 0 28Zm0-26a12 12 0 1 0 0 25 12 12 0 0 0 0-25Z" fill="#595757" />
    <path d="M61 35a4 4 0 0 0 4 3 4 4 0 0 0 3-3 4 4 0 0 0-3-4 4 4 0 0 0-4 4Z" fill="#fff" />
    <path d="M39 73h38c2 0 3 0 4 2a3 3 0 0 0 2-3 3 3 0 0 0-3-4H37a3 3 0 0 0-3 4l2 2 3-1Z" fill="#1A1A1A" />
    <path d="M82 78a5 5 0 0 0-1-3 3 3 0 0 1-1 0H37a3 3 0 0 1-1-1 5 5 0 0 0-2 4l-2 8c0 3 3 5 6 5h41c3 0 5-2 5-5l-2-8Z" fill="#E7E2D3" />
    <path d="M80 75h1a5 5 0 0 0-4-2H39a5 5 0 0 0-3 1 3 3 0 0 0 1 1h43Zm15-41a4 4 0 0 0 4 4 4 4 0 0 0 3-7 4 4 0 0 0-7 3Z" fill="#717071" />
    <path d="M99 39a5 5 0 0 1-5-5 5 5 0 0 1 5-5 5 5 0 0 1 5 5 5 5 0 0 1-5 5Zm0-9a4 4 0 0 0-4 4 4 4 0 0 0 4 4 4 4 0 0 0 4-4 4 4 0 0 0-4-4Z" fill="#595757" />
    <path d="M100 33h1v1h1a1 1 0 0 0 0-1h1a2 2 0 0 0 0-1 2 2 0 0 0-1-1 2 2 0 0 0-1 0 1 1 0 0 0-1 0v2Z" fill="#B4B4B5" />
    <path d="M11 34a4 4 0 0 0 4 4 4 4 0 0 0 5-4 4 4 0 0 0-5-5 4 4 0 0 0-4 5Z" fill="red" />
    <path d="M15 39a5 5 0 0 1-5-5 5 5 0 0 1 5-5 5 5 0 0 1 5 5 5 5 0 0 1-5 5Zm0-9a4 4 0 1 0 0 8 4 4 0 1 0 0-8Z" fill="#fff" />
    <path d="M21 23H9v-7h12v7Z" fill="#4C4B4C" />
    <path d="M103 23h-7v-8h7l1 1v7h-1Z" fill="#656767" />
    <path d="M102 24h-5l-2-2v-5l2-2h5l2 2v5l-2 2Zm-5-8a1 1 0 0 0-1 1v5l1 1h5a1 1 0 0 0 1-1v-5a1 1 0 0 0-1-1h-5Z" fill="#3E3A39" />
  </g>
  <defs>
    <clipPath id="a">
      <path fill="#fff" transform="translate(0 1)" d="M0 0h122v92H0z" />
    </clipPath>
  </defs>
</svg>