<svg width="194" height="101" fill="none" xmlns="http://www.w3.org/2000/svg">
  <path fill="#282828" d="M1 87h192v13H1z" />
  <g clip-path="url(#a)">
    <path d="M181 48c0 3-3 6-6 6h-16c-3 0-6-3-6-6v-4c0-3 3-5 6-5h16c3 0 6 2 6 5v4Z" fill="#fff" />
    <path d="M188 74c0 3-2 5-4 5H14c-2 0-4-2-4-5V46c0-3 2-5 4-5h167c2 0 4 2 4 5l3 28Z" fill="#fff" />
    <path d="M10 74c0 3 2 5 4 5h170c2 0 4-2 4-5l-2-12H10v12Z" fill="#0E4686" />
    <path d="M10 74c0 3 2 5 4 5h170c2 0 4-2 4-5l-2-12H10v12Z" fill="#000" fill-opacity=".2" />
    <path d="M189 80c0 2-1 3-3 3H11c-2 0-3-1-3-3v-1c0-2 1-3 3-3h175c2 0 3 1 3 3v1Z" fill="#231D4D" />
    <path d="M26 78a18 18 0 0 1 18-18 18 18 0 0 1 18 18" fill="#000" />
    <path d="M63 78h-1c0-10-8-18-18-18-9 0-18 8-18 18h-1a19 19 0 1 1 38 0Z" fill="#231D4D" />
    <path d="M44 95a16 16 0 1 0 0-33 16 16 0 0 0 0 33Z" fill="#203547" />
    <path d="M56 67c6 6 6 17 0 23-7 7-17 7-24 0" fill="#122130" />
    <path d="M44 89a10 10 0 1 0 0-21 10 10 0 0 0 0 21Z" fill="#6E7577" />
    <path d="M51 71c4 4 4 11 0 15s-10 4-14 0" fill="#4C5456" />
    <path d="M44 88a9 9 0 1 0 0-18 9 9 0 0 0 0 18Z" fill="#CED8DD" />
    <path d="M50 72c4 4 4 9 0 13-3 3-9 3-12 0" fill="#B2BBC1" />
    <path opacity=".2" d="M48 79c0 2-2 5-4 5s-4-3-4-5c0-3 2-5 4-5s4 2 4 5Z" fill="#888F91" />
    <path d="M44 83a4 4 0 1 0 0-9 4 4 0 0 0 0 9Z" fill="#E7EFF2" />
    <path d="M44 74c2 0 4 2 4 5s-2 4-4 4" fill="#DAE6EA" />
    <path d="M44 70h-1l1 2 1-2h-1Z" fill="#666E70" />
    <path d="m44 72 1-2h-1" fill="#535A5B" />
    <path d="M43 88h2l-1-3-1 3Z" fill="#666E70" />
    <path d="m45 88-1-3 1 3Z" fill="#535A5B" />
    <path d="m37 73 2 1v-2l-2 1Z" fill="#666E70" />
    <path d="M39 74v-2 2Z" fill="#535A5B" />
    <path d="M51 84h-2l1 2v-1l1-1Z" fill="#666E70" />
    <path d="m50 85 1-1h-2" fill="#535A5B" />
    <path d="m35 80 2-1-2-1v2Z" fill="#666E70" />
    <path d="m37 79-2-1v1" fill="#535A5B" />
    <path d="m51 79 2 1v-2l-2 1Z" fill="#666E70" />
    <path d="m53 77-2 2 2-2Z" fill="#535A5B" />
    <path d="m37 84 2 2v-2h-2Z" fill="#666E70" />
    <path d="M39 86v-2 2Z" fill="#535A5B" />
    <path d="m50 72-1 2 2-1-1-1Z" fill="#666E70" />
    <path d="m50 72-1 2 1-2Z" fill="#535A5B" />
    <path d="M134 78a18 18 0 0 1 18-18 18 18 0 0 1 18 18" fill="#000" />
    <path d="M171 78h-2c0-10-7-18-17-18s-18 8-18 18h-1c0-10 8-19 19-19s19 9 19 19Z" fill="#231D4D" />
    <path d="M152 95a16 16 0 1 0 0-33 16 16 0 0 0 0 33Z" fill="#203547" />
    <path d="M164 67c6 6 6 17 0 23-7 7-17 7-24 0" fill="#122130" />
    <path d="M152 89a10 10 0 1 0 0-21 10 10 0 0 0 0 21Z" fill="#6E7577" />
    <path d="M159 71c4 4 4 11 0 15s-10 4-14 0" fill="#4C5456" />
    <path d="M152 88a9 9 0 1 0 0-18 9 9 0 1 0 0 18Z" fill="#CED8DD" />
    <path d="M159 72c3 4 3 9 0 13-4 3-10 3-13 0" fill="#B2BBC1" />
    <path opacity=".2" d="M156 79c0 2-2 5-4 5s-4-3-4-5c0-3 2-5 4-5s4 2 4 5Z" fill="#888F91" />
    <path d="M152 83a4 4 0 1 0 0-9 4 4 0 0 0 0 9Z" fill="#E7EFF2" />
    <path d="M152 74c2 0 4 2 4 5s-2 4-4 4" fill="#DAE6EA" />
    <path d="M152 70h-1l1 2 1-2h-1Z" fill="#666E70" />
    <path d="m152 72 1-2h-1" fill="#535A5B" />
    <path d="M151 88h2l-1-3-1 3Z" fill="#666E70" />
    <path d="m153 88-1-3 1 3Z" fill="#535A5B" />
    <path d="m145 73 2 1-1-2-1 1Z" fill="#666E70" />
    <path d="m147 74-1-2 1 2Z" fill="#535A5B" />
    <path d="M159 84h-2v2l1-1 1-1Z" fill="#666E70" />
    <path d="M159 85v-1h-2" fill="#535A5B" />
    <path d="m143 80 2-1-2-1v2Z" fill="#666E70" />
    <path d="m145 79-2-1v1" fill="#535A5B" />
    <path d="m159 79 2 1v-2l-2 1Z" fill="#666E70" />
    <path d="m161 77-2 2 2-2Z" fill="#535A5B" />
    <path d="m145 84 2 2 1-2h-3Z" fill="#666E70" />
    <path d="m147 86 1-2-1 2Z" fill="#535A5B" />
    <path d="m157 72-1 2 3-1-2-1Z" fill="#666E70" />
    <path d="m157 72-1 2 1-2Z" fill="#535A5B" />
    <path d="M170 46c0 3-3 6-6 6H19c-3 0-6-3-6-6V6c0-3 3-6 6-6h127c4 0 6 3 6 6l18 40Z" fill="#fff" />
    <path d="M15 68c0 2-2 2-3 2-2 0-3-2-3-3V54c0-2 1-3 3-3 1 0 3 1 3 3v14Z" fill="#DB0940" />
    <path d="M12 51c1 0 3 1 3 3v14c0 2-2 2-3 2" fill="#BC043D" />
    <path d="M167 38 153 8h-42c-2 0-4 1-4 3v24c0 2 2 3 4 3h56ZM99 8H45c-2 0-3 1-3 3v24c0 2 1 3 2 3h57l2-3V11c0-2-2-3-4-3ZM13 39h21l1-1 2-2V11c0-2-2-3-3-3H13v31Z" fill="#51859B" />
    <path d="m127 8-20 19v8c0 2 1 3 2 3l31-30h-13Zm-5 0h-9l-6 5v9l15-14Zm31 31h13l1-1-4-9-10 10Zm1-28-1-3h-2l-31 31h7l27-28Z" fill="#81B6C9" />
    <path d="m154 41-1 2-2-1-10-39 1-2 2 1 10 39Z" fill="#fff" />
    <path d="m116 46-2 2h-5l-2-2 2-2h5l2 2Z" fill="#0E4686" />
    <path d="m116 46-2 2h-5l-2-2 2-2h5l2 2Z" fill="#000" fill-opacity=".2" />
    <path d="M75 46c0 1 0 2-2 2h-4l-2-2 2-2h4c2 0 2 1 2 2Z" fill="#0E4686" />
    <path d="M75 46c0 1 0 2-2 2h-4l-2-2 2-2h4c2 0 2 1 2 2Z" fill="#000" fill-opacity=".2" />
    <path d="M28 45h-5l-1-1h6Z" fill="#0E4686" />
    <path d="M28 45h-5l-1-1h6Z" fill="#000" fill-opacity=".2" />
    <path d="M28 48h-6l1-1h4l1 1Z" fill="#0E4686" />
    <path d="M28 48h-6l1-1h4l1 1Z" fill="#000" fill-opacity=".2" />
    <path d="M28 51h-6l1-1h4l1 1Z" fill="#0E4686" />
    <path d="M28 51h-6l1-1h4l1 1Z" fill="#000" fill-opacity=".2" />
    <path d="M187 66c0 1-1 2-3 2a3 3 0 0 1-2-2V53l2-2c2 0 3 1 3 2v13Z" fill="#FFA300" />
    <path d="M184 68a3 3 0 0 1-2-3V53l2-2" fill="#FF7300" />
    <path d="m22 39 15-15v-9L14 39h8Zm7-31H13v15L29 8Zm5 31 1-1 2-2v-7L27 39h7ZM53 8h-8l-4 3v8L53 8Zm5 0L41 24v12l1 1L71 8H58Zm24 31h18l1-1 2-2V18L82 39Zm6-31h-7L50 39h7L88 8Z" fill="#81B6C9" />
  </g>
  <defs>
    <clipPath id="a">
      <path fill="#fff" transform="translate(8)" d="M0 0h182v95H0z" />
    </clipPath>
  </defs>
</svg>