<svg width="169" height="77" fill="none" xmlns="http://www.w3.org/2000/svg"><path d="M151 65h-39v4h39v-4Z" fill="#000"/><path d="M103 38h-8a1 1 0 0 1 0-1l-1-3a1 1 0 0 1 1-1h6a1 1 0 0 1 1 1l1 4Z" fill="#0E4686"/><path d="M103 38h-8a1 1 0 0 1 0-1l-1-3a1 1 0 0 1 1-1h6a1 1 0 0 1 1 1l1 4Z" fill="#000" fill-opacity=".2"/><path d="M159 38h8a1 1 0 0 0 1-1v-3a1 1 0 0 0 0-1h-7a1 1 0 0 0-1 1l-1 4Z" fill="#0E4686"/><path d="M159 38h8a1 1 0 0 0 1-1v-3a1 1 0 0 0 0-1h-7a1 1 0 0 0-1 1l-1 4Z" fill="#000" fill-opacity=".2"/><path d="M113 77h-13a1 1 0 0 1-2-2V62h17v13l-2 2Zm36 0h14l1-2V62h-16v13l1 2Z" fill="#000"/><path d="M164 46H98l4-8h58l4 8Z" fill="#fff"/><path d="M164 62H98V46l2-2h62l2 2v16Z" fill="#0E4686"/><path d="M164 62H98V46l2-2h62l2 2v16Z" fill="#000" fill-opacity=".2"/><path d="M155 18h-48c-1 0-2 0-2 2l-3 18h58l-3-18a3 3 0 0 0-2-2Z" fill="#fff"/><path d="m104 36 3-16a1 1 0 0 1 0-1h48l1 1 2 16h-54Z" fill="#000"/><path d="M163 67H99a3 3 0 0 1-3-3 3 3 0 0 1 3-2h64a3 3 0 0 1 3 2 3 3 0 0 1-3 3Z" fill="#E9E5D9"/><path d="M96 65a3 3 0 0 0 3 2h64c2 0 3-1 3-2H96Z" fill="#D8D0BC"/><path d="M145 59h-28a1 1 0 0 1-1-1V48l1-1h28l1 1v10a1 1 0 0 1-1 1Z" fill="#E9E5D9"/><path d="M119 49v8-8Zm2 0v8-8Zm2 0v8-8Zm2 0v8-8Zm2 0v8-8Zm2 0v8-8Zm2 0v8-8Zm2 0v8-8Zm2 0v8-8Zm3 0h-1v8h1v-8Zm2 0h-1v8h1v-8Zm2 0h-1v8h1v-8Zm2 0h-1v8h1v-8Z" fill="#000"/><path d="M112 52h-10v-5h11v4l-1 1Zm0 3h-10v-2h10l1 1v1h-1Z" fill="#E9E5D9"/><path d="m106 49-1 2-1-2 1-1 1 1Zm4 0-1 2-1-2 1-1 1 1Z" fill="#F9F8F7"/><path d="M150 52h10l1-1v-4h-11v5Zm0 3h11v-1l-1-1h-10v2Z" fill="#E9E5D9"/><path d="m157 51 1-2-1-1a1 1 0 0 0 0 3Zm-4 0 2-2-2-1a1 1 0 0 0 0 3Z" fill="#F9F8F7"/><path d="M160 37h-58v1h58v-1Z" fill="#0E4686"/><path d="M160 37h-58v1h58v-1Z" fill="#000" fill-opacity=".2"/><path d="M159 36h-55l2-16a1 1 0 0 1 1-1h48a1 1 0 0 1 1 1l3 16Zm-54 0h53l-3-16h-48l-2 16Z" fill="#E9E5D9"/><path d="M135 70h-8l-3-2h14l-3 2Z" fill="#000"/><path d="m141 35 7-14h-3l-6 14h2Zm-9 0 7-14h-1l-6 14Z" fill="#617179"/><path d="m73 43 1-2a1 1 0 0 0-1-1h-5a1 1 0 0 0-1 0v3H7l1-1-1-2H1a1 1 0 0 0 0 1v2l1 1h5v-1 1h60v-1 1h5l1-1Z" fill="#BCBEC0"/><path d="m61 76 1 1h8l1-1v-5H61v5Z" fill="#3A4D57"/><path d="M71 54Zm-4-11v1H7v-1 1l-3 8a7 7 0 0 1 11-1 5 5 0 0 1 3-1c2 0 4 2 5 4h28a5 5 0 0 1 8-3 7 7 0 0 1 11 1l-3-8v-1Z" fill="#D1D3D4"/><path d="M50 56H25a1 1 0 0 0-1 1v7h27v-7a1 1 0 0 0-1-1Zm-14 7H25h11Zm0-1H25v-1h11v1Zm0-2H25v-1h11v1Zm0-2H25v-1h11v1Zm13 5H38h11Zm0-1H38v-1h11v1Zm0-2H38v-1h11v1Zm0-2H38v-1h11v1Z" fill="#E9E5D9"/><path d="M49 57H38v1h11v-1Zm0 2H38v1h11v-1Zm0 2H38v1h11v-1Zm0 2H38h11Z" fill="#3A4D57"/><path d="M64 48a7 7 0 0 0-5 3 5 5 0 0 0-3-1c-2 0-4 2-5 4H23a5 5 0 0 0-8-3 7 7 0 0 0-5-3 7 7 0 0 0-6 4 7 7 0 0 0-1 2v13h68V54a7 7 0 0 0-1-2 7 7 0 0 0-6-4Zm-54 2a5 5 0 0 1 4 2l1 2a4 4 0 0 1 3-2c2 0 4 2 4 4s-2 4-4 4-3-1-4-3a5 5 0 0 1-1 2 5 5 0 0 1-3 1c-3 0-5-2-5-5s2-5 5-5Zm3 14H6v-2h7v2Zm38 0H25a1 1 0 0 1-1 0v-7l1-1h25l1 1v7Zm17 0h-7v-2h7v2Zm-4-4a5 5 0 0 1-3-1 5 5 0 0 1-1-2 4 4 0 0 1-4 3c-2 0-3-2-3-4s1-4 3-4l4 2a5 5 0 0 1 0-2 5 5 0 0 1 4-2c3 0 5 2 5 5s-2 5-5 5Z" fill="#BCBEC0"/><path d="M68 62h-7v2h7v-2Zm-4-12a5 5 0 0 0-4 2 5 5 0 0 0 0 2 4 4 0 0 0-4-2c-2 0-3 2-3 4s1 4 3 4 3-1 4-3a5 5 0 0 0 1 2 5 5 0 0 0 3 1c3 0 5-2 5-5s-2-5-5-5Z" fill="#E9E5D9"/><path d="M37 43h30v-1l-3-14a3 3 0 0 0-3-2H13l-2 2-3 14-1 1h30ZM12 28a1 1 0 0 1 1 0h48a1 1 0 0 1 1 0l3 14H9l3-14Z" fill="#D1D3D4"/><path d="m65 42-3-14a1 1 0 0 0-1 0h-4l-6 14h14Zm-24 0 7-14H13a1 1 0 0 0-1 0L9 42h32Zm7 0 7-14h-7l-6 14h6ZM3 76l1 1h8l1-1v-5H3v5Z" fill="#3A4D57"/><path d="M3 54Z" fill="#D1D3D4"/><path d="M36 57H25v1h11v-1Zm0 2H25v1h11v-1Zm0 2H25v1h11v-1Zm0 2H25h11Z" fill="#3A4D57"/><path d="M3 67a2 2 0 0 0-2 2h72a2 2 0 0 0-2-2H3Z" fill="#E9E5D9"/><path d="M1 69v1a2 2 0 0 0 1 0 2 2 0 0 0 1 1h69a2 2 0 0 0 0-1 1 1 0 0 0 1 0v-1H1Z" fill="#D8D0BC"/><path d="M13 62H6v2h7v-2Zm-3-2a5 5 0 0 0 3-1l1-2a4 4 0 0 0 4 3c2 0 4-2 4-4s-2-4-4-4l-3 2a5 5 0 0 0-1-2 5 5 0 0 0-4-2c-3 0-5 2-5 5s2 5 5 5Z" fill="#E9E5D9"/><path d="m51 42 6-14h-2l-7 14h3Zm-9 0 6-14-7 14h1Z" fill="#617179"/><rect x="108.7" y=".8" width="45.8" height="15.9" rx="2.7" fill="#FFFA7E"/><rect x="108.7" y=".8" width="45.8" height="15.9" rx="2.7" stroke="#000" stroke-width=".4"/><path d="M111 12V5h4l1 1 1 1-1 1a2 2 0 0 1-1 1l-1 1h-2V8h2a1 1 0 0 0 1 0V7a1 1 0 0 0-1-1h-2v6h-1Zm4-3 2 3h-2l-2-3h2Zm5 4V4h1v9h-1Zm2-6a1 1 0 0 0-1-1h-1a1 1 0 0 0-1 0 1 1 0 0 0 0 1 1 1 0 0 0 1 0v1h2l1 1a2 2 0 0 1 0 1v1l-1 1h-3a2 2 0 0 1-1-1l-1-1h2l1 1h2a1 1 0 0 0 0-1 1 1 0 0 0-1-1h-1l-2-1V6l1-1h3l1 1v1h-1Z" fill="#337E0F"/><rect x="125.8" y="3.9" width="5.4" height="9.6" rx="1.7" fill="#337E0F"/><g style="mix-blend-mode:luminosity"><rect x="15.6" y="5.4" width="45.2" height="15.9" rx="2.7" fill="#FFFA7E"/><rect x="15.6" y="5.4" width="45.2" height="15.9" rx="2.7" stroke="#000" stroke-width=".4"/><path d="M18 17V9h3l1 1h1v3a2 2 0 0 1-1 1h-3v-1h2a1 1 0 0 0 1-1v-1a1 1 0 0 0-1 0h-2v6h-1Zm4-4 2 4h-2l-2-4h2Zm5 5V8h1v10h-1Zm2-7a1 1 0 0 0-1 0h-1a1 1 0 0 0-1 0 1 1 0 0 0 0 1h2l1 1h1a2 2 0 0 1 0 2v1l-1 1h-3a2 2 0 0 1-1-1l-1-2h2v1h1v1h1l1-1a1 1 0 0 0 0-1 1 1 0 0 0-1 0 4 4 0 0 0-1 0l-2-1v-3a2 2 0 0 1 1-1h3l1 1v1h-1Z" fill="#7E0F0F"/><rect x="32.7" y="8.6" width="5.4" height="9.6" rx="1.7" fill="#7E0F0F"/><rect x="39.8" y="8.6" width="5.4" height="9.6" rx="1.7" fill="#690C0C"/><rect x="46.9" y="8.6" width="5.4" height="9.6" rx="1.7" fill="#550A0A"/><rect x="54" y="8.6" width="5.4" height="9.6" rx="1.7" fill="#360505"/></g></svg>