<svg width="169" height="77" fill="none" xmlns="http://www.w3.org/2000/svg">
  <path d="M150.509 65.473h-38.742v3.344h38.742v-3.344Z" fill="#000" />
  <path d="M102.801 37.764h-7.427a.681.681 0 0 1-.661-.524l-.702-2.934a.683.683 0 0 1 .662-.844h6.563a.68.68 0 0 1 .661.524l.904 3.778Z" fill="#0E4686" />
  <path d="M102.801 37.764h-7.427a.681.681 0 0 1-.661-.524l-.702-2.934a.683.683 0 0 1 .662-.844h6.563a.68.68 0 0 1 .661.524l.904 3.778Z" fill="#000" fill-opacity=".2" />
  <path d="M159.475 37.764h7.427a.683.683 0 0 0 .662-.524l.702-2.934a.684.684 0 0 0-.662-.844h-6.563a.682.682 0 0 0-.662.524l-.904 3.778Z" fill="#0E4686" />
  <path d="M159.475 37.764h7.427a.683.683 0 0 0 .662-.524l.702-2.934a.684.684 0 0 0-.662-.844h-6.563a.682.682 0 0 0-.662.524l-.904 3.778Z" fill="#000" fill-opacity=".2" />
  <path d="M113.107 76.866H99.741a1.443 1.443 0 0 1-1.443-1.443V61.741h16.252v13.682c0 .797-.646 1.443-1.443 1.443ZM149.169 76.866h13.367c.796 0 1.442-.646 1.442-1.443V61.741h-16.252v13.682c0 .797.646 1.443 1.443 1.443Z" fill="#000" />
  <path d="M164.161 46.285H98.116l4.054-8.52h57.937l4.054 8.52Z" fill="#fff" />
  <path d="M164.161 61.742H98.116V46.28c0-1.16.94-2.1 2.101-2.1h61.843c1.16 0 2.101.94 2.101 2.1v15.462Z" fill="#0E4686" />
  <path d="M164.161 61.742H98.116V46.28c0-1.16.94-2.1 2.101-2.1h61.843c1.16 0 2.101.94 2.101 2.1v15.462Z" fill="#000" fill-opacity=".2" />
  <path d="M154.898 17.501h-47.52c-1.244 0-2.3.914-2.486 2.15l-2.722 18.113h57.936l-2.722-18.113a2.518 2.518 0 0 0-2.486-2.15Z" fill="#fff" />
  <path d="m104.141 36.06 2.427-16.154a.816.816 0 0 1 .81-.7h47.52c.408 0 .749.294.81.7l2.428 16.154h-53.995Z" fill="#000" />
  <path d="M163.487 67.092H98.79a2.668 2.668 0 0 1-2.669-2.668v-.014a2.668 2.668 0 0 1 2.669-2.668h64.697a2.668 2.668 0 0 1 2.668 2.668v.014a2.668 2.668 0 0 1-2.668 2.668Z" fill="#E9E5D9" />
  <path d="M96.18 64.972a2.665 2.665 0 0 0 2.603 2.12h64.71c1.28 0 2.349-.909 2.603-2.12H96.18Z" fill="#D8D0BC" />
  <path d="M145.011 59.163h-27.746a.957.957 0 0 1-.957-.957V47.714c0-.528.429-.957.957-.957h27.746c.528 0 .957.429.957.957v10.492a.957.957 0 0 1-.957.957Z" fill="#E9E5D9" />
  <path d="M119.41 48.737h-.673v8.446h.673v-8.446ZM121.421 48.737h-.674v8.446h.674v-8.446ZM123.432 48.737h-.674v8.446h.674v-8.446ZM125.442 48.737h-.673v8.446h.673v-8.446ZM127.453 48.737h-.673v8.446h.673v-8.446ZM129.464 48.737h-.673v8.446h.673v-8.446ZM131.475 48.737h-.673v8.446h.673v-8.446ZM133.485 48.737h-.673v8.446h.673v-8.446ZM135.496 48.737h-.673v8.446h.673v-8.446ZM137.507 48.737h-.673v8.446h.673v-8.446ZM139.518 48.737h-.673v8.446h.673v-8.446ZM141.529 48.737h-.673v8.446h.673v-8.446ZM143.54 48.737h-.673v8.446h.673v-8.446Z" fill="#000" />
  <path d="M112.145 51.824h-10.162a.454.454 0 0 1-.454-.454v-4.159c0-.25.204-.454.454-.454h10.162c.251 0 .454.203.454.454v4.16c0 .25-.203.453-.454.453ZM112.297 55.491h-10.466a.302.302 0 0 1-.302-.301v-1.637c0-.167.136-.302.302-.302h10.466c.167 0 .302.135.302.302v1.637a.302.302 0 0 1-.302.301Z" fill="#E9E5D9" />
  <path d="M106.424 49.29c0 .711-.573 1.287-1.28 1.287-.707 0-1.28-.576-1.28-1.287 0-.71.573-1.287 1.28-1.287.707 0 1.28.577 1.28 1.287ZM110.265 49.29c0 .711-.573 1.287-1.28 1.287-.707 0-1.28-.576-1.28-1.287 0-.71.573-1.287 1.28-1.287.707 0 1.28.577 1.28 1.287Z" fill="#F9F8F7" />
  <path d="M150.131 51.824h10.162a.454.454 0 0 0 .454-.454v-4.159a.454.454 0 0 0-.454-.454h-10.162a.454.454 0 0 0-.454.454v4.16c0 .25.204.453.454.453ZM149.979 55.491h10.466a.302.302 0 0 0 .302-.301v-1.637a.302.302 0 0 0-.302-.302h-10.466a.302.302 0 0 0-.302.302v1.637c0 .166.136.301.302.301Z" fill="#E9E5D9" />
  <path d="M157.133 50.577c.707 0 1.28-.576 1.28-1.287 0-.71-.573-1.287-1.28-1.287-.707 0-1.281.577-1.281 1.287 0 .711.574 1.287 1.281 1.287ZM153.292 50.577c.707 0 1.28-.576 1.28-1.287 0-.71-.573-1.287-1.28-1.287-.707 0-1.281.577-1.281 1.287 0 .711.574 1.287 1.281 1.287Z" fill="#F9F8F7" />
  <path d="M160.106 37.428H102.17v.672h57.936v-.672Z" fill="#0E4686" />
  <path d="M160.106 37.428H102.17v.672h57.936v-.672Z" fill="#000" fill-opacity=".2" />
  <path d="M158.526 36.396H103.75l2.486-16.54a1.149 1.149 0 0 1 1.142-.987h47.52a1.15 1.15 0 0 1 1.142.987l2.486 16.54Zm-53.995-.673h53.214l-2.37-15.767a.481.481 0 0 0-.477-.414h-47.52a.48.48 0 0 0-.477.414l-2.37 15.767Z" fill="#E9E5D9" />
  <path d="M135.213 70.392h-8.15l-2.963-2.093h14.076l-2.963 2.093Z" fill="#000" />
  <path d="m141.371 34.75 6.414-14.234h-2.814l-6.415 14.233h2.815ZM132.471 34.75l6.414-14.234h-.891l-6.412 14.233h.889Z" fill="#617179" />
  <path d="m72.95 43.125.572-2.395a.558.558 0 0 0-.54-.689h-5.357a.556.556 0 0 0-.54.428l-.399 1.666.21 1.01H7.413l.21-1.01-.398-1.666a.556.556 0 0 0-.54-.428H1.326a.558.558 0 0 0-.54.69l.573 2.394c.06.25.283.427.54.427h5.417l.027-.069v.338h59.62v-.338l.028.068v.001h5.417c.257 0 .48-.176.54-.427Z" fill="#BCBEC0" />
  <path d="M61.18 76.085c0 .431.35.78.781.78h8.417c.431 0 .78-.349.78-.78v-5.49h-9.977v5.49Z" fill="#3A4D57" />
  <path d="m71.157 54.013-.198-.501v-.001c.04.165.074.332.103.502h.095ZM66.965 43.483v.338H7.344v-.338l-.027.068v.001l-3.295 8.275a6.67 6.67 0 0 1 11.146-.757 5.374 5.374 0 0 1 2.823-.802c2.402 0 4.436 1.57 5.15 3.744h28.026c.715-2.174 2.748-3.744 5.15-3.744 1.036 0 2 .297 2.823.803a6.67 6.67 0 0 1 11.147.756l-3.295-8.275v-.001l-.027-.068Z" fill="#D1D3D4" />
  <path d="M49.725 56.383H24.583a.814.814 0 0 0-.814.814v6.453c0 .45.364.815.815.815h25.141c.45 0 .815-.365.815-.815v-6.453a.814.814 0 0 0-.815-.814Zm-13.412 7.006H25.446v-.672h10.867v.672Zm0-1.754H25.446v-.672h10.867v.672Zm0-1.75H25.446v-.673h10.867v.673Zm0-1.751H25.446v-.676h10.867v.676Zm12.55 5.255H37.996v-.672h10.867v.672Zm0-1.754H37.996v-.672h10.867v.672Zm0-1.75H37.996v-.673h10.867v.673Zm0-1.751H37.996v-.676h10.867v.676Z" fill="#E9E5D9" />
  <path d="M48.863 57.458H37.996v.676h10.867v-.676ZM48.863 59.212H37.996v.672h10.867v-.672ZM48.863 60.963H37.996v.672h10.867v-.672ZM48.863 62.717H37.996v.672h10.867v-.672Z" fill="#3A4D57" />
  <path d="M64.465 48.417a6.67 6.67 0 0 0-5.325 2.654 5.372 5.372 0 0 0-2.822-.803c-2.403 0-4.436 1.57-5.151 3.744H23.142c-.715-2.174-2.749-3.744-5.15-3.744-1.036 0-2 .297-2.823.803a6.67 6.67 0 0 0-5.325-2.654 6.684 6.684 0 0 0-5.822 3.41 6.704 6.704 0 0 0-.775 2.185H3.15v12.823h68.006V54.012h-.096a6.69 6.69 0 0 0-.775-2.185 6.682 6.682 0 0 0-5.821-3.41ZM9.844 50.1a5 5 0 0 1 4.042 2.063c.364.496.637 1.06.8 1.671a3.797 3.797 0 0 1 3.305-1.934c2.101 0 3.804 1.712 3.804 3.825 0 2.112-1.703 3.824-3.804 3.824-1.604 0-2.974-1-3.533-2.413a5.055 5.055 0 0 1-1.027 1.54 4.99 4.99 0 0 1-3.587 1.518c-2.773 0-5.02-2.26-5.02-5.047 0-2.788 2.247-5.047 5.02-5.047Zm3.412 13.437a.323.323 0 0 1-.323.324H6.755a.323.323 0 0 1-.324-.324v-1.29c0-.178.145-.323.324-.323h6.178c.178 0 .323.145.323.323v1.29Zm37.284.114c0 .45-.365.815-.815.815H24.583a.814.814 0 0 1-.814-.815v-6.453c0-.45.364-.815.815-.815h25.141c.45 0 .815.365.815.815v6.453Zm17.337-.114a.323.323 0 0 1-.323.324h-6.178a.323.323 0 0 1-.323-.324v-1.29c0-.178.144-.323.323-.323h6.178c.178 0 .323.145.323.323v1.29Zm-3.412-3.343a4.99 4.99 0 0 1-3.587-1.519 5.053 5.053 0 0 1-1.027-1.538 3.803 3.803 0 0 1-3.533 2.412c-2.101 0-3.804-1.712-3.804-3.825 0-2.112 1.703-3.824 3.804-3.824 1.416 0 2.65.78 3.304 1.934a5.028 5.028 0 0 1 .801-1.671 5 5 0 0 1 4.043-2.063c2.772 0 5.02 2.26 5.02 5.047 0 2.788-2.248 5.047-5.021 5.047Z" fill="#BCBEC0" />
  <path d="M67.554 61.923h-6.178a.323.323 0 0 0-.324.323v1.29c0 .179.145.323.324.323h6.178a.323.323 0 0 0 .323-.323v-1.29a.323.323 0 0 0-.323-.323ZM64.465 50.099a5 5 0 0 0-4.043 2.063 5.03 5.03 0 0 0-.8 1.671 3.797 3.797 0 0 0-3.305-1.934c-2.1 0-3.804 1.712-3.804 3.825 0 2.112 1.703 3.824 3.804 3.824 1.605 0 2.974-1 3.533-2.413a5.055 5.055 0 0 0 1.027 1.54 4.991 4.991 0 0 0 3.587 1.518c2.773 0 5.021-2.26 5.021-5.047 0-2.788-2.247-5.047-5.02-5.047Z" fill="#E9E5D9" />
  <path d="M37.154 43.145h29.743l-.21-1.01-2.913-14.147a2.63 2.63 0 0 0-2.575-2.11H13.11c-1.247 0-2.323.88-2.575 2.11L7.622 42.135l-.21 1.01h29.742ZM12.176 28.33a.96.96 0 0 1 .933-.765H61.2a.96.96 0 0 1 .934.765l2.77 13.468H9.406l2.77-13.468Z" fill="#D1D3D4" />
  <path d="m64.903 41.797-2.77-13.468a.96.96 0 0 0-.934-.764h-3.833l-6.414 14.232h13.95ZM41.163 41.797l6.411-14.232H13.11a.96.96 0 0 0-.933.764l-2.77 13.468h31.757ZM48.137 41.797l6.414-14.232h-6.085l-6.414 14.232h6.085ZM3.15 76.085c0 .431.35.78.78.78h8.418c.43 0 .78-.349.78-.78v-5.49H3.15v5.49Z" fill="#3A4D57" />
  <path d="m3.35 53.511-.198.502h.095c.029-.17.063-.337.104-.502Z" fill="#D1D3D4" />
  <path d="M36.313 57.458H25.446v.676h10.867v-.676ZM36.313 59.212H25.446v.672h10.867v-.672ZM36.313 60.963H25.446v.672h10.867v-.672ZM36.313 62.717H25.446v.672h10.867v-.672Z" fill="#3A4D57" />
  <path d="M3.152 66.835h-.19a1.873 1.873 0 0 0-1.872 1.876v.008c0 .261.053.51.15.738h71.828c.098-.228.151-.477.151-.738v-.008a1.873 1.873 0 0 0-1.872-1.876H3.152Z" fill="#E9E5D9" />
  <path d="M1.24 69.457c0 .003.004.006.004.009.02.044.041.092.065.136.095.178.216.338.361.474.027.03.057.056.09.08l.017.018c.044.035.089.068.136.1.062.042.125.08.19.11.041.024.086.045.13.062a1.683 1.683 0 0 0 .347.11h.009c.047.012.098.018.145.024l.068.009c.05.003.104.006.157.006H71.35c.054 0 .108-.003.158-.006l.068-.01c.047-.005.098-.011.145-.023h.01a1.674 1.674 0 0 0 .476-.172c.065-.03.127-.068.19-.11.047-.032.092-.065.136-.1l.018-.018a.574.574 0 0 0 .089-.08 1.83 1.83 0 0 0 .361-.474c.024-.044.045-.092.065-.136 0-.003.003-.006.003-.01H1.241Z" fill="#D8D0BC" />
  <path d="M12.933 61.923H6.755a.323.323 0 0 0-.324.323v1.29c0 .179.145.323.324.323h6.178a.323.323 0 0 0 .323-.323v-1.29a.323.323 0 0 0-.323-.323ZM9.844 60.193a4.99 4.99 0 0 0 3.587-1.519c.43-.442.78-.962 1.027-1.538a3.803 3.803 0 0 0 3.533 2.412c2.1 0 3.804-1.712 3.804-3.825 0-2.112-1.703-3.824-3.804-3.824-1.417 0-2.65.78-3.304 1.934a5.031 5.031 0 0 0-.801-1.671 5 5 0 0 0-4.043-2.063c-2.772 0-5.02 2.26-5.02 5.047 0 2.788 2.248 5.047 5.02 5.047Z" fill="#E9E5D9" />
  <path d="m50.951 41.797 6.415-14.232H54.55l-6.414 14.232h2.814ZM42.052 41.797l6.414-14.232h-.892l-6.411 14.232h.889Z" fill="#617179" />
  <rect x="108.72" y=".779" width="45.758" height="15.916" rx="2.708" fill="#FFFA7E" />
  <rect x="108.72" y=".779" width="45.758" height="15.916" rx="2.708" stroke="#000" stroke-width=".417" />
  <path d="M110.836 12.237V4.663h2.988c.572 0 1.06.102 1.465.307.406.202.716.49.928.861.214.37.322.805.322 1.306 0 .503-.109.935-.326 1.298a2.11 2.11 0 0 1-.943.828c-.409.193-.905.289-1.486.289h-2.001V8.265h1.742c.305 0 .559-.042.761-.126a.906.906 0 0 0 .452-.377c.101-.168.151-.376.151-.625 0-.252-.05-.464-.151-.636a.934.934 0 0 0-.455-.392c-.202-.091-.458-.137-.766-.137h-1.08v6.265h-1.601Zm4.09-3.447 1.883 3.447h-1.768l-1.842-3.447h1.727Zm5.244 4.393V3.716h.607v9.467h-.607Zm1.609-6.342a.938.938 0 0 0-.381-.695c-.224-.165-.529-.248-.913-.248-.262 0-.482.037-.662.11a.939.939 0 0 0-.415.3.725.725 0 0 0-.14.437.62.62 0 0 0 .085.355.888.888 0 0 0 .263.262c.11.072.239.135.384.189.146.052.301.096.466.133l.681.163c.33.074.633.172.909.296.276.123.516.275.718.455.202.18.358.392.469.636.114.244.172.524.174.84-.002.463-.121.864-.355 1.205-.232.338-.567.6-1.006.787-.436.185-.962.278-1.579.278-.611 0-1.144-.094-1.597-.281a2.337 2.337 0 0 1-1.058-.832c-.252-.37-.383-.828-.396-1.372h1.55c.017.254.09.466.218.636.131.167.304.294.521.38.22.085.468.126.744.126.271 0 .506-.04.706-.118.202-.079.359-.189.47-.33a.76.76 0 0 0 .166-.484c0-.17-.05-.313-.152-.429a1.145 1.145 0 0 0-.436-.295 4.447 4.447 0 0 0-.699-.222l-.825-.207c-.638-.156-1.142-.399-1.512-.729-.37-.33-.554-.775-.551-1.335-.003-.458.119-.86.366-1.202.249-.343.591-.61 1.024-.802.434-.193.927-.289 1.48-.289.562 0 1.052.096 1.472.289.421.192.749.46.983.802.234.343.355.74.363 1.191h-1.535Z" fill="#337E0F" />
  <rect x="125.844" y="3.946" width="5.415" height="9.581" rx="1.666" fill="#337E0F" />
  <g style="mix-blend-mode:luminosity">
    <rect x="15.601" y="5.396" width="45.242" height="15.916" rx="2.708" fill="#FFFA7E" />
    <rect x="15.601" y="5.396" width="45.242" height="15.916" rx="2.708" stroke="#000" stroke-width=".417" />
    <path d="M17.718 16.854V9.28h2.988c.572 0 1.06.103 1.464.307.407.202.716.49.928.862.215.37.322.805.322 1.305 0 .503-.109.936-.325 1.298a2.11 2.11 0 0 1-.944.829c-.409.192-.904.288-1.486.288h-2v-1.287h1.741c.306 0 .56-.042.762-.125a.905.905 0 0 0 .451-.378c.101-.167.152-.376.152-.625 0-.251-.05-.463-.152-.636a.93.93 0 0 0-.455-.392c-.202-.09-.457-.137-.765-.137h-1.08v6.265h-1.601Zm4.09-3.446 1.882 3.446h-1.768l-1.841-3.446h1.727Zm5.244 4.393V8.334h.606V17.8h-.606Zm1.608-6.342a.936.936 0 0 0-.38-.696c-.225-.165-.53-.248-.914-.248-.261 0-.482.037-.662.111a.93.93 0 0 0-.414.3.721.721 0 0 0-.14.436.624.624 0 0 0 .084.355.888.888 0 0 0 .263.263c.11.072.239.134.384.189.146.051.301.096.466.133l.68.162c.331.074.634.173.91.296.277.124.516.275.718.455.202.18.359.392.47.636.113.244.171.524.174.84-.003.463-.121.865-.355 1.205-.232.338-.567.6-1.006.788-.437.185-.963.277-1.58.277-.61 0-1.143-.093-1.597-.28a2.34 2.34 0 0 1-1.058-.833c-.251-.37-.383-.827-.395-1.372h1.55c.016.254.09.466.217.636.13.168.305.295.522.381.22.084.467.126.743.126.271 0 .507-.04.706-.118.203-.08.36-.189.47-.33a.76.76 0 0 0 .167-.484.63.63 0 0 0-.152-.429 1.15 1.15 0 0 0-.436-.296 4.44 4.44 0 0 0-.7-.222l-.824-.207c-.639-.155-1.143-.398-1.513-.728-.37-.33-.553-.776-.55-1.335-.003-.459.119-.86.365-1.202a2.47 2.47 0 0 1 1.025-.803c.434-.192.927-.288 1.479-.288.562 0 1.053.096 1.472.288.421.193.75.46.984.803.234.342.355.74.362 1.19H28.66Z" fill="#7E0F0F" />
    <rect x="32.725" y="8.564" width="5.415" height="9.581" rx="1.666" fill="#7E0F0F" />
    <rect x="39.807" y="8.564" width="5.415" height="9.581" rx="1.666" fill="#690C0C" />
    <rect x="46.888" y="8.564" width="5.415" height="9.581" rx="1.666" fill="#550A0A" />
    <rect x="53.97" y="8.564" width="5.415" height="9.581" rx="1.666" fill="#360505" />
  </g>
</svg>