<svg width="161" height="211" fill="none" xmlns="http://www.w3.org/2000/svg"><g filter="url(#a)"><path d="M16 141H5l-1-1-1-4 1-2h10l1 1 1 6ZM134 141h11l1-1 1-4-1-2h-10l-1 1-1 6Z" fill="#7369E7"/><path d="M124 108H25c-2 0-4 2-4 4l-6 29h120l-6-29c0-2-2-4-5-4Z" fill="#525BA7"/><path d="m19 138 5-25 1-1h99l2 1 5 25H19ZM24 202H9l-2-1v-17h18v17l-1 1ZM126 202h15l2-1v-17h-19v17l2 1Z" fill="#3A4D57"/><path d="M143 160H7v24h136v-24Z" fill="#7369E7"/><path d="M135 141H15l-8 19h136l-8-19Z" fill="#525BA7"/><path d="M103 179H47l-2-1v-12l2-1h56l2 1v12l-2 1Z" fill="#E9E5D9"/><path d="M102 166H48v2h54v-2ZM102 170H48v1h54v-1ZM102 173H48v1h54v-1ZM102 176H48v1h54v-1Z" fill="#3A4D57"/><path d="M77 165h-4v14h4v-14Z" fill="#E9E5D9"/><path d="M19 175c7 0 13-6 13-13s-6-12-13-12c-6 0-12 5-12 12s6 13 12 13Z" fill="#7369E7"/><path d="M19 172c6 0 10-5 10-10s-4-9-10-9c-5 0-9 4-9 9s4 10 9 10Z" fill="#E9E5D9"/><path d="M130 175c7 0 13-6 13-13s-6-12-13-12c-6 0-12 5-12 12s6 13 12 13Z" fill="#7369E7"/><path d="M143 191H7a3 3 0 0 1 0-7h136a3 3 0 0 1 0 7Z" fill="#E9E5D9"/><path d="M4 189c0 1 1 2 3 2h136l3-2H4Z" fill="#D8D0BC"/><path d="M130 172c5 0 10-5 10-10s-5-9-10-9-9 4-9 9 4 10 9 10ZM25 178H13v-3h13v3h-1ZM125 178h12v-3h-13v3h1Z" fill="#E9E5D9"/><path d="M135 140H15v1h120v-1Z" fill="#7369E7"/><path d="M1 52c4-19 31-30 47-18 10 7 12 29 12 29l-19 7 6 19-16-15-18 8S-1 64 1 52Z" fill="#fff"/><path d="m20 53-2-8 3-1h1a2 2 0 0 1 2 1v2h-1 1l1 1v3l-2 1-3 1Zm1-2h2l1-1v-1a1 1 0 0 0-1-1h-1l-2 1 1 2Zm-1-3 2-1 1-1-1-1h-1l-2 1 1 2ZM30 50h-1l-2-1-1-2v-1a3 3 0 0 1 2-2l2-1 1 1 1 2v1a3 3 0 0 1-2 3Zm0-1 1-1v-2l-1-1-1-1h-1v1l-1 1 1 1v1l1 1h1ZM36 47l-1 1-1-1v-2l1-1h1v-1h1l-1-1h-1l-1 1-1 1a2 2 0 0 1 1-2 3 3 0 0 1 2-1l1 1 1 1 1 3-1 1v-1l-1 1h-1Zm0-1h1a1 1 0 0 0 0-1v-1h-1a49 49 0 0 1-1 1v2l1-1ZM11 61l4 6v-7h2l-1 8-1 1-5-7 1-1ZM21 67l-2-6h1l2 5-1 1Zm-2-7h-1v-1h1v1ZM25 65h-2v-2l1-1 1-1h1l-1-1h-1l-1 1h-1a2 2 0 0 1 1-1 3 3 0 0 1 2-1h1l1 1 1 4-1 1v-1l-1 1h-1Zm0-1h1a1 1 0 0 0 0-2 48 48 0 0 1-2 1v1h1ZM33 65h-2l-1-1h3l1-1v-2l-1 1-1 1h-1l-1-1-1-1v-3l1-1h2v-1h1l2 6v1l-1 1-1 1Zm-1-3 1-1v-2l-1-1h-2v2l1 1v1h1ZM40 60l-2 1-1-1-1-2v-3l1-1h1a2 2 0 0 1 2 1l1 2-4 1h-1l4-2h-1a1 1 0 0 0-1-1l-1 1v2l1 1v1l1-1h1v-1h1v2h-1ZM44 59l-2-6h1v1l1-1v-1h1l1 1 1-1 1-1h1l1 1 1 4-1 1-1-4-1-1-1 1v1l1 3-1 1-1-4-1-1h-1v2l1 4h-1ZM52 47l2 6h-1l-2-5 1-1Zm2 8h-1v-1h1a1 1 0 0 1 1 1h-1Z" fill="#000"/><path d="M106 51c15-13 43-4 48 15 3 12-10 30-10 30l-19-6-19 13 9-16-19-6s0-22 10-30Z" fill="#fff"/><path d="m119 63 3-8 2 1 2 1a2 2 0 0 1 0 2v1h-2l1 1v3h-3l-3-1Zm2-1 1 1h2v-1a1 1 0 0 0 0-1h-1l-2-1v2Zm1-3 1 1h1l1-1v-1l-1-1h-2v2ZM129 66l-1-1-1-1v-2l1-1a3 3 0 0 1 3-1l1 1 1 2-1 1v2a3 3 0 0 1-3 0Zm0-1h2v-3l-1-1h-1v1l-1 1v2h1ZM135 65l-1 3h-1l2-6h1v1h3v2l-1 4h-1l1-4v-1h-1v-1l-1 1-1 1ZM111 68l-4 5h-1v-7l1 1v4l3-3h1ZM113 75l-2-1v-3l1-1a3 3 0 0 1 3-1l1 1 1 1-1 2v1a3 3 0 0 1-3 1Zm0-1h1l1-1v-2l-1-1h-1v1l-1 1v2h1ZM117 79a2 2 0 0 1-1-1l1-1v1h1v-1h1l-1-7 2 1v5l3-4h1l-5 6-1 1h-1ZM125 79l-1-1h-1v-1l1-1 1-1 1 1h2v-1l-1-1h-2a2 2 0 0 1 1-1 3 3 0 0 1 2 0l1 1v2l-1 4-1-1h-2Zm0-1h1a1 1 0 0 0 1-1h1-1a45 45 0 0 1-2-1v2ZM131 83h-1v-1l-1-1h1l1 1h1l1 1 1-1v-1h-2l-1-1-1-1v-2l1-1 1-1h2l1 1v1-1h2l-2 6-1 1-1 1-2-1Zm1-3h2l1-1v-1l-1-1v-1h-1l-1 1v1l-1 1 1 1ZM139 83h-1l-1-2v-1l1-2 1-1 2 1h1a2 2 0 0 1 1 2v1l-1 1-4-2v-1l4 1a1 1 0 0 0-1-2h-1l-1 1v1h-1v1l1 1v1h2v-1l1 1h-1l-1 1-1-1ZM147 78l-2 5h-1l2-6 1 1Zm-3 7v-1h1a1 1 0 0 1 0 1h-1Z" fill="#000"/><path d="M46 5c15-13 64 5 69 24 2 12-11 30-11 30l-21-8-7-2-7 40-3-44-7-2-24-9s1-22 11-29Z" fill="#fff"/><path d="m45 19 3-8 1 1-1 3 3 1 1-3h2l-3 8-1-1 1-3-4-1-1 3h-1ZM55 22h-1l-1-1v-1l1-1h2a940 940 0 0 0 2 0v-1l-1-1h-1v1l-1-1a2 2 0 0 1 1-1 3 3 0 0 1 2 1h1v2l-1 4h-1v-1h-2Zm0-1h1a1 1 0 0 0 1 0l1-1h-1a46 46 0 0 1-2 0v1ZM66 19l-4 5h-1v-6h1v5l3-4h1ZM68 26h-1l-1-2v-1l1-2 1-1h2l1 1a2 2 0 0 1 1 2v1l-1 1-4-2v-1l4 1a1 1 0 0 0-1-2h-1l-1 1v1h-1v1l1 1v1h1l1-1 1 1h-1l-1 1-1-1ZM77 29h-1v-3h3a4574 4574 0 0 0 1 0v-1h-2l-1-1a2 2 0 0 1 2-1 3 3 0 0 1 1 1h1v2l-1 4h-1v-1l-1 1-1-1Zm1 0h1a1 1 0 0 0 1-1v-1h-1a49 49 0 0 1-1 0h-1v1l1 1ZM87 29l-1 3h-1l2-6h1v1h2l1 1v2l-1 3h-1l1-3v-2h-2l-1 1ZM92 34l2-6 1 1-2 5h-1Zm3-6-1-1v-1h1v1h1l-1 1ZM97 36l-1-1-1-1 1-2v-1l2-1h1l1 1a2 2 0 0 1 1 2l-1-1-1-1h-2v3l1 1h1v-1l1 1v1h-3ZM104 38l-2-1v-3l1-1 1-1h2l1 1a2 2 0 0 1 0 1v2l-4-1v-1l3 1v-1a1 1 0 0 0-1-1h-1l-1 1v3h4l-1 1h-2ZM62 31v-1l6 2v1l-3-1-2 7-1-1 2-6-2-1ZM67 40l2-6h1l-1 1h2a5 5 0 0 1 1 0l-1 1h-1a1 1 0 0 0-1 1l-1 3h-1ZM71 41l2-5h1l-2 6-1-1Zm3-6v-1h-1 1c0-1 0-1 0 0h1v1h-1ZM74 44l2-7h1v1l1-1h1a2 2 0 0 1 2 2l-1 2v2h-4v-1l-1 3-1-1Zm2-4v2h3v-1l1-1-1-1-1-1-1 1-1 1ZM85 37l-2 6-1-1 2-5h1Zm-3 8v-1c-1 0-1 0 0 0v-1h1v1a1 1 0 0 1 0 1h-1Z" fill="#000"/></g><defs><filter id="a" x=".9" y=".5" width="160.1" height="210.1" filterUnits="userSpaceOnUse" color-interpolation-filters="sRGB"><feFlood flood-opacity="0" result="BackgroundImageFix"/><feColorMatrix in="SourceAlpha" values="0 0 0 0 0 0 0 0 0 0 0 0 0 0 0 0 0 0 127 0" result="hardAlpha"/><feOffset dx="3.8" dy="5.4"/><feGaussianBlur stdDeviation="1.5"/><feComposite in2="hardAlpha" operator="out"/><feColorMatrix values="0 0 0 0 0 0 0 0 0 0 0 0 0 0 0 0 0 0 0.25 0"/><feBlend in2="BackgroundImageFix" result="effect1_dropShadow_49_3017"/><feBlend in="SourceGraphic" in2="effect1_dropShadow_49_3017" result="shape"/></filter></defs></svg>