<svg width="161" height="211" viewBox="0 0 161 211" fill="none" xmlns="http://www.w3.org/2000/svg">
  <g filter="url(#filter0_d_49_3017)">
    <path d="M16.0273 140.936H4.9221C4.45177 140.936 4.0424 140.611 3.93252 140.15L2.88315 135.748C2.72919 135.102 3.21403 134.481 3.87274 134.481H13.6859C14.1562 134.481 14.5656 134.807 14.6754 135.268L16.0273 140.936Z" fill="#7369E7" />
    <path d="M133.849 140.936H144.954C145.424 140.936 145.834 140.611 145.944 140.15L146.993 135.748C147.147 135.102 146.661 134.481 146.003 134.481H136.19C135.719 134.481 135.31 134.807 135.2 135.268L133.849 140.936Z" fill="#7369E7" />
    <path d="M124.417 108.446H25.4582C23.1735 108.446 21.2028 110.064 20.7397 112.321L14.8976 140.808H134.978L129.136 112.321C128.673 110.064 126.702 108.446 124.417 108.446Z" fill="#525BA7" />
    <path d="M18.6724 137.709L23.7501 112.949C23.9168 112.136 24.6353 111.546 25.4588 111.546H124.418C125.241 111.546 125.96 112.136 126.126 112.949L131.204 137.709H18.6724Z" fill="#3A4D57" />
    <path d="M23.9035 202.177H8.80438C7.92589 202.177 7.21404 201.463 7.21404 200.581V183.738H25.4939V200.581C25.4939 201.463 24.782 202.177 23.9035 202.177Z" fill="#3A4D57" />
    <path d="M125.973 202.177H141.072C141.95 202.177 142.663 201.463 142.663 200.581V183.738H124.383V200.581C124.382 201.463 125.094 202.177 125.973 202.177Z" fill="#3A4D57" />
    <path d="M142.662 160.166H7.21404V183.738H142.663L142.662 160.166Z" fill="#7369E7" />
    <path d="M134.978 140.808C94.9006 140.808 54.9145 140.808 14.8976 140.808L7.21338 160.166L142.662 160.166L134.978 140.808Z" fill="#525BA7" />
    <path d="M103.227 179.383H46.6482C45.7305 179.383 44.9866 178.636 44.9866 177.715V166.189C44.9866 165.268 45.7305 164.522 46.6482 164.522H103.227C104.145 164.522 104.889 165.268 104.889 166.189V177.715C104.889 178.636 104.145 179.383 103.227 179.383Z" fill="#E9E5D9" />
    <path d="M101.818 166.432H48.058V167.808H101.818V166.432Z" fill="#3A4D57" />
    <path d="M101.818 169.653H48.0581V171.03H101.818V169.653Z" fill="#3A4D57" />
    <path d="M101.818 172.874H48.0581V174.25H101.818V172.874Z" fill="#3A4D57" />
    <path d="M101.818 176.096H48.0581V177.472H101.818V176.096Z" fill="#3A4D57" />
    <path d="M76.6522 164.521H73.2239V179.382H76.6522V164.521Z" fill="#E9E5D9" />
    <path d="M19.476 174.618C26.2485 174.618 31.7386 169.08 31.7386 162.249C31.7386 155.418 26.2485 149.88 19.476 149.88C12.7035 149.88 7.21338 155.418 7.21338 162.249C7.21338 169.08 12.7035 174.618 19.476 174.618Z" fill="#7369E7" />
    <path d="M19.4767 171.527C24.5565 171.527 28.6746 167.373 28.6746 162.249C28.6746 157.125 24.5565 152.971 19.4767 152.971C14.3968 152.971 10.2788 157.125 10.2788 162.249C10.2788 167.373 14.3968 171.527 19.4767 171.527Z" fill="#E9E5D9" />
    <path d="M130.399 174.618C137.172 174.618 142.662 169.08 142.662 162.249C142.662 155.418 137.172 149.88 130.399 149.88C123.627 149.88 118.137 155.418 118.137 162.249C118.137 169.08 123.627 174.618 130.399 174.618Z" fill="#7369E7" />
    <path d="M142.997 190.648H6.87958C4.97769 190.648 3.43626 189.102 3.43626 187.193C3.43626 185.285 4.97769 183.738 6.87958 183.738H142.996C144.898 183.738 146.439 185.285 146.439 187.193C146.44 189.102 144.898 190.648 142.997 190.648Z" fill="#E9E5D9" />
    <path d="M3.71338 188.555C4.23746 189.786 5.44923 190.649 6.86206 190.649H143.014C144.426 190.649 145.639 189.786 146.163 188.555H3.71338Z" fill="#D8D0BC" />
    <path d="M130.399 171.527C135.479 171.527 139.597 167.373 139.597 162.249C139.597 157.125 135.479 152.971 130.399 152.971C125.32 152.971 121.202 157.125 121.202 162.249C121.202 167.373 125.32 171.527 130.399 171.527Z" fill="#E9E5D9" />
    <path d="M25.0688 178.267H13.8839C13.5198 178.267 13.2252 177.972 13.2252 177.606V175.368C13.2252 175.004 13.5198 174.707 13.8839 174.707H25.0694C25.4328 174.707 25.7281 175.003 25.7281 175.368V177.606C25.7275 177.972 25.4328 178.267 25.0688 178.267Z" fill="#E9E5D9" />
    <path d="M124.807 178.267H135.993C136.356 178.267 136.651 177.972 136.651 177.606V175.368C136.651 175.004 136.357 174.707 135.993 174.707H124.807C124.444 174.707 124.149 175.003 124.149 175.368V177.606C124.149 177.972 124.443 178.267 124.807 178.267Z" fill="#E9E5D9" />
    <path d="M134.978 140.121H14.8976V141.497H134.978V140.121Z" fill="#7369E7" />
    <path d="M1.1548 52.0488C4.8007 32.59 32.2536 21.7695 48.0514 33.5646C57.9468 40.9528 59.5508 63.1402 59.5508 63.1402L40.9983 70.4526L46.6142 89.4819L30.949 74.4135L12.6542 81.6244C12.6542 81.6244 -1.12889 64.2373 1.1548 52.0488Z" fill="white" />
    <path d="M20.4265 52.6692L17.8561 44.9886L20.6497 44.0408C21.191 43.8572 21.6694 43.7951 22.0847 43.8547C22.4992 43.9117 22.8457 44.0628 23.1241 44.3081C23.4016 44.5508 23.604 44.8621 23.7312 45.2422C23.8383 45.5622 23.8703 45.852 23.8272 46.1116C23.7833 46.3687 23.6854 46.5968 23.5336 46.7959C23.3834 46.9916 23.2016 47.1591 22.9883 47.2983L23.0134 47.3733C23.2709 47.2998 23.5456 47.2985 23.8375 47.3693C24.131 47.4368 24.4037 47.5823 24.6555 47.8059C24.9073 48.0295 25.0997 48.3401 25.2328 48.7376C25.3642 49.1301 25.3903 49.5138 25.3111 49.8887C25.2336 50.2602 25.0354 50.6017 24.7165 50.9131C24.3968 51.222 23.9415 51.4767 23.3505 51.6772L20.4265 52.6692ZM21.2449 51.2849L22.9061 50.7213C23.4574 50.5343 23.8163 50.2928 23.9827 49.9969C24.1491 49.701 24.1784 49.3918 24.0704 49.0693C23.9893 48.8268 23.854 48.6249 23.6645 48.4637C23.4751 48.3024 23.2473 48.2001 22.9811 48.1568C22.7175 48.1126 22.4317 48.1427 22.1238 48.2472L20.4215 48.8247L21.2449 51.2849ZM20.119 47.9209L21.6611 47.3977C21.9194 47.3101 22.1348 47.1813 22.3075 47.0114C22.4826 46.8406 22.6009 46.6446 22.6623 46.4233C22.7254 46.1987 22.7155 45.9626 22.6327 45.7151C22.5264 45.3975 22.3268 45.1688 22.0338 45.0287C21.7408 44.8887 21.3659 44.8962 20.909 45.0512L19.3371 45.5844L20.119 47.9209Z" fill="black" />
    <path d="M30.121 49.5097C29.5846 49.6917 29.0751 49.7267 28.5925 49.6149C28.1098 49.503 27.6835 49.262 27.3136 48.8919C26.9437 48.5219 26.6591 48.0393 26.46 47.4443C26.26 46.8467 26.1956 46.2867 26.2668 45.7642C26.3381 45.2417 26.5322 44.7889 26.8491 44.4057C27.1661 44.0226 27.5928 43.74 28.1291 43.558C28.6655 43.3761 29.175 43.341 29.6577 43.4529C30.1403 43.5648 30.567 43.807 30.9378 44.1796C31.3086 44.5521 31.594 45.0372 31.7939 45.6347C31.9931 46.2298 32.0566 46.7873 31.9845 47.3073C31.9125 47.8273 31.718 48.2789 31.401 48.662C31.084 49.0452 30.6574 49.3278 30.121 49.5097ZM29.8097 48.5671C30.1573 48.4492 30.4144 48.259 30.581 47.9965C30.7475 47.7339 30.8339 47.4304 30.8403 47.0858C30.8491 46.7404 30.7916 46.3826 30.6678 46.0126C30.5448 45.6451 30.3759 45.3265 30.1613 45.0569C29.9483 44.7839 29.6962 44.5924 29.4049 44.4824C29.1137 44.3724 28.7943 44.3764 28.4466 44.4943C28.0965 44.6131 27.8374 44.8054 27.6692 45.0713C27.5035 45.3363 27.4166 45.6428 27.4086 45.9907C27.4023 46.3353 27.4606 46.6914 27.5836 47.0589C27.7074 47.4289 27.8755 47.7492 28.0876 48.0196C28.3023 48.2893 28.5548 48.4778 28.8452 48.5853C29.138 48.692 29.4595 48.6859 29.8097 48.5671Z" fill="black" />
    <path d="M36.1719 47.4694C35.8094 47.5924 35.459 47.6361 35.1208 47.6005C34.7817 47.5624 34.483 47.4424 34.2247 47.2406C33.9688 47.0378 33.7777 46.7477 33.6513 46.3702C33.5426 46.0451 33.5151 45.7565 33.569 45.5044C33.6229 45.2523 33.7348 45.0291 33.9049 44.835C34.075 44.6409 34.2799 44.4684 34.5198 44.3174C34.7596 44.1664 35.0094 44.0288 35.2692 43.9045C35.5985 43.7482 35.8657 43.6213 36.0709 43.5239C36.2753 43.4239 36.4158 43.3275 36.4926 43.2347C36.5693 43.1418 36.5851 43.0279 36.54 42.8929L36.5312 42.8666C36.4216 42.5391 36.2447 42.3165 36.0007 42.1988C35.7592 42.0803 35.4584 42.0821 35.0984 42.2043C34.7234 42.3315 34.4559 42.5155 34.2959 42.7563C34.1376 42.9938 34.0514 43.2277 34.0372 43.458L32.9102 43.5731C32.9172 43.1809 33.0039 42.8369 33.1704 42.541C33.3384 42.2418 33.5626 41.9903 33.8429 41.7867C34.1223 41.5805 34.4346 41.4189 34.7797 41.3018C35.0082 41.2243 35.2595 41.1696 35.5337 41.1379C35.8095 41.1027 36.083 41.1185 36.3542 41.1852C36.6279 41.2511 36.8811 41.3921 37.1138 41.6082C37.3457 41.8219 37.5319 42.1387 37.6725 42.5588L38.9527 46.3841L37.865 46.7531L37.6014 45.9655L37.5567 45.9807C37.5333 46.1501 37.4729 46.3293 37.3758 46.5181C37.2786 46.707 37.1325 46.886 36.9375 47.0552C36.7425 47.2244 36.4873 47.3625 36.1719 47.4694ZM36.1128 46.4872C36.4207 46.3828 36.6634 46.2322 36.841 46.0356C37.021 45.8381 37.135 45.6212 37.1832 45.3849C37.2329 45.1453 37.2198 44.9118 37.1436 44.6843L36.8951 43.9417C36.8688 43.9952 36.8043 44.0588 36.7018 44.1325C36.6009 44.203 36.4827 44.2751 36.347 44.349C36.2105 44.4203 36.0773 44.4892 35.9475 44.5555C35.8167 44.6194 35.7075 44.6731 35.6198 44.7168C35.413 44.8176 35.2311 44.9308 35.074 45.0565C34.9195 45.1813 34.8093 45.3231 34.7435 45.4818C34.6794 45.6372 34.6808 45.8149 34.7477 46.0149C34.8406 46.2924 35.0127 46.4679 35.264 46.5413C35.5145 46.6123 35.7974 46.5942 36.1128 46.4872Z" fill="black" />
    <path d="M10.9416 61.4462L15.1583 66.9814L15.2439 66.9523L15.2736 59.9766L16.5177 59.5545L16.3429 68.1664L15.0132 68.6175L9.69752 61.8683L10.9416 61.4462Z" fill="black" />
    <path d="M20.5724 66.7315L18.6445 60.9711L19.7583 60.5933L21.6861 66.3537L20.5724 66.7315ZM18.9095 59.8915C18.7158 59.9572 18.5277 59.9486 18.3451 59.8658C18.1642 59.7796 18.0432 59.6453 17.9821 59.4627C17.9202 59.2777 17.9358 59.0971 18.0289 58.9207C18.1236 58.741 18.2678 58.6183 18.4615 58.5526C18.6552 58.4869 18.8425 58.4971 19.0234 58.5833C19.206 58.6661 19.3282 58.8001 19.3901 58.9851C19.4512 59.1676 19.4344 59.3487 19.3397 59.5284C19.2466 59.7047 19.1032 59.8258 18.9095 59.8915Z" fill="black" />
    <path d="M25.3641 65.2479C25.0015 65.3709 24.6512 65.4146 24.313 65.379C23.9739 65.3409 23.6752 65.2209 23.4169 65.019C23.161 64.8163 22.9699 64.5262 22.8435 64.1486C22.7347 63.8236 22.7073 63.535 22.7612 63.2829C22.815 63.0307 22.927 62.8076 23.0971 62.6135C23.2672 62.4194 23.4721 62.2468 23.7119 62.0959C23.9517 61.9449 24.2016 61.8073 24.4614 61.6829C24.7906 61.5267 25.0579 61.3998 25.2631 61.3024C25.4674 61.2024 25.608 61.106 25.6848 61.0131C25.7615 60.9203 25.7773 60.8064 25.7321 60.6713L25.7233 60.6451C25.6137 60.3176 25.4369 60.095 25.1929 59.9773C24.9514 59.8588 24.6506 59.8606 24.2905 59.9827C23.9156 60.11 23.6481 60.294 23.4881 60.5348C23.3298 60.7722 23.2435 61.0061 23.2294 61.2364L22.1024 61.3515C22.1094 60.9594 22.1961 60.6153 22.3625 60.3195C22.5306 60.0202 22.7548 59.7688 23.035 59.5651C23.3144 59.359 23.6267 59.1973 23.9719 59.0802C24.2004 59.0027 24.4517 58.9481 24.7259 58.9163C25.0017 58.8812 25.2752 58.897 25.5464 58.9637C25.82 59.0295 26.0732 59.1705 26.306 59.3867C26.5378 59.6004 26.7241 59.9172 26.8646 60.3372L28.1448 64.1625L27.0572 64.5315L26.7936 63.744L26.7489 63.7591C26.7254 63.9286 26.6651 64.1077 26.5679 64.2966C26.4708 64.4855 26.3247 64.6645 26.1297 64.8337C25.9346 65.0028 25.6795 65.1409 25.3641 65.2479ZM25.305 64.2657C25.6129 64.1612 25.8556 64.0107 26.0331 63.814C26.2132 63.6166 26.3272 63.3997 26.3753 63.1634C26.4251 62.9238 26.4119 62.6902 26.3358 62.4627L26.0873 61.7202C26.0609 61.7736 25.9965 61.8373 25.894 61.911C25.7931 61.9814 25.6749 62.0536 25.5392 62.1274C25.4027 62.1988 25.2695 62.2676 25.1396 62.334C25.0089 62.3978 24.8997 62.4516 24.812 62.4952C24.6052 62.596 24.4232 62.7093 24.2662 62.8349C24.1116 62.9597 24.0015 63.1015 23.9357 63.2603C23.8716 63.4157 23.873 63.5934 23.9399 63.7934C24.0328 64.0709 24.2049 64.2464 24.4562 64.3198C24.7067 64.3907 24.9896 64.3727 25.305 64.2657Z" fill="black" />
    <path d="M33.2622 64.9655C32.8077 65.1197 32.3965 65.1924 32.0286 65.1836C31.6631 65.1739 31.3443 65.1053 31.0721 64.9777C30.7999 64.8501 30.5735 64.6861 30.3931 64.4856L31.2173 63.7633C31.3212 63.8506 31.4495 63.9365 31.6022 64.0211C31.7583 64.1074 31.9478 64.1614 32.1708 64.1832C32.3962 64.2041 32.6629 64.1624 32.9709 64.0579C33.393 63.9147 33.7072 63.6926 33.9134 63.3915C34.1204 63.093 34.1486 62.7187 33.998 62.2687L33.6189 61.1361L33.5482 61.1601C33.5221 61.3054 33.4709 61.4745 33.3944 61.6675C33.3205 61.8596 33.1926 62.0477 33.0109 62.2319C32.8292 62.416 32.5633 62.5675 32.2132 62.6863C31.7612 62.8396 31.3184 62.8715 30.8847 62.782C30.4527 62.6891 30.0613 62.4697 29.7105 62.1238C29.3613 61.7745 29.0843 61.2936 28.8793 60.6811C28.6743 60.0685 28.6016 59.5085 28.6613 59.0011C28.7234 58.4928 28.8969 58.0609 29.1816 57.7054C29.4655 57.3473 29.8372 57.0904 30.2966 56.9346C30.6517 56.8141 30.9586 56.7768 31.2172 56.8227C31.4751 56.866 31.6912 56.9458 31.8656 57.0621C32.0425 57.1775 32.1845 57.2838 32.2917 57.3811L32.3737 57.3532L32.0612 56.4194L33.1525 56.0492L35.123 61.9371C35.2887 62.4322 35.3105 62.8772 35.1883 63.2722C35.0661 63.6673 34.8356 64.0072 34.4967 64.2919C34.1604 64.5759 33.7489 64.8004 33.2622 64.9655ZM32.1478 61.6728C32.4681 61.5641 32.7137 61.3973 32.8845 61.1723C33.0569 60.944 33.153 60.6692 33.1727 60.3479C33.194 60.0233 33.1381 59.6622 33.0051 59.2647C32.8754 58.8771 32.7041 58.5552 32.4911 58.299C32.2781 58.0427 32.0335 57.8696 31.7573 57.7795C31.4802 57.687 31.1791 57.6959 30.8537 57.8063C30.5185 57.92 30.2684 58.1023 30.1035 58.3531C29.9378 58.6014 29.8476 58.8937 29.8329 59.23C29.8207 59.5654 29.8761 59.9169 29.9991 60.2845C30.1255 60.662 30.2935 60.9739 30.5031 61.2202C30.7127 61.4664 30.956 61.6317 31.2331 61.7158C31.5126 61.7992 31.8175 61.7849 32.1478 61.6728Z" fill="black" />
    <path d="M39.5508 60.4225C38.9871 60.6137 38.461 60.6571 37.9726 60.5528C37.4859 60.4451 37.0579 60.2074 36.6888 59.8399C36.3214 59.469 36.0376 58.9848 35.8377 58.3872C35.6402 57.7972 35.5754 57.2401 35.6433 56.7159C35.7137 56.1909 35.9041 55.7351 36.2144 55.3487C36.5272 54.9614 36.9493 54.6776 37.4807 54.4973C37.8035 54.3878 38.1344 54.3354 38.4734 54.3401C38.8123 54.3448 39.1407 54.4213 39.4585 54.5696C39.7764 54.7179 40.0663 54.9523 40.3284 55.2726C40.5896 55.5905 40.8077 56.0107 40.9826 56.5332L41.1156 56.9307L36.5676 58.4737L36.2864 57.6336L39.7431 56.4609C39.6443 56.1659 39.4973 55.9249 39.302 55.7378C39.1058 55.5482 38.8775 55.4238 38.6171 55.3646C38.3592 55.3045 38.0862 55.3234 37.7982 55.4211C37.4853 55.5272 37.2381 55.6974 37.0565 55.9316C36.8766 56.1625 36.7648 56.4231 36.721 56.7136C36.6788 57.0008 36.7058 57.2881 36.8021 57.5756L37.0217 58.2319C37.1506 58.6169 37.3272 58.9217 37.5517 59.1463C37.7786 59.3699 38.0376 59.5118 38.3287 59.5717C38.6189 59.6292 38.9267 59.6027 39.252 59.4923C39.463 59.4207 39.6454 59.3254 39.7992 59.2065C39.9521 59.085 40.0714 58.9415 40.157 58.776C40.2426 58.6106 40.2889 58.4265 40.2957 58.2237L41.4138 58.0573C41.434 58.3985 41.3741 58.7237 41.2343 59.0328C41.096 59.3386 40.8848 59.6121 40.6005 59.8534C40.3179 60.0912 39.968 60.2809 39.5508 60.4225Z" fill="black" />
    <path d="M43.6743 58.8941L41.7464 53.1336L42.8155 52.771L43.1292 53.7085L43.2 53.6845C43.2129 53.3266 43.325 53.0129 43.5363 52.7436C43.7467 52.4717 44.0407 52.2718 44.4181 52.1437C44.8005 52.014 45.151 51.9953 45.4695 52.0877C45.7905 52.1793 46.0658 52.3615 46.2953 52.6344L46.3549 52.6142C46.3886 52.2603 46.5239 51.9416 46.7608 51.658C46.9969 51.3719 47.321 51.1589 47.7332 51.0191C48.2522 50.843 48.7304 50.8631 49.1678 51.0794C49.6077 51.2949 49.9381 51.7327 50.159 52.3927L51.4517 56.2555L50.338 56.6334L49.0804 52.8756C48.9499 52.4855 48.7498 52.2388 48.4801 52.1354C48.2105 52.032 47.9292 52.03 47.6361 52.1294C47.2736 52.2524 47.0294 52.4606 46.9036 52.7538C46.7769 53.0446 46.7721 53.365 46.8893 53.715L48.118 57.3865L47.008 57.7631L45.7265 53.934C45.622 53.6215 45.441 53.4031 45.1837 53.2788C44.9264 53.1545 44.6426 53.145 44.3322 53.2503C44.1211 53.3219 43.945 53.4443 43.8039 53.6175C43.6644 53.7873 43.5731 53.9895 43.5299 54.2241C43.4892 54.4578 43.5124 54.7047 43.5994 54.9647L44.788 58.5162L43.6743 58.8941Z" fill="black" />
    <path d="M52.2503 47.432L53.9846 52.9365L52.9528 53.2865L51.0248 47.8477L52.2503 47.432ZM54.2337 55.3911C54.0276 55.461 53.827 55.4483 53.632 55.353C53.4361 55.2552 53.3047 55.1021 53.2377 54.8938C53.1666 54.6896 53.1801 54.4901 53.278 54.2954C53.3752 54.0982 53.5268 53.9646 53.7329 53.8947C53.9341 53.8265 54.1326 53.8413 54.3284 53.9391C54.5235 54.0344 54.6565 54.1841 54.7276 54.3883C54.7712 54.5266 54.7774 54.6651 54.7464 54.8037C54.717 54.939 54.6577 55.0593 54.5686 55.1647C54.4794 55.2701 54.3678 55.3456 54.2337 55.3911Z" fill="black" />
    <path d="M105.823 50.804C120.893 38.2294 148.859 47.3671 153.597 66.4136C156.564 78.3438 143.819 96.3366 143.819 96.3366L124.919 90.1614L105.977 103.214L114.682 86.8165L96.0451 80.7271C96.0451 80.7271 96.3834 58.6805 105.823 50.804Z" fill="white" />
    <path d="M119.192 63.025L121.658 55.3797L124.458 56.2829C125 56.4579 125.421 56.6924 125.719 56.9864C126.018 57.2779 126.207 57.6039 126.285 57.9645C126.365 58.3227 126.344 58.6909 126.222 59.0691C126.119 59.3877 125.974 59.6376 125.786 59.8189C125.599 59.9977 125.386 60.1213 125.147 60.1898C124.911 60.2566 124.667 60.2821 124.413 60.2664L124.389 60.341C124.639 60.4353 124.86 60.5974 125.053 60.827C125.248 61.055 125.381 61.3328 125.452 61.6605C125.522 61.9881 125.493 62.3497 125.365 62.7454C125.239 63.1362 125.034 63.4574 124.75 63.709C124.468 63.959 124.108 64.1135 123.669 64.1723C123.23 64.2287 122.715 64.1613 122.122 63.9702L119.192 63.025ZM120.664 62.4078L122.329 62.9449C122.882 63.1231 123.312 63.1437 123.62 63.0068C123.928 62.8698 124.134 62.6408 124.237 62.3198C124.315 62.0784 124.326 61.8372 124.269 61.5963C124.212 61.3554 124.089 61.1386 123.901 60.9461C123.716 60.7544 123.469 60.6088 123.16 60.5093L121.454 59.9589L120.664 62.4078ZM121.745 59.0593L123.29 59.5578C123.549 59.6413 123.798 59.6666 124.036 59.6337C124.278 59.6016 124.488 59.5156 124.668 59.3757C124.851 59.2342 124.982 59.0402 125.062 58.7939C125.163 58.4778 125.138 58.177 124.986 57.8916C124.833 57.6061 124.528 57.3895 124.07 57.2418L122.495 56.7336L121.745 59.0593Z" fill="black" />
    <path d="M128.832 66.2622C128.294 66.0888 127.865 65.8143 127.543 65.4387C127.222 65.063 127.022 64.618 126.944 64.1036C126.865 63.5891 126.921 63.0358 127.112 62.4434C127.304 61.8487 127.583 61.3642 127.948 60.9902C128.313 60.6162 128.736 60.3706 129.216 60.2535C129.696 60.1364 130.205 60.1645 130.743 60.3379C131.28 60.5113 131.71 60.7858 132.031 61.1614C132.352 61.5371 132.552 61.9833 132.629 62.5003C132.707 63.0172 132.65 63.5731 132.458 64.1678C132.267 64.7602 131.989 65.2421 131.625 65.6136C131.261 65.9852 130.838 66.2295 130.358 66.3466C129.878 66.4637 129.369 66.4356 128.832 66.2622ZM129.138 65.3264C129.486 65.4388 129.804 65.4398 130.093 65.3295C130.381 65.2192 130.629 65.0287 130.838 64.7579C131.048 64.4879 131.213 64.1688 131.332 63.8004C131.45 63.4346 131.502 63.0806 131.489 62.7383C131.479 62.3944 131.39 62.0922 131.221 61.8317C131.052 61.5712 130.794 61.3847 130.445 61.2724C130.094 61.1592 129.773 61.1586 129.481 61.2705C129.192 61.3833 128.942 61.576 128.73 61.8484C128.522 62.1192 128.359 62.4375 128.241 62.8034C128.122 63.1717 128.068 63.5266 128.079 63.868C128.092 64.2102 128.184 64.5104 128.353 64.7684C128.525 65.0272 128.787 65.2132 129.138 65.3264Z" fill="black" />
    <path d="M135.475 64.5187L134.377 67.9232L133.261 67.5632L135.111 61.8292L136.182 62.1749L135.881 63.1081L135.952 63.131C136.182 62.8699 136.467 62.6927 136.808 62.5992C137.151 62.5066 137.538 62.5297 137.968 62.6686C138.359 62.7946 138.675 62.9871 138.915 63.2461C139.157 63.5026 139.307 63.8174 139.365 64.1907C139.423 64.5639 139.376 64.9869 139.223 65.4598L138.047 69.1069L136.931 68.7469L138.064 65.2341C138.198 64.8185 138.194 64.4588 138.053 64.155C137.913 63.8488 137.654 63.6346 137.275 63.5126C137.017 63.4291 136.768 63.4108 136.531 63.4578C136.295 63.5056 136.084 63.6188 135.898 63.7976C135.714 63.9747 135.573 64.2151 135.475 64.5187Z" fill="black" />
    <path d="M110.878 67.94L106.949 73.0032L105.755 72.6179L105.521 66.212L106.72 66.5986L106.748 71.4794L106.808 71.4987L109.68 67.5535L110.878 67.94Z" fill="black" />
    <path d="M112.734 74.9969C112.196 74.8235 111.767 74.5489 111.445 74.1733C111.124 73.7977 110.924 73.3527 110.846 72.8382C110.767 72.3238 110.823 71.7704 111.014 71.1781C111.206 70.5833 111.485 70.0989 111.85 69.7249C112.215 69.3508 112.638 69.1053 113.118 68.9881C113.598 68.871 114.107 68.8991 114.645 69.0726C115.182 69.246 115.612 69.5205 115.933 69.8961C116.254 70.2717 116.454 70.718 116.531 71.2349C116.609 71.7519 116.552 72.3077 116.36 72.9025C116.169 73.4948 115.892 73.9767 115.527 74.3483C115.163 74.7198 114.74 74.9641 114.26 75.0813C113.78 75.1984 113.271 75.1703 112.734 74.9969ZM113.04 74.0611C113.388 74.1735 113.706 74.1745 113.995 74.0642C114.283 73.9539 114.532 73.7634 114.74 73.4926C114.951 73.2226 115.115 72.9034 115.234 72.5351C115.352 72.1693 115.405 71.8152 115.391 71.473C115.381 71.1291 115.292 70.8269 115.123 70.5664C114.954 70.3059 114.696 70.1194 114.347 70.007C113.997 69.8938 113.675 69.8932 113.384 70.0052C113.094 70.118 112.844 70.3106 112.632 70.5831C112.424 70.8539 112.261 71.1722 112.143 71.538C112.024 71.9064 111.97 72.2612 111.981 72.6027C111.994 72.9449 112.086 73.245 112.255 73.5031C112.427 73.7619 112.689 73.9479 113.04 74.0611Z" fill="black" />
    <path d="M116.98 78.6127C116.813 78.5589 116.666 78.4963 116.538 78.4248C116.409 78.3557 116.316 78.2954 116.258 78.2439L116.822 77.416C117.008 77.5366 117.182 77.6188 117.344 77.6627C117.506 77.7066 117.666 77.6923 117.824 77.6196C117.984 77.5478 118.153 77.4002 118.329 77.1768L118.59 76.8406L118.366 70.3553L119.561 70.7406L119.577 75.6588L119.637 75.6781L122.525 71.6967L123.723 72.0833L119.263 77.8202C119.057 78.0835 118.837 78.2912 118.601 78.4432C118.364 78.5976 118.112 78.6894 117.844 78.7185C117.577 78.7475 117.288 78.7123 116.98 78.6127Z" fill="black" />
    <path d="M124.859 78.9204C124.496 78.8032 124.189 78.63 123.938 78.4009C123.689 78.1693 123.52 77.8964 123.432 77.5822C123.346 77.2688 123.364 76.9242 123.485 76.5484C123.589 76.2248 123.737 75.9786 123.929 75.8097C124.121 75.6408 124.343 75.5295 124.593 75.4758C124.844 75.4221 125.111 75.4063 125.392 75.4283C125.673 75.4504 125.955 75.489 126.237 75.5442C126.593 75.6151 126.882 75.6727 127.104 75.7169C127.327 75.7585 127.497 75.7651 127.613 75.7367C127.729 75.7083 127.809 75.6269 127.852 75.4925L127.861 75.4664C127.966 75.1404 127.955 74.8581 127.829 74.6195C127.705 74.3817 127.463 74.2046 127.102 74.0882C126.726 73.967 126.403 73.9548 126.133 74.0517C125.866 74.1469 125.659 74.2821 125.511 74.4572L124.54 73.8799C124.776 73.5716 125.049 73.349 125.357 73.212C125.668 73.0734 125.996 73.0061 126.341 73.0102C126.687 73.0118 127.032 73.0684 127.378 73.18C127.607 73.2538 127.841 73.3595 128.08 73.4969C128.322 73.6327 128.532 73.8076 128.71 74.0217C128.891 74.2366 129.011 74.4992 129.07 74.8096C129.13 75.1175 129.093 75.4805 128.958 75.8986L127.73 79.7063L126.64 79.3546L126.892 78.5707L126.848 78.5562C126.729 78.6773 126.575 78.7842 126.386 78.877C126.196 78.9698 125.973 79.0258 125.717 79.0448C125.461 79.0638 125.175 79.0224 124.859 78.9204ZM125.391 78.1027C125.699 78.2023 125.983 78.2264 126.241 78.1751C126.502 78.1246 126.721 78.0195 126.899 77.8599C127.08 77.6985 127.207 77.5046 127.281 77.2781L127.519 76.539C127.466 76.5659 127.377 76.5784 127.251 76.5763C127.129 76.5725 126.992 76.5598 126.839 76.5381C126.688 76.514 126.54 76.4898 126.397 76.4655C126.254 76.4388 126.135 76.4168 126.039 76.3995C125.814 76.3571 125.601 76.3393 125.401 76.3462C125.203 76.3539 125.031 76.4015 124.885 76.4889C124.742 76.5746 124.638 76.717 124.574 76.9161C124.485 77.1924 124.519 77.4343 124.678 77.642C124.837 77.8472 125.075 78.0008 125.391 78.1027Z" fill="black" />
    <path d="M131.361 83.3836C130.906 83.2367 130.533 83.0505 130.243 82.8251C129.956 82.6005 129.74 82.3565 129.597 82.0933C129.454 81.8301 129.369 81.565 129.343 81.2982L130.43 81.2119C130.462 81.3431 130.514 81.4877 130.587 81.6458C130.661 81.8072 130.781 81.9627 130.947 82.1124C131.116 82.263 131.354 82.388 131.663 82.4875C132.086 82.624 132.469 82.6335 132.812 82.5161C133.154 82.4011 133.397 82.1197 133.542 81.6717L133.905 80.5443L133.834 80.5214C133.728 80.6217 133.587 80.726 133.412 80.8344C133.239 80.9436 133.026 81.0176 132.772 81.0565C132.517 81.0953 132.215 81.0582 131.864 80.945C131.411 80.7989 131.037 80.5614 130.742 80.2327C130.45 79.9022 130.265 79.4951 130.188 79.0113C130.113 78.5257 130.175 77.9781 130.371 77.3684C130.568 76.7586 130.84 76.2693 131.187 75.9005C131.537 75.5324 131.93 75.2912 132.368 75.177C132.807 75.0602 133.257 75.0761 133.717 75.2246C134.073 75.3394 134.341 75.4919 134.522 75.682C134.703 75.8696 134.829 76.0615 134.901 76.2576C134.975 76.4545 135.026 76.6236 135.055 76.7647L135.137 76.7912L135.437 75.8617L136.53 76.2145L134.64 82.0753C134.481 82.5681 134.236 82.9356 133.905 83.1778C133.574 83.42 133.189 83.554 132.749 83.5798C132.312 83.6063 131.849 83.5409 131.361 83.3836ZM132.409 80.0986C132.73 80.2022 133.025 80.215 133.295 80.1372C133.568 80.0576 133.807 79.8957 134.012 79.6514C134.221 79.4054 134.389 79.0846 134.516 78.6889C134.641 78.3031 134.693 77.945 134.673 77.6144C134.654 77.2838 134.559 77.0006 134.391 76.7649C134.223 76.5267 133.976 76.3551 133.65 76.2499C133.314 76.1415 133.006 76.1383 132.726 76.2403C132.447 76.3397 132.202 76.5191 131.992 76.7783C131.784 77.0383 131.622 77.3513 131.504 77.7171C131.382 78.0929 131.333 78.4411 131.356 78.7617C131.379 79.0824 131.477 79.3585 131.65 79.59C131.825 79.8223 132.078 79.9919 132.409 80.0986Z" fill="black" />
    <path d="M139.085 83.4968C138.52 83.3145 138.072 83.0369 137.742 82.6638C137.415 82.2891 137.212 81.8457 137.132 81.3338C137.056 80.8202 137.114 80.266 137.306 79.6712C137.495 79.0838 137.772 78.6015 138.135 78.2242C138.501 77.8477 138.923 77.5976 139.4 77.4739C139.879 77.3509 140.385 77.3754 140.918 77.5472C141.241 77.6516 141.537 77.8062 141.807 78.0112C142.076 78.2161 142.294 78.472 142.462 78.7788C142.629 79.0857 142.724 79.4445 142.745 79.8553C142.767 80.2636 142.694 80.7278 142.526 81.2479L142.399 81.6436L137.841 80.1733L138.11 79.3371L141.575 80.4546C141.669 80.1609 141.694 79.8816 141.647 79.6166C141.602 79.3491 141.492 79.1145 141.318 78.9128C141.146 78.7118 140.916 78.5648 140.628 78.4717C140.314 78.3705 140.015 78.3593 139.732 78.4382C139.451 78.5153 139.208 78.6566 139.001 78.8621C138.798 79.0658 138.65 79.3108 138.558 79.597L138.347 80.2503C138.224 80.6335 138.186 80.9812 138.234 81.2933C138.284 81.6063 138.408 81.873 138.606 82.0935C138.805 82.3116 139.067 82.4732 139.393 82.5783C139.605 82.6466 139.808 82.6789 140.001 82.6754C140.195 82.6694 140.376 82.6259 140.542 82.5449C140.708 82.4639 140.854 82.3446 140.979 82.1871L141.974 82.7183C141.789 83.0021 141.549 83.2256 141.255 83.3889C140.963 83.5505 140.633 83.643 140.262 83.6665C139.895 83.6882 139.503 83.6317 139.085 83.4968Z" fill="black" />
    <path d="M147.168 77.5355L145.313 82.9506L144.279 82.6171L145.939 77.1393L147.168 77.5355ZM144.066 85.0541C143.86 84.9875 143.706 84.8583 143.606 84.6666C143.506 84.4724 143.491 84.2724 143.56 84.0667C143.624 83.8618 143.752 83.7109 143.945 83.6139C144.14 83.5144 144.34 83.498 144.547 83.5647C144.748 83.6297 144.899 83.7593 144.998 83.9535C145.099 84.1452 145.117 84.3435 145.054 84.5484C145.007 84.6844 144.93 84.7985 144.824 84.8905C144.72 84.9808 144.602 85.0415 144.468 85.0725C144.335 85.1036 144.201 85.0975 144.066 85.0541Z" fill="black" />
    <path d="M45.862 4.64629C61.1542 -7.58509 110.305 9.65724 114.583 28.822C117.262 40.8262 104.159 58.5321 104.159 58.5321L82.5032 51.3463L75.6307 48.9114L69.2359 89.4819L65.5164 45.328L58.9032 42.985L35.4386 34.3564C35.4386 34.3564 36.2833 12.3077 45.862 4.64629Z" fill="white" />
    <path d="M45.0808 18.8496L47.5367 11.1989L48.6854 11.5712L47.6181 14.896L51.4136 16.1263L52.4809 12.8016L53.6333 13.1751L51.1774 20.8259L50.025 20.4523L51.0959 17.1163L47.3004 15.8859L46.2295 19.2219L45.0808 18.8496Z" fill="black" />
    <path d="M54.8531 22.1576C54.4912 22.0403 54.1857 21.867 53.9364 21.6377C53.6879 21.406 53.5198 21.1328 53.4319 20.8184C53.3465 20.5048 53.3642 20.1599 53.4849 19.7839C53.5888 19.4601 53.7363 19.2137 53.9274 19.0447C54.1185 18.8756 54.3389 18.7642 54.5887 18.7105C54.8386 18.6568 55.1036 18.6409 55.3838 18.663C55.664 18.6851 55.9444 18.7238 56.2249 18.7789C56.5797 18.85 56.8676 18.9076 57.0888 18.9517C57.3107 18.9934 57.4796 19.0001 57.5954 18.9716C57.7113 18.9432 57.7908 18.8617 57.8339 18.7272L57.8423 18.7011C57.9471 18.3748 57.9365 18.0923 57.8107 17.8536C57.6873 17.6156 57.446 17.4384 57.0866 17.3219C56.7124 17.2006 56.3907 17.1884 56.1215 17.2854C55.8556 17.3807 55.6494 17.5159 55.5029 17.6911L54.535 17.1134C54.7709 16.8049 55.0421 16.5822 55.3488 16.4451C55.6587 16.3064 55.9854 16.239 56.3288 16.2431C56.6731 16.2447 57.0175 16.3014 57.3619 16.413C57.5899 16.4869 57.8228 16.5927 58.0605 16.7302C58.3014 16.8661 58.5106 17.0411 58.6881 17.2554C58.8681 17.4704 58.9875 17.7333 59.0465 18.0438C59.1063 18.3519 59.0691 18.7152 58.9348 19.1336L57.7116 22.944L56.6261 22.5921L56.878 21.8076L56.8334 21.7932C56.7151 21.9143 56.5617 22.0213 56.3732 22.1142C56.1847 22.2071 55.9629 22.263 55.7078 22.2821C55.4527 22.3011 55.1678 22.2596 54.8531 22.1576ZM55.3825 21.3393C55.6898 21.439 55.9721 21.4631 56.2293 21.4118C56.4891 21.3612 56.7075 21.2561 56.8847 21.0963C57.0651 20.9348 57.1917 20.7407 57.2645 20.5141L57.5019 19.7744C57.4495 19.8014 57.3606 19.8139 57.2354 19.8118C57.1135 19.808 56.9767 19.7953 56.825 19.7736C56.674 19.7494 56.5272 19.7252 56.3845 19.7009C56.2426 19.6742 56.1238 19.6522 56.0281 19.6349C55.8037 19.5924 55.5919 19.5746 55.3927 19.5815C55.1959 19.5892 55.0247 19.6368 54.8789 19.7243C54.7365 19.8101 54.6333 19.9526 54.5693 20.1519C54.4806 20.4283 54.515 20.6705 54.6727 20.8783C54.8311 21.0836 55.0677 21.2373 55.3825 21.3393Z" fill="black" />
    <path d="M66.1853 19.3557L62.2728 24.4226L61.0832 24.0369L60.8508 17.6265L62.0441 18.0133L62.0728 22.8977L62.1323 22.917L64.9921 18.9689L66.1853 19.3557Z" fill="black" />
    <path d="M68.0886 26.4357C67.5261 26.2533 67.0803 25.9755 66.7514 25.6022C66.4258 25.2271 66.2235 24.7835 66.1444 24.2712C66.0686 23.7572 66.1263 23.2025 66.3173 22.6073C66.506 22.0196 66.7813 21.5369 67.1433 21.1593C67.5078 20.7825 67.9274 20.5322 68.4022 20.4084C68.8795 20.2854 69.3833 20.3099 69.9137 20.4818C70.2358 20.5863 70.5309 20.741 70.7989 20.9461C71.0669 21.1512 71.2843 21.4073 71.4511 21.7144C71.618 22.0214 71.712 22.3805 71.7333 22.7916C71.7553 23.2002 71.6828 23.6647 71.5158 24.1852L71.3886 24.5812L66.8497 23.1098L67.1183 22.273L70.568 23.3913C70.6624 23.0975 70.6864 22.8179 70.6402 22.5527C70.5948 22.285 70.4855 22.0503 70.3123 21.8484C70.1415 21.6473 69.9124 21.5001 69.6249 21.407C69.3126 21.3057 69.0152 21.2946 68.7327 21.3735C68.4535 21.4507 68.2111 21.5921 68.0055 21.7976C67.8033 22.0015 67.6562 22.2467 67.5642 22.5331L67.3544 23.1868C67.2313 23.5704 67.1935 23.9183 67.2409 24.2307C67.2909 24.5438 67.4145 24.8107 67.6119 25.0314C67.81 25.2496 68.0713 25.4113 68.396 25.5166C68.6066 25.5849 68.8083 25.6172 69.001 25.6137C69.1944 25.6077 69.374 25.5641 69.5395 25.4831C69.7051 25.402 69.8501 25.2827 69.9746 25.1251L70.9655 25.6566C70.7813 25.9406 70.5426 26.1643 70.2493 26.3277C69.9594 26.4894 69.63 26.582 69.2613 26.6055C68.8959 26.6273 68.505 26.5707 68.0886 26.4357Z" fill="black" />
    <path d="M77.1424 29.3829C76.7805 29.2656 76.475 29.0924 76.2257 28.8631C75.9772 28.6313 75.8091 28.3582 75.7212 28.0438C75.6358 27.7301 75.6535 27.3853 75.7742 27.0092C75.8782 26.6854 76.0256 26.439 76.2167 26.27C76.4078 26.101 76.6282 25.9896 76.8781 25.9359C77.1279 25.8821 77.3929 25.8663 77.6731 25.8884C77.9533 25.9105 78.2337 25.9491 78.5142 26.0043C78.869 26.0753 79.157 26.1329 79.3781 26.1771C79.6 26.2188 79.7689 26.2254 79.8847 26.197C80.0006 26.1685 80.0801 26.0871 80.1233 25.9526L80.1317 25.9264C80.2364 25.6002 80.2258 25.3177 80.1 25.0789C79.9766 24.841 79.7353 24.6637 79.3759 24.5472C79.0017 24.4259 78.68 24.4138 78.4108 24.5107C78.1449 24.606 77.9387 24.7413 77.7922 24.9165L76.8243 24.3388C77.0602 24.0303 77.3314 23.8075 77.6381 23.6705C77.948 23.5317 78.2747 23.4644 78.6182 23.4685C78.9624 23.4701 79.3068 23.5267 79.6513 23.6384C79.8793 23.7123 80.1121 23.818 80.3498 23.9556C80.5907 24.0914 80.7999 24.2665 80.9774 24.4807C81.1574 24.6958 81.2769 24.9586 81.3359 25.2692C81.3957 25.5773 81.3584 25.9405 81.2241 26.3589L80.001 30.1693L78.9155 29.8175L79.1673 29.033L79.1227 29.0185C79.0044 29.1397 78.8511 29.2467 78.6626 29.3395C78.474 29.4324 78.2522 29.4884 77.9971 29.5074C77.742 29.5265 77.4571 29.485 77.1424 29.3829ZM77.6718 28.5647C77.9791 28.6643 78.2614 28.6885 78.5187 28.6371C78.7784 28.5866 78.9968 28.4814 79.174 28.3216C79.3544 28.1602 79.481 27.9661 79.5538 27.7395L79.7912 26.9998C79.7388 27.0268 79.6499 27.0392 79.5247 27.0371C79.4028 27.0334 79.266 27.0206 79.1143 26.999C78.9633 26.9748 78.8165 26.9505 78.6738 26.9263C78.5319 26.8995 78.4131 26.8775 78.3174 26.8603C78.093 26.8178 77.8812 26.8 77.682 26.8069C77.4852 26.8146 77.314 26.8622 77.1683 26.9497C77.0258 27.0355 76.9226 27.178 76.8586 27.3772C76.7699 27.6537 76.8044 27.8958 76.962 28.1036C77.1205 28.309 77.3571 28.4627 77.6718 28.5647Z" fill="black" />
    <path d="M87.3991 28.8061L86.3055 32.213L85.194 31.8527L87.0359 26.1147L88.1028 26.4605L87.803 27.3945L87.8737 27.4174C88.1025 27.1561 88.3866 26.9787 88.7258 26.8852C89.0675 26.7925 89.4527 26.8156 89.8814 26.9546C90.2705 27.0807 90.5849 27.2734 90.8246 27.5326C91.065 27.7892 91.2143 28.1043 91.2722 28.4778C91.3302 28.8513 91.2832 29.2746 91.1313 29.7478L89.9598 33.3976L88.8482 33.0373L89.9767 29.522C90.1102 29.1061 90.1067 28.7461 89.9662 28.4422C89.8265 28.1357 89.5684 27.9214 89.1917 27.7993C88.9339 27.7157 88.6867 27.6974 88.45 27.7444C88.2157 27.7922 88.0056 27.9056 87.8196 28.0845C87.6368 28.2617 87.4967 28.5023 87.3991 28.8061Z" fill="black" />
    <path d="M91.9215 34.0335L93.7634 28.2955L94.8749 28.6558L93.033 34.3939L91.9215 34.0335ZM94.609 27.5921C94.4157 27.5294 94.2704 27.4109 94.1732 27.2364C94.0792 27.0602 94.0615 26.8812 94.1198 26.6994C94.179 26.5151 94.2975 26.3803 94.4754 26.295C94.6565 26.208 94.8438 26.1958 95.0371 26.2585C95.2304 26.3211 95.374 26.4405 95.4679 26.6167C95.5651 26.7912 95.5842 26.9706 95.525 27.1549C95.4667 27.3367 95.3469 27.4711 95.1657 27.5581C94.9879 27.6434 94.8023 27.6548 94.609 27.5921Z" fill="black" />
    <path d="M97.3675 35.9268C96.8148 35.7476 96.3793 35.4676 96.0611 35.0867C95.7461 34.7042 95.5536 34.2554 95.4835 33.7405C95.4135 33.2257 95.4708 32.6806 95.6555 32.1053C95.8426 31.5225 96.1167 31.0436 96.4779 30.6685C96.8399 30.2909 97.2595 30.0406 97.7368 29.9176C98.2141 29.7946 98.7216 29.8203 99.2594 29.9946C99.6931 30.1352 100.054 30.3414 100.341 30.6134C100.63 30.8828 100.832 31.1958 100.947 31.5521C101.065 31.9093 101.082 32.2873 100.997 32.6862L99.9157 32.3355C99.9425 32.0473 99.8806 31.7715 99.7298 31.5082C99.5815 31.2456 99.3302 31.0569 98.9758 30.942C98.666 30.8416 98.3682 30.8358 98.0825 30.9247C97.8001 31.0118 97.546 31.1852 97.3204 31.4448C97.0956 31.7019 96.9177 32.0346 96.7866 32.443C96.6523 32.8614 96.5995 33.2431 96.6284 33.5879C96.6573 33.9327 96.7601 34.2259 96.9371 34.4674C97.1165 34.7098 97.3635 34.882 97.6783 34.984C97.8889 35.0523 98.0922 35.0756 98.2879 35.0538C98.487 35.0304 98.6684 34.964 98.832 34.8549C98.9981 34.7465 99.1379 34.5966 99.2513 34.4051L100.333 34.7558C100.174 35.114 99.9478 35.4063 99.6536 35.6326C99.3593 35.8589 99.0168 36.0009 98.6262 36.0585C98.2381 36.1169 97.8185 36.073 97.3675 35.9268Z" fill="black" />
    <path d="M103.834 38.0229C103.271 37.8406 102.826 37.5627 102.497 37.1894C102.171 36.8144 101.969 36.3707 101.89 35.8584C101.814 35.3444 101.871 34.7898 102.063 34.1946C102.251 33.6068 102.527 33.1241 102.889 32.7466C103.253 32.3698 103.673 32.1195 104.147 31.9957C104.625 31.8727 105.128 31.8971 105.659 32.0691C105.981 32.1735 106.276 32.3283 106.544 32.5334C106.812 32.7385 107.029 32.9945 107.196 33.3016C107.363 33.6086 107.457 33.9677 107.478 34.3788C107.501 34.7874 107.428 35.2519 107.261 35.7725L107.134 36.1684L102.595 34.6971L102.863 33.8603L106.313 34.9786C106.408 34.6847 106.432 34.4051 106.385 34.14C106.34 33.8723 106.231 33.6375 106.057 33.4356C105.887 33.2345 105.658 33.0874 105.37 32.9942C105.058 32.893 104.76 32.8818 104.478 32.9607C104.199 33.0379 103.956 33.1793 103.751 33.3849C103.548 33.5888 103.401 33.8339 103.309 34.1203L103.1 34.7741C102.976 35.1576 102.939 35.5055 102.986 35.8179C103.036 36.1311 103.16 36.398 103.357 36.6187C103.555 36.8369 103.817 36.9986 104.141 37.1038C104.352 37.1721 104.553 37.2045 104.746 37.2009C104.94 37.1949 105.119 37.1514 105.285 37.0703C105.45 36.9893 105.595 36.8699 105.72 36.7123L106.711 37.2438C106.526 37.5278 106.288 37.7515 105.994 37.9149C105.705 38.0767 105.375 38.1693 105.007 38.1927C104.641 38.2145 104.25 38.1579 103.834 38.0229Z" fill="black" />
    <path d="M61.935 30.9006L62.254 29.9069L68.1461 31.8169L67.8271 32.8106L65.4517 32.0406L63.3148 38.6976L62.1698 38.3264L64.3067 31.6694L61.935 30.9006Z" fill="black" />
    <path d="M66.7812 39.8213L68.6231 34.0832L69.6974 34.4315L69.4048 35.343L69.4643 35.3623C69.6675 35.0872 69.9289 34.9038 70.2483 34.8122C70.5711 34.7188 70.8997 34.7264 71.2343 34.8348C71.3037 34.8573 71.3847 34.8863 71.4773 34.9218C71.5723 34.9581 71.6459 34.9889 71.698 35.014L71.3551 36.0824C71.3145 36.0555 71.2395 36.0161 71.1303 35.9642C71.0219 35.9098 70.9107 35.8641 70.7967 35.8272C70.534 35.742 70.2818 35.7221 70.0402 35.7675C69.8018 35.8112 69.5915 35.9122 69.4094 36.0704C69.2281 36.2261 69.0975 36.4284 69.0175 36.6775L67.8927 40.1816L66.7812 39.8213Z" fill="black" />
    <path d="M71.2699 41.2763L73.1118 35.5383L74.2233 35.8986L72.3814 41.6366L71.2699 41.2763ZM73.9573 34.8349C73.764 34.7722 73.6188 34.6536 73.5216 34.4792C73.4276 34.303 73.4098 34.124 73.4682 33.9422C73.5273 33.7579 73.6459 33.6231 73.8237 33.5378C74.0049 33.4508 74.1921 33.4386 74.3854 33.5012C74.5787 33.5639 74.7224 33.6833 74.8163 33.8595C74.9135 34.034 74.9325 34.2134 74.8734 34.3977C74.815 34.5795 74.6953 34.7139 74.5141 34.8009C74.3362 34.8862 74.1506 34.8975 73.9573 34.8349Z" fill="black" />
    <path d="M73.6571 44.4258L76.1897 36.536L77.2752 36.8879L76.9766 37.8181L77.0696 37.8482C77.1724 37.7496 77.3097 37.6415 77.4815 37.5239C77.6533 37.4064 77.8658 37.3241 78.119 37.2769C78.3729 37.2273 78.6771 37.2599 79.0315 37.3748C79.4925 37.5242 79.8663 37.7746 80.153 38.126C80.4397 38.4774 80.6151 38.9068 80.6793 39.4143C80.746 39.9226 80.6798 40.4868 80.4807 41.1069C80.2817 41.7271 80.0081 42.2254 79.6601 42.6021C79.313 42.9762 78.9213 43.2246 78.4852 43.3472C78.0499 43.4673 77.6018 43.4526 77.1408 43.3032C76.7939 43.1907 76.5289 43.0402 76.3459 42.8517C76.1654 42.6639 76.0383 42.4715 75.9648 42.2744C75.8912 42.0774 75.8406 41.907 75.8129 41.7632L75.7459 41.7415L74.7686 44.7861L73.6571 44.4258ZM76.358 39.7581C76.2285 40.1616 76.1732 40.5341 76.1921 40.8757C76.2111 41.2173 76.3033 41.5098 76.4687 41.7531C76.6349 41.994 76.8778 42.1662 77.1975 42.2698C77.5296 42.3775 77.8356 42.3791 78.1154 42.2745C78.396 42.1675 78.6425 41.9793 78.8548 41.71C79.0696 41.4414 79.2386 41.1153 79.3617 40.7318C79.4832 40.3533 79.5353 39.9948 79.518 39.6565C79.5033 39.319 79.4111 39.0266 79.2415 38.7791C79.0744 38.5325 78.8236 38.3549 78.489 38.2465C78.1669 38.1421 77.8675 38.1371 77.5909 38.2317C77.3167 38.327 77.0747 38.5057 76.8648 38.7676C76.6548 39.0295 76.4859 39.3597 76.358 39.7581Z" fill="black" />
    <path d="M85.1372 37.3247L83.2909 42.7438L82.2612 42.41L83.9141 36.9283L85.1372 37.3247ZM82.0488 44.8488C81.8431 44.7821 81.6904 44.6529 81.5905 44.461C81.4915 44.2667 81.4763 44.0666 81.5452 43.8607C81.6083 43.6556 81.7361 43.5046 81.9287 43.4076C82.1221 43.308 82.3216 43.2916 82.5273 43.3583C82.728 43.4233 82.8779 43.553 82.977 43.7474C83.0768 43.9392 83.0952 44.1377 83.0322 44.3427C82.9857 44.4789 82.9094 44.593 82.8032 44.685C82.7003 44.7754 82.5823 44.8362 82.4492 44.8672C82.3161 44.8983 82.1827 44.8922 82.0488 44.8488Z" fill="black" />
  </g>
  <defs>
    <filter id="filter0_d_49_3017" x="0.899414" y="0.54834" width="160.072" height="210.094" filterUnits="userSpaceOnUse" color-interpolation-filters="sRGB">
      <feFlood flood-opacity="0" result="BackgroundImageFix" />
      <feColorMatrix in="SourceAlpha" type="matrix" values="0 0 0 0 0 0 0 0 0 0 0 0 0 0 0 0 0 0 127 0" result="hardAlpha" />
      <feOffset dx="3.84787" dy="5.38702" />
      <feGaussianBlur stdDeviation="1.53915" />
      <feComposite in2="hardAlpha" operator="out" />
      <feColorMatrix type="matrix" values="0 0 0 0 0 0 0 0 0 0 0 0 0 0 0 0 0 0 0.25 0" />
      <feBlend mode="normal" in2="BackgroundImageFix" result="effect1_dropShadow_49_3017" />
      <feBlend mode="normal" in="SourceGraphic" in2="effect1_dropShadow_49_3017" result="shape" />
    </filter>
  </defs>
</svg>