<svg width="154" height="171" fill="none" xmlns="http://www.w3.org/2000/svg">
  <path d="M49 66h46l59 105H1L49 66Z" fill="#515151" />
  <path d="m106 30-2 13-6 4 1-16 7-1Zm21 3 3 15 7-3-6-14-4 2Z" fill="#5C5E5F" />
  <path d="m138 12-1-4-4-3-1-1h-5l-8 12 2 2 1-1 2 1 2 2 1 2 2 2 9-12Z" fill="#2A2B2A" />
  <path d="M123 15h2l3-2 1 2v4l-5 9-11 6 10-19Z" fill="#735A4C" />
  <path d="m126 15 2 1 4-1 3-5-3-3-3-1-3 5v4Z" fill="#AA8B7E" />
  <path d="m134 12 1 1-1 2-2-1 2-2Zm-6-4-1-1-2 2 2 1 1-2Z" fill="#AA8B7E" />
  <path d="m130 19 3 1-13 23-3-1 11-18-13 18-10-8 12-15 2-5 4 1v2l4 3 3-1Z" fill="url(#a)" />
  <path d="M125 120v6h-9v-7l9 1Zm-16 8-1 9v2h8l1-10-8-1Z" fill="#C1BEBA" />
  <path d="m109 23 2-7h7l2 3 2 1-5 12-8-9Z" fill="#553F37" />
  <path d="M113 19h4l3-6-2-12h-8l-4 2 1 11 6 5Z" fill="#72594B" />
  <path d="M119 6h3v4h-2l-1-4Zm-12 2-3 1 1 4h2V8Z" fill="#72594B" />
  <path d="m133 62-8 58h-8l-1-54 2 25-1 38-8-1-4-37-5-29 20-2 13 2Z" fill="#fff" />
  <path d="m116 66 4 26-3 28 9-9 5-30-15-15Z" fill="#0A1723" fill-opacity=".3" />
  <path d="m93 53 11 3v-4l-6-2 2 1v-2l-4-1-3 5Z" fill="#72594B" />
  <path d="m122 20 10 3 9 19-3 14-6-2 3-10-7-14 6 32h-34l2-31-13 9 7 8-3 5-14-14 21-14 9-4 7 8 6-9Z" fill="url(#b)" />
  <path d="m122 20 10 3 9 19-3 14-6-2 3-10-7-14 6 32h-34l2-31-13 9 7 8-3 5-14-14 21-14 9-4 7 8 6-9Z" fill="#000" fill-opacity=".2" />
  <path d="m112 26 3 2h5v-2l-5-1 1 1 1-2h-3l-2 2Z" fill="#AA8B7E" />
  <path d="m110 17-8 4 1 3 9 2 2-2-5-2 2-5h-1Z" fill="url(#c)" />
  <path d="m127 33-3 2-4 1v-2l4-1h-1l-1-2h3l2 2Z" fill="#AA8B7E" />
  <path d="m133 20 4 9-1 2-9 2-2-2 8-3-1-5 1-3Z" fill="url(#d)" />
  <path d="m129 43 3 11 6-2-5-11-4 2Zm-25-1-2 11-6-2 3-10 5 1Z" fill="#694" />
  <path d="m101 49-1 2h-4v-3l5 1Zm37 7-1 5-3 5-4-2 2-6-1 2-2-1 3-5 6 2Z" fill="#72594B" />
  <path d="m23 66-1 5 1 7 2-2v-5 1h2l-2-4-2-2Z" fill="#E1C5B5" />
  <path d="m30 39 4-2 10-1-2-7-12-1v11Z" fill="#543E36" />
  <path d="m42 125 1 6h-5l-1-6h5Zm-9 8-1 8 1 1h4l1-8-5-1Z" fill="#2A2B2A" />
  <path d="m31 37 2-2 2-5 4 1 1 3 3 2-2 6h-8l-2-5Z" fill="#CEAB97" />
  <path d="M35 34h3l4-5-1-11-6-1-5 2v10l5 5Zm-6 10-4 24-3-1 4-27 3 4Z" fill="#E1C5B5" />
  <path d="m36 14 8 2 4 22-4 5v-5l-1-2-1-7-2-9-5-2 1-4Z" fill="#543E36" />
  <path d="m36 18-5 2-1 21-4-1 1-22 9-4v4Z" fill="#543E36" />
  <path d="m37 90 1 44-5-1-4-43" fill="#E1C5B5" />
  <path d="M37 75v18l1 32h4l3-32-8-18Z" fill="#CEAB97" />
  <path d="m48 38-5-2-2 5h-8l-2-4-5 3 3 4v14l-6 44 27 1-6-45 1-16 3-4Z" fill="url(#e)" />
  <path d="m48 38-5-2-2 5h-8l-2-4-5 3 3 4v14l-6 44 27 1-6-45 1-16 3-4Z" fill="#000" fill-opacity=".2" />
  <path d="m45 42 1 25h4l-2-29-3 4ZM50 67v4l-3 6-2-2 2-5-1 2-1-2 2-3h3Z" fill="#E1C5B5" />
  <path d="m68 63-2-2 2-2 3 4h-3Z" fill="#AE2025" />
  <path d="m74 66-3-3h-6l-4 4 1 14h2l1-1 2-1 3 1 2 1h2V66Z" fill="#2A2B2A" />
  <path d="m64 78 1-1 2-4 2 1 1 2 2 1v10l-4 7-4-16Z" fill="#CEAB97" />
  <path d="M67 76h2l2-4-1-6h-4l-2 3v3l3 4ZM71 68h1l1 3h-2v-3Zm-7 1h-2v2h2v-2Z" fill="#E1C5B5" />
  <path d="M64 131v4h4v-5l-4 1Zm7 5 1 6-1 1h-3l-1-6 4-1Z" fill="#2A2B2A" />
  <path d="m78 99 1 3-1 5-1-1v-4 1h-2l2-3 1-1Z" fill="#E1C5B5" />
  <path d="m74 83 3 17h2l-3-20-2 3ZM58 98l-1 3 1 5 2-1-1-4v1h2l-1-3-2-1Z" fill="#E1C5B5" />
  <path d="m63 82-3 17-2-1 2-19 3 3Zm5 24-1 31 4-1 3-30" fill="#E1C5B5" />
  <path d="M68 96v35h-4l-1-23 5-12Z" fill="#CEAB97" />
  <path d="m60 79 4-1 2 3h5l1-4 4 3-2 3-1 10 2 30H60l4-30-2-11-2-3Z" fill="url(#f)" />
  <path d="M73 65h3l-1-4-4 2" fill="#AE2025" />
  <defs>
    <linearGradient id="a" x1="119.4" y1="14.5" x2="119.4" y2="43.1" gradientUnits="userSpaceOnUse">
      <stop stop-color="#D90000" />
      <stop offset="1" stop-color="#730000" />
    </linearGradient>
    <linearGradient id="b" x1="109.9" y1="20.4" x2="109.9" y2="62.4" gradientUnits="userSpaceOnUse">
      <stop stop-color="#0E4686" />
      <stop offset="1" stop-color="#031120" />
    </linearGradient>
    <linearGradient id="c" x1="108" y1="16.6" x2="108" y2="26.2" gradientUnits="userSpaceOnUse">
      <stop stop-color="#D90000" />
      <stop offset="1" stop-color="#730000" />
    </linearGradient>
    <linearGradient id="d" x1="130.9" y1="20.5" x2="130.9" y2="33.4" gradientUnits="userSpaceOnUse">
      <stop stop-color="#D90000" />
      <stop offset="1" stop-color="#730000" />
    </linearGradient>
    <linearGradient id="e" x1="36.6" y1="35.8" x2="36.6" y2="102.5" gradientUnits="userSpaceOnUse">
      <stop stop-color="#0E4686" />
      <stop offset="1" stop-color="#031120" />
    </linearGradient>
    <linearGradient id="f" x1="68.2" y1="77.1" x2="68.2" y2="123" gradientUnits="userSpaceOnUse">
      <stop stop-color="#D90000" />
      <stop offset="1" stop-color="#730000" />
    </linearGradient>
  </defs>
</svg>