<svg width="154" height="171" fill="none" xmlns="http://www.w3.org/2000/svg">
  <path d="M48.922 66.28h45.79l59.257 104.662H.823L48.922 66.279Z" fill="#515151" />
  <path d="m105.625 30.125-1.626 13.008-6.04 4.104 1.162-16.725 6.504-.387ZM126.531 33.294l3.466 15.066 6.662-2.902-5.203-14.597-4.925 2.433Z" fill="#5C5E5F" />
  <path d="m137.932 12.04-.957-4.458-3.921-2.897-.678-.65-5.362-.026-8.102 12.207 2.434 1.423.669-.3 1.998.55 2.397 2.482.855 1.928 1.951 1.33 8.716-11.588Z" fill="#2A2B2A" />
  <path d="m122.805 14.957 1.877.13 2.871-1.855 1.617 2.197-.585 2.13.873 1.812-5.789 8.29-10.759 6.747 9.895-19.45Z" fill="#735A4C" />
  <path d="m126.104 15.016 1.877 1.446 4.013-1.038 3.336-5.06-3.14-3.378-2.918-.835-3.401 4.55.233 4.315Z" fill="#AA8B7E" />
  <path d="m134.02 11.793 1.217.972-1.561 2.224-1.208-1.036 1.552-2.16ZM128.278 7.829l-1.505-.62-1.292 1.875 1.069.892 1.728-2.147Z" fill="#AA8B7E" />
  <path d="m129.56 19.359 3.931 1.126-13.882 22.604-2.258-1.51 11.029-18.014-13.008 18.104-10.082-7.418 11.503-15.354 2.305-4.407 3.754.41.139 2.435 3.819 3.041 2.75-1.017Z" fill="url(#a)" />
  <path d="m124.506 119.576.882 6.384-9.013-.159-.483-6.861 8.614.636ZM108.84 128.154l-1.282 8.417.715 2.033h7.703l1.254-9.274-8.39-1.176Z" fill="#C1BEBA" />
  <path d="m108.97 23.148 2.118-7.535 7.09.43 1.858 3.226 2.082 1.121-5.102 11.444-8.046-8.686Z" fill="#553F37" />
  <path d="m112.938 19.263 3.939-.538 3.512-6.042-2.35-11.584-7.759-.233-4.451 2.514 1.664 11.06 5.445 4.823Z" fill="#72594B" />
  <path d="m118.977 5.89 2.602-.31.827 4.497-2.667.223-.762-4.41ZM106.833 8.173l-2.527 1.07.724 3.768 2.323-.226-.52-4.612Z" fill="#72594B" />
  <path d="m133.491 62.447-8.985 57.128h-7.815l-1.115-53.295 2.593 24.586-.994 38.523-8.298-1.197-3.809-37.099-4.674-28.68 19.912-2.265 13.185 2.3Z" fill="#fff" />
  <path d="m116.078 66.188 3.875 25.92-2.537 27.476 8.223-8.316 4.999-30.62-14.56-14.46Z" fill="#0A1723" fill-opacity=".3" />
  <path d="m93.072 53.267 10.583 3.068.223-4.05-5.89-2.207 1.755.715.716-2.114-4.655-.348-2.732 4.936Z" fill="#72594B" />
  <path d="m122.08 20.365 9.506 2.514 9.115 19.093-3.02 14.17-5.659-2.076 3.327-10.141-7.731-13.949 5.928 32.47-33.152-.033 2.1-31.823L88.9 39.765l6.969 8.556-2.788 4.956-13.937-14.441 21.194-14.202 8.214-3.313 7.777 7.9 5.751-8.856Z" fill="url(#b)" />
  <path d="m122.08 20.365 9.506 2.514 9.115 19.093-3.02 14.17-5.659-2.076 3.327-10.141-7.731-13.949 5.928 32.47-33.152-.033 2.1-31.823L88.9 39.765l6.969 8.556-2.788 4.956-13.937-14.441 21.194-14.202 8.214-3.313 7.777 7.9 5.751-8.856Z" fill="#000" fill-opacity=".2" />
  <path d="m111.674 26.195 2.936 1.508 5.027.385-.065-1.997-4.553-.85 1.366.291.408-1.672-3.066-.08-2.053 2.415Z" fill="#AA8B7E" />
  <path d="m109.927 16.614-7.721 4.857.613 2.16 8.948 2.573 1.997-2.425-4.376-2.074 1.254-4.491-.715-.6Z" fill="url(#c)" />
  <path d="m127.144 33.43-2.768 1.565-4.832.563-.009-1.926 4.348-.995-1.301.335-.455-1.598 3.057-.378 1.96 2.435Z" fill="#AA8B7E" />
  <path d="m133.491 20.485 3.214 8.206-.613 2.16-8.948 2.572-1.997-2.425 7.832-3.021-1.393-5.099 1.905-2.393Z" fill="url(#d)" />
  <path d="m128.51 43.001 3.224 11.166 6.207-2.151-4.85-10.818L128.51 43ZM104.287 41.855l-2.258 10.918-6.272-1.432 3.717-10.763 4.813 1.277Z" fill="#694" />
  <path d="m100.747 48.592-.651 2.323-4.339.427.112-3.01 4.878.26ZM137.7 56.092l-.558 4.44-3.428 5.94-4.089-2.645 2.546-5.757-.725 1.76-2.183-.835 2.769-4.93 5.668 2.027Z" fill="#72594B" />
  <path d="m22.565 66.004-.963 5.129 1.326 6.546 2.39-1.341-.684-5.631.158 1.707 2.223-.552-1.876-4.171-2.574-1.687Z" fill="#E1C5B5" />
  <path d="m29.748 38.52 4.459-1.754 9.686-.377-1.835-7.742-11.79-.217-.52 10.09Z" fill="#543E36" />
  <path d="m42.49 125.196.792 5.756-5.611-.144-.432-6.186 5.25.574ZM33.39 132.93l-1.151 7.589.647 1.835h4.424l1.133-8.363-5.052-1.061Z" fill="#2A2B2A" />
  <path d="m30.62 36.713 2.374-1.582 1.725-4.893 3.988 1.137 1.265 3.109 2.734 1.366-1.727 5.682-8.128.217-2.23-5.036Z" fill="#CEAB97" />
  <path d="M34.636 33.725h3.59l3.867-4.972-.691-10.635-6.897-1.152-4.287 1.705.138 10.082 4.28 4.972ZM29.147 44.14l-3.962 23.934-2.833-1.064 3.533-27.006 3.262 4.136Z" fill="#E1C5B5" />
  <path d="m35.674 13.82 7.974 2.517L48.02 37.9l-4.507 4.8.056-5.179-.288-1.529-1.386-6.996-1.733-8.828-4.74-1.935.25-4.414Z" fill="#543E36" />
  <path d="m35.503 18.234-4.666 1.753-.547 20.624-3.947-.696.773-22.224 8.673-3.949-.286 4.492Z" fill="#543E36" />
  <path d="m37.383 90.38.864 43.593-4.82-1.006-4.245-42.732" fill="#E1C5B5" />
  <path d="m37.239 74.984.145 18.415.683 31.438 4.422.359 2.16-31.994-7.41-18.218Z" fill="#CEAB97" />
  <path d="m48.03 38.007-5.297-2.185-2.113 5.206-7.482.216-2.517-4.64-4.822 3.31 3.239 4.28.402 13.374-6.697 44.746 27.732.216-6.4-44.498 1.22-16.14 2.735-3.885Z" fill="url(#e)" />
  <path d="m48.03 38.007-5.297-2.185-2.113 5.206-7.482.216-2.517-4.64-4.822 3.31 3.239 4.28.402 13.374-6.697 44.746 27.732.216-6.4-44.498 1.22-16.14 2.735-3.885Z" fill="#000" fill-opacity=".2" />
  <path d="m45.332 41.86 1.128 25.335 3.056-.221-1.454-28.918-2.73 3.804Z" fill="#E1C5B5" />
  <path d="m49.525 66.885.274 4.028-2.72 5.709-2.23-1.323 1.978-5.116-.333 1.681-1.878-1.52 1.893-3.09 3.016-.37Z" fill="#E1C5B5" />
  <path d="m68.12 63.206-2.541-2.35 2.715-2.017 2.474 4.362-2.648.005Z" fill="#AE2025" />
  <path d="m74.12 66.101-3.4-2.915-5.892-.027-4.258 4.209 1.043 13.657 2.79-.356.354-.653 1.914-.78 3.419.496 1.848 1.008 2.361-.142-.18-14.497Z" fill="#2A2B2A" />
  <path d="m63.927 77.65 1.565-1.043 1.137-3.222 2.626.749.833 2.047 1.8.9.48 10.1-4.4 7.265-4.041-16.796Z" fill="#CEAB97" />
  <path d="M66.572 75.682h2.366l2.547-3.275-1.085-6.781-3.914-.02-2.824 3.025.09 3.776 2.82 3.275Z" fill="#E1C5B5" />
  <path d="m70.763 68.312 1.665.01.124 2.713-1.589-.082-.2-2.641ZM63.903 68.664l-1.502.01.058 2.758 1.386-.01.058-2.758Z" fill="#E1C5B5" />
  <path d="m64.467 130.814-.554 4.027 3.925-.1.303-4.329-3.674.402ZM70.832 136.225l.806 5.31-.454 1.284H68.09l-.792-5.851 3.535-.743Z" fill="#2A2B2A" />
  <path d="m78.469 98.804.681 3.628-.937 4.633-1.692-.949.484-3.985-.113 1.208-1.572-.391 1.327-2.95 1.822-1.194Z" fill="#E1C5B5" />
  <path d="m73.811 83.334 2.803 16.935 2.005-.753-2.5-19.108-2.308 2.926ZM57.885 97.526l-.682 3.628.938 4.634 1.692-.95-.484-3.985.112 1.209 1.572-.392-1.326-2.95-1.822-1.194Z" fill="#E1C5B5" />
  <path d="m62.542 82.056-2.804 16.935-2.004-.753 2.5-19.108 2.308 2.926ZM68.038 106.456l-.603 30.499 3.372-.705 2.97-29.895" fill="#E1C5B5" />
  <path d="m68.14 95.685-.1 12.884-.48 21.994-3.093.252-1.51-22.384 5.184-12.746Z" fill="#CEAB97" />
  <path d="m60.26 79.08 3.767-1.554 1.502 3.702 5.147-.025 1.103-4.123 4.286 3.356-2.302 3.042-1.215 9.509 2.9 29.824-15.065.153 3.62-29.648-1.798-11.474-1.945-2.761Z" fill="url(#f)" />
  <path d="m72.652 64.884 3.525-.225-.814-3.283-4.682 1.796" fill="#AE2025" />
  <defs>
    <linearGradient id="a" x1="119.391" y1="14.49" x2="119.391" y2="43.089" gradientUnits="userSpaceOnUse">
      <stop stop-color="#D90000" />
      <stop offset="1" stop-color="#730000" />
    </linearGradient>
    <linearGradient id="b" x1="109.922" y1="20.365" x2="109.922" y2="62.446" gradientUnits="userSpaceOnUse">
      <stop stop-color="#0E4686" />
      <stop offset="1" stop-color="#031120" />
    </linearGradient>
    <linearGradient id="c" x1="107.985" y1="16.614" x2="107.985" y2="26.204" gradientUnits="userSpaceOnUse">
      <stop stop-color="#D90000" />
      <stop offset="1" stop-color="#730000" />
    </linearGradient>
    <linearGradient id="d" x1="130.926" y1="20.485" x2="130.926" y2="33.423" gradientUnits="userSpaceOnUse">
      <stop stop-color="#D90000" />
      <stop offset="1" stop-color="#730000" />
    </linearGradient>
    <linearGradient id="e" x1="36.609" y1="35.822" x2="36.609" y2="102.53" gradientUnits="userSpaceOnUse">
      <stop stop-color="#0E4686" />
      <stop offset="1" stop-color="#031120" />
    </linearGradient>
    <linearGradient id="f" x1="68.163" y1="77.08" x2="68.163" y2="122.964" gradientUnits="userSpaceOnUse">
      <stop stop-color="#D90000" />
      <stop offset="1" stop-color="#730000" />
    </linearGradient>
  </defs>
</svg>