<svg width="169" height="133" fill="none" xmlns="http://www.w3.org/2000/svg">
  <g clip-path="url(#a)">
    <rect width="168.5" height="132.4" rx="19.2" fill="url(#b)" />
    <path stroke="#000" stroke-opacity=".8" stroke-width=".8" d="M17 53-8 78m37-12L12 82m44-13-37 37m83-23-28 29m81-59-29 30" />
    <path d="m57 59-4-8c-4-3-8-4-13-5a224 224 0 0 1-27-9c-2-1-4 1-3 3l3 5c2 3 5 6 9 6l-4 2v2l3 1 7 1c-2 0-3 2-3 4s2 3 4 4l4-2v4l4 2 4-2 4 2c2 0 4 0 5-2 0 3 4 4 6 3l5 7 1-5a89 89 0 0 0-5-13Zm55-2c1-3 3-6 5-7 4-3 9-4 13-4a224 224 0 0 0 28-7c2 0 4 2 3 3l-4 6c-2 2-6 5-9 5l3 1v2c0 2-1 2-3 2h-6l2 4c-1 2-2 3-4 3l-4-1-1 3c-1 2-2 2-4 1l-4-2c-1 2-2 3-4 2l-4-2c-1 2-5 3-7 2l-5 6-1-5a89 89 0 0 1 6-12Z" fill="#fff" opacity=".8" />
    <path d="M108 73a26 26 0 1 0-51-8 26 26 0 0 0 51 8Z" fill="#407BFF" />
    <path opacity=".3" d="M108 73a26 26 0 1 0-51-8 26 26 0 0 0 51 8Z" fill="#000" />
    <path d="M110 68a26 26 0 1 0-52-9 26 26 0 0 0 52 9Z" fill="#407BFF" />
    <path d="M101 80a24 24 0 1 0-34-34 24 24 0 0 0 34 34Z" fill="#407BFF" />
    <path opacity=".7" d="M101 80a24 24 0 1 0-34-34 24 24 0 0 0 34 34Z" fill="#fff" />
    <path opacity=".4" d="M93 41 61 71l4 7 34-33-6-4Zm9 7L67 80l3 3 35-31-3-4Z" fill="#fff" />
    <path d="M83 42v3-3h-1 1Zm3 2v1h-2v-1l1-1v-1l-1 1v-1a2 2 0 0 1 1 0h1a1 1 0 0 1 0 1h-1v1h1Zm-2 39h1a1 1 0 0 1 0 1 1 1 0 0 1-1 0h-1l-1-1 1-1 1-1v1h1-2v1h1Zm0 1v-1a1 1 0 0 0-1 0v1h1Zm10-39v3-2h-1v-1h1Zm0 35a1 1 0 0 1 1 1 1 1 0 0 1-1 0h-1a1 1 0 0 1-1 0h2v-1h-1v-1h2-2v1h1ZM74 45v3h-1v-3h1Zm1 0v3-2h-1v-1h1Zm-1 34v2h-1v-2h1Zm1 0v2-2h-1 1Zm26-25h-2l1-1a1 1 0 0 0 1 0 1 1 0 0 0 0-1h-2 1a2 2 0 0 1 0-1l1 1v1l-1 1h1Zm1 20h-3v-1l2-2-1 2h2v1ZM67 52v2-2h-1 1Zm1 2a2 2 0 0 1 0-1v-1l1-1 1 1v2a1 1 0 0 1-1 0h-1Zm2 0v-2a1 1 0 0 0-1 0l-1 1 1 1a1 1 0 0 0 1 0Zm-1 19a1 1 0 0 1 0 1 1 1 0 0 1-1 0h-1c-1 0 0 0 0 0a1 1 0 0 1-1 0 1 1 0 0 1 0-1 1 1 0 0 1 1 0 1 1 0 0 1 0-1 1 1 0 0 1-1 0h1a1 1 0 0 1 0-1h1a1 1 0 0 1 0 1h1a1 1 0 0 1-1 1h1Zm-1 1v-1h-1v1h1Zm-1-2h1a1 1 0 0 0-1 0Zm37-9a1 1 0 0 1 0 1 1 1 0 0 1-1 0h-1 1l1-1h-1v-1h-1v-1h2v1l-1 1h1Zm-39-1 1 1v1a1 1 0 0 1-1 0 1 1 0 0 1-1 0h1v-1a1 1 0 0 1-1 0 1 1 0 0 1-1-1h1v-1l1 1Zm0 1v-1h-1v1a1 1 0 0 0 1 0Zm19 0V48h1l1 15h-2Z" fill="#263238" />
    <path d="m84 64-8-7h1l8 6-1 1Z" fill="#263238" />
    <path d="m80 67 17-10-17 10ZM87 63a2 2 0 1 1-5 0 2 2 0 0 1 5 0Z" fill="#407BFF" />
    <path opacity=".3" d="M87 63a2 2 0 1 1-5 0 2 2 0 0 1 5 0Z" fill="#000" />
    <path d="M66 86s-4 8-3 8c2 0 7-5 7-5s-1-3-4-3Zm36-1s4 8 3 8c-2 1-7-5-7-5s1-3 4-3ZM56 50l18-17s-7-6-15 2-3 15-3 15Z" fill="#407BFF" />
    <path d="M74 33c1 1-3 5-8 10l-10 6c-1 0 2-5 7-9 5-5 10-7 11-7Z" fill="#407BFF" />
    <path opacity=".3" d="M74 33c1 1-3 5-8 10l-10 6c-1 0 2-5 7-9 5-5 10-7 11-7Z" fill="#000" />
    <path d="m62 36-2 2 6 7 3-2-7-7Z" fill="#407BFF" />
    <path d="M60 38a3 3 0 1 0 0-5 3 3 0 0 0 0 5Z" fill="#407BFF" />
    <path opacity=".4" d="m59 36-1 1c-1 0-4 5-1 10l4-4c-2-2-4-4-2-7Z" fill="#fff" />
    <path opacity=".2" d="m62 41 3-2-2 3-1-1Z" fill="#000" />
    <path opacity=".3" d="m58 37 3-4-4 4h1Z" fill="#000" />
    <path d="m93 33 19 16s5-8-4-15-15-1-15-1Z" fill="#407BFF" />
    <path d="m112 49-10-7c-6-4-9-8-9-9 1-1 6 2 11 6s9 9 8 10Z" fill="#407BFF" />
    <path opacity=".3" d="m112 49-10-7c-6-4-9-8-9-9 1-1 6 2 11 6s9 9 8 10Z" fill="#000" />
    <path d="m108 37-3-2-6 7 3 3 6-8Z" fill="#407BFF" />
    <path d="M108 37a3 3 0 1 1-1-5 3 3 0 0 1 1 5Z" fill="#407BFF" />
    <path opacity=".4" d="m108 34-2-1s-6-3-10 1c2 0 3 2 5 3 1-2 3-4 7-3Z" fill="#fff" />
    <path opacity=".2" d="m103 38 3 2-1 1-3-2 1-1Z" fill="#000" />
    <path opacity=".3" d="m106 33 4 3-4-3ZM66 45l2-3-3 2 1 1Zm34-3 2 2-2-2Zm-74 8s16 2 19 4l10 12-11-11-18-5Z" fill="#000" />
    <path opacity=".3" d="M33 54s-2 5 2 5l5-2s-1 4 2 4l4-2-6 3c-2-1-1-4-1-4s-4 2-6 1c-2-2-1-2 0-5Zm109-5s-16 2-19 5l-10 11 11-11 18-5Z" fill="#000" />
    <path opacity=".3" d="M135 53s2 5-2 5c-3 0-5-2-5-2s1 4-1 4c-3 0-5-2-5-2s4 4 6 3 1-4 1-4 4 3 6 1c2-1 1-2 0-5Z" fill="#000" />
    <path d="M75 37a27 27 0 0 1 15 0m1 0h1" stroke="#407BFF" stroke-width=".6" stroke-miterlimit="10" stroke-linecap="round" stroke-linejoin="round" />
  </g>
  <defs>
    <linearGradient id="b" x1="84.3" y1="0" x2="84.3" y2="132.4" gradientUnits="userSpaceOnUse">
      <stop stop-color="#9EEDF8" />
      <stop offset="1" stop-color="#DFF4FB" />
    </linearGradient>
    <clipPath id="a">
      <rect width="168.5" height="132.4" rx="19.2" fill="#fff" />
    </clipPath>
  </defs>
</svg>