<svg width="174" height="81" fill="none" xmlns="http://www.w3.org/2000/svg">
  <g style="mix-blend-mode:luminosity" opacity=".5">
    <path d="M100.62 23.177H10.677L4.798 34.794H106.5l-5.879-11.617Z" fill="#FCA3A2" />
    <path d="M11.35 24.264H2.027a.863.863 0 0 1-.831-.686l-.881-3.839c-.13-.563.278-1.105.83-1.105h8.239c.395 0 .738.284.83.686l1.136 4.944ZM99.947 24.264h9.323a.863.863 0 0 0 .831-.686l.881-3.839c.129-.563-.278-1.105-.831-1.105h-8.238a.863.863 0 0 0-.831.686l-1.135 4.944Z" fill="#FB8483" />
    <path d="M17.15 71.824H7.793a.975.975 0 0 1-.976-.976V57.471h11.308v13.377a.975.975 0 0 1-.975.976ZM94.147 71.824h9.357a.976.976 0 0 0 .976-.976V57.471H93.172v13.377c0 .54.437.976.975.976Z" fill="#3A4D57" />
    <path d="M106.499 57.47H4.799V34.795c33.9-3.122 67.8-3.122 101.699 0V57.47h.001Z" fill="#FB8483" />
    <path d="M73.813 53.004H37.484L30.336 37.64H80.96l-7.147 15.363ZM107.644 62.11H3.654A2.153 2.153 0 0 1 1.5 59.958v-.335c0-1.189.964-2.152 2.153-2.152h103.991c1.189 0 2.152.963 2.152 2.152v.335a2.152 2.152 0 0 1-2.152 2.152Z" fill="#E9E5D9" />
    <path d="M93.02.492H18.277c-2.11 0-3.919 1.58-4.298 3.756l-3.302 18.929h89.943l-3.302-18.93C96.938 2.073 95.13.493 93.02.493Z" fill="#FCA3A2" />
    <path d="m13.153 21.014 2.856-16.378c.2-1.148 1.154-1.981 2.268-1.981H93.02c1.114 0 2.067.833 2.268 1.981l2.856 16.378H13.153ZM33.106 53.004H9.41c-.604 0-1.094-.514-1.094-1.147v-13.07c0-.633.49-1.146 1.094-1.146h14.761c1.06 0 2.028.632 2.496 1.629l6.439 13.733Z" fill="#3A4D57" />
    <path d="M15.021 49.787c2.354 0 4.261-1.999 4.261-4.465 0-2.466-1.907-4.465-4.26-4.465-2.354 0-4.262 2-4.262 4.465 0 2.466 1.908 4.465 4.261 4.465ZM24.456 47.817c1.316 0 2.381-1.117 2.381-2.495 0-1.378-1.066-2.495-2.38-2.495-1.315 0-2.381 1.117-2.381 2.495 0 1.378 1.066 2.495 2.38 2.495Z" fill="#E9E5D9" />
    <path d="M78.192 53.004h23.695c.604 0 1.094-.514 1.094-1.147v-13.07c0-.633-.49-1.146-1.094-1.146H87.126c-1.06 0-2.028.632-2.496 1.629l-6.438 13.733Z" fill="#3A4D57" />
    <path d="M96.276 49.787c2.353 0 4.261-1.999 4.261-4.465 0-2.466-1.908-4.465-4.261-4.465-2.354 0-4.261 2-4.261 4.465 0 2.466 1.907 4.465 4.26 4.465ZM86.84 47.817c1.316 0 2.382-1.117 2.382-2.495 0-1.378-1.066-2.495-2.381-2.495-1.315 0-2.381 1.117-2.381 2.495 0 1.378 1.066 2.495 2.38 2.495Z" fill="#E9E5D9" />
    <path d="M43.38 39.032h-1.037v12.581h1.037v-12.58ZM46.222 39.032h-1.037v12.581h1.037v-12.58ZM49.064 39.032h-1.038v12.581h1.038v-12.58ZM51.905 39.032h-1.038v12.581h1.038v-12.58ZM54.747 39.032h-1.038v12.581h1.038v-12.58ZM57.588 39.032H56.55v12.581h1.038v-12.58ZM60.43 39.032h-1.038v12.581h1.037v-12.58ZM63.27 39.032h-1.037v12.581h1.038v-12.58ZM66.112 39.032h-1.037v12.581h1.037v-12.58ZM68.954 39.032h-1.038v12.581h1.038v-12.58Z" fill="#3A4D57" />
    <path d="M100.62 22.918H10.677v.518h89.943v-.518Z" fill="#FB8483" />
    <path d="M67.672 2.655h-4.347L51.122 21.014h4.373l12.177-18.36ZM81.468 2.655H79.32L67.271 21.014h2.182l12.015-18.36ZM30.435 21.014h2.924l12.184-18.36h-2.95l-12.158 18.36Z" fill="#617179" />
  </g>
  <path d="M172.504 8.71a8.217 8.217 0 1 1-16.435 0 8.218 8.218 0 1 1 16.435 0Z" fill="#0E4686" />
  <path d="M172.504 8.71a8.217 8.217 0 1 1-16.435 0 8.218 8.218 0 1 1 16.435 0Z" fill="#000" fill-opacity=".2" />
  <path d="M158.213 20.61c0-.85.689-1.538 1.539-1.538h10.608v32.76c0 .85-.689 1.54-1.539 1.54h-9.069c-.85 0-1.539-.69-1.539-1.54V20.611Z" fill="#0E4686" />
  <path d="M158.213 20.61c0-.85.689-1.538 1.539-1.538h10.608v32.76c0 .85-.689 1.54-1.539 1.54h-9.069c-.85 0-1.539-.69-1.539-1.54V20.611Z" fill="#000" fill-opacity=".2" />
  <path d="M158.927 53.374c0-.85.689-1.539 1.539-1.539h2.639c.85 0 1.539.69 1.539 1.54V77.45c0 .85-.689 1.54-1.539 1.54h-2.639c-.85 0-1.539-.69-1.539-1.54V53.374Z" fill="#0E4686" />
  <path d="M158.927 53.374c0-.85.689-1.539 1.539-1.539h2.639c.85 0 1.539.69 1.539 1.54V77.45c0 .85-.689 1.54-1.539 1.54h-2.639c-.85 0-1.539-.69-1.539-1.54V53.374Z" fill="#000" fill-opacity=".2" />
  <path d="M163.929 53.374c0-.85.689-1.539 1.539-1.539h2.639c.85 0 1.539.69 1.539 1.54v25.504c0 .85-.689 1.54-1.539 1.54h-2.639a1.54 1.54 0 0 1-1.539-1.54V53.374Z" fill="#0E4686" />
  <path d="M163.929 53.374c0-.85.689-1.539 1.539-1.539h2.639c.85 0 1.539.69 1.539 1.54v25.504c0 .85-.689 1.54-1.539 1.54h-2.639a1.54 1.54 0 0 1-1.539-1.54V53.374Z" fill="#000" fill-opacity=".2" />
  <path d="M145.666 9.902a1.54 1.54 0 0 1 .113-2.173l1.337-1.205a1.54 1.54 0 0 1 2.174.114l13.548 15.043a1.539 1.539 0 0 1-.114 2.174l-1.337 1.204a1.54 1.54 0 0 1-2.174-.114L145.666 9.902Z" fill="#0E4686" />
  <path d="M145.666 9.902a1.54 1.54 0 0 1 .113-2.173l1.337-1.205a1.54 1.54 0 0 1 2.174.114l13.548 15.043a1.539 1.539 0 0 1-.114 2.174l-1.337 1.204a1.54 1.54 0 0 1-2.174-.114L145.666 9.902Z" fill="#000" fill-opacity=".2" />
  <path d="m170.36 19.072 2.156 1.69c.365.287.582.723.589 1.188l.317 21.046a1.54 1.54 0 0 1-1.516 1.562l-1.662.025a1.54 1.54 0 0 1-1.559-1.646l1.675-23.865Z" fill="#0E4686" />
  <path d="m170.36 19.072 2.156 1.69c.365.287.582.723.589 1.188l.317 21.046a1.54 1.54 0 0 1-1.516 1.562l-1.662.025a1.54 1.54 0 0 1-1.559-1.646l1.675-23.865Z" fill="#000" fill-opacity=".2" />
  <path d="M54.11 8.71a8.218 8.218 0 1 0 16.436 0 8.218 8.218 0 0 0-16.435 0Z" fill="#0E4686" />
  <path d="M54.11 8.71a8.218 8.218 0 1 0 16.436 0 8.218 8.218 0 0 0-16.435 0Z" fill="#000" fill-opacity=".2" />
  <path d="M68.402 20.61c0-.85-.689-1.538-1.539-1.538H56.254v32.76c0 .85.69 1.54 1.54 1.54h9.069c.85 0 1.54-.69 1.54-1.54V20.611Z" fill="#0E4686" />
  <path d="M68.402 20.61c0-.85-.689-1.538-1.539-1.538H56.254v32.76c0 .85.69 1.54 1.54 1.54h9.069c.85 0 1.54-.69 1.54-1.54V20.611Z" fill="#000" fill-opacity=".2" />
  <path d="M67.688 53.374c0-.85-.69-1.539-1.54-1.539H63.51c-.85 0-1.54.69-1.54 1.54V77.45c0 .85.69 1.54 1.54 1.54h2.638c.85 0 1.54-.69 1.54-1.54V53.374Z" fill="#0E4686" />
  <path d="M67.688 53.374c0-.85-.69-1.539-1.54-1.539H63.51c-.85 0-1.54.69-1.54 1.54V77.45c0 .85.69 1.54 1.54 1.54h2.638c.85 0 1.54-.69 1.54-1.54V53.374Z" fill="#000" fill-opacity=".2" />
  <path d="M62.685 53.374c0-.85-.689-1.539-1.539-1.539h-2.638c-.85 0-1.54.69-1.54 1.54v25.504c0 .85.69 1.54 1.54 1.54h2.638c.85 0 1.54-.69 1.54-1.54V53.374Z" fill="#0E4686" />
  <path d="M62.685 53.374c0-.85-.689-1.539-1.539-1.539h-2.638c-.85 0-1.54.69-1.54 1.54v25.504c0 .85.69 1.54 1.54 1.54h2.638c.85 0 1.54-.69 1.54-1.54V53.374Z" fill="#000" fill-opacity=".2" />
  <path d="M80.95 9.902a1.54 1.54 0 0 0-.115-2.173l-1.337-1.205a1.54 1.54 0 0 0-2.174.114L63.778 21.681a1.54 1.54 0 0 0 .114 2.174l1.337 1.204a1.539 1.539 0 0 0 2.174-.114L80.948 9.902Z" fill="#0E4686" />
  <path d="M80.95 9.902a1.54 1.54 0 0 0-.115-2.173l-1.337-1.205a1.54 1.54 0 0 0-2.174.114L63.778 21.681a1.54 1.54 0 0 0 .114 2.174l1.337 1.204a1.539 1.539 0 0 0 2.174-.114L80.948 9.902Z" fill="#000" fill-opacity=".2" />
  <path d="m56.254 19.072-2.155 1.69a1.539 1.539 0 0 0-.59 1.188l-.316 21.046a1.54 1.54 0 0 0 1.516 1.562l1.662.025a1.54 1.54 0 0 0 1.558-1.646l-1.675-23.865Z" fill="#0E4686" />
  <path d="m56.254 19.072-2.155 1.69a1.539 1.539 0 0 0-.59 1.188l-.316 21.046a1.54 1.54 0 0 0 1.516 1.562l1.662.025a1.54 1.54 0 0 0 1.558-1.646l-1.675-23.865Z" fill="#000" fill-opacity=".2" />
  <path fill-rule="evenodd" clip-rule="evenodd" d="M48.525 45.511h-6.789v18.58H68.89V45.51H58.708v-3.573h-6.789v3.573h-3.394Zm8.932-3.573H53.17v2.859h4.287v-2.859Z" fill="#D90000" />
</svg>