<svg width="174" height="81" fill="none" xmlns="http://www.w3.org/2000/svg">
  <g style="mix-blend-mode:luminosity" opacity=".5">
    <path d="M101 23H11L5 35h102l-6-12Z" fill="#FCA3A2" />
    <path d="M11 24H2a1 1 0 0 1-1 0l-1-4 1-1h9l1 5Zm89 0h9a1 1 0 0 0 1 0l1-4-1-1h-8a1 1 0 0 0-1 0l-1 5Z" fill="#FB8483" />
    <path d="M17 72H8a1 1 0 0 1-1-1V57h11v14a1 1 0 0 1-1 1Zm77 0h10a1 1 0 0 0 0-1V57H93v14l1 1Z" fill="#3A4D57" />
    <path d="M106 57H5V35c34-3 68-3 101 0v22Z" fill="#FB8483" />
    <path d="M74 53H37l-7-15h51l-7 15Zm34 9H4a2 2 0 0 1-2-2c0-2 0-3 2-3h104c1 0 2 1 2 3a2 2 0 0 1-2 2Z" fill="#E9E5D9" />
    <path d="M93 0H18c-2 0-4 2-4 4l-3 19h90L97 4c0-2-2-4-4-4Z" fill="#FCA3A2" />
    <path d="m13 21 3-16c0-2 1-2 2-2h75c1 0 2 0 2 2l3 16H13Zm20 32H9l-1-1V39l1-1h15l3 1 6 14Z" fill="#3A4D57" />
    <path d="M15 50c2 0 4-2 4-5 0-2-2-4-4-4s-4 2-4 4c0 3 2 5 4 5Zm9-2c2 0 3-1 3-3 0-1-1-2-3-2l-2 2c0 2 1 3 2 3Z" fill="#E9E5D9" />
    <path d="M78 53h24l1-1V39l-1-1H87l-2 1-7 14Z" fill="#3A4D57" />
    <path d="M96 50c3 0 5-2 5-5 0-2-2-4-5-4-2 0-4 2-4 4 0 3 2 5 4 5Zm-9-2c1 0 2-1 2-3l-2-2-3 2c0 2 2 3 3 3Z" fill="#E9E5D9" />
    <path d="M43 39h-1v13h1V39Zm3 0h-1v13h1V39Zm3 0h-1v13h1V39Zm3 0h-1v13h1V39Zm3 0h-1v13h1V39Zm3 0h-1v13h1V39Zm2 0h-1v13h1V39Zm3 0h-1v13h1V39Zm3 0h-1v13h1V39Zm3 0h-1v13h1V39Z" fill="#3A4D57" />
    <path d="M101 23H11h90Z" fill="#FB8483" />
    <path d="M68 3h-5L51 21h4L68 3Zm13 0h-2L67 21h2L81 3ZM30 21h3L46 3h-3L30 21Z" fill="#617179" />
  </g>
  <path d="M173 9a8 8 0 1 1-17 0 8 8 0 1 1 17 0Z" fill="#0E4686" />
  <path d="M173 9a8 8 0 1 1-17 0 8 8 0 1 1 17 0Z" fill="#000" fill-opacity=".2" />
  <path d="m158 21 2-2h10v33l-1 1h-9l-2-1V21Z" fill="#0E4686" />
  <path d="m158 21 2-2h10v33l-1 1h-9l-2-1V21Z" fill="#000" fill-opacity=".2" />
  <path d="m159 53 1-1h3l2 1v24l-2 2h-3l-1-2V53Z" fill="#0E4686" />
  <path d="m159 53 1-1h3l2 1v24l-2 2h-3l-1-2V53Z" fill="#000" fill-opacity=".2" />
  <path d="m164 53 1-1h3l2 1v26l-2 1h-3a2 2 0 0 1-1-1V53Z" fill="#0E4686" />
  <path d="m164 53 1-1h3l2 1v26l-2 1h-3a2 2 0 0 1-1-1V53Z" fill="#000" fill-opacity=".2" />
  <path d="M146 10a2 2 0 0 1 0-2l1-1a2 2 0 0 1 2 0l14 15a2 2 0 0 1 0 2l-2 1a2 2 0 0 1-2 0l-13-15Z" fill="#0E4686" />
  <path d="M146 10a2 2 0 0 1 0-2l1-1a2 2 0 0 1 2 0l14 15a2 2 0 0 1 0 2l-2 1a2 2 0 0 1-2 0l-13-15Z" fill="#000" fill-opacity=".2" />
  <path d="m170 19 3 2v22a2 2 0 0 1-1 2h-2a2 2 0 0 1-1-2l1-24Z" fill="#0E4686" />
  <path d="m170 19 3 2v22a2 2 0 0 1-1 2h-2a2 2 0 0 1-1-2l1-24Z" fill="#000" fill-opacity=".2" />
  <path d="M54 9a8 8 0 1 0 17 0 8 8 0 0 0-17 0Z" fill="#0E4686" />
  <path d="M54 9a8 8 0 1 0 17 0 8 8 0 0 0-17 0Z" fill="#000" fill-opacity=".2" />
  <path d="m68 21-1-2H56v33l2 1h9l1-1V21Z" fill="#0E4686" />
  <path d="m68 21-1-2H56v33l2 1h9l1-1V21Z" fill="#000" fill-opacity=".2" />
  <path d="m68 53-2-1h-2l-2 1v24l2 2h2l2-2V53Z" fill="#0E4686" />
  <path d="m68 53-2-1h-2l-2 1v24l2 2h2l2-2V53Z" fill="#000" fill-opacity=".2" />
  <path d="m63 53-2-1h-2l-2 1v26l2 1h2l2-1V53Z" fill="#0E4686" />
  <path d="m63 53-2-1h-2l-2 1v26l2 1h2l2-1V53Z" fill="#000" fill-opacity=".2" />
  <path d="M81 10a2 2 0 0 0 0-2l-2-1a2 2 0 0 0-2 0L64 22a2 2 0 0 0 0 2l1 1a2 2 0 0 0 2 0l14-15Z" fill="#0E4686" />
  <path d="M81 10a2 2 0 0 0 0-2l-2-1a2 2 0 0 0-2 0L64 22a2 2 0 0 0 0 2l1 1a2 2 0 0 0 2 0l14-15Z" fill="#000" fill-opacity=".2" />
  <path d="m56 19-2 2a2 2 0 0 0 0 1l-1 21a2 2 0 0 0 2 2h1a2 2 0 0 0 2-2l-2-24Z" fill="#0E4686" />
  <path d="m56 19-2 2a2 2 0 0 0 0 1l-1 21a2 2 0 0 0 2 2h1a2 2 0 0 0 2-2l-2-24Z" fill="#000" fill-opacity=".2" />
  <path fill-rule="evenodd" clip-rule="evenodd" d="M49 46h-7v18h27V46H59v-4h-7v4h-3Zm8-4h-4v3h4v-3Z" fill="#D90000" />
</svg>