<svg width="585" height="610" fill="none" xmlns="http://www.w3.org/2000/svg">
  <g clip-path="url(#a)">
    <mask id="b" fill="#fff">
      <path d="M29 227h-2l1-2-1-1h-1v-4h-1l-6-2h-7l3-3 1-1v-2l-1-1h-1l-1-3-1-1h-1l-1-1-1-2-2-2-1-3v-2l-2-1v-1h1v-1l-2-1-1-1-2-1v-1h1v-2l3-1h1l-1-1-1-2 18 7 22 6 12 3 25 13 27 12 3 1-2 1-2 2-2 2-2 1h-2v1l-2 1-2 1-1 1-1 2-2-1h-3l-1 1v1l-2 3-4 1-1 1h-3v-2h-4l-5-1-5 1-1-1h-2l-3 2h-5l-1-2-1 1v-21l1-1v-1h-1l-3 2-1 1-2 2-2 1-1 1-1 1H29Z" />
    </mask>
    <path d="M29 227h-2l1-2-1-1h-1v-4h-1l-6-2h-7l3-3 1-1v-2l-1-1h-1l-1-3-1-1h-1l-1-1-1-2-2-2-1-3v-2l-2-1v-1h1v-1l-2-1-1-1-2-1v-1h1v-2l3-1h1l-1-1-1-2 18 7 22 6 12 3 25 13 27 12 3 1-2 1-2 2-2 2-2 1h-2v1l-2 1-2 1-1 1-1 2-2-1h-3l-1 1v1l-2 3-4 1-1 1h-3v-2h-4l-5-1-5 1-1-1h-2l-3 2h-5l-1-2-1 1v-21l1-1v-1h-1l-3 2-1 1-2 2-2 1-1 1-1 1H29Z" fill="#fff" />
    <path d="M29 227h-2l1-2-1-1h-1v-4h-1l-6-2h-7l3-3 1-1v-2l-1-1h-1l-1-3-1-1h-1l-1-1-1-2-2-2-1-3v-2l-2-1v-1h1v-1l-2-1-1-1-2-1v-1h1v-2l3-1h1l-1-1-1-2 18 7 22 6 12 3 25 13 27 12 3 1-2 1-2 2-2 2-2 1h-2v1l-2 1-2 1-1 1-1 2-2-1h-3l-1 1v1l-2 3-4 1-1 1h-3v-2h-4l-5-1-5 1-1-1h-2l-3 2h-5l-1-2-1 1v-21l1-1v-1h-1l-3 2-1 1-2 2-2 1-1 1-1 1H29Z" stroke="#0E4686" stroke-width="2" mask="url(#b)" />
    <path d="M29 227h-2l1-2-1-1h-1v-4h-1l-6-2h-7l3-3 1-1v-2l-1-1h-1l-1-3-1-1h-1l-1-1-1-2-2-2-1-3v-2l-2-1v-1h1v-1l-2-1-1-1-2-1v-1h1v-2l3-1h1l-1-1-1-2 18 7 22 6 12 3 25 13 27 12 3 1-2 1-2 2-2 2-2 1h-2v1l-2 1-2 1-1 1-1 2-2-1h-3l-1 1v1l-2 3-4 1-1 1h-3v-2h-4l-5-1-5 1-1-1h-2l-3 2h-5l-1-2-1 1v-21l1-1v-1h-1l-3 2-1 1-2 2-2 1-1 1-1 1H29Z" stroke="#000" stroke-opacity=".2" stroke-width="2" mask="url(#b)" />
    <path d="m562 233-1 1v-1h-1l-3-2h-1l-1-1-2-1-1-2v-1l-5-3-4-1-6-2v-1l-1-1h-2v-1l1-1 1-1h2l2-4h1v1h3l2 2 2 2 2 1h9l1-1h2l1-1 2-3h1l1-1h4v1-1l2-1h2l1 1h3l-3 4-4 5-3 4-3 4-3 3h-1v2Z" fill="#fff" />
    <path d="m562 233-1 1v-1h-1l-3-2h-1l-1-1-2-1-1-2v-1l-5-3-4-1-6-2v-1l-1-1h-2v-1l1-1 1-1h2l2-4h1v1h3l2 2 2 2 2 1h9l1-1h2l1-1 2-3h1l1-1h4v1-1l2-1h2l1 1h3l-3 4-4 5-3 4-3 4-3 3h-1v2Z" stroke="#0E4686" />
    <path d="m562 233-1 1v-1h-1l-3-2h-1l-1-1-2-1-1-2v-1l-5-3-4-1-6-2v-1l-1-1h-2v-1l1-1 1-1h2l2-4h1v1h3l2 2 2 2 2 1h9l1-1h2l1-1 2-3h1l1-1h4v1-1l2-1h2l1 1h3l-3 4-4 5-3 4-3 4-3 3h-1v2Z" stroke="#000" stroke-opacity=".2" />
    <mask id="c" fill="#fff">
      <path d="M159 45v1h3v1l2 1v1l1-1h2l1 1 1 1-1 3-1 2 3 3 2 5v2l1 1-2 2v1l1 2-1 3v5l1 2 1 1 1 1 1 4v1l-1 1h-2v1l4 4h1l2 1 1 2 1 2h2l2 1v-3l1-2v-1l-1-2 1-3 1-1 1-1h2l1-1h1l3 1 2 1 1 3h3l1-2h2v-1l-1-1v-2l1-2v-1l2-3 2-3v-1h18v9l2 1v3l1 2h1l2 1 1 2v1l4 4 5 2v1l2 1h1l3 2h3l1 1 1 1 1 1 2 2 1 2h3l1-1v2l2 1-28 62-1 1-2 1v2l1 2v1h1l2 2v3h1l-1 1-1 1v1l1 1-1 1-1 1v1l-1 1 1 2v2l-1 4-1 5h-1l-46 1v-1l-2-1-1 1-1 2h-1l-3-1v-3h-2l-2-3-2-1-1-1-1-2v-1l-2-1h-11l-1 3h-2v1l-2 1-1 2v1h1l-1 1-1 1-2 1v2l1 2-4-1-2 1-1 1-2-1h-1l-2 1v3l-3 3-1-1-1-2-2 1-1 1h-2l-1 1v1l-2 1-2-2-1-1h-6v2l-2 2h-2l-3 3-27-12-25-13-12-3-22-6-18-7v-1l1-2 1-2 5-3h2v-1l1-1v-1l-1-4v-1l1-2 2-2v-1l1-1v-5l1-2v-1l4-1 2-1 1-1 1-2h2l1-1 4-3h3l4-1 2-1h5l1-1 1-2h3v1l1-1h3v1l2 2h3v-1h1v-1l1-5 6-35 1-3-1-5-1-1-1-2v-4h-1l-1-1-3-2-2-2V70l4-1 2-1 3-1 3 2h2l-1-2 1-1-2-2v-1h-3l-2-1-4 1V53h2l3-1 2 1h18v-1h-1v-1l1-2 1 1 1 1 1 1v1h1l2-1 1-2 1-1 1-1 2-1h2l1 3 1 1 1 2 1 1v2l-1 3 1 2 3-1 8 7 3 1 2-1 1-2 3-1h2l1 1v1l-1 2v1h1l1-1 1-1v-1l1-1h2v-3l1-1h1l3-2 1 1h1l2-1v-2l3-1 1 1 3-2v-1l1-2v-2l1-1h3l2-2h3l1-2Z" />
    </mask>
    <path d="M159 45v1h3v1l2 1v1l1-1h2l1 1 1 1-1 3-1 2 3 3 2 5v2l1 1-2 2v1l1 2-1 3v5l1 2 1 1 1 1 1 4v1l-1 1h-2v1l4 4h1l2 1 1 2 1 2h2l2 1v-3l1-2v-1l-1-2 1-3 1-1 1-1h2l1-1h1l3 1 2 1 1 3h3l1-2h2v-1l-1-1v-2l1-2v-1l2-3 2-3v-1h18v9l2 1v3l1 2h1l2 1 1 2v1l4 4 5 2v1l2 1h1l3 2h3l1 1 1 1 1 1 2 2 1 2h3l1-1v2l2 1-28 62-1 1-2 1v2l1 2v1h1l2 2v3h1l-1 1-1 1v1l1 1-1 1-1 1v1l-1 1 1 2v2l-1 4-1 5h-1l-46 1v-1l-2-1-1 1-1 2h-1l-3-1v-3h-2l-2-3-2-1-1-1-1-2v-1l-2-1h-11l-1 3h-2v1l-2 1-1 2v1h1l-1 1-1 1-2 1v2l1 2-4-1-2 1-1 1-2-1h-1l-2 1v3l-3 3-1-1-1-2-2 1-1 1h-2l-1 1v1l-2 1-2-2-1-1h-6v2l-2 2h-2l-3 3-27-12-25-13-12-3-22-6-18-7v-1l1-2 1-2 5-3h2v-1l1-1v-1l-1-4v-1l1-2 2-2v-1l1-1v-5l1-2v-1l4-1 2-1 1-1 1-2h2l1-1 4-3h3l4-1 2-1h5l1-1 1-2h3v1l1-1h3v1l2 2h3v-1h1v-1l1-5 6-35 1-3-1-5-1-1-1-2v-4h-1l-1-1-3-2-2-2V70l4-1 2-1 3-1 3 2h2l-1-2 1-1-2-2v-1h-3l-2-1-4 1V53h2l3-1 2 1h18v-1h-1v-1l1-2 1 1 1 1 1 1v1h1l2-1 1-2 1-1 1-1 2-1h2l1 3 1 1 1 2 1 1v2l-1 3 1 2 3-1 8 7 3 1 2-1 1-2 3-1h2l1 1v1l-1 2v1h1l1-1 1-1v-1l1-1h2v-3l1-1h1l3-2 1 1h1l2-1v-2l3-1 1 1 3-2v-1l1-2v-2l1-1h3l2-2h3l1-2Z" fill="#fff" />
    <path d="M159 45v1h3v1l2 1v1l1-1h2l1 1 1 1-1 3-1 2 3 3 2 5v2l1 1-2 2v1l1 2-1 3v5l1 2 1 1 1 1 1 4v1l-1 1h-2v1l4 4h1l2 1 1 2 1 2h2l2 1v-3l1-2v-1l-1-2 1-3 1-1 1-1h2l1-1h1l3 1 2 1 1 3h3l1-2h2v-1l-1-1v-2l1-2v-1l2-3 2-3v-1h18v9l2 1v3l1 2h1l2 1 1 2v1l4 4 5 2v1l2 1h1l3 2h3l1 1 1 1 1 1 2 2 1 2h3l1-1v2l2 1-28 62-1 1-2 1v2l1 2v1h1l2 2v3h1l-1 1-1 1v1l1 1-1 1-1 1v1l-1 1 1 2v2l-1 4-1 5h-1l-46 1v-1l-2-1-1 1-1 2h-1l-3-1v-3h-2l-2-3-2-1-1-1-1-2v-1l-2-1h-11l-1 3h-2v1l-2 1-1 2v1h1l-1 1-1 1-2 1v2l1 2-4-1-2 1-1 1-2-1h-1l-2 1v3l-3 3-1-1-1-2-2 1-1 1h-2l-1 1v1l-2 1-2-2-1-1h-6v2l-2 2h-2l-3 3-27-12-25-13-12-3-22-6-18-7v-1l1-2 1-2 5-3h2v-1l1-1v-1l-1-4v-1l1-2 2-2v-1l1-1v-5l1-2v-1l4-1 2-1 1-1 1-2h2l1-1 4-3h3l4-1 2-1h5l1-1 1-2h3v1l1-1h3v1l2 2h3v-1h1v-1l1-5 6-35 1-3-1-5-1-1-1-2v-4h-1l-1-1-3-2-2-2V70l4-1 2-1 3-1 3 2h2l-1-2 1-1-2-2v-1h-3l-2-1-4 1V53h2l3-1 2 1h18v-1h-1v-1l1-2 1 1 1 1 1 1v1h1l2-1 1-2 1-1 1-1 2-1h2l1 3 1 1 1 2 1 1v2l-1 3 1 2 3-1 8 7 3 1 2-1 1-2 3-1h2l1 1v1l-1 2v1h1l1-1 1-1v-1l1-1h2v-3l1-1h1l3-2 1 1h1l2-1v-2l3-1 1 1 3-2v-1l1-2v-2l1-1h3l2-2h3l1-2Z" stroke="#0E4686" stroke-width="2" mask="url(#c)" />
    <path d="M159 45v1h3v1l2 1v1l1-1h2l1 1 1 1-1 3-1 2 3 3 2 5v2l1 1-2 2v1l1 2-1 3v5l1 2 1 1 1 1 1 4v1l-1 1h-2v1l4 4h1l2 1 1 2 1 2h2l2 1v-3l1-2v-1l-1-2 1-3 1-1 1-1h2l1-1h1l3 1 2 1 1 3h3l1-2h2v-1l-1-1v-2l1-2v-1l2-3 2-3v-1h18v9l2 1v3l1 2h1l2 1 1 2v1l4 4 5 2v1l2 1h1l3 2h3l1 1 1 1 1 1 2 2 1 2h3l1-1v2l2 1-28 62-1 1-2 1v2l1 2v1h1l2 2v3h1l-1 1-1 1v1l1 1-1 1-1 1v1l-1 1 1 2v2l-1 4-1 5h-1l-46 1v-1l-2-1-1 1-1 2h-1l-3-1v-3h-2l-2-3-2-1-1-1-1-2v-1l-2-1h-11l-1 3h-2v1l-2 1-1 2v1h1l-1 1-1 1-2 1v2l1 2-4-1-2 1-1 1-2-1h-1l-2 1v3l-3 3-1-1-1-2-2 1-1 1h-2l-1 1v1l-2 1-2-2-1-1h-6v2l-2 2h-2l-3 3-27-12-25-13-12-3-22-6-18-7v-1l1-2 1-2 5-3h2v-1l1-1v-1l-1-4v-1l1-2 2-2v-1l1-1v-5l1-2v-1l4-1 2-1 1-1 1-2h2l1-1 4-3h3l4-1 2-1h5l1-1 1-2h3v1l1-1h3v1l2 2h3v-1h1v-1l1-5 6-35 1-3-1-5-1-1-1-2v-4h-1l-1-1-3-2-2-2V70l4-1 2-1 3-1 3 2h2l-1-2 1-1-2-2v-1h-3l-2-1-4 1V53h2l3-1 2 1h18v-1h-1v-1l1-2 1 1 1 1 1 1v1h1l2-1 1-2 1-1 1-1 2-1h2l1 3 1 1 1 2 1 1v2l-1 3 1 2 3-1 8 7 3 1 2-1 1-2 3-1h2l1 1v1l-1 2v1h1l1-1 1-1v-1l1-1h2v-3l1-1h1l3-2 1 1h1l2-1v-2l3-1 1 1 3-2v-1l1-2v-2l1-1h3l2-2h3l1-2Z" stroke="#000" stroke-opacity=".2" stroke-width="2" mask="url(#c)" />
    <mask id="d" fill="#fff">
      <path d="M330 95h-1l-1 1h-1l-3-1-1-1-1-1-1-2v-1l-1-2-1-1v-3l-3-3h-1l-2-3v-3l-1-1-1-1v-2l1-3v-1h-3l-2-3-1-2 1-1v-1h-1l-3-3-1 1h-2l-1-1-1-1h-1v-1l-1-1-2-1-1-1h-6v-6l1-1-1-2v-1h1v2h2l1 1 1 1h2l3 1 2-2h1l1-1 1-1 1 1 2 1h1l2-1h1l1 1v1h5l1-2 2-1 2-2v-1l3-7v-1l1-2h1l3-5 1-1v-2l2-1 1-2 2-1v-1h1l1 1v2l-1-5v-2l3 3 1 1 1 1 1 1v2l1-1v8l1 4 2 6 3 8 3 5h4l3 1 1 1 1 3v3l-2 1h-2 3v1l-4 4-2 2-2 2-1 3-3 4h-3l-2 3h-1l-1 1-2 2-1 2-1 2-3 4-1 2 1 2-2 1h-1Zm22-44v-1l-1-2v-1h2l1 2-1 1-1 1Zm2 16v-1l1-1h3l-1 2h-3Zm4-2-1-1 1-1h1v1l-1 1Zm-7-18h-1v-1h2v1h-1Z" />
    </mask>
    <path d="M330 95h-1l-1 1h-1l-3-1-1-1-1-1-1-2v-1l-1-2-1-1v-3l-3-3h-1l-2-3v-3l-1-1-1-1v-2l1-3v-1h-3l-2-3-1-2 1-1v-1h-1l-3-3-1 1h-2l-1-1-1-1h-1v-1l-1-1-2-1-1-1h-6v-6l1-1-1-2v-1h1v2h2l1 1 1 1h2l3 1 2-2h1l1-1 1-1 1 1 2 1h1l2-1h1l1 1v1h5l1-2 2-1 2-2v-1l3-7v-1l1-2h1l3-5 1-1v-2l2-1 1-2 2-1v-1h1l1 1v2l-1-5v-2l3 3 1 1 1 1 1 1v2l1-1v8l1 4 2 6 3 8 3 5h4l3 1 1 1 1 3v3l-2 1h-2 3v1l-4 4-2 2-2 2-1 3-3 4h-3l-2 3h-1l-1 1-2 2-1 2-1 2-3 4-1 2 1 2-2 1h-1Zm22-44v-1l-1-2v-1h2l1 2-1 1-1 1Zm2 16v-1l1-1h3l-1 2h-3Zm4-2-1-1 1-1h1v1l-1 1Zm-7-18h-1v-1h2v1h-1Z" fill="#fff" />
    <path d="M330 95h-1l-1 1h-1l-3-1-1-1-1-1-1-2v-1l-1-2-1-1v-3l-3-3h-1l-2-3v-3l-1-1-1-1v-2l1-3v-1h-3l-2-3-1-2 1-1v-1h-1l-3-3-1 1h-2l-1-1-1-1h-1v-1l-1-1-2-1-1-1h-6v-6l1-1-1-2v-1h1v2h2l1 1 1 1h2l3 1 2-2h1l1-1 1-1 1 1 2 1h1l2-1h1l1 1v1h5l1-2 2-1 2-2v-1l3-7v-1l1-2h1l3-5 1-1v-2l2-1 1-2 2-1v-1h1l1 1v2l-1-5v-2l3 3 1 1 1 1 1 1v2l1-1v8l1 4 2 6 3 8 3 5h4l3 1 1 1 1 3v3l-2 1h-2 3v1l-4 4-2 2-2 2-1 3-3 4h-3l-2 3h-1l-1 1-2 2-1 2-1 2-3 4-1 2 1 2-2 1h-1Zm22-44v-1l-1-2v-1h2l1 2-1 1-1 1Zm2 16v-1l1-1h3l-1 2h-3Zm4-2-1-1 1-1h1v1l-1 1Zm-7-18h-1v-1h2v1h-1Z" stroke="#0E4686" stroke-width="2" mask="url(#d)" />
    <path d="M330 95h-1l-1 1h-1l-3-1-1-1-1-1-1-2v-1l-1-2-1-1v-3l-3-3h-1l-2-3v-3l-1-1-1-1v-2l1-3v-1h-3l-2-3-1-2 1-1v-1h-1l-3-3-1 1h-2l-1-1-1-1h-1v-1l-1-1-2-1-1-1h-6v-6l1-1-1-2v-1h1v2h2l1 1 1 1h2l3 1 2-2h1l1-1 1-1 1 1 2 1h1l2-1h1l1 1v1h5l1-2 2-1 2-2v-1l3-7v-1l1-2h1l3-5 1-1v-2l2-1 1-2 2-1v-1h1l1 1v2l-1-5v-2l3 3 1 1 1 1 1 1v2l1-1v8l1 4 2 6 3 8 3 5h4l3 1 1 1 1 3v3l-2 1h-2 3v1l-4 4-2 2-2 2-1 3-3 4h-3l-2 3h-1l-1 1-2 2-1 2-1 2-3 4-1 2 1 2-2 1h-1Zm22-44v-1l-1-2v-1h2l1 2-1 1-1 1Zm2 16v-1l1-1h3l-1 2h-3Zm4-2-1-1 1-1h1v1l-1 1Zm-7-18h-1v-1h2v1h-1Z" stroke="#000" stroke-opacity=".2" stroke-width="2" mask="url(#d)" />
    <mask id="e" fill="#fff">
      <path d="M504 349v-4l-4-3v-1l-1-2v1h-1l1-4v-3l1-1h3v-5l5-4 1-3v-1l-1-1h-1l-3-2h-2l-2-1-2-1-3-1h-2l-1 1-2 1-2-1-1 1v-4l-6-6h-1l-4 1-1-1h-2l-2-2-2-1h-1l-4-3-1-1-3-1-2 1-1 1-1 1h-1l-5-2-1-2 2-3h-1l-2-1h-4l-1-1-4 2-4 3-1 1-3 2h-2l-1 1-1 2h-3l-1 3h-4l-1 1-1 1h-1l2-4-1-2 2-2v-2l-1-1v-1l1-1v-1l-3-2-2-4v-5l1-3 1-1 1-1-2-1v-3l2-1-3-3v-1l1-2v-1l-1-1h-1v-5l2-2h1l1-1h-1v-1h-2v-2l2-1v-1l-1-1h-4l-2-2v-1l1-1 1-1 1-3 1-1h1l-1-2 3-3 4-2 1-1v-1h3l1 1 1 1v3l2 2 4 2 1-1h3v-1l2-1 1-1 2-1h2l1 1 1-1 3-2 3-5 1-1v-4l-2-4v-1l3-2h2l1 1 1 1 2-1h3l1 1v1h6l1-1 1-1 1-1h3l1-1v-1h3v1l2-2v-2h3l1-1 1-2 1-1h4l2 2h1v5h3v2l-1 2 2 1 1-1v-1h3l1-4v-1h1l1 1 3-1 1-1v-2l2-1 1-2h1l3-2 2 1 1 1 1 1 2 1h3l2 1v2h1v-2h2v1h-1l1 1v1h2v1l1 3 1 2h1l2 1-1 1v2l2 3 2 2v5l-1 1 1 3-1 1-2 1-1-1h-2l-1 2v1l1 1 1 1 1 1 1 2v3h2l1 1 2 1 3-1v1l-3 8-4 5-1 2-5 6-2 1h-1v-1l1-1v-1l-1-2h-1l-1-1-1-1v3l-1 1h-1v-2l-1 1 1 1 1 1v-1l1 1v1l-2 2v1l-1 1v1l-1 1h1-2v3-1h1v9h-1v2l2-2-1-2 1-1v2l-1 3-1 5v4l1 3v4l1 6 1 4-2 6-2 6v4l-1 4v6l1 2-2 2-2 1-1 1-2 3-1 2-8-5Zm21-74v-2h1l1-1v-1l1 1-3 3Zm-2 6h-1v-1h1-1l-1-1 1-1h1l1 2-1 1Z" />
    </mask>
    <path d="M504 349v-4l-4-3v-1l-1-2v1h-1l1-4v-3l1-1h3v-5l5-4 1-3v-1l-1-1h-1l-3-2h-2l-2-1-2-1-3-1h-2l-1 1-2 1-2-1-1 1v-4l-6-6h-1l-4 1-1-1h-2l-2-2-2-1h-1l-4-3-1-1-3-1-2 1-1 1-1 1h-1l-5-2-1-2 2-3h-1l-2-1h-4l-1-1-4 2-4 3-1 1-3 2h-2l-1 1-1 2h-3l-1 3h-4l-1 1-1 1h-1l2-4-1-2 2-2v-2l-1-1v-1l1-1v-1l-3-2-2-4v-5l1-3 1-1 1-1-2-1v-3l2-1-3-3v-1l1-2v-1l-1-1h-1v-5l2-2h1l1-1h-1v-1h-2v-2l2-1v-1l-1-1h-4l-2-2v-1l1-1 1-1 1-3 1-1h1l-1-2 3-3 4-2 1-1v-1h3l1 1 1 1v3l2 2 4 2 1-1h3v-1l2-1 1-1 2-1h2l1 1 1-1 3-2 3-5 1-1v-4l-2-4v-1l3-2h2l1 1 1 1 2-1h3l1 1v1h6l1-1 1-1 1-1h3l1-1v-1h3v1l2-2v-2h3l1-1 1-2 1-1h4l2 2h1v5h3v2l-1 2 2 1 1-1v-1h3l1-4v-1h1l1 1 3-1 1-1v-2l2-1 1-2h1l3-2 2 1 1 1 1 1 2 1h3l2 1v2h1v-2h2v1h-1l1 1v1h2v1l1 3 1 2h1l2 1-1 1v2l2 3 2 2v5l-1 1 1 3-1 1-2 1-1-1h-2l-1 2v1l1 1 1 1 1 1 1 2v3h2l1 1 2 1 3-1v1l-3 8-4 5-1 2-5 6-2 1h-1v-1l1-1v-1l-1-2h-1l-1-1-1-1v3l-1 1h-1v-2l-1 1 1 1 1 1v-1l1 1v1l-2 2v1l-1 1v1l-1 1h1-2v3-1h1v9h-1v2l2-2-1-2 1-1v2l-1 3-1 5v4l1 3v4l1 6 1 4-2 6-2 6v4l-1 4v6l1 2-2 2-2 1-1 1-2 3-1 2-8-5Zm21-74v-2h1l1-1v-1l1 1-3 3Zm-2 6h-1v-1h1-1l-1-1 1-1h1l1 2-1 1Z" fill="#fff" />
    <path d="M504 349v-4l-4-3v-1l-1-2v1h-1l1-4v-3l1-1h3v-5l5-4 1-3v-1l-1-1h-1l-3-2h-2l-2-1-2-1-3-1h-2l-1 1-2 1-2-1-1 1v-4l-6-6h-1l-4 1-1-1h-2l-2-2-2-1h-1l-4-3-1-1-3-1-2 1-1 1-1 1h-1l-5-2-1-2 2-3h-1l-2-1h-4l-1-1-4 2-4 3-1 1-3 2h-2l-1 1-1 2h-3l-1 3h-4l-1 1-1 1h-1l2-4-1-2 2-2v-2l-1-1v-1l1-1v-1l-3-2-2-4v-5l1-3 1-1 1-1-2-1v-3l2-1-3-3v-1l1-2v-1l-1-1h-1v-5l2-2h1l1-1h-1v-1h-2v-2l2-1v-1l-1-1h-4l-2-2v-1l1-1 1-1 1-3 1-1h1l-1-2 3-3 4-2 1-1v-1h3l1 1 1 1v3l2 2 4 2 1-1h3v-1l2-1 1-1 2-1h2l1 1 1-1 3-2 3-5 1-1v-4l-2-4v-1l3-2h2l1 1 1 1 2-1h3l1 1v1h6l1-1 1-1 1-1h3l1-1v-1h3v1l2-2v-2h3l1-1 1-2 1-1h4l2 2h1v5h3v2l-1 2 2 1 1-1v-1h3l1-4v-1h1l1 1 3-1 1-1v-2l2-1 1-2h1l3-2 2 1 1 1 1 1 2 1h3l2 1v2h1v-2h2v1h-1l1 1v1h2v1l1 3 1 2h1l2 1-1 1v2l2 3 2 2v5l-1 1 1 3-1 1-2 1-1-1h-2l-1 2v1l1 1 1 1 1 1 1 2v3h2l1 1 2 1 3-1v1l-3 8-4 5-1 2-5 6-2 1h-1v-1l1-1v-1l-1-2h-1l-1-1-1-1v3l-1 1h-1v-2l-1 1 1 1 1 1v-1l1 1v1l-2 2v1l-1 1v1l-1 1h1-2v3-1h1v9h-1v2l2-2-1-2 1-1v2l-1 3-1 5v4l1 3v4l1 6 1 4-2 6-2 6v4l-1 4v6l1 2-2 2-2 1-1 1-2 3-1 2-8-5Zm21-74v-2h1l1-1v-1l1 1-3 3Zm-2 6h-1v-1h1-1l-1-1 1-1h1l1 2-1 1Z" stroke="#0E4686" stroke-width="2" mask="url(#e)" />
    <path d="M504 349v-4l-4-3v-1l-1-2v1h-1l1-4v-3l1-1h3v-5l5-4 1-3v-1l-1-1h-1l-3-2h-2l-2-1-2-1-3-1h-2l-1 1-2 1-2-1-1 1v-4l-6-6h-1l-4 1-1-1h-2l-2-2-2-1h-1l-4-3-1-1-3-1-2 1-1 1-1 1h-1l-5-2-1-2 2-3h-1l-2-1h-4l-1-1-4 2-4 3-1 1-3 2h-2l-1 1-1 2h-3l-1 3h-4l-1 1-1 1h-1l2-4-1-2 2-2v-2l-1-1v-1l1-1v-1l-3-2-2-4v-5l1-3 1-1 1-1-2-1v-3l2-1-3-3v-1l1-2v-1l-1-1h-1v-5l2-2h1l1-1h-1v-1h-2v-2l2-1v-1l-1-1h-4l-2-2v-1l1-1 1-1 1-3 1-1h1l-1-2 3-3 4-2 1-1v-1h3l1 1 1 1v3l2 2 4 2 1-1h3v-1l2-1 1-1 2-1h2l1 1 1-1 3-2 3-5 1-1v-4l-2-4v-1l3-2h2l1 1 1 1 2-1h3l1 1v1h6l1-1 1-1 1-1h3l1-1v-1h3v1l2-2v-2h3l1-1 1-2 1-1h4l2 2h1v5h3v2l-1 2 2 1 1-1v-1h3l1-4v-1h1l1 1 3-1 1-1v-2l2-1 1-2h1l3-2 2 1 1 1 1 1 2 1h3l2 1v2h1v-2h2v1h-1l1 1v1h2v1l1 3 1 2h1l2 1-1 1v2l2 3 2 2v5l-1 1 1 3-1 1-2 1-1-1h-2l-1 2v1l1 1 1 1 1 1 1 2v3h2l1 1 2 1 3-1v1l-3 8-4 5-1 2-5 6-2 1h-1v-1l1-1v-1l-1-2h-1l-1-1-1-1v3l-1 1h-1v-2l-1 1 1 1 1 1v-1l1 1v1l-2 2v1l-1 1v1l-1 1h1-2v3-1h1v9h-1v2l2-2-1-2 1-1v2l-1 3-1 5v4l1 3v4l1 6 1 4-2 6-2 6v4l-1 4v6l1 2-2 2-2 1-1 1-2 3-1 2-8-5Zm21-74v-2h1l1-1v-1l1 1-3 3Zm-2 6h-1v-1h1-1l-1-1 1-1h1l1 2-1 1Z" stroke="#000" stroke-opacity=".2" stroke-width="2" mask="url(#e)" />
    <mask id="f" fill="#fff">
      <path d="m548 150-4 1-3 2-3 7-1 1h-1v3l-1 2-2 1v2h-1l-1-1h-1v1l-2 2v2h1v1l-1 1-1 3 1 1-1 1-1 1v1l1 1v2l1 1h1v1l-1 3-2 1h1l-2 1-1 1-1 2h-2l-1-2-2-1-1-1v-1h-2l-3-2-2-1-2 1h-9v-2l-1-1 2-3 1-2v-1l-1-1h-2l-1-1-1-2-1-5-1-3-1-8-1-1h1l1-2-1-3-1-2v-7l-1-2v-1l-3-6-2-5v-2l1-2 1-2 1-1v-1h-1l1-1h6l3-1h2l7 1 2 1 2 1 4 2 1 1 5 2 1 1 2 2 3 2 3 1 2 2 1 1 3 4 4 2 1 2 1 1 2 1h1l2 1 1 1v1Z" />
    </mask>
    <path d="m548 150-4 1-3 2-3 7-1 1h-1v3l-1 2-2 1v2h-1l-1-1h-1v1l-2 2v2h1v1l-1 1-1 3 1 1-1 1-1 1v1l1 1v2l1 1h1v1l-1 3-2 1h1l-2 1-1 1-1 2h-2l-1-2-2-1-1-1v-1h-2l-3-2-2-1-2 1h-9v-2l-1-1 2-3 1-2v-1l-1-1h-2l-1-1-1-2-1-5-1-3-1-8-1-1h1l1-2-1-3-1-2v-7l-1-2v-1l-3-6-2-5v-2l1-2 1-2 1-1v-1h-1l1-1h6l3-1h2l7 1 2 1 2 1 4 2 1 1 5 2 1 1 2 2 3 2 3 1 2 2 1 1 3 4 4 2 1 2 1 1 2 1h1l2 1 1 1v1Z" fill="#fff" />
    <path d="m548 150-4 1-3 2-3 7-1 1h-1v3l-1 2-2 1v2h-1l-1-1h-1v1l-2 2v2h1v1l-1 1-1 3 1 1-1 1-1 1v1l1 1v2l1 1h1v1l-1 3-2 1h1l-2 1-1 1-1 2h-2l-1-2-2-1-1-1v-1h-2l-3-2-2-1-2 1h-9v-2l-1-1 2-3 1-2v-1l-1-1h-2l-1-1-1-2-1-5-1-3-1-8-1-1h1l1-2-1-3-1-2v-7l-1-2v-1l-3-6-2-5v-2l1-2 1-2 1-1v-1h-1l1-1h6l3-1h2l7 1 2 1 2 1 4 2 1 1 5 2 1 1 2 2 3 2 3 1 2 2 1 1 3 4 4 2 1 2 1 1 2 1h1l2 1 1 1v1Z" stroke="#0E4686" stroke-width="2" mask="url(#f)" />
    <path d="m548 150-4 1-3 2-3 7-1 1h-1v3l-1 2-2 1v2h-1l-1-1h-1v1l-2 2v2h1v1l-1 1-1 3 1 1-1 1-1 1v1l1 1v2l1 1h1v1l-1 3-2 1h1l-2 1-1 1-1 2h-2l-1-2-2-1-1-1v-1h-2l-3-2-2-1-2 1h-9v-2l-1-1 2-3 1-2v-1l-1-1h-2l-1-1-1-2-1-5-1-3-1-8-1-1h1l1-2-1-3-1-2v-7l-1-2v-1l-3-6-2-5v-2l1-2 1-2 1-1v-1h-1l1-1h6l3-1h2l7 1 2 1 2 1 4 2 1 1 5 2 1 1 2 2 3 2 3 1 2 2 1 1 3 4 4 2 1 2 1 1 2 1h1l2 1 1 1v1Z" stroke="#000" stroke-opacity=".2" stroke-width="2" mask="url(#f)" />
    <path d="M385 314v-3h11l2 2v1l-1 1v3h-12l-1-2 1-2Z" fill="#fff" />
    <path d="M385 314v-3h11l2 2v1l-1 1v3h-12l-1-2 1-2Z" stroke="#0E4686" />
    <path d="M385 314v-3h11l2 2v1l-1 1v3h-12l-1-2 1-2Z" stroke="#000" stroke-opacity=".2" />
    <path d="m496 351-1-2h3l1-1h2l2 1h1v1l7 5v3l-1 2 1 4v8l-1 3-3 1-1 1-1 3-1 4h-3v2h1l-1 4-3 3h-1l-1 1h-1v1l-1 2v1l-1 1v1h-1l-1-1-3 1-4-1-2-1v-5h-1l-1-1v-2l1-1-1-3 1-2h6l1-3 1-1 1-3v-2h2l1-2v-1l1-2v-3l-2-3-1-1h-2v-1h1l1 1h2v-1h1v-2h-1l-1-1 1-1v-2l-1-1-1-1 1-1 1-2 1 1h2v-1Z" fill="#fff" />
    <path d="m496 351-1-2h3l1-1h2l2 1h1v1l7 5v3l-1 2 1 4v8l-1 3-3 1-1 1-1 3-1 4h-3v2h1l-1 4-3 3h-1l-1 1h-1v1l-1 2v1l-1 1v1h-1l-1-1-3 1-4-1-2-1v-5h-1l-1-1v-2l1-1-1-3 1-2h6l1-3 1-1 1-3v-2h2l1-2v-1l1-2v-3l-2-3-1-1h-2v-1h1l1 1h2v-1h1v-2h-1l-1-1 1-1v-2l-1-1-1-1 1-1 1-2 1 1h2v-1Z" stroke="#0E4686" />
    <path d="m496 351-1-2h3l1-1h2l2 1h1v1l7 5v3l-1 2 1 4v8l-1 3-3 1-1 1-1 3-1 4h-3v2h1l-1 4-3 3h-1l-1 1h-1v1l-1 2v1l-1 1v1h-1l-1-1-3 1-4-1-2-1v-5h-1l-1-1v-2l1-1-1-3 1-2h6l1-3 1-1 1-3v-2h2l1-2v-1l1-2v-3l-2-3-1-1h-2v-1h1l1 1h2v-1h1v-2h-1l-1-1 1-1v-2l-1-1-1-1 1-1 1-2 1 1h2v-1Z" stroke="#000" stroke-opacity=".2" />
    <mask id="g" fill="#fff">
      <path d="m398 319-1-1 1-2v-4l-2-1h-11v3l-1 2v3h14v3l-1 1-1 2v1l1 1h1l1 1 2 5-3 3-3 3v2l1 1h2l1 1v1l-1 1v2l1 3-3 2h-1l-1 1-1 1-4 3-1-1-4-2-1 1h-7l-2-1-4 3-3 2-1-1h-2l-3 1h-3l-3 1h-2l-1 2-1 2v1l-1 2h-2l-1 1-2 2v3l-1-1-2-2-3-1-2-2h-3l-3-1-1-1-3-2h-1l-1-1h-1l-3-2-2 1-4-1v-1l1-1 1-2-2-1h-2l-1-1 1-3v-1l-1-3-1-3-1-2v-4l3-3v-3l1-1 2-1 2-1 1-2v-2l1-1 1-1 1-2v-1l1-1 2-3h5v-1l2-4 1-1v-4h1l1-2 2-1h3l2-2 1-3 1-2v-1l-1-1 1-3 1-3v-5h1l1-3 2-3 1-1-1-3h1l1-1v-4l1-1 2-2v-1 2l-1 2v2h2l2 1 4 1 3 1 4 2 2-6 1-2 1-1 1 1 1 2 1 3 1 3h2v-1l1-1h7v1l-1 1 3 2h4l1-3 2 3 2-1 2-2 4-1h2l2-1 2-1 5-2 3 3-2 1v3l2 1-1 1-1 1-1 3v5l2 4 3 2-1 2 1 2v2l-2 2-1 1h-3l-1-2-2-1-1 1 1 4h-1l-3-1h-1v1l-1 3h1v1l-1 1v3h1v5h-3l-3 2h-1Z" />
    </mask>
    <path d="m398 319-1-1 1-2v-4l-2-1h-11v3l-1 2v3h14v3l-1 1-1 2v1l1 1h1l1 1 2 5-3 3-3 3v2l1 1h2l1 1v1l-1 1v2l1 3-3 2h-1l-1 1-1 1-4 3-1-1-4-2-1 1h-7l-2-1-4 3-3 2-1-1h-2l-3 1h-3l-3 1h-2l-1 2-1 2v1l-1 2h-2l-1 1-2 2v3l-1-1-2-2-3-1-2-2h-3l-3-1-1-1-3-2h-1l-1-1h-1l-3-2-2 1-4-1v-1l1-1 1-2-2-1h-2l-1-1 1-3v-1l-1-3-1-3-1-2v-4l3-3v-3l1-1 2-1 2-1 1-2v-2l1-1 1-1 1-2v-1l1-1 2-3h5v-1l2-4 1-1v-4h1l1-2 2-1h3l2-2 1-3 1-2v-1l-1-1 1-3 1-3v-5h1l1-3 2-3 1-1-1-3h1l1-1v-4l1-1 2-2v-1 2l-1 2v2h2l2 1 4 1 3 1 4 2 2-6 1-2 1-1 1 1 1 2 1 3 1 3h2v-1l1-1h7v1l-1 1 3 2h4l1-3 2 3 2-1 2-2 4-1h2l2-1 2-1 5-2 3 3-2 1v3l2 1-1 1-1 1-1 3v5l2 4 3 2-1 2 1 2v2l-2 2-1 1h-3l-1-2-2-1-1 1 1 4h-1l-3-1h-1v1l-1 3h1v1l-1 1v3h1v5h-3l-3 2h-1Z" fill="#fff" />
    <path d="M397 318h-1l1 1v-1Zm1-2-1-1v1h1Zm0-1h1v-1l-1 1Zm0-3h1-1Zm-2-1 1-1h-1v1Zm-11 0v-1h-1l1 1Zm0 3v1l1-1h-1Zm-1 2-1-1v1h1Zm0 3h-1v1h1v-1Zm14 1h-1v1l1-1Zm0 2h1-1Zm-1 1 1 1-1-1Zm-1 2v-1h-1l1 1Zm0 1h-1v1l1-1Zm1 1-1 1 1-1Zm1 0Zm1 1h1-1Zm2 5h1l-1-1v1Zm0 0v1h1v-1h-1Zm-3 3 1 1-1-1Zm-3 3v-1h-1v1h1Zm0 2h-1v1l1-1Zm1 1-1 1h1v-1Zm1 0v-2l-1 1 1 1Zm1 0 1-1-1 1Zm1 1 1-1h-1v1Zm0 1h1v-1l-1 1Zm0 0v1h1l-1-1Zm-1 1-1-1v1h1Zm0 2h-2 2Zm1 3v1h1v-1h-1Zm-3 2v1-1Zm-1 0-1-1v1h1Zm-1 1h-1 1Zm-1 1 1 1-1-1Zm-4 3-1 1h1v-1Zm-1-1h1v-1h-1v1Zm-4-2v-1l-1 1h1Zm-1 1v1h1l-1-1Zm0 0v1-1Zm-2 0v1-1Zm-1 0v-1 1Zm-4 0v1-1Zm-2-1v-1 1Zm-4 3v-1h-1l1 1Zm-3 2v1h1l-1-1Zm0 0-1 1h1v-1Zm-1-1v-1 1Zm-2 0 1-1h-1v1Zm-3 1v1h1l-1-1Zm-3 0v-1h-1l1 1Zm-3 1 1 1-1-1Zm-2 0v-1l-1 1h1Zm-1 2h-1 1Zm-1 2h-1v1l1-1Zm0 1 1 1v-1h-1Zm-1 2v1l1-1h-1Zm-1 0v1h1l-1-1Zm-1 0 1-1h-1v1Zm0 0v-1h-1l1 1Zm-1 1-1-1 1 1Zm-2 2v-1 1Zm0 1h-1v1l1-1Zm0 1h1v-1l-1 1Zm0 0 1 1v-1h-1Zm0 1v1l1-1h-1Zm-1-1-1 1h1v-1Zm0 0 1-1-1 1Zm-2-2v-1 1Zm-3-1-1 1 1-1Zm-2-2h1-1v-1 1Zm-2 0v-1 1Zm-1 0-1 1h1v-1Zm-3-1h-1v1l1-1Zm-1-1 1-1h-1v1Zm-3-2-1 1h1v-1Zm-1 0 1-1-1 1Zm-1-1v-1 1Zm-1 0-1 1h1v-1Zm-3-2h1v-1h-1v1Zm-2 1-1 1h1v-1Zm-4-1h-1v1h1v-1Zm0 0-1-1v1h1Zm0-1-1-1 1 1Zm1-1-1-1 1 1Zm1-2 1 1v-1h-1Zm0 0 1-1h-1v1Zm-2-1v-1h-1l1 1Zm-1 0-1 1h1v-1Zm-1 0-1 1h1v-1Zm0 0h-1 1Zm-1-1h-1 1Zm1-3h1-1Zm0-1 1-1h-1v1Zm-1-3-1 1 1-1Zm-1-3h1-1Zm-1-2h-1v1l1-1Zm0-1h-1v1l1-1Zm0-3h-1 1Zm3-3h1-1Zm0-3-1-1v1h1Zm1-1-1-1 1 1Zm2-1v1-1Zm2-1Zm1-2h1-1Zm0-2-1-1v1h1Zm1-1-1-1 1 1Zm1-1v1l1-1h-1Zm1-2v1h1v-1h-1Zm0-1-1-1v1h1Zm1-1 1 1v-1h-1Zm2-3v-1l-1 1h1Zm2 0v1-1Zm3 0v1-1Zm0-1 1 1-1-1Zm2-4h-1 1Zm1-1v1h1l-1-1Zm0-4h-1 1Zm1 0-1-1 1 1Zm1-2v-1 1Zm2-1v-1 1Zm1 0 1-1h-1v1Zm1 0v1h1l-1-1Zm1 0h1-1Zm2-2v1h1l-1-1Zm1-3h-1 1Zm1-2h1-1Zm0-1h1-1Zm-1-1h-1 1Zm1-3h-1 1Zm1-3 1 1v-1h-1Zm0-5h-1 1Zm1 0h1-1Zm1-3h-1 1Zm2-3 1 1v-1h-1Zm1-1h1-1Zm-1-3h-1v1l1-1Zm1 0-1-1 1 1Zm1-1v1l1-1h-1Zm0-1h1-1Zm0-1h-1 1Zm0 0h1-1Zm0-2-1-1v1h1Zm1-1-1-1 1 1Zm2-2-1-1 1 1Zm0-1h1v-1l-1 1Zm0 2 1 1v-1h-1Zm-1 2-1-1v1h1Zm0 2h-1l-1 1h1l1-1Zm2 0v-1 1Zm2 1v1-1Zm4 1v-1 1Zm3 1-1 1 1-1Zm4 2-1 1h1v-1Zm0 0 1 1v-1h-1Zm2-6-1-1v1h1Zm1-2-1-1 1 1Zm1-1 1-1-1-1v2Zm1 1h1v-1l-1 1Zm1 2 1-1-1 1Zm1 3h1-1Zm1 3h-1v1h1v-1Zm1 0v1h1l-1-1Zm1 0h1-1Zm0-1-1-1 1 1Zm1-1v-1h-1l1 1Zm2 0v1-1Zm5 0h1l-1-1h-1l1 1Zm0 1h1v-1l-1 1Zm-1 1h-1v1h1v-1Zm3 2v1-1Zm3 0v1h1l-1-1Zm1 0v1h1v-1h-1Zm1-3v-1h-1v1h1Zm0 0h1v-1h-1v1Zm2 3h-1 1Zm0 0v1-1Zm2-1v1-1Zm2-2v-1h-1l1 1Zm4-1v-1 1Zm2 0v1-1Zm2-1 1 1-1-1Zm2-1v-1h-1l1 1Zm5-2h1l-1-1v1Zm3 3h1v-1h-1v1Zm0 0v1l1-1h-1Zm-2 1v-1h-1v1h1Zm0 2h-1v1l1-1Zm0 1h-1l1 1v-1Zm2 1h1v-1h-1v1Zm0 0v1h1v-1h-1Zm-1 1 1 1v-1h-1Zm-1 1-1-1 1 1Zm-1 3h-1 1Zm0 2h-1 1Zm0 3h-1v1l1-1Zm2 4h-1 1Zm3 2h1v-1l-1 1Zm0 0 1 1v-1h-1Zm-1 2-1-1v1h1Zm0 0h-1v1l1-1Zm1 2h1-1Zm0 1 1 1v-1h-1Zm0 1 1 1v-1h-1Zm-2 2 1 1-1-1Zm-1 1v1h1l-1-1Zm-3 0h-1l1 1v-1Zm-1-2 1-1-1 1Zm-2-1 1-1-1-1-1 1 1 1Zm-1 1-1-1v1h1Zm1 4h1v-1l-1 1Zm-1 0v1h1l-1-1Zm0 0-1 1h1v-1Zm-3-1v-1 1Zm-1 0v-1h-1v1h1Zm0 1-1-1 1 1Zm-1 3-1-1v1l1 1v-1Zm1 0v-1 1Zm0 1h1v-1l-1 1Zm-1 1h1-1Zm0 0h-1 1Zm0 2h-1v1l1-1Zm0 1h-1l1 1v-1Zm1 0h1v-1h-1v1Zm0 4 1 1v-1h-1Zm0 1h1-1Zm-3 0-1-1v1h1Zm-3 2 1 1-1-1Zm0-1-1-1-1 2v1l2-2Zm-1 0 1-2h-2l-1 2h2Zm1-2v-1l-2-1v1l2 1Zm0-2v-2h-2v3l2-1Zm0-2-2-2-1 1 1 2 2-1Zm-3-2h-11v2h11v-2Zm-12 0v4h2v-3l-2-1Zm0 4-1 1 2 1v-1l-1-1Zm-1 2v3h2v-3h-2Zm1 4h14v-2h-14v2Zm13-1v1l2 1v-2h-2Zm0 2v1h2v-2l-2 1Zm0 1-1 1 2 1 1-2h-2Zm0 1-1 1 1 1 1-1-1-1Zm-2 1v2h2v-1l-2-1Zm0 3 1 1 2-1-1-2-2 2Zm1 1h1l1-1-1-1-1 2Zm1 0 1 1 2-1-2-1-1 1Zm1 1 2 4 1-1-1-4-2 1Zm2 4h2-2Zm0 0-2 2 1 2 2-3-1-1Zm-2 2-3 3 1 2 3-3-1-2Zm-4 4v2h2v-2h-2Zm0 3 1 1 2-2-1-1-2 2Zm2 1 1-1-1-1h-1l1 2Zm0-1 2 1 1-2h-2l-1 1Zm1 1h1l1-1v-1l-2 2Zm1 0v1l2-1v-1l-2 1Zm0 0v1l2 1v-1l-2-1Zm0 1h-1l2 2v-1l-1-1Zm-1 1v2h1l1-2h-2Zm0 2 1 4 2-1-2-3h-1Zm1 2-3 2 1 2 3-2-1-2Zm-2 2h-2l1 2h1v-2Zm-2 1-1 1 1 1 1-1-1-1Zm-1 1-1 1 2 1 1-1-2-1Zm0 0-5 3 1 2 5-3-1-2Zm-4 3-2 1 1 1 1-2Zm-1-1-4-1-1 1 5 2v-2Zm-5-1 1 2v-1l-1-1Zm0 0v2-2Zm0 0h-2v2h2v-2Zm-2 0h-1l-1 2h2v-2Zm-1 0h-4v2h4v-2Zm-4 0-2-1v2l2 1v-2Zm-2-1-4 3 1 1 4-2-1-2Zm-5 3-2 3 1 1 3-3-2-1Zm-2 2v2-2Zm1 1-2-2-1 2 1 1 2-1Zm-2-2h-1l-1 2h2v-2Zm-2 0-3 1 1 2 3-1-1-2Zm-3 1h-3v2h3v-2Zm-4 0-2 1 1 2 2-1-1-2Zm-2 1h-2v2h3l-1-2Zm-3 1-1 2 2 1 1-2-2-1Zm-1 2-1 2 2 1 1-2-2-1Zm-1 3h2v-1l-2 1Zm0 0-1 1 2 1 1-1-2-1Zm0 1h-1l1 2v-2Zm-1 0-1 2h1v-2Zm-1 0v2h1l-1-2Zm-1 0-1 1 2 1h1l-2-2Zm-1 1-1 2 1 1 2-2-2-1Zm-1 2-1 2 2 1v-2l-1-1Zm-1 3 1 1 1-2-2 1Zm0 0h2-2Zm1-1v1l1 1-1-2Zm1 1-1-1-1 2h1l1-1Zm-1 0v-1l-2 1v1l2-1Zm0-1-3-2-1 1 2 2 2-1Zm-3-2-3-1-1 2 3 1 1-2Zm-3-1-1-1-2 1 2 2 1-2Zm-2-2h-2v2h2v-2Zm-2 0h-1v2h1v-2Zm-1 0-3-1-1 2 3 1 1-2Zm-3-1v-1l-2 2h1l1-1Zm-1-1-3-1v1l2 2 1-2Zm-2-1-1-1-1 2 2-1Zm-1-1-2-1v2l1 1 1-2Zm-2-1h-1v2h1v-2Zm-1 0-2-1-1 1 2 2 1-2Zm-3-2-2 1v2l2-1v-2Zm-2 1-4-1v2l3 1 1-2Zm-3 0v-1l-2 1h2Zm0 0v-1l-2-1v1l2 1Zm0-1 1-1-2-1-1 1 2 1Zm0-1 2-1-2-2-1 2 1 1Zm2-2v-1l-2 1h2Zm-1-1-2-1-1 2 2 1 1-2Zm-3-1-1 1 1 1h1l-1-2Zm0 0h-1v2l1-2Zm0 1v-1l-2 1v1l2-1Zm0 0-1-1h-1v1h2Zm-1-1 1-3h-2l-1 3h2Zm1-3v-2l-2 1v1h2Zm-1-2v-2l-2 1 1 2 1-1Zm0-2-1-3h-2l1 4 2-1Zm-1-3-1-2-2 1 2 2 1-1Zm-1-2v-1l-2 1h2Zm0 0v-4h-2v3l2 1Zm0-3 3-4-2-1-2 4 1 1Zm3-4v-3h-2v2l2 1Zm0-3h1l-2-2-1 1 2 1Zm0 0 2-1-1-2-2 1 1 2Zm2-1 2-2-1-1-2 1 1 2Zm2-2 2-2-2-1-1 2 1 1Zm2-2v-2h-2v1l2 1Zm0-2v-1l-1-1-1 1 2 1Zm0 0 1-1-1-2-1 1 1 2Zm2-2v-1l-1-1-1 1 2 1Zm1-2v-1h-2v1h2Zm-1 0 2-1-1-2-2 1 1 2Zm2-2 2-2-2-1-2 3h2Zm1-2h2v-2h-2v2Zm2 0h3l-1-2h-2v2Zm3-1h1l-2-1 1 1Zm1 0 2-4-2-1-2 4 2 1Zm2-4v-1l-1-1-1 1 2 1Zm1-1v-4l-2-1v4l2 1Zm0-4 1-1-2-1-1 1 2 1Zm0-1 2-1-1-2-2 2 1 1Zm2-1 2-1-1-2-2 1 1 2Zm1-1h1v-2h-1v2Zm1 0h1l1-2h-1l-1 2Zm2 0 1-1-1-1h-1l1 2Zm1-1 1-1-1-1-1 1 1 1Zm2-1v-3l-1-1-1 3 2 1Zm0-3 2-3-2-1-1 3 1 1Zm2-3v-1h-2v1h2Zm0-1-1-2-2 1 1 1h2Zm-1-1 1-3h-2l-1 3h2Zm1-2 1-3-2-1-1 3 2 1Zm1-4v-5h-2v5h2Zm0-4 1-1-1-1-1 1 1 1Zm1-1 1-3h-2l-1 2 2 1Zm1-2 2-3-2-1-2 3 2 1Zm2-4 1-1h-2l-1 1h2Zm1-1-1-3-2 1 1 2h2Zm-1-2 1-1-2-1-1 1 2 1Zm0-1h1l-1-2-1 1 1 1Zm2-1v-1l-2-1v2h2Zm0-1v-1h-2v1h2Zm0 0v-1l-2-1v1l2 1Zm0-1v-2h-2v2h2Zm0-2 1-1-2-1-1 1 2 1Zm1-1 1-2-1-1-2 2 2 1Zm1-1 1-1-1-1h-1l1 2Zm-1-2v2h2v-2h-2Zm0 2-1 1 2 1 1-1-2-1Zm-1 2v2h2v-2h-2Zm0 3h3v-2h-2l-1 2Zm2 0 3 1v-1l-2-1-1 1Zm3 1 4 1v-2l-4-1v2Zm3 1 3 1 1-1-3-2-1 2Zm3 1 4 2 1-2-4-1-1 1Zm5 2h1l-1-2h-1l1 2Zm1-1 2-6h-2l-2 5 2 1Zm2-6 1-2-2-1-1 2 2 1Zm1-2h1l-1-2-2 1 2 1Zm0-1 1 2 1-2-1-1-1 1Zm0 1 1 2 2-1-1-1h-2Zm1 2 1 4 2-1-1-4-2 1Zm1 4 1 2h2l-1-3-2 1Zm2 3h1v-2h-1v2Zm2 0 1-1-2-1-1 1 2 1Zm1-1v-1l-2-1v1l2 1Zm0-1-1-2-1 1 2 1Zm-1 0h3v-2h-2l-1 2Zm3 0h5l-1-2h-4v2Zm4-1v1l2-1h-2Zm0 0-1 2h2l1-1-2-1Zm0 3 3 1 1-1-3-2-1 2Zm3 2h3l1-2h-4v2Zm4 0v-2h-1l1 2Zm1-1 1-3h-2l-1 3h2Zm0-2v-2 2Zm-1 0 2 2 1-1-1-2-2 1Zm2 2 1 1v-2l-1 1Zm1 1 2-1-1-2-1 1v2Zm2-1 3-2-2-2-2 2 1 2Zm2-2 5-1-1-2-4 1v2Zm4-1h2v-2h-2v2Zm2 0 3-1-1-2-2 1v2Zm3-1 2-2-2-1-1 1 1 2Zm1-1 5-2v-2l-5 2v2Zm4-2 3 2 1-1-2-2-2 1Zm3 2h2-2Zm0-1-1 1 1 2 1-1-1-2Zm-2 2v2l2 1v-3h-2Zm0 3 2-1-2 1Zm1 1h1l1-1-2-1v2Zm1-1v1h2l-2-1Zm0 1h-1l2 1-1-1Zm0 0-2 1 1 2 2-1-1-2Zm-2 1-1 4 2 1 1-4-2-1Zm-1 4v2h2v-2h-2Zm0 2v3h2v-3h-2Zm0 4 2 3 2-1-2-3-2 1Zm2 3 3 3 2-2-4-2-1 1Zm3 2v1l2-1h-2Zm0 0-1 1 2 1 1-1-2-1Zm-1 2 2 1v-1h-2Zm0 1 1 1h2l-1-2-2 1Zm1 1v2l2-1v-1h-2Zm0 1v1h2l-2-1Zm0 0-1 2 1 2 2-2-2-2Zm-1 2-1 1 1 2 1-1-1-2Zm0 1h-4v2h3l1-2Zm-3 0-1-2-1 1v2l2-1Zm-1-2-2-1-1 1 2 2 1-2Zm-4-1-1 1 2 2 1-2-2-1Zm-1 2 1 4 2-1-1-3h-2Zm1 3h-1l2 2v-1l-1-1Zm0 0h-1l1 2v-2Zm0 0-3-1v2l2 1 1-2Zm-3-1h-1v2h1v-2Zm-2 1 1 1-1-1Zm0 0-1 3 2 1 1-3-2-1Zm0 5 1-2h-1v2Zm0-1v1l2-1-1-1-1 1Zm0 0v1l1 1 1-1-2-1Zm0 1-1 1 1 1 1-1-1-1Zm-1 1v2h2v-2h-2Zm0 3 2-1-2 1Zm1 1 1-2-1 2Zm0-1v4h2v-4h-2Zm1 3-1 1 2 1-1-2Zm0 1h-4l1 2 3-1v-1Zm-4 1-2 1 1 2 2-2-1-1Zm-2 1h-1v2h2l-1-2Z" fill="#0E4686" mask="url(#g)" />
    <path d="M397 318h-1l1 1v-1Zm1-2-1-1v1h1Zm0-1h1v-1l-1 1Zm0-3h1-1Zm-2-1 1-1h-1v1Zm-11 0v-1h-1l1 1Zm0 3v1l1-1h-1Zm-1 2-1-1v1h1Zm0 3h-1v1h1v-1Zm14 1h-1v1l1-1Zm0 2h1-1Zm-1 1 1 1-1-1Zm-1 2v-1h-1l1 1Zm0 1h-1v1l1-1Zm1 1-1 1 1-1Zm1 0Zm1 1h1-1Zm2 5h1l-1-1v1Zm0 0v1h1v-1h-1Zm-3 3 1 1-1-1Zm-3 3v-1h-1v1h1Zm0 2h-1v1l1-1Zm1 1-1 1h1v-1Zm1 0v-2l-1 1 1 1Zm1 0 1-1-1 1Zm1 1 1-1h-1v1Zm0 1h1v-1l-1 1Zm0 0v1h1l-1-1Zm-1 1-1-1v1h1Zm0 2h-2 2Zm1 3v1h1v-1h-1Zm-3 2v1-1Zm-1 0-1-1v1h1Zm-1 1h-1 1Zm-1 1 1 1-1-1Zm-4 3-1 1h1v-1Zm-1-1h1v-1h-1v1Zm-4-2v-1l-1 1h1Zm-1 1v1h1l-1-1Zm0 0v1-1Zm-2 0v1-1Zm-1 0v-1 1Zm-4 0v1-1Zm-2-1v-1 1Zm-4 3v-1h-1l1 1Zm-3 2v1h1l-1-1Zm0 0-1 1h1v-1Zm-1-1v-1 1Zm-2 0 1-1h-1v1Zm-3 1v1h1l-1-1Zm-3 0v-1h-1l1 1Zm-3 1 1 1-1-1Zm-2 0v-1l-1 1h1Zm-1 2h-1 1Zm-1 2h-1v1l1-1Zm0 1 1 1v-1h-1Zm-1 2v1l1-1h-1Zm-1 0v1h1l-1-1Zm-1 0 1-1h-1v1Zm0 0v-1h-1l1 1Zm-1 1-1-1 1 1Zm-2 2v-1 1Zm0 1h-1v1l1-1Zm0 1h1v-1l-1 1Zm0 0 1 1v-1h-1Zm0 1v1l1-1h-1Zm-1-1-1 1h1v-1Zm0 0 1-1-1 1Zm-2-2v-1 1Zm-3-1-1 1 1-1Zm-2-2h1-1v-1 1Zm-2 0v-1 1Zm-1 0-1 1h1v-1Zm-3-1h-1v1l1-1Zm-1-1 1-1h-1v1Zm-3-2-1 1h1v-1Zm-1 0 1-1-1 1Zm-1-1v-1 1Zm-1 0-1 1h1v-1Zm-3-2h1v-1h-1v1Zm-2 1-1 1h1v-1Zm-4-1h-1v1h1v-1Zm0 0-1-1v1h1Zm0-1-1-1 1 1Zm1-1-1-1 1 1Zm1-2 1 1v-1h-1Zm0 0 1-1h-1v1Zm-2-1v-1h-1l1 1Zm-1 0-1 1h1v-1Zm-1 0-1 1h1v-1Zm0 0h-1 1Zm-1-1h-1 1Zm1-3h1-1Zm0-1 1-1h-1v1Zm-1-3-1 1 1-1Zm-1-3h1-1Zm-1-2h-1v1l1-1Zm0-1h-1v1l1-1Zm0-3h-1 1Zm3-3h1-1Zm0-3-1-1v1h1Zm1-1-1-1 1 1Zm2-1v1-1Zm2-1Zm1-2h1-1Zm0-2-1-1v1h1Zm1-1-1-1 1 1Zm1-1v1l1-1h-1Zm1-2v1h1v-1h-1Zm0-1-1-1v1h1Zm1-1 1 1v-1h-1Zm2-3v-1l-1 1h1Zm2 0v1-1Zm3 0v1-1Zm0-1 1 1-1-1Zm2-4h-1 1Zm1-1v1h1l-1-1Zm0-4h-1 1Zm1 0-1-1 1 1Zm1-2v-1 1Zm2-1v-1 1Zm1 0 1-1h-1v1Zm1 0v1h1l-1-1Zm1 0h1-1Zm2-2v1h1l-1-1Zm1-3h-1 1Zm1-2h1-1Zm0-1h1-1Zm-1-1h-1 1Zm1-3h-1 1Zm1-3 1 1v-1h-1Zm0-5h-1 1Zm1 0h1-1Zm1-3h-1 1Zm2-3 1 1v-1h-1Zm1-1h1-1Zm-1-3h-1v1l1-1Zm1 0-1-1 1 1Zm1-1v1l1-1h-1Zm0-1h1-1Zm0-1h-1 1Zm0 0h1-1Zm0-2-1-1v1h1Zm1-1-1-1 1 1Zm2-2-1-1 1 1Zm0-1h1v-1l-1 1Zm0 2 1 1v-1h-1Zm-1 2-1-1v1h1Zm0 2h-1l-1 1h1l1-1Zm2 0v-1 1Zm2 1v1-1Zm4 1v-1 1Zm3 1-1 1 1-1Zm4 2-1 1h1v-1Zm0 0 1 1v-1h-1Zm2-6-1-1v1h1Zm1-2-1-1 1 1Zm1-1 1-1-1-1v2Zm1 1h1v-1l-1 1Zm1 2 1-1-1 1Zm1 3h1-1Zm1 3h-1v1h1v-1Zm1 0v1h1l-1-1Zm1 0h1-1Zm0-1-1-1 1 1Zm1-1v-1h-1l1 1Zm2 0v1-1Zm5 0h1l-1-1h-1l1 1Zm0 1h1v-1l-1 1Zm-1 1h-1v1h1v-1Zm3 2v1-1Zm3 0v1h1l-1-1Zm1 0v1h1v-1h-1Zm1-3v-1h-1v1h1Zm0 0h1v-1h-1v1Zm2 3h-1 1Zm0 0v1-1Zm2-1v1-1Zm2-2v-1h-1l1 1Zm4-1v-1 1Zm2 0v1-1Zm2-1 1 1-1-1Zm2-1v-1h-1l1 1Zm5-2h1l-1-1v1Zm3 3h1v-1h-1v1Zm0 0v1l1-1h-1Zm-2 1v-1h-1v1h1Zm0 2h-1v1l1-1Zm0 1h-1l1 1v-1Zm2 1h1v-1h-1v1Zm0 0v1h1v-1h-1Zm-1 1 1 1v-1h-1Zm-1 1-1-1 1 1Zm-1 3h-1 1Zm0 2h-1 1Zm0 3h-1v1l1-1Zm2 4h-1 1Zm3 2h1v-1l-1 1Zm0 0 1 1v-1h-1Zm-1 2-1-1v1h1Zm0 0h-1v1l1-1Zm1 2h1-1Zm0 1 1 1v-1h-1Zm0 1 1 1v-1h-1Zm-2 2 1 1-1-1Zm-1 1v1h1l-1-1Zm-3 0h-1l1 1v-1Zm-1-2 1-1-1 1Zm-2-1 1-1-1-1-1 1 1 1Zm-1 1-1-1v1h1Zm1 4h1v-1l-1 1Zm-1 0v1h1l-1-1Zm0 0-1 1h1v-1Zm-3-1v-1 1Zm-1 0v-1h-1v1h1Zm0 1-1-1 1 1Zm-1 3-1-1v1l1 1v-1Zm1 0v-1 1Zm0 1h1v-1l-1 1Zm-1 1h1-1Zm0 0h-1 1Zm0 2h-1v1l1-1Zm0 1h-1l1 1v-1Zm1 0h1v-1h-1v1Zm0 4 1 1v-1h-1Zm0 1h1-1Zm-3 0-1-1v1h1Zm-3 2 1 1-1-1Zm0-1-1-1-1 2v1l2-2Zm-1 0 1-2h-2l-1 2h2Zm1-2v-1l-2-1v1l2 1Zm0-2v-2h-2v3l2-1Zm0-2-2-2-1 1 1 2 2-1Zm-3-2h-11v2h11v-2Zm-12 0v4h2v-3l-2-1Zm0 4-1 1 2 1v-1l-1-1Zm-1 2v3h2v-3h-2Zm1 4h14v-2h-14v2Zm13-1v1l2 1v-2h-2Zm0 2v1h2v-2l-2 1Zm0 1-1 1 2 1 1-2h-2Zm0 1-1 1 1 1 1-1-1-1Zm-2 1v2h2v-1l-2-1Zm0 3 1 1 2-1-1-2-2 2Zm1 1h1l1-1-1-1-1 2Zm1 0 1 1 2-1-2-1-1 1Zm1 1 2 4 1-1-1-4-2 1Zm2 4h2-2Zm0 0-2 2 1 2 2-3-1-1Zm-2 2-3 3 1 2 3-3-1-2Zm-4 4v2h2v-2h-2Zm0 3 1 1 2-2-1-1-2 2Zm2 1 1-1-1-1h-1l1 2Zm0-1 2 1 1-2h-2l-1 1Zm1 1h1l1-1v-1l-2 2Zm1 0v1l2-1v-1l-2 1Zm0 0v1l2 1v-1l-2-1Zm0 1h-1l2 2v-1l-1-1Zm-1 1v2h1l1-2h-2Zm0 2 1 4 2-1-2-3h-1Zm1 2-3 2 1 2 3-2-1-2Zm-2 2h-2l1 2h1v-2Zm-2 1-1 1 1 1 1-1-1-1Zm-1 1-1 1 2 1 1-1-2-1Zm0 0-5 3 1 2 5-3-1-2Zm-4 3-2 1 1 1 1-2Zm-1-1-4-1-1 1 5 2v-2Zm-5-1 1 2v-1l-1-1Zm0 0v2-2Zm0 0h-2v2h2v-2Zm-2 0h-1l-1 2h2v-2Zm-1 0h-4v2h4v-2Zm-4 0-2-1v2l2 1v-2Zm-2-1-4 3 1 1 4-2-1-2Zm-5 3-2 3 1 1 3-3-2-1Zm-2 2v2-2Zm1 1-2-2-1 2 1 1 2-1Zm-2-2h-1l-1 2h2v-2Zm-2 0-3 1 1 2 3-1-1-2Zm-3 1h-3v2h3v-2Zm-4 0-2 1 1 2 2-1-1-2Zm-2 1h-2v2h3l-1-2Zm-3 1-1 2 2 1 1-2-2-1Zm-1 2-1 2 2 1 1-2-2-1Zm-1 3h2v-1l-2 1Zm0 0-1 1 2 1 1-1-2-1Zm0 1h-1l1 2v-2Zm-1 0-1 2h1v-2Zm-1 0v2h1l-1-2Zm-1 0-1 1 2 1h1l-2-2Zm-1 1-1 2 1 1 2-2-2-1Zm-1 2-1 2 2 1v-2l-1-1Zm-1 3 1 1 1-2-2 1Zm0 0h2-2Zm1-1v1l1 1-1-2Zm1 1-1-1-1 2h1l1-1Zm-1 0v-1l-2 1v1l2-1Zm0-1-3-2-1 1 2 2 2-1Zm-3-2-3-1-1 2 3 1 1-2Zm-3-1-1-1-2 1 2 2 1-2Zm-2-2h-2v2h2v-2Zm-2 0h-1v2h1v-2Zm-1 0-3-1-1 2 3 1 1-2Zm-3-1v-1l-2 2h1l1-1Zm-1-1-3-1v1l2 2 1-2Zm-2-1-1-1-1 2 2-1Zm-1-1-2-1v2l1 1 1-2Zm-2-1h-1v2h1v-2Zm-1 0-2-1-1 1 2 2 1-2Zm-3-2-2 1v2l2-1v-2Zm-2 1-4-1v2l3 1 1-2Zm-3 0v-1l-2 1h2Zm0 0v-1l-2-1v1l2 1Zm0-1 1-1-2-1-1 1 2 1Zm0-1 2-1-2-2-1 2 1 1Zm2-2v-1l-2 1h2Zm-1-1-2-1-1 2 2 1 1-2Zm-3-1-1 1 1 1h1l-1-2Zm0 0h-1v2l1-2Zm0 1v-1l-2 1v1l2-1Zm0 0-1-1h-1v1h2Zm-1-1 1-3h-2l-1 3h2Zm1-3v-2l-2 1v1h2Zm-1-2v-2l-2 1 1 2 1-1Zm0-2-1-3h-2l1 4 2-1Zm-1-3-1-2-2 1 2 2 1-1Zm-1-2v-1l-2 1h2Zm0 0v-4h-2v3l2 1Zm0-3 3-4-2-1-2 4 1 1Zm3-4v-3h-2v2l2 1Zm0-3h1l-2-2-1 1 2 1Zm0 0 2-1-1-2-2 1 1 2Zm2-1 2-2-1-1-2 1 1 2Zm2-2 2-2-2-1-1 2 1 1Zm2-2v-2h-2v1l2 1Zm0-2v-1l-1-1-1 1 2 1Zm0 0 1-1-1-2-1 1 1 2Zm2-2v-1l-1-1-1 1 2 1Zm1-2v-1h-2v1h2Zm-1 0 2-1-1-2-2 1 1 2Zm2-2 2-2-2-1-2 3h2Zm1-2h2v-2h-2v2Zm2 0h3l-1-2h-2v2Zm3-1h1l-2-1 1 1Zm1 0 2-4-2-1-2 4 2 1Zm2-4v-1l-1-1-1 1 2 1Zm1-1v-4l-2-1v4l2 1Zm0-4 1-1-2-1-1 1 2 1Zm0-1 2-1-1-2-2 2 1 1Zm2-1 2-1-1-2-2 1 1 2Zm1-1h1v-2h-1v2Zm1 0h1l1-2h-1l-1 2Zm2 0 1-1-1-1h-1l1 2Zm1-1 1-1-1-1-1 1 1 1Zm2-1v-3l-1-1-1 3 2 1Zm0-3 2-3-2-1-1 3 1 1Zm2-3v-1h-2v1h2Zm0-1-1-2-2 1 1 1h2Zm-1-1 1-3h-2l-1 3h2Zm1-2 1-3-2-1-1 3 2 1Zm1-4v-5h-2v5h2Zm0-4 1-1-1-1-1 1 1 1Zm1-1 1-3h-2l-1 2 2 1Zm1-2 2-3-2-1-2 3 2 1Zm2-4 1-1h-2l-1 1h2Zm1-1-1-3-2 1 1 2h2Zm-1-2 1-1-2-1-1 1 2 1Zm0-1h1l-1-2-1 1 1 1Zm2-1v-1l-2-1v2h2Zm0-1v-1h-2v1h2Zm0 0v-1l-2-1v1l2 1Zm0-1v-2h-2v2h2Zm0-2 1-1-2-1-1 1 2 1Zm1-1 1-2-1-1-2 2 2 1Zm1-1 1-1-1-1h-1l1 2Zm-1-2v2h2v-2h-2Zm0 2-1 1 2 1 1-1-2-1Zm-1 2v2h2v-2h-2Zm0 3h3v-2h-2l-1 2Zm2 0 3 1v-1l-2-1-1 1Zm3 1 4 1v-2l-4-1v2Zm3 1 3 1 1-1-3-2-1 2Zm3 1 4 2 1-2-4-1-1 1Zm5 2h1l-1-2h-1l1 2Zm1-1 2-6h-2l-2 5 2 1Zm2-6 1-2-2-1-1 2 2 1Zm1-2h1l-1-2-2 1 2 1Zm0-1 1 2 1-2-1-1-1 1Zm0 1 1 2 2-1-1-1h-2Zm1 2 1 4 2-1-1-4-2 1Zm1 4 1 2h2l-1-3-2 1Zm2 3h1v-2h-1v2Zm2 0 1-1-2-1-1 1 2 1Zm1-1v-1l-2-1v1l2 1Zm0-1-1-2-1 1 2 1Zm-1 0h3v-2h-2l-1 2Zm3 0h5l-1-2h-4v2Zm4-1v1l2-1h-2Zm0 0-1 2h2l1-1-2-1Zm0 3 3 1 1-1-3-2-1 2Zm3 2h3l1-2h-4v2Zm4 0v-2h-1l1 2Zm1-1 1-3h-2l-1 3h2Zm0-2v-2 2Zm-1 0 2 2 1-1-1-2-2 1Zm2 2 1 1v-2l-1 1Zm1 1 2-1-1-2-1 1v2Zm2-1 3-2-2-2-2 2 1 2Zm2-2 5-1-1-2-4 1v2Zm4-1h2v-2h-2v2Zm2 0 3-1-1-2-2 1v2Zm3-1 2-2-2-1-1 1 1 2Zm1-1 5-2v-2l-5 2v2Zm4-2 3 2 1-1-2-2-2 1Zm3 2h2-2Zm0-1-1 1 1 2 1-1-1-2Zm-2 2v2l2 1v-3h-2Zm0 3 2-1-2 1Zm1 1h1l1-1-2-1v2Zm1-1v1h2l-2-1Zm0 1h-1l2 1-1-1Zm0 0-2 1 1 2 2-1-1-2Zm-2 1-1 4 2 1 1-4-2-1Zm-1 4v2h2v-2h-2Zm0 2v3h2v-3h-2Zm0 4 2 3 2-1-2-3-2 1Zm2 3 3 3 2-2-4-2-1 1Zm3 2v1l2-1h-2Zm0 0-1 1 2 1 1-1-2-1Zm-1 2 2 1v-1h-2Zm0 1 1 1h2l-1-2-2 1Zm1 1v2l2-1v-1h-2Zm0 1v1h2l-2-1Zm0 0-1 2 1 2 2-2-2-2Zm-1 2-1 1 1 2 1-1-1-2Zm0 1h-4v2h3l1-2Zm-3 0-1-2-1 1v2l2-1Zm-1-2-2-1-1 1 2 2 1-2Zm-4-1-1 1 2 2 1-2-2-1Zm-1 2 1 4 2-1-1-3h-2Zm1 3h-1l2 2v-1l-1-1Zm0 0h-1l1 2v-2Zm0 0-3-1v2l2 1 1-2Zm-3-1h-1v2h1v-2Zm-2 1 1 1-1-1Zm0 0-1 3 2 1 1-3-2-1Zm0 5 1-2h-1v2Zm0-1v1l2-1-1-1-1 1Zm0 0v1l1 1 1-1-2-1Zm0 1-1 1 1 1 1-1-1-1Zm-1 1v2h2v-2h-2Zm0 3 2-1-2 1Zm1 1 1-2-1 2Zm0-1v4h2v-4h-2Zm1 3-1 1 2 1-1-2Zm0 1h-4l1 2 3-1v-1Zm-4 1-2 1 1 2 2-2-1-1Zm-2 1h-1v2h2l-1-2Z" fill="#000" fill-opacity=".2" mask="url(#g)" />
    <mask id="h" fill="#fff">
      <path d="M438 123v1l-2 2v1l2-1v-2l2-1 1-1 1-6 1-1h1l2-1h1v2l-1 2-4 2h2l1-1v1l-1 1h1l4-5h7l-1-2 1-1 2 1h2l2 1h1l2 1h2l1 2 2 1h3l1 1h2l2 1v-2h2l-1 2 1 1v1l-2 3-4 3-3 1h-1l-3 3v2l-1 1-1 2-1 2h-1v3l1 1v2l-1 3 2 3v6l-4 4v6l2 2 2 1v1l-1 3v2l-2 2h-3l-2 1h-2l-2-2h-3l-1 1h-1v-1l-1 1-2 2-1 1-2 2-2 1-3 2-1 1h-1l-1 1-1 1h-3l-3 1-2 1v3l-1 3v2l-2 3v1l-1 1-1 3-1 1-1 2 1 2v3l2 3-1 2v6l-1 2-1 1v2l-1-1-1-1h-3l-2-2-1-3-2-1v-2l2-2-4-2-1-1v-3l-1-1h-3l1-1 2-3v-1l1-2v-2h1l1-1h3v-1l1-4-1-1-1-1-4 1-2 1-3-3v-1l-3-4h-1l-1-1 1-1v-1h-1l-1-1v1l-2-2 2-1 1-2 1-1-1-1 1-3 1-6v-1l-1-1 1-4-1-1v-3l-1-1-4-2h-1v-1l-1-1h-1l-1 1-2-1-2-1h-3l-2 2-1 1 14-12 2 1 1-1 2-2v-1l1-1 1-3 1-1 2-2 1-1v-2l2-4 2-2 1-1 1-2v-3l1-1-1-1 3-3v-2l1-2 1-1 1-1 1-3v-2h-2v-1h1l1-1v-5l1-1v-1h1v-1l1-1 1 1 1 2h1l1-1v3h1v-2h1l2 1-1 2 1 1 1-2v-1h1v1l-1 1v4h1l1-1v-1l1-2h1l2 1 2-1-1 1-1 1 1 1v-1h2v2l1 1h1l1 1 1 2v1l-2 2v2-1l2-2h1l1 1v3h-1l-1 1-1 1v1l-1 2-1 4h1Zm1 1v-4l1-1v3l-1 1v1Zm-6-25h-1v-1l1-1h1l1 1h-1l-1 1Zm3 4v-1l1-1v1h1v1h-2Zm-13-4h-1l1-4h1l-1 3v1Z" />
    </mask>
    <path d="M438 123v1l-2 2v1l2-1v-2l2-1 1-1 1-6 1-1h1l2-1h1v2l-1 2-4 2h2l1-1v1l-1 1h1l4-5h7l-1-2 1-1 2 1h2l2 1h1l2 1h2l1 2 2 1h3l1 1h2l2 1v-2h2l-1 2 1 1v1l-2 3-4 3-3 1h-1l-3 3v2l-1 1-1 2-1 2h-1v3l1 1v2l-1 3 2 3v6l-4 4v6l2 2 2 1v1l-1 3v2l-2 2h-3l-2 1h-2l-2-2h-3l-1 1h-1v-1l-1 1-2 2-1 1-2 2-2 1-3 2-1 1h-1l-1 1-1 1h-3l-3 1-2 1v3l-1 3v2l-2 3v1l-1 1-1 3-1 1-1 2 1 2v3l2 3-1 2v6l-1 2-1 1v2l-1-1-1-1h-3l-2-2-1-3-2-1v-2l2-2-4-2-1-1v-3l-1-1h-3l1-1 2-3v-1l1-2v-2h1l1-1h3v-1l1-4-1-1-1-1-4 1-2 1-3-3v-1l-3-4h-1l-1-1 1-1v-1h-1l-1-1v1l-2-2 2-1 1-2 1-1-1-1 1-3 1-6v-1l-1-1 1-4-1-1v-3l-1-1-4-2h-1v-1l-1-1h-1l-1 1-2-1-2-1h-3l-2 2-1 1 14-12 2 1 1-1 2-2v-1l1-1 1-3 1-1 2-2 1-1v-2l2-4 2-2 1-1 1-2v-3l1-1-1-1 3-3v-2l1-2 1-1 1-1 1-3v-2h-2v-1h1l1-1v-5l1-1v-1h1v-1l1-1 1 1 1 2h1l1-1v3h1v-2h1l2 1-1 2 1 1 1-2v-1h1v1l-1 1v4h1l1-1v-1l1-2h1l2 1 2-1-1 1-1 1 1 1v-1h2v2l1 1h1l1 1 1 2v1l-2 2v2-1l2-2h1l1 1v3h-1l-1 1-1 1v1l-1 2-1 4h1Zm1 1v-4l1-1v3l-1 1v1Zm-6-25h-1v-1l1-1h1l1 1h-1l-1 1Zm3 4v-1l1-1v1h1v1h-2Zm-13-4h-1l1-4h1l-1 3v1Z" fill="#fff" />
    <path d="M438 123v1l-2 2v1l2-1v-2l2-1 1-1 1-6 1-1h1l2-1h1v2l-1 2-4 2h2l1-1v1l-1 1h1l4-5h7l-1-2 1-1 2 1h2l2 1h1l2 1h2l1 2 2 1h3l1 1h2l2 1v-2h2l-1 2 1 1v1l-2 3-4 3-3 1h-1l-3 3v2l-1 1-1 2-1 2h-1v3l1 1v2l-1 3 2 3v6l-4 4v6l2 2 2 1v1l-1 3v2l-2 2h-3l-2 1h-2l-2-2h-3l-1 1h-1v-1l-1 1-2 2-1 1-2 2-2 1-3 2-1 1h-1l-1 1-1 1h-3l-3 1-2 1v3l-1 3v2l-2 3v1l-1 1-1 3-1 1-1 2 1 2v3l2 3-1 2v6l-1 2-1 1v2l-1-1-1-1h-3l-2-2-1-3-2-1v-2l2-2-4-2-1-1v-3l-1-1h-3l1-1 2-3v-1l1-2v-2h1l1-1h3v-1l1-4-1-1-1-1-4 1-2 1-3-3v-1l-3-4h-1l-1-1 1-1v-1h-1l-1-1v1l-2-2 2-1 1-2 1-1-1-1 1-3 1-6v-1l-1-1 1-4-1-1v-3l-1-1-4-2h-1v-1l-1-1h-1l-1 1-2-1-2-1h-3l-2 2-1 1 14-12 2 1 1-1 2-2v-1l1-1 1-3 1-1 2-2 1-1v-2l2-4 2-2 1-1 1-2v-3l1-1-1-1 3-3v-2l1-2 1-1 1-1 1-3v-2h-2v-1h1l1-1v-5l1-1v-1h1v-1l1-1 1 1 1 2h1l1-1v3h1v-2h1l2 1-1 2 1 1 1-2v-1h1v1l-1 1v4h1l1-1v-1l1-2h1l2 1 2-1-1 1-1 1 1 1v-1h2v2l1 1h1l1 1 1 2v1l-2 2v2-1l2-2h1l1 1v3h-1l-1 1-1 1v1l-1 2-1 4h1Zm1 1v-4l1-1v3l-1 1v1Zm-6-25h-1v-1l1-1h1l1 1h-1l-1 1Zm3 4v-1l1-1v1h1v1h-2Zm-13-4h-1l1-4h1l-1 3v1Z" stroke="#0E4686" stroke-width="2" mask="url(#h)" />
    <path d="M438 123v1l-2 2v1l2-1v-2l2-1 1-1 1-6 1-1h1l2-1h1v2l-1 2-4 2h2l1-1v1l-1 1h1l4-5h7l-1-2 1-1 2 1h2l2 1h1l2 1h2l1 2 2 1h3l1 1h2l2 1v-2h2l-1 2 1 1v1l-2 3-4 3-3 1h-1l-3 3v2l-1 1-1 2-1 2h-1v3l1 1v2l-1 3 2 3v6l-4 4v6l2 2 2 1v1l-1 3v2l-2 2h-3l-2 1h-2l-2-2h-3l-1 1h-1v-1l-1 1-2 2-1 1-2 2-2 1-3 2-1 1h-1l-1 1-1 1h-3l-3 1-2 1v3l-1 3v2l-2 3v1l-1 1-1 3-1 1-1 2 1 2v3l2 3-1 2v6l-1 2-1 1v2l-1-1-1-1h-3l-2-2-1-3-2-1v-2l2-2-4-2-1-1v-3l-1-1h-3l1-1 2-3v-1l1-2v-2h1l1-1h3v-1l1-4-1-1-1-1-4 1-2 1-3-3v-1l-3-4h-1l-1-1 1-1v-1h-1l-1-1v1l-2-2 2-1 1-2 1-1-1-1 1-3 1-6v-1l-1-1 1-4-1-1v-3l-1-1-4-2h-1v-1l-1-1h-1l-1 1-2-1-2-1h-3l-2 2-1 1 14-12 2 1 1-1 2-2v-1l1-1 1-3 1-1 2-2 1-1v-2l2-4 2-2 1-1 1-2v-3l1-1-1-1 3-3v-2l1-2 1-1 1-1 1-3v-2h-2v-1h1l1-1v-5l1-1v-1h1v-1l1-1 1 1 1 2h1l1-1v3h1v-2h1l2 1-1 2 1 1 1-2v-1h1v1l-1 1v4h1l1-1v-1l1-2h1l2 1 2-1-1 1-1 1 1 1v-1h2v2l1 1h1l1 1 1 2v1l-2 2v2-1l2-2h1l1 1v3h-1l-1 1-1 1v1l-1 2-1 4h1Zm1 1v-4l1-1v3l-1 1v1Zm-6-25h-1v-1l1-1h1l1 1h-1l-1 1Zm3 4v-1l1-1v1h1v1h-2Zm-13-4h-1l1-4h1l-1 3v1Z" stroke="#000" stroke-opacity=".2" stroke-width="2" mask="url(#h)" />
    <mask id="i" fill="#fff">
      <path d="m504 349-1-1h-5l-1 1h-3l2 2v1h-1l-1-1h-1l-2 1-1 2v1h2v5h1v2h-4v1h2l1 1 1 3v5l-2 2-1 1v2l-1 2-1 2-1 3h-6l-1 2h-1l1 3-1 2v2l-2 2h-1l-1 1 1 1-2 5-2 4v1h1v1l-2 1-9 4h-2l-2-1h-1l-2 1-1 1h-3v-1h-1l-4 2-1 1-1 1-1-1h-2l-3 2h-2l-1 1-1 1h-2l-2 1-1 1-2 1h-4v-2l-1 1v3l-1 1h-2l-3 1v-1l-2 1-1-1-2-3 1-1-1-1-1-1-2-1-1-2 1-1v-6l1-3 1-2v-2l-4-1h-1v1h-2v-1l-1-2-1-1v-3h-1l-1-1 1-2 1-2v-2l-2-1h-1l1-3v-2l-3-3h-1l-1 1-2-1h-2v2l-3 1h-1l-2-2-1 1-7 1-1 1v4l-2-1v-4h-1v1l-1 1h-1l-1-2-1-1 1-1-2-1-2-1-2 1-2-1-1 1-4-1h-3l-1-2h-1l-2 1-1 1-2 1-2 1-1 1v-6l1-4 1 1v-3l2-2 1-1h2l1-2v-1l1-2 1-2h2l3-1h3l3-1h2l1 1 3-2 4-3 2 1h7l1-1 4 2 1 1 4-3 1-1 1-1h1l3-2-1-3v-2l1-1v-1l-1-1h-2l-1-1v-2l3-3 3-3-2-5-1-1h-1l-1-1v-1l1-2 1-1v-3h1l3-2h3v-5h-1v-3l1-1v-1h-1l1-3v-1h1l3 1h1l-1-4 1-1 2 1 1 2h3l1-1 1 2-2 4h1l1-1 1-1h3l1-1 1-2h3l1-2 1-1h2l3-2 1-1 4-3 4-2 1 1h4l2 1h1l-2 3 1 2 5 2h1l1-2h1l2-1 3 1 1 1 4 3h1l2 1 2 2h2l1 1 4-1h1l6 6v4l1-1 2 1 2-1 1-1h2l3 1 2 1 2 1h2l3 2h1l1 1v1l-1 3-5 4v5h-3l-1 1v3l-1 4h1v-1l1 2v1l4 3v4Z" />
    </mask>
    <path d="m504 349-1-1h-5l-1 1h-3l2 2v1h-1l-1-1h-1l-2 1-1 2v1h2v5h1v2h-4v1h2l1 1 1 3v5l-2 2-1 1v2l-1 2-1 2-1 3h-6l-1 2h-1l1 3-1 2v2l-2 2h-1l-1 1 1 1-2 5-2 4v1h1v1l-2 1-9 4h-2l-2-1h-1l-2 1-1 1h-3v-1h-1l-4 2-1 1-1 1-1-1h-2l-3 2h-2l-1 1-1 1h-2l-2 1-1 1-2 1h-4v-2l-1 1v3l-1 1h-2l-3 1v-1l-2 1-1-1-2-3 1-1-1-1-1-1-2-1-1-2 1-1v-6l1-3 1-2v-2l-4-1h-1v1h-2v-1l-1-2-1-1v-3h-1l-1-1 1-2 1-2v-2l-2-1h-1l1-3v-2l-3-3h-1l-1 1-2-1h-2v2l-3 1h-1l-2-2-1 1-7 1-1 1v4l-2-1v-4h-1v1l-1 1h-1l-1-2-1-1 1-1-2-1-2-1-2 1-2-1-1 1-4-1h-3l-1-2h-1l-2 1-1 1-2 1-2 1-1 1v-6l1-4 1 1v-3l2-2 1-1h2l1-2v-1l1-2 1-2h2l3-1h3l3-1h2l1 1 3-2 4-3 2 1h7l1-1 4 2 1 1 4-3 1-1 1-1h1l3-2-1-3v-2l1-1v-1l-1-1h-2l-1-1v-2l3-3 3-3-2-5-1-1h-1l-1-1v-1l1-2 1-1v-3h1l3-2h3v-5h-1v-3l1-1v-1h-1l1-3v-1h1l3 1h1l-1-4 1-1 2 1 1 2h3l1-1 1 2-2 4h1l1-1 1-1h3l1-1 1-2h3l1-2 1-1h2l3-2 1-1 4-3 4-2 1 1h4l2 1h1l-2 3 1 2 5 2h1l1-2h1l2-1 3 1 1 1 4 3h1l2 1 2 2h2l1 1 4-1h1l6 6v4l1-1 2 1 2-1 1-1h2l3 1 2 1 2 1h2l3 2h1l1 1v1l-1 3-5 4v5h-3l-1 1v3l-1 4h1v-1l1 2v1l4 3v4Z" fill="#fff" />
    <path d="m504 349-1-1h-5l-1 1h-3l2 2v1h-1l-1-1h-1l-2 1-1 2v1h2v5h1v2h-4v1h2l1 1 1 3v5l-2 2-1 1v2l-1 2-1 2-1 3h-6l-1 2h-1l1 3-1 2v2l-2 2h-1l-1 1 1 1-2 5-2 4v1h1v1l-2 1-9 4h-2l-2-1h-1l-2 1-1 1h-3v-1h-1l-4 2-1 1-1 1-1-1h-2l-3 2h-2l-1 1-1 1h-2l-2 1-1 1-2 1h-4v-2l-1 1v3l-1 1h-2l-3 1v-1l-2 1-1-1-2-3 1-1-1-1-1-1-2-1-1-2 1-1v-6l1-3 1-2v-2l-4-1h-1v1h-2v-1l-1-2-1-1v-3h-1l-1-1 1-2 1-2v-2l-2-1h-1l1-3v-2l-3-3h-1l-1 1-2-1h-2v2l-3 1h-1l-2-2-1 1-7 1-1 1v4l-2-1v-4h-1v1l-1 1h-1l-1-2-1-1 1-1-2-1-2-1-2 1-2-1-1 1-4-1h-3l-1-2h-1l-2 1-1 1-2 1-2 1-1 1v-6l1-4 1 1v-3l2-2 1-1h2l1-2v-1l1-2 1-2h2l3-1h3l3-1h2l1 1 3-2 4-3 2 1h7l1-1 4 2 1 1 4-3 1-1 1-1h1l3-2-1-3v-2l1-1v-1l-1-1h-2l-1-1v-2l3-3 3-3-2-5-1-1h-1l-1-1v-1l1-2 1-1v-3h1l3-2h3v-5h-1v-3l1-1v-1h-1l1-3v-1h1l3 1h1l-1-4 1-1 2 1 1 2h3l1-1 1 2-2 4h1l1-1 1-1h3l1-1 1-2h3l1-2 1-1h2l3-2 1-1 4-3 4-2 1 1h4l2 1h1l-2 3 1 2 5 2h1l1-2h1l2-1 3 1 1 1 4 3h1l2 1 2 2h2l1 1 4-1h1l6 6v4l1-1 2 1 2-1 1-1h2l3 1 2 1 2 1h2l3 2h1l1 1v1l-1 3-5 4v5h-3l-1 1v3l-1 4h1v-1l1 2v1l4 3v4Z" stroke="#0E4686" stroke-width="2" mask="url(#i)" />
    <path d="m504 349-1-1h-5l-1 1h-3l2 2v1h-1l-1-1h-1l-2 1-1 2v1h2v5h1v2h-4v1h2l1 1 1 3v5l-2 2-1 1v2l-1 2-1 2-1 3h-6l-1 2h-1l1 3-1 2v2l-2 2h-1l-1 1 1 1-2 5-2 4v1h1v1l-2 1-9 4h-2l-2-1h-1l-2 1-1 1h-3v-1h-1l-4 2-1 1-1 1-1-1h-2l-3 2h-2l-1 1-1 1h-2l-2 1-1 1-2 1h-4v-2l-1 1v3l-1 1h-2l-3 1v-1l-2 1-1-1-2-3 1-1-1-1-1-1-2-1-1-2 1-1v-6l1-3 1-2v-2l-4-1h-1v1h-2v-1l-1-2-1-1v-3h-1l-1-1 1-2 1-2v-2l-2-1h-1l1-3v-2l-3-3h-1l-1 1-2-1h-2v2l-3 1h-1l-2-2-1 1-7 1-1 1v4l-2-1v-4h-1v1l-1 1h-1l-1-2-1-1 1-1-2-1-2-1-2 1-2-1-1 1-4-1h-3l-1-2h-1l-2 1-1 1-2 1-2 1-1 1v-6l1-4 1 1v-3l2-2 1-1h2l1-2v-1l1-2 1-2h2l3-1h3l3-1h2l1 1 3-2 4-3 2 1h7l1-1 4 2 1 1 4-3 1-1 1-1h1l3-2-1-3v-2l1-1v-1l-1-1h-2l-1-1v-2l3-3 3-3-2-5-1-1h-1l-1-1v-1l1-2 1-1v-3h1l3-2h3v-5h-1v-3l1-1v-1h-1l1-3v-1h1l3 1h1l-1-4 1-1 2 1 1 2h3l1-1 1 2-2 4h1l1-1 1-1h3l1-1 1-2h3l1-2 1-1h2l3-2 1-1 4-3 4-2 1 1h4l2 1h1l-2 3 1 2 5 2h1l1-2h1l2-1 3 1 1 1 4 3h1l2 1 2 2h2l1 1 4-1h1l6 6v4l1-1 2 1 2-1 1-1h2l3 1 2 1 2 1h2l3 2h1l1 1v1l-1 3-5 4v5h-3l-1 1v3l-1 4h1v-1l1 2v1l4 3v4Z" stroke="#000" stroke-opacity=".2" stroke-width="2" mask="url(#i)" />
    <mask id="j" fill="#fff">
      <path d="M343 382v2l-1 1h-2l-1 1-1 1-2 2v1h-1l-1 2v2l-3 4h-1v4l-1 2-2 2 1 1-1 1-1 1v1l-2 2-1 2-2 2-7 4-1 1-1 2-1 1-5 2-1 1-1 2v1l-1 3-1 1-2 1h-1v1l-2 7v1l-2 1-3-2-3-2-4 2v1h-2l-2 1-3-1h-1v-5l-1-1v-3l-1-1v-5l-1-3v-3l-1-1v-1l-1-2-1-2h-5l-3-2v-2l-2 1-2 2h-1l-1 1h-1l-2-1h-6l-3-1-1-1h-2l-1 1-2-1 1-7v-4l1-1 1-6-1-2v-2l-1-1-1 1v-3l-1-2-1-2-1-2 4-2 1-1-4-3 5-11h1v-2l-1-1 3-9 1-2-3-5v-2h1l1 1 2 2 5-2 2-2 2-3v-1l1-1h3l1-1 1 1 2-1 1-1h3l1 1 3 1 2 1h1v1l1 1 3 1 1 1h5l1-1 1-1h4l1 1v1h2l2-1 1 1 5-6h1l-1 6-2 1-1 2v1h1l2 2h4l1-1h3l1 1h2v1l-1 3 1 1h2l2 1-1 2-1 1v1l4 1 2-1 3 2h1l1 1h1l3 2 1 1 3 1h3l2 2 3 1 2 2-1 4v6Z" />
    </mask>
    <path d="M343 382v2l-1 1h-2l-1 1-1 1-2 2v1h-1l-1 2v2l-3 4h-1v4l-1 2-2 2 1 1-1 1-1 1v1l-2 2-1 2-2 2-7 4-1 1-1 2-1 1-5 2-1 1-1 2v1l-1 3-1 1-2 1h-1v1l-2 7v1l-2 1-3-2-3-2-4 2v1h-2l-2 1-3-1h-1v-5l-1-1v-3l-1-1v-5l-1-3v-3l-1-1v-1l-1-2-1-2h-5l-3-2v-2l-2 1-2 2h-1l-1 1h-1l-2-1h-6l-3-1-1-1h-2l-1 1-2-1 1-7v-4l1-1 1-6-1-2v-2l-1-1-1 1v-3l-1-2-1-2-1-2 4-2 1-1-4-3 5-11h1v-2l-1-1 3-9 1-2-3-5v-2h1l1 1 2 2 5-2 2-2 2-3v-1l1-1h3l1-1 1 1 2-1 1-1h3l1 1 3 1 2 1h1v1l1 1 3 1 1 1h5l1-1 1-1h4l1 1v1h2l2-1 1 1 5-6h1l-1 6-2 1-1 2v1h1l2 2h4l1-1h3l1 1h2v1l-1 3 1 1h2l2 1-1 2-1 1v1l4 1 2-1 3 2h1l1 1h1l3 2 1 1 3 1h3l2 2 3 1 2 2-1 4v6Z" fill="#fff" />
    <path d="M343 382v2l-1 1h-2l-1 1-1 1-2 2v1h-1l-1 2v2l-3 4h-1v4l-1 2-2 2 1 1-1 1-1 1v1l-2 2-1 2-2 2-7 4-1 1-1 2-1 1-5 2-1 1-1 2v1l-1 3-1 1-2 1h-1v1l-2 7v1l-2 1-3-2-3-2-4 2v1h-2l-2 1-3-1h-1v-5l-1-1v-3l-1-1v-5l-1-3v-3l-1-1v-1l-1-2-1-2h-5l-3-2v-2l-2 1-2 2h-1l-1 1h-1l-2-1h-6l-3-1-1-1h-2l-1 1-2-1 1-7v-4l1-1 1-6-1-2v-2l-1-1-1 1v-3l-1-2-1-2-1-2 4-2 1-1-4-3 5-11h1v-2l-1-1 3-9 1-2-3-5v-2h1l1 1 2 2 5-2 2-2 2-3v-1l1-1h3l1-1 1 1 2-1 1-1h3l1 1 3 1 2 1h1v1l1 1 3 1 1 1h5l1-1 1-1h4l1 1v1h2l2-1 1 1 5-6h1l-1 6-2 1-1 2v1h1l2 2h4l1-1h3l1 1h2v1l-1 3 1 1h2l2 1-1 2-1 1v1l4 1 2-1 3 2h1l1 1h1l3 2 1 1 3 1h3l2 2 3 1 2 2-1 4v6Z" stroke="#0E4686" stroke-width="2" mask="url(#j)" />
    <path d="M343 382v2l-1 1h-2l-1 1-1 1-2 2v1h-1l-1 2v2l-3 4h-1v4l-1 2-2 2 1 1-1 1-1 1v1l-2 2-1 2-2 2-7 4-1 1-1 2-1 1-5 2-1 1-1 2v1l-1 3-1 1-2 1h-1v1l-2 7v1l-2 1-3-2-3-2-4 2v1h-2l-2 1-3-1h-1v-5l-1-1v-3l-1-1v-5l-1-3v-3l-1-1v-1l-1-2-1-2h-5l-3-2v-2l-2 1-2 2h-1l-1 1h-1l-2-1h-6l-3-1-1-1h-2l-1 1-2-1 1-7v-4l1-1 1-6-1-2v-2l-1-1-1 1v-3l-1-2-1-2-1-2 4-2 1-1-4-3 5-11h1v-2l-1-1 3-9 1-2-3-5v-2h1l1 1 2 2 5-2 2-2 2-3v-1l1-1h3l1-1 1 1 2-1 1-1h3l1 1 3 1 2 1h1v1l1 1 3 1 1 1h5l1-1 1-1h4l1 1v1h2l2-1 1 1 5-6h1l-1 6-2 1-1 2v1h1l2 2h4l1-1h3l1 1h2v1l-1 3 1 1h2l2 1-1 2-1 1v1l4 1 2-1 3 2h1l1 1h1l3 2 1 1 3 1h3l2 2 3 1 2 2-1 4v6Z" stroke="#000" stroke-opacity=".2" stroke-width="2" mask="url(#j)" />
    <mask id="k" fill="#fff">
      <path d="m198 283 1-2 4-2 1-2 1-4 1-1h2v-1l1-1v-2l2-2v-7l-2-3h-1v-1l-1-3 1-1 1-1 1-2-1-4h-5l-2-1 1-1h-17l1-8-1-3-1-2 1-4v-2l1-1-1-2v-2l-1-1 1-5 1-1-1-1-1-1 46-1h1l1-5 1-4v-2l-1-2 1-1v-1l1-1 1-1-1-1v-1l1-1 1-1 1 1 2 4 1 2 1 4 1 2 1 1v5l1 2 1 1 3 2 3 2 1 1v2h3l1 1v1h1l4 1 32 2 61 4-1 1-1 2-1 1v4h-1l-2 5v6l-2 5v1l1 1v1l-1 1v1l1 2v4l1 1v3l-1 2 1 4h2v2l-1 1h-1l1 3-1 1-2 3-1 3h-1v5l-1 3-1 3 1 1v1l-1 2-1 3-2 2h-3l-2 1-1 2h-1v4l-1 1-2 4v1h-5l-2 3-1 1v1l-1 2-1 1-1 1v2l-1 2-2 1-2 1-1 1v3l-3 3v4l1 2 1 3 1 3h-2l-1-1h-3l-1 1h-4l-2-2h-1v-1l1-2 2-1 1-6h-1l-5 6-1-1-2 1h-2v-1l-1-1h-4l-1 1-1 1h-5l-1-1-3-1-1-1v-1h-1l-2-1-3-1-1-1h-3l-1 1-2 1-1-1-1 1h-3l-1 1v1l-2 3-2 2-5 2-2-2-1-1h-1l-1-1 1-1-3-2-1 1-2-1v-1l-2-1-2-1v-1l-1-3v-5l1-2 1-1v-3h-2l-25-1-1-12-6-6h5v-7l-3-5v-3h1v-2l-1-2-3-1-1-1Z" />
    </mask>
    <path d="m198 283 1-2 4-2 1-2 1-4 1-1h2v-1l1-1v-2l2-2v-7l-2-3h-1v-1l-1-3 1-1 1-1 1-2-1-4h-5l-2-1 1-1h-17l1-8-1-3-1-2 1-4v-2l1-1-1-2v-2l-1-1 1-5 1-1-1-1-1-1 46-1h1l1-5 1-4v-2l-1-2 1-1v-1l1-1 1-1-1-1v-1l1-1 1-1 1 1 2 4 1 2 1 4 1 2 1 1v5l1 2 1 1 3 2 3 2 1 1v2h3l1 1v1h1l4 1 32 2 61 4-1 1-1 2-1 1v4h-1l-2 5v6l-2 5v1l1 1v1l-1 1v1l1 2v4l1 1v3l-1 2 1 4h2v2l-1 1h-1l1 3-1 1-2 3-1 3h-1v5l-1 3-1 3 1 1v1l-1 2-1 3-2 2h-3l-2 1-1 2h-1v4l-1 1-2 4v1h-5l-2 3-1 1v1l-1 2-1 1-1 1v2l-1 2-2 1-2 1-1 1v3l-3 3v4l1 2 1 3 1 3h-2l-1-1h-3l-1 1h-4l-2-2h-1v-1l1-2 2-1 1-6h-1l-5 6-1-1-2 1h-2v-1l-1-1h-4l-1 1-1 1h-5l-1-1-3-1-1-1v-1h-1l-2-1-3-1-1-1h-3l-1 1-2 1-1-1-1 1h-3l-1 1v1l-2 3-2 2-5 2-2-2-1-1h-1l-1-1 1-1-3-2-1 1-2-1v-1l-2-1-2-1v-1l-1-3v-5l1-2 1-1v-3h-2l-25-1-1-12-6-6h5v-7l-3-5v-3h1v-2l-1-2-3-1-1-1Z" fill="#fff" />
    <path d="m198 283 1-2 4-2 1-2 1-4 1-1h2v-1l1-1v-2l2-2v-7l-2-3h-1v-1l-1-3 1-1 1-1 1-2-1-4h-5l-2-1 1-1h-17l1-8-1-3-1-2 1-4v-2l1-1-1-2v-2l-1-1 1-5 1-1-1-1-1-1 46-1h1l1-5 1-4v-2l-1-2 1-1v-1l1-1 1-1-1-1v-1l1-1 1-1 1 1 2 4 1 2 1 4 1 2 1 1v5l1 2 1 1 3 2 3 2 1 1v2h3l1 1v1h1l4 1 32 2 61 4-1 1-1 2-1 1v4h-1l-2 5v6l-2 5v1l1 1v1l-1 1v1l1 2v4l1 1v3l-1 2 1 4h2v2l-1 1h-1l1 3-1 1-2 3-1 3h-1v5l-1 3-1 3 1 1v1l-1 2-1 3-2 2h-3l-2 1-1 2h-1v4l-1 1-2 4v1h-5l-2 3-1 1v1l-1 2-1 1-1 1v2l-1 2-2 1-2 1-1 1v3l-3 3v4l1 2 1 3 1 3h-2l-1-1h-3l-1 1h-4l-2-2h-1v-1l1-2 2-1 1-6h-1l-5 6-1-1-2 1h-2v-1l-1-1h-4l-1 1-1 1h-5l-1-1-3-1-1-1v-1h-1l-2-1-3-1-1-1h-3l-1 1-2 1-1-1-1 1h-3l-1 1v1l-2 3-2 2-5 2-2-2-1-1h-1l-1-1 1-1-3-2-1 1-2-1v-1l-2-1-2-1v-1l-1-3v-5l1-2 1-1v-3h-2l-25-1-1-12-6-6h5v-7l-3-5v-3h1v-2l-1-2-3-1-1-1Z" stroke="#0E4686" stroke-width="2" mask="url(#k)" />
    <path d="m198 283 1-2 4-2 1-2 1-4 1-1h2v-1l1-1v-2l2-2v-7l-2-3h-1v-1l-1-3 1-1 1-1 1-2-1-4h-5l-2-1 1-1h-17l1-8-1-3-1-2 1-4v-2l1-1-1-2v-2l-1-1 1-5 1-1-1-1-1-1 46-1h1l1-5 1-4v-2l-1-2 1-1v-1l1-1 1-1-1-1v-1l1-1 1-1 1 1 2 4 1 2 1 4 1 2 1 1v5l1 2 1 1 3 2 3 2 1 1v2h3l1 1v1h1l4 1 32 2 61 4-1 1-1 2-1 1v4h-1l-2 5v6l-2 5v1l1 1v1l-1 1v1l1 2v4l1 1v3l-1 2 1 4h2v2l-1 1h-1l1 3-1 1-2 3-1 3h-1v5l-1 3-1 3 1 1v1l-1 2-1 3-2 2h-3l-2 1-1 2h-1v4l-1 1-2 4v1h-5l-2 3-1 1v1l-1 2-1 1-1 1v2l-1 2-2 1-2 1-1 1v3l-3 3v4l1 2 1 3 1 3h-2l-1-1h-3l-1 1h-4l-2-2h-1v-1l1-2 2-1 1-6h-1l-5 6-1-1-2 1h-2v-1l-1-1h-4l-1 1-1 1h-5l-1-1-3-1-1-1v-1h-1l-2-1-3-1-1-1h-3l-1 1-2 1-1-1-1 1h-3l-1 1v1l-2 3-2 2-5 2-2-2-1-1h-1l-1-1 1-1-3-2-1 1-2-1v-1l-2-1-2-1v-1l-1-3v-5l1-2 1-1v-3h-2l-25-1-1-12-6-6h5v-7l-3-5v-3h1v-2l-1-2-3-1-1-1Z" stroke="#000" stroke-opacity=".2" stroke-width="2" mask="url(#k)" />
    <mask id="l" fill="#fff">
      <path d="m355 225-61-4-32-2-4-1h-1v-1l-1-1h-3v-2l-1-1-3-2-3-2-1-1-1-2v-5l-1-1-1-2-1-4-1-2-2-4-1-1h-1v-2l-1-1-1-2h-1v-1l-1-2v-2l2-1 1-1 28-62-2-1v-2l-1 1h-3l-1-2-2-2-1-1-1-1h-1l-1-1h-2l-3-2h-1l-2-1v-1l-5-2-4-4v-1l-1-2-2-1h-1l-1-2v-3l-2-1v-9l-2-16h1v1l1 1h1l1-1v-1l3 1 1-1-1-2h2l1-2 3 1h2v-1l3-2h4l1-1v-2l2-1h1v1l2-2 1 1v1h3l1 1 1-1h6l4 1h1l1-1v-2l-2-2-1-1v-1l2-2v-1h1l1 1 2 1 11-2 2 1h1v1l1 2-1 1v6h6l1 1 2 1 1 1v1h1l1 1 1 1h2l1-1 3 3h1v1l-1 1 1 2 2 3h3v1l-1 3v2l1 1 1 1v3l2 3h1l3 3v3l1 1 1 2v1l1 2 1 1 1 1 3 1h1l1-1h1l-1 1 1 2h-1l-1 1h-2v-1h-1l-3 2h-1l-1 1h-1l-1 1 6-1 1 1v1h-1l1 1v-1l1-1h3l1-1 3-2h2l1-1 4-2v-1h1l2-1v-2h3v8l1 1 1 2v2l-2 1h-1l-2-1h-2l-2-1v-1h-1l-2 3-1 3 1 3 1 1-1-1v-3l3-4 2 1 2 2v2l-1 1 1 2v1l1 1h1l1 1-1-1h-1l-1-1v-5l1-1 2 1v1l1 1h1l-1-1-1-2v-1l2-2h2l1 1h1l-1 1h2l1-1 4-1 1 1 1 1 3-1h1l1-1 1-1h3v1l-2 3v2l-1 1-1 1v1l1 1v2l1-1v-1l1-3 1-3 1-2h3l1-2 2-1 1-2v-1l1 1 1-1 1 2 2 1-1-1 1-1 3-1h-5l1-2v-1l1 1h1l1-3-1-1v-1l1-2 3-2 1 1 3-2h1v1h2v-1h1l1 1 1 1v-1h-1v-2h3l1 1v1l2 1 1-1 1 2h-1v1l1-1 1-2h1v2h3v3-1l1 1h1l4-1v1l-1 2 1-1h1v2l-1 1v5l-1 1h-1v1h2v2l-1 3-1 1-1 1-1 2v2l-3 3 1 1-1 1v3l-1 2-1 1-2 2-2 4v2l-1 1-2 2-1 1-1 3-1 1v1l-2 2-1 1-2-1-14 12 2 1 2-1h1l1 2h2l1 2-1 1h-1l-1 1 1 1v4h-1l-1 1h-1l1 1-1 2h-1l-1 1-1 1v2l-2 1-4 1-2 2v5l-1 2-1 2h-1l1 1v1l2 2h1l-1 4-2 5-1 1-1 3v1l-1 1-1 1h-1l-1 1-1 2-2 1-1 2-1 1-1 4-1 4Zm20-125-4 2-4 1-2-1v2l-2 1-1-1v-1h-1l1 1v1h-1l-4-1-4 2-4-1v-1l-1-1v-1l-1-1-1-1v-5h4v-1l-2 1-1-1h-1v-1l1-5v-1l1 1 1 1 1-1h-2l-1-2 1-2v-2l2-1 1-1h5l7 2h4v-1h1l2-1 3 1h3l6 1v3l-1 1v3l-1 3h-1l-1 1 1 1-2 3-2 3Zm-45 0h-1l1-2v-2l2-1 1-1v-2l1-3 1-1 2-2h3l1 2-1 3-1 2-1 1-1 2-1 1-5 3h-1Zm27-22h-4l-1-1v-1l2-1h1l3-1 4-1 1 1h1l-1 1-2 2-2 2h-1l-1-1Zm5 0 1-1h2l2 1v1l-1 1h-2l-1 1-3-1v-1l2-1Zm-17 5v-1h-2v-1l1-1 1-1 3-1 1 1h1l-2 2h-1l-2 2Zm9-10-1-2 2-1 2-1 1 1-2 2-2 1Zm-13 20v-2l1-2 3-2h1v2h-2l-1 2-2 2Zm10-17h-1v-1l1-1 1-4v-1h1v6h-1l-1 1Zm-14 10v-1l1-1 1-1 1-2 2-1-1 2v1l-2 1-2 2Zm14-7h-1l-1-1-1-2 1-1 2 1v1l1 2h-1Zm-6 29-1-1-1 1-2-2v-1h1l3 2v1Zm-20-5v-2h1l2-1h1l1 1h-1l-1 1h-2l-1 1Zm12-7 1-1 1-1 1-2v-1 4l-1 1h-2Zm6-9 2-3h2v1l-1 1-3 1Zm30 18-1-1 1-2h1v3h-1Zm-32-19v-2l2-1h1v1h-2l-1 2Zm3 5v1h-1v1l-1 1-1 1-1-1h1v-1l2-2h1Zm-22 10-1-1h1l3-1h1l-2 1-2 1Zm61-5h-1l-1-1 1-1h1v2Zm-36-18-2 1h-1l1-1 1-1 1 1h1-1Zm-5 9v-2l3-1-1 2-1 1h-1Zm2 4v-2h2l-1 1-1 1Zm27 15 1-2v1h1l-1 1h-1Zm-26-22 2-2v1l-1 1h-1Zm65 10v-2l1-1v2l-1 1Z" />
    </mask>
    <path d="m355 225-61-4-32-2-4-1h-1v-1l-1-1h-3v-2l-1-1-3-2-3-2-1-1-1-2v-5l-1-1-1-2-1-4-1-2-2-4-1-1h-1v-2l-1-1-1-2h-1v-1l-1-2v-2l2-1 1-1 28-62-2-1v-2l-1 1h-3l-1-2-2-2-1-1-1-1h-1l-1-1h-2l-3-2h-1l-2-1v-1l-5-2-4-4v-1l-1-2-2-1h-1l-1-2v-3l-2-1v-9l-2-16h1v1l1 1h1l1-1v-1l3 1 1-1-1-2h2l1-2 3 1h2v-1l3-2h4l1-1v-2l2-1h1v1l2-2 1 1v1h3l1 1 1-1h6l4 1h1l1-1v-2l-2-2-1-1v-1l2-2v-1h1l1 1 2 1 11-2 2 1h1v1l1 2-1 1v6h6l1 1 2 1 1 1v1h1l1 1 1 1h2l1-1 3 3h1v1l-1 1 1 2 2 3h3v1l-1 3v2l1 1 1 1v3l2 3h1l3 3v3l1 1 1 2v1l1 2 1 1 1 1 3 1h1l1-1h1l-1 1 1 2h-1l-1 1h-2v-1h-1l-3 2h-1l-1 1h-1l-1 1 6-1 1 1v1h-1l1 1v-1l1-1h3l1-1 3-2h2l1-1 4-2v-1h1l2-1v-2h3v8l1 1 1 2v2l-2 1h-1l-2-1h-2l-2-1v-1h-1l-2 3-1 3 1 3 1 1-1-1v-3l3-4 2 1 2 2v2l-1 1 1 2v1l1 1h1l1 1-1-1h-1l-1-1v-5l1-1 2 1v1l1 1h1l-1-1-1-2v-1l2-2h2l1 1h1l-1 1h2l1-1 4-1 1 1 1 1 3-1h1l1-1 1-1h3v1l-2 3v2l-1 1-1 1v1l1 1v2l1-1v-1l1-3 1-3 1-2h3l1-2 2-1 1-2v-1l1 1 1-1 1 2 2 1-1-1 1-1 3-1h-5l1-2v-1l1 1h1l1-3-1-1v-1l1-2 3-2 1 1 3-2h1v1h2v-1h1l1 1 1 1v-1h-1v-2h3l1 1v1l2 1 1-1 1 2h-1v1l1-1 1-2h1v2h3v3-1l1 1h1l4-1v1l-1 2 1-1h1v2l-1 1v5l-1 1h-1v1h2v2l-1 3-1 1-1 1-1 2v2l-3 3 1 1-1 1v3l-1 2-1 1-2 2-2 4v2l-1 1-2 2-1 1-1 3-1 1v1l-2 2-1 1-2-1-14 12 2 1 2-1h1l1 2h2l1 2-1 1h-1l-1 1 1 1v4h-1l-1 1h-1l1 1-1 2h-1l-1 1-1 1v2l-2 1-4 1-2 2v5l-1 2-1 2h-1l1 1v1l2 2h1l-1 4-2 5-1 1-1 3v1l-1 1-1 1h-1l-1 1-1 2-2 1-1 2-1 1-1 4-1 4Zm20-125-4 2-4 1-2-1v2l-2 1-1-1v-1h-1l1 1v1h-1l-4-1-4 2-4-1v-1l-1-1v-1l-1-1-1-1v-5h4v-1l-2 1-1-1h-1v-1l1-5v-1l1 1 1 1 1-1h-2l-1-2 1-2v-2l2-1 1-1h5l7 2h4v-1h1l2-1 3 1h3l6 1v3l-1 1v3l-1 3h-1l-1 1 1 1-2 3-2 3Zm-45 0h-1l1-2v-2l2-1 1-1v-2l1-3 1-1 2-2h3l1 2-1 3-1 2-1 1-1 2-1 1-5 3h-1Zm27-22h-4l-1-1v-1l2-1h1l3-1 4-1 1 1h1l-1 1-2 2-2 2h-1l-1-1Zm5 0 1-1h2l2 1v1l-1 1h-2l-1 1-3-1v-1l2-1Zm-17 5v-1h-2v-1l1-1 1-1 3-1 1 1h1l-2 2h-1l-2 2Zm9-10-1-2 2-1 2-1 1 1-2 2-2 1Zm-13 20v-2l1-2 3-2h1v2h-2l-1 2-2 2Zm10-17h-1v-1l1-1 1-4v-1h1v6h-1l-1 1Zm-14 10v-1l1-1 1-1 1-2 2-1-1 2v1l-2 1-2 2Zm14-7h-1l-1-1-1-2 1-1 2 1v1l1 2h-1Zm-6 29-1-1-1 1-2-2v-1h1l3 2v1Zm-20-5v-2h1l2-1h1l1 1h-1l-1 1h-2l-1 1Zm12-7 1-1 1-1 1-2v-1 4l-1 1h-2Zm6-9 2-3h2v1l-1 1-3 1Zm30 18-1-1 1-2h1v3h-1Zm-32-19v-2l2-1h1v1h-2l-1 2Zm3 5v1h-1v1l-1 1-1 1-1-1h1v-1l2-2h1Zm-22 10-1-1h1l3-1h1l-2 1-2 1Zm61-5h-1l-1-1 1-1h1v2Zm-36-18-2 1h-1l1-1 1-1 1 1h1-1Zm-5 9v-2l3-1-1 2-1 1h-1Zm2 4v-2h2l-1 1-1 1Zm27 15 1-2v1h1l-1 1h-1Zm-26-22 2-2v1l-1 1h-1Zm65 10v-2l1-1v2l-1 1Z" fill="#fff" />
    <path d="m355 225-61-4-32-2-4-1h-1v-1l-1-1h-3v-2l-1-1-3-2-3-2-1-1-1-2v-5l-1-1-1-2-1-4-1-2-2-4-1-1h-1v-2l-1-1-1-2h-1v-1l-1-2v-2l2-1 1-1 28-62-2-1v-2l-1 1h-3l-1-2-2-2-1-1-1-1h-1l-1-1h-2l-3-2h-1l-2-1v-1l-5-2-4-4v-1l-1-2-2-1h-1l-1-2v-3l-2-1v-9l-2-16h1v1l1 1h1l1-1v-1l3 1 1-1-1-2h2l1-2 3 1h2v-1l3-2h4l1-1v-2l2-1h1v1l2-2 1 1v1h3l1 1 1-1h6l4 1h1l1-1v-2l-2-2-1-1v-1l2-2v-1h1l1 1 2 1 11-2 2 1h1v1l1 2-1 1v6h6l1 1 2 1 1 1v1h1l1 1 1 1h2l1-1 3 3h1v1l-1 1 1 2 2 3h3v1l-1 3v2l1 1 1 1v3l2 3h1l3 3v3l1 1 1 2v1l1 2 1 1 1 1 3 1h1l1-1h1l-1 1 1 2h-1l-1 1h-2v-1h-1l-3 2h-1l-1 1h-1l-1 1 6-1 1 1v1h-1l1 1v-1l1-1h3l1-1 3-2h2l1-1 4-2v-1h1l2-1v-2h3v8l1 1 1 2v2l-2 1h-1l-2-1h-2l-2-1v-1h-1l-2 3-1 3 1 3 1 1-1-1v-3l3-4 2 1 2 2v2l-1 1 1 2v1l1 1h1l1 1-1-1h-1l-1-1v-5l1-1 2 1v1l1 1h1l-1-1-1-2v-1l2-2h2l1 1h1l-1 1h2l1-1 4-1 1 1 1 1 3-1h1l1-1 1-1h3v1l-2 3v2l-1 1-1 1v1l1 1v2l1-1v-1l1-3 1-3 1-2h3l1-2 2-1 1-2v-1l1 1 1-1 1 2 2 1-1-1 1-1 3-1h-5l1-2v-1l1 1h1l1-3-1-1v-1l1-2 3-2 1 1 3-2h1v1h2v-1h1l1 1 1 1v-1h-1v-2h3l1 1v1l2 1 1-1 1 2h-1v1l1-1 1-2h1v2h3v3-1l1 1h1l4-1v1l-1 2 1-1h1v2l-1 1v5l-1 1h-1v1h2v2l-1 3-1 1-1 1-1 2v2l-3 3 1 1-1 1v3l-1 2-1 1-2 2-2 4v2l-1 1-2 2-1 1-1 3-1 1v1l-2 2-1 1-2-1-14 12 2 1 2-1h1l1 2h2l1 2-1 1h-1l-1 1 1 1v4h-1l-1 1h-1l1 1-1 2h-1l-1 1-1 1v2l-2 1-4 1-2 2v5l-1 2-1 2h-1l1 1v1l2 2h1l-1 4-2 5-1 1-1 3v1l-1 1-1 1h-1l-1 1-1 2-2 1-1 2-1 1-1 4-1 4Zm20-125-4 2-4 1-2-1v2l-2 1-1-1v-1h-1l1 1v1h-1l-4-1-4 2-4-1v-1l-1-1v-1l-1-1-1-1v-5h4v-1l-2 1-1-1h-1v-1l1-5v-1l1 1 1 1 1-1h-2l-1-2 1-2v-2l2-1 1-1h5l7 2h4v-1h1l2-1 3 1h3l6 1v3l-1 1v3l-1 3h-1l-1 1 1 1-2 3-2 3Zm-45 0h-1l1-2v-2l2-1 1-1v-2l1-3 1-1 2-2h3l1 2-1 3-1 2-1 1-1 2-1 1-5 3h-1Zm27-22h-4l-1-1v-1l2-1h1l3-1 4-1 1 1h1l-1 1-2 2-2 2h-1l-1-1Zm5 0 1-1h2l2 1v1l-1 1h-2l-1 1-3-1v-1l2-1Zm-17 5v-1h-2v-1l1-1 1-1 3-1 1 1h1l-2 2h-1l-2 2Zm9-10-1-2 2-1 2-1 1 1-2 2-2 1Zm-13 20v-2l1-2 3-2h1v2h-2l-1 2-2 2Zm10-17h-1v-1l1-1 1-4v-1h1v6h-1l-1 1Zm-14 10v-1l1-1 1-1 1-2 2-1-1 2v1l-2 1-2 2Zm14-7h-1l-1-1-1-2 1-1 2 1v1l1 2h-1Zm-6 29-1-1-1 1-2-2v-1h1l3 2v1Zm-20-5v-2h1l2-1h1l1 1h-1l-1 1h-2l-1 1Zm12-7 1-1 1-1 1-2v-1 4l-1 1h-2Zm6-9 2-3h2v1l-1 1-3 1Zm30 18-1-1 1-2h1v3h-1Zm-32-19v-2l2-1h1v1h-2l-1 2Zm3 5v1h-1v1l-1 1-1 1-1-1h1v-1l2-2h1Zm-22 10-1-1h1l3-1h1l-2 1-2 1Zm61-5h-1l-1-1 1-1h1v2Zm-36-18-2 1h-1l1-1 1-1 1 1h1-1Zm-5 9v-2l3-1-1 2-1 1h-1Zm2 4v-2h2l-1 1-1 1Zm27 15 1-2v1h1l-1 1h-1Zm-26-22 2-2v1l-1 1h-1Zm65 10v-2l1-1v2l-1 1Z" stroke="#0E4686" stroke-width="2" mask="url(#l)" />
    <path d="m355 225-61-4-32-2-4-1h-1v-1l-1-1h-3v-2l-1-1-3-2-3-2-1-1-1-2v-5l-1-1-1-2-1-4-1-2-2-4-1-1h-1v-2l-1-1-1-2h-1v-1l-1-2v-2l2-1 1-1 28-62-2-1v-2l-1 1h-3l-1-2-2-2-1-1-1-1h-1l-1-1h-2l-3-2h-1l-2-1v-1l-5-2-4-4v-1l-1-2-2-1h-1l-1-2v-3l-2-1v-9l-2-16h1v1l1 1h1l1-1v-1l3 1 1-1-1-2h2l1-2 3 1h2v-1l3-2h4l1-1v-2l2-1h1v1l2-2 1 1v1h3l1 1 1-1h6l4 1h1l1-1v-2l-2-2-1-1v-1l2-2v-1h1l1 1 2 1 11-2 2 1h1v1l1 2-1 1v6h6l1 1 2 1 1 1v1h1l1 1 1 1h2l1-1 3 3h1v1l-1 1 1 2 2 3h3v1l-1 3v2l1 1 1 1v3l2 3h1l3 3v3l1 1 1 2v1l1 2 1 1 1 1 3 1h1l1-1h1l-1 1 1 2h-1l-1 1h-2v-1h-1l-3 2h-1l-1 1h-1l-1 1 6-1 1 1v1h-1l1 1v-1l1-1h3l1-1 3-2h2l1-1 4-2v-1h1l2-1v-2h3v8l1 1 1 2v2l-2 1h-1l-2-1h-2l-2-1v-1h-1l-2 3-1 3 1 3 1 1-1-1v-3l3-4 2 1 2 2v2l-1 1 1 2v1l1 1h1l1 1-1-1h-1l-1-1v-5l1-1 2 1v1l1 1h1l-1-1-1-2v-1l2-2h2l1 1h1l-1 1h2l1-1 4-1 1 1 1 1 3-1h1l1-1 1-1h3v1l-2 3v2l-1 1-1 1v1l1 1v2l1-1v-1l1-3 1-3 1-2h3l1-2 2-1 1-2v-1l1 1 1-1 1 2 2 1-1-1 1-1 3-1h-5l1-2v-1l1 1h1l1-3-1-1v-1l1-2 3-2 1 1 3-2h1v1h2v-1h1l1 1 1 1v-1h-1v-2h3l1 1v1l2 1 1-1 1 2h-1v1l1-1 1-2h1v2h3v3-1l1 1h1l4-1v1l-1 2 1-1h1v2l-1 1v5l-1 1h-1v1h2v2l-1 3-1 1-1 1-1 2v2l-3 3 1 1-1 1v3l-1 2-1 1-2 2-2 4v2l-1 1-2 2-1 1-1 3-1 1v1l-2 2-1 1-2-1-14 12 2 1 2-1h1l1 2h2l1 2-1 1h-1l-1 1 1 1v4h-1l-1 1h-1l1 1-1 2h-1l-1 1-1 1v2l-2 1-4 1-2 2v5l-1 2-1 2h-1l1 1v1l2 2h1l-1 4-2 5-1 1-1 3v1l-1 1-1 1h-1l-1 1-1 2-2 1-1 2-1 1-1 4-1 4Zm20-125-4 2-4 1-2-1v2l-2 1-1-1v-1h-1l1 1v1h-1l-4-1-4 2-4-1v-1l-1-1v-1l-1-1-1-1v-5h4v-1l-2 1-1-1h-1v-1l1-5v-1l1 1 1 1 1-1h-2l-1-2 1-2v-2l2-1 1-1h5l7 2h4v-1h1l2-1 3 1h3l6 1v3l-1 1v3l-1 3h-1l-1 1 1 1-2 3-2 3Zm-45 0h-1l1-2v-2l2-1 1-1v-2l1-3 1-1 2-2h3l1 2-1 3-1 2-1 1-1 2-1 1-5 3h-1Zm27-22h-4l-1-1v-1l2-1h1l3-1 4-1 1 1h1l-1 1-2 2-2 2h-1l-1-1Zm5 0 1-1h2l2 1v1l-1 1h-2l-1 1-3-1v-1l2-1Zm-17 5v-1h-2v-1l1-1 1-1 3-1 1 1h1l-2 2h-1l-2 2Zm9-10-1-2 2-1 2-1 1 1-2 2-2 1Zm-13 20v-2l1-2 3-2h1v2h-2l-1 2-2 2Zm10-17h-1v-1l1-1 1-4v-1h1v6h-1l-1 1Zm-14 10v-1l1-1 1-1 1-2 2-1-1 2v1l-2 1-2 2Zm14-7h-1l-1-1-1-2 1-1 2 1v1l1 2h-1Zm-6 29-1-1-1 1-2-2v-1h1l3 2v1Zm-20-5v-2h1l2-1h1l1 1h-1l-1 1h-2l-1 1Zm12-7 1-1 1-1 1-2v-1 4l-1 1h-2Zm6-9 2-3h2v1l-1 1-3 1Zm30 18-1-1 1-2h1v3h-1Zm-32-19v-2l2-1h1v1h-2l-1 2Zm3 5v1h-1v1l-1 1-1 1-1-1h1v-1l2-2h1Zm-22 10-1-1h1l3-1h1l-2 1-2 1Zm61-5h-1l-1-1 1-1h1v2Zm-36-18-2 1h-1l1-1 1-1 1 1h1-1Zm-5 9v-2l3-1-1 2-1 1h-1Zm2 4v-2h2l-1 1-1 1Zm27 15 1-2v1h1l-1 1h-1Zm-26-22 2-2v1l-1 1h-1Zm65 10v-2l1-1v2l-1 1Z" stroke="#000" stroke-opacity=".2" stroke-width="2" mask="url(#l)" />
    <mask id="m" fill="#fff">
      <path d="m583 190-2-2h-3l-3 1-1 1v2l-2 1h-3v1h-1l-2 1-4-1-1 1-1 1h-2l-1 1v2l-2 1-1 1h-3l-1-1v-3h-3l2-3v-3l3-1v-1l-1-1-3-2-1 1-2 1-1 1-2 1h-1l-2 2-2 2h-1l-3 1h-1l1-1-1-1h-1l-2 1-1-1-1-1v-1h-1l2-1 1-3v-1h-1l-1-1v-2l-1-1v-1l1-1 1-1-1-1 1-3 1-1v-1h1l2 1v1h3l1-1 3-2h1v-1l1-1 3-1h1l3-1h1v1l-3 3v3h-1l-1 1v1l3 1h1v2l3-2h2l2 1 1 1-1 1 1 1 2-1 1-1v-4l1 1v-2h-1v-2l2-1h2v2h12l2 1h5v2l2 4v2h-1v1l1-1v-1 2l1 1v5h-2Z" />
    </mask>
    <path d="m583 190-2-2h-3l-3 1-1 1v2l-2 1h-3v1h-1l-2 1-4-1-1 1-1 1h-2l-1 1v2l-2 1-1 1h-3l-1-1v-3h-3l2-3v-3l3-1v-1l-1-1-3-2-1 1-2 1-1 1-2 1h-1l-2 2-2 2h-1l-3 1h-1l1-1-1-1h-1l-2 1-1-1-1-1v-1h-1l2-1 1-3v-1h-1l-1-1v-2l-1-1v-1l1-1 1-1-1-1 1-3 1-1v-1h1l2 1v1h3l1-1 3-2h1v-1l1-1 3-1h1l3-1h1v1l-3 3v3h-1l-1 1v1l3 1h1v2l3-2h2l2 1 1 1-1 1 1 1 2-1 1-1v-4l1 1v-2h-1v-2l2-1h2v2h12l2 1h5v2l2 4v2h-1v1l1-1v-1 2l1 1v5h-2Z" fill="#0E4686" />
    <path d="m583 190-2-2h-3l-3 1-1 1v2l-2 1h-3v1h-1l-2 1-4-1-1 1-1 1h-2l-1 1v2l-2 1-1 1h-3l-1-1v-3h-3l2-3v-3l3-1v-1l-1-1-3-2-1 1-2 1-1 1-2 1h-1l-2 2-2 2h-1l-3 1h-1l1-1-1-1h-1l-2 1-1-1-1-1v-1h-1l2-1 1-3v-1h-1l-1-1v-2l-1-1v-1l1-1 1-1-1-1 1-3 1-1v-1h1l2 1v1h3l1-1 3-2h1v-1l1-1 3-1h1l3-1h1v1l-3 3v3h-1l-1 1v1l3 1h1v2l3-2h2l2 1 1 1-1 1 1 1 2-1 1-1v-4l1 1v-2h-1v-2l2-1h2v2h12l2 1h5v2l2 4v2h-1v1l1-1v-1 2l1 1v5h-2Z" fill="#000" fill-opacity=".2" />
    <path d="m583 190-2-2h-3l-3 1-1 1v2l-2 1h-3v1h-1l-2 1-4-1-1 1-1 1h-2l-1 1v2l-2 1-1 1h-3l-1-1v-3h-3l2-3v-3l3-1v-1l-1-1-3-2-1 1-2 1-1 1-2 1h-1l-2 2-2 2h-1l-3 1h-1l1-1-1-1h-1l-2 1-1-1-1-1v-1h-1l2-1 1-3v-1h-1l-1-1v-2l-1-1v-1l1-1 1-1-1-1 1-3 1-1v-1h1l2 1v1h3l1-1 3-2h1v-1l1-1 3-1h1l3-1h1v1l-3 3v3h-1l-1 1v1l3 1h1v2l3-2h2l2 1 1 1-1 1 1 1 2-1 1-1v-4l1 1v-2h-1v-2l2-1h2v2h12l2 1h5v2l2 4v2h-1v1l1-1v-1 2l1 1v5h-2Z" stroke="#0E4686" stroke-width="2" mask="url(#m)" />
    <path d="m583 190-2-2h-3l-3 1-1 1v2l-2 1h-3v1h-1l-2 1-4-1-1 1-1 1h-2l-1 1v2l-2 1-1 1h-3l-1-1v-3h-3l2-3v-3l3-1v-1l-1-1-3-2-1 1-2 1-1 1-2 1h-1l-2 2-2 2h-1l-3 1h-1l1-1-1-1h-1l-2 1-1-1-1-1v-1h-1l2-1 1-3v-1h-1l-1-1v-2l-1-1v-1l1-1 1-1-1-1 1-3 1-1v-1h1l2 1v1h3l1-1 3-2h1v-1l1-1 3-1h1l3-1h1v1l-3 3v3h-1l-1 1v1l3 1h1v2l3-2h2l2 1 1 1-1 1 1 1 2-1 1-1v-4l1 1v-2h-1v-2l2-1h2v2h12l2 1h5v2l2 4v2h-1v1l1-1v-1 2l1 1v5h-2Z" stroke="#000" stroke-opacity=".2" stroke-width="2" mask="url(#m)" />
    <mask id="n" fill="#fff">
      <path d="m533 217-1-3v-1l-2-1-1-1 1-1h-2v2h-1v-2l-2-1h-3l-2-1-1-1-1-1-2-1-3 2h-1l-1 2h-2v3l-1 1-3 1-1-1h-1v1l-1 4h-3v1h-3l1-2v-2l-2-1-1-1v-3h-1l-2-2h-4l2-1 2-2 1-1 2-1h1l3-4 1-2v-2l-2-2v-5h11l2-1 2 1 3 2h2v1l1 1 2 1 1 2h2l1-2 1-1 2-1v1l1 1 1 1 2-1h1l1 1-1 1h1l3-1h1l2-2 2-2h1l2-1 1-1 2-1 1-1 3 2 1 1v1l-3 1v3l-2 3h3v3l1 1h3l1-1 2-1v-2l1-1h2l1-1 1-1 4 1 2-1h1v-1h3l2-1v-2l1-1 3-1h3l2 2 1 1 1 1-2 1v1l1 1v1l-1 6-4 9-3-1h-3l-2 1-2-1h-2l-2 2-2 2-2 1h-1l-2 1h-4l-2 1-2-1-2-1-1-2-3-2h-3v-1l-1 1-3 3-2 1v1l-2 1Z" />
    </mask>
    <path d="m533 217-1-3v-1l-2-1-1-1 1-1h-2v2h-1v-2l-2-1h-3l-2-1-1-1-1-1-2-1-3 2h-1l-1 2h-2v3l-1 1-3 1-1-1h-1v1l-1 4h-3v1h-3l1-2v-2l-2-1-1-1v-3h-1l-2-2h-4l2-1 2-2 1-1 2-1h1l3-4 1-2v-2l-2-2v-5h11l2-1 2 1 3 2h2v1l1 1 2 1 1 2h2l1-2 1-1 2-1v1l1 1 1 1 2-1h1l1 1-1 1h1l3-1h1l2-2 2-2h1l2-1 1-1 2-1 1-1 3 2 1 1v1l-3 1v3l-2 3h3v3l1 1h3l1-1 2-1v-2l1-1h2l1-1 1-1 4 1 2-1h1v-1h3l2-1v-2l1-1 3-1h3l2 2 1 1 1 1-2 1v1l1 1v1l-1 6-4 9-3-1h-3l-2 1-2-1h-2l-2 2-2 2-2 1h-1l-2 1h-4l-2 1-2-1-2-1-1-2-3-2h-3v-1l-1 1-3 3-2 1v1l-2 1Z" fill="#fff" />
    <path d="m533 217-1-3v-1l-2-1-1-1 1-1h-2v2h-1v-2l-2-1h-3l-2-1-1-1-1-1-2-1-3 2h-1l-1 2h-2v3l-1 1-3 1-1-1h-1v1l-1 4h-3v1h-3l1-2v-2l-2-1-1-1v-3h-1l-2-2h-4l2-1 2-2 1-1 2-1h1l3-4 1-2v-2l-2-2v-5h11l2-1 2 1 3 2h2v1l1 1 2 1 1 2h2l1-2 1-1 2-1v1l1 1 1 1 2-1h1l1 1-1 1h1l3-1h1l2-2 2-2h1l2-1 1-1 2-1 1-1 3 2 1 1v1l-3 1v3l-2 3h3v3l1 1h3l1-1 2-1v-2l1-1h2l1-1 1-1 4 1 2-1h1v-1h3l2-1v-2l1-1 3-1h3l2 2 1 1 1 1-2 1v1l1 1v1l-1 6-4 9-3-1h-3l-2 1-2-1h-2l-2 2-2 2-2 1h-1l-2 1h-4l-2 1-2-1-2-1-1-2-3-2h-3v-1l-1 1-3 3-2 1v1l-2 1Z" stroke="#0E4686" stroke-width="2" mask="url(#n)" />
    <path d="m533 217-1-3v-1l-2-1-1-1 1-1h-2v2h-1v-2l-2-1h-3l-2-1-1-1-1-1-2-1-3 2h-1l-1 2h-2v3l-1 1-3 1-1-1h-1v1l-1 4h-3v1h-3l1-2v-2l-2-1-1-1v-3h-1l-2-2h-4l2-1 2-2 1-1 2-1h1l3-4 1-2v-2l-2-2v-5h11l2-1 2 1 3 2h2v1l1 1 2 1 1 2h2l1-2 1-1 2-1v1l1 1 1 1 2-1h1l1 1-1 1h1l3-1h1l2-2 2-2h1l2-1 1-1 2-1 1-1 3 2 1 1v1l-3 1v3l-2 3h3v3l1 1h3l1-1 2-1v-2l1-1h2l1-1 1-1 4 1 2-1h1v-1h3l2-1v-2l1-1 3-1h3l2 2 1 1 1 1-2 1v1l1 1v1l-1 6-4 9-3-1h-3l-2 1-2-1h-2l-2 2-2 2-2 1h-1l-2 1h-4l-2 1-2-1-2-1-1-2-3-2h-3v-1l-1 1-3 3-2 1v1l-2 1Z" stroke="#000" stroke-opacity=".2" stroke-width="2" mask="url(#n)" />
    <mask id="o" fill="#fff">
      <path d="m483 121 1 1 1-1 2 1 1 1h1l-1 1-1 2-1 2v2l2 5 3 6v1l1 2v7l1 2 1 3-1 2h-1l1 1 1 8 1 3 1 5 1 2 1 1h2l1 1v1l-1 2-2 3 1 1v2h-2v5l2 2v2l-1 2-3 4h-1l-2 1-1 1-2 2-2 1-1 1-1 2-1 1h-3v2l-2 2v-1h-2l-1 1-1 1h-3l-1 1-1 1h-1l-2 1h-4v-1l-1-1h-3l-2 1v-1h-1l-1-1h-2l-3 2v1l2 4v4l-1 1-3 5-3 2-1 1-1-1h-2l-2 1-1 1-1 1-1 1h-3l-1 1-4-2-2-3v-2l-1-1-1-1h-5v-3l1-2v-6l1-2-2-3v-3l-1-2 1-2 1-1 1-3 1-1v-1l2-3v-2l1-3v-3l3-1 2-1h3l1-1 1-1h1l2-1 2-2 3-1 1-2 1-1 2-2 1-1v1h1l1-1h3l2 2h2l2-1h3l2-2v-2h1v-4l-2-1-2-2v-6l4-4v-6l-2-3 1-3v-2l-1-1v-3h1l1-2 2-2v-3l3-3h1l3-1 4-3 2-3v-1l-1-1 1-2 2 1v1h1Z" />
    </mask>
    <path d="m483 121 1 1 1-1 2 1 1 1h1l-1 1-1 2-1 2v2l2 5 3 6v1l1 2v7l1 2 1 3-1 2h-1l1 1 1 8 1 3 1 5 1 2 1 1h2l1 1v1l-1 2-2 3 1 1v2h-2v5l2 2v2l-1 2-3 4h-1l-2 1-1 1-2 2-2 1-1 1-1 2-1 1h-3v2l-2 2v-1h-2l-1 1-1 1h-3l-1 1-1 1h-1l-2 1h-4v-1l-1-1h-3l-2 1v-1h-1l-1-1h-2l-3 2v1l2 4v4l-1 1-3 5-3 2-1 1-1-1h-2l-2 1-1 1-1 1-1 1h-3l-1 1-4-2-2-3v-2l-1-1-1-1h-5v-3l1-2v-6l1-2-2-3v-3l-1-2 1-2 1-1 1-3 1-1v-1l2-3v-2l1-3v-3l3-1 2-1h3l1-1 1-1h1l2-1 2-2 3-1 1-2 1-1 2-2 1-1v1h1l1-1h3l2 2h2l2-1h3l2-2v-2h1v-4l-2-1-2-2v-6l4-4v-6l-2-3 1-3v-2l-1-1v-3h1l1-2 2-2v-3l3-3h1l3-1 4-3 2-3v-1l-1-1 1-2 2 1v1h1Z" fill="#fff" />
    <path d="m483 121 1 1 1-1 2 1 1 1h1l-1 1-1 2-1 2v2l2 5 3 6v1l1 2v7l1 2 1 3-1 2h-1l1 1 1 8 1 3 1 5 1 2 1 1h2l1 1v1l-1 2-2 3 1 1v2h-2v5l2 2v2l-1 2-3 4h-1l-2 1-1 1-2 2-2 1-1 1-1 2-1 1h-3v2l-2 2v-1h-2l-1 1-1 1h-3l-1 1-1 1h-1l-2 1h-4v-1l-1-1h-3l-2 1v-1h-1l-1-1h-2l-3 2v1l2 4v4l-1 1-3 5-3 2-1 1-1-1h-2l-2 1-1 1-1 1-1 1h-3l-1 1-4-2-2-3v-2l-1-1-1-1h-5v-3l1-2v-6l1-2-2-3v-3l-1-2 1-2 1-1 1-3 1-1v-1l2-3v-2l1-3v-3l3-1 2-1h3l1-1 1-1h1l2-1 2-2 3-1 1-2 1-1 2-2 1-1v1h1l1-1h3l2 2h2l2-1h3l2-2v-2h1v-4l-2-1-2-2v-6l4-4v-6l-2-3 1-3v-2l-1-1v-3h1l1-2 2-2v-3l3-3h1l3-1 4-3 2-3v-1l-1-1 1-2 2 1v1h1Z" stroke="#0E4686" stroke-width="2" mask="url(#o)" />
    <path d="m483 121 1 1 1-1 2 1 1 1h1l-1 1-1 2-1 2v2l2 5 3 6v1l1 2v7l1 2 1 3-1 2h-1l1 1 1 8 1 3 1 5 1 2 1 1h2l1 1v1l-1 2-2 3 1 1v2h-2v5l2 2v2l-1 2-3 4h-1l-2 1-1 1-2 2-2 1-1 1-1 2-1 1h-3v2l-2 2v-1h-2l-1 1-1 1h-3l-1 1-1 1h-1l-2 1h-4v-1l-1-1h-3l-2 1v-1h-1l-1-1h-2l-3 2v1l2 4v4l-1 1-3 5-3 2-1 1-1-1h-2l-2 1-1 1-1 1-1 1h-3l-1 1-4-2-2-3v-2l-1-1-1-1h-5v-3l1-2v-6l1-2-2-3v-3l-1-2 1-2 1-1 1-3 1-1v-1l2-3v-2l1-3v-3l3-1 2-1h3l1-1 1-1h1l2-1 2-2 3-1 1-2 1-1 2-2 1-1v1h1l1-1h3l2 2h2l2-1h3l2-2v-2h1v-4l-2-1-2-2v-6l4-4v-6l-2-3 1-3v-2l-1-1v-3h1l1-2 2-2v-3l3-3h1l3-1 4-3 2-3v-1l-1-1 1-2 2 1v1h1Z" stroke="#000" stroke-opacity=".2" stroke-width="2" mask="url(#o)" />
    <mask id="p" fill="#fff">
      <path d="M379 477h-5l-2 1h-1v-1l-1 1-1 1-4 2h-1l-1-1-3-2-1-1h-1l-3 1h-6l-1 2-1 1h-5l-2 1-1 1v1l1 3-1 1h-1l-1 1-1-2h-8l-1-1-1-1h-1l-4-1-5-1h-4l-2-1h-1l-1-1-1 1h-3l-1-2-2-4v-2l-1-3-3-2-1 1h-3l-1 1-2-1-1-2 1-1 1-2 1-2v-2l1-3 1-3v-2l1-3v-1l-1-1-1-1 1-1 1-1 2-1v-1l2-7v-1h1l2-1 1-1 1-3v-1l1-2 1-1 5-2 3-3 4 1h8v-1h2l1 1h3l2 1h5l1 1 2 1h3v1l1 1h4v1h6l2-1 1 1 4 3 1 2v2l-1 1v1l1 1 1 2v2h-1l2 3 1 1h1v2l1 2h1l-1 1-1 2 1 2v1h3l4-1v1l2-1 1 1 2 1-1 1-1 3v1h1l1-1 1-2h3l-1 2 1 3 2 1v1l-2 1v1h-1l1-2h1-5v1l1 1-1 1-3-1h-1v1l2 1 1-1 2 1v1l-2 3h-1l-2 1h-1 3v2Z" />
    </mask>
    <path d="M379 477h-5l-2 1h-1v-1l-1 1-1 1-4 2h-1l-1-1-3-2-1-1h-1l-3 1h-6l-1 2-1 1h-5l-2 1-1 1v1l1 3-1 1h-1l-1 1-1-2h-8l-1-1-1-1h-1l-4-1-5-1h-4l-2-1h-1l-1-1-1 1h-3l-1-2-2-4v-2l-1-3-3-2-1 1h-3l-1 1-2-1-1-2 1-1 1-2 1-2v-2l1-3 1-3v-2l1-3v-1l-1-1-1-1 1-1 1-1 2-1v-1l2-7v-1h1l2-1 1-1 1-3v-1l1-2 1-1 5-2 3-3 4 1h8v-1h2l1 1h3l2 1h5l1 1 2 1h3v1l1 1h4v1h6l2-1 1 1 4 3 1 2v2l-1 1v1l1 1 1 2v2h-1l2 3 1 1h1v2l1 2h1l-1 1-1 2 1 2v1h3l4-1v1l2-1 1 1 2 1-1 1-1 3v1h1l1-1 1-2h3l-1 2 1 3 2 1v1l-2 1v1h-1l1-2h1-5v1l1 1-1 1-3-1h-1v1l2 1 1-1 2 1v1l-2 3h-1l-2 1h-1 3v2Z" fill="#fff" />
    <path d="M379 477h-5l-2 1h-1v-1l-1 1-1 1-4 2h-1l-1-1-3-2-1-1h-1l-3 1h-6l-1 2-1 1h-5l-2 1-1 1v1l1 3-1 1h-1l-1 1-1-2h-8l-1-1-1-1h-1l-4-1-5-1h-4l-2-1h-1l-1-1-1 1h-3l-1-2-2-4v-2l-1-3-3-2-1 1h-3l-1 1-2-1-1-2 1-1 1-2 1-2v-2l1-3 1-3v-2l1-3v-1l-1-1-1-1 1-1 1-1 2-1v-1l2-7v-1h1l2-1 1-1 1-3v-1l1-2 1-1 5-2 3-3 4 1h8v-1h2l1 1h3l2 1h5l1 1 2 1h3v1l1 1h4v1h6l2-1 1 1 4 3 1 2v2l-1 1v1l1 1 1 2v2h-1l2 3 1 1h1v2l1 2h1l-1 1-1 2 1 2v1h3l4-1v1l2-1 1 1 2 1-1 1-1 3v1h1l1-1 1-2h3l-1 2 1 3 2 1v1l-2 1v1h-1l1-2h1-5v1l1 1-1 1-3-1h-1v1l2 1 1-1 2 1v1l-2 3h-1l-2 1h-1 3v2Z" stroke="#0E4686" stroke-width="2" mask="url(#p)" />
    <path d="M379 477h-5l-2 1h-1v-1l-1 1-1 1-4 2h-1l-1-1-3-2-1-1h-1l-3 1h-6l-1 2-1 1h-5l-2 1-1 1v1l1 3-1 1h-1l-1 1-1-2h-8l-1-1-1-1h-1l-4-1-5-1h-4l-2-1h-1l-1-1-1 1h-3l-1-2-2-4v-2l-1-3-3-2-1 1h-3l-1 1-2-1-1-2 1-1 1-2 1-2v-2l1-3 1-3v-2l1-3v-1l-1-1-1-1 1-1 1-1 2-1v-1l2-7v-1h1l2-1 1-1 1-3v-1l1-2 1-1 5-2 3-3 4 1h8v-1h2l1 1h3l2 1h5l1 1 2 1h3v1l1 1h4v1h6l2-1 1 1 4 3 1 2v2l-1 1v1l1 1 1 2v2h-1l2 3 1 1h1v2l1 2h1l-1 1-1 2 1 2v1h3l4-1v1l2-1 1 1 2 1-1 1-1 3v1h1l1-1 1-2h3l-1 2 1 3 2 1v1l-2 1v1h-1l1-2h1-5v1l1 1-1 1-3-1h-1v1l2 1 1-1 2 1v1l-2 3h-1l-2 1h-1 3v2Z" stroke="#000" stroke-opacity=".2" stroke-width="2" mask="url(#p)" />
    <mask id="q" fill="#fff">
      <path d="m448 430-1-1h6l-2-2h-4l-1 2h-2l-1-2h-1l-1 1-1 1h-3v3h2l1 1-1 1h-3l-1-2 1-4 1-1 2-1v1l3-1h2l1-3-1-1h-6l-1-1-1-2h-1l1-1h2l3-2h2l1 1 1-1 1-1 4-2h1v1h3l1-1 2-1h1l2 1h2l9-4 2-1v-1h-1v-1l2-4 2-5-1-1 1-1h1l2-2 2 1 1 4 2 1 4 1h3l2 1v1l-1 2v2l1 6-1 1-3 1-5 2-3 2-3 3-1 2 1 1v2l-1 1-2 1-6-1-6 1h-2v-1l1-2v-2h-1l-2 1-1 1 1 1 1 1v1l-2 1h-1l-8 1h-1Zm-5 2-1-1 2-1h2v1l-2 1v-1h-1v1Z" />
    </mask>
    <path d="m448 430-1-1h6l-2-2h-4l-1 2h-2l-1-2h-1l-1 1-1 1h-3v3h2l1 1-1 1h-3l-1-2 1-4 1-1 2-1v1l3-1h2l1-3-1-1h-6l-1-1-1-2h-1l1-1h2l3-2h2l1 1 1-1 1-1 4-2h1v1h3l1-1 2-1h1l2 1h2l9-4 2-1v-1h-1v-1l2-4 2-5-1-1 1-1h1l2-2 2 1 1 4 2 1 4 1h3l2 1v1l-1 2v2l1 6-1 1-3 1-5 2-3 2-3 3-1 2 1 1v2l-1 1-2 1-6-1-6 1h-2v-1l1-2v-2h-1l-2 1-1 1 1 1 1 1v1l-2 1h-1l-8 1h-1Zm-5 2-1-1 2-1h2v1l-2 1v-1h-1v1Z" fill="#fff" />
    <path d="m448 430-1-1h6l-2-2h-4l-1 2h-2l-1-2h-1l-1 1-1 1h-3v3h2l1 1-1 1h-3l-1-2 1-4 1-1 2-1v1l3-1h2l1-3-1-1h-6l-1-1-1-2h-1l1-1h2l3-2h2l1 1 1-1 1-1 4-2h1v1h3l1-1 2-1h1l2 1h2l9-4 2-1v-1h-1v-1l2-4 2-5-1-1 1-1h1l2-2 2 1 1 4 2 1 4 1h3l2 1v1l-1 2v2l1 6-1 1-3 1-5 2-3 2-3 3-1 2 1 1v2l-1 1-2 1-6-1-6 1h-2v-1l1-2v-2h-1l-2 1-1 1 1 1 1 1v1l-2 1h-1l-8 1h-1Zm-5 2-1-1 2-1h2v1l-2 1v-1h-1v1Z" stroke="#0E4686" stroke-width="2" mask="url(#q)" />
    <path d="m448 430-1-1h6l-2-2h-4l-1 2h-2l-1-2h-1l-1 1-1 1h-3v3h2l1 1-1 1h-3l-1-2 1-4 1-1 2-1v1l3-1h2l1-3-1-1h-6l-1-1-1-2h-1l1-1h2l3-2h2l1 1 1-1 1-1 4-2h1v1h3l1-1 2-1h1l2 1h2l9-4 2-1v-1h-1v-1l2-4 2-5-1-1 1-1h1l2-2 2 1 1 4 2 1 4 1h3l2 1v1l-1 2v2l1 6-1 1-3 1-5 2-3 2-3 3-1 2 1 1v2l-1 1-2 1-6-1-6 1h-2v-1l1-2v-2h-1l-2 1-1 1 1 1 1 1v1l-2 1h-1l-8 1h-1Zm-5 2-1-1 2-1h2v1l-2 1v-1h-1v1Z" stroke="#000" stroke-opacity=".2" stroke-width="2" mask="url(#q)" />
    <path d="m559 176-1 1v2h1l-1 1v1h-2v-1l-1-2h-4l-2 1-1-1v-1h-3v-1h1v-3h1l3-3v-2l-1-1h-1l-3 1h-2l-3 1v3h-1l-3 2-1 1-2-1h-1l-2-2h-1v1h-1l1-1 1-2 1-1h2l1-1 1-2 1-2v-1l1-1v-1h1v-1l3-6 3-2 4-1 1 1h4l2 2h5l2 1h1l2-1h2l4 1h3l1 1 1 1 2 4v3l2 5v2h1v3h1l-1 1-3-1-1 1-2-1-2-1h-1l-5 1v-1h-4v-2h-2l-2 2-1 1v1h1v1Z" fill="#fff" />
    <path d="m559 176-1 1v2h1l-1 1v1h-2v-1l-1-2h-4l-2 1-1-1v-1h-3v-1h1v-3h1l3-3v-2l-1-1h-1l-3 1h-2l-3 1v3h-1l-3 2-1 1-2-1h-1l-2-2h-1v1h-1l1-1 1-2 1-1h2l1-1 1-2 1-2v-1l1-1v-1h1v-1l3-6 3-2 4-1 1 1h4l2 2h5l2 1h1l2-1h2l4 1h3l1 1 1 1 2 4v3l2 5v2h1v3h1l-1 1-3-1-1 1-2-1-2-1h-1l-5 1v-1h-4v-2h-2l-2 2-1 1v1h1v1Z" stroke="#0E4686" />
    <path d="m559 176-1 1v2h1l-1 1v1h-2v-1l-1-2h-4l-2 1-1-1v-1h-3v-1h1v-3h1l3-3v-2l-1-1h-1l-3 1h-2l-3 1v3h-1l-3 2-1 1-2-1h-1l-2-2h-1v1h-1l1-1 1-2 1-1h2l1-1 1-2 1-2v-1l1-1v-1h1v-1l3-6 3-2 4-1 1 1h4l2 2h5l2 1h1l2-1h2l4 1h3l1 1 1 1 2 4v3l2 5v2h1v3h1l-1 1-3-1-1 1-2-1-2-1h-1l-5 1v-1h-4v-2h-2l-2 2-1 1v1h1v1Z" stroke="#000" stroke-opacity=".2" />
    <mask id="r" fill="#fff">
      <path d="m179 278-1-1v-2l-2-1-1 1h-2l-3-2-1-1-1 1-2-2-2-1v-1l-1-2h-1l-1 1h-2l-1-1-1-1-3-2h-2l-1 1-1 1-1-1h-2l-3-1h-1l-1-1v-2l-2-1h-2v-2h-1l-2-1h-1v-3l-1-1-1 1-1-1 1-2-1-1h-1l-1-4-1-1 2-3v-2l-1-1-1-3v-2l1-2 1-1v-3l-1-2 1-1-1-2-1-1-1 1v1l-1 1h-1l-2-1h-5l-5 1h-2l-1 1-3-1 3-3h2l2-2v-2h6l1 1 2 2 2-1v-1l1-1h2l1-1 2-1 1 2 1 1 3-3v-3l2-1h1l2 1 1-1 2-1 4 1-1-2v-2l2-1 1-1 1-1h-1v-1l1-2 2-1v-1h2l1-3h11l2 1v1l1 2 1 1 2 1 2 3h2v3l3 1h1l1-2 1-1 2 1v1l1 1 1 1-1 1-1 5 1 1v2l1 2-1 1v2l-1 4 1 2 1 3-1 8h17l-1 1 2 1h5l1 4-1 2-1 1-1 1 1 3v1h1l2 3v7l-2 2v2l-1 1v1h-2l-1 1-1 4-1 2-4 2-1 2h-1l-2-2-1-1-7 1-2-1-3 1-1-2-2-1Z" />
    </mask>
    <path d="m179 278-1-1v-2l-2-1-1 1h-2l-3-2-1-1-1 1-2-2-2-1v-1l-1-2h-1l-1 1h-2l-1-1-1-1-3-2h-2l-1 1-1 1-1-1h-2l-3-1h-1l-1-1v-2l-2-1h-2v-2h-1l-2-1h-1v-3l-1-1-1 1-1-1 1-2-1-1h-1l-1-4-1-1 2-3v-2l-1-1-1-3v-2l1-2 1-1v-3l-1-2 1-1-1-2-1-1-1 1v1l-1 1h-1l-2-1h-5l-5 1h-2l-1 1-3-1 3-3h2l2-2v-2h6l1 1 2 2 2-1v-1l1-1h2l1-1 2-1 1 2 1 1 3-3v-3l2-1h1l2 1 1-1 2-1 4 1-1-2v-2l2-1 1-1 1-1h-1v-1l1-2 2-1v-1h2l1-3h11l2 1v1l1 2 1 1 2 1 2 3h2v3l3 1h1l1-2 1-1 2 1v1l1 1 1 1-1 1-1 5 1 1v2l1 2-1 1v2l-1 4 1 2 1 3-1 8h17l-1 1 2 1h5l1 4-1 2-1 1-1 1 1 3v1h1l2 3v7l-2 2v2l-1 1v1h-2l-1 1-1 4-1 2-4 2-1 2h-1l-2-2-1-1-7 1-2-1-3 1-1-2-2-1Z" fill="#fff" />
    <path d="m179 278-1-1v-2l-2-1-1 1h-2l-3-2-1-1-1 1-2-2-2-1v-1l-1-2h-1l-1 1h-2l-1-1-1-1-3-2h-2l-1 1-1 1-1-1h-2l-3-1h-1l-1-1v-2l-2-1h-2v-2h-1l-2-1h-1v-3l-1-1-1 1-1-1 1-2-1-1h-1l-1-4-1-1 2-3v-2l-1-1-1-3v-2l1-2 1-1v-3l-1-2 1-1-1-2-1-1-1 1v1l-1 1h-1l-2-1h-5l-5 1h-2l-1 1-3-1 3-3h2l2-2v-2h6l1 1 2 2 2-1v-1l1-1h2l1-1 2-1 1 2 1 1 3-3v-3l2-1h1l2 1 1-1 2-1 4 1-1-2v-2l2-1 1-1 1-1h-1v-1l1-2 2-1v-1h2l1-3h11l2 1v1l1 2 1 1 2 1 2 3h2v3l3 1h1l1-2 1-1 2 1v1l1 1 1 1-1 1-1 5 1 1v2l1 2-1 1v2l-1 4 1 2 1 3-1 8h17l-1 1 2 1h5l1 4-1 2-1 1-1 1 1 3v1h1l2 3v7l-2 2v2l-1 1v1h-2l-1 1-1 4-1 2-4 2-1 2h-1l-2-2-1-1-7 1-2-1-3 1-1-2-2-1Z" stroke="#0E4686" stroke-width="2" mask="url(#r)" />
    <path d="m179 278-1-1v-2l-2-1-1 1h-2l-3-2-1-1-1 1-2-2-2-1v-1l-1-2h-1l-1 1h-2l-1-1-1-1-3-2h-2l-1 1-1 1-1-1h-2l-3-1h-1l-1-1v-2l-2-1h-2v-2h-1l-2-1h-1v-3l-1-1-1 1-1-1 1-2-1-1h-1l-1-4-1-1 2-3v-2l-1-1-1-3v-2l1-2 1-1v-3l-1-2 1-1-1-2-1-1-1 1v1l-1 1h-1l-2-1h-5l-5 1h-2l-1 1-3-1 3-3h2l2-2v-2h6l1 1 2 2 2-1v-1l1-1h2l1-1 2-1 1 2 1 1 3-3v-3l2-1h1l2 1 1-1 2-1 4 1-1-2v-2l2-1 1-1 1-1h-1v-1l1-2 2-1v-1h2l1-3h11l2 1v1l1 2 1 1 2 1 2 3h2v3l3 1h1l1-2 1-1 2 1v1l1 1 1 1-1 1-1 5 1 1v2l1 2-1 1v2l-1 4 1 2 1 3-1 8h17l-1 1 2 1h5l1 4-1 2-1 1-1 1 1 3v1h1l2 3v7l-2 2v2l-1 1v1h-2l-1 1-1 4-1 2-4 2-1 2h-1l-2-2-1-1-7 1-2-1-3 1-1-2-2-1Z" stroke="#000" stroke-opacity=".2" stroke-width="2" mask="url(#r)" />
    <mask id="s" fill="#fff">
      <path d="m224 59 2 16h-18v1l-2 3-2 3v1l-1 2v2l1 1v1h-2l-1 2h-3l-1-3-2-1-3-1h-1l-1 1h-2l-1 1-1 1-1 3 1 2v1l-1 2v3l-2-1h-2l-1-2-1-2-2-1h-1l-4-4v-1h2l1-1v-1l-1-4-1-1-1-1-1-2v-5l1-3-1-2v-1l2-2-1-1v-2l-2-5-3-3 1-2 1-3-1-1-1-1h-2l-1 1v-1l-2-1v-1h-3v-3l-3-1h-7v-2l1-2-1-2-2-3-1-2v-3l1-2v-1l-2-2-2-1-3-2-1-2v-1l-1-1h-1v-1h2l1 1 1 1h5l1 1 1 1 1 2h1l1-1h4l1 1h1l1-1h1l2 1 3 4 1 1h1l2-1v-6h2l1-2 2-1 4 2h1v-1h3l2-1 1-1 1 1 1-1 1-2 2-1h3l2-1 1-1 1-1 1-1h1l1-1 1-2-1-3-1-1h6l1-1h1l1 1 1 1 1 1v6l-1 1-1 1 1 1h4l2 1-1 2v1l2 3v2l-1 2-2 2v4l-2 2v3l-1 2v3l1 1 1 2v1l1 1 1 1v6h1v2h2l2 2 2 3 4 1Z" />
    </mask>
    <path d="m224 59 2 16h-18v1l-2 3-2 3v1l-1 2v2l1 1v1h-2l-1 2h-3l-1-3-2-1-3-1h-1l-1 1h-2l-1 1-1 1-1 3 1 2v1l-1 2v3l-2-1h-2l-1-2-1-2-2-1h-1l-4-4v-1h2l1-1v-1l-1-4-1-1-1-1-1-2v-5l1-3-1-2v-1l2-2-1-1v-2l-2-5-3-3 1-2 1-3-1-1-1-1h-2l-1 1v-1l-2-1v-1h-3v-3l-3-1h-7v-2l1-2-1-2-2-3-1-2v-3l1-2v-1l-2-2-2-1-3-2-1-2v-1l-1-1h-1v-1h2l1 1 1 1h5l1 1 1 1 1 2h1l1-1h4l1 1h1l1-1h1l2 1 3 4 1 1h1l2-1v-6h2l1-2 2-1 4 2h1v-1h3l2-1 1-1 1 1 1-1 1-2 2-1h3l2-1 1-1 1-1 1-1h1l1-1 1-2-1-3-1-1h6l1-1h1l1 1 1 1 1 1v6l-1 1-1 1 1 1h4l2 1-1 2v1l2 3v2l-1 2-2 2v4l-2 2v3l-1 2v3l1 1 1 2v1l1 1 1 1v6h1v2h2l2 2 2 3 4 1Z" fill="#fff" />
    <path d="m224 59 2 16h-18v1l-2 3-2 3v1l-1 2v2l1 1v1h-2l-1 2h-3l-1-3-2-1-3-1h-1l-1 1h-2l-1 1-1 1-1 3 1 2v1l-1 2v3l-2-1h-2l-1-2-1-2-2-1h-1l-4-4v-1h2l1-1v-1l-1-4-1-1-1-1-1-2v-5l1-3-1-2v-1l2-2-1-1v-2l-2-5-3-3 1-2 1-3-1-1-1-1h-2l-1 1v-1l-2-1v-1h-3v-3l-3-1h-7v-2l1-2-1-2-2-3-1-2v-3l1-2v-1l-2-2-2-1-3-2-1-2v-1l-1-1h-1v-1h2l1 1 1 1h5l1 1 1 1 1 2h1l1-1h4l1 1h1l1-1h1l2 1 3 4 1 1h1l2-1v-6h2l1-2 2-1 4 2h1v-1h3l2-1 1-1 1 1 1-1 1-2 2-1h3l2-1 1-1 1-1 1-1h1l1-1 1-2-1-3-1-1h6l1-1h1l1 1 1 1 1 1v6l-1 1-1 1 1 1h4l2 1-1 2v1l2 3v2l-1 2-2 2v4l-2 2v3l-1 2v3l1 1 1 2v1l1 1 1 1v6h1v2h2l2 2 2 3 4 1Z" stroke="#0E4686" stroke-width="2" mask="url(#s)" />
    <path d="m224 59 2 16h-18v1l-2 3-2 3v1l-1 2v2l1 1v1h-2l-1 2h-3l-1-3-2-1-3-1h-1l-1 1h-2l-1 1-1 1-1 3 1 2v1l-1 2v3l-2-1h-2l-1-2-1-2-2-1h-1l-4-4v-1h2l1-1v-1l-1-4-1-1-1-1-1-2v-5l1-3-1-2v-1l2-2-1-1v-2l-2-5-3-3 1-2 1-3-1-1-1-1h-2l-1 1v-1l-2-1v-1h-3v-3l-3-1h-7v-2l1-2-1-2-2-3-1-2v-3l1-2v-1l-2-2-2-1-3-2-1-2v-1l-1-1h-1v-1h2l1 1 1 1h5l1 1 1 1 1 2h1l1-1h4l1 1h1l1-1h1l2 1 3 4 1 1h1l2-1v-6h2l1-2 2-1 4 2h1v-1h3l2-1 1-1 1 1 1-1 1-2 2-1h3l2-1 1-1 1-1 1-1h1l1-1 1-2-1-3-1-1h6l1-1h1l1 1 1 1 1 1v6l-1 1-1 1 1 1h4l2 1-1 2v1l2 3v2l-1 2-2 2v4l-2 2v3l-1 2v3l1 1 1 2v1l1 1 1 1v6h1v2h2l2 2 2 3 4 1Z" stroke="#000" stroke-opacity=".2" stroke-width="2" mask="url(#s)" />
    <mask id="t" fill="#fff">
      <path d="M308 610h-1l-1-1-1-1 1-4-1-4 1-1v-1l3-2 1-2 2-2-2-2h-1l-2-1-2-2-1-2v-1l-1-1-1-2-2-2v-1l-3-1h-1l-2-1-1-2-1-1-1-1-1-2-4-1-2-2h-2l-2-1-2-4-1-1-2-2h-1v2l-3 2h-2v-5l-4-4-2-2-2-2-2-2-2-2h-4l-1 2v1h-7v-2h1l3-3v-2l1-1h2v-1l1-1 5-6 1-1v-1l1-1 1-1h1l2-4v-1h1l1-1 2-2v-1l1-1 1-2 1-1 2 1 1-1h-1l-1-1v-1h1l1-1 3-1 1-1v-1l1-1 2-1h2l2-2v-1l1-2h2l3-1 2-1h1l2-2h1v-1l1-1 3-1v1h3l3-1 1-1 1 1v1h3l2 1 2-1 2 1h6l3 1 2 1 1 2 1 1v-1h2l6 3 1 2h1l1 1 3 3 1 2 1 1 2 3 1 1 6 1 3-1h3l1 3-2 1-2 1v5l-1 1h-1l-1 2v1l1 1h1l-1-1v-1h3l1 1 1 1h1l-2 2-4 6-4 11-6 10-5 7-6 5-6 4-3 4 1-2v-2l-1-2h2v1h1l3-2h1l2-4h2l1-1 1-1 1-2v-4h2v1h1l-1-2 1-2 3-2 1-1v-5l1 1 1-1v-3l-1-1h-1v1h-2l-2 1v1h-1v-2h-2v-1l-1-1v-2h-1l-1 2 1 2 1 2v1l-1 3v3-1l-1-1v-1l-1 1v1l-1 3v3l-2 1-1 1-4 2-1 2v2l-1 2-2 2v2l1 1-1 1-1 1 1 1 1-1 1 1v1l-2 1-2 5-2 6-2 5-2 2-7 7-2 2Z" />
    </mask>
    <path d="M308 610h-1l-1-1-1-1 1-4-1-4 1-1v-1l3-2 1-2 2-2-2-2h-1l-2-1-2-2-1-2v-1l-1-1-1-2-2-2v-1l-3-1h-1l-2-1-1-2-1-1-1-1-1-2-4-1-2-2h-2l-2-1-2-4-1-1-2-2h-1v2l-3 2h-2v-5l-4-4-2-2-2-2-2-2-2-2h-4l-1 2v1h-7v-2h1l3-3v-2l1-1h2v-1l1-1 5-6 1-1v-1l1-1 1-1h1l2-4v-1h1l1-1 2-2v-1l1-1 1-2 1-1 2 1 1-1h-1l-1-1v-1h1l1-1 3-1 1-1v-1l1-1 2-1h2l2-2v-1l1-2h2l3-1 2-1h1l2-2h1v-1l1-1 3-1v1h3l3-1 1-1 1 1v1h3l2 1 2-1 2 1h6l3 1 2 1 1 2 1 1v-1h2l6 3 1 2h1l1 1 3 3 1 2 1 1 2 3 1 1 6 1 3-1h3l1 3-2 1-2 1v5l-1 1h-1l-1 2v1l1 1h1l-1-1v-1h3l1 1 1 1h1l-2 2-4 6-4 11-6 10-5 7-6 5-6 4-3 4 1-2v-2l-1-2h2v1h1l3-2h1l2-4h2l1-1 1-1 1-2v-4h2v1h1l-1-2 1-2 3-2 1-1v-5l1 1 1-1v-3l-1-1h-1v1h-2l-2 1v1h-1v-2h-2v-1l-1-1v-2h-1l-1 2 1 2 1 2v1l-1 3v3-1l-1-1v-1l-1 1v1l-1 3v3l-2 1-1 1-4 2-1 2v2l-1 2-2 2v2l1 1-1 1-1 1 1 1 1-1 1 1v1l-2 1-2 5-2 6-2 5-2 2-7 7-2 2Z" fill="#fff" />
    <path d="M308 610h-1l-1-1-1-1 1-4-1-4 1-1v-1l3-2 1-2 2-2-2-2h-1l-2-1-2-2-1-2v-1l-1-1-1-2-2-2v-1l-3-1h-1l-2-1-1-2-1-1-1-1-1-2-4-1-2-2h-2l-2-1-2-4-1-1-2-2h-1v2l-3 2h-2v-5l-4-4-2-2-2-2-2-2-2-2h-4l-1 2v1h-7v-2h1l3-3v-2l1-1h2v-1l1-1 5-6 1-1v-1l1-1 1-1h1l2-4v-1h1l1-1 2-2v-1l1-1 1-2 1-1 2 1 1-1h-1l-1-1v-1h1l1-1 3-1 1-1v-1l1-1 2-1h2l2-2v-1l1-2h2l3-1 2-1h1l2-2h1v-1l1-1 3-1v1h3l3-1 1-1 1 1v1h3l2 1 2-1 2 1h6l3 1 2 1 1 2 1 1v-1h2l6 3 1 2h1l1 1 3 3 1 2 1 1 2 3 1 1 6 1 3-1h3l1 3-2 1-2 1v5l-1 1h-1l-1 2v1l1 1h1l-1-1v-1h3l1 1 1 1h1l-2 2-4 6-4 11-6 10-5 7-6 5-6 4-3 4 1-2v-2l-1-2h2v1h1l3-2h1l2-4h2l1-1 1-1 1-2v-4h2v1h1l-1-2 1-2 3-2 1-1v-5l1 1 1-1v-3l-1-1h-1v1h-2l-2 1v1h-1v-2h-2v-1l-1-1v-2h-1l-1 2 1 2 1 2v1l-1 3v3-1l-1-1v-1l-1 1v1l-1 3v3l-2 1-1 1-4 2-1 2v2l-1 2-2 2v2l1 1-1 1-1 1 1 1 1-1 1 1v1l-2 1-2 5-2 6-2 5-2 2-7 7-2 2Z" stroke="#0E4686" stroke-width="2" mask="url(#t)" />
    <path d="M308 610h-1l-1-1-1-1 1-4-1-4 1-1v-1l3-2 1-2 2-2-2-2h-1l-2-1-2-2-1-2v-1l-1-1-1-2-2-2v-1l-3-1h-1l-2-1-1-2-1-1-1-1-1-2-4-1-2-2h-2l-2-1-2-4-1-1-2-2h-1v2l-3 2h-2v-5l-4-4-2-2-2-2-2-2-2-2h-4l-1 2v1h-7v-2h1l3-3v-2l1-1h2v-1l1-1 5-6 1-1v-1l1-1 1-1h1l2-4v-1h1l1-1 2-2v-1l1-1 1-2 1-1 2 1 1-1h-1l-1-1v-1h1l1-1 3-1 1-1v-1l1-1 2-1h2l2-2v-1l1-2h2l3-1 2-1h1l2-2h1v-1l1-1 3-1v1h3l3-1 1-1 1 1v1h3l2 1 2-1 2 1h6l3 1 2 1 1 2 1 1v-1h2l6 3 1 2h1l1 1 3 3 1 2 1 1 2 3 1 1 6 1 3-1h3l1 3-2 1-2 1v5l-1 1h-1l-1 2v1l1 1h1l-1-1v-1h3l1 1 1 1h1l-2 2-4 6-4 11-6 10-5 7-6 5-6 4-3 4 1-2v-2l-1-2h2v1h1l3-2h1l2-4h2l1-1 1-1 1-2v-4h2v1h1l-1-2 1-2 3-2 1-1v-5l1 1 1-1v-3l-1-1h-1v1h-2l-2 1v1h-1v-2h-2v-1l-1-1v-2h-1l-1 2 1 2 1 2v1l-1 3v3-1l-1-1v-1l-1 1v1l-1 3v3l-2 1-1 1-4 2-1 2v2l-1 2-2 2v2l1 1-1 1-1 1 1 1 1-1 1 1v1l-2 1-2 5-2 6-2 5-2 2-7 7-2 2Z" stroke="#000" stroke-opacity=".2" stroke-width="2" mask="url(#t)" />
    <mask id="u" fill="#fff">
      <path d="M363 533h-1l-1-1-1-1h-3v1l1 1h-1l-1-1v-1l1-2h1l1-1v-5l2-1 2-1-1-3h-3l-3 1-6-2h-1l-2-3-1-1-1-2-3-3-1-1h-1l-1-2-6-3h-2v1l-1-1-1-2-2-1-3-1h-6l-2-1h-7v-1l-1-1-1 1-3 1h-3l1-3 1-2-1-3 1-3v-3l1-1h3l1-1h1l1 1 2 1h4l5 1 4 1h1l1 1 1 1h8l1 2v-1h2l1-1-1-3v-1l1-1 2-1h5l1-1 1-2h6l3-1h1l1 1 3 2 1 1h1l4-2 1-1 1-1 1 1 2-1h5v3l-1 1h-1l-1-3v1l1 3 1 2 1 1-1 2v3l1 6h1v1h1-1l-1 1-1 3 1 3-1 1 1 1v4l-1 4-2 5v-2l-1-1v3h1l-1 2-1 1-4 2-3 3-3 4-1 2Zm17-25-1-1 1-2v-4l2-1v4l-1 1-1 1 1 1-1 1Zm-1-24-2-2 3-2 1 1-1 1-1 2Z" />
    </mask>
    <path d="M363 533h-1l-1-1-1-1h-3v1l1 1h-1l-1-1v-1l1-2h1l1-1v-5l2-1 2-1-1-3h-3l-3 1-6-2h-1l-2-3-1-1-1-2-3-3-1-1h-1l-1-2-6-3h-2v1l-1-1-1-2-2-1-3-1h-6l-2-1h-7v-1l-1-1-1 1-3 1h-3l1-3 1-2-1-3 1-3v-3l1-1h3l1-1h1l1 1 2 1h4l5 1 4 1h1l1 1 1 1h8l1 2v-1h2l1-1-1-3v-1l1-1 2-1h5l1-1 1-2h6l3-1h1l1 1 3 2 1 1h1l4-2 1-1 1-1 1 1 2-1h5v3l-1 1h-1l-1-3v1l1 3 1 2 1 1-1 2v3l1 6h1v1h1-1l-1 1-1 3 1 3-1 1 1 1v4l-1 4-2 5v-2l-1-1v3h1l-1 2-1 1-4 2-3 3-3 4-1 2Zm17-25-1-1 1-2v-4l2-1v4l-1 1-1 1 1 1-1 1Zm-1-24-2-2 3-2 1 1-1 1-1 2Z" fill="#fff" />
    <path d="M363 533h-1l-1-1-1-1h-3v1l1 1h-1l-1-1v-1l1-2h1l1-1v-5l2-1 2-1-1-3h-3l-3 1-6-2h-1l-2-3-1-1-1-2-3-3-1-1h-1l-1-2-6-3h-2v1l-1-1-1-2-2-1-3-1h-6l-2-1h-7v-1l-1-1-1 1-3 1h-3l1-3 1-2-1-3 1-3v-3l1-1h3l1-1h1l1 1 2 1h4l5 1 4 1h1l1 1 1 1h8l1 2v-1h2l1-1-1-3v-1l1-1 2-1h5l1-1 1-2h6l3-1h1l1 1 3 2 1 1h1l4-2 1-1 1-1 1 1 2-1h5v3l-1 1h-1l-1-3v1l1 3 1 2 1 1-1 2v3l1 6h1v1h1-1l-1 1-1 3 1 3-1 1 1 1v4l-1 4-2 5v-2l-1-1v3h1l-1 2-1 1-4 2-3 3-3 4-1 2Zm17-25-1-1 1-2v-4l2-1v4l-1 1-1 1 1 1-1 1Zm-1-24-2-2 3-2 1 1-1 1-1 2Z" stroke="#0E4686" stroke-width="2" mask="url(#u)" />
    <path d="M363 533h-1l-1-1-1-1h-3v1l1 1h-1l-1-1v-1l1-2h1l1-1v-5l2-1 2-1-1-3h-3l-3 1-6-2h-1l-2-3-1-1-1-2-3-3-1-1h-1l-1-2-6-3h-2v1l-1-1-1-2-2-1-3-1h-6l-2-1h-7v-1l-1-1-1 1-3 1h-3l1-3 1-2-1-3 1-3v-3l1-1h3l1-1h1l1 1 2 1h4l5 1 4 1h1l1 1 1 1h8l1 2v-1h2l1-1-1-3v-1l1-1 2-1h5l1-1 1-2h6l3-1h1l1 1 3 2 1 1h1l4-2 1-1 1-1 1 1 2-1h5v3l-1 1h-1l-1-3v1l1 3 1 2 1 1-1 2v3l1 6h1v1h1-1l-1 1-1 3 1 3-1 1 1 1v4l-1 4-2 5v-2l-1-1v3h1l-1 2-1 1-4 2-3 3-3 4-1 2Zm17-25-1-1 1-2v-4l2-1v4l-1 1-1 1 1 1-1 1Zm-1-24-2-2 3-2 1 1-1 1-1 2Z" stroke="#000" stroke-opacity=".2" stroke-width="2" mask="url(#u)" />
    <path d="m560 234-2 1-4 3-1 1-1 1-1-2h-2v2h2l-1 2-1 1v-1h-2v1l1 1v2-1h-1l-1-1v3h-1v2l-1 1h-4v-1l-2-1h-1l1-1v-2l-2-1v-2h-1l-1-2v-2h2l1 1 2-1h1v-1h1v-1l-1-2v-1l1-1v-4l-1-1-2-2-1-2v-2l6 2 3 1 5 3 2 2 1 2 2 1h1l3 2Zm-13 13v1-1Z" fill="#fff" />
    <path d="m560 234-2 1-4 3-1 1-1 1-1-2h-2v2h2l-1 2-1 1v-1h-2v1l1 1v2-1h-1l-1-1v3h-1v2l-1 1h-4v-1l-2-1h-1l1-1v-2l-2-1v-2h-1l-1-2v-2h2l1 1 2-1h1v-1h1v-1l-1-2v-1l1-1v-4l-1-1-2-2-1-2v-2l6 2 3 1 5 3 2 2 1 2 2 1h1l3 2Zm-13 13v1-1Z" stroke="#0E4686" />
    <path d="m560 234-2 1-4 3-1 1-1 1-1-2h-2v2h2l-1 2-1 1v-1h-2v1l1 1v2-1h-1l-1-1v3h-1v2l-1 1h-4v-1l-2-1h-1l1-1v-2l-2-1v-2h-1l-1-2v-2h2l1 1 2-1h1v-1h1v-1l-1-2v-1l1-1v-4l-1-1-2-2-1-2v-2l6 2 3 1 5 3 2 2 1 2 2 1h1l3 2Zm-13 13v1-1Z" stroke="#000" stroke-opacity=".2" />
    <mask id="v" fill="#fff">
      <path d="M387 466v-1l-2-1-1-3 1-2h-3l-1 2-1 1h-1v-1l1-3 1-1-2-1-1-1-2 1v-1l-4 1h-3v-1l-1-2 1-2 1-1h-1l-1-2v-2h-1l-1-1-2-3h1v-2l-1-2-1-1v-1l1-1v-2l-1-2-4-3-1-1-2 1h-6v-1h-4v-1l-1-1h-3l-2-1-1-1h-5l-2-1h-3l-1-1h-2v1h-8l-4-1-3 3 1-1 1-2 1-1 7-4 2-2 1-2 2-2v-1l1-1 1-1-1-1 2-2 1-2v-4h1l3-4v-2l1-2h1v-1l2-2 1-1 1-1h2l1-1v-2l1-1 2-1 2-1 1-1 2-1h1l1 2h3l4 1 1-1 2 1 2-1 2 1 2 1-1 1 1 1 1 2h1l1-1v-1h1v4l2 1v-4l1-1 7-1 1-1 2 2h1l3-1v-2h2l2 1 1-1h1l3 3v2l-1 3h1l2 1v2l-1 2v3h1v3l1 1 1 2v1h2v-1h1l4 1v2l-1 2-1 3v6l-1 1 1 2 2 1 1 1 1 1-1 1 2 3 1 1 2-1v1l3-1h2l1-1v-3l1-1v2h4l2-1 1-1 2-1h2l1-1h1l1 1 1 2h6l1 1-1 3h-2l-3 1v-1l-2 1-1 1-1 4 1 2h1l-2 1-1-1-1 1-1 1-3 2-2 1h-1v1l1 1-1 1h-1l-1-1h-6l-2 1-1 2-1 1h-1l1-1-1-1-1-1-1 2h1l-1 1-7 4-1 1v1l-3 3-3 2h-2l-5 3-2 2-1 1h3v1l-1 1-1 1-1 1Zm42-22-1-1-2 1v-2h1l1-2h1v4Z" />
    </mask>
    <path d="M387 466v-1l-2-1-1-3 1-2h-3l-1 2-1 1h-1v-1l1-3 1-1-2-1-1-1-2 1v-1l-4 1h-3v-1l-1-2 1-2 1-1h-1l-1-2v-2h-1l-1-1-2-3h1v-2l-1-2-1-1v-1l1-1v-2l-1-2-4-3-1-1-2 1h-6v-1h-4v-1l-1-1h-3l-2-1-1-1h-5l-2-1h-3l-1-1h-2v1h-8l-4-1-3 3 1-1 1-2 1-1 7-4 2-2 1-2 2-2v-1l1-1 1-1-1-1 2-2 1-2v-4h1l3-4v-2l1-2h1v-1l2-2 1-1 1-1h2l1-1v-2l1-1 2-1 2-1 1-1 2-1h1l1 2h3l4 1 1-1 2 1 2-1 2 1 2 1-1 1 1 1 1 2h1l1-1v-1h1v4l2 1v-4l1-1 7-1 1-1 2 2h1l3-1v-2h2l2 1 1-1h1l3 3v2l-1 3h1l2 1v2l-1 2v3h1v3l1 1 1 2v1h2v-1h1l4 1v2l-1 2-1 3v6l-1 1 1 2 2 1 1 1 1 1-1 1 2 3 1 1 2-1v1l3-1h2l1-1v-3l1-1v2h4l2-1 1-1 2-1h2l1-1h1l1 1 1 2h6l1 1-1 3h-2l-3 1v-1l-2 1-1 1-1 4 1 2h1l-2 1-1-1-1 1-1 1-3 2-2 1h-1v1l1 1-1 1h-1l-1-1h-6l-2 1-1 2-1 1h-1l1-1-1-1-1-1-1 2h1l-1 1-7 4-1 1v1l-3 3-3 2h-2l-5 3-2 2-1 1h3v1l-1 1-1 1-1 1Zm42-22-1-1-2 1v-2h1l1-2h1v4Z" fill="#fff" />
    <path d="M387 466v-1l-2-1-1-3 1-2h-3l-1 2-1 1h-1v-1l1-3 1-1-2-1-1-1-2 1v-1l-4 1h-3v-1l-1-2 1-2 1-1h-1l-1-2v-2h-1l-1-1-2-3h1v-2l-1-2-1-1v-1l1-1v-2l-1-2-4-3-1-1-2 1h-6v-1h-4v-1l-1-1h-3l-2-1-1-1h-5l-2-1h-3l-1-1h-2v1h-8l-4-1-3 3 1-1 1-2 1-1 7-4 2-2 1-2 2-2v-1l1-1 1-1-1-1 2-2 1-2v-4h1l3-4v-2l1-2h1v-1l2-2 1-1 1-1h2l1-1v-2l1-1 2-1 2-1 1-1 2-1h1l1 2h3l4 1 1-1 2 1 2-1 2 1 2 1-1 1 1 1 1 2h1l1-1v-1h1v4l2 1v-4l1-1 7-1 1-1 2 2h1l3-1v-2h2l2 1 1-1h1l3 3v2l-1 3h1l2 1v2l-1 2v3h1v3l1 1 1 2v1h2v-1h1l4 1v2l-1 2-1 3v6l-1 1 1 2 2 1 1 1 1 1-1 1 2 3 1 1 2-1v1l3-1h2l1-1v-3l1-1v2h4l2-1 1-1 2-1h2l1-1h1l1 1 1 2h6l1 1-1 3h-2l-3 1v-1l-2 1-1 1-1 4 1 2h1l-2 1-1-1-1 1-1 1-3 2-2 1h-1v1l1 1-1 1h-1l-1-1h-6l-2 1-1 2-1 1h-1l1-1-1-1-1-1-1 2h1l-1 1-7 4-1 1v1l-3 3-3 2h-2l-5 3-2 2-1 1h3v1l-1 1-1 1-1 1Zm42-22-1-1-2 1v-2h1l1-2h1v4Z" stroke="#0E4686" stroke-width="2" mask="url(#v)" />
    <path d="M387 466v-1l-2-1-1-3 1-2h-3l-1 2-1 1h-1v-1l1-3 1-1-2-1-1-1-2 1v-1l-4 1h-3v-1l-1-2 1-2 1-1h-1l-1-2v-2h-1l-1-1-2-3h1v-2l-1-2-1-1v-1l1-1v-2l-1-2-4-3-1-1-2 1h-6v-1h-4v-1l-1-1h-3l-2-1-1-1h-5l-2-1h-3l-1-1h-2v1h-8l-4-1-3 3 1-1 1-2 1-1 7-4 2-2 1-2 2-2v-1l1-1 1-1-1-1 2-2 1-2v-4h1l3-4v-2l1-2h1v-1l2-2 1-1 1-1h2l1-1v-2l1-1 2-1 2-1 1-1 2-1h1l1 2h3l4 1 1-1 2 1 2-1 2 1 2 1-1 1 1 1 1 2h1l1-1v-1h1v4l2 1v-4l1-1 7-1 1-1 2 2h1l3-1v-2h2l2 1 1-1h1l3 3v2l-1 3h1l2 1v2l-1 2v3h1v3l1 1 1 2v1h2v-1h1l4 1v2l-1 2-1 3v6l-1 1 1 2 2 1 1 1 1 1-1 1 2 3 1 1 2-1v1l3-1h2l1-1v-3l1-1v2h4l2-1 1-1 2-1h2l1-1h1l1 1 1 2h6l1 1-1 3h-2l-3 1v-1l-2 1-1 1-1 4 1 2h1l-2 1-1-1-1 1-1 1-3 2-2 1h-1v1l1 1-1 1h-1l-1-1h-6l-2 1-1 2-1 1h-1l1-1-1-1-1-1-1 2h1l-1 1-7 4-1 1v1l-3 3-3 2h-2l-5 3-2 2-1 1h3v1l-1 1-1 1-1 1Zm42-22-1-1-2 1v-2h1l1-2h1v4Z" stroke="#000" stroke-opacity=".2" stroke-width="2" mask="url(#v)" />
    <mask id="w" fill="#fff">
      <path d="m414 269-5 2-2 1-2 1h-2l-4 1-2 2-2 1-2-3-1 3h-4l-3-2 1-1v-1h-7l-1 1v1h-2l-1-3-1-3-1-2-1-1-1 1-1 2-2 6-4-2-3-1-4-1-2-1h-2v-2l1-2v-2 1l-2 2-1 1v2h-2l-1-4 1-2v-3l-1-1v-4l-1-2v-1l1-1v-1l-1-1v-1l2-5v-6l2-5h1v-4l1-1 1-2 1-1 1-4 1-4 1-1 1-2 2-1 1-2 1-1h1l1-1 1-1v-1l1-3 1-1 2-5 1-4h-1l-2-2v-1l-1-1h1l1-2 1-2v-5l2-2 4-1 2-1v-2l1-1 1-1h2v-2l-1-1h1l1-1h1l1-3-1-1-1-1 1-1h1l1-1-1-2h-2l-1-2h-1l-2 1-2-1 1-1 2-2h3l3 1 1 1 1-1h1l1 1v1h2l3 2 1 1v3l1 1-1 4 1 1v1l-1 6-1 3 1 1-1 1-1 2-2 1 2 2v-1l1 1h1v1l-1 1 1 1h1l3 4v1l3 3 2-1 4-1 2 1v2l-1 3v1h-3l-1 1h-1v2l-1 2v1l-2 3v1h2l1 1v3l1 1 4 2-2 2v2l2 1 1 3 2 2h3l1 1 2 1h2v1l-1 1-4 2-3 3 1 2h-1l-1 1-1 3-1 1-1 1v1l2 2h4l1 1v1l-2 1v2h2v1h1l-1 1h-1l-2 2v5h2v2l-1 2v1Z" />
    </mask>
    <path d="m414 269-5 2-2 1-2 1h-2l-4 1-2 2-2 1-2-3-1 3h-4l-3-2 1-1v-1h-7l-1 1v1h-2l-1-3-1-3-1-2-1-1-1 1-1 2-2 6-4-2-3-1-4-1-2-1h-2v-2l1-2v-2 1l-2 2-1 1v2h-2l-1-4 1-2v-3l-1-1v-4l-1-2v-1l1-1v-1l-1-1v-1l2-5v-6l2-5h1v-4l1-1 1-2 1-1 1-4 1-4 1-1 1-2 2-1 1-2 1-1h1l1-1 1-1v-1l1-3 1-1 2-5 1-4h-1l-2-2v-1l-1-1h1l1-2 1-2v-5l2-2 4-1 2-1v-2l1-1 1-1h2v-2l-1-1h1l1-1h1l1-3-1-1-1-1 1-1h1l1-1-1-2h-2l-1-2h-1l-2 1-2-1 1-1 2-2h3l3 1 1 1 1-1h1l1 1v1h2l3 2 1 1v3l1 1-1 4 1 1v1l-1 6-1 3 1 1-1 1-1 2-2 1 2 2v-1l1 1h1v1l-1 1 1 1h1l3 4v1l3 3 2-1 4-1 2 1v2l-1 3v1h-3l-1 1h-1v2l-1 2v1l-2 3v1h2l1 1v3l1 1 4 2-2 2v2l2 1 1 3 2 2h3l1 1 2 1h2v1l-1 1-4 2-3 3 1 2h-1l-1 1-1 3-1 1-1 1v1l2 2h4l1 1v1l-2 1v2h2v1h1l-1 1h-1l-2 2v5h2v2l-1 2v1Z" fill="#fff" />
    <path d="m414 269-5 2-2 1-2 1h-2l-4 1-2 2-2 1-2-3-1 3h-4l-3-2 1-1v-1h-7l-1 1v1h-2l-1-3-1-3-1-2-1-1-1 1-1 2-2 6-4-2-3-1-4-1-2-1h-2v-2l1-2v-2 1l-2 2-1 1v2h-2l-1-4 1-2v-3l-1-1v-4l-1-2v-1l1-1v-1l-1-1v-1l2-5v-6l2-5h1v-4l1-1 1-2 1-1 1-4 1-4 1-1 1-2 2-1 1-2 1-1h1l1-1 1-1v-1l1-3 1-1 2-5 1-4h-1l-2-2v-1l-1-1h1l1-2 1-2v-5l2-2 4-1 2-1v-2l1-1 1-1h2v-2l-1-1h1l1-1h1l1-3-1-1-1-1 1-1h1l1-1-1-2h-2l-1-2h-1l-2 1-2-1 1-1 2-2h3l3 1 1 1 1-1h1l1 1v1h2l3 2 1 1v3l1 1-1 4 1 1v1l-1 6-1 3 1 1-1 1-1 2-2 1 2 2v-1l1 1h1v1l-1 1 1 1h1l3 4v1l3 3 2-1 4-1 2 1v2l-1 3v1h-3l-1 1h-1v2l-1 2v1l-2 3v1h2l1 1v3l1 1 4 2-2 2v2l2 1 1 3 2 2h3l1 1 2 1h2v1l-1 1-4 2-3 3 1 2h-1l-1 1-1 3-1 1-1 1v1l2 2h4l1 1v1l-2 1v2h2v1h1l-1 1h-1l-2 2v5h2v2l-1 2v1Z" stroke="#0E4686" stroke-width="2" mask="url(#w)" />
    <path d="m414 269-5 2-2 1-2 1h-2l-4 1-2 2-2 1-2-3-1 3h-4l-3-2 1-1v-1h-7l-1 1v1h-2l-1-3-1-3-1-2-1-1-1 1-1 2-2 6-4-2-3-1-4-1-2-1h-2v-2l1-2v-2 1l-2 2-1 1v2h-2l-1-4 1-2v-3l-1-1v-4l-1-2v-1l1-1v-1l-1-1v-1l2-5v-6l2-5h1v-4l1-1 1-2 1-1 1-4 1-4 1-1 1-2 2-1 1-2 1-1h1l1-1 1-1v-1l1-3 1-1 2-5 1-4h-1l-2-2v-1l-1-1h1l1-2 1-2v-5l2-2 4-1 2-1v-2l1-1 1-1h2v-2l-1-1h1l1-1h1l1-3-1-1-1-1 1-1h1l1-1-1-2h-2l-1-2h-1l-2 1-2-1 1-1 2-2h3l3 1 1 1 1-1h1l1 1v1h2l3 2 1 1v3l1 1-1 4 1 1v1l-1 6-1 3 1 1-1 1-1 2-2 1 2 2v-1l1 1h1v1l-1 1 1 1h1l3 4v1l3 3 2-1 4-1 2 1v2l-1 3v1h-3l-1 1h-1v2l-1 2v1l-2 3v1h2l1 1v3l1 1 4 2-2 2v2l2 1 1 3 2 2h3l1 1 2 1h2v1l-1 1-4 2-3 3 1 2h-1l-1 1-1 3-1 1-1 1v1l2 2h4l1 1v1l-2 1v2h2v1h1l-1 1h-1l-2 2v5h2v2l-1 2v1Z" stroke="#000" stroke-opacity=".2" stroke-width="2" mask="url(#w)" />
  </g>
  <defs>
    <clipPath id="a">
      <path fill="#fff" d="M0 0h585v610H0z" />
    </clipPath>
  </defs>
</svg>