<svg width="78" height="113" fill="none" xmlns="http://www.w3.org/2000/svg">
  <g style="mix-blend-mode:luminosity">
    <path d="M0 0h45v74H0V0Z" fill="#525066" />
    <path d="M4 3h37v60H4V3ZM15 67h15v5H15v-5Z" fill="#A5DFEC" />
    <path d="M28 39c3 0 6 1 7 4l6 25a5 5 0 0 1 3-7c3 0 6 1 7 4l1 3a5 5 0 0 1 3-6c3 0 6 1 7 4v2c0-2 1-5 3-5a4 4 0 0 1 6 3l5 22a25 25 0 0 1 1 7 35 35 0 0 0 1 10l-33 8-1-5a4 4 0 0 0-4-3l-3-1-5-4-8-10c-2-2-2-4-1-6l1-3 1-5-1-1c0-2 1-4 4-5a8 8 0 0 1 3 0l-6-24a5 5 0 0 1 3-7Z" fill="#FCD09F" />
    <path d="M29 70h2l4 18a2 2 0 0 1-2-1l-4-17Z" fill="#E2B991" />
  </g>
</svg>