<svg width="155" height="136" viewBox="0 0 155 136" fill="none" xmlns="http://www.w3.org/2000/svg">
  <path d="M110 33C110 51.2254 81.0002 119 77.0002 119C72.0002 119 44.0002 51.2254 44.0002 33C44.0002 14.7746 58.7748 0 77.0002 0C95.2256 0 110 14.7746 110 33Z" fill="url(#paint0_linear_26_351)" />
  <path d="M90.0002 32C90.0002 39.1797 84.1799 45 77.0002 45C69.8205 45 64.0002 39.1797 64.0002 32C64.0002 24.8203 69.8205 19 77.0002 19C84.1799 19 90.0002 24.8203 90.0002 32Z" fill="white" />
  <path d="M109.5 95C120.524 96.4007 130.227 98.5159 137.689 101.192C149.068 105.272 154.415 110.36 152.679 115.456C150.943 120.552 142.249 125.287 128.307 128.731C114.365 132.175 96.1825 134.079 77.3339 134.068C58.4853 134.056 40.3339 132.131 26.4476 128.67C12.5614 125.21 3.94463 120.464 2.2912 115.366C0.637773 110.268 6.06723 105.186 17.5123 101.12C24.6075 98.5989 33.6965 96.5813 44.0002 95.1961" stroke="#0E4686" stroke-width="3" stroke-linecap="round" />
  <path d="M109.5 95C120.524 96.4007 130.227 98.5159 137.689 101.192C149.068 105.272 154.415 110.36 152.679 115.456C150.943 120.552 142.249 125.287 128.307 128.731C114.365 132.175 96.1825 134.079 77.3339 134.068C58.4853 134.056 40.3339 132.131 26.4476 128.67C12.5614 125.21 3.94463 120.464 2.2912 115.366C0.637773 110.268 6.06723 105.186 17.5123 101.12C24.6075 98.5989 33.6965 96.5813 44.0002 95.1961" stroke="black" stroke-opacity="0.2" stroke-width="3" stroke-linecap="round" />
  <defs>
    <linearGradient id="paint0_linear_26_351" x1="77.0002" y1="0" x2="77.0002" y2="119" gradientUnits="userSpaceOnUse">
      <stop stop-color="#D90000" />
      <stop offset="1" stop-color="#730000" />
    </linearGradient>
  </defs>
</svg>