<svg width="155" height="136" fill="none">
  <path d="M110 33c0 18-29 86-33 86-5 0-33-68-33-86a33 33 0 1 1 66 0Z" fill="url(#a)" />
  <path d="M90 32a13 13 0 1 1-26 0 13 13 0 0 1 26 0Z" fill="#fff" />
  <path d="M110 95c11 1 20 4 28 6 11 4 16 9 15 14-2 6-11 10-25 14a222 222 0 0 1-102 0c-13-4-22-9-24-14-1-5 4-10 16-14l26-6" stroke="#0E4686" stroke-width="3" stroke-linecap="round" />
  <path d="M110 95c11 1 20 4 28 6 11 4 16 9 15 14-2 6-11 10-25 14a222 222 0 0 1-102 0c-13-4-22-9-24-14-1-5 4-10 16-14l26-6" stroke="#000" stroke-opacity=".2" stroke-width="3" stroke-linecap="round" />
  <defs>
    <linearGradient id="a" x1="77" y1="0" x2="77" y2="119" gradientUnits="userSpaceOnUse">
      <stop stop-color="#D90000" />
      <stop offset="1" stop-color="#730000" />
    </linearGradient>
  </defs>
</svg>