<svg width="123" height="108" viewBox="0 0 123 108" fill="none" xmlns="http://www.w3.org/2000/svg">
  <g style="mix-blend-mode:luminosity">
    <path d="M87.1126 26.2126C87.1126 40.5756 64.2584 93.9871 61.1061 93.9871C57.1657 93.9871 35.0996 40.5756 35.0996 26.2126C35.0996 11.8496 46.7431 0.206085 61.1061 0.206085C75.4691 0.206085 87.1126 11.8496 87.1126 26.2126Z" fill="url(#paint0_linear_306_171)" />
    <path d="M71.3511 25.4245C71.3511 31.0827 66.7643 35.6695 61.1061 35.6695C55.448 35.6695 50.8611 31.0827 50.8611 25.4245C50.8611 19.7664 55.448 15.1795 61.1061 15.1795C66.7643 15.1795 71.3511 19.7664 71.3511 25.4245Z" fill="white" />
    <path d="M86.7186 75.0733C95.406 76.1772 103.053 77.8441 108.934 79.9528C117.901 83.1681 122.115 87.178 120.747 91.1941C119.379 95.2102 112.527 98.9421 101.54 101.656C90.5523 104.37 76.2232 105.87 61.369 105.862C46.5149 105.853 32.2102 104.335 21.2668 101.608C10.3234 98.881 3.53276 95.1409 2.22973 91.1232C0.926706 87.1055 5.20553 83.1008 14.2251 79.8962C19.8167 77.9095 26.9795 76.3195 35.0996 75.2278" stroke="#0E4686" stroke-width="3" stroke-linecap="round" />
    <path d="M86.7186 75.0733C95.406 76.1772 103.053 77.8441 108.934 79.9528C117.901 83.1681 122.115 87.178 120.747 91.1941C119.379 95.2102 112.527 98.9421 101.54 101.656C90.5523 104.37 76.2232 105.87 61.369 105.862C46.5149 105.853 32.2102 104.335 21.2668 101.608C10.3234 98.881 3.53276 95.1409 2.22973 91.1232C0.926706 87.1055 5.20553 83.1008 14.2251 79.8962C19.8167 77.9095 26.9795 76.3195 35.0996 75.2278" stroke="black" stroke-opacity="0.2" stroke-width="3" stroke-linecap="round" />
  </g>
  <defs>
    <linearGradient id="paint0_linear_306_171" x1="61.1061" y1="0.206085" x2="61.1061" y2="93.9871" gradientUnits="userSpaceOnUse">
      <stop stop-color="#D90000" />
      <stop offset="1" stop-color="#730000" />
    </linearGradient>
  </defs>
</svg>