<svg width="146" height="106" fill="none" xmlns="http://www.w3.org/2000/svg">
  <path d="M.011.18h7.696v99.274H.01V.18Z" fill="#0E4686" />
  <path d="M.011.18h7.696v99.274H.01V.18Z" fill="#000" fill-opacity=".2" />
  <path d="M49.264.18h7.696v99.274h-7.696V.18Z" fill="#0E4686" />
  <path d="M49.264.18h7.696v99.274h-7.696V.18Z" fill="#000" fill-opacity=".2" />
  <path d="M98.517.18h7.695v99.274h-7.695V.18Z" fill="#0E4686" />
  <path d="M98.517.18h7.695v99.274h-7.695V.18Z" fill="#000" fill-opacity=".2" />
  <path d="M11.555.18h3.078v99.274h-3.078V.18Z" fill="#0E4686" />
  <path d="M11.555.18h3.078v99.274h-3.078V.18Z" fill="#000" fill-opacity=".2" />
  <path d="M60.807.18h3.079v99.274h-3.079V.18Z" fill="#0E4686" />
  <path d="M60.807.18h3.079v99.274h-3.079V.18Z" fill="#000" fill-opacity=".2" />
  <path d="M110.06.18h3.079v99.274h-3.079V.18Z" fill="#0E4686" />
  <path d="M110.06.18h3.079v99.274h-3.079V.18Z" fill="#000" fill-opacity=".2" />
  <path d="M16.942.18h3.078v99.274h-3.078V.18Z" fill="#0E4686" />
  <path d="M16.942.18h3.078v99.274h-3.078V.18Z" fill="#000" fill-opacity=".2" />
  <path d="M66.195.18h3.078v99.274h-3.078V.18Z" fill="#0E4686" />
  <path d="M66.195.18h3.078v99.274h-3.078V.18Z" fill="#000" fill-opacity=".2" />
  <path d="M115.447.18h3.079v99.274h-3.079V.18Z" fill="#0E4686" />
  <path d="M115.447.18h3.079v99.274h-3.079V.18Z" fill="#000" fill-opacity=".2" />
  <path d="M23.868.18H38.49v99.274H23.868V.18Z" fill="#0E4686" />
  <path d="M23.868.18H38.49v99.274H23.868V.18Z" fill="#000" fill-opacity=".2" />
  <path d="M73.12.18h14.623v99.274H73.12V.18Z" fill="#0E4686" />
  <path d="M73.12.18h14.623v99.274H73.12V.18Z" fill="#000" fill-opacity=".2" />
  <path d="M122.374.18h14.621v99.274h-14.621V.18Z" fill="#0E4686" />
  <path d="M122.374.18h14.621v99.274h-14.621V.18Z" fill="#000" fill-opacity=".2" />
  <path d="M40.799.18h1.539v99.274h-1.54V.18Z" fill="#0E4686" />
  <path d="M40.799.18h1.539v99.274h-1.54V.18Z" fill="#000" fill-opacity=".2" />
  <path d="M90.051.18h1.54v99.274h-1.54V.18Z" fill="#0E4686" />
  <path d="M90.051.18h1.54v99.274h-1.54V.18Z" fill="#000" fill-opacity=".2" />
  <path d="M139.304.18h1.539v99.274h-1.539V.18Z" fill="#0E4686" />
  <path d="M139.304.18h1.539v99.274h-1.539V.18Z" fill="#000" fill-opacity=".2" />
  <path d="M43.107.18h1.54v99.274h-1.54V.18Z" fill="#0E4686" />
  <path d="M43.107.18h1.54v99.274h-1.54V.18Z" fill="#000" fill-opacity=".2" />
  <path d="M92.36.18h1.54v99.274h-1.54V.18Z" fill="#0E4686" />
  <path d="M92.36.18h1.54v99.274h-1.54V.18Z" fill="#000" fill-opacity=".2" />
  <path d="M141.613.18h1.539v99.274h-1.539V.18Z" fill="#0E4686" />
  <path d="M141.613.18h1.539v99.274h-1.539V.18Z" fill="#000" fill-opacity=".2" />
  <path d="M45.416.18h1.54v99.274h-1.54V.18Z" fill="#0E4686" />
  <path d="M45.416.18h1.54v99.274h-1.54V.18Z" fill="#000" fill-opacity=".2" />
  <path d="M94.669.18h1.539v99.274h-1.54V.18Z" fill="#0E4686" />
  <path d="M94.669.18h1.539v99.274h-1.54V.18Z" fill="#000" fill-opacity=".2" />
  <path d="M143.922.18h1.539v99.274h-1.539V.18Z" fill="#0E4686" />
  <path d="M143.922.18h1.539v99.274h-1.539V.18Z" fill="#000" fill-opacity=".2" />
  <rect x="30.024" y="78.676" width="78.391" height="26.392" rx="13.196" fill="#fff" />
  <path d="M42.92 97.557c-.864-.004-1.602-.231-2.214-.683-.612-.452-1.08-1.11-1.405-1.973-.324-.864-.486-1.904-.486-3.121 0-1.214.162-2.25.486-3.11.328-.86.798-1.516 1.41-1.968.616-.452 1.352-.678 2.209-.678.856 0 1.59.228 2.202.684.612.451 1.08 1.107 1.405 1.967.328.856.492 1.891.492 3.105 0 1.22-.162 2.263-.486 3.126-.325.86-.793 1.518-1.405 1.973-.612.452-1.348.678-2.208.678Zm0-1.46c.758 0 1.35-.37 1.776-1.109.43-.74.645-1.809.645-3.208 0-.93-.098-1.715-.295-2.356-.193-.645-.472-1.133-.836-1.465a1.83 1.83 0 0 0-1.29-.503c-.755 0-1.347.372-1.777 1.115-.43.744-.647 1.813-.65 3.209 0 .933.096 1.721.29 2.366.196.642.475 1.128.836 1.46.36.328.794.492 1.3.492Zm10.628 1.46c-.864-.004-1.602-.231-2.214-.683-.612-.452-1.08-1.11-1.405-1.973-.324-.864-.486-1.904-.486-3.121 0-1.214.162-2.25.486-3.11.328-.86.798-1.516 1.41-1.968.616-.452 1.352-.678 2.209-.678.856 0 1.59.228 2.202.684.612.451 1.08 1.107 1.405 1.967.328.856.492 1.891.492 3.105 0 1.22-.162 2.263-.487 3.126-.324.86-.792 1.518-1.404 1.973-.612.452-1.349.678-2.208.678Zm0-1.46c.758 0 1.35-.37 1.776-1.109.43-.74.645-1.809.645-3.208 0-.93-.099-1.715-.295-2.356-.193-.645-.472-1.133-.837-1.465a1.83 1.83 0 0 0-1.29-.503c-.754 0-1.346.372-1.776 1.115-.43.744-.647 1.813-.65 3.209 0 .933.096 1.721.29 2.366.196.642.475 1.128.836 1.46.36.328.794.492 1.3.492Zm10.627 1.427c-.75 0-1.42-.13-2.01-.388-.587-.258-1.052-.617-1.395-1.077a2.858 2.858 0 0 1-.546-1.606h1.716c.022.331.133.619.334.863.203.24.47.426.797.558.328.13.693.196 1.094.196.44 0 .83-.076 1.17-.23.342-.152.61-.365.803-.639a1.63 1.63 0 0 0 .29-.956c0-.376-.097-.705-.29-.99-.19-.287-.469-.513-.837-.677-.364-.164-.805-.246-1.322-.246h-.946v-1.378h.946c.415 0 .78-.074 1.093-.224.317-.149.565-.357.743-.623.179-.27.268-.585.268-.945a1.69 1.69 0 0 0-.235-.902 1.58 1.58 0 0 0-.656-.607 2.132 2.132 0 0 0-.995-.219c-.364 0-.705.068-1.022.203-.313.13-.568.32-.765.568a1.462 1.462 0 0 0-.317.88H60.46a2.76 2.76 0 0 1 .535-1.596c.343-.459.795-.818 1.356-1.077a4.412 4.412 0 0 1 1.87-.388c.717 0 1.337.14 1.858.421.524.277.929.647 1.213 1.11.288.462.43.969.426 1.52.004.626-.17 1.158-.524 1.595-.35.438-.817.73-1.4.88v.088c.744.113 1.32.408 1.728.885.411.478.615 1.07.612 1.776a2.765 2.765 0 0 1-.514 1.657c-.343.488-.81.872-1.405 1.153-.594.277-1.273.415-2.038.415Zm10.624 0a4.515 4.515 0 0 1-1.475-.273 3.459 3.459 0 0 1-1.312-.875c-.394-.408-.709-.956-.946-1.645-.233-.688-.35-1.548-.35-2.58 0-.976.097-1.843.29-2.601.197-.758.48-1.398.847-1.919a3.752 3.752 0 0 1 1.334-1.197 3.72 3.72 0 0 1 1.755-.41c.666 0 1.258.132 1.776.394.517.262.936.625 1.257 1.088.324.462.53.989.618 1.58h-1.667a2.156 2.156 0 0 0-.673-1.143c-.335-.295-.772-.443-1.311-.443-.82 0-1.46.357-1.919 1.071-.455.715-.685 1.707-.689 2.98h.082c.194-.318.43-.587.71-.81a3.349 3.349 0 0 1 2.066-.705c.65 0 1.236.159 1.76.476.53.313.95.747 1.264 1.3.313.554.47 1.189.47 1.903s-.163 1.36-.487 1.94a3.567 3.567 0 0 1-1.355 1.377c-.583.336-1.265.5-2.045.492Zm-.005-1.42c.43 0 .814-.106 1.153-.318.34-.211.607-.495.804-.853a2.44 2.44 0 0 0 .295-1.197c0-.43-.097-.821-.29-1.175a2.186 2.186 0 0 0-.787-.841 2.097 2.097 0 0 0-1.137-.312 2.183 2.183 0 0 0-1.623.7c-.208.218-.372.47-.492.754-.117.28-.175.578-.175.89a2.375 2.375 0 0 0 1.093 2.028c.343.216.729.323 1.159.323Zm6.34-.92V93.82l4.837-7.642h1.077v2.012h-.683l-3.46 5.477v.087h6.63v1.432h-8.401Zm5.307 2.187V94.77l.011-.623v-7.969h1.602v11.194H86.44Zm5.691 0v-1.224l3.788-3.925c.404-.426.738-.8 1-1.12.266-.324.465-.632.596-.924.131-.291.197-.6.197-.929 0-.371-.088-.692-.263-.962a1.715 1.715 0 0 0-.716-.628 2.277 2.277 0 0 0-1.022-.225c-.4 0-.75.082-1.05.246a1.685 1.685 0 0 0-.688.695c-.16.298-.24.648-.24 1.049H92.12c0-.681.157-1.277.47-1.787.314-.51.744-.906 1.29-1.186.547-.284 1.168-.427 1.864-.427.703 0 1.323.14 1.858.421.54.277.96.656 1.263 1.137.302.477.454 1.017.454 1.618 0 .415-.079.822-.235 1.219-.153.397-.421.84-.804 1.328-.382.485-.914 1.073-1.596 1.765l-2.224 2.329v.082h5.04v1.448h-7.369Z" fill="#000" />
</svg>