<svg width="188" height="100" viewBox="0 0 188 100" fill="none" xmlns="http://www.w3.org/2000/svg">
  <g style="mix-blend-mode:luminosity">
    <g clip-path="url(#clip0_198_124)">
      <path d="M106.025 56.7073C109.275 56.7073 112.194 58.1212 114.204 60.3663H129.195V60.3659V53.0488V28.6585H119.439H104.805L97.488 45.7317H87.7319V53.0488H95.049V60.3659H87.7319V60.3663H97.8456C99.8553 58.1212 102.774 56.7073 106.025 56.7073ZM109.63 35.9756H125.537V45.7317H105.449L109.63 35.9756Z" fill="#FFDA44" />
      <path d="M136.512 60.3658H129.195V60.3663H136.512V60.3658Z" fill="#FF9811" />
      <path d="M165.781 45.7317L153.586 28.6585H138.951H129.195V53.0488H136.512V60.3659H143.829V53.0488H151.147V60.3659H143.829V60.3663H161.26C163.27 58.1212 166.189 56.7073 169.439 56.7073C172.689 56.7073 175.608 58.1212 177.618 60.3663H187.732V60.3659H182.854L180.415 53.0488H187.732V50.6098L165.781 45.7317ZM132.854 45.7317V35.9756H149.82L156.788 45.7317H132.854Z" fill="#FF9811" />
      <path d="M87.7319 60.3663V67.6829H95.049C95.049 64.8715 96.1073 62.308 97.8456 60.3663H87.7319Z" fill="#ACABB1" />
      <path d="M129.195 60.3663H114.204C115.942 62.308 117 64.8715 117 67.6829H136.512V60.3663H129.195Z" fill="#ACABB1" />
      <path d="M143.829 60.3663V67.6829H158.464C158.464 64.8715 159.522 62.308 161.26 60.3663H143.829Z" fill="#ACABB1" />
      <path d="M180.415 67.6829H187.732V60.3663H177.618C179.357 62.308 180.415 64.8715 180.415 67.6829Z" fill="#ACABB1" />
      <path d="M100.537 67.6829C100.537 64.6519 102.994 62.1951 106.025 62.1951V56.7073C102.774 56.7073 99.8553 58.1212 97.8455 60.3663C96.1072 62.308 95.049 64.8715 95.049 67.6829C95.049 73.7446 99.9629 78.6585 106.025 78.6585V73.1707C102.994 73.1707 100.537 70.7139 100.537 67.6829Z" fill="#616064" />
      <path d="M106.025 56.7073V62.1951C109.056 62.1951 111.512 64.6519 111.512 67.6829C111.512 70.7139 109.056 73.1707 106.025 73.1707V78.6585C112.086 78.6585 117 73.7446 117 67.6829C117 64.8715 115.942 62.308 114.204 60.3663C112.194 58.1212 109.275 56.7073 106.025 56.7073Z" fill="#565659" />
      <path d="M100.537 67.6829C100.537 70.7139 102.994 73.1707 106.025 73.1707V62.1951C102.994 62.1951 100.537 64.652 100.537 67.6829Z" fill="#CDCDD0" />
      <path d="M106.025 73.1707C109.056 73.1707 111.512 70.7139 111.512 67.6829C111.512 64.652 109.056 62.1951 106.025 62.1951V73.1707Z" fill="#ACABB1" />
      <path d="M163.951 67.6829C163.951 64.6519 166.408 62.1951 169.439 62.1951V56.7073C166.189 56.7073 163.27 58.1212 161.26 60.3663C159.522 62.308 158.464 64.8715 158.464 67.6829C158.464 73.7446 163.378 78.6585 169.439 78.6585V73.1707C166.408 73.1707 163.951 70.7139 163.951 67.6829Z" fill="#616064" />
      <path d="M169.439 56.7073V62.1951C172.47 62.1951 174.927 64.6519 174.927 67.6829C174.927 70.7139 172.47 73.1707 169.439 73.1707V78.6585C175.501 78.6585 180.415 73.7446 180.415 67.6829C180.415 64.8715 179.357 62.308 177.618 60.3663C175.608 58.1212 172.689 56.7073 169.439 56.7073Z" fill="#565659" />
      <path d="M163.951 67.6829C163.951 70.7139 166.408 73.1707 169.439 73.1707V62.1951C166.408 62.1951 163.951 64.652 163.951 67.6829Z" fill="#CDCDD0" />
      <path d="M169.439 73.1707C172.47 73.1707 174.927 70.7139 174.927 67.6829C174.927 64.652 172.47 62.1951 169.439 62.1951V73.1707Z" fill="#ACABB1" />
      <path d="M125.537 35.9756H109.63L105.449 45.7317H125.537V35.9756Z" fill="white" />
      <path d="M132.854 35.9756V45.7317H156.789L149.82 35.9756H132.854Z" fill="white" />
      <path d="M95.049 53.0488H87.7319V60.3658H95.049V53.0488Z" fill="#FF5023" />
      <path d="M182.854 60.3658H187.732V53.0488H180.415L182.854 60.3658Z" fill="#FF5023" />
      <path d="M138.951 28.6585V21.3415H119.439V28.6585H129.195H138.951Z" fill="#565659" />
      <path d="M136.512 53.0488H129.195V60.3658H136.512V53.0488Z" fill="#565659" />
      <path d="M143.83 60.3658H136.512V60.3663V67.6829H143.83V60.3663V60.3658Z" fill="#565659" />
      <path d="M151.147 53.0488H143.829V60.3658H151.147V53.0488Z" fill="#565659" />
    </g>
    <path d="M82.7319 68.3334C82.7319 73.8562 78.2547 78.3334 72.7319 78.3334C67.209 78.3334 62.7319 73.8562 62.7319 68.3334C62.7319 62.8105 67.209 58.3334 72.7319 58.3334C78.2547 58.3334 82.7319 62.8105 82.7319 68.3334Z" fill="#D9D9D9" />
    <path d="M66.8986 64.1667C66.8986 69.6895 62.4214 74.1667 56.8986 74.1667C51.3757 74.1667 46.8986 69.6895 46.8986 64.1667C46.8986 58.6438 51.3757 54.1667 56.8986 54.1667C62.4214 54.1667 66.8986 58.6438 66.8986 64.1667Z" fill="#D9D9D9" />
    <path d="M56.8986 66.6667C56.8986 72.1895 52.4214 76.6667 46.8986 76.6667C41.3757 76.6667 36.8986 72.1895 36.8986 66.6667C36.8986 61.1438 41.3757 56.6667 46.8986 56.6667C52.4214 56.6667 56.8986 61.1438 56.8986 66.6667Z" fill="#D9D9D9" />
    <path d="M48.5652 54.1667C48.5652 59.6895 44.0881 64.1667 38.5652 64.1667C33.0424 64.1667 28.5652 59.6895 28.5652 54.1667C28.5652 48.6438 33.0424 44.1667 38.5652 44.1667C44.0881 44.1667 48.5652 48.6438 48.5652 54.1667Z" fill="#D9D9D9" />
    <path d="M41.8986 63.3334C41.8986 68.8562 37.4214 73.3334 31.8986 73.3334C26.3757 73.3334 21.8986 68.8562 21.8986 63.3334C21.8986 57.8105 26.3757 53.3334 31.8986 53.3334C37.4214 53.3334 41.8986 57.8105 41.8986 63.3334Z" fill="#D9D9D9" />
    <path d="M21.8986 62.5H80.6486L88.7736 70L97.5236 78.3334H21.8986V62.5Z" fill="#D9D9D9" />
    <path d="M70.3531 34.1237L79.548 13.3394L80.8795 13.9285L71.6846 34.7127L70.3531 34.1237ZM80.0447 21.7623C80.2695 21.0786 80.2158 20.4465 79.8837 19.866C79.5516 19.2854 78.9633 18.8084 78.119 18.4349C77.5452 18.181 77.0249 18.0479 76.558 18.0355C76.0934 18.0177 75.6933 18.1028 75.3577 18.2908C75.0275 18.4813 74.7834 18.7552 74.6254 19.1124C74.4828 19.4053 74.4302 19.6926 74.4673 19.9744C74.5098 20.2586 74.617 20.5357 74.7887 20.8059C74.9628 21.0706 75.1832 21.3331 75.4499 21.5935C75.719 21.8484 76.0168 22.0967 76.3436 22.3383L77.6794 23.3564C78.3328 23.8396 78.9028 24.3507 79.3893 24.8895C79.8758 25.4283 80.2535 25.9934 80.5226 26.5849C80.7916 27.1764 80.9294 27.7939 80.9359 28.4375C80.9478 29.0835 80.8032 29.7541 80.5021 30.4493C80.0465 31.4644 79.3964 32.2317 78.5518 32.7512C77.715 33.2676 76.7239 33.5184 75.5784 33.5036C74.4408 33.4857 73.1955 33.1774 71.8423 32.5788C70.5 31.985 69.4219 31.2621 68.608 30.4101C67.7994 29.5606 67.2948 28.6093 67.0941 27.5561C66.9012 26.5 67.0558 25.3679 67.5579 24.1597L70.9597 25.6647C70.751 26.2389 70.7047 26.7751 70.821 27.273C70.945 27.768 71.2033 28.2156 71.5958 28.6157C71.9961 29.0129 72.4993 29.3455 73.1055 29.6137C73.7009 29.8771 74.2561 30.0192 74.7712 30.0399C75.2916 30.0631 75.7419 29.9743 76.1219 29.7735C76.502 29.5727 76.7806 29.2721 76.9578 28.8716C77.123 28.4981 77.1509 28.1351 77.0416 27.7825C76.9376 27.4323 76.714 27.0746 76.3709 26.7092C76.0331 26.3462 75.5935 25.9575 75.0519 25.5432L73.4426 24.2876C72.1916 23.3264 71.3205 22.3036 70.8295 21.2192C70.3385 20.1347 70.3675 18.9793 70.9165 17.7531C71.3564 16.744 72.0134 15.983 72.8875 15.4701C73.767 14.9596 74.7765 14.7039 75.9159 14.7032C77.0552 14.7024 78.2311 14.9702 79.4435 15.5066C80.6776 16.0526 81.6613 16.7402 82.3947 17.5694C83.1335 18.401 83.5935 19.3068 83.7749 20.2866C83.9562 21.2664 83.8359 22.2552 83.414 23.2528L80.0447 21.7623Z" fill="#31A327" />
    <path d="M45.6944 24.0884L56.5857 20.846L56.7934 21.5438L45.9021 24.7861L45.6944 24.0884ZM53.5416 23.7669C53.8747 23.6307 54.0978 23.4053 54.211 23.0906C54.3242 22.7759 54.3149 22.3974 54.1832 21.9549C54.0937 21.6543 53.9756 21.4131 53.8289 21.2314C53.685 21.0488 53.5228 20.9242 53.3424 20.8575C53.1628 20.7936 52.9795 20.7895 52.7923 20.8453C52.6346 20.886 52.5082 20.9592 52.413 21.0647C52.3186 21.1731 52.2479 21.3037 52.2008 21.4567C52.1566 21.6088 52.1282 21.7778 52.1156 21.9637C52.1058 22.1488 52.108 22.3427 52.122 22.5454L52.1679 23.3839C52.1959 23.7893 52.1863 24.172 52.1391 24.5318C52.0918 24.8917 51.9993 25.2188 51.8615 25.513C51.7237 25.8072 51.5334 26.0599 51.2906 26.2711C51.0486 26.4852 50.7466 26.6477 50.3844 26.7586C49.8503 26.9145 49.3475 26.916 48.8759 26.7631C48.4079 26.6121 47.991 26.3163 47.6252 25.8756C47.263 25.4369 46.9764 24.8631 46.7653 24.154C46.5559 23.4506 46.4813 22.8059 46.5415 22.2198C46.6025 21.6366 46.8008 21.1361 47.1365 20.7181C47.4758 20.3022 47.9567 19.9938 48.5793 19.793L49.11 21.5756C48.8238 21.6824 48.6048 21.8387 48.453 22.0444C48.3049 22.2522 48.2183 22.4956 48.1934 22.7748C48.1721 23.0559 48.2087 23.3553 48.3033 23.673C48.3962 23.985 48.5222 24.2423 48.6813 24.445C48.8413 24.6506 49.0212 24.7931 49.2208 24.8726C49.4205 24.9521 49.6253 24.9606 49.8351 24.8981C50.0308 24.8399 50.178 24.7328 50.2767 24.5768C50.3763 24.4237 50.4399 24.2225 50.4676 23.9735C50.4962 23.7272 50.5015 23.4338 50.4835 23.0934L50.4393 22.0737C50.3993 21.2859 50.506 20.6228 50.7594 20.0842C51.0128 19.5456 51.4619 19.1819 52.1065 18.993C52.6332 18.8332 53.1359 18.8363 53.6146 19.0026C54.0941 19.1717 54.5188 19.4729 54.8886 19.9062C55.2585 20.3395 55.538 20.8739 55.7271 21.5092C55.9196 22.1559 55.977 22.7532 55.8993 23.3012C55.8225 23.8521 55.6271 24.3209 55.313 24.7077C54.999 25.0946 54.5838 25.3695 54.0672 25.5325L53.5416 23.7669Z" fill="#31A327" />
    <path d="M55.0638 64.3456L37.5039 39.6489L39.0861 38.524L56.6459 63.2207L55.0638 64.3456ZM47.4966 44.8169C46.8661 44.0936 46.105 43.7246 45.2134 43.7098C44.3217 43.695 43.3742 44.0443 42.3709 44.7577C41.6892 45.2424 41.1822 45.7481 40.8499 46.2749C40.513 46.7952 40.338 47.3118 40.325 47.8246C40.3184 48.3328 40.466 48.7991 40.7678 49.2236C41.0065 49.5865 41.2999 49.8426 41.6482 49.9919C42.0029 50.1367 42.3935 50.2027 42.8201 50.1899C43.2422 50.1706 43.6932 50.0968 44.1733 49.9685C44.6488 49.8338 45.1362 49.6615 45.6357 49.4515L47.7126 48.6139C48.7116 48.1941 49.6856 47.8889 50.6346 47.6983C51.5835 47.5077 52.4886 47.4597 53.3498 47.5542C54.211 47.6487 55.0127 47.9114 55.7548 48.3424C56.5034 48.7687 57.1735 49.3912 57.7653 50.2099C58.6185 51.4235 59.0552 52.6914 59.0753 54.0133C59.0972 55.3243 58.7096 56.6311 57.9123 57.9339C57.1169 59.2257 55.9153 60.4431 54.3074 61.5864C52.7124 62.7204 51.1495 63.4638 49.6185 63.8164C48.0941 64.1644 46.6599 64.0948 45.3161 63.6076C43.9742 63.1093 42.7818 62.1609 41.7391 60.7624L45.7812 57.8884C46.2972 58.5188 46.8802 58.937 47.5302 59.143C48.182 59.3379 48.8709 59.3468 49.597 59.1695C50.3248 58.9811 51.0489 58.6309 51.7693 58.1187C52.4767 57.6157 53.0177 57.0761 53.3924 56.4999C53.7734 55.9191 53.9783 55.3426 54.0071 54.7702C54.0358 54.1978 53.881 53.6737 53.5426 53.1977C53.2271 52.754 52.83 52.4747 52.3514 52.3599C51.8792 52.2405 51.3169 52.2531 50.6643 52.3975C50.0182 52.5374 49.2732 52.7766 48.4294 53.1151L45.894 54.1045C43.9402 54.8837 42.1745 55.1853 40.597 55.0095C39.0196 54.8336 37.715 54.0134 36.6834 52.5489C35.8264 51.3572 35.4017 50.0857 35.4092 48.7345C35.4231 47.3787 35.8177 46.0475 36.593 44.741C37.3682 43.4346 38.4762 42.2692 39.9168 41.2448C41.3832 40.2022 42.8414 39.543 44.2914 39.2673C45.7479 38.987 47.0994 39.0766 48.346 39.5362C49.5926 39.9957 50.644 40.8071 51.5001 41.9703L47.4966 44.8169Z" fill="#31A327" />
    <path d="M25.7846 44.2618L22.7451 33.3122L23.4465 33.1175L26.4861 44.0671L25.7846 44.2618ZM25.6089 36.4099C25.479 36.0744 25.2577 35.8471 24.9452 35.7281C24.6327 35.6091 24.254 35.6113 23.8092 35.7348C23.5069 35.8187 23.2636 35.9323 23.0792 36.0757C22.894 36.2161 22.7663 36.376 22.6963 36.5551C22.6291 36.7335 22.6216 36.9167 22.6739 37.1049C22.7117 37.2633 22.7825 37.3911 22.8862 37.4882C22.9928 37.5846 23.1221 37.6577 23.2742 37.7076C23.4255 37.7547 23.5939 37.7862 23.7796 37.8023C23.9644 37.8154 24.1583 37.8169 24.3613 37.8066L25.2005 37.7764C25.6063 37.7558 25.9887 37.7725 26.3477 37.8265C26.7066 37.8804 27.0319 37.979 27.3235 38.1222C27.6151 38.2655 27.8642 38.4604 28.0709 38.7071C28.2804 38.953 28.4373 39.258 28.5415 39.6222C28.6874 40.1591 28.6796 40.6619 28.5179 41.1306C28.3583 41.5956 28.0548 42.007 27.6074 42.3646C27.1621 42.7185 26.583 42.9944 25.8701 43.1923C25.1629 43.3886 24.517 43.4513 23.9321 43.3802C23.3502 43.3083 22.8533 43.1007 22.4417 42.7574C22.0321 42.4104 21.7327 41.9238 21.5436 41.2976L23.3357 40.8001C23.4372 41.0883 23.5894 41.3102 23.7923 41.4657C23.9972 41.6177 24.239 41.7087 24.5176 41.7389C24.7983 41.7654 25.0984 41.7343 25.4177 41.6457C25.7314 41.5586 25.991 41.4374 26.1967 41.282C26.4052 41.1259 26.551 40.9487 26.6342 40.7505C26.7174 40.5524 26.7297 40.3478 26.6711 40.1368C26.6165 39.9401 26.5122 39.7909 26.358 39.6893C26.2068 39.587 26.0069 39.5196 25.7584 39.4873C25.5127 39.4541 25.2195 39.4434 24.8787 39.455L23.8584 39.4803C23.07 39.5057 22.4089 39.3867 21.8752 39.1233C21.3414 38.8599 20.9861 38.4042 20.8092 37.7561C20.6592 37.2266 20.6717 36.724 20.8468 36.2485C21.0248 35.7722 21.3338 35.3532 21.7739 34.9915C22.214 34.6297 22.7535 34.3602 23.3922 34.1829C24.0423 34.0025 24.6406 33.9561 25.1871 34.044C25.7365 34.1311 26.2016 34.3352 26.5825 34.6563C26.9634 34.9775 27.2306 35.3978 27.384 35.9172L25.6089 36.4099Z" fill="#31A327" />
    <path d="M7.31696 25.3655L0.702881 21.6714L0.939531 21.2477L7.55361 24.9417L7.31696 25.3655ZM3.51375 21.7669C3.29379 21.6711 3.08234 21.6694 2.8794 21.7617C2.67645 21.854 2.49995 22.0345 2.34987 22.3032C2.2479 22.4857 2.18764 22.6543 2.16909 22.8089C2.14881 22.9626 2.1647 23.098 2.21675 23.2152C2.26976 23.3306 2.3531 23.4201 2.46678 23.4836C2.55959 23.54 2.65333 23.5663 2.748 23.5627C2.84363 23.5574 2.93893 23.5304 3.03389 23.4817C3.12713 23.4321 3.22107 23.3671 3.31572 23.2866C3.40865 23.2052 3.50026 23.114 3.59055 23.013L3.96974 22.6011C4.15032 22.3992 4.33754 22.2258 4.53141 22.081C4.72527 21.9362 4.92451 21.8283 5.12913 21.7573C5.33375 21.6863 5.54297 21.6596 5.75678 21.6774C5.97155 21.6934 6.18965 21.7621 6.41108 21.8835C6.73393 22.0661 6.96851 22.3055 7.11481 22.6019C7.26036 22.8956 7.31296 23.2323 7.27263 23.612C7.23154 23.989 7.09075 24.3929 6.85025 24.8235C6.61167 25.2506 6.33843 25.5861 6.03052 25.8299C5.72357 26.072 5.39224 26.2101 5.03651 26.2442C4.68003 26.2756 4.30905 26.1893 3.92359 25.9853L4.5282 24.9027C4.71234 24.9898 4.88885 25.0217 5.05772 24.9985C5.22583 24.9726 5.38235 24.9007 5.52729 24.7828C5.67147 24.6622 5.79743 24.5055 5.90518 24.3126C6.011 24.1231 6.07531 23.9432 6.09811 23.7729C6.12188 23.6009 6.10632 23.4487 6.05143 23.3164C5.99654 23.184 5.90537 23.0823 5.77791 23.0111C5.65906 22.9447 5.53944 22.9242 5.41905 22.9496C5.29961 22.9733 5.17396 23.0365 5.04208 23.1391C4.91117 23.2399 4.76859 23.3738 4.61434 23.5408L4.14787 24.0361C3.7902 24.4216 3.42382 24.6791 3.04871 24.8086C2.67361 24.938 2.29105 24.8927 1.90102 24.6726C1.57969 24.4954 1.34741 24.2538 1.2042 23.9478C1.06194 23.6402 1.0083 23.2972 1.04326 22.9191C1.07822 22.5409 1.20344 22.1589 1.41893 21.7731C1.63827 21.3803 1.89688 21.0751 2.19476 20.8573C2.49361 20.6378 2.80844 20.5131 3.13925 20.4832C3.47005 20.4533 3.7945 20.5238 4.11259 20.6947L3.51375 21.7669Z" fill="#31A327" />
  </g>
  <defs>
    <clipPath id="clip0_198_124">
      <rect width="100" height="100" fill="white" transform="translate(87.7319)" />
    </clipPath>
  </defs>
</svg>