<svg width="171" height="101" fill="none" xmlns="http://www.w3.org/2000/svg">
  <g clip-path="url(#a)">
    <path d="M94.34 60.096a10.11 10.11 0 0 1 7.554 3.379h13.844V34.192H93.214L86.457 49.96h-9.01v6.757h6.758v6.758h-6.758 9.34a10.109 10.109 0 0 1 7.554-3.38Zm3.33-19.146h14.69v9.01H93.809l3.861-9.01Z" fill="#FFDA44" />
    <path d="M122.496 63.475h-6.757 6.757ZM149.525 49.96l-11.262-15.767h-22.524v22.524h6.757v6.758h6.757v-6.758h6.757v6.758h-6.757 16.097a10.11 10.11 0 0 1 7.553-3.38 10.11 10.11 0 0 1 7.554 3.38h9.339-4.504l-2.253-6.758h6.757v-2.252l-20.271-4.505Zm-30.408 0v-9.01h15.668l6.436 9.01h-22.104Z" fill="#FF9811" />
    <path d="M77.447 63.475v6.757h6.758c0-2.597.977-4.964 2.582-6.757h-9.34ZM115.738 63.475h-13.844a10.097 10.097 0 0 1 2.582 6.757h18.02v-6.757h-6.758ZM129.253 63.475v6.757h13.514c0-2.597.978-4.964 2.583-6.757h-16.097ZM163.039 70.232h6.757v-6.757h-9.339a10.097 10.097 0 0 1 2.582 6.757Z" fill="#ACABB1" />
    <path d="M89.273 70.232c0-2.8 2.269-5.068 5.068-5.068v-5.068a10.109 10.109 0 0 0-7.554 3.379 10.096 10.096 0 0 0-2.582 6.757c0 5.598 4.538 10.136 10.136 10.136V75.3a5.068 5.068 0 0 1-5.068-5.068Z" fill="#616064" />
    <path d="M94.34 60.096v5.068a5.068 5.068 0 1 1 0 10.136v5.068c5.598 0 10.136-4.538 10.136-10.136 0-2.597-.977-4.964-2.582-6.757a10.11 10.11 0 0 0-7.553-3.38Z" fill="#565659" />
    <path d="M89.272 70.232a5.068 5.068 0 0 0 5.069 5.068V65.164a5.068 5.068 0 0 0-5.069 5.068Z" fill="#CDCDD0" />
    <path d="M94.34 75.3a5.068 5.068 0 1 0 0-10.136V75.3Z" fill="#ACABB1" />
    <path d="M147.835 70.232c0-2.8 2.269-5.068 5.068-5.068v-5.068a10.11 10.11 0 0 0-7.553 3.379 10.098 10.098 0 0 0-2.583 6.757c0 5.598 4.538 10.136 10.136 10.136V75.3a5.068 5.068 0 0 1-5.068-5.068Z" fill="#616064" />
    <path d="M152.903 60.096v5.068a5.068 5.068 0 1 1 0 10.136v5.068c5.598 0 10.136-4.538 10.136-10.136 0-2.597-.977-4.964-2.582-6.757a10.11 10.11 0 0 0-7.554-3.38Z" fill="#565659" />
    <path d="M147.835 70.232a5.068 5.068 0 0 0 5.068 5.068V65.164a5.068 5.068 0 0 0-5.068 5.068Z" fill="#CDCDD0" />
    <path d="M152.903 75.3a5.068 5.068 0 1 0 0-10.136V75.3Z" fill="#ACABB1" />
    <path d="M112.36 40.95H97.67l-3.861 9.01h18.551v-9.01ZM119.117 40.95v9.01h22.104l-6.436-9.01h-15.668Z" fill="#fff" />
    <path d="M84.205 56.717h-6.758v6.758h6.758v-6.758ZM165.292 63.474h4.504v-6.757h-6.757l2.253 6.758Z" fill="#FF5023" />
    <path d="M124.748 34.193v-6.757h-18.019v6.757h18.019ZM122.496 56.717h-6.757v6.758h6.757v-6.758ZM129.253 63.475h-6.757v6.757h6.757v-6.757ZM136.01 56.717h-6.757v6.758h6.757v-6.758Z" fill="#565659" />
  </g>
  <path d="M11.796 71.987V48.13h1.325v23.857h-1.325Zm4.145-16.458c-.086-.882-.442-1.566-1.066-2.05-.625-.49-1.412-.736-2.36-.736-.678 0-1.265.124-1.76.372-.497.243-.882.578-1.156 1.007a2.63 2.63 0 0 0-.404 1.444c0 .454.091.845.274 1.175.189.329.434.605.736.829.307.217.635.4.985.55.35.143.687.26 1.01.354l1.616.485c.528.149 1.07.35 1.624.605a6.34 6.34 0 0 1 1.543 1.007c.474.416.857.932 1.148 1.547.296.615.444 1.351.444 2.208 0 1.081-.242 2.041-.727 2.88-.48.839-1.177 1.5-2.093 1.985-.91.484-2.012.727-3.304.727-1.24 0-2.311-.227-3.216-.68a5.14 5.14 0 0 1-2.125-1.93c-.512-.838-.794-1.832-.848-2.982h2.504c.049.69.243 1.265.582 1.724.345.454.784.793 1.317 1.016a4.683 4.683 0 0 0 1.77.326c.705 0 1.333-.127 1.882-.382.555-.26.991-.621 1.309-1.08.318-.467.477-1.01.477-1.632 0-.565-.14-1.028-.42-1.388-.275-.36-.65-.659-1.123-.895-.47-.236-1-.444-1.592-.624l-1.955-.615c-1.325-.417-2.376-1.029-3.151-1.836-.77-.808-1.156-1.876-1.156-3.206 0-1.1.259-2.06.776-2.88a5.29 5.29 0 0 1 2.1-1.91c.884-.46 1.88-.69 2.99-.69 1.12 0 2.109.227 2.965.68a5.201 5.201 0 0 1 2.036 1.874c.496.789.754 1.696.776 2.721H15.94Z" fill="#16A70A" />
  <path d="M23.34 71.987V48.13h1.325v23.857H23.34Zm4.145-16.458c-.087-.882-.442-1.566-1.067-2.05-.625-.49-1.411-.736-2.359-.736-.679 0-1.266.124-1.761.372-.496.243-.881.578-1.156 1.007-.27.422-.404.904-.404 1.444 0 .454.092.845.275 1.175.188.329.434.605.735.829.307.217.636.4.986.55.35.143.687.26 1.01.354l1.616.485c.528.149 1.069.35 1.624.605a6.34 6.34 0 0 1 1.543 1.007c.474.416.856.932 1.147 1.547.297.615.445 1.351.445 2.208 0 1.081-.243 2.041-.727 2.88-.48.839-1.177 1.5-2.093 1.985-.91.484-2.012.727-3.305.727-1.238 0-2.31-.227-3.215-.68a5.14 5.14 0 0 1-2.125-1.93c-.512-.838-.795-1.832-.849-2.982h2.505c.049.69.242 1.265.582 1.724.345.454.784.793 1.317 1.016a4.683 4.683 0 0 0 1.77.326c.705 0 1.332-.127 1.882-.382.555-.26.99-.621 1.309-1.08.317-.467.476-1.01.476-1.632 0-.565-.14-1.028-.42-1.388-.275-.36-.649-.659-1.123-.895-.469-.236-1-.444-1.592-.624l-1.955-.615c-1.325-.417-2.375-1.029-3.15-1.836-.771-.808-1.156-1.876-1.156-3.206 0-1.1.258-2.06.775-2.88a5.29 5.29 0 0 1 2.101-1.91c.883-.46 1.88-.69 2.99-.69 1.12 0 2.108.227 2.965.68a5.202 5.202 0 0 1 2.036 1.874c.495.789.754 1.696.775 2.721h-2.407Z" fill="#16A70A" />
  <path d="M34.884 71.987V48.13h1.325v23.857h-1.325Zm4.144-16.458c-.086-.882-.441-1.566-1.066-2.05-.625-.49-1.411-.736-2.36-.736-.678 0-1.265.124-1.76.372-.496.243-.881.578-1.156 1.007-.27.422-.404.904-.404 1.444 0 .454.092.845.275 1.175.188.329.433.605.735.829.307.217.636.4.986.55.35.143.686.26 1.01.354l1.616.485c.527.149 1.069.35 1.623.605a6.34 6.34 0 0 1 1.544 1.007c.474.416.856.932 1.147 1.547.296.615.444 1.351.444 2.208 0 1.081-.242 2.041-.727 2.88-.48.839-1.177 1.5-2.092 1.985-.91.484-2.012.727-3.305.727-1.239 0-2.31-.227-3.216-.68a5.14 5.14 0 0 1-2.125-1.93c-.511-.838-.794-1.832-.848-2.982h2.505c.048.69.242 1.265.581 1.724.345.454.784.793 1.317 1.016a4.683 4.683 0 0 0 1.77.326c.706 0 1.333-.127 1.882-.382.555-.26.991-.621 1.31-1.08.317-.467.476-1.01.476-1.632 0-.565-.14-1.028-.42-1.388-.275-.36-.65-.659-1.123-.895-.469-.236-1-.444-1.592-.624l-1.955-.615c-1.325-.417-2.376-1.029-3.151-1.836-.77-.808-1.155-1.876-1.155-3.206 0-1.1.258-2.06.775-2.88a5.29 5.29 0 0 1 2.1-1.91c.884-.46 1.88-.69 2.99-.69 1.12 0 2.109.227 2.965.68a5.202 5.202 0 0 1 2.036 1.874c.496.789.755 1.696.776 2.721h-2.408Z" fill="#16A70A" />
  <path d="M46.427 71.987V48.13h1.325v23.857h-1.325Zm4.145-16.458c-.086-.882-.442-1.566-1.067-2.05-.624-.49-1.41-.736-2.359-.736-.678 0-1.266.124-1.761.372-.496.243-.88.578-1.155 1.007a2.63 2.63 0 0 0-.404 1.444c0 .454.091.845.274 1.175.189.329.434.605.736.829.307.217.635.4.985.55.35.143.687.26 1.01.354l1.616.485c.528.149 1.07.35 1.624.605a6.34 6.34 0 0 1 1.543 1.007c.474.416.857.932 1.148 1.547.296.615.444 1.351.444 2.208 0 1.081-.242 2.041-.727 2.88-.48.839-1.177 1.5-2.093 1.985-.91.484-2.012.727-3.304.727-1.24 0-2.311-.227-3.216-.68a5.14 5.14 0 0 1-2.125-1.93c-.512-.838-.794-1.832-.848-2.982h2.504c.049.69.243 1.265.582 1.724.345.454.784.793 1.317 1.016a4.683 4.683 0 0 0 1.77.326c.705 0 1.333-.127 1.882-.382.555-.26.991-.621 1.309-1.08.318-.467.477-1.01.477-1.632 0-.565-.14-1.028-.42-1.388-.275-.36-.65-.659-1.124-.895-.468-.236-.999-.444-1.591-.624l-1.955-.615c-1.325-.417-2.376-1.029-3.151-1.836-.77-.808-1.156-1.876-1.156-3.206 0-1.1.259-2.06.776-2.88a5.29 5.29 0 0 1 2.1-1.91c.884-.46 1.88-.69 2.99-.69 1.12 0 2.109.227 2.965.68a5.201 5.201 0 0 1 2.036 1.874c.496.789.754 1.696.776 2.721h-2.408Z" fill="#16A70A" />
  <path d="M57.97 71.987V48.13h1.326v23.857H57.97Zm4.146-16.458c-.087-.882-.442-1.566-1.067-2.05-.625-.49-1.411-.736-2.36-.736-.678 0-1.265.124-1.76.372-.496.243-.881.578-1.156 1.007a2.63 2.63 0 0 0-.404 1.444c0 .454.092.845.275 1.175.188.329.434.605.735.829.307.217.636.4.986.55.35.143.687.26 1.01.354l1.616.485c.528.149 1.069.35 1.624.605a6.34 6.34 0 0 1 1.543 1.007c.474.416.856.932 1.147 1.547.296.615.444 1.351.444 2.208 0 1.081-.242 2.041-.727 2.88-.479.839-1.177 1.5-2.092 1.985-.91.484-2.012.727-3.305.727-1.239 0-2.31-.227-3.215-.68a5.14 5.14 0 0 1-2.125-1.93c-.512-.838-.795-1.832-.849-2.982h2.505c.048.69.242 1.265.582 1.724.344.454.783.793 1.317 1.016a4.683 4.683 0 0 0 1.77.326c.705 0 1.332-.127 1.882-.382.554-.26.99-.621 1.309-1.08.317-.467.476-1.01.476-1.632 0-.565-.14-1.028-.42-1.388-.275-.36-.649-.659-1.123-.895-.469-.236-1-.444-1.592-.624l-1.955-.615c-1.325-.417-2.375-1.029-3.15-1.836-.771-.808-1.156-1.876-1.156-3.206 0-1.1.258-2.06.775-2.88a5.29 5.29 0 0 1 2.101-1.91c.883-.46 1.88-.69 2.99-.69 1.12 0 2.108.227 2.965.68a5.201 5.201 0 0 1 2.036 1.874c.495.789.754 1.696.775 2.721h-2.407Z" fill="#16A70A" />
  <path d="M69.514 71.987V48.13h1.326v23.857h-1.326Zm4.145-16.458c-.086-.882-.441-1.566-1.066-2.05-.625-.49-1.411-.736-2.36-.736-.678 0-1.265.124-1.76.372-.496.243-.881.578-1.156 1.007a2.63 2.63 0 0 0-.404 1.444c0 .454.091.845.275 1.175.188.329.433.605.735.829.307.217.635.4.986.55.35.143.686.26 1.01.354l1.615.485c.528.149 1.07.35 1.624.605a6.34 6.34 0 0 1 1.544 1.007c.474.416.856.932 1.147 1.547.296.615.444 1.351.444 2.208 0 1.081-.242 2.041-.727 2.88-.48.839-1.177 1.5-2.093 1.985-.91.484-2.011.727-3.304.727-1.239 0-2.31-.227-3.216-.68a5.14 5.14 0 0 1-2.125-1.93c-.511-.838-.794-1.832-.848-2.982h2.505c.048.69.242 1.265.581 1.724.345.454.784.793 1.317 1.016a4.683 4.683 0 0 0 1.77.326c.705 0 1.333-.127 1.882-.382.555-.26.991-.621 1.31-1.08.317-.467.476-1.01.476-1.632 0-.565-.14-1.028-.42-1.388-.275-.36-.65-.659-1.123-.895-.469-.236-1-.444-1.592-.624l-1.955-.615c-1.325-.417-2.376-1.029-3.151-1.836-.77-.808-1.156-1.876-1.156-3.206 0-1.1.259-2.06.776-2.88a5.29 5.29 0 0 1 2.1-1.91c.884-.46 1.88-.69 2.99-.69 1.12 0 2.109.227 2.965.68a5.201 5.201 0 0 1 2.036 1.874c.496.789.755 1.696.776 2.721h-2.408Z" fill="#16A70A" />
  <path stroke="red" stroke-width="1.539" d="M.49 10.036h59.257" />
  <path d="m170.566 10.036-7.696-4.443v8.886l7.696-4.443Zm-59.257.77h52.331v-1.54h-52.331v1.54ZM65.874 20.801V.869h3.986v8.242h2.64L76.594.87h4.256l-5.172 10.02 5.333 9.912h-4.255l-4.256-8.08h-2.64v8.08h-3.986Zm18.034 0L86.224.869h3.825l4.579 15.272L99.18.87h3.798l2.343 19.932h-3.852l-1.723-14.68.619.054-3.905 14.626h-3.744l-3.96-14.626.673-.027-1.67 14.653h-3.851Z" fill="red" />
  <defs>
    <clipPath id="a">
      <path fill="#fff" transform="translate(77.448 7.727)" d="M0 0h92.349v92.349H0z" />
    </clipPath>
  </defs>
</svg>