<svg width="179" height="163" fill="none" xmlns="http://www.w3.org/2000/svg">
  <g clip-path="url(#a)">
    <path d="M246.465-48.861h170.846L-5.955 198.941h-170.846L246.465-48.862Z" fill="#717171" />
    <path d="M43.017 68.474c0 .391-.03.758-.112 1.014 0 .015-.008.022-.008.037a.653.653 0 0 1-.142.248 1.41 1.41 0 0 1-.18.15c-.293.226-.796.51-1.389.616a2.526 2.526 0 0 1-.675.03h-.007c-.038 0-.083 0-.128-.015h-.007a2.216 2.216 0 0 1-.75-.233c-.053-.03-.113-.06-.173-.098h-.007c-.06-.03-.12-.067-.18-.105l-.008-.008c-1.126-.69-2.44-2.004-3.003-3.16a3.71 3.71 0 0 1-.322-1.17 1.214 1.214 0 0 1-.015-.158 4.241 4.241 0 0 1-.03-.526c0-.135 0-.262.014-.383 0-.075.008-.15.023-.225.022-.248.068-.488.135-.713l.007-.022c.128-.496.346-.908.63-1.148.24-.203.518-.286.88-.24.742.09 1.823.742 3.647 1.981.758.518 1.47 1.41 1.696 2.222l.023.068c.03.127.045.254.053.382 0 .173.014.376.022.578v.008c.006.285.014.585.006.87Z" fill="#1D5C9C" />
    <path d="M41.531 67.776v.248l-.008.008c.008.015.008.03 0 .052-.007.548-.097 1.058-.27 1.456v.008l-.007.007c-.143.345-.353.6-.638.728-.3.134-.684.134-1.156-.068v-.008a1.415 1.415 0 0 1-.195-.09l-.008-.008c-1.306-.675-2.462-1.913-3.003-3.16a2.921 2.921 0 0 1-.194-.517 2.903 2.903 0 0 1-.128-.608v-.045a1.199 1.199 0 0 1-.015-.158 4.24 4.24 0 0 1-.03-.525c0-.136 0-.263.015-.384 0-.067 0-.142.015-.202v-.008c.023-.293.075-.532.143-.728l.007-.022c.112-.315.27-.496.435-.526.09-.015.21-.007.36.016.63.105 1.697.563 2.432 1.186.901.766 2.215 1.644 2.245 3.348Z" fill="#2372C1" />
    <path d="m55.181 150.975-10.298-3.804-31.027-17.914s-3.559-4.747-3.567-5.665c-.01-1.124.807-2.312 2.412-3.238L117.955 58.01c2.915-1.683 7.324-1.865 9.849-.408l44.553 25.722c2.524 1.457 2.207 4.003-.708 5.686L65.03 150.567c-2.915 1.683-7.325 1.865-9.849.408Z" fill="#2A2929" />
    <path d="M156.649 74.115c1.807 1.05 2.928 3.284 2.937 6.46l.009 3.356-46.586-27.073-.009-3.357c-.009-3.175-1.13-5.408-2.938-6.459l46.587 27.073Z" fill="#184D84" />
    <path d="m59.548 129.353 90.829-50.865-1.719-37.865-89.11 29.403v59.327Z" fill="#143F6E" />
    <path d="M81.52 119.193c1.808 1.05 2.929 3.284 2.938 6.459l.01 3.357-46.587-27.073-.01-3.357c-.009-3.175-1.129-5.408-2.937-6.459l46.587 27.073Z" fill="#184D84" />
    <path d="M58.883 133.699c.083-5.591 4.03-12.27 8.815-14.918 2.331-1.29 4.43-1.385 5.962-.497l6.42 3.722c-1.528-.886-3.623-.791-5.949.496-4.775 2.642-8.714 9.307-8.797 14.887-.022 1.425.212 2.641.649 3.618.94-.109 1.96-.448 3.031-1.041l4.815 2.741c-2.31 1.277-4.39 1.38-5.916.515-1.61-.913-4.836-2.764-6.445-3.678-1.633-.925-2.63-2.957-2.585-5.845Z" fill="url(#b)" />
    <path d="m76.344 124.973-.886-1.875c.373.789.572 1.783.555 2.956-.067 4.419-3.186 9.698-6.968 11.791l1.734-.071c3.283-1.817 5.99-6.399 6.047-10.235.015-1.018-.158-1.881-.482-2.566Z" fill="url(#c)" />
    <path d="M70.795 136.628c2.741-1.517 5.003-5.343 5.05-8.547.025-1.649-.541-2.811-1.47-3.344l.356.205c.928.533 1.495 1.695 1.47 3.343-.047 3.203-2.308 7.031-5.05 8.547-1.331.737-2.53.794-3.407.291l-.356-.204c.877.502 2.076.445 3.407-.291Z" fill="url(#d)" />
    <path d="m78.76 122.903-1.282-.735c1.428.82 2.3 2.606 2.262 5.141-.074 4.924-3.55 10.807-7.764 13.14l1.282.735c4.215-2.333 7.69-8.216 7.764-13.14.037-2.534-.834-4.321-2.263-5.141Z" fill="#141414" />
    <path d="M74.173 138.565c2.742-1.516 5.003-5.343 5.051-8.546.025-1.649-.542-2.811-1.471-3.344l.368.211c.93.533 1.496 1.695 1.47 3.343-.047 3.203-2.308 7.03-5.05 8.547-1.33.737-2.53.794-3.406.29l-.368-.21c.877.503 2.076.446 3.406-.291Z" fill="url(#e)" />
    <path d="m68.525 134.87.054-.279a9.966 9.966 0 0 0-.194 1.777c-.059 3.993 2.662 5.697 6.08 3.806 3.416-1.891 6.234-6.66 6.294-10.653.06-3.992-2.662-5.696-6.08-3.805a9.749 9.749 0 0 0-1.71 1.223l.212-.188a10.3 10.3 0 0 1 1.817-1.298c3.625-2.007 6.513-.199 6.45 4.038-.063 4.236-3.053 9.297-6.68 11.303-3.625 2.006-6.513.199-6.45-4.038.01-.615.08-1.248.207-1.886Z" fill="url(#f)" />
    <path d="M68.385 136.368c.06-3.992 2.879-8.761 6.295-10.652 3.417-1.891 6.138-.187 6.079 3.805-.06 3.993-2.878 8.762-6.295 10.653s-6.138.187-6.079-3.806Zm6.088 3.159c3.112-1.722 5.678-6.065 5.732-9.7.055-3.636-2.424-5.187-5.534-3.465-3.111 1.721-5.678 6.064-5.732 9.699-.054 3.636 2.424 5.188 5.535 3.466Z" fill="url(#g)" />
    <path d="M68.038 137.087c-.067 4.518 3.012 6.446 6.879 4.307 3.866-2.14 7.055-7.537 7.123-12.055.068-4.518-3.012-6.446-6.879-4.307-.674.374-1.33.847-1.95 1.397.034.123.03.22-.007.287.037-.067.04-.164.007-.287-2.414 2.14-4.319 5.447-4.95 8.629a11.33 11.33 0 0 0-.223 2.029Zm.28-.331a10.6 10.6 0 0 1 .21-1.902c.08-.356.188-.83.294-1.178.06-.197.144-.459.213-.654.068-.193.169-.446.242-.638.18-.47.604-1.358.947-1.941.216-.367.519-.849.761-1.2.21-.306.516-.696.749-.985.258-.323.43-.504.892-.984.156-.161.378-.362.544-.512a10.318 10.318 0 0 1 1.828-1.309c3.625-2.007 6.513-.199 6.45 4.038-.063 4.236-3.053 9.297-6.68 11.303-3.625 2.006-6.513.199-6.45-4.038Z" fill="url(#h)" />
    <path d="M67.458 137.408c.073-4.893 3.527-10.737 7.714-13.054 4.188-2.317 7.523-.23 7.45 4.663-.073 4.893-3.527 10.737-7.715 13.055-4.187 2.317-7.522.229-7.449-4.664Zm7.474 3.013c3.407-1.886 6.218-6.641 6.277-10.622.06-3.981-2.654-5.68-6.061-3.795-3.407 1.886-6.218 6.641-6.277 10.622-.06 3.981 2.654 5.68 6.061 3.795Z" fill="url(#i)" />
    <path d="M74.571 142.779c.193-.115.455-.261.644-.383.231-.15.534-.36.757-.523.39-.286.885-.703 1.24-1.033a16.969 16.969 0 0 0 1.239-1.277 19.382 19.382 0 0 0 2.086-2.896c.302-.512.584-1.041.837-1.572a18.27 18.27 0 0 0 1.204-3.268c.064-.243.226-.89.338-1.645.123-.836.138-1.424.143-1.617a11.11 11.11 0 0 0-.062-1.526 11.92 11.92 0 0 0-.127-.812c-.033-.172-.092-.398-.135-.567a8.428 8.428 0 0 0-.263-.784c-.053-.141-.141-.321-.203-.458a4.658 4.658 0 0 0-.425-.741c-.154-.213-.371-.49-.543-.69-.09-.104-.225-.229-.325-.323a3.734 3.734 0 0 0-.314-.266c-.17-.124-.403-.281-.581-.392-1.529-.887-3.624-.792-5.95.495-4.776 2.643-8.715 9.308-8.798 14.887-.043 2.882.951 4.911 2.58 5.835.11.056.252.136.364.187.14.063.329.141.472.192.237.086.567.162.813.216.2.044.474.071.679.082a6.706 6.706 0 0 0 1.27-.051c.297-.052.698-.116.986-.207.356-.112.828-.275 1.174-.42.278-.114.635-.302.9-.443.203-.112.33-.357.336-.707-4.188 2.318-7.523.23-7.45-4.663.073-4.893 3.527-10.737 7.715-13.055 4.187-2.317 7.522-.229 7.449 4.664-.073 4.893-3.527 10.737-7.714 13.054-.005.35-.133.595-.336.707Z" fill="url(#j)" />
    <path d="m69.617 138.598-.212-.728c-.091-.32-.192-.637-.27-.958.318-.107.645-.252.98-.439 2.88-1.605 5.247-5.61 5.287-8.947a5.888 5.888 0 0 0-.121-1.304c.364-.037.72-.131 1.076-.223.195-.051.393-.097.59-.141l.24.14c.179.103.344.23.495.377l.559.324c.947.551 1.525 1.735 1.504 3.413-.04 3.303-2.383 7.266-5.232 8.854-1.4.78-2.663.841-3.58.308a2.457 2.457 0 0 1-.392-.283 2.536 2.536 0 0 1-.739-.285l-.185-.108Z" fill="url(#k)" />
    <path d="M69.265 136.865c.276-.101.56-.23.85-.392 2.879-1.605 5.246-5.61 5.287-8.947a5.866 5.866 0 0 0-.117-1.278c.305-.037.611-.15.892-.233.196-.057.394-.111.594-.161.927.558 1.492 1.733 1.471 3.391-.04 3.302-2.383 7.266-5.232 8.853-1.4.781-2.663.841-3.58.309-.042-.025-.082-.053-.123-.08a13.854 13.854 0 0 1-.042-1.462Z" fill="url(#l)" />
    <path d="m72.476 132.821.131 1.23v.005l-.131-1.235-.96-.556-.696-1.427c.106-.178.221-.355.337-.528.288-.432.605-.85.945-1.243.174-.197.346-.384.524-.558.081-.086.167-.167.25-.244.024-.024.053-.048.077-.073.187.111.34.207.35.217l-1.199 1.379.372 3.033Z" fill="url(#m)" />
    <path d="m72.476 132.821.131 1.23v.005l-.945 3.059-.423 1.378c-.144.303.283.99.086.951-.317-.062-1.104-.528-1.527-.812-.024-.038-.048-.072-.067-.11a2.862 2.862 0 0 1-.212-.438.704.704 0 0 1 .072-.22l.116-.346 1.729-5.091.082-.163.958.557Z" fill="url(#n)" />
    <path d="M78.257 128.248c-.081-.043-.19-.033-.309.034l-4.59 1.944-.129.073-.004 2.465 1.02-.587 3.803-1.491c.238-.137.432-.463.445-.743.026-.539.856-.656.753-1.121-.018-.088-.928-.542-.99-.574Z" fill="url(#o)" />
    <path d="m73.427 134.771-1.994-4.099c-.098-.17-.038-.482.145-.729a11.44 11.44 0 0 1 1.242-1.424c.208-.201.437-.22.535-.05l1.994 4.099-1.922 2.203Z" fill="#DFDFE3" />
    <path d="m74.186 133.319.004-2.464.129-.074 4.59-1.943c.208-.119.388-.058.434.148.102.465.138.975.112 1.514a.989.989 0 0 1-.445.742l-3.805 1.492-1.02.585ZM70.566 139.047c-.134-.104-.139-.366-.014-.628l1.845-5.435.079-.163 1.71.499-.616 1.288-1.371 4.442c-.144.3-.41.502-.607.463a2.42 2.42 0 0 1-1.026-.466Z" fill="#DFDFE3" />
    <path d="M71.59 138.904a.47.47 0 0 0 .074-.111l1.406-4.515 1.754-2.01 3.89-1.541a.431.431 0 0 0 .15-.257c.015-.32.006-.623-.026-.909l-4.737 2.028-1.053-2.464a11.263 11.263 0 0 0-.994 1.169.424.424 0 0 0-.07.146l1.082 2.518-1.985 5.728c.155.097.326.17.51.218Z" fill="#4B4A4B" />
    <path d="M77.404 132.851a1.062 1.062 0 0 0-.09-.084c.204.08.378.189.504.323a8.153 8.153 0 0 1-.414-.239Z" fill="url(#p)" />
    <path d="M74.314 126.206c1.54-.859 2.93-.925 3.937-.339l.353.204c-1.008-.585-2.397-.519-3.937.34-3.133 1.746-5.71 6.105-5.754 9.736-.022 1.845.613 3.147 1.655 3.753l-.352-.205c-1.043-.605-1.678-1.908-1.655-3.753.044-3.631 2.62-7.99 5.753-9.736Z" fill="url(#q)" />
    <path d="M74.667 126.411c3.133-1.746 5.636-.217 5.591 3.414-.044 3.631-2.62 7.991-5.753 9.736-3.133 1.746-5.636.217-5.592-3.414.045-3.632 2.62-7.991 5.754-9.736Zm-5.239 9.449c-.04 3.302 2.237 4.692 5.085 3.105 2.849-1.588 5.19-5.551 5.231-8.853.04-3.303-2.236-4.692-5.084-3.105-2.85 1.588-5.191 5.552-5.232 8.853Z" fill="#E3E3E4" />
    <path d="M134.4 90.438c.083-5.591 4.031-12.27 8.816-14.918 2.331-1.29 4.43-1.386 5.962-.498l6.419 3.722c-1.527-.886-3.623-.79-5.948.496-4.776 2.643-8.714 9.308-8.797 14.887-.022 1.425.211 2.641.648 3.619.94-.11 1.961-.449 3.032-1.042l4.815 2.742c-2.309 1.277-4.391 1.38-5.916.515-1.61-.913-4.837-2.764-6.446-3.677-1.633-.926-2.628-2.96-2.585-5.846Z" fill="url(#r)" />
    <path d="m151.862 81.712-.887-1.876c.374.789.573 1.783.555 2.956-.066 4.419-3.185 9.698-6.967 11.79l1.733-.07c3.283-1.817 5.991-6.4 6.048-10.235.014-1.018-.159-1.88-.482-2.565Z" fill="url(#s)" />
    <path d="M146.313 93.366c2.741-1.517 5.003-5.344 5.05-8.547.025-1.648-.541-2.81-1.471-3.344l.356.205c.929.533 1.495 1.695 1.471 3.344-.048 3.203-2.309 7.03-5.051 8.547-1.33.736-2.529.793-3.406.29l-.356-.204c.877.502 2.076.446 3.407-.291Z" fill="url(#t)" />
    <path d="m154.277 79.641-1.282-.735c1.429.82 2.299 2.606 2.262 5.141-.074 4.925-3.55 10.807-7.765 13.14l1.282.735c4.215-2.333 7.691-8.215 7.764-13.14.038-2.534-.832-4.321-2.261-5.14Z" fill="#141414" />
    <path d="M149.691 95.304c2.741-1.517 5.003-5.344 5.051-8.547.024-1.648-.542-2.81-1.472-3.344l.368.21c.93.534 1.496 1.696 1.472 3.345-.048 3.203-2.309 7.03-5.051 8.547-1.331.736-2.53.793-3.406.29l-.368-.211c.876.503 2.075.446 3.406-.29Z" fill="url(#u)" />
    <path d="m144.042 91.608.055-.28a9.895 9.895 0 0 0-.194 1.778c-.059 3.992 2.662 5.696 6.079 3.805 3.417-1.89 6.235-6.66 6.295-10.652.059-3.993-2.662-5.696-6.079-3.806a9.66 9.66 0 0 0-1.711 1.224l.213-.189c.579-.51 1.188-.95 1.816-1.298 3.625-2.006 6.514-.198 6.451 4.038-.064 4.237-3.054 9.297-6.68 11.305-3.627 2.006-6.514.198-6.451-4.038.009-.616.081-1.249.206-1.888Z" fill="url(#v)" />
    <path d="M143.903 93.107c.06-3.993 2.878-8.762 6.294-10.653 3.417-1.89 6.139-.187 6.079 3.806-.059 3.992-2.877 8.76-6.294 10.651-3.417 1.89-6.138.187-6.079-3.804Zm6.089 3.158c3.111-1.722 5.677-6.064 5.732-9.7.054-3.635-2.424-5.187-5.535-3.465-3.111 1.721-5.677 6.064-5.732 9.7-.055 3.636 2.424 5.187 5.535 3.465Z" fill="url(#w)" />
    <path d="M143.557 93.825c-.068 4.519 3.012 6.446 6.878 4.307 3.867-2.14 7.056-7.537 7.123-12.055.068-4.518-3.012-6.446-6.878-4.306-.675.373-1.33.846-1.95 1.397.033.122.029.22-.008.286.037-.066.04-.164.008-.286-2.414 2.139-4.319 5.447-4.95 8.628a11.168 11.168 0 0 0-.223 2.03Zm.279-.33c.009-.621.082-1.26.209-1.904.079-.355.188-.83.294-1.178.06-.197.144-.459.213-.653.068-.193.168-.447.241-.638.181-.47.605-1.359.948-1.942.216-.367.518-.849.761-1.2.211-.305.516-.695.748-.985.258-.323.432-.503.893-.983.155-.162.377-.363.543-.512a10.374 10.374 0 0 1 1.828-1.31c3.626-2.006 6.514-.198 6.451 4.038-.063 4.237-3.054 9.297-6.68 11.305-3.624 2.006-6.512.198-6.449-4.038Z" fill="url(#x)" />
    <path d="M142.976 94.146c.073-4.893 3.527-10.737 7.714-13.054s7.522-.23 7.449 4.664c-.073 4.893-3.527 10.737-7.714 13.054s-7.522.23-7.449-4.664Zm7.474 3.013c3.407-1.885 6.217-6.64 6.276-10.621.06-3.981-2.654-5.68-6.061-3.795-3.407 1.885-6.217 6.64-6.276 10.622-.06 3.98 2.654 5.68 6.061 3.794Z" fill="url(#y)" />
    <path d="M150.09 99.517c.193-.114.454-.26.643-.383.232-.15.535-.359.757-.523.39-.286.885-.703 1.241-1.032.624-.578 1.086-1.105 1.238-1.278a19.52 19.52 0 0 0 2.086-2.896c.303-.511.584-1.04.838-1.571a18.225 18.225 0 0 0 1.203-3.269c.065-.243.227-.89.338-1.645a12.91 12.91 0 0 0 .143-1.618 11.18 11.18 0 0 0-.061-1.526c-.027-.245-.081-.57-.127-.812-.033-.171-.093-.397-.136-.567a8.405 8.405 0 0 0-.263-.783c-.053-.141-.141-.321-.202-.458a4.61 4.61 0 0 0-.425-.741 12.44 12.44 0 0 0-.543-.69c-.09-.105-.225-.23-.325-.324a3.86 3.86 0 0 0-.315-.265 9.577 9.577 0 0 0-.581-.393c-1.528-.886-3.624-.792-5.95.496-4.776 2.643-8.714 9.307-8.797 14.887-.043 2.882.951 4.91 2.58 5.834.109.056.252.136.363.187.14.063.329.141.473.192.237.086.566.162.812.216.201.043.475.07.679.082a6.715 6.715 0 0 0 1.27-.052c.298-.051.698-.115.986-.206.357-.112.829-.275 1.174-.42.277-.112.634-.3.901-.442.202-.111.33-.357.335-.706-4.187 2.317-7.522.228-7.449-4.665.073-4.893 3.527-10.737 7.714-13.054s7.522-.23 7.449 4.664c-.073 4.893-3.527 10.738-7.714 13.055-.005.348-.134.594-.335.706Z" fill="url(#z)" />
    <path d="m145.134 95.336-.211-.728c-.092-.32-.193-.636-.27-.958.317-.107.644-.252.98-.439 2.879-1.604 5.246-5.61 5.287-8.947a5.886 5.886 0 0 0-.122-1.303c.364-.037.722-.131 1.076-.224.196-.05.394-.097.591-.14l.24.139c.178.104.344.23.494.377l.559.325c.948.55 1.526 1.734 1.505 3.413-.041 3.301-2.383 7.265-5.232 8.853-1.4.78-2.663.841-3.58.309a2.506 2.506 0 0 1-.392-.284 2.547 2.547 0 0 1-.739-.284 16.775 16.775 0 0 0-.186-.109Z" fill="url(#A)" />
    <path d="M144.783 93.603c.276-.102.559-.23.849-.392 2.879-1.605 5.246-5.61 5.287-8.948a5.858 5.858 0 0 0-.116-1.277c.305-.037.611-.15.892-.233.195-.057.394-.111.594-.162.927.559 1.492 1.734 1.471 3.392-.04 3.301-2.383 7.265-5.232 8.853-1.4.78-2.663.841-3.58.308-.042-.024-.082-.052-.123-.08a13.976 13.976 0 0 1-.042-1.461Z" fill="url(#B)" />
    <path d="m147.993 89.559.132 1.23v.005l-.132-1.235-.959-.556-.696-1.427c.105-.177.221-.355.336-.527.288-.433.605-.85.947-1.244.173-.197.345-.384.523-.557.082-.086.168-.168.25-.245.024-.024.053-.048.077-.072.187.11.341.206.351.216l-1.2 1.38.371 3.032Z" fill="url(#C)" />
    <path d="m147.993 89.559.132 1.23v.005l-.946 3.06-.422 1.377c-.144.303.283.99.086.952-.317-.063-1.105-.53-1.528-.812-.024-.039-.048-.073-.067-.111a2.814 2.814 0 0 1-.211-.437.693.693 0 0 1 .072-.221l.115-.346 1.73-5.09.081-.163.958.556Z" fill="url(#D)" />
    <path d="M153.774 84.986c-.08-.043-.19-.033-.308.035l-4.591 1.944-.128.073-.005 2.465 1.02-.587 3.804-1.491c.238-.137.432-.463.445-.743.027-.538.855-.655.754-1.121-.019-.089-.93-.543-.991-.575Z" fill="url(#E)" />
    <path d="m148.945 91.51-1.994-4.1c-.098-.17-.038-.481.144-.728a10.862 10.862 0 0 1 1.242-1.424c.209-.202.437-.221.535-.051l1.995 4.1-1.922 2.203Z" fill="#DFDFE3" />
    <path d="m149.703 90.058.005-2.465.128-.074 4.591-1.943c.208-.119.388-.058.433.148.103.466.139.975.113 1.514-.014.28-.208.606-.446.743l-3.804 1.491-1.02.586Z" fill="#DFDFE3" />
    <path d="M146.083 95.785c-.134-.105-.138-.367-.014-.628l1.846-5.435.078-.163 1.71.499-.616 1.287-1.372 4.442c-.143.3-.409.502-.606.463a2.394 2.394 0 0 1-1.026-.465Z" fill="#DFDFE3" />
    <path d="M147.108 95.642a.417.417 0 0 0 .073-.11l1.406-4.516 1.754-2.01 3.891-1.541a.433.433 0 0 0 .149-.257c.015-.32.007-.623-.026-.908l-4.736 2.028-1.053-2.465a10.67 10.67 0 0 0-.994 1.17.415.415 0 0 0-.071.146l1.083 2.517-1.985 5.728c.155.098.325.17.509.218Z" fill="#4B4A4B" />
    <path d="M152.922 89.589a.992.992 0 0 0-.089-.084c.203.08.377.19.504.323a7.166 7.166 0 0 1-.415-.24Z" fill="url(#F)" />
    <path d="M149.832 82.944c1.54-.858 2.929-.925 3.937-.339l.352.205c-1.008-.586-2.396-.52-3.937.34-3.133 1.745-5.708 6.104-5.753 9.735-.023 1.846.613 3.148 1.655 3.753l-.353-.205c-1.042-.605-1.678-1.907-1.655-3.753.045-3.63 2.621-7.99 5.754-9.736Z" fill="url(#G)" />
    <path d="M150.184 83.15c3.133-1.747 5.637-.219 5.592 3.413-.045 3.632-2.62 7.99-5.753 9.736-3.133 1.746-5.637.218-5.592-3.414.045-3.63 2.62-7.99 5.753-9.736Zm-5.238 9.449c-.041 3.302 2.236 4.691 5.084 3.104 2.849-1.587 5.191-5.55 5.232-8.853.04-3.302-2.236-4.692-5.085-3.104-2.849 1.587-5.19 5.551-5.231 8.853Z" fill="#E3E3E4" />
    <path d="m138.569 72.56.003 1.026 19.363-11.18-.003-1.025-19.363 11.179ZM112.669 89.569l.002.638 5.915-3.415-.002-.639-5.915 3.416Z" fill="#171717" />
    <path d="M58.164 122.088c-1.697 2.39-2.88 9.873-3.2 10.218l3.452-1.258 6.616-3.666c2.275-4.381 5.602-8.234 9.313-10.376 6.887-3.977 12.49-.554 12.513 7.646l.008 2.918 50.185-30.05-.004-1.844c-.024-8.2 5.542-18.07 12.43-22.047 6.886-3.977 12.489-.554 12.513 7.645l.003.94 6.568-5.629 2.167-3 .769-2.702v-7.04l-2.034-.387v-.648l-.5-11.744h-1.198c-.101.064-1.388 1.003-1.784 1.251l-.786.493-1.141.716-.796.498-1.417.89-.212.132c-7.176 4.495-18.977 12.732-22.602 14.94-5.04 3.07-42.998 26.749-53.763 33.867-10.765 7.118-23.59 15.587-24.193 16.075l-2.654 1.837-.253.325Zm80.408-48.502-.003-1.026 19.363-11.18.003 1.027-19.363 11.179ZM88.983 119.18l-.78-1.717 45.915-28.065-1.295 3.638-43.84 26.144Z" fill="#2067AF" />
    <path d="M58.416 121.76s3.62-3.384 3.762-3.514c6.05-5.522 17.897-14.301 18.448-14.805.757-1.129 12.347-24.184 15.169-27.23 2.82-3.046 13.324-9.426 13.877-9.762l23.658-14.076 20.588-11.954 2.464-.84 2.468.327 9.269 9.3.842 1.857h-1.197c-.184.116-1.285 1.015-2.374 1.739-5.838 3.88-22.117 14.593-26.363 17.18-5.04 3.07-42.998 26.749-53.763 33.867-10.765 7.119-23.59 15.588-24.194 16.075l-1.876 1.263c.063-.057-.778.573-.778.573Z" fill="#2883DE" />
    <path d="m171.496 70.882-.769 2.701-2.167 3.002-6.568 5.628-.592-.842c-.011-3.929-.717-6.856-2.819-8.302l12.915-9.228.078.394-.078 6.647Z" fill="#1D5C9C" />
    <path d="M148.587 72.737c-6.888 3.976-11.563 14.739-11.54 22.938l.005 1.844 1.34-.804 1.058-.635-.005-1.79c-.018-6.39 4.477-14.176 10.041-17.388-5.564 3.212-10.06 10.998-10.041 17.388l.005 1.79-1.058.635-.005-1.814c-.02-7.063 4.947-15.667 11.095-19.218 6.149-3.55 11.148-.7 11.168 6.365l.003 1.125 1.338-.959-.002-.939c-.023-8.2-6.516-12.514-13.402-8.538Z" fill="#2372C1" />
    <path d="M149.482 75.683c-6.148 3.55-11.115 12.155-11.095 19.218l.006 1.814 1.058-.635-.005-1.79c-.018-6.39 4.476-14.176 10.04-17.388 5.563-3.212 10.087-.634 10.106 5.757l.003 1.274 1.059-.76-.003-1.125c-.02-7.064-5.02-9.915-11.169-6.365Z" fill="#144270" />
    <path d="m137.052 97.519-.004-1.844c-.01-3.208.84-6.671 2.286-9.938l-53.912 32.861c.91 1.534 1.43 3.573 1.436 6.054l.009 2.918 50.185-30.051Zm-2.933-8.12-1.296 3.637-43.84 26.144-.779-1.717 45.915-28.065Z" fill="#1D5C9C" />
    <path d="m169.462 63.455-.796 1.535-10.116 8.077.243.526 10.975-7.89 1.728-1.861-.924-1.32-1.145-.929.035 1.862Z" fill="#2372C1" />
    <path d="m168.649 51.938-1.548 1.66-.314 4.53.344 6.672 2.113-1.406.218-.588-.175-11.024-.325-.72-.313.876Z" fill="#A80A02" />
    <path d="m158.85 39.906-2.999-2.807-3.276-2.382-5.922-4.56-10.109-5.887-8.921-4.072-3.968-1.832-4.382-1.486-2.467-.328 39.577 23.027 2.467.327Z" fill="#2067AF" />
    <path d="m156.383 39.579-1.874-2.173-3.003-2.842-5.029-4.032-9.989-6.038-12.957-5.985-4.07-1.399-2.655-.558-2.465.84 39.578 23.027 2.464-.84ZM153.919 40.419l-39.578-23.027-22.015 11.13 41.005 23.851 20.588-11.954Z" fill="#5BADFB" />
    <path d="m134.119 89.398-45.915 28.064.78 1.718 43.839-26.144 1.296-3.638Z" fill="#171717" />
    <path d="m133.331 52.373-41.005-23.85-23.658 14.076 41.004 23.85 23.659-14.076Z" fill="#5BADFB" />
    <path d="M137.823 51.472c-.888.524-21.125 12.121-27.687 16.348-6.563 4.227-12.261 8.135-14.528 10.334-2.268 2.197-9.3 19.276-9.685 19.999-.385.722-.972 4.492-1.002 4.69l53.736-33.335 18.94-12.81c.132-.193 2.649-3.864 2.648-4.141-.001-.277-6.344-9.323-7.213-9.043-.869.28-14.298 7.496-15.209 7.958ZM95.795 76.21 54.79 52.36C51.97 55.407 34.797 75.239 34.04 76.368l46.586 27.073c.757-1.129 12.347-24.184 15.169-27.23Z" fill="#0C100F" />
    <path d="m79.144 101.029 13.832-25.275s.662.095 1.778 0c1.117-.096 2.12-.565 2.12-.565s-2.807 3.839-4.449 7.055c-1.642 3.216-11.798 21.197-11.798 21.197l-1.483-2.412Z" fill="#3594F2" />
    <path d="M74.35 119.061c-6.146 3.549-11.115 12.154-11.095 19.217l.009 3.253c.413-.197.777-.37 1.06-.508l-.009-3.356c-.018-6.391 4.475-14.176 10.04-17.388 5.563-3.212 10.086-.634 10.105 5.757l.008 2.974 1.059-.637-.009-2.948c-.02-7.064-5.02-9.914-11.168-6.364Z" fill="#144270" />
    <path d="M73.454 116.115c-3.711 2.142-6.147 6.886-8.422 11.267l.324-.224-.912 2.971-.886.55c-1.052 2.792-1.65 5.672-1.642 8.372l.009 3.118c.475-.225.931-.442 1.339-.638.413-.197.777-.37 1.06-.508l-.009-3.356c-.018-6.391 4.475-14.176 10.04-17.388 5.563-3.212 10.086-.634 10.105 5.757-.018-6.391-4.542-8.969-10.106-5.757-5.564 3.212-10.057 10.997-10.039 17.388l.01 3.356c-.284.138-.648.311-1.061.508l-.01-3.253c-.02-7.063 4.95-15.668 11.096-19.217 6.149-3.55 11.148-.7 11.168 6.364l.009 2.948 1.339-.804-.008-2.918c-.023-8.199-6.517-12.513-13.404-8.536Z" fill="#2372C1" />
    <path d="M52.99 134.338c-.144.306.55 7.397.84 7.674.291.277 1.456 1.55 1.794 1.576.194.016 4.13-.392 6.3-1.419l-.008-3.117c-.008-2.7.59-5.58 1.642-8.372l-8.3 3.511-2.268.147Z" fill="#1D5C9C" />
    <path d="m11.106 118.921 2.186 2.802 3.236 3.153 4.065 3.065 10.657 6.198 4.836 2.522 6.942 3.113 7.364 3.063 5.072.688c-.454-.264-1.378-1.271-1.633-1.513-.29-.276-.985-7.368-.84-7.674L9.468 109.697c-.144.306.213 6.541.504 6.817.243.736.842 1.972 1.133 2.407Z" fill="#1D5C9C" />
    <path d="m65.356 127.158-.324.224-6.616 3.666-3.452 1.258-2.773 2.465 5.947-1.122 5.42-2.97.886-.55.912-2.971Z" fill="#3594F2" />
    <path d="M54.964 132.306 44.711 128.3l-30.389-17.67-3.216-3.823c-.339.362-1.493 2.585-1.637 2.89l.657 2.645.98 1.721 4.075 3.71 4.62 3.228 4.874 3.357 9.546 5.028 8.257 2.919 4.074 1.311 5.639 1.155c.144-.305 2.434-2.103 2.773-2.465Z" fill="#3594F2" />
    <path d="m60.644 119.924-45.38-24.38c-1.588.546-3.82 10.902-4.157 11.263l1.06 2.325 1.177 2.631 3.634 3.584 3.666 2.558 5.36 3.854 9.3 4.67 8.429 3.005 6.417 1.86 4.816 1.01c.335-.36 3.844-10.431 5.678-12.38Z" fill="#3594F2" />
    <path d="m60.644 119.924-4.674.932-9.751-1.551-8.89-3.427-7.172-3.427-5.659-4.122-5.258-4.391-4.21-4.543-.664-2.067.115-1.338c-.932 1.508-3.037 10.456-3.373 10.817l1.06 2.325 1.176 2.631 3.635 3.584 3.666 2.558 5.36 3.854 9.3 4.67 8.429 3.005 6.416 1.86 4.816 1.01c.335-.36 3.844-10.431 5.678-12.38Z" fill="#2067AF" />
    <path d="m34.04 76.368 46.586 27.073c-.552.503-19.637 16.114-19.983 16.482 0 0-4.66.515-6.342.266-2.358-.35-9.648-2.978-9.648-2.978l-10.89-4.516-7.332-4.261-8.34-6.384-2.829-3.905v-2.602c.322-.34 18.226-18.672 18.778-19.175Z" fill="#3594F2" />
    <path d="m92.174 75.556-5.003-2.187-6.989-3.326-5.405-2.165-11.498-6.689-3.316-2.593-2.552-2.225-2.252-2.356c-2.674 2.888-18.76 21.342-19.477 22.412l2.777 4.488 2.917 4.053 6.087 4.145 6.892 4.004 5.576 2.633 10.507 3.75 9.408 2.592c.716-1.07 9.653-23.647 12.328-26.535Z" fill="#0C100F" />
    <path d="m92.174 75.556-5.003-2.187-6.989-3.326-5.405-2.165-11.498-6.689-3.316-2.593-2.552-2.225-2.36-2.561c-2.21 2.386-12.779 14.917-16.827 19.732a3.823 3.823 0 0 0-.554 4.038l1.178 2.6 2.918 4.051 6.086 4.145 6.892 4.005 5.576 2.633 10.507 3.749 4.785 1.231a3.478 3.478 0 0 0 3.953-1.762c3.058-5.879 10.433-20.325 12.61-22.675Z" fill="#1E2329" />
    <path d="m68.002 67.304 2.07 1.195a36.47 36.47 0 0 1 3.416 2.242c.365.268.567.815.47 1.27l-.257 1.205c-.097.456-.463.675-.849.51a32.556 32.556 0 0 1-3.519-1.762l-2.069-1.194a36.449 36.449 0 0 1-3.417-2.242c-.364-.269-.566-.815-.468-1.27l.256-1.205c.097-.456.462-.675.849-.51a32.222 32.222 0 0 1 3.518 1.761Z" fill="#313942" />
    <path d="M67.547 68.839c.023-.591.151-2.223.151-2.223l2.058.043s-.228 2.314-.255 2.398c-.115.377-.618.793-.834.77-.505-.052-1.144-.35-1.12-.988Z" fill="#313942" />
    <path d="M67.87 66.12c-.314.432-.187 1.006.287 1.28.473.275 1.112.147 1.427-.286.314-.433.186-1.006-.287-1.281-.472-.275-1.11-.147-1.426.286Z" fill="#3A434F" />
    <path d="M88.01 96.94s6.343-15.666 8.304-17.913c1.69-1.935 30.085-19.812 38.704-24.662 8.618-4.85 17.404-9.7 17.404-9.7l5.463 7.556-1.841 3.83-68.033 43.305V96.94h-.001Z" fill="#1E2329" />
    <path d="M92.976 75.754s-2.91 3.733-7.554 13.177c-4.643 9.444-5.97 11.792-6.277 12.098-.306.307-4.363.02-9.183-1.7 7.906 3.181 10.665 4.112 10.665 4.112l13.998-27.387-1.649-.3Z" fill="#3594F2" />
    <path d="M34.04 76.368C42.843 64.943 54.79 52.36 54.79 52.36l1.48.86s-.507-.825-1.068-.47c-.562.356-12.693 14.026-19.131 22.941-.38.527.607 2.21.607 2.21l-2.638-1.533Z" fill="#449FFB" />
    <path d="M109.672 66.45 68.668 42.598c-.553.335-11.056 6.716-13.877 9.761l2.269 2.154 4.827 3.902 3.364 2.343 11.497 6.689 5.076 2.568 6.99 3.325 6.981 2.869c2.822-3.045 13.324-9.425 13.877-9.76Z" fill="#5BADFB" />
    <path d="M89.537 73.639s2.906 1.202 3.16 1.457c.256.256.28.657.28.657l1.648.301.69-1.596-5.778-.82Z" fill="#5BADFB" />
    <path d="M37.569 74.667c.248-.166.478-.374.67-.639l4.285-1.726 3.585.673 13.446 7.82 1.264 5.852 19.419 10.288-.674 1.298a3.48 3.48 0 0 1-3.953 1.762l-4.785-1.231-10.506-3.75-5.577-2.632-6.891-4.005-6.087-4.145-2.917-4.052-1.179-2.599a3.824 3.824 0 0 1-.1-2.914Z" fill="#272E36" />
    <path d="M76.167 67.544S66.174 80.35 58.783 95.209c18.272 5.838 20.576 5.527 20.576 5.527l13.339-25.639s-11.495-3.651-16.531-7.552Z" fill="#0B0E0F" />
    <path d="m109.884 68.969 1.418 16.104 3.342-2.042-2.962-15.114-1.798 1.052Z" fill="#0C100F" />
    <path d="m85.52 126.06 52.879-31.797-.006 2.452-52.866 31.658-.007-2.313Z" fill="#144270" />
    <path d="m61.198 120.465.615 1.703v3.85c0 .076-1.624 2.831-1.915 3.335-.289.504-4.045 2.412-4.74 2.563-.696.15-5.673-1.023-5.673-1.023l-5.462-1.659s-.46-.842-.485-1.608c-.025-.766 5.054-6.764 6.535-7.147 1.48-.383 3.094.379 5.897.377 2.803-.002 3.62-.598 4.185-.598.565 0 1.043.207 1.043.207Z" fill="#AACCF7" />
    <path d="M50.073 120.479c1.48-.383 3.094.379 5.897.377 2.803-.002 3.62-.598 4.185-.598.565 0 1.043.207 1.043.207l.615 1.703v3.85c0 .069-1.334 2.339-1.8 3.139-.29.125-.465.196-.465.196l-3.63.179-6.86-1.429s-2.532-.172-5.034 1.131c0 0-.46-.842-.485-1.608-.026-.767 5.053-6.765 6.534-7.147Z" fill="#9AB9E0" />
    <path d="M49.057 128.103s1.033-4.278 2.096-6.343c1.634.352 5.709.862 5.709.862s-.934 6.518-1.4 6.731c-.463.212-6.405-1.25-6.405-1.25Z" fill="#D9E7F7" />
    <path d="M58.416 120.127c2.447-.729 22.211-16.686 22.211-16.686s-17.538 15.095-19.983 16.483c-2.446 1.388-6.957 1.338-12.7.095-5.743-1.242-10.643-.868-16.02-3.964-5.377-3.097-12.472-11.129-14.217-13.265-1.744-2.135-2.765-3.037-3.071-3.82-.306-.783-.642-1.14-.44-2.22.201-1.081 1.472-3.644 19.844-20.382L14.644 96.23s-.08 1.556.306 2.272c.386.716 2.663 3.589 2.663 3.589l8.423 7.14s5.26 3.36 7.128 4.271c2.615 1.277 5.634 2.488 11.164 4.423 4.585 1.605 8.233 2.105 9.706 2.218 0 0 2.916.194 4.382-.016Z" fill="#2883DE" />
    <path d="M17.712 103.153a.137.137 0 0 1 .237-.097c1.845 1.962 7.536 6.596 12.649 9.663 5.36 3.216 16.437 6.535 16.59 6.636.153.103.757.664.757.664s-4.47 4.401-5.964 6.329l-1.225.919s-4.339-1.185-7.3-2.634c-2.96-1.449-4.952-2.317-7.76-4.002-2.15-1.29-5.061-3.566-6.309-4.563a2.329 2.329 0 0 1-.813-1.282 24.604 24.604 0 0 1-.56-3.393c-.217-2.408-.287-6.933-.302-8.24Z" fill="#171717" />
    <path d="M17.949 103.056c.3.321.706.713 1.193 1.157.04 1.919.12 4.545.268 6.186.125 1.391.379 2.631.56 3.394.12.507.406.957.813 1.283 1.248.996 4.16 3.273 6.31 4.563 2.807 1.684 4.798 2.552 7.759 4.001 2.711 1.328 6.575 2.432 7.208 2.609l-.079.099-1.225.919s-4.339-1.185-7.3-2.634c-2.96-1.449-4.952-2.317-7.76-4.002-2.15-1.29-5.061-3.566-6.309-4.563a2.329 2.329 0 0 1-.813-1.282 24.604 24.604 0 0 1-.56-3.393c-.217-2.407-.287-6.932-.303-8.24 0-.126.152-.188.238-.097Z" fill="#144270" />
    <path d="M14.48 95.99c-.076.716-.251 1.032.381 2.742.634 1.709 1.817 2.246 2.021 3.062.204.817-.394 7.385.34 10.754-.612 1.77-1.436.965-1.96.517-.524-.449-1.273-1.592-1.851-2.501-.579-.908-1.947-3.078-2.029-4.512-.081-1.433 2.178-7.933 2.586-8.865.409-.93.512-1.197.512-1.197Z" fill="#AACCF7" />
    <path d="M15.027 99.127h.002c.655 1.402 1.666 1.918 1.853 2.667.204.817-.394 7.385.34 10.754 0 0-2.756-2.79-3.087-4.602-.33-1.812.79-6.763.892-8.819Z" fill="#D9E7F7" />
    <path d="M59.5 121.245s.535-.317.637-.287c.102.031 1.055.688 1.157 1.21.103.523.069 3.048 0 3.521-.067.472-1.633 3.238-1.746 3.436-.114.198-.553.485-1.132.78-.578.296-1.563.708-1.563.708s-.928.031-.862-.437c.304-2.144 1.316-7.685 1.398-7.987.03-.111.683-.632.927-.672.567-.095 1.183-.272 1.183-.272ZM14.196 96.75c-.054.689.037 1.114 0 1.369-.036.255-1.856 6.177-2.044 7.947-.204.952-.545 0-.545 0s-.067-.764-.059-1.25c.008-.486 1.323-5.233 2.648-8.067Z" fill="#D08800" />
    <path d="M107.541 92.402c-.354.88.027 1.479.21 1.694.199.234 3.571-1.797 3.904-2.115.332-.316.126-1.203.066-1.412-.06-.21-4.18 1.833-4.18 1.833Z" fill="#144270" />
    <path d="m110.383 90.546-2.302 1.329c-.298.172-.54.588-.54.93v.12c0 .343.242.48.54.308l3.167-1.828c.356-.205.539-.8.294-.956-.301-.191-.721-.157-1.159.097Z" fill="#2372C1" />
    <path d="M107.657 93.343c-.128-.074-.199-.222-.199-.418v-.12c0-.373.256-.814.581-1.003l2.302-1.329c.465-.268.917-.302 1.245-.095.1.064.153.183.15.335-.005.248-.164.599-.448.763l-3.166 1.828a.578.578 0 0 1-.284.085.347.347 0 0 1-.181-.046Zm2.768-2.725-2.302 1.329c-.275.159-.498.544-.498.859v.119c0 .134.041.23.116.274.076.044.181.03.299-.038l3.167-1.828c.22-.127.361-.422.365-.622 0-.054-.007-.15-.073-.192a.73.73 0 0 0-.397-.107c-.208-.001-.439.068-.677.206ZM115.897 87.23c-.354.88.026 1.48.208 1.694.2.235 3.572-1.797 3.904-2.114.333-.317.126-1.204.066-1.413-.059-.209-4.178 1.833-4.178 1.833Z" fill="#144270" />
    <path d="m118.739 85.375-2.303 1.329c-.298.172-.539.589-.539.931v.12c0 .342.241.48.539.307l3.167-1.828c.356-.205.539-.8.295-.956-.302-.192-.721-.156-1.159.097Z" fill="#2372C1" />
    <path d="M116.012 88.171c-.128-.074-.198-.222-.198-.418v-.119c0-.374.255-.815.581-1.002l2.302-1.33c.464-.267.917-.302 1.245-.095.1.064.154.183.15.336-.005.247-.164.598-.447.762l-3.167 1.828a.578.578 0 0 1-.284.085.352.352 0 0 1-.182-.047Zm2.768-2.725-2.302 1.33c-.275.158-.498.543-.498.858v.12c0 .133.041.23.115.273.076.044.182.03.3-.037l3.166-1.828c.22-.127.361-.422.365-.622.001-.054-.007-.15-.073-.191a.73.73 0 0 0-.396-.108c-.207 0-.439.068-.677.205Z" fill="#144270" />
    <path d="M89.335 99.126s-.811-.118-1.146-.392c-.335-.275-.085-1.285.486-1.647.571-.362 2.174.442 2.438.305.266-.137 1.891.55 1.891.55l-.528 1.163-3.14.021Z" fill="#1D5C9C" />
    <path d="M92.562 94.91c-1.51-.377-3.047.116-3.251 1.828-.246 2.078.667 2.409 1.219 2.67.55.26 2.612 1.16 5.223 1.19 2.611.029 2.93-1.366 2.93-2.296 0-.133-.003-.124-.01-.247-.073-1.325-.551-1.72-1.44-1.985-1.919-.571-4.671-1.16-4.671-1.16Z" fill="#1D5C9C" />
    <path d="M89.903 95.772c.867-.27 2.66.08 4.424.463 1.763.383 3.088.353 3.227 2.066.14 1.713-.416 2.13-1.148 2.242-.732.112-2.122.102-4.213-.506-2.092-.608-2.386-.952-2.713-1.529-.325-.576-.44-2.467.423-2.736Z" fill="#2372C1" />
    <path d="M38.05 132.901c1.843.695 4.748 1.923 5.488 3.658.74 1.736 1.71 2.753 1.813 3.342.102.588-13.042-5.797-14.46-6.688-1.417-.891-9.687-5.434-9.84-5.587-.153-.153-3.828-2.991-3.828-2.991s-.154-2.868.484-2.874c.638-.005 4.467 3.134 4.467 3.134s10.465 5.962 15.876 8.006Z" fill="#171717" />
    <path d="M17.707 121.76c.305-.003 1.338.713 2.334 1.461v.678s1.674 1.735 2.337 2.195c.663.46 10.248 5.568 13.496 7.225 1.562.798 4.747 2.06 7.637 3.185l.026.055c.74 1.736 1.71 2.753 1.813 3.342.102.588-13.04-5.798-14.458-6.688-1.418-.891-9.689-5.435-9.842-5.587-.153-.153-3.828-2.992-3.828-2.992s-.153-2.868.485-2.874Z" fill="#144270" />
    <path d="M29.959 114.148c-2.514-1.582-10.43-7.257-11.23-8.487a7.412 7.412 0 0 1-1.018-2.508l.136-.139a.133.133 0 0 1 .101.042c1.845 1.962 7.537 6.596 12.649 9.663 5.36 3.216 16.437 6.535 16.59 6.636l.757.664s-3.76-.327-4.602-.477c-.842-.15-10.868-3.812-13.383-5.394Z" fill="#D6D6D6" />
    <path d="M167.764 51.063s-.05-1.287-1.275-2.41c-1.226-1.122-7.485-8.16-8.822-8.904l1.184.157s8.68 8.332 9.269 9.3c.589.967.842 1.856.842 1.856h-1.198Z" fill="#2067AF" />
    <path d="m135.308 70.708-3.829-15.043 2.348-1.43 5.717 14.311-4.236 2.162Z" fill="#0C100F" />
  </g>
  <defs>
    <linearGradient id="b" x1="-42.056" y1="170.859" x2="8.622" y2="-88.089" gradientUnits="userSpaceOnUse">
      <stop stop-color="#181818" />
      <stop offset=".272" stop-color="#262626" />
      <stop offset=".774" stop-color="#2E2E2E" />
    </linearGradient>
    <linearGradient id="c" x1="281.257" y1="156.359" x2="256.093" y2="-41.672" gradientUnits="userSpaceOnUse">
      <stop stop-color="#2A2A2A" />
      <stop offset=".021" stop-color="#292929" />
      <stop offset=".228" stop-color="#202020" />
      <stop offset=".584" stop-color="#1E1E1E" />
      <stop offset=".638" stop-color="#1D1D1D" />
      <stop offset="1" stop-color="#1A1A1A" />
    </linearGradient>
    <linearGradient id="d" x1="-47.863" y1="210.069" x2="3.463" y2="-97.397" gradientUnits="userSpaceOnUse">
      <stop offset=".226" stop-color="#383838" />
      <stop offset=".728" stop-color="#292929" />
      <stop offset="1" stop-color="#262626" />
    </linearGradient>
    <linearGradient id="e" x1="-47.7" y1="210.01" x2="3.643" y2="-97.3" gradientUnits="userSpaceOnUse">
      <stop offset=".226" stop-color="#383838" />
      <stop offset=".728" stop-color="#292929" />
      <stop offset="1" stop-color="#262626" />
    </linearGradient>
    <linearGradient id="f" x1="269.289" y1="158.303" x2="229.323" y2="-56.28" gradientUnits="userSpaceOnUse">
      <stop stop-color="#2A2A2A" />
      <stop offset=".021" stop-color="#292929" />
      <stop offset=".228" stop-color="#202020" />
      <stop offset=".584" stop-color="#1E1E1E" />
      <stop offset=".638" stop-color="#1D1D1D" />
      <stop offset="1" stop-color="#1A1A1A" />
    </linearGradient>
    <linearGradient id="g" x1="269.274" y1="158.296" x2="229.311" y2="-56.278" gradientUnits="userSpaceOnUse">
      <stop offset=".179" stop-color="#1A1A1A" />
      <stop offset=".646" stop-color="#1E1E1E" />
      <stop offset=".656" stop-color="#1E1E1E" />
    </linearGradient>
    <linearGradient id="h" x1="269.269" y1="158.294" x2="229.307" y2="-56.28" gradientUnits="userSpaceOnUse">
      <stop offset=".344" stop-color="#1F1F1F" />
      <stop offset=".402" stop-color="#1E1E1E" />
      <stop offset=".821" stop-color="#1A1A1A" />
    </linearGradient>
    <linearGradient id="i" x1="269.242" y1="158.301" x2="229.275" y2="-56.282" gradientUnits="userSpaceOnUse">
      <stop stop-color="#161616" />
      <stop offset=".305" stop-color="#1A1A1A" />
      <stop offset=".79" stop-color="#1E1E1E" />
      <stop offset=".8" stop-color="#1E1E1E" />
    </linearGradient>
    <linearGradient id="j" x1="267.479" y1="160.895" x2="226.008" y2="-57.506" gradientUnits="userSpaceOnUse">
      <stop stop-color="#141414" />
      <stop offset=".444" stop-color="#1E1E1E" />
      <stop offset=".783" stop-color="#202020" />
      <stop offset=".981" stop-color="#292929" />
      <stop offset="1" stop-color="#2A2A2A" />
    </linearGradient>
    <linearGradient id="k" x1="-42.566" y1="200.44" x2="12.267" y2="-94.957" gradientUnits="userSpaceOnUse">
      <stop stop-color="#D7D7D9" />
      <stop offset=".189" stop-color="#E2E2E2" />
      <stop offset=".212" stop-color="#DCDCDD" />
      <stop offset=".285" stop-color="#CECED2" />
      <stop offset=".375" stop-color="#C5C5CC" />
      <stop offset=".527" stop-color="#C3C3CA" />
      <stop offset=".873" stop-color="#B3B4BE" />
      <stop offset=".882" stop-color="#A5A7B3" />
    </linearGradient>
    <linearGradient id="l" x1="-75.466" y1="208.88" x2="-22.299" y2="-108.217" gradientUnits="userSpaceOnUse">
      <stop stop-color="#B3B3B5" />
      <stop offset=".189" stop-color="#BEBEBE" />
      <stop offset=".209" stop-color="#B9B9BA" />
      <stop offset=".283" stop-color="#ABABAF" />
      <stop offset=".374" stop-color="#A2A2A8" />
      <stop offset=".527" stop-color="#A0A0A6" />
      <stop offset=".873" stop-color="#91929A" />
      <stop offset=".882" stop-color="#84858F" />
    </linearGradient>
    <linearGradient id="m" x1="579.969" y1="60.446" x2="370.647" y2="400.204" gradientUnits="userSpaceOnUse">
      <stop stop-color="#ADAEB8" />
      <stop offset=".076" stop-color="#BABCC5" />
      <stop offset=".199" stop-color="#C9CBD4" />
      <stop offset=".342" stop-color="#D2D4DC" />
      <stop offset=".549" stop-color="#D5D7DF" />
      <stop offset=".662" stop-color="#C0C1CA" />
      <stop offset="1" stop-color="#868490" />
    </linearGradient>
    <linearGradient id="n" x1="419.176" y1="91.976" x2="331.594" y2="-105.278" gradientUnits="userSpaceOnUse">
      <stop stop-color="#ADAEB8" />
      <stop offset=".076" stop-color="#BABCC5" />
      <stop offset=".199" stop-color="#C9CBD4" />
      <stop offset=".342" stop-color="#D2D4DC" />
      <stop offset=".549" stop-color="#D5D7DF" />
      <stop offset=".662" stop-color="#C0C1CA" />
      <stop offset="1" stop-color="#868490" />
    </linearGradient>
    <linearGradient id="o" x1="160.006" y1="129.887" x2="109.836" y2="-26.983" gradientUnits="userSpaceOnUse">
      <stop stop-color="#ADAEB8" />
      <stop offset=".076" stop-color="#BABCC5" />
      <stop offset=".199" stop-color="#C9CBD4" />
      <stop offset=".342" stop-color="#D2D4DC" />
      <stop offset=".549" stop-color="#D5D7DF" />
      <stop offset=".662" stop-color="#C0C1CA" />
      <stop offset="1" stop-color="#868490" />
    </linearGradient>
    <linearGradient id="p" x1="109.445" y1="87.266" x2="124.827" y2="47.069" gradientUnits="userSpaceOnUse">
      <stop stop-color="#B3B3B5" />
      <stop offset=".189" stop-color="#BEBEBE" />
      <stop offset=".209" stop-color="#B9B9BA" />
      <stop offset=".283" stop-color="#ABABAF" />
      <stop offset=".374" stop-color="#A2A2A8" />
      <stop offset=".527" stop-color="#A0A0A6" />
      <stop offset=".873" stop-color="#91929A" />
      <stop offset=".882" stop-color="#84858F" />
    </linearGradient>
    <linearGradient id="q" x1="-185.405" y1="177.58" x2="-133.595" y2="-131.215" gradientUnits="userSpaceOnUse">
      <stop offset=".118" stop-color="#A5A7B3" />
      <stop offset=".127" stop-color="#B3B4BE" />
      <stop offset=".473" stop-color="#C3C3CA" />
      <stop offset=".57" stop-color="#E3E3E3" />
      <stop offset=".583" stop-color="#E6E7E8" />
      <stop offset=".626" stop-color="#ECEFF3" />
      <stop offset=".673" stop-color="#EEF2F7" />
      <stop offset=".743" stop-color="#EDF0F5" />
      <stop offset=".784" stop-color="#E8EAEC" />
      <stop offset=".811" stop-color="#E2E2E2" />
      <stop offset="1" stop-color="#D7D7D9" />
    </linearGradient>
    <linearGradient id="r" x1="-42.059" y1="170.852" x2="8.62" y2="-88.097" gradientUnits="userSpaceOnUse">
      <stop stop-color="#181818" />
      <stop offset=".272" stop-color="#262626" />
      <stop offset=".774" stop-color="#2E2E2E" />
    </linearGradient>
    <linearGradient id="s" x1="281.31" y1="156.367" x2="256.142" y2="-41.675" gradientUnits="userSpaceOnUse">
      <stop stop-color="#2A2A2A" />
      <stop offset=".021" stop-color="#292929" />
      <stop offset=".228" stop-color="#202020" />
      <stop offset=".584" stop-color="#1E1E1E" />
      <stop offset=".638" stop-color="#1D1D1D" />
      <stop offset="1" stop-color="#1A1A1A" />
    </linearGradient>
    <linearGradient id="t" x1="-47.817" y1="210.066" x2="3.51" y2="-97.4" gradientUnits="userSpaceOnUse">
      <stop offset=".226" stop-color="#383838" />
      <stop offset=".728" stop-color="#292929" />
      <stop offset="1" stop-color="#262626" />
    </linearGradient>
    <linearGradient id="u" x1="-47.706" y1="210.005" x2="3.638" y2="-97.304" gradientUnits="userSpaceOnUse">
      <stop offset=".226" stop-color="#383838" />
      <stop offset=".728" stop-color="#292929" />
      <stop offset="1" stop-color="#262626" />
    </linearGradient>
    <linearGradient id="v" x1="269.254" y1="158.303" x2="229.291" y2="-56.272" gradientUnits="userSpaceOnUse">
      <stop stop-color="#2A2A2A" />
      <stop offset=".021" stop-color="#292929" />
      <stop offset=".228" stop-color="#202020" />
      <stop offset=".584" stop-color="#1E1E1E" />
      <stop offset=".638" stop-color="#1D1D1D" />
      <stop offset="1" stop-color="#1A1A1A" />
    </linearGradient>
    <linearGradient id="w" x1="269.27" y1="158.298" x2="229.305" y2="-56.281" gradientUnits="userSpaceOnUse">
      <stop offset=".179" stop-color="#1A1A1A" />
      <stop offset=".646" stop-color="#1E1E1E" />
      <stop offset=".656" stop-color="#1E1E1E" />
    </linearGradient>
    <linearGradient id="x" x1="269.266" y1="158.291" x2="229.298" y2="-56.291" gradientUnits="userSpaceOnUse">
      <stop offset=".344" stop-color="#1F1F1F" />
      <stop offset=".402" stop-color="#1E1E1E" />
      <stop offset=".821" stop-color="#1A1A1A" />
    </linearGradient>
    <linearGradient id="y" x1="269.239" y1="158.299" x2="229.278" y2="-56.274" gradientUnits="userSpaceOnUse">
      <stop stop-color="#161616" />
      <stop offset=".305" stop-color="#1A1A1A" />
      <stop offset=".79" stop-color="#1E1E1E" />
      <stop offset=".8" stop-color="#1E1E1E" />
    </linearGradient>
    <linearGradient id="z" x1="267.451" y1="160.91" x2="225.977" y2="-57.499" gradientUnits="userSpaceOnUse">
      <stop stop-color="#141414" />
      <stop offset=".444" stop-color="#1E1E1E" />
      <stop offset=".783" stop-color="#202020" />
      <stop offset=".981" stop-color="#292929" />
      <stop offset="1" stop-color="#2A2A2A" />
    </linearGradient>
    <linearGradient id="A" x1="-42.57" y1="200.437" x2="12.263" y2="-94.96" gradientUnits="userSpaceOnUse">
      <stop stop-color="#D7D7D9" />
      <stop offset=".189" stop-color="#E2E2E2" />
      <stop offset=".212" stop-color="#DCDCDD" />
      <stop offset=".285" stop-color="#CECED2" />
      <stop offset=".375" stop-color="#C5C5CC" />
      <stop offset=".527" stop-color="#C3C3CA" />
      <stop offset=".873" stop-color="#B3B4BE" />
      <stop offset=".882" stop-color="#A5A7B3" />
    </linearGradient>
    <linearGradient id="B" x1="-75.489" y1="208.89" x2="-22.323" y2="-108.206" gradientUnits="userSpaceOnUse">
      <stop stop-color="#B3B3B5" />
      <stop offset=".189" stop-color="#BEBEBE" />
      <stop offset=".209" stop-color="#B9B9BA" />
      <stop offset=".283" stop-color="#ABABAF" />
      <stop offset=".374" stop-color="#A2A2A8" />
      <stop offset=".527" stop-color="#A0A0A6" />
      <stop offset=".873" stop-color="#91929A" />
      <stop offset=".882" stop-color="#84858F" />
    </linearGradient>
    <linearGradient id="C" x1="579.716" y1="60.44" x2="370.34" y2="400.149" gradientUnits="userSpaceOnUse">
      <stop stop-color="#ADAEB8" />
      <stop offset=".076" stop-color="#BABCC5" />
      <stop offset=".199" stop-color="#C9CBD4" />
      <stop offset=".342" stop-color="#D2D4DC" />
      <stop offset=".549" stop-color="#D5D7DF" />
      <stop offset=".662" stop-color="#C0C1CA" />
      <stop offset="1" stop-color="#868490" />
    </linearGradient>
    <linearGradient id="D" x1="419.161" y1="91.971" x2="331.623" y2="-105.233" gradientUnits="userSpaceOnUse">
      <stop stop-color="#ADAEB8" />
      <stop offset=".076" stop-color="#BABCC5" />
      <stop offset=".199" stop-color="#C9CBD4" />
      <stop offset=".342" stop-color="#D2D4DC" />
      <stop offset=".549" stop-color="#D5D7DF" />
      <stop offset=".662" stop-color="#C0C1CA" />
      <stop offset="1" stop-color="#868490" />
    </linearGradient>
    <linearGradient id="E" x1="159.962" y1="129.849" x2="109.828" y2="-26.97" gradientUnits="userSpaceOnUse">
      <stop stop-color="#ADAEB8" />
      <stop offset=".076" stop-color="#BABCC5" />
      <stop offset=".199" stop-color="#C9CBD4" />
      <stop offset=".342" stop-color="#D2D4DC" />
      <stop offset=".549" stop-color="#D5D7DF" />
      <stop offset=".662" stop-color="#C0C1CA" />
      <stop offset="1" stop-color="#868490" />
    </linearGradient>
    <linearGradient id="F" x1="108.917" y1="87.513" x2="123.812" y2="47.567" gradientUnits="userSpaceOnUse">
      <stop stop-color="#B3B3B5" />
      <stop offset=".189" stop-color="#BEBEBE" />
      <stop offset=".209" stop-color="#B9B9BA" />
      <stop offset=".283" stop-color="#ABABAF" />
      <stop offset=".374" stop-color="#A2A2A8" />
      <stop offset=".527" stop-color="#A0A0A6" />
      <stop offset=".873" stop-color="#91929A" />
      <stop offset=".882" stop-color="#84858F" />
    </linearGradient>
    <linearGradient id="G" x1="-185.41" y1="177.579" x2="-133.599" y2="-131.217" gradientUnits="userSpaceOnUse">
      <stop offset=".118" stop-color="#A5A7B3" />
      <stop offset=".127" stop-color="#B3B4BE" />
      <stop offset=".473" stop-color="#C3C3CA" />
      <stop offset=".57" stop-color="#E3E3E3" />
      <stop offset=".583" stop-color="#E6E7E8" />
      <stop offset=".626" stop-color="#ECEFF3" />
      <stop offset=".673" stop-color="#EEF2F7" />
      <stop offset=".743" stop-color="#EDF0F5" />
      <stop offset=".784" stop-color="#E8EAEC" />
      <stop offset=".811" stop-color="#E2E2E2" />
      <stop offset="1" stop-color="#D7D7D9" />
    </linearGradient>
    <clipPath id="a">
      <path fill="#fff" transform="translate(.201 .391)" d="M0 0h178.541v162.38H0z" />
    </clipPath>
  </defs>
</svg>