<svg width="126" height="126" viewBox="0 0 126 126" fill="none" xmlns="http://www.w3.org/2000/svg">
  <path d="M115.5 31.5004V44.2054C115.5 52.5005 110.25 57.7505 101.955 57.7505H84V21.0529C84 15.2254 88.7775 10.4479 94.605 10.5004C100.328 10.5529 105.577 12.8629 109.358 16.6429C113.137 20.4754 115.5 25.7254 115.5 31.5004Z" fill="#0E4686" />
  <path d="M115.5 31.5004V44.2054C115.5 52.5005 110.25 57.7505 101.955 57.7505H84V21.0529C84 15.2254 88.7775 10.4479 94.605 10.5004C100.328 10.5529 105.577 12.8629 109.358 16.6429C113.137 20.4754 115.5 25.7254 115.5 31.5004Z" fill="black" fill-opacity="0.2" />
  <g opacity="0.4">
    <path d="M10.5 36.75V110.25C10.5 114.607 15.435 117.075 18.9 114.45L27.8775 107.73C29.9775 106.155 32.9175 106.365 34.8075 108.255L43.5225 117.023C45.57 119.07 48.93 119.07 50.9775 117.023L59.7975 108.202C61.635 106.365 64.575 106.155 66.6225 107.73L75.6 114.45C79.065 117.022 84 114.555 84 110.25V21C84 15.225 88.725 10.5 94.5 10.5H36.75H31.5C15.75 10.5 10.5 19.8975 10.5 31.5V36.75Z" fill="#0E4686" />
    <path d="M10.5 36.75V110.25C10.5 114.607 15.435 117.075 18.9 114.45L27.8775 107.73C29.9775 106.155 32.9175 106.365 34.8075 108.255L43.5225 117.023C45.57 119.07 48.93 119.07 50.9775 117.023L59.7975 108.202C61.635 106.365 64.575 106.155 66.6225 107.73L75.6 114.45C79.065 117.022 84 114.555 84 110.25V21C84 15.225 88.725 10.5 94.5 10.5H36.75H31.5C15.75 10.5 10.5 19.8975 10.5 31.5V36.75Z" fill="black" fill-opacity="0.2" />
  </g>
  <path d="M60.0159 63.4205C57.1284 63.4205 54.7659 65.783 54.7659 68.6705C54.7659 71.558 57.1284 73.9205 60.0159 73.9205C62.9034 73.9205 65.2659 71.558 65.2659 68.6705C65.2659 65.783 62.9034 63.4205 60.0159 63.4205Z" fill="#0E4686" />
  <path d="M60.0159 63.4205C57.1284 63.4205 54.7659 65.783 54.7659 68.6705C54.7659 71.558 57.1284 73.9205 60.0159 73.9205C62.9034 73.9205 65.2659 71.558 65.2659 68.6705C65.2659 65.783 62.9034 63.4205 60.0159 63.4205Z" fill="black" fill-opacity="0.2" />
  <path d="M34.4941 52.6564C37.4341 52.6564 39.7441 50.2939 39.7441 47.4064C39.7441 44.5189 37.3816 42.1564 34.4941 42.1564C31.6066 42.1564 29.2441 44.5189 29.2441 47.4064C29.2441 50.2939 31.6066 52.6564 34.4941 52.6564Z" fill="#0E4686" />
  <path d="M34.4941 52.6564C37.4341 52.6564 39.7441 50.2939 39.7441 47.4064C39.7441 44.5189 37.3816 42.1564 34.4941 42.1564C31.6066 42.1564 29.2441 44.5189 29.2441 47.4064C29.2441 50.2939 31.6066 52.6564 34.4941 52.6564Z" fill="black" fill-opacity="0.2" />
  <path d="M64.3697 40.6348C62.8472 39.1123 60.3272 39.1123 58.8047 40.6348L30.1399 69.3C28.6174 70.8225 28.6174 73.3425 30.1399 74.865C30.9274 75.6525 31.9249 76.02 32.9224 76.02C33.9199 76.02 34.9174 75.6525 35.7049 74.865L64.3697 46.1998C65.8922 44.6773 65.8922 42.1573 64.3697 40.6348Z" fill="#0E4686" />
  <path d="M64.3697 40.6348C62.8472 39.1123 60.3272 39.1123 58.8047 40.6348L30.1399 69.3C28.6174 70.8225 28.6174 73.3425 30.1399 74.865C30.9274 75.6525 31.9249 76.02 32.9224 76.02C33.9199 76.02 34.9174 75.6525 35.7049 74.865L64.3697 46.1998C65.8922 44.6773 65.8922 42.1573 64.3697 40.6348Z" fill="black" fill-opacity="0.2" />
</svg>